<?xml version="1.0" encoding="utf-8"?>
<!-- Generator: Adobe Illustrator 25.4.1, SVG Export Plug-In . SVG Version: 6.00 Build 0)  -->
<svg version="1.1" id="圖層_1" xmlns="http://www.w3.org/2000/svg" xmlns:xlink="http://www.w3.org/1999/xlink" x="0px" y="0px"
	 viewBox="0 0 341.4 141.8" style="enable-background:new 0 0 341.4 141.8;" xml:space="preserve">
<style type="text/css">
	.st0{fill:#172A88;}
	.st1{display:none;}
	.st2{display:inline;fill:url(#SVGID_1_);}
	.st3{fill:url(#SVGID_00000000183843352808801820000007323905844354004136_);}
	.st4{fill:url(#SVGID_00000138559326848878566960000005168667885906424461_);}
	.st5{fill:url(#SVGID_00000000937205607345170580000011713694031600830393_);}
	.st6{display:inline;}
	.st7{opacity:0.7;}
	.st8{fill:#FFFFFF;}
	.st9{fill:none;stroke:#FFFFFF;stroke-width:3.750000e-02;}
	.st10{opacity:0.57;}
	.st11{fill:url(#SVGID_00000012457582718021116590000010535264208025401221_);}
</style>
<g>
	<g>
		<g>
			<path class="st0" d="M133.9,81.3h4.5h4.5v15.1c2.8-2.6,6-3.9,9.7-3.9c4.4,0,7.9,1.5,10.5,4.5c2.6,3,3.9,7,3.9,12.1v22.1h-4.5
				h-4.5v-20.1c0-3.4-0.6-6-1.9-7.8c-1.3-1.8-3.1-2.7-5.5-2.7c-2.6,0-4.5,0.9-5.8,2.7c-1.3,1.8-1.9,4.5-1.9,8.1v19.7h-4.5h-4.5V81.3
				z"/>
			<path class="st0" d="M174.3,81.3h9v8.2h-9V81.3z M174.3,93.8h4.5h4.5v37.4h-4.5h-4.5V93.8z"/>
			<path class="st0" d="M190.6,93.8h4.2h4.2V97c2.9-3,6.4-4.5,10.4-4.5c4.4,0,8,1.5,10.6,4.5c2.6,3,3.9,7,3.9,12.1v22h-4.5h-4.5v-20
				c0-3.4-0.6-6-1.9-7.8c-1.3-1.8-3.1-2.7-5.6-2.7c-2.6,0-4.5,0.9-5.8,2.7c-1.3,1.8-1.9,4.5-1.9,8.1v19.7h-4.5h-4.5V93.8z"/>
			<path class="st0" d="M249,132.5c-5.4,0-10-1.9-13.8-5.8c-3.8-3.9-5.7-8.6-5.7-14.1c0-5.5,1.9-10.2,5.7-14.1
				c3.8-3.9,8.4-5.8,13.8-5.8c5.4,0,10,1.9,13.8,5.8c3.8,3.9,5.7,8.6,5.7,14.1c0,1.3-0.1,2.7-0.3,4H239c0.5,1.6,1.3,3.1,2.5,4.4
				c2,2.2,4.6,3.4,7.6,3.4c1.9,0,3.6-0.4,5.2-1.3c1.6-0.9,2.7-2.1,3.5-3.5h9.5c-1.2,4-3.5,7.1-6.8,9.5
				C257.2,131.3,253.4,132.5,249,132.5z M259.2,109.3c-0.4-2-1.3-3.7-2.7-5.2c-2-2.3-4.5-3.4-7.5-3.4c-3,0-5.5,1.1-7.5,3.4
				c-1.3,1.5-2.2,3.2-2.7,5.2H259.2z"/>
			<path class="st0" d="M289.2,103.9c-0.2-1.1-0.6-1.8-1.3-2.4c-0.6-0.5-1.4-0.8-2.4-0.8c-1,0-1.9,0.3-2.5,0.9c-0.6,0.6-1,1.4-1,2.3
				c0,0.9,0.4,1.6,1.2,2.2c0.8,0.5,2.4,1.2,4.7,1.9c3.9,1.2,6.7,2.7,8.4,4.5c1.7,1.8,2.5,4.2,2.5,7.2c0,3.8-1.2,6.8-3.7,9.2
				c-2.5,2.4-5.7,3.6-9.6,3.6c-3.9,0-7.2-1.2-9.7-3.6c-2.6-2.4-3.9-5.5-4.1-9.4h9.2c0.3,1.6,0.8,2.8,1.6,3.6
				c0.8,0.8,1.9,1.2,3.2,1.2c1.2,0,2.2-0.3,3-1c0.8-0.7,1.2-1.6,1.2-2.6c0-1.2-0.4-2.1-1.1-2.7c-0.7-0.6-2.1-1.3-4.2-1.9
				c-4.2-1.3-7.1-2.8-8.9-4.6c-1.8-1.8-2.7-4.1-2.7-7c0-3.5,1.2-6.3,3.6-8.5c2.4-2.2,5.4-3.3,9.1-3.3c3.2,0,6,1.1,8.4,3.3
				c2.3,2.2,3.6,4.9,3.8,8.1H289.2z"/>
			<path class="st0" d="M321.8,132.5c-5.4,0-10-1.9-13.8-5.8c-3.8-3.9-5.7-8.6-5.7-14.1c0-5.5,1.9-10.2,5.7-14.1
				c3.8-3.9,8.4-5.8,13.8-5.8c5.4,0,10,1.9,13.8,5.8c3.8,3.9,5.7,8.6,5.7,14.1c0,1.3-0.1,2.7-0.3,4h-29.2c0.5,1.6,1.3,3.1,2.5,4.4
				c2,2.2,4.6,3.4,7.6,3.4c1.9,0,3.6-0.4,5.2-1.3c1.6-0.9,2.7-2.1,3.5-3.5h9.5c-1.2,4-3.5,7.1-6.8,9.5
				C330,131.3,326.2,132.5,321.8,132.5z M332,109.3c-0.4-2-1.3-3.7-2.7-5.2c-2-2.3-4.5-3.4-7.5-3.4c-3,0-5.5,1.1-7.5,3.4
				c-1.3,1.5-2.2,3.2-2.7,5.2H332z"/>
		</g>
		<g class="st1">
			<linearGradient id="SVGID_1_" gradientUnits="userSpaceOnUse" x1="74.1344" y1="14.406" x2="59.6344" y2="128.4059">
				<stop  offset="0" style="stop-color:#ECE700"/>
				<stop  offset="0.2242" style="stop-color:#75BC2A"/>
				<stop  offset="0.5273" style="stop-color:#1D2088"/>
				<stop  offset="0.7697" style="stop-color:#601986"/>
				<stop  offset="1" style="stop-color:#884798"/>
			</linearGradient>
			<path class="st2" d="M34.1,41.7c5.4-5.3,15.5-12.8,32.3-13.5c17.9-0.8,30.4,9,35,13.2c4.7,4.9,5.4,5.9,5.5,5.8
				c0,0,21.2-17.3,21.2-17.3C111.3,8.9,85.1-0.4,63.5,2.4C41.7,4.9,23.8,16.6,13.4,31.2c-21.5,30.1-13.2,65.9,3.7,82.7
				c17,17.8,37.4,22.3,50.1,23c15.2,0.8,20.2-1,25.1-2.1c8-1.8,19.9-8.5,24.2-11.5c-2.7,1.2-6.4,2.8-10.1,4.1
				c-6.4,2.3-12.8,3.4-12.8,3.4c3.1-0.6,6.7-2,9.1-3.1c2.4-1.1,9.9-4.5,14.4-7.8c-3,1.7-6.1,3.2-9.3,4.5c2.4-1.6,8.4-5.1,13.2-9
				c4.8-3.9,8.4-8.2,8.4-8.2c-2.9,2.1-9.9,9.2-21,14.4c-10.9,5.4-25.8,9-39.7,7.7c-14.1-1-24.7-6.2-31-10.1
				c-7.1-5.1-9.4-8.4-9.8-8.9c2.7,1.8,5,5.5,15.1,10.2c9.9,4.9,24.6,8,36.7,6.6c11.4-1.4,23.1-6.9,30.9-13.4
				c8.6-6.6,12.5-13.2,12.5-13.2c-1.6,1.5-4.2,4.6-13.7,10.7c-9.4,6.1-23.9,10.8-37.5,10.3c-13.8-0.3-26.4-5.5-33.7-11.1
				c-7.4-5.7-10.4-10.7-10.4-10.6c1.3,1.8,5.6,7.4,14.5,12.7c8.8,5.3,22.9,8.8,36.5,7.2c13.9-1.5,27.2-8.4,34.4-15.1
				c7.4-6.6,9.6-12.6,9.6-12.6c-2.1,2.9-7.8,13.4-24.5,21c-16,8-39.6,8.7-58.6-3.2C23.6,99.8,18.8,81.6,20.9,68
				c-1.2,8.9,1.3,23.1,9.7,32.6c7.4,9,21.1,16.1,36.6,16.7c19.4,0.7,28.7-4.7,35.8-9.3c7.5-4.9,10.6-10.5,10.6-10.5
				s-3.6,4.6-10.1,9.1c-7,4.8-12.2,6.6-15.5,7.4c-6.1,1.5-13.6,2.7-23.4,1.6c-12.6-1.1-25.4-7.5-32.7-16.3
				c-8.2-9.3-10.7-21.9-9.8-30.6C22.6,64.3,24.8,50.9,34.1,41.7z"/>
		</g>
		<g>
			
				<linearGradient id="SVGID_00000041995741344112290850000011992033540027382198_" gradientUnits="userSpaceOnUse" x1="128.01" y1="46.7734" x2="263.0092" y2="75.7731">
				<stop  offset="0" style="stop-color:#FFF100"/>
				<stop  offset="0.5636" style="stop-color:#009944"/>
				<stop  offset="1" style="stop-color:#1D2088"/>
			</linearGradient>
			<path style="fill:url(#SVGID_00000041995741344112290850000011992033540027382198_);" d="M134.6,69.3c-4.8-4.8-7.2-10.6-7.2-17.4
				c0-6.8,2.4-12.6,7.2-17.4c4.8-4.8,10.6-7.2,17.5-7.2c6.9,0,12.7,2.4,17.5,7.2c4.8,4.8,7.2,10.6,7.2,17.4c0,6.8-2.4,12.6-7.2,17.4
				c-4.8,4.8-10.6,7.2-17.5,7.2C145.2,76.5,139.4,74.1,134.6,69.3z M163.4,63.6c3.1-3.2,4.6-7.1,4.6-11.6c0-4.6-1.5-8.5-4.6-11.7
				c-3.1-3.2-6.9-4.8-11.3-4.8c-4.4,0-8.2,1.6-11.3,4.8c-3.1,3.2-4.6,7.1-4.6,11.7c0,4.6,1.5,8.4,4.6,11.6c3.1,3.2,6.9,4.8,11.3,4.8
				C156.5,68.4,160.3,66.8,163.4,63.6z"/>
			
				<linearGradient id="SVGID_00000073712632101580798280000012393963080097950867_" gradientUnits="userSpaceOnUse" x1="130.3737" y1="35.763" x2="265.3742" y2="64.763">
				<stop  offset="0" style="stop-color:#FFF100"/>
				<stop  offset="0.5636" style="stop-color:#009944"/>
				<stop  offset="1" style="stop-color:#1D2088"/>
			</linearGradient>
			<path style="fill:url(#SVGID_00000073712632101580798280000012393963080097950867_);" d="M188.2,69.3c-4.8-4.8-7.2-10.6-7.2-17.4
				c0-6.8,2.4-12.6,7.2-17.4c4.8-4.8,10.6-7.2,17.5-7.2c6.9,0,12.7,2.4,17.5,7.2c4.8,4.8,7.2,10.6,7.2,17.4c0,6.8-2.4,12.6-7.2,17.4
				c-4.8,4.8-10.6,7.2-17.5,7.2C198.8,76.5,193,74.1,188.2,69.3z M217,63.6c3.1-3.2,4.6-7.1,4.6-11.6c0-4.6-1.5-8.5-4.6-11.7
				c-3.1-3.2-6.9-4.8-11.3-4.8s-8.2,1.6-11.3,4.8c-3.1,3.2-4.6,7.1-4.6,11.7c0,4.6,1.5,8.4,4.6,11.6c3.1,3.2,6.9,4.8,11.3,4.8
				S213.9,66.8,217,63.6z"/>
			
				<linearGradient id="SVGID_00000000901796009873050090000008710511644989439909_" gradientUnits="userSpaceOnUse" x1="131.9535" y1="28.4217" x2="266.9515" y2="57.4212">
				<stop  offset="0" style="stop-color:#FFF100"/>
				<stop  offset="0.5636" style="stop-color:#009944"/>
				<stop  offset="1" style="stop-color:#1D2088"/>
			</linearGradient>
			<path style="fill:url(#SVGID_00000000901796009873050090000008710511644989439909_);" d="M237.1,75.6V28.3h4.4h4.4v39.1h14.5v4.1
				v4.1H237.1z"/>
		</g>
		<g class="st1">
			<g class="st6">
				<g>
					<g>
						<g class="st7">
							<g>
								<path class="st8" d="M131.4,132.8c0,0-0.7,3.6-0.7-2.4l-0.3-4.8l-0.7-3.5l0.2-3.5c0,0,0.5-0.3,3.5-0.8
									c3-0.5,8.5-1.3,18.7-2.6c0,0,2-0.6,5.4-1.2c3.4-0.6,8.1-1.3,13.6-1.6c0,0,20-0.8,40.9-1.7c10.4-0.4,21.1-0.7,29.6-0.6
									c8.5,0,14.7,0.3,16.2,0.8c0,0-0.8,0-2.2-0.1c-1.4,0-3.4-0.1-5.8-0.1c-4.8-0.1-11.3-0.2-17.8-0.1c-13.1,0.1-26.5,0.4-28.1,1
									c0,0,12.1-0.2,24.7,0c12.6,0.2,25.7,0.8,27.6,1.7c0,0-2.9-0.1-7.4-0.2c-4.5-0.1-10.5-0.1-16.6,0.1c-12.3,0.2-25,1-27,2.3
									c0,0,10.8,0,22.3,0.3c11.5,0.3,23.6,1.1,26.2,2.2c0,0-8.3-0.7-10.5-0.3l3.9,0.6l-6.2,0.2l-3.6-0.4c0,0,9.8,1.2,10.5,2.1
									c0,0,1.1-0.3,0-0.5c-1.1-0.2-4.4-0.2-13.1,0.4c0,0-10.4-1-28.5,0.4c-9,0.7-19.9,2-32.4,4
									C161.2,126.4,147.1,129.3,131.4,132.8z"/>
								<path class="st9" d="M129.3,117c0,0,1.5-0.2,4.2-0.5c2.7-0.3,6.5-0.7,11.1-1.3c9.2-1.2,21.3-2.7,33.3-4.2
									c0,0,13.2-0.7,27-1.4c13.9-0.7,28.6-1.3,31.5-1.1c0,0,3.9-0.1,8.9-0.1c2.5,0,5.3,0.1,8.1,0.2c2.7,0.2,5.4,0.4,7.7,0.7"/>
								<path class="st9" d="M205.2,109.7c-2.2-0.2-11.2,0.4-19.7,0.9c-8.5,0.5-16.4,1-16.4,1c-6.3,0.2-16.2,1.7-24.6,3
									c-4.2,0.7-8,1.2-10.7,1.7c-2.7,0.4-4.5,0.7-4.5,0.7"/>
								<path class="st9" d="M206.6,114.5c0,0,9.4-0.3,20-0.4c10.5-0.1,22.1,0,26.2,0.3"/>
								<path class="st9" d="M196.4,122c0,0,10.9-0.2,22.2-0.2c11.3-0.1,23.1,0.1,24.9,0.4"/>
							</g>
						</g>
					</g>
				</g>
			</g>
		</g>
	</g>
	<g class="st10">
		<path class="st8" d="M300.1,122.2c1.3,0.3,2.2,0.6,2.5,0.9C302.6,122.8,305.7,122.6,300.1,122.2z"/>
		<path class="st8" d="M258.6,107.9c7.9,1.1,12.1,1.6,12.1,1.6C265.7,108.7,261.4,108.2,258.6,107.9z"/>
		<path class="st8" d="M332.4,114.7c-21.6,1-38.7-0.7-50.4-2.4c-2.6-0.3-4.9-0.6-6.9-0.8c0.4,0.1,0.6,0.2,0.6,0.2
			C306.1,116.2,329.4,114.9,332.4,114.7z"/>
		<path class="st8" d="M275,111.4c-2.3-0.6-11.5-2.6-29.4-4.5c0-0.1,2.5-0.1,12.4,1.1c-1-0.1-2-0.3-3.1-0.4c0,0,1.4,0.1,3.7,0.3
			c-0.7-0.1-1.5-0.2-2.3-0.3c-5.9-0.6-13.6-2.1-22.9-2.8c8,0,26.3,3.1,43.3,5.4c20.7,3.1,39.8,1.4,39.8,1.2
			c-3.2-0.6-24.3-0.3-45.3-4.7c-20.8-4-42.2-8.2-42.4-8c3.2-0.7,26.8,4.1,48.3,7.3c21.7,3.7,41.5,1.5,41.4,1.2
			c-2.4-0.3-11.9,0.8-25.6-0.2c-13.7-0.9-31.3-3.9-49.5-7c-9.1-1.5-18.4-2.9-27.8-3.5c-4.7-0.2-9.6-0.2-14.4,0.2
			c-4.3,0.5-8.2,1-11.8,1.7c-14.4,2.7-22.6,5.4-22.6,5.3c-18.2,5.4-22.9,7.7-37.5,9.9c-16,2.5-30.5,1-30.5,1S94.4,139,94.4,139
			c28.5,2.2,60.7-9,80.7-17.5c10.2-3.9,20-7,29.3-8.4c9.2-1.3,18-0.6,25.9,0.2c31.3,4.1,49.1,8.5,49.2,8.2
			c11.3,0.4,17.4,0.6,20.7,0.8c-5.1-1.3-15.8-3.2-15.7-3.4c2.1,0.4,4.1,0.8,6.2,1.2c3.6,0.3,7.2,0.2,10.9,0.2l-6.8-1.1
			c3.8-0.3,18.3,0.4,18.3,0.1c-4.8-0.9-25.6-2.1-45-6.3c-10.5-2.2-20.8-4.3-28.1-5.8c5.8,0.7,20.4,2.8,23.7,3.1
			C263.6,110.2,267.6,110.6,275,111.4z"/>
		<path class="st8" d="M332.4,114.7c0.1,0,0.2,0,0.3,0C332.7,114.7,332.6,114.7,332.4,114.7z"/>
		<path class="st8" d="M297.7,113.5c-19.4-2.9-31.8-4.6-39.7-5.5C290.3,112.7,297.7,113.7,297.7,113.5z"/>
	</g>
	
		<linearGradient id="SVGID_00000183963232325907554500000016269491309812289215_" gradientUnits="userSpaceOnUse" x1="75.049" y1="17.0559" x2="124.5498" y2="147.5576" gradientTransform="matrix(0.9939 -0.1102 0.1102 0.9939 -35.0532 6.8402)">
		<stop  offset="0" style="stop-color:#ECE700"/>
		<stop  offset="0.2242" style="stop-color:#75BC2A"/>
		<stop  offset="0.5273" style="stop-color:#1D2088"/>
		<stop  offset="0.7697" style="stop-color:#601986"/>
		<stop  offset="1" style="stop-color:#884798"/>
	</linearGradient>
	<path style="fill:url(#SVGID_00000183963232325907554500000016269491309812289215_);" d="M124,22.7c0-0.1-21.1,19.5-21.1,19.5
		c-0.1,0.1-0.8-0.8-5.5-4.7c-4.6-3.4-16.6-11-30.1-10.1c-11.6,0.8-18.7,5.2-26.7,11C34.3,43,26.1,56.1,25.4,66.6
		c-0.9,14.2,4.1,29.2,13.9,39c6.8,6.8,14.4,10.2,24.8,12.6c8.8,2.1,18.8,1.4,23.1,0.6c10.2-2.1,23.2-5.7,27.7-7.6
		c-0.6-0.3-22.5,12.2-46.9,9.5c-23.2-2.5-36.5-16.3-37.5-17.4c-0.1-0.5,7.2,11.3,26.2,16.4c12.8,3.4,23.3,4.5,36.4,1.7
		c10.3-2.4,18.1-5.7,20.3-7.2c-0.2-0.3-22.2,18.3-48.4,13.7c-14.5-2.8-24.7-7-33.2-13.7c-6.3-4.9-12.8-13.5-14.4-16.8
		c-0.2-0.7,8.6,23.3,34.6,29.7c12.6,4,26.2,4.9,37.4,3.4c11.1-1.6,19.6-4.8,23-5.1c0.1,0.5-19,6.8-24.2,7.7c3.1-0.1,6.3-0.6,9.4-1.1
		c-4.8,1.6-9.8,2.8-14.8,3.4c-2.9,0.1-5.9-0.1-8.8-0.3c0,0,5.9,0.7,12.2,0.6c6.3,0,18.1-1.6,15.3-1.1c-2.7,0.1-8.4,5.3-29.2,7.1
		c-5.9,0.5-15.5-0.8-24.3-3.5c-11.1-3.3-27.6-11.9-38.8-31.5C-1.7,88.1-6.3,53.1,15.1,26.4C25.6,13.6,42,3.2,62.1,0.7
		C82-2.3,106.6,4.6,124,22.7z"/>
</g>
</svg>
