<?xml version="1.0" encoding="UTF-8"?><svg id="_圖層_2" xmlns="http://www.w3.org/2000/svg" viewBox="0 0 152.1 46.28"><defs><style>.cls-1{fill:#fff;}.cls-2{fill:#f5f5f5;}.cls-3{fill:#91bee6;}.cls-4{fill:#172a88;}.cls-5{fill:#00a0e9;}</style></defs><g id="_圖層_1-2"><path class="cls-3" d="m24.36,35.25s.02-.01.03-.02h0s-.02.01-.03.02Z"/><polygon class="cls-4" points="24.42 35.37 24.37 35.28 24.34 35.34 24.37 35.28 24.36 35.27 24.31 35.32 24.29 35.29 24.36 35.26 24.29 35.15 24.37 35.1 24.49 35.14 24.5 35.16 24.6 35.26 24.42 35.37"/><path class="cls-1" d="m24.4,35.23s-.02.01-.03.02c-.34.23-.69.45-1.05.63-.33.2-.65.4-.96.59,2.85,3.03,6.94,6.04,12.91,8.15.85-.05,1.72-.14,2.63-.28-6.48-2.37-10.69-5.8-13.5-9.11Z"/><path class="cls-4" d="m35.25,44.75h-.02c-5.23-1.86-9.6-4.62-12.96-8.2l-.1-.11.13-.08c.31-.19.63-.39.96-.59.35-.18.7-.38,1.04-.62l.11-.06.09.07c3.39,4,7.91,7.05,13.45,9.08l.46.17-.48.07c-.88.13-1.77.23-2.64.28h-.03Zm-12.7-8.26c3.32,3.49,7.6,6.18,12.73,8,.7-.04,1.4-.11,2.11-.21-5.33-2.02-9.71-5.01-13.02-8.89-.34.23-.67.42-1,.59-.28.17-.55.34-.82.5Z"/><path class="cls-1" d="m22.35,36.47c-.71.44-1.37.87-1.93,1.24,2.7,2.57,6.35,5.05,11.37,6.89,1.09.08,2.25.1,3.47.02-5.98-2.11-10.07-5.13-12.91-8.15Z"/><path class="cls-4" d="m33.69,44.8h0c-.64,0-1.28-.03-1.9-.07h-.03c-4.49-1.65-8.33-3.98-11.42-6.93l-.12-.11.13-.09c.64-.42,1.29-.84,1.93-1.24l.09-.05.07.07c3.34,3.55,7.67,6.28,12.86,8.12l.58.21-.62.03c-.53.03-1.06.05-1.58.05Zm-1.87-.32c.61.04,1.24.07,1.87.07h0c.31,0,.63,0,.95-.02-4.94-1.84-9.07-4.49-12.3-7.9-.57.36-1.14.72-1.71,1.1,3.04,2.87,6.81,5.14,11.2,6.75Z"/><path class="cls-1" d="m26.56,34.03c-.72.38-1.45.79-2.16,1.21,2.81,3.32,7.02,6.75,13.5,9.11.73-.11,1.48-.25,2.26-.43-6.73-2.62-10.91-6.4-13.6-9.89Z"/><path class="cls-4" d="m37.89,44.48h-.03c-5.58-2.05-10.14-5.13-13.55-9.16l-.1-.11.13-.08c.76-.44,1.48-.85,2.16-1.21l.09-.05.06.08c3.33,4.34,7.88,7.65,13.54,9.86l.38.15-.4.09c-.75.17-1.52.32-2.26.43h-.03Zm-13.3-9.21c3.37,3.94,7.85,6.95,13.32,8.95.6-.09,1.21-.2,1.82-.33-5.49-2.21-9.93-5.47-13.21-9.7-.61.32-1.26.69-1.93,1.08Z"/><path class="cls-1" d="m40.15,43.92c.67-.15,1.35-.33,2.05-.53-6.78-2.86-10.83-6.9-13.34-10.49-.73.33-1.51.71-2.3,1.13,2.69,3.5,6.87,7.28,13.6,9.89Z"/><path class="cls-4" d="m40.14,44.05h-.04c-5.7-2.23-10.3-5.58-13.65-9.95l-.09-.12.13-.07c.83-.44,1.61-.83,2.31-1.13l.09-.04.06.08c3.21,4.57,7.68,8.08,13.29,10.45l.32.13-.34.1c-.69.2-1.38.38-2.05.54h-.04Zm-13.4-9.99c3.31,4.27,7.83,7.54,13.42,9.73.55-.13,1.11-.27,1.66-.43-5.47-2.37-9.85-5.84-13.02-10.31-.63.28-1.33.62-2.07,1.01Z"/><path class="cls-1" d="m16.11,37.26s6.97,6.7,15.69,7.34c-5.02-1.84-8.68-4.32-11.37-6.89-1.23.81-4.31-.45-4.31-.45Z"/><path class="cls-4" d="m32.68,44.79l-.89-.06c-8.66-.64-15.69-7.31-15.76-7.38l-.47-.45.6.24s1.75.71,3.11.71c.47,0,.84-.08,1.09-.25l.08-.05.07.07c3.07,2.92,6.88,5.23,11.33,6.87l.84.31Zm-16-7.2c1.64,1.42,7.33,5.93,14.2,6.79-4.08-1.61-7.6-3.8-10.47-6.52-.29.16-.67.24-1.14.24-.91,0-1.95-.29-2.59-.51Z"/><path class="cls-4" d="m42.2,43.39c.52-.15,1.07-.27,1.58-.5,1.52-.7.92-.88,1.06-.94l-4.16-5.37-.04-.99c-3.14-.96-6-3.07-7.82-3.62-.82-.25-2.28.18-3.96.92,2.52,3.59,6.57,7.64,13.34,10.49Z"/><path class="cls-4" d="m42.19,43.52l-.04-.02c-5.66-2.38-10.17-5.93-13.4-10.54l-.09-.12.14-.06c1.92-.85,3.27-1.16,4.05-.93.81.24,1.79.77,2.93,1.39,1.47.79,3.13,1.69,4.89,2.23l.08.03.04,1.04,4.24,5.46-.08.03c.04.25-.17.52-1.13.97-.39.18-.79.29-1.18.39-.14.04-.28.07-.41.12h-.04Zm-13.15-10.57c3.19,4.5,7.62,7.96,13.16,10.31.12-.04.25-.07.37-.1.38-.1.78-.21,1.14-.38.4-.18,1.05-.52.98-.72-.01-.04-.02-.07-.01-.09l-4.14-5.33-.04-.95c-1.75-.55-3.4-1.44-4.85-2.22-1.13-.61-2.1-1.13-2.88-1.37-.69-.21-1.96.08-3.73.85Z"/><path class="cls-3" d="m24.36,35.25c-.35.21-.7.42-1.05.63.36-.18.71-.39,1.05-.63Z"/><path class="cls-4" d="m23.37,35.99l-.12-.22c.34-.21.69-.42,1.05-.63l.13.21c-.36.24-.71.46-1.06.63Z"/><path class="cls-3" d="m24.36,35.25c-.35.21-.7.42-1.05.63.36-.18.71-.39,1.05-.63Z"/><path class="cls-4" d="m23.37,35.99l-.12-.22c.34-.21.69-.42,1.05-.63l.13.21c-.36.24-.71.46-1.06.63Z"/><path class="cls-4" d="m54.7,26.64s-.21,1.29-2.22,1.29c-1.58,0-4.05-.97-4.26,1.11-1.38-1.94-2.68-1.11-4.27-1.11-2,0-2.22-1.29-2.22-1.29-.71,7.22,5.15,6.29,5.15,6.29,0,0,.11.01.28-.01-.07,1.13-.5,2.36-1.85,2.96-1.47.66-5.22-1.58-9.56-7.03-.91-1.39-1.59-2.49-1.75-2.71-.95-1.32,3.38-12.77,4.26-13.69,1.15-1.2,2.5-1.75,2.84-2.49.34-.74.3-2.4.08-3.49-.23-1.08-2.05-1.43-2.99-1.81-.94-.39-8.52,1.93-10.8,2.33-2.28.4-2.56,1.37-2.56,1.37-.46,2.54.57,5.3,1.42,6.1.85.8,2.49.62,3.92-.75,1.43-1.37-.21-3.92,5.38-4.89,3.53-.61-.53,8.81-1.56,12.06-1.03,3.25-3.36,3.02-4.55,1.93-3.29-3.02-8.92-4.59-11.71-4.76-2.79-.17-6.64,1.11-6.7,2.34-.63,13.65,4.54,16.81,8.17,19.44,2.74,1.99,10.18-6.21,12.17-6.78,2-.57,3.92,3.61,6.17,6.38,1.33,1.64,5.41,3.81,6.58,3.35,1.88-.75,2.93-1.81,3.59-3.08,1.59-2.44,2.01-5.42,2.12-6.72,1.13.08,5.51-.02,4.88-6.32Z"/><path class="cls-5" d="m4.49,10.31s.14-4.32-.84-6.34C2.68,1.95,5.82-1.12,8.05.41c2.23,1.53,1.39,6.48-3.56,9.9Z"/><path class="cls-5" d="m2.21,16.81S-1.13,29.21.4,36.36c1.53,7.16,3.76,10.48,6.48,9.84,2.72-.64,2.87-6.42,3.49-10.22.65-3.96.22-5.92-.21-3.77-.91,4.54-2.44,6.77-3.83,4.67-1.39-2.11-1.58-17.12-.56-19.11.39-.76-1.81-2.43-3.56-.96Z"/><path class="cls-2" d="m19.97,19.94c0,.84-.68,1.52-1.52,1.52s-1.52-.68-1.52-1.52.68-1.52,1.52-1.52,1.52.68,1.52,1.52Z"/><path class="cls-4" d="m19.25,19.75c0,.59-.48,1.08-1.08,1.08s-1.08-.48-1.08-1.08.48-1.08,1.08-1.08,1.08.48,1.08,1.08Z"/><path class="cls-5" d="m34.05,26.13c-.95-1.32,3.38-12.77,4.26-13.69,1.15-1.2,2.5-1.75,2.84-2.49.34-.74.31-2.4.08-3.49-.23-1.08-2.05-1.43-2.99-1.81-.94-.39-8.52,1.93-10.8,2.33-2.28.4-2.57,1.37-2.57,1.37-.46,2.54.57,5.3,1.43,6.1.86.8,2.49.62,3.92-.75,1.43-1.37-.21-3.92,5.37-4.89,3.53-.61-.53,8.81-1.56,12.06-.94,2.97-2.98,3.03-4.22,2.19,1.62,1.26,3.44,2.7,4.69,3.75-.22-.34-.37-.57-.43-.67Z"/><path class="cls-3" d="m24.36,35.54s.02-.01.03-.01c0,0,0,0,0,0-.01,0-.02.01-.03.02Z"/><polygon class="cls-4" points="24.42 35.66 24.37 35.57 24.34 35.64 24.37 35.57 24.36 35.55 24.3 35.6 24.36 35.55 24.3 35.43 24.39 35.38 24.48 35.43 24.58 35.58 24.42 35.66"/><path class="cls-1" d="m26.26,34.26c.74-.61,1.32-1.24,1.62-1.75-.17-.22-.34-.44-.49-.65-.33-.48-.61-.94-.87-1.38-.5-.31-1.09-.66-1.74-1.02-.56-.31-1.16-.63-1.78-.96-.23-.12-.46-.24-.7-.36.41,1.07,1.05,2.35,2.05,3.83.53.72,1.15,1.5,1.9,2.29Z"/><path class="cls-4" d="m26.25,34.43l-.08-.08c-.68-.73-1.33-1.51-1.91-2.31-.89-1.31-1.59-2.61-2.07-3.86l-.12-.31.29.15c.23.12.47.24.7.37.65.34,1.25.67,1.78.96.66.37,1.25.71,1.74,1.02h.03s.02.04.02.04c.27.47.55.92.86,1.37.15.21.32.43.49.65l.05.07-.04.07c-.32.53-.91,1.17-1.65,1.78l-.09.07Zm-3.7-6.03c.47,1.14,1.11,2.31,1.92,3.49.55.76,1.16,1.5,1.81,2.19.64-.54,1.16-1.1,1.46-1.57-.15-.2-.3-.4-.44-.59-.31-.45-.59-.9-.86-1.36-.49-.3-1.06-.64-1.71-1-.53-.29-1.12-.62-1.77-.96-.13-.07-.27-.14-.4-.21Z"/><path class="cls-1" d="m12.71,26.79c-.22.66-.28,1.48-.1,2.45.09.48.19.94.31,1.36.56,2.09,1.42,3.5,2.44,4.42.79.71,1.66,1.14,2.56,1.37.47.12.94.19,1.41.22-1.78-1.5-3.08-2.99-4.04-4.32-1.6-2.36-2.27-4.23-2.57-5.5Z"/><path class="cls-4" d="m19.7,36.76l-.38-.03c-.52-.04-.99-.11-1.44-.22-.99-.26-1.87-.73-2.61-1.4-1.12-1.02-1.95-2.52-2.47-4.48-.12-.44-.22-.9-.31-1.37-.17-.93-.13-1.78.11-2.51l.14-.42.1.44c.4,1.72,1.26,3.56,2.55,5.45,1.16,1.59,2.47,3,4.02,4.3l.29.25Zm-6.99-9.47c-.11.58-.1,1.22.02,1.92.09.46.19.92.3,1.35.51,1.91,1.32,3.38,2.4,4.36.71.64,1.55,1.1,2.5,1.34.32.08.65.14,1,.18-1.43-1.24-2.67-2.58-3.76-4.09-1.19-1.75-2.02-3.45-2.47-5.07Z"/><path class="cls-1" d="m22.23,36.4c.24-.06.48-.13.72-.22.12-.04.25-.09.37-.14.34-.16.69-.33,1.05-.49.01,0,.02-.01.03-.02-1.29-1.2-2.28-2.38-3.06-3.46-1.69-2.49-2.35-4.44-2.62-5.71-.33-.15-.64-.29-.94-.43-.69-.31-1.29-.56-1.76-.73-.21-.08-.39-.14-.54-.18.08.74.21,3.3,2.83,7.16.95,1.3,2.2,2.76,3.92,4.22Z"/><path class="cls-4" d="m22.19,36.53l-.05-.04c-1.49-1.27-2.81-2.7-3.94-4.24-2.51-3.69-2.76-6.25-2.84-7.09l-.03-.31.18.05c.15.04.34.11.55.18.46.17,1.07.43,1.77.74.3.13.61.28.94.43l.06.03v.06c.4,1.78,1.27,3.69,2.61,5.66.91,1.25,1.9,2.37,3.04,3.43l.12.12-.18.1c-.36.17-.71.33-1.05.5-.13.05-.26.1-.38.14-.25.09-.5.16-.73.22h-.06Zm-6.57-11.34c.09.88.38,3.37,2.79,6.91,1.1,1.51,2.39,2.91,3.85,4.15.21-.05.43-.12.64-.2.12-.04.25-.09.37-.14.29-.14.6-.29.91-.43-1.1-1.04-2.06-2.13-2.94-3.35-1.35-1.98-2.23-3.89-2.63-5.69-.3-.14-.6-.28-.88-.4-.69-.31-1.29-.56-1.75-.73-.13-.05-.25-.09-.35-.12Z"/><path class="cls-1" d="m21.35,36.55c.06,0,.12-.01.18-.02.23-.03.46-.08.7-.13-1.71-1.46-2.97-2.92-3.92-4.22-2.62-3.86-2.75-6.42-2.83-7.16-.11-.03-.2-.06-.27-.06-.39-.05-.78.01-1.13.18-.59.28-1.09.84-1.36,1.65.3,1.27.97,3.14,2.57,5.5.97,1.33,2.26,2.83,4.04,4.32.15,0,.29.02.44.02.54.01,1.08-.02,1.59-.08Z"/><path class="cls-4" d="m19.97,36.76h0c-.07,0-.14,0-.21,0-.15,0-.3,0-.44-.02h-.04s-.03-.03-.03-.03c-1.56-1.31-2.89-2.73-4.06-4.35-1.31-1.92-2.18-3.79-2.59-5.54v-.03s0-.03,0-.03c.26-.81.77-1.42,1.42-1.73.38-.18.79-.24,1.2-.19.07,0,.16.03.29.07l.08.02.02.21c.08.83.32,3.34,2.8,6.97,1.11,1.53,2.42,2.94,3.9,4.19l.19.16-.24.06c-.25.06-.49.11-.71.13l-.18.02c-.5.06-.95.08-1.4.08Zm-.59-.27c.13,0,.26.01.39.02.51,0,1.01-.02,1.57-.08l.18-.02c.14-.02.29-.04.44-.07-1.41-1.23-2.67-2.6-3.75-4.08-2.51-3.69-2.76-6.25-2.84-7.09v-.04c-.08-.02-.14-.03-.18-.04-.37-.05-.73,0-1.07.17-.58.27-1.04.82-1.28,1.55.41,1.71,1.26,3.54,2.54,5.42,1.15,1.58,2.46,2.98,3.99,4.27Z"/><path class="cls-1" d="m24.4,35.53c.06-.03.12-.06.18-.1.5-.29.97-.61,1.4-.94.1-.08.19-.15.29-.23-.75-.79-1.37-1.57-1.9-2.29-1-1.48-1.64-2.76-2.05-3.83-.36-.19-.71-.37-1.07-.55-.58-.29-1.16-.57-1.71-.84-.28-.13-.55-.26-.82-.39.27,1.27.92,3.22,2.62,5.71.78,1.07,1.77,2.25,3.06,3.46Z"/><path class="cls-4" d="m24.38,35.68l-.07-.06c-1.15-1.07-2.16-2.21-3.08-3.47-1.36-2-2.25-3.94-2.64-5.75l-.05-.25.23.11c.27.12.54.25.82.38.55.27,1.13.55,1.71.84.36.18.72.36,1.07.55l.04.02.02.04c.47,1.23,1.16,2.51,2.04,3.8.57.79,1.21,1.56,1.89,2.28l.09.1-.1.08c-.09.08-.19.15-.29.23-.46.36-.94.68-1.41.95-.04.02-.08.04-.11.06l-.15.08Zm-5.48-9.1c.41,1.71,1.26,3.53,2.54,5.42.89,1.22,1.87,2.33,2.98,3.37.04-.02.07-.04.1-.06.46-.26.93-.58,1.38-.93.06-.05.12-.09.18-.14-.65-.7-1.26-1.45-1.82-2.21-.88-1.3-1.57-2.58-2.05-3.81-.34-.18-.68-.35-1.03-.53-.58-.29-1.16-.57-1.71-.84-.2-.09-.39-.19-.58-.28Z"/><path class="cls-4" d="m27.88,32.51c.15-.25.23-.46.24-.63,0-.05,0-.1,0-.14-.06-.22-.67-.68-1.59-1.25.25.44.54.9.87,1.38.16.21.32.43.49.65Z"/><path class="cls-3" d="m24.36,35.54c-.35.16-.7.33-1.05.49.36-.14.71-.31,1.05-.49Z"/><path class="cls-4" d="m23.36,36.15l-.1-.23c.34-.16.69-.33,1.05-.49l.11.22c-.36.2-.71.36-1.06.5Z"/><path class="cls-3" d="m24.36,35.54c-.35.16-.7.33-1.05.49.36-.14.71-.31,1.05-.49Z"/><path class="cls-4" d="m23.36,36.15l-.1-.23c.34-.16.69-.33,1.05-.49l.11.22c-.36.2-.71.36-1.06.5Z"/><path class="cls-2" d="m18.61,19.41c0,.29-.23.52-.52.52s-.52-.23-.52-.52.23-.52.52-.52.52.23.52.52Z"/><path class="cls-5" d="m43.19,12.53c0,.56-.45,1.01-1.01,1.01s-1.01-.45-1.01-1.01.45-1.01,1.01-1.01,1.01.45,1.01,1.01Z"/><path class="cls-5" d="m40.33,14.9c0,.24-.19.43-.43.43s-.43-.19-.43-.43.19-.42.43-.42.43.19.43.42Z"/><path class="cls-5" d="m44.2,6.14c0,.58-.47,1.04-1.05,1.04s-1.04-.47-1.04-1.04.47-1.04,1.04-1.04,1.05.47,1.05,1.04Z"/><path class="cls-5" d="m45.52,8.08c0,.28-.23.5-.5.5s-.5-.22-.5-.5.22-.5.5-.5.5.22.5.5Z"/><path class="cls-5" d="m24.6,14.35c0,.28-.22.5-.5.5s-.5-.22-.5-.5.22-.5.5-.5.5.23.5.5Z"/><path class="cls-5" d="m23.67,10.91c0,.77-.62,1.39-1.4,1.39s-1.39-.62-1.39-1.39.62-1.4,1.39-1.4,1.4.62,1.4,1.4Z"/><path class="cls-4" d="m65.95,22.97c.44.12.81.26,1.09.41.38.33.48.71.29,1.11-.21.25-.47.44-.77.56-.23.1-.42.07-.57-.07-.17-.16-.17-.28-.02-.36.21-.12.37-.27.45-.45,0-.11-.08-.18-.23-.23-.21-.08-.45-.13-.72-.14-.2-.01-.38-.01-.54,0-.1,0-.19.04-.27.11-.11.05-.2-.11-.29-.48s-.02-.56.2-.56c.45-.04.91,0,1.38.11Zm-.73,6.5c.11-.01.16.07.16.25-.02.66-.03,1.06-.02,1.22,0,.06,0,.09.02.09.06-.01.13-.08.21-.2.37-.56.81-1.33,1.32-2.29.49-.94.88-1.85,1.17-2.72.06-.17.15-.25.27-.23.07.02.1.16.09.41-.06.37-.33,1.22-.81,2.54-.57,1.5-1.02,2.57-1.34,3.19-.14.25-.22.44-.23.55-.04.29-.2.45-.48.5-.32.06-.49,0-.5-.18-.02-.19-.16-.42-.41-.68-.06-.08-.07-.3-.02-.66.06-.45.17-.92.32-1.4.05-.26.13-.39.25-.39Zm3.06-10.44c.36.19.63.39.82.61.29.41.29.78,0,1.11-.41.37-.87.63-1.38.77-.25.04-.44-.02-.55-.18-.12-.19-.1-.31.05-.36.44-.16.8-.4,1.06-.73.05-.08,0-.2-.16-.34-.16-.08-.32-.16-.5-.23-.16-.05-.29-.08-.41-.09-.07-.04-.17-.03-.29.02-.1,0-.14-.18-.12-.55.05-.38.17-.54.36-.47.39.08.77.23,1.13.45Zm5.07,12.75c-.3.38-.6.67-.9.86-.56.37-.97.6-1.24.68-.36.08-.69.11-.98.07-.16-.02-.38-.11-.66-.25-.11-.06-.16-.15-.16-.27.01-.14.08-.21.2-.2.48.05.87.03,1.16-.05.07-.02.22-.11.45-.25.38-.25.71-.49.97-.72.26-.25.5-.56.72-.91-1.27.32-2.21.48-2.83.48-.57,0-1.03-.08-1.36-.23-.18-.08-.12-.33.18-.73.12-.14.25-.19.39-.14.35.1.76.14,1.24.13.67-.02,1.49-.18,2.47-.47.08-.05.2-.08.36-.09.06-.13.09-.25.11-.36.04-.19.07-.39.11-.61-.12.02-.22.05-.3.09-.54.18-.99.29-1.34.34-.31.05-.53.07-.64.05-.16-.01-.23-.15-.23-.41,0-.21.04-.36.11-.43.07-.06.18-.09.34-.09.13.01.4-.02.81-.09.38-.1.84-.22,1.38-.38.02-.29.05-.57.09-.86-.35.07-.72.17-1.11.29-.21.04-.38.03-.48-.02-.12-.07-.18-.2-.2-.39-.07-.07-.22-.3-.45-.7-.35-.57-.61-1.03-.79-1.36-.16-.29-.27-.54-.36-.75-.08-.24-.07-.4.05-.48.13-.11.27-.12.43-.05.13.06.25.2.36.41.08.19.21.43.39.72.73-.35,1.42-.63,2.06-.86l-.14-.14c-.12-.09-.2-.18-.23-.25-.1.02-.19.03-.27.02-.13-.06-.19-.26-.18-.59.01-.43,0-.88-.05-1.36-.05.01-.08.02-.09.04-.97.34-1.6.52-1.9.56-.37.05-.67.07-.89.05-.17-.01-.26-.11-.27-.3,0-.23.04-.39.13-.5.09-.13.23-.19.41-.18.23,0,.47,0,.73-.02.16-.04.73-.22,1.74-.56-.07-.33-.15-.58-.23-.73-.08-.14-.2-.24-.34-.29-.13-.07-.17-.27-.13-.61.05-.35.2-.5.47-.46.18.01.35.15.5.41.21.32.4.79.56,1.42.85-.3,1.65-.49,2.4-.57.06-.44.08-.83.07-1.16-.04-.23-.08-.4-.12-.52-.08-.15-.08-.33,0-.52.07-.18.21-.3.43-.38.18-.05.32.02.43.21.13.25.2.51.21.77.04.49,0,.97-.11,1.45-.01.01-.02.02-.02.04.25-.05.45-.09.61-.12.15-.02.34-.05.55-.09.42-.07.72-.07.91.02.09.05.14.11.14.2.01.08-.04.17-.16.25-.16.14-.24.28-.25.39-.02.17-.17.26-.43.27-.12.01-.22.02-.3.02-.12,0-.36.02-.72.05-.26.01-.49.04-.68.07-.12.31-.27.63-.45.97-.12.18-.22.34-.3.48-.01.05-.02.11-.04.18-.1.29-.23.43-.41.43-.18.02-.38.06-.61.11-.13.04-.27.08-.41.12.04.02.08.05.12.09.14.13.25.27.32.41.02-.01.04-.02.05-.02,1.01-.3,1.83-.45,2.45-.47.36,0,.6.1.72.29.33.42.3.85-.09,1.29-.31.32-.75.66-1.33,1.02-.04.02-.07.04-.11.05.08.1.08.26,0,.48-.13.33-.3.5-.52.5-.38,0-.78.05-1.18.16-.05.23-.09.51-.12.84.32-.11.65-.19.98-.23.54-.11.91-.17,1.13-.18.18,0,.29.09.32.27.02.19,0,.35-.07.47-.08.12-.22.2-.41.23-.27.04-.47.11-.57.23-.11.1-.2.1-.27.02-.07-.08-.38-.07-.93.04-.11.01-.2.04-.29.07-.05.36-.09.68-.12.97.61-.17,1.38-.35,2.31-.54.2-.04.3-.12.29-.27-.01-.14.06-.23.22-.27.18-.05.41-.03.7.05.25.08.54.15.86.2.24.04.3.15.18.34-.07.13-.11.27-.11.41-.01.19-.12.27-.34.23-.22-.02-.69.02-1.42.14-1.29.29-2.26.52-2.92.7-.19.5-.44.95-.73,1.34Zm.61-6.81c0-.19,0-.35-.02-.47-.57.21-1.19.49-1.84.82.26.41.45.67.56.79.04.05.07.1.11.14.39-.13.78-.24,1.15-.32.04-.24.05-.56.05-.97Zm-.18-2.78c.49-.16.86-.26,1.11-.3.11-.13.24-.33.39-.59.11-.2.2-.4.29-.59-.42.04-.75.09-1,.16-.29.06-.59.14-.91.25.07.42.11.78.13,1.08Zm1.06,3.44c.48-.27.92-.54,1.33-.81.33-.24.56-.44.68-.59.05-.08.03-.2-.05-.34-.04-.06-.14-.08-.32-.07-.33.01-.87.13-1.59.36.02.17.04.35.04.54-.04.36-.06.66-.07.91Zm3.56,7.06c.21.26.33.43.34.5.02.07.04.13.05.18.21.29.25.6.09.93-.12.23-.29.28-.52.16-.13-.05-.26-.08-.38-.09-.29-.06-.48-.13-.59-.21-.1-.07-.15-.18-.16-.34,0-.17.04-.26.12-.27.19-.06.31-.1.36-.11.05,0-.08-.19-.38-.56-.51-.64-1.13-1.17-1.86-1.58-.12-.07-.11-.2.04-.39.12-.14.27-.17.45-.09.98.45,1.79,1.07,2.44,1.86Z"/><path class="cls-4" d="m84.59,30.62c-.06-.19-.03-.31.09-.36.13-.06.26-.01.38.14.66.75,1.38,1.33,2.17,1.74,1.22.62,1.99.91,2.33.86.11-.04.22-.06.34-.07.23-.04.49-.36.79-.97.29-.58.49-1.24.61-1.95.1-.7.12-1.5.07-2.4-.29.02-.57.06-.86.11-1.44.25-3.36.79-5.73,1.63-.3.12-.58.16-.84.11-.26-.05-.4-.2-.41-.45.01-.12.1-.22.25-.3.62-.29,1.58-.61,2.88-.98,1.6-.49,3.12-.81,4.57-.97-.17-.38-.43-.73-.79-1.06-.23-.19-.42-.28-.57-.27-.2,0-.28-.13-.23-.39.04-.2.17-.36.39-.47.08-.04.18-.05.29-.04.54-.31.94-.6,1.2-.86.21-.25.26-.44.14-.56-.2-.2-.79-.12-1.75.25-1.9.75-2.97,1.06-3.22.91-.21-.13-.26-.36-.14-.68.13-.29.3-.39.52-.3.18.07,1.1-.22,2.76-.88,1.36-.54,2.23-.61,2.6-.21.41.29.5.63.27,1.02-.38.63-.92,1.22-1.61,1.76.38.32.67.69.86,1.09.07.17.14.36.21.59,1.13-.08,2.38.02,3.74.3.33.08.58.22.73.41.14.2.17.38.09.54-.11.23-.22.34-.34.32-.26.04-.54.11-.84.23-.23.04-.42.01-.57-.07-.2-.13-.27-.26-.2-.38.1-.06.09-.16-.02-.3-.2-.05-.53-.1-.97-.14-.47-.06-.94-.07-1.42-.02.11,1.07.09,2.02-.05,2.85-.16.84-.35,1.51-.57,2.02-.17.42-.44.79-.81,1.13-.27.24-.54.38-.81.43-.24.04-.42.03-.54-.02-1.66-.64-2.87-1.26-3.64-1.84-.54-.42-.98-.92-1.34-1.5Zm.99-11.14c.14.01.25.09.32.23.11.2.11.4,0,.59-.05.11-.09.2-.13.29.25-.02,1.12-.31,2.6-.86.39-.18.81-.33,1.25-.45.08-.09.16-.18.23-.27.04-.11-.02-.23-.18-.38-.22-.14-.44-.26-.66-.34-.19-.07-.36-.13-.52-.16-.08-.02-.18-.01-.29.04-.11,0-.16-.18-.14-.55.04-.36.15-.51.34-.47.47.11.9.27,1.31.5.39.24.71.47.93.7.15.19.23.38.23.57.55-.14,1.06-.23,1.54-.27.92-.09,1.63-.05,2.15.14.55.21.9.47,1.04.77.35.76.3,1.27-.14,1.52-.61.33-1.55.58-2.81.73-.32.06-.51,0-.55-.2-.05-.18.06-.31.32-.39,1.46-.48,2.19-.85,2.2-1.11.01-.14-.15-.29-.48-.45-.31-.14-.85-.18-1.61-.11-1.06.06-2.44.42-4.14,1.07-1.61.63-2.58.95-2.92.97-.01.1-.01.18,0,.27.01.24.04.38.09.43.12.14.16.29.11.43-.05.13-.09.24-.13.32-.04.11-.14.16-.32.14-.17-.02-.32-.13-.46-.3-.16-.19-.21-.56-.16-1.11.06-.64.27-1.31.63-2.01.12-.2.24-.3.36-.3Z"/><path class="cls-4" d="m107.89,21.4c.06.13.13.25.21.36.11.16.09.29-.05.41-.33.32-.64.58-.93.77-.24.17-.43.29-.57.36-.02,0-.03,0-.02.02.01.02.02.05.02.09,0,.14.02.26.07.34.1.16.05.27-.12.36-.12.06-.24.15-.36.27-.2.21-.55.49-1.06.82-.55.37-.82.57-.81.61,0,.04.08.02.23-.05.69-.27,1.17-.44,1.43-.48.39-.01.67.06.82.21.14.16.08.36-.18.61-.19.16-.35.27-.46.34-.85.43-1.35.6-1.5.52-.13-.12-.05-.29.25-.52.01-.05-.33.04-1.02.25-.25.08-.41.12-.48.12-.29.02-.47-.04-.56-.18-.12-.2-.14-.35-.05-.43.14-.11.26-.19.34-.23.11-.06.53-.36,1.25-.91.43-.33.64-.53.63-.57-.02-.02-.2.02-.52.14-.29.11-.45.17-.5.18-.05.01-.09.02-.12.04-.31.1-.51-.02-.59-.36-.08-.29-.03-.44.16-.45.14-.01.48-.13,1.02-.34.74-.31,1.31-.47,1.72-.48-.01-.02-.01-.04,0-.05,0-.11.1-.23.29-.38.17-.13.25-.22.25-.27-.02-.08-.13-.1-.32-.05-.9.24-1.8.51-2.71.81-1.11.37-1.94.55-2.49.54-.19-.01-.33-.12-.41-.34-.06-.13-.04-.28.07-.43.12-.18.23-.24.34-.2.15.06.4.08.73.07.36-.02,1.15-.25,2.38-.68,1.54-.53,2.62-.83,3.24-.91.21-.02.34,0,.38.09Zm-5.95,6.81c.11-.1.23-.12.38-.07.23.08.36.22.41.41.07.2.15.4.23.59.8-.56,1.69-1.03,2.67-1.4.43-.17.87-.12,1.31.14.44.29.58.65.43,1.09-.14.32-.37.63-.66.93-.23.26-.33.4-.32.41.01.01.17-.04.47-.16.3-.12.49-.24.57-.36.11-.16.22-.21.34-.16.09.05.12.12.07.23-.12.37-.34.65-.66.84-.54.35-1.22.68-2.06,1-.23.06-.42,0-.57-.18-.14.06-.31.09-.5.09-.29-.02-.63-.29-1.04-.81-.45-.56-.82-1.28-1.11-2.15-.05-.23-.03-.38.05-.47Zm2.26,2.42c.2.01.33.09.38.23.04-.06.1-.11.18-.14.23-.12.45-.28.66-.47.44-.39.76-.75.95-1.08.07-.17.01-.33-.18-.48-.2-.13-.58-.05-1.13.25-.81.43-1.37.76-1.67.99.12.16.24.29.36.41.19.19.34.29.45.29Zm1.79-11.71c.46.17.83.35,1.09.54.37.33.45.7.23,1.09-.23.31-.51.54-.84.7-.24.11-.44.09-.59-.05-.17-.15-.17-.27-.02-.36.25-.17.43-.36.54-.59.02-.11-.05-.21-.23-.32-.23-.11-.47-.18-.73-.23-.22-.05-.41-.07-.59-.07-.08,0-.18.02-.29.07-.1.02-.17-.15-.21-.52-.05-.36.04-.53.25-.52.49.02.96.11,1.4.27Zm2.44,6.39c.14-.05.27-.03.39.05.18.13.26.3.25.52,0,.11,0,.2.02.29.42-.2.84-.39,1.27-.57.33-.14.62-.26.84-.34.21-.07.44-.11.66-.13.21-.02.42,0,.61.09.44.18.69.53.73,1.04.04.27-.13.63-.5,1.06-.13.12-.26.25-.38.39.11-.04.26-.03.45.02.2.05.25.23.13.55-.13.33-.3.5-.52.5-.26-.01-.54.02-.84.09-.35.08-.76.19-1.24.3-.2.04-.36.03-.47-.02-.06-.02-.1-.05-.11-.09-.13,0-.26-.02-.38-.07-.25-.08-.49-.42-.72-1-.25-.63-.38-1.38-.39-2.26,0-.24.06-.38.18-.43Zm1.15-2.96c.19-.02.6-.15,1.22-.38.8-.3,1.36-.47,1.68-.52.2-.02.32,0,.36.09.06.13.13.25.21.36.11.16.09.29-.05.41-.33.32-.64.58-.93.77-.24.17-.44.29-.59.36-.29.13-.42.08-.41-.14.01-.13.11-.26.29-.38.18-.13.27-.22.27-.27-.01-.02-.06-.03-.14-.02-.41.11-.81.24-1.2.39-.48.18-.84.27-1.09.27-.19-.01-.33-.13-.41-.34-.06-.14-.04-.29.07-.45.12-.17.23-.23.34-.18.08.02.21.03.39.02Zm0-1.99c-.25-.01-.43-.1-.54-.25-.1-.14-.11-.31-.04-.5.11-.23.26-.33.45-.32.11,0,.27-.02.5-.07.43-.1,1.13-.26,2.11-.48.58-.14,1.11-.21,1.58-.21.42-.08.78-.09,1.08-.02.32.12.57.28.75.47.14.17.25.47.32.91-.05,3.33,0,6.11.16,8.35.14,1.86.14,3.22,0,4.08-.07.47-.2.81-.38,1.02-.38.39-.68.59-.9.57-.25-.04-.49-.13-.72-.29-1.71-1.21-2.84-2.21-3.39-3.01-.15-.3-.15-.52,0-.66.14-.12.28-.12.39,0,.67.66,1.24,1.17,1.72,1.54,1.09.84,1.74,1.23,1.97,1.18.2-.12.33-.58.38-1.38.06-.76.03-1.89-.09-3.37-.18-1.91-.28-4.54-.29-7.88-.05-.19-.12-.33-.23-.41-.07-.07-.19-.13-.34-.16-.47,0-1.03.08-1.68.23-1.1.25-1.83.44-2.18.56-.24.08-.45.12-.64.11Zm-.29,6.64s-.06.02-.07.04c.07.26.16.49.27.68.12.21.22.34.3.38.08.04.15.08.2.12.13,0,.26,0,.38-.02.07-.04.17-.06.29-.07.42-.3.76-.61,1.02-.95.21-.3.32-.52.3-.66-.01-.25-.09-.44-.23-.56-.07-.05-.18-.05-.34-.02-.18.05-.39.13-.64.25-.41.2-.9.47-1.47.81Z"/><path class="cls-4" d="m126.66,20.34c.07-.25.07-.42,0-.5-.04-.05-.06-.08-.07-.09-1.11.51-2.15,1.03-3.13,1.54-.11.06-.2.05-.29-.02-.11-.08-.21-.13-.32-.14-.07-.01-.1-.06-.09-.14.04-.16.13-.29.29-.39.31-.2.8-.48,1.49-.84.75-.39,1.74-.87,2.97-1.42.3-.16.45-.31.45-.47-.04-.37.07-.56.32-.57.29-.02.57.09.86.34.11.11.14.29.09.55-.06.26-.24.47-.54.61-.43.17-.83.35-1.2.54.05.06.1.13.14.2.11.17.08.48-.07.95-.13.42-.39.87-.79,1.34-.61.7-1.3,1.4-2.06,2.09.06-.02.13-.04.21-.04,1.1-.14,1.85-.3,2.26-.48.18-.08.41-.07.7.04.11-.12.2-.23.29-.34.39-.5.63-.9.72-1.2.07-.35.07-.58-.02-.7-.05-.08-.11-.16-.18-.23-.1-.09-.14-.18-.12-.27,0-.08.02-.16.07-.23.05-.1.11-.17.2-.21.11-.04.22-.03.34.02.11.07.22.15.34.23.14.13.26.28.34.43.12.23.08.65-.11,1.27-.19.56-.56,1.16-1.11,1.81-1.02,1.17-2.21,2.33-3.58,3.47.15-.07.31-.11.46-.12,1.72-.36,2.88-.7,3.49-1.04.25-.13.58-.16.99-.07-.02-.07-.05-.13-.09-.18-.16-.24-.31-.44-.47-.59-.05-.08-.13-.13-.25-.14-.11-.05-.05-.22.18-.52.21-.31.39-.39.54-.23.39.41.72.86.97,1.36.25.49.41.93.48,1.33.07.47-.08.78-.45.93-.35.14-.72.21-1.11.2-.25-.04-.41-.15-.48-.34-.07-.2-.02-.31.16-.32.33-.01.61-.1.84-.25.08-.06.11-.18.07-.38-.87.26-1.87.52-2.99.77.04.08.06.18.07.29.07.35.11.87.12,1.56.01,1,.08,2.18.2,3.55.04.41,0,.7-.13.88-.11.14-.22.21-.34.2-.13,0-.24,0-.32.02-.14,0-.27-.11-.39-.34-.07-.07-.18-.14-.34-.22-.2-.07-.49-.29-.86-.66-.32-.31-.59-.65-.81-1.02-.47.35-1,.68-1.61,1-.27.14-.47.22-.59.22-.25-.07-.47-.22-.66-.43-.15-.19-.24-.4-.25-.63-.04-.32.05-.78.27-1.36.09-.24.2-.48.32-.73.17-.3.29-.45.38-.45.11,0,.2.08.29.23.06.16.08.29.07.39-.27,1.18-.36,1.8-.25,1.84.1.01.4-.09.91-.3.61-.29,1.24-.63,1.88-1.04.18-.13.26-.08.25.14-.04.23-.14.41-.32.56-.13.1-.25.2-.36.32.42.36.9.66,1.43.91.17.08.29.11.36.07.04-.01.05-.06.04-.14-.05-1.06-.08-1.85-.09-2.36-.01-.55-.05-1.21-.12-1.97-.01-.14-.06-.24-.14-.29-.02-.01-.04-.02-.04-.04-1.35.26-2.45.65-3.31,1.16-.2.11-.41.14-.63.11-.18-.04-.29-.11-.32-.23-.06-.23.02-.4.23-.52.02-.02.06-.04.11-.05.01-.07.06-.13.14-.18,1.83-1.52,3.28-2.82,4.37-3.9-.35.05-.7.1-1.06.14-.97.1-1.76.29-2.37.59-.2.07-.36.1-.48.09-.03.02-.04.04-.05.05-.18.13-.39.2-.64.21-.18.01-.29-.04-.34-.14-.1-.18-.07-.31.07-.39,1.95-1.59,3.3-2.85,4.07-3.8.3-.36.47-.65.52-.88Zm4.87,9.99c.35.36.63.97.86,1.84.07.25.05.52-.07.81-.13.31-.36.37-.68.18-.2-.12-.4-.27-.59-.47-.07-.08-.11-.18-.11-.3.01-.13.11-.18.29-.14.07.02-.02-.32-.29-1.04-.18-.43-.53-.79-1.04-1.09-.2-.12-.3-.27-.29-.47.02-.13.19-.15.48-.07.63.18,1.11.43,1.43.75Z"/><path class="cls-4" d="m144.88,18.83c.29-.02.72,0,1.31.09.2.06.31.13.32.22,0,.12-.08.27-.23.45-.19.2-.39.34-.61.41-.17.05-.35.03-.54-.05-.13-.05-.3-.08-.52-.09-.2-.01-.49.02-.86.09-.43.08-.96.22-1.58.41.09.07.18.16.27.27.1.14.11.42.04.82-.06.38-.24.81-.54,1.29-.14.2-.29.42-.45.64.13-.07.27-.14.43-.21.79-.39,1.5-.63,2.15-.7.48-.05.79.1.95.43.14.34.14.74-.02,1.22-.36.94-.73,1.81-1.13,2.6-.11.18-.2.36-.29.54.07.04.14.07.21.11.1.06.12.17.09.32-.04.17-.15.31-.34.43-.12.08-.29.13-.52.14-.17.24-.31.47-.43.7-.39.57-.85,1.1-1.36,1.58-.61.57-1.13.97-1.58,1.2-.45.25-.79.38-1.02.39-.31.04-.53-.02-.64-.16-.13-.13-.22-.26-.27-.38-.07-.12-.03-.23.12-.34.12-.08.26-.07.41.05.17.1.33.14.48.12.12-.02.4-.2.84-.54.46-.33.9-.7,1.29-1.11.37-.38.78-.92,1.22-1.61-.01-.01-.02-.02-.04-.02-.8-.19-1.63-.56-2.49-1.11-.19-.14-.28-.27-.27-.39.02-.14.11-.24.27-.29.2-.08.39-.07.57.05.93.56,1.68.87,2.26.91h.16c.38-.78.86-1.92,1.43-3.42.07-.2.08-.33.04-.38-.07-.1-.17-.14-.29-.12-.24.02-.76.26-1.56.7-.75.44-1.31.75-1.68.93-.14.06-.26.07-.34.02-.35.41-.72.81-1.13,1.22-.14.14-.34.24-.59.29-.19.02-.31,0-.36-.09-.11-.16-.1-.29.02-.41,1.5-1.59,2.54-2.84,3.12-3.74.22-.33.33-.61.34-.82.04-.21.02-.36-.05-.43-.06-.08-.13-.15-.21-.2-.1-.07-.15-.13-.16-.18-.44.12-.73.2-.88.25-.2.07-.47.15-.81.23-.32.08-.58.12-.77.11-.36-.02-.54-.11-.55-.27-.01-.18,0-.34.05-.48.06-.17.15-.27.27-.32.19-.07.34-.07.45.02.11.1.23.14.38.12.18-.06.42-.12.72-.2.24-.06.6-.17,1.08-.32.49-.18,1.13-.38,1.93-.59.71-.19,1.33-.32,1.88-.39Zm2.2,3.33c-.07-.21-.05-.36.07-.45.11-.08.29-.12.55-.11.18.01.29.08.32.2.04.16.05.31.04.47-.2,1.11-.34,2.12-.41,3.03-.06.9-.07,1.35-.02,1.36.1.05.19,0,.27-.16.19-.37.29-.63.3-.77.02-.12.08-.18.16-.18.08.02.13.08.14.16.04.24-.16.96-.59,2.15-.06.3-.19.42-.38.38-.36-.1-.56-.23-.61-.41-.04-.11-.08-.26-.13-.45-.06-.21-.05-.92.04-2.11.08-1.12.18-1.99.29-2.62.01-.13,0-.29-.05-.48Zm3.35-3.49c-.36.12-.53.1-.52-.05.02-.2.14-.38.36-.52.3-.2.54-.31.72-.32.31,0,.54.1.68.29.19.24.28.51.27.81-.07,2.57-.09,4.25-.05,5.03.05.75.05,1.47.02,2.17-.02.61.02,1.56.12,2.85.1,1.13.1,2.53.02,4.19-.04.86-.16,1.3-.38,1.31-.37.02-.78-.1-1.22-.36-1.19-.72-2.08-1.4-2.67-2.06-.14-.18-.16-.32-.04-.43.13-.08.31-.05.54.11.98.63,1.65.99,2.01,1.07.33.08.56.12.68.11.12-.02.19-.64.2-1.86.01-.26-.02-.9-.11-1.9-.1-1.27-.14-2.17-.14-2.71.01-.62.01-1.12,0-1.49-.05-1.11-.05-2.4,0-3.87.05-1.4.02-2.16-.09-2.28-.11-.11-.24-.14-.39-.09Z"/><path class="cls-4" d="m57.63,43.18c0,1.38-1.12,2.51-2.51,2.51s-2.51-1.13-2.51-2.51,1.12-2.5,2.51-2.5,2.51,1.12,2.51,2.5Zm-2.51-2.93c-1.62,0-2.93,1.31-2.93,2.93s1.31,2.93,2.93,2.93,2.93-1.31,2.93-2.93-1.32-2.93-2.93-2.93Z"/><path class="cls-4" d="m53.82,44.9v-3.43h1.52c.31,0,.54.03.7.09.16.06.29.17.38.33.09.16.14.33.14.52,0,.24-.08.45-.24.61-.16.17-.4.28-.73.32.12.06.21.12.27.17.13.12.26.27.37.46l.59.93h-.57l-.46-.71c-.13-.2-.24-.36-.33-.47-.08-.11-.16-.19-.23-.23-.07-.04-.13-.08-.21-.09-.05,0-.14-.02-.25-.02h-.53v1.52h-.45Zm.45-1.91h.98c.21,0,.37-.02.49-.07.12-.04.21-.11.27-.21.06-.09.09-.2.09-.31,0-.16-.06-.3-.18-.4-.12-.1-.3-.16-.56-.16h-1.09v1.14Z"/></g></svg>