<?xml version="1.0" encoding="UTF-8"?><svg id="_圖層_2" xmlns="http://www.w3.org/2000/svg" viewBox="0 0 58.06 46.28"><defs><style>.cls-1{fill:#fff;}.cls-2{fill:#f5f5f5;}.cls-3{fill:#91bee6;}.cls-4{fill:#172a88;}.cls-5{fill:#00a0e9;}</style></defs><g id="_圖層_1-2"><path class="cls-3" d="m24.36,35.25s.02-.01.03-.02h0s-.02.01-.03.02Z"/><polygon class="cls-4" points="24.42 35.37 24.37 35.28 24.34 35.34 24.37 35.28 24.36 35.27 24.31 35.32 24.29 35.29 24.36 35.26 24.29 35.15 24.37 35.1 24.49 35.14 24.5 35.16 24.6 35.26 24.42 35.37"/><path class="cls-1" d="m24.4,35.23s-.02.01-.03.02c-.34.23-.69.45-1.05.63-.33.2-.65.4-.96.59,2.85,3.03,6.94,6.04,12.91,8.15.85-.05,1.72-.14,2.63-.28-6.48-2.37-10.69-5.8-13.5-9.11Z"/><path class="cls-4" d="m35.25,44.75h-.02c-5.23-1.86-9.6-4.62-12.96-8.2l-.1-.11.13-.08c.31-.19.63-.39.96-.59.35-.18.7-.38,1.04-.62l.11-.06.09.07c3.39,4,7.91,7.05,13.45,9.08l.46.17-.48.07c-.88.13-1.77.23-2.64.28h-.03Zm-12.7-8.26c3.32,3.49,7.6,6.18,12.73,8,.7-.04,1.4-.11,2.11-.21-5.33-2.02-9.71-5.01-13.02-8.89-.34.23-.67.42-1,.59-.28.17-.55.34-.82.5Z"/><path class="cls-1" d="m22.35,36.47c-.71.44-1.37.87-1.93,1.24,2.7,2.57,6.35,5.05,11.37,6.89,1.09.08,2.25.1,3.47.02-5.98-2.11-10.07-5.13-12.91-8.15Z"/><path class="cls-4" d="m33.69,44.8h0c-.64,0-1.28-.03-1.9-.07h-.03c-4.49-1.65-8.33-3.98-11.42-6.93l-.12-.11.13-.09c.64-.42,1.29-.84,1.93-1.24l.09-.05.07.07c3.34,3.55,7.67,6.28,12.86,8.12l.58.21-.62.03c-.53.03-1.06.05-1.58.05Zm-1.87-.32c.61.04,1.24.07,1.87.07h0c.31,0,.63,0,.95-.02-4.94-1.84-9.07-4.49-12.3-7.9-.57.36-1.14.72-1.71,1.1,3.04,2.87,6.81,5.14,11.2,6.75Z"/><path class="cls-1" d="m26.56,34.03c-.72.38-1.45.79-2.16,1.21,2.81,3.32,7.02,6.75,13.5,9.11.73-.11,1.48-.25,2.26-.43-6.73-2.62-10.91-6.4-13.6-9.89Z"/><path class="cls-4" d="m37.89,44.48h-.03c-5.58-2.05-10.14-5.13-13.55-9.16l-.1-.11.13-.08c.76-.44,1.48-.85,2.16-1.21l.09-.05.06.08c3.33,4.34,7.88,7.65,13.54,9.86l.38.15-.4.09c-.75.17-1.52.32-2.26.43h-.03Zm-13.3-9.21c3.37,3.94,7.85,6.95,13.32,8.95.6-.09,1.21-.2,1.82-.33-5.49-2.21-9.93-5.47-13.21-9.7-.61.32-1.26.69-1.93,1.08Z"/><path class="cls-1" d="m40.15,43.92c.67-.15,1.35-.33,2.05-.53-6.78-2.86-10.83-6.9-13.34-10.49-.73.33-1.51.71-2.3,1.13,2.69,3.5,6.87,7.28,13.6,9.89Z"/><path class="cls-4" d="m40.14,44.05h-.04c-5.7-2.23-10.3-5.58-13.65-9.95l-.09-.12.13-.07c.83-.44,1.61-.83,2.31-1.13l.09-.04.06.08c3.21,4.57,7.68,8.08,13.29,10.45l.32.13-.34.1c-.69.2-1.38.38-2.05.54h-.04Zm-13.4-9.99c3.31,4.27,7.83,7.54,13.42,9.73.55-.13,1.11-.27,1.66-.43-5.47-2.37-9.85-5.84-13.02-10.31-.63.28-1.33.62-2.07,1.01Z"/><path class="cls-1" d="m16.11,37.26s6.97,6.7,15.69,7.34c-5.02-1.84-8.68-4.32-11.37-6.89-1.23.81-4.31-.45-4.31-.45Z"/><path class="cls-4" d="m32.68,44.79l-.89-.06c-8.66-.64-15.69-7.31-15.76-7.38l-.47-.45.6.24s1.75.71,3.11.71c.47,0,.84-.08,1.09-.25l.08-.05.07.07c3.07,2.92,6.88,5.23,11.33,6.87l.84.31Zm-16-7.2c1.64,1.42,7.33,5.93,14.2,6.79-4.08-1.61-7.6-3.8-10.47-6.52-.29.16-.67.24-1.14.24-.91,0-1.95-.29-2.59-.51Z"/><path class="cls-4" d="m42.2,43.39c.52-.15,1.07-.27,1.58-.5,1.52-.7.92-.88,1.06-.94l-4.16-5.37-.04-.99c-3.14-.96-6-3.07-7.82-3.62-.82-.25-2.28.18-3.96.92,2.52,3.59,6.57,7.64,13.34,10.49Z"/><path class="cls-4" d="m42.19,43.52l-.04-.02c-5.66-2.38-10.17-5.93-13.4-10.54l-.09-.12.14-.06c1.92-.85,3.27-1.16,4.05-.93.81.24,1.79.77,2.93,1.39,1.47.79,3.13,1.69,4.89,2.23l.08.03.04,1.04,4.24,5.46-.08.03c.04.25-.17.52-1.13.97-.39.18-.79.29-1.18.39-.14.04-.28.07-.41.12h-.04Zm-13.15-10.57c3.19,4.5,7.62,7.96,13.16,10.31.12-.04.25-.07.37-.1.38-.1.78-.21,1.14-.38.4-.18,1.05-.52.98-.72-.01-.04-.02-.07-.01-.09l-4.14-5.33-.04-.95c-1.75-.55-3.4-1.44-4.85-2.22-1.13-.61-2.1-1.13-2.88-1.37-.69-.21-1.96.08-3.73.85Z"/><path class="cls-3" d="m24.36,35.25c-.35.21-.7.42-1.05.63.36-.18.71-.39,1.05-.63Z"/><path class="cls-4" d="m23.37,35.99l-.12-.22c.34-.21.69-.42,1.05-.63l.13.21c-.36.24-.71.46-1.06.63Z"/><path class="cls-3" d="m24.36,35.25c-.35.21-.7.42-1.05.63.36-.18.71-.39,1.05-.63Z"/><path class="cls-4" d="m23.37,35.99l-.12-.22c.34-.21.69-.42,1.05-.63l.13.21c-.36.24-.71.46-1.06.63Z"/><path class="cls-4" d="m54.7,26.64s-.21,1.29-2.22,1.29c-1.58,0-4.05-.97-4.26,1.11-1.38-1.94-2.68-1.11-4.27-1.11-2,0-2.22-1.29-2.22-1.29-.71,7.22,5.15,6.29,5.15,6.29,0,0,.11.01.28-.01-.07,1.13-.5,2.36-1.85,2.96-1.47.66-5.22-1.58-9.56-7.03-.91-1.39-1.59-2.49-1.75-2.71-.95-1.32,3.38-12.77,4.26-13.69,1.15-1.2,2.5-1.75,2.84-2.49.34-.74.3-2.4.08-3.49-.23-1.08-2.05-1.43-2.99-1.81-.94-.39-8.52,1.93-10.8,2.33-2.28.4-2.56,1.37-2.56,1.37-.46,2.54.57,5.3,1.42,6.1.85.8,2.49.62,3.92-.75,1.43-1.37-.21-3.92,5.38-4.89,3.53-.61-.53,8.81-1.56,12.06-1.03,3.25-3.36,3.02-4.55,1.93-3.29-3.02-8.92-4.59-11.71-4.76-2.79-.17-6.64,1.11-6.7,2.34-.63,13.65,4.54,16.81,8.17,19.44,2.74,1.99,10.18-6.21,12.17-6.78,2-.57,3.92,3.61,6.17,6.38,1.33,1.64,5.41,3.81,6.58,3.35,1.88-.75,2.93-1.81,3.59-3.08,1.59-2.44,2.01-5.42,2.12-6.72,1.13.08,5.51-.02,4.88-6.32Z"/><path class="cls-5" d="m4.49,10.31s.14-4.32-.84-6.34C2.68,1.95,5.82-1.12,8.05.41c2.23,1.53,1.39,6.48-3.56,9.9Z"/><path class="cls-5" d="m2.21,16.81S-1.13,29.21.4,36.36c1.53,7.16,3.76,10.48,6.48,9.84,2.72-.64,2.87-6.42,3.49-10.22.65-3.96.22-5.92-.21-3.77-.91,4.54-2.44,6.77-3.83,4.67-1.39-2.11-1.58-17.12-.56-19.11.39-.76-1.81-2.43-3.56-.96Z"/><path class="cls-2" d="m19.97,19.94c0,.84-.68,1.52-1.52,1.52s-1.52-.68-1.52-1.52.68-1.52,1.52-1.52,1.52.68,1.52,1.52Z"/><path class="cls-4" d="m19.25,19.75c0,.59-.48,1.08-1.08,1.08s-1.08-.48-1.08-1.08.48-1.08,1.08-1.08,1.08.48,1.08,1.08Z"/><path class="cls-5" d="m34.05,26.13c-.95-1.32,3.38-12.77,4.26-13.69,1.15-1.2,2.5-1.75,2.84-2.49.34-.74.31-2.4.08-3.49-.23-1.08-2.05-1.43-2.99-1.81-.94-.39-8.52,1.93-10.8,2.33-2.28.4-2.57,1.37-2.57,1.37-.46,2.54.57,5.3,1.43,6.1.86.8,2.49.62,3.92-.75,1.43-1.37-.21-3.92,5.37-4.89,3.53-.61-.53,8.81-1.56,12.06-.94,2.97-2.98,3.03-4.22,2.19,1.62,1.26,3.44,2.7,4.69,3.75-.22-.34-.37-.57-.43-.67Z"/><path class="cls-3" d="m24.36,35.54s.02-.01.03-.01c0,0,0,0,0,0-.01,0-.02.01-.03.02Z"/><polygon class="cls-4" points="24.42 35.66 24.37 35.57 24.34 35.64 24.37 35.57 24.36 35.55 24.3 35.6 24.36 35.55 24.3 35.43 24.39 35.38 24.48 35.43 24.58 35.58 24.42 35.66"/><path class="cls-1" d="m26.26,34.26c.74-.61,1.32-1.24,1.62-1.75-.17-.22-.34-.44-.49-.65-.33-.48-.61-.94-.87-1.38-.5-.31-1.09-.66-1.74-1.02-.56-.31-1.16-.63-1.78-.96-.23-.12-.46-.24-.7-.36.41,1.07,1.05,2.35,2.05,3.83.53.72,1.15,1.5,1.9,2.29Z"/><path class="cls-4" d="m26.25,34.43l-.08-.08c-.68-.73-1.33-1.51-1.91-2.31-.89-1.31-1.59-2.61-2.07-3.86l-.12-.31.29.15c.23.12.47.24.7.37.65.34,1.25.67,1.78.96.66.37,1.25.71,1.74,1.02h.03s.02.04.02.04c.27.47.55.92.86,1.37.15.21.32.43.49.65l.05.07-.04.07c-.32.53-.91,1.17-1.65,1.78l-.09.07Zm-3.7-6.03c.47,1.14,1.11,2.31,1.92,3.49.55.76,1.16,1.5,1.81,2.19.64-.54,1.16-1.1,1.46-1.57-.15-.2-.3-.4-.44-.59-.31-.45-.59-.9-.86-1.36-.49-.3-1.06-.64-1.71-1-.53-.29-1.12-.62-1.77-.96-.13-.07-.27-.14-.4-.21Z"/><path class="cls-1" d="m12.71,26.79c-.22.66-.28,1.48-.1,2.45.09.48.19.94.31,1.36.56,2.09,1.42,3.5,2.44,4.42.79.71,1.66,1.14,2.56,1.37.47.12.94.19,1.41.22-1.78-1.5-3.08-2.99-4.04-4.32-1.6-2.36-2.27-4.23-2.57-5.5Z"/><path class="cls-4" d="m19.7,36.76l-.38-.03c-.52-.04-.99-.11-1.44-.22-.99-.26-1.87-.73-2.61-1.4-1.12-1.02-1.95-2.52-2.47-4.48-.12-.44-.22-.9-.31-1.37-.17-.93-.13-1.78.11-2.51l.14-.42.1.44c.4,1.72,1.26,3.56,2.55,5.45,1.16,1.59,2.47,3,4.02,4.3l.29.25Zm-6.99-9.47c-.11.58-.1,1.22.02,1.92.09.46.19.92.3,1.35.51,1.91,1.32,3.38,2.4,4.36.71.64,1.55,1.1,2.5,1.34.32.08.65.14,1,.18-1.43-1.24-2.67-2.58-3.76-4.09-1.19-1.75-2.02-3.45-2.47-5.07Z"/><path class="cls-1" d="m22.23,36.4c.24-.06.48-.13.72-.22.12-.04.25-.09.37-.14.34-.16.69-.33,1.05-.49.01,0,.02-.01.03-.02-1.29-1.2-2.28-2.38-3.06-3.46-1.69-2.49-2.35-4.44-2.62-5.71-.33-.15-.64-.29-.94-.43-.69-.31-1.29-.56-1.76-.73-.21-.08-.39-.14-.54-.18.08.74.21,3.3,2.83,7.16.95,1.3,2.2,2.76,3.92,4.22Z"/><path class="cls-4" d="m22.19,36.53l-.05-.04c-1.49-1.27-2.81-2.7-3.94-4.24-2.51-3.69-2.76-6.25-2.84-7.09l-.03-.31.18.05c.15.04.34.11.55.18.46.17,1.07.43,1.77.74.3.13.61.28.94.43l.06.03v.06c.4,1.78,1.27,3.69,2.61,5.66.91,1.25,1.9,2.37,3.04,3.43l.12.12-.18.1c-.36.17-.71.33-1.05.5-.13.05-.26.1-.38.14-.25.09-.5.16-.73.22h-.06Zm-6.57-11.34c.09.88.38,3.37,2.79,6.91,1.1,1.51,2.39,2.91,3.85,4.15.21-.05.43-.12.64-.2.12-.04.25-.09.37-.14.29-.14.6-.29.91-.43-1.1-1.04-2.06-2.13-2.94-3.35-1.35-1.98-2.23-3.89-2.63-5.69-.3-.14-.6-.28-.88-.4-.69-.31-1.29-.56-1.75-.73-.13-.05-.25-.09-.35-.12Z"/><path class="cls-1" d="m21.35,36.55c.06,0,.12-.01.18-.02.23-.03.46-.08.7-.13-1.71-1.46-2.97-2.92-3.92-4.22-2.62-3.86-2.75-6.42-2.83-7.16-.11-.03-.2-.06-.27-.06-.39-.05-.78.01-1.13.18-.59.28-1.09.84-1.36,1.65.3,1.27.97,3.14,2.57,5.5.97,1.33,2.26,2.83,4.04,4.32.15,0,.29.02.44.02.54.01,1.08-.02,1.59-.08Z"/><path class="cls-4" d="m19.97,36.76h0c-.07,0-.14,0-.21,0-.15,0-.3,0-.44-.02h-.04s-.03-.03-.03-.03c-1.56-1.31-2.89-2.73-4.06-4.35-1.31-1.92-2.18-3.79-2.59-5.54v-.03s0-.03,0-.03c.26-.81.77-1.42,1.42-1.73.38-.18.79-.24,1.2-.19.07,0,.16.03.29.07l.08.02.02.21c.08.83.32,3.34,2.8,6.97,1.11,1.53,2.42,2.94,3.9,4.19l.19.16-.24.06c-.25.06-.49.11-.71.13l-.18.02c-.5.06-.95.08-1.4.08Zm-.59-.27c.13,0,.26.01.39.02.51,0,1.01-.02,1.57-.08l.18-.02c.14-.02.29-.04.44-.07-1.41-1.23-2.67-2.6-3.75-4.08-2.51-3.69-2.76-6.25-2.84-7.09v-.04c-.08-.02-.14-.03-.18-.04-.37-.05-.73,0-1.07.17-.58.27-1.04.82-1.28,1.55.41,1.71,1.26,3.54,2.54,5.42,1.15,1.58,2.46,2.98,3.99,4.27Z"/><path class="cls-1" d="m24.4,35.53c.06-.03.12-.06.18-.1.5-.29.97-.61,1.4-.94.1-.08.19-.15.29-.23-.75-.79-1.37-1.57-1.9-2.29-1-1.48-1.64-2.76-2.05-3.83-.36-.19-.71-.37-1.07-.55-.58-.29-1.16-.57-1.71-.84-.28-.13-.55-.26-.82-.39.27,1.27.92,3.22,2.62,5.71.78,1.07,1.77,2.25,3.06,3.46Z"/><path class="cls-4" d="m24.38,35.68l-.07-.06c-1.15-1.07-2.16-2.21-3.08-3.47-1.36-2-2.25-3.94-2.64-5.75l-.05-.25.23.11c.27.12.54.25.82.38.55.27,1.13.55,1.71.84.36.18.72.36,1.07.55l.04.02.02.04c.47,1.23,1.16,2.51,2.04,3.8.57.79,1.21,1.56,1.89,2.28l.09.1-.1.08c-.09.08-.19.15-.29.23-.46.36-.94.68-1.41.95-.04.02-.08.04-.11.06l-.15.08Zm-5.48-9.1c.41,1.71,1.26,3.53,2.54,5.42.89,1.22,1.87,2.33,2.98,3.37.04-.02.07-.04.1-.06.46-.26.93-.58,1.38-.93.06-.05.12-.09.18-.14-.65-.7-1.26-1.45-1.82-2.21-.88-1.3-1.57-2.58-2.05-3.81-.34-.18-.68-.35-1.03-.53-.58-.29-1.16-.57-1.71-.84-.2-.09-.39-.19-.58-.28Z"/><path class="cls-4" d="m27.88,32.51c.15-.25.23-.46.24-.63,0-.05,0-.1,0-.14-.06-.22-.67-.68-1.59-1.25.25.44.54.9.87,1.38.16.21.32.43.49.65Z"/><path class="cls-3" d="m24.36,35.54c-.35.16-.7.33-1.05.49.36-.14.71-.31,1.05-.49Z"/><path class="cls-4" d="m23.36,36.15l-.1-.23c.34-.16.69-.33,1.05-.49l.11.22c-.36.2-.71.36-1.06.5Z"/><path class="cls-3" d="m24.36,35.54c-.35.16-.7.33-1.05.49.36-.14.71-.31,1.05-.49Z"/><path class="cls-4" d="m23.36,36.15l-.1-.23c.34-.16.69-.33,1.05-.49l.11.22c-.36.2-.71.36-1.06.5Z"/><path class="cls-2" d="m18.61,19.41c0,.29-.23.52-.52.52s-.52-.23-.52-.52.23-.52.52-.52.52.23.52.52Z"/><path class="cls-5" d="m43.19,12.53c0,.56-.45,1.01-1.01,1.01s-1.01-.45-1.01-1.01.45-1.01,1.01-1.01,1.01.45,1.01,1.01Z"/><path class="cls-5" d="m40.33,14.9c0,.24-.19.43-.43.43s-.43-.19-.43-.43.19-.42.43-.42.43.19.43.42Z"/><path class="cls-5" d="m44.2,6.14c0,.58-.47,1.04-1.05,1.04s-1.04-.47-1.04-1.04.47-1.04,1.04-1.04,1.05.47,1.05,1.04Z"/><path class="cls-5" d="m45.52,8.08c0,.28-.23.5-.5.5s-.5-.22-.5-.5.22-.5.5-.5.5.22.5.5Z"/><path class="cls-5" d="m24.6,14.35c0,.28-.22.5-.5.5s-.5-.22-.5-.5.22-.5.5-.5.5.23.5.5Z"/><path class="cls-5" d="m23.67,10.91c0,.77-.62,1.39-1.4,1.39s-1.39-.62-1.39-1.39.62-1.4,1.39-1.4,1.4.62,1.4,1.4Z"/><path class="cls-4" d="m57.63,43.18c0,1.38-1.12,2.51-2.51,2.51s-2.51-1.13-2.51-2.51,1.12-2.5,2.51-2.5,2.51,1.12,2.51,2.5Zm-2.51-2.93c-1.62,0-2.93,1.31-2.93,2.93s1.31,2.93,2.93,2.93,2.93-1.31,2.93-2.93-1.32-2.93-2.93-2.93Z"/><path class="cls-4" d="m53.82,44.9v-3.43h1.52c.31,0,.54.03.7.09.16.06.29.17.38.33.09.16.14.33.14.52,0,.24-.08.45-.24.61-.16.17-.4.28-.73.32.12.06.21.12.27.17.13.12.26.27.37.46l.59.93h-.57l-.46-.71c-.13-.2-.24-.36-.33-.47-.08-.11-.16-.19-.23-.23-.07-.04-.13-.08-.21-.09-.05,0-.14-.02-.25-.02h-.53v1.52h-.45Zm.45-1.91h.98c.21,0,.37-.02.49-.07.12-.04.21-.11.27-.21.06-.09.09-.2.09-.31,0-.16-.06-.3-.18-.4-.12-.1-.3-.16-.56-.16h-1.09v1.14Z"/></g></svg>