<svg xmlns="http://www.w3.org/2000/svg" viewBox="0 0 659.8 35.02"><defs><style>.cls-1{fill:#0068b7;}.cls-13,.cls-2{fill:#231815;}.cls-3{fill:#009de6;}.cls-4{fill:#00a73c;}.cls-5{fill:#f8bc00;}.cls-6{fill:#ab66a7;}.cls-7{fill:#db610d;}.cls-8{fill:#f29a76;}.cls-9{fill:#00afec;}.cls-10{fill:#e6e6e6;}.cls-11{fill:#ccc;}.cls-12{fill:#515958;}.cls-13{font-size:14px;stroke:#231815;stroke-miterlimit:10;stroke-width:0.25px;font-family:MicrosoftJhengHeiRegular, Microsoft JhengHei;letter-spacing:0.6em;}</style></defs><g id="圖層_2" data-name="圖層 2"><g id="圖層_1-2" data-name="圖層 1"><path class="cls-1" d="M177.92,8.74h-5a2,2,0,0,0,0,.22,2.33,2.33,0,0,0,.42,1.45,1.24,1.24,0,0,0,1,.55c.67,0,1.18-.42,1.55-1.25l1.79.36a4.39,4.39,0,0,1-1.39,2,3.2,3.2,0,0,1-2,.66,3,3,0,0,1-2.42-1.15,4.68,4.68,0,0,1-.93-3,6.38,6.38,0,0,1,.84-3.28,3.62,3.62,0,0,1,3.28-2,2.59,2.59,0,0,1,2.15,1,4.55,4.55,0,0,1,.8,2.86A8.36,8.36,0,0,1,177.92,8.74Zm-1.68-1.48V7a2.59,2.59,0,0,0-.36-1.5,1.19,1.19,0,0,0-1-.5,1.45,1.45,0,0,0-1.11.57,3.44,3.44,0,0,0-.66,1.68Z"/><path class="cls-2" d="M179,9.82V7.91h3.77V9.82Z"/><path class="cls-2" d="M183.94,12.49V2.58h2V10.8h5v1.69Z"/><path class="cls-2" d="M196.59,10.18l1.91.32a3.13,3.13,0,0,1-1.16,1.6,3.41,3.41,0,0,1-2,.55,3.26,3.26,0,0,1-2.8-1.23,4.2,4.2,0,0,1-.71-2.5,4,4,0,0,1,.94-2.82,3.1,3.1,0,0,1,2.38-1,3.21,3.21,0,0,1,2.55,1.07,4.72,4.72,0,0,1,.89,3.27h-4.8a2,2,0,0,0,.47,1.33,1.45,1.45,0,0,0,1.1.47,1.16,1.16,0,0,0,.76-.25A1.47,1.47,0,0,0,196.59,10.18Zm.11-1.93A1.9,1.9,0,0,0,196.27,7a1.38,1.38,0,0,0-2,0,1.78,1.78,0,0,0-.41,1.24Z"/><path class="cls-2" d="M201.59,7.46l-1.74-.32a2.73,2.73,0,0,1,1-1.55A3.62,3.62,0,0,1,203,5.08a4.63,4.63,0,0,1,1.91.31,1.88,1.88,0,0,1,.88.77A3.92,3.92,0,0,1,206,7.87l0,2.24a8.07,8.07,0,0,0,.09,1.41,4.52,4.52,0,0,0,.34,1h-1.89c-.05-.13-.11-.32-.19-.57l-.06-.22a3.48,3.48,0,0,1-1.05.71,3,3,0,0,1-1.2.24A2.45,2.45,0,0,1,200.3,12a2,2,0,0,1-.64-1.53A2,2,0,0,1,200,9.42a2,2,0,0,1,.82-.74,6.49,6.49,0,0,1,1.53-.45,9.61,9.61,0,0,0,1.86-.47V7.57a1,1,0,0,0-.28-.78,1.6,1.6,0,0,0-1-.24,1.38,1.38,0,0,0-.79.2A1.45,1.45,0,0,0,201.59,7.46ZM204.16,9q-.37.12-1.17.3a3.36,3.36,0,0,0-1,.33.79.79,0,0,0-.38.67,1,1,0,0,0,.3.7,1.08,1.08,0,0,0,.77.29,1.62,1.62,0,0,0,1-.34,1.13,1.13,0,0,0,.46-.63,3.8,3.8,0,0,0,.08-.94Z"/><path class="cls-2" d="M209.76,12.49h-1.91V5.25h1.77v1a3,3,0,0,1,.83-1,1.46,1.46,0,0,1,.82-.24,2.42,2.42,0,0,1,1.26.37l-.59,1.67a1.67,1.67,0,0,0-.9-.32,1.11,1.11,0,0,0-.68.22,1.54,1.54,0,0,0-.44.8,11.23,11.23,0,0,0-.16,2.43Z"/><path class="cls-2" d="M219.94,12.49H218V8.79a5.78,5.78,0,0,0-.12-1.51,1.1,1.1,0,0,0-.4-.54,1.15,1.15,0,0,0-.67-.19,1.53,1.53,0,0,0-.89.27,1.36,1.36,0,0,0-.54.73,6.07,6.07,0,0,0-.15,1.66v3.28h-1.91V5.25h1.78V6.31a2.88,2.88,0,0,1,2.38-1.23,2.93,2.93,0,0,1,1.16.23,2,2,0,0,1,.79.59,2,2,0,0,1,.38.8,6.09,6.09,0,0,1,.1,1.29Z"/><path class="cls-2" d="M221.89,4.27V2.5h1.91V4.27Zm0,8.22V5.25h1.91v7.24Z"/><path class="cls-2" d="M232.35,12.49h-1.92V8.79a5.78,5.78,0,0,0-.12-1.51,1.08,1.08,0,0,0-.39-.54,1.15,1.15,0,0,0-.67-.19,1.59,1.59,0,0,0-.9.27,1.41,1.41,0,0,0-.54.73,6.65,6.65,0,0,0-.14,1.66v3.28h-1.92V5.25h1.78V6.31a3,3,0,0,1,3.55-1,2.05,2.05,0,0,1,.79.59,2,2,0,0,1,.37.8A5.39,5.39,0,0,1,232.35,8Z"/><path class="cls-2" d="M234.12,13l2.18.27a.74.74,0,0,0,.26.53,1.47,1.47,0,0,0,.86.2,2.24,2.24,0,0,0,1.12-.22,1,1,0,0,0,.38-.49,2.86,2.86,0,0,0,.09-.88V11.31a2.58,2.58,0,0,1-2.17,1.18,2.66,2.66,0,0,1-2.31-1.24,4.23,4.23,0,0,1-.67-2.42,4,4,0,0,1,.88-2.78,2.83,2.83,0,0,1,2.18-1,2.66,2.66,0,0,1,2.21,1.18v-1h1.8v6.5a6.1,6.1,0,0,1-.22,1.91,2.3,2.3,0,0,1-.59,1,2.39,2.39,0,0,1-1,.57,5.23,5.23,0,0,1-1.61.2,4.16,4.16,0,0,1-2.61-.63,2,2,0,0,1-.77-1.59A2.18,2.18,0,0,1,234.12,13Zm1.71-4.24a2.67,2.67,0,0,0,.44,1.69,1.41,1.41,0,0,0,1.1.53,1.51,1.51,0,0,0,1.19-.55A2.41,2.41,0,0,0,239,8.77a2.52,2.52,0,0,0-.46-1.67,1.46,1.46,0,0,0-1.17-.55,1.42,1.42,0,0,0-1.14.54A2.54,2.54,0,0,0,235.83,8.72Z"/><path class="cls-2" d="M245.86,5.25h1.06V4.7a3.57,3.57,0,0,1,.2-1.36,1.5,1.5,0,0,1,.72-.73,2.67,2.67,0,0,1,1.31-.29,5.52,5.52,0,0,1,1.61.25l-.26,1.34a3.48,3.48,0,0,0-.88-.11A.79.79,0,0,0,249,4a1.14,1.14,0,0,0-.18.75v.51h1.43V6.76h-1.43v5.73h-1.92V6.76h-1.06Z"/><path class="cls-2" d="M250.91,8.77a3.83,3.83,0,0,1,.47-1.85,3.12,3.12,0,0,1,1.33-1.36,3.88,3.88,0,0,1,1.92-.48,3.63,3.63,0,0,1,2.7,1.07,3.69,3.69,0,0,1,1.05,2.7,3.76,3.76,0,0,1-1.06,2.72,3.6,3.6,0,0,1-2.67,1.08,4.18,4.18,0,0,1-1.9-.45,3.07,3.07,0,0,1-1.37-1.32A4.3,4.3,0,0,1,250.91,8.77Zm2,.1a2.4,2.4,0,0,0,.51,1.65,1.68,1.68,0,0,0,2.52,0,2.44,2.44,0,0,0,.51-1.67,2.36,2.36,0,0,0-.51-1.63,1.66,1.66,0,0,0-2.52,0A2.4,2.4,0,0,0,252.87,8.87Z"/><path class="cls-2" d="M261.71,12.49h-1.92V5.25h1.78v1a3.1,3.1,0,0,1,.82-1,1.49,1.49,0,0,1,.83-.24,2.42,2.42,0,0,1,1.26.37l-.59,1.67a1.67,1.67,0,0,0-.9-.32,1.11,1.11,0,0,0-.68.22,1.54,1.54,0,0,0-.44.8,11.23,11.23,0,0,0-.16,2.43Z"/><path class="cls-3" d="M269.17,12.49V2.5h3L274,9.31,275.8,2.5h3v10H277V4.62l-2,7.87h-2l-2-7.87v7.87Z"/><path class="cls-2" d="M282.25,7.46l-1.74-.32a2.67,2.67,0,0,1,1-1.55,3.64,3.64,0,0,1,2.12-.51,4.57,4.57,0,0,1,1.91.31,1.91,1.91,0,0,1,.89.77,4,4,0,0,1,.25,1.71l0,2.24a8.07,8.07,0,0,0,.09,1.41,4.6,4.6,0,0,0,.35,1h-1.9q-.07-.2-.18-.57a1.13,1.13,0,0,0-.07-.22,3.48,3.48,0,0,1-1,.71,3,3,0,0,1-1.19.24A2.43,2.43,0,0,1,281,12a2,2,0,0,1-.65-1.53,2.09,2.09,0,0,1,.29-1.09,1.93,1.93,0,0,1,.83-.74A6.53,6.53,0,0,1,283,8.23a9.61,9.61,0,0,0,1.86-.47V7.57a1,1,0,0,0-.27-.78,1.62,1.62,0,0,0-1-.24,1.41,1.41,0,0,0-.8.2A1.44,1.44,0,0,0,282.25,7.46ZM284.81,9c-.25.08-.63.18-1.17.3a3.46,3.46,0,0,0-1,.33.78.78,0,0,0-.37.67,1,1,0,0,0,.3.7,1.06,1.06,0,0,0,.76.29,1.65,1.65,0,0,0,1-.34,1.16,1.16,0,0,0,.45-.63,3.8,3.8,0,0,0,.08-.94Z"/><path class="cls-2" d="M295.16,12.49h-1.91V8.79a5.78,5.78,0,0,0-.12-1.51,1.1,1.1,0,0,0-.4-.54,1.15,1.15,0,0,0-.67-.19,1.53,1.53,0,0,0-.89.27,1.36,1.36,0,0,0-.54.73,6.07,6.07,0,0,0-.15,1.66v3.28h-1.91V5.25h1.78V6.31a2.88,2.88,0,0,1,2.38-1.23,2.93,2.93,0,0,1,1.16.23,2,2,0,0,1,.79.59,2,2,0,0,1,.38.8,6.09,6.09,0,0,1,.1,1.29Z"/><path class="cls-2" d="M303.75,12.49H302V11.42a2.88,2.88,0,0,1-1.05.93,2.71,2.71,0,0,1-3.35-.71,4.07,4.07,0,0,1-.89-2.8,4.08,4.08,0,0,1,.86-2.8,2.83,2.83,0,0,1,2.19-1,2.72,2.72,0,0,1,2.1,1V2.5h1.92Zm-5.12-3.78a3.26,3.26,0,0,0,.33,1.68,1.43,1.43,0,0,0,1.29.75,1.4,1.4,0,0,0,1.12-.56,2.61,2.61,0,0,0,.47-1.68,2.83,2.83,0,0,0-.45-1.8,1.42,1.42,0,0,0-1.15-.55,1.45,1.45,0,0,0-1.15.54A2.48,2.48,0,0,0,298.63,8.71Z"/><path class="cls-2" d="M307.07,7.46l-1.74-.32a2.67,2.67,0,0,1,1-1.55,3.62,3.62,0,0,1,2.12-.51,4.6,4.6,0,0,1,1.91.31,1.88,1.88,0,0,1,.88.77,3.92,3.92,0,0,1,.26,1.71l0,2.24a8.07,8.07,0,0,0,.09,1.41,4.1,4.1,0,0,0,.35,1H310q-.07-.2-.18-.57c0-.11-.06-.19-.07-.22a3.48,3.48,0,0,1-1,.71,3,3,0,0,1-1.19.24,2.42,2.42,0,0,1-1.76-.61,2,2,0,0,1-.65-1.53,2.09,2.09,0,0,1,.29-1.09,1.93,1.93,0,0,1,.83-.74,6.38,6.38,0,0,1,1.52-.45,9.61,9.61,0,0,0,1.86-.47V7.57a1,1,0,0,0-.27-.78,1.64,1.64,0,0,0-1-.24,1.41,1.41,0,0,0-.8.2A1.44,1.44,0,0,0,307.07,7.46ZM309.63,9c-.25.08-.63.18-1.17.3a3.36,3.36,0,0,0-1,.33.79.79,0,0,0-.38.67.93.93,0,0,0,.31.7,1.06,1.06,0,0,0,.76.29,1.67,1.67,0,0,0,1-.34,1.16,1.16,0,0,0,.45-.63,3.8,3.8,0,0,0,.08-.94Z"/><path class="cls-2" d="M315.23,12.49h-1.91V5.25h1.78v1a3,3,0,0,1,.82-1,1.47,1.47,0,0,1,.83-.24,2.48,2.48,0,0,1,1.26.37l-.59,1.67a1.73,1.73,0,0,0-.91-.32,1.13,1.13,0,0,0-.68.22,1.62,1.62,0,0,0-.44.8,12,12,0,0,0-.16,2.43Z"/><path class="cls-2" d="M318.83,4.27V2.5h1.92V4.27Zm0,8.22V5.25h1.92v7.24Z"/><path class="cls-2" d="M329.3,12.49h-1.92V8.79a5.78,5.78,0,0,0-.12-1.51,1.17,1.17,0,0,0-.4-.54,1.15,1.15,0,0,0-.67-.19,1.53,1.53,0,0,0-.89.27,1.41,1.41,0,0,0-.54.73,6.07,6.07,0,0,0-.15,1.66v3.28H322.7V5.25h1.77V6.31a3,3,0,0,1,3.55-1,2,2,0,0,1,.79.59,2,2,0,0,1,.38.8A6,6,0,0,1,329.3,8Z"/><path class="cls-4" d="M335.13,12.49V2.5h3.24a12.9,12.9,0,0,1,2.4.14,2.6,2.6,0,0,1,1.43,1,3.08,3.08,0,0,1,.58,2,3.32,3.32,0,0,1-.33,1.55,2.63,2.63,0,0,1-.85,1,3,3,0,0,1-1,.48,12.21,12.21,0,0,1-2.1.14h-1.31v3.77Zm2-8.31V7h1.1a5,5,0,0,0,1.6-.16,1.28,1.28,0,0,0,.63-.49,1.34,1.34,0,0,0,.23-.77,1.29,1.29,0,0,0-.32-.9,1.43,1.43,0,0,0-.81-.45,10.65,10.65,0,0,0-1.46-.07Z"/><path class="cls-2" d="M346.26,12.49h-1.91V5.25h1.78v1a3,3,0,0,1,.82-1,1.46,1.46,0,0,1,.82-.24,2.49,2.49,0,0,1,1.27.37l-.6,1.67a1.67,1.67,0,0,0-.9-.32,1.13,1.13,0,0,0-.68.22,1.62,1.62,0,0,0-.44.8,11.23,11.23,0,0,0-.16,2.43Z"/><path class="cls-2" d="M349.42,8.77a3.83,3.83,0,0,1,.47-1.85,3.12,3.12,0,0,1,1.33-1.36,3.89,3.89,0,0,1,1.93-.48,3.62,3.62,0,0,1,2.69,1.07,3.69,3.69,0,0,1,1.05,2.7,3.72,3.72,0,0,1-1.06,2.72,3.6,3.6,0,0,1-2.67,1.08,4.21,4.21,0,0,1-1.9-.45,3.07,3.07,0,0,1-1.37-1.32A4.3,4.3,0,0,1,349.42,8.77Zm2,.1a2.4,2.4,0,0,0,.51,1.65,1.68,1.68,0,0,0,2.52,0,2.44,2.44,0,0,0,.51-1.67,2.36,2.36,0,0,0-.51-1.63,1.66,1.66,0,0,0-2.52,0A2.4,2.4,0,0,0,351.38,8.87Z"/><path class="cls-2" d="M357.55,5.25h1.06V4.7a3.57,3.57,0,0,1,.2-1.36,1.52,1.52,0,0,1,.71-.73,2.74,2.74,0,0,1,1.32-.29,5.4,5.4,0,0,1,1.6.25l-.26,1.34a3.35,3.35,0,0,0-.87-.11.79.79,0,0,0-.6.19,1.14,1.14,0,0,0-.18.75v.51H362V6.76h-1.43v5.73h-1.92V6.76h-1.06Z"/><path class="cls-2" d="M363,4.27V2.5H365V4.27Zm0,8.22V5.25H365v7.24Z"/><path class="cls-2" d="M373.23,7.39l-1.89.34a1.36,1.36,0,0,0-.43-.85,1.33,1.33,0,0,0-.88-.29,1.42,1.42,0,0,0-1.14.5,2.53,2.53,0,0,0-.43,1.65,2.92,2.92,0,0,0,.44,1.82,1.43,1.43,0,0,0,1.16.53,1.27,1.27,0,0,0,.89-.31,1.85,1.85,0,0,0,.49-1.07l1.89.32a3.38,3.38,0,0,1-1.13,2,3.5,3.5,0,0,1-2.23.66,3.3,3.3,0,0,1-2.53-1,3.89,3.89,0,0,1-.95-2.78,3.91,3.91,0,0,1,.95-2.79,3.39,3.39,0,0,1,2.56-1,3.52,3.52,0,0,1,2.11.57A3.17,3.17,0,0,1,373.23,7.39Z"/><path class="cls-2" d="M374.68,4.27V2.5h1.91V4.27Zm0,8.22V5.25h1.91v7.24Z"/><path class="cls-2" d="M382.75,10.18l1.91.32a3.07,3.07,0,0,1-1.16,1.6,3.38,3.38,0,0,1-2,.55,3.23,3.23,0,0,1-2.79-1.23,4.13,4.13,0,0,1-.72-2.5,4,4,0,0,1,.94-2.82,3.1,3.1,0,0,1,2.38-1,3.21,3.21,0,0,1,2.55,1.07,4.72,4.72,0,0,1,.89,3.27H380a2,2,0,0,0,.47,1.33,1.45,1.45,0,0,0,1.1.47,1.16,1.16,0,0,0,.76-.25A1.47,1.47,0,0,0,382.75,10.18Zm.11-1.93A1.85,1.85,0,0,0,382.43,7a1.38,1.38,0,0,0-2,0,1.73,1.73,0,0,0-.4,1.24Z"/><path class="cls-2" d="M392.91,12.49H391V8.79a5.78,5.78,0,0,0-.12-1.51,1,1,0,0,0-.4-.54,1.12,1.12,0,0,0-.66-.19,1.56,1.56,0,0,0-.9.27,1.41,1.41,0,0,0-.54.73,6.07,6.07,0,0,0-.15,1.66v3.28h-1.91V5.25h1.78V6.31a3,3,0,0,1,3.54-1A1.89,1.89,0,0,1,392.8,6.7,6,6,0,0,1,392.91,8Z"/><path class="cls-2" d="M401.16,7.39l-1.89.34A1.23,1.23,0,0,0,398,6.59a1.45,1.45,0,0,0-1.14.5,2.54,2.54,0,0,0-.42,1.65,2.93,2.93,0,0,0,.43,1.82,1.44,1.44,0,0,0,1.16.53,1.28,1.28,0,0,0,.9-.31,1.91,1.91,0,0,0,.49-1.07l1.88.32a3.33,3.33,0,0,1-1.13,2,3.46,3.46,0,0,1-2.23.66,3.3,3.3,0,0,1-2.53-1,3.88,3.88,0,0,1-.94-2.78,3.87,3.87,0,0,1,.95-2.79,3.37,3.37,0,0,1,2.56-1,3.49,3.49,0,0,1,2.1.57A3.17,3.17,0,0,1,401.16,7.39Z"/><path class="cls-2" d="M401.71,5.25h2l1.73,5.14,1.69-5.14h2l-2.56,7-.45,1.26a5.29,5.29,0,0,1-.48,1,2,2,0,0,1-.53.55,2.59,2.59,0,0,1-.73.32,3.67,3.67,0,0,1-1,.11,4.89,4.89,0,0,1-1.08-.11l-.17-1.5a4.17,4.17,0,0,0,.81.09,1.21,1.21,0,0,0,1-.39,2.83,2.83,0,0,0,.49-1Z"/><path class="cls-5" d="M413.81,8.77a3.94,3.94,0,0,1,.47-1.85,3.2,3.2,0,0,1,1.34-1.36,3.85,3.85,0,0,1,1.92-.48,3.61,3.61,0,0,1,2.69,1.07,3.65,3.65,0,0,1,1.06,2.7,3.72,3.72,0,0,1-1.07,2.72,3.56,3.56,0,0,1-2.66,1.08,4.18,4.18,0,0,1-1.9-.45,3.09,3.09,0,0,1-1.38-1.32A4.41,4.41,0,0,1,413.81,8.77Zm2,.1a2.4,2.4,0,0,0,.51,1.65,1.68,1.68,0,0,0,2.52,0,2.49,2.49,0,0,0,.5-1.67,2.41,2.41,0,0,0-.5-1.63,1.66,1.66,0,0,0-2.52,0A2.4,2.4,0,0,0,415.78,8.87Z"/><path class="cls-2" d="M422,5.25H423V4.7a3.6,3.6,0,0,1,.19-1.36,1.5,1.5,0,0,1,.72-.73,2.74,2.74,0,0,1,1.32-.29,5.45,5.45,0,0,1,1.6.25l-.26,1.34a3.42,3.42,0,0,0-.88-.11.79.79,0,0,0-.6.19,1.14,1.14,0,0,0-.18.75v.51h1.44V6.76h-1.44v5.73H423V6.76H422Z"/><path class="cls-6" d="M432.74,12.49l-2.38-10h2.06l1.51,6.86,1.82-6.86h2.4l1.76,7,1.53-7h2l-2.43,10H438.9l-2-7.47-2,7.47Z"/><path class="cls-2" d="M443.79,8.77a3.94,3.94,0,0,1,.47-1.85,3.2,3.2,0,0,1,1.34-1.36,3.85,3.85,0,0,1,1.92-.48,3.61,3.61,0,0,1,2.69,1.07,3.69,3.69,0,0,1,1.05,2.7,3.75,3.75,0,0,1-1.05,2.72,3.6,3.6,0,0,1-2.68,1.08,4.17,4.17,0,0,1-1.89-.45,3.09,3.09,0,0,1-1.38-1.32A4.41,4.41,0,0,1,443.79,8.77Zm2,.1a2.4,2.4,0,0,0,.51,1.65,1.68,1.68,0,0,0,2.52,0,2.49,2.49,0,0,0,.5-1.67,2.41,2.41,0,0,0-.5-1.63,1.66,1.66,0,0,0-2.52,0A2.4,2.4,0,0,0,445.76,8.87Z"/><path class="cls-2" d="M454.6,12.49h-1.92V5.25h1.78v1a3,3,0,0,1,.82-1,1.49,1.49,0,0,1,.83-.24,2.48,2.48,0,0,1,1.26.37l-.59,1.67a1.7,1.7,0,0,0-.9-.32,1.09,1.09,0,0,0-.68.22,1.48,1.48,0,0,0-.44.8,11.23,11.23,0,0,0-.16,2.43Z"/><path class="cls-2" d="M464.83,12.49h-1.77V11.42a2.88,2.88,0,0,1-1.05.93,2.71,2.71,0,0,1-3.35-.71,4,4,0,0,1-.89-2.8,4,4,0,0,1,.86-2.8,2.83,2.83,0,0,1,2.19-1,2.72,2.72,0,0,1,2.1,1V2.5h1.91Zm-5.11-3.78a3.39,3.39,0,0,0,.32,1.68,1.45,1.45,0,0,0,1.3.75,1.42,1.42,0,0,0,1.12-.56,2.61,2.61,0,0,0,.47-1.68,2.83,2.83,0,0,0-.45-1.8,1.43,1.43,0,0,0-1.16-.55,1.45,1.45,0,0,0-1.14.54A2.48,2.48,0,0,0,459.72,8.71Z"/><path class="cls-2" d="M466.05,10.42l1.92-.29a1.43,1.43,0,0,0,.5.85,1.7,1.7,0,0,0,1,.29,1.87,1.87,0,0,0,1.12-.28.58.58,0,0,0,.25-.51.52.52,0,0,0-.14-.36,1.55,1.55,0,0,0-.64-.25,10.57,10.57,0,0,1-2.94-.93,1.88,1.88,0,0,1-.86-1.63,2,2,0,0,1,.75-1.58,3.43,3.43,0,0,1,2.3-.65,4,4,0,0,1,2.21.49,2.46,2.46,0,0,1,1,1.43l-1.8.33a1.15,1.15,0,0,0-.44-.64,1.64,1.64,0,0,0-.93-.23,2.09,2.09,0,0,0-1.08.21.47.47,0,0,0-.22.39.45.45,0,0,0,.19.35,7.08,7.08,0,0,0,1.79.54,5.24,5.24,0,0,1,2.14.85,1.77,1.77,0,0,1,.6,1.42,2.21,2.21,0,0,1-.83,1.72,3.72,3.72,0,0,1-2.46.71,4,4,0,0,1-2.34-.6A2.71,2.71,0,0,1,466.05,10.42Z"/><path class="cls-2" d="M474.44,10.57h1.91v1.37a4.58,4.58,0,0,1-.14,1.31,2,2,0,0,1-.54.87,3,3,0,0,1-1,.6l-.38-.8a1.61,1.61,0,0,0,.83-.52,1.61,1.61,0,0,0,.26-.91h-.93Z"/><path class="cls-2" d="M488.65,8.81l2,.62a4.35,4.35,0,0,1-1.5,2.43,4.26,4.26,0,0,1-2.65.8,4.34,4.34,0,0,1-3.28-1.36,5.24,5.24,0,0,1-1.28-3.72,5.49,5.49,0,0,1,1.29-3.88,4.42,4.42,0,0,1,3.39-1.38,4.15,4.15,0,0,1,3,1.09,4,4,0,0,1,1,1.84l-2,.48a2.06,2.06,0,0,0-2.1-1.68,2.31,2.31,0,0,0-1.81.8A3.9,3.9,0,0,0,484,7.43a4.24,4.24,0,0,0,.68,2.7,2.22,2.22,0,0,0,1.78.8,2,2,0,0,0,1.38-.51A2.9,2.9,0,0,0,488.65,8.81Z"/><path class="cls-2" d="M494.23,2.5V6.17a2.85,2.85,0,0,1,3.41-.84,1.85,1.85,0,0,1,.8.63,2.12,2.12,0,0,1,.37.84,7.23,7.23,0,0,1,.1,1.44v4.25H497V8.66a5.75,5.75,0,0,0-.11-1.44,1,1,0,0,0-.39-.49,1.24,1.24,0,0,0-.69-.18,1.61,1.61,0,0,0-.85.23,1.39,1.39,0,0,0-.55.7,4,4,0,0,0-.18,1.38v3.63h-1.91V2.5Z"/><path class="cls-2" d="M502.29,7.46l-1.74-.32a2.67,2.67,0,0,1,1-1.55,3.62,3.62,0,0,1,2.12-.51,4.6,4.6,0,0,1,1.91.31,1.88,1.88,0,0,1,.88.77,3.77,3.77,0,0,1,.26,1.71l0,2.24a8.07,8.07,0,0,0,.09,1.41,4.1,4.1,0,0,0,.35,1h-1.9q-.08-.2-.18-.57c0-.11-.06-.19-.07-.22a3.48,3.48,0,0,1-1.05.71,3,3,0,0,1-1.19.24A2.46,2.46,0,0,1,501,12a2,2,0,0,1-.64-1.53,2.09,2.09,0,0,1,.29-1.09,2,2,0,0,1,.82-.74A6.8,6.8,0,0,1,503,8.23a9.61,9.61,0,0,0,1.86-.47V7.57a1,1,0,0,0-.27-.78,1.64,1.64,0,0,0-1-.24,1.41,1.41,0,0,0-.8.2A1.37,1.37,0,0,0,502.29,7.46ZM504.85,9q-.37.12-1.17.3a3.36,3.36,0,0,0-1,.33.79.79,0,0,0-.38.67.93.93,0,0,0,.31.7,1.06,1.06,0,0,0,.76.29,1.67,1.67,0,0,0,1-.34,1.16,1.16,0,0,0,.45-.63,3.8,3.8,0,0,0,.08-.94Z"/><path class="cls-2" d="M510.45,12.49h-1.91V5.25h1.78v1a2.86,2.86,0,0,1,.82-1,1.46,1.46,0,0,1,.82-.24,2.42,2.42,0,0,1,1.26.37l-.59,1.67a1.67,1.67,0,0,0-.9-.32,1.11,1.11,0,0,0-.68.22,1.62,1.62,0,0,0-.44.8,11.23,11.23,0,0,0-.16,2.43Z"/><path class="cls-2" d="M515.48,7.46l-1.74-.32a2.77,2.77,0,0,1,1-1.55,3.68,3.68,0,0,1,2.13-.51,4.63,4.63,0,0,1,1.91.31,1.88,1.88,0,0,1,.88.77,3.92,3.92,0,0,1,.26,1.71l0,2.24a8.07,8.07,0,0,0,.09,1.41,4,4,0,0,0,.34,1h-1.89c-.05-.13-.11-.32-.19-.57l-.06-.22a3.4,3.4,0,0,1-1.06.71,2.94,2.94,0,0,1-1.19.24,2.45,2.45,0,0,1-1.76-.61,2.13,2.13,0,0,1-.35-2.62,2,2,0,0,1,.82-.74,6.53,6.53,0,0,1,1.52-.45,9.56,9.56,0,0,0,1.87-.47V7.57a1,1,0,0,0-.28-.78,1.6,1.6,0,0,0-1-.24,1.43,1.43,0,0,0-.8.2A1.44,1.44,0,0,0,515.48,7.46ZM518.05,9q-.37.12-1.17.3a3.36,3.36,0,0,0-1,.33.79.79,0,0,0-.38.67,1,1,0,0,0,.3.7,1.06,1.06,0,0,0,.77.29,1.62,1.62,0,0,0,1-.34,1.13,1.13,0,0,0,.46-.63,3.8,3.8,0,0,0,.08-.94Z"/><path class="cls-2" d="M528.13,7.39l-1.89.34a1.41,1.41,0,0,0-.43-.85,1.33,1.33,0,0,0-.88-.29,1.42,1.42,0,0,0-1.14.5,2.47,2.47,0,0,0-.43,1.65,3,3,0,0,0,.43,1.82,1.44,1.44,0,0,0,1.17.53,1.27,1.27,0,0,0,.89-.31,1.85,1.85,0,0,0,.49-1.07l1.88.32a3.32,3.32,0,0,1-1.12,2,3.5,3.5,0,0,1-2.23.66,3.3,3.3,0,0,1-2.53-1,3.89,3.89,0,0,1-1-2.78,3.91,3.91,0,0,1,1-2.79,3.39,3.39,0,0,1,2.56-1,3.52,3.52,0,0,1,2.11.57A3.17,3.17,0,0,1,528.13,7.39Z"/><path class="cls-2" d="M532.9,5.25V6.78h-1.31V9.69a6.49,6.49,0,0,0,0,1,.43.43,0,0,0,.17.24.55.55,0,0,0,.32.09,2.47,2.47,0,0,0,.77-.18l.16,1.48a3.6,3.6,0,0,1-1.51.29,2.52,2.52,0,0,1-.93-.17A1.41,1.41,0,0,1,530,12a1.78,1.78,0,0,1-.27-.75,9.44,9.44,0,0,1-.06-1.35V6.78h-.88V5.25h.88V3.81l1.92-1.12V5.25Z"/><path class="cls-7" d="M538.42,10.18l1.91.32a3.19,3.19,0,0,1-1.16,1.6,3.41,3.41,0,0,1-2,.55,3.26,3.26,0,0,1-2.8-1.23,4.2,4.2,0,0,1-.71-2.5,4,4,0,0,1,.94-2.82,3.1,3.1,0,0,1,2.38-1,3.21,3.21,0,0,1,2.55,1.07,4.72,4.72,0,0,1,.89,3.27h-4.8a2,2,0,0,0,.47,1.33,1.45,1.45,0,0,0,1.1.47A1.16,1.16,0,0,0,538,11,1.47,1.47,0,0,0,538.42,10.18Zm.11-1.93A1.9,1.9,0,0,0,538.1,7a1.38,1.38,0,0,0-2,0,1.73,1.73,0,0,0-.4,1.24Z"/><path class="cls-8" d="M543.83,12.49h-1.92V5.25h1.78v1a3,3,0,0,1,.82-1,1.47,1.47,0,0,1,.83-.24,2.42,2.42,0,0,1,1.26.37L546,7.12a1.73,1.73,0,0,0-.9-.32,1.14,1.14,0,0,0-.69.22,1.54,1.54,0,0,0-.43.8,11.23,11.23,0,0,0-.16,2.43Z"/><path class="cls-2" d="M546.75,10.42l1.92-.29a1.43,1.43,0,0,0,.5.85,1.7,1.7,0,0,0,1.05.29,1.85,1.85,0,0,0,1.12-.28.61.61,0,0,0,.25-.51.48.48,0,0,0-.14-.36,1.55,1.55,0,0,0-.64-.25,10.57,10.57,0,0,1-2.94-.93A1.87,1.87,0,0,1,547,7.31a2,2,0,0,1,.74-1.58,3.43,3.43,0,0,1,2.3-.65,4,4,0,0,1,2.21.49,2.52,2.52,0,0,1,1,1.43l-1.81.33a1.1,1.1,0,0,0-.44-.64,1.58,1.58,0,0,0-.92-.23,2.11,2.11,0,0,0-1.09.21.46.46,0,0,0-.21.39.42.42,0,0,0,.19.35,6.78,6.78,0,0,0,1.79.54,5.25,5.25,0,0,1,2.13.85,1.77,1.77,0,0,1,.6,1.42,2.21,2.21,0,0,1-.83,1.72,3.72,3.72,0,0,1-2.46.71,4,4,0,0,1-2.34-.6A2.75,2.75,0,0,1,546.75,10.42Z"/><path class="cls-2" d="M555.14,10.57h1.92v1.37a4.52,4.52,0,0,1-.15,1.31,1.88,1.88,0,0,1-.54.87,3,3,0,0,1-1,.6l-.38-.8a1.57,1.57,0,0,0,.83-.52,1.61,1.61,0,0,0,.26-.91h-.93Z"/><path class="cls-2" d="M564.38,7.46l-1.74-.32a2.67,2.67,0,0,1,1-1.55,3.64,3.64,0,0,1,2.12-.51,4.57,4.57,0,0,1,1.91.31,1.91,1.91,0,0,1,.89.77,4,4,0,0,1,.25,1.71l0,2.24a8.07,8.07,0,0,0,.09,1.41,4.6,4.6,0,0,0,.35,1h-1.9q-.08-.2-.18-.57c0-.11-.06-.19-.07-.22a3.48,3.48,0,0,1-1.05.71,3,3,0,0,1-1.19.24,2.46,2.46,0,0,1-1.77-.61,2,2,0,0,1-.64-1.53,2.09,2.09,0,0,1,.29-1.09,1.93,1.93,0,0,1,.83-.74,6.53,6.53,0,0,1,1.52-.45,9.61,9.61,0,0,0,1.86-.47V7.57a1,1,0,0,0-.27-.78,1.64,1.64,0,0,0-1-.24,1.41,1.41,0,0,0-.8.2A1.44,1.44,0,0,0,564.38,7.46ZM566.94,9c-.25.08-.63.18-1.17.3a3.46,3.46,0,0,0-1,.33.78.78,0,0,0-.37.67,1,1,0,0,0,.3.7,1.06,1.06,0,0,0,.76.29,1.67,1.67,0,0,0,1-.34,1.16,1.16,0,0,0,.45-.63,3.35,3.35,0,0,0,.08-.94Z"/><path class="cls-2" d="M577.3,12.49h-1.92V8.79a5.78,5.78,0,0,0-.12-1.51,1.17,1.17,0,0,0-.4-.54,1.15,1.15,0,0,0-.67-.19,1.53,1.53,0,0,0-.89.27,1.41,1.41,0,0,0-.54.73,6.07,6.07,0,0,0-.15,1.66v3.28H570.7V5.25h1.77V6.31a3,3,0,0,1,3.55-1,2,2,0,0,1,.79.59,2,2,0,0,1,.38.8A6,6,0,0,1,577.3,8Z"/><path class="cls-2" d="M585.88,12.49H584.1V11.42a2.88,2.88,0,0,1-1.05.93,2.71,2.71,0,0,1-3.35-.71,4.07,4.07,0,0,1-.89-2.8,4.08,4.08,0,0,1,.86-2.8,2.83,2.83,0,0,1,2.19-1,2.72,2.72,0,0,1,2.1,1V2.5h1.92Zm-5.12-3.78a3.39,3.39,0,0,0,.32,1.68,1.46,1.46,0,0,0,1.3.75,1.42,1.42,0,0,0,1.12-.56A2.61,2.61,0,0,0,584,8.9a2.83,2.83,0,0,0-.45-1.8,1.42,1.42,0,0,0-1.15-.55,1.45,1.45,0,0,0-1.15.54A2.48,2.48,0,0,0,580.76,8.71Z"/><path class="cls-2" d="M591.14,9.24l2-.19a2.44,2.44,0,0,0,.72,1.45,2.17,2.17,0,0,0,1.46.46,2.28,2.28,0,0,0,1.47-.41,1.24,1.24,0,0,0,.49-1A.91.91,0,0,0,597,9a1.5,1.5,0,0,0-.72-.43c-.24-.09-.77-.23-1.62-.44a5.45,5.45,0,0,1-2.27-1,2.63,2.63,0,0,1-.49-3.44,2.69,2.69,0,0,1,1.25-1,5,5,0,0,1,2-.35,4.24,4.24,0,0,1,2.84.83,3,3,0,0,1,1,2.2l-2,.09a1.75,1.75,0,0,0-.56-1.11A2.06,2.06,0,0,0,595.13,4a2.3,2.3,0,0,0-1.37.35.73.73,0,0,0-.32.62.77.77,0,0,0,.3.61,5.07,5.07,0,0,0,1.85.67,9.61,9.61,0,0,1,2.18.72,2.83,2.83,0,0,1,1.1,1,3,3,0,0,1,.4,1.6,2.94,2.94,0,0,1-.48,1.61,2.91,2.91,0,0,1-1.35,1.11,5.69,5.69,0,0,1-2.17.36,4.36,4.36,0,0,1-2.91-.87A3.86,3.86,0,0,1,591.14,9.24Z"/><path class="cls-2" d="M605.15,10.18l1.91.32a3.14,3.14,0,0,1-1.17,1.6,3.37,3.37,0,0,1-2,.55,3.25,3.25,0,0,1-2.8-1.23,4.13,4.13,0,0,1-.71-2.5,4,4,0,0,1,.94-2.82,3.09,3.09,0,0,1,2.38-1,3.24,3.24,0,0,1,2.55,1.07,4.77,4.77,0,0,1,.89,3.27h-4.8a2,2,0,0,0,.46,1.33,1.49,1.49,0,0,0,1.11.47,1.11,1.11,0,0,0,.75-.25A1.48,1.48,0,0,0,605.15,10.18Zm.1-1.93A1.84,1.84,0,0,0,604.83,7a1.33,1.33,0,0,0-1-.43,1.3,1.3,0,0,0-1,.46,1.74,1.74,0,0,0-.41,1.24Z"/><path class="cls-2" d="M615.3,12.49h-1.91V8.79a5.22,5.22,0,0,0-.13-1.51,1.08,1.08,0,0,0-.39-.54,1.15,1.15,0,0,0-.67-.19,1.53,1.53,0,0,0-.89.27,1.36,1.36,0,0,0-.54.73,6.07,6.07,0,0,0-.15,1.66v3.28H608.7V5.25h1.78V6.31a3,3,0,0,1,3.55-1,2,2,0,0,1,.79.59,2,2,0,0,1,.38.8A6.09,6.09,0,0,1,615.3,8Z"/><path class="cls-2" d="M620.57,5.25V6.78h-1.31V9.69a9.27,9.27,0,0,0,0,1,.56.56,0,0,0,.17.24.58.58,0,0,0,.33.09,2.53,2.53,0,0,0,.77-.18l.16,1.48a3.63,3.63,0,0,1-1.51.29,2.45,2.45,0,0,1-.93-.17,1.35,1.35,0,0,1-.61-.45,1.78,1.78,0,0,1-.27-.75,9,9,0,0,1-.07-1.35V6.78h-.87V5.25h.87V3.81l1.93-1.12V5.25Z"/><path class="cls-2" d="M626.09,10.18l1.91.32a3.14,3.14,0,0,1-1.17,1.6,3.37,3.37,0,0,1-2,.55,3.26,3.26,0,0,1-2.8-1.23,4.13,4.13,0,0,1-.71-2.5,4,4,0,0,1,.94-2.82,3.1,3.1,0,0,1,2.38-1,3.24,3.24,0,0,1,2.55,1.07,4.72,4.72,0,0,1,.89,3.27h-4.8a2,2,0,0,0,.46,1.33,1.49,1.49,0,0,0,1.11.47,1.11,1.11,0,0,0,.75-.25A1.48,1.48,0,0,0,626.09,10.18Zm.11-1.93A1.9,1.9,0,0,0,625.77,7a1.33,1.33,0,0,0-1-.43,1.3,1.3,0,0,0-1,.46,1.74,1.74,0,0,0-.41,1.24Z"/><path class="cls-2" d="M636.24,12.49h-1.91V8.79a5.78,5.78,0,0,0-.12-1.51,1.1,1.1,0,0,0-.4-.54,1.15,1.15,0,0,0-.67-.19,1.53,1.53,0,0,0-.89.27,1.41,1.41,0,0,0-.54.73,6.07,6.07,0,0,0-.15,1.66v3.28h-1.92V5.25h1.78V6.31a3,3,0,0,1,3.55-1,2,2,0,0,1,.79.59,2,2,0,0,1,.38.8,6.09,6.09,0,0,1,.1,1.29Z"/><path class="cls-2" d="M644.5,7.39l-1.89.34a1.36,1.36,0,0,0-.43-.85,1.33,1.33,0,0,0-.88-.29,1.42,1.42,0,0,0-1.14.5,2.53,2.53,0,0,0-.43,1.65,2.92,2.92,0,0,0,.44,1.82,1.43,1.43,0,0,0,1.16.53,1.27,1.27,0,0,0,.89-.31,1.85,1.85,0,0,0,.49-1.07l1.89.32a3.38,3.38,0,0,1-1.13,2,3.48,3.48,0,0,1-2.23.66,3.3,3.3,0,0,1-2.53-1,3.89,3.89,0,0,1-1-2.78,3.91,3.91,0,0,1,1-2.79,3.4,3.4,0,0,1,2.57-1,3.49,3.49,0,0,1,2.1.57A3.17,3.17,0,0,1,644.5,7.39Z"/><path class="cls-2" d="M650.14,10.18l1.91.32a3.07,3.07,0,0,1-1.16,1.6,3.38,3.38,0,0,1-2,.55,3.23,3.23,0,0,1-2.79-1.23,4.13,4.13,0,0,1-.72-2.5,4,4,0,0,1,.94-2.82,3.1,3.1,0,0,1,2.38-1,3.21,3.21,0,0,1,2.55,1.07,4.72,4.72,0,0,1,.89,3.27h-4.79a1.91,1.91,0,0,0,.46,1.33,1.45,1.45,0,0,0,1.1.47,1.14,1.14,0,0,0,.76-.25A1.47,1.47,0,0,0,650.14,10.18Zm.11-1.93A1.85,1.85,0,0,0,649.82,7a1.3,1.3,0,0,0-1-.43,1.33,1.33,0,0,0-1,.46,1.73,1.73,0,0,0-.4,1.24Z"/><path class="cls-2" d="M653,10.42l1.92-.29a1.43,1.43,0,0,0,.5.85,1.7,1.7,0,0,0,1,.29,1.85,1.85,0,0,0,1.12-.28.61.61,0,0,0,.25-.51.52.52,0,0,0-.14-.36,1.55,1.55,0,0,0-.64-.25,10.57,10.57,0,0,1-2.94-.93,1.87,1.87,0,0,1-.85-1.63,2,2,0,0,1,.74-1.58,3.43,3.43,0,0,1,2.3-.65,4,4,0,0,1,2.21.49,2.47,2.47,0,0,1,1,1.43l-1.81.33a1.15,1.15,0,0,0-.44-.64,1.6,1.6,0,0,0-.92-.23,2.11,2.11,0,0,0-1.09.21.47.47,0,0,0-.22.39.45.45,0,0,0,.19.35,7.07,7.07,0,0,0,1.8.54,5.19,5.19,0,0,1,2.13.85,1.77,1.77,0,0,1,.6,1.42,2.18,2.18,0,0,1-.83,1.72,3.72,3.72,0,0,1-2.46.71,4,4,0,0,1-2.34-.6A2.75,2.75,0,0,1,653,10.42Z"/><path class="cls-9" d="M50.1,19l.28-1q3.33-11.76,4.83-15.3a7.83,7.83,0,0,1,.41-.76,3.14,3.14,0,0,1,.38-.5A3.79,3.79,0,0,1,56.58,1,4.63,4.63,0,0,1,59.2.3c.56,0,.91.07,1,.22a1.49,1.49,0,0,1,.22,1c0,.4,0,.82,0,1.28-.08,2.65-.12,4.53-.12,5.65q0,4.23.35,8c.15,1.42.37,2.85.67,4.3a20.16,20.16,0,0,0,.9,3,11.46,11.46,0,0,0,.85,1.68,2.34,2.34,0,0,1,.43,1.08,3.88,3.88,0,0,1-.74,1.85c-.82,1.27-1.64,1.9-2.46,1.9q-1.74,0-3.15-2.37A10.36,10.36,0,0,1,56,25.33a19.19,19.19,0,0,1-.63-3.48c-.14-1.37-.23-3.12-.28-5.25-.07-2.3-.1-3.6-.11-3.89H55c-.58,1.78-1.07,3.27-1.47,4.46s-.71,2.18-.95,3-.54,1.71-.88,2.8c-1.06,3.48-1.75,5.57-2.08,6.3l-.11.19-.15.25a2,2,0,0,1-.54.54,1,1,0,0,1-.51.19c-.39,0-.83-.39-1.3-1.16a12.31,12.31,0,0,1-1.23-3,36.88,36.88,0,0,1-.89-3.94c-.22-1.33-.42-2.91-.59-4.74s-.32-4.07-.45-6.71h0L43.12,13l-.64,2.23c-.29,1-.45,1.59-.5,1.75q-.57,2-1.2,4c-.41,1.36-.75,2.4-1,3.13s-.53,1.47-.84,2.18a14,14,0,0,1-.73,1.44,7.27,7.27,0,0,1-1.8,1.92,3.17,3.17,0,0,1-1.85.7.76.76,0,0,1-.58-.27.92.92,0,0,1-.25-.68,2.07,2.07,0,0,1,.37-1c.14-.27.44-.94.9-2l.81-2q.75-1.77,2.26-6.33l.67-2Q41.07,9,41.88,6.43a19,19,0,0,0,.82-3,1.87,1.87,0,0,0-.41-1A1.23,1.23,0,0,1,42,1.64c0-.32.27-.63.8-.91A3.67,3.67,0,0,1,44.53.3a2.93,2.93,0,0,1,2.72,1.34,11.29,11.29,0,0,1,.93,3.3c.29,1.63.57,4,.86,7.14,0,.17,0,.31,0,.41s0,.18,0,.25a2.19,2.19,0,0,1,0,.29c0,.41.08.68.08.82.19,1.9.34,3.12.44,3.68A6,6,0,0,0,50.1,19Z"/><path class="cls-4" d="M69.18,5.16l.19-.78a2.17,2.17,0,0,0-.77.13,5.3,5.3,0,0,0-.75.38,1.81,1.81,0,0,1-.72.31.44.44,0,0,1-.38-.28,1.41,1.41,0,0,1-.16-.71A4.08,4.08,0,0,1,67,2.45a2.83,2.83,0,0,1,1.08-1.29A7.2,7.2,0,0,1,70.26.32,11.22,11.22,0,0,1,72.87,0a9.58,9.58,0,0,1,2.62.33,5.81,5.81,0,0,1,2.07,1.06A7.57,7.57,0,0,1,79.15,3.2a9.07,9.07,0,0,1,1,2.51,12.55,12.55,0,0,1,.37,3.05A16.18,16.18,0,0,1,80.19,12a22.32,22.32,0,0,1-1,3.53,15,15,0,0,1-1.45,2.92,8.43,8.43,0,0,1-2.3,2.35,4.59,4.59,0,0,1-2.54,1A1.43,1.43,0,0,1,72,21.5a.8.8,0,0,1-.37-.67,2.5,2.5,0,0,1,.29-1.17A6.56,6.56,0,0,1,73,18.33a9.36,9.36,0,0,0,1.27-1.48,10.15,10.15,0,0,0,1-2.59A14.14,14.14,0,0,0,75.66,11a10.92,10.92,0,0,0-.38-3.08,6,6,0,0,0-1.23-2.25l-1.94,9.82-.35,1.73c-.15.68-.36,1.84-.61,3.49a37.46,37.46,0,0,1-1.29,5.93,9.42,9.42,0,0,1-.68,1.44,6.78,6.78,0,0,1-1.7,1.63,3.35,3.35,0,0,1-1.76.7.87.87,0,0,1-.77-.46,2.36,2.36,0,0,1-.29-1.27A18.05,18.05,0,0,1,65,26c.19-1.17.58-3.25,1.17-6.26l.26-1.24.26-1.35Z"/><path class="cls-5" d="M90.06,6.56a22.7,22.7,0,0,0-1.41,2.49,20.14,20.14,0,0,0-.94,2.79,17.32,17.32,0,0,0-.55,2.78A21.63,21.63,0,0,0,87,18a27.65,27.65,0,0,0,.35,4.79,7.45,7.45,0,0,0,1,2.89,2,2,0,0,0,1.65,1,2.25,2.25,0,0,0,1.6-.91,9.2,9.2,0,0,0,1.48-2.36,17.18,17.18,0,0,0,1.07-3.27,15.83,15.83,0,0,0,.4-3.48,17,17,0,0,0-1.3-6.29,6.56,6.56,0,0,1-.48-1.81,3.18,3.18,0,0,1,.62-1.8A10,10,0,0,1,95,4.77a2.59,2.59,0,0,1,1.44-.83,1.22,1.22,0,0,1,.65.23,1.66,1.66,0,0,1,.51.58,8,8,0,0,1,.74,2.68,28.58,28.58,0,0,1,.29,4.13,32.9,32.9,0,0,1-1.34,9.6,18.33,18.33,0,0,1-3.65,7,6.65,6.65,0,0,1-5,2.56,5.94,5.94,0,0,1-3.06-.9,7.33,7.33,0,0,1-2.47-2.42,12.34,12.34,0,0,1-1.59-6.64,23.5,23.5,0,0,1,.58-5,32.16,32.16,0,0,1,1.61-5.19A27.82,27.82,0,0,1,86.1,5.88a14.63,14.63,0,0,1,2.77-3.31A11.4,11.4,0,0,1,91.66.81,6.62,6.62,0,0,1,94.28.15c1.06,0,1.59.26,1.59.79a2.37,2.37,0,0,1-.34,1,6.34,6.34,0,0,1-1.07,1.32A6.75,6.75,0,0,1,93,4.09a7.57,7.57,0,0,0-1.62,1A8.75,8.75,0,0,0,90.06,6.56Z"/><path class="cls-6" d="M109.82,17.39h-.06q-1.08,3.32-2.23,6.08a39.67,39.67,0,0,1-2.34,4.83,5.5,5.5,0,0,1-1.28,1.36,2.36,2.36,0,0,1-1.33.59.78.78,0,0,1-.37-.15,1.1,1.1,0,0,1-.37-.4c-.47-.81-.85-2.9-1.14-6.25s-.43-7.43-.43-12.22a35.14,35.14,0,0,1,.54-7.76,3.85,3.85,0,0,1,.64-1.35,4.88,4.88,0,0,1,1.25-1,9.34,9.34,0,0,1,1.51-.77A3.43,3.43,0,0,1,105.43,0a.72.72,0,0,1,.62.31,1.37,1.37,0,0,1,.24.86,6,6,0,0,1-.06.6q-.32,2.06-.57,5.8-.19,2.48-.27,4c0,1-.1,2.45-.14,4.23s-.07,3.55-.08,5.29l.06.09c.42-.86.87-1.88,1.34-3.08.17-.44.34-.85.49-1.23s.34-.83.52-1.35c.43-1.21.82-2.39,1.15-3.53q.26-.79.45-1.62c1.41-4.92,2.39-7.77,3-8.55a3.82,3.82,0,0,1,1.44-1A4.45,4.45,0,0,1,115.46.3a1.15,1.15,0,0,1,.88.39,1.47,1.47,0,0,1,.35,1,13.83,13.83,0,0,1-.38,2.3q-.72,3.35-1.17,7.3a61.23,61.23,0,0,0-.46,7.06c0,4.2.52,6.3,1.54,6.3.3,0,.6-.35.9-1.06a13.64,13.64,0,0,0,.78-2.7,37.72,37.72,0,0,0,.54-3.82,43.5,43.5,0,0,0,.22-4.48c0-.91,0-2-.08-3.25,0-.34,0-.66,0-.95a8.73,8.73,0,0,1,1.68-4.92c.55-.84,1-1.26,1.22-1.26q1,0,1,5.74a53,53,0,0,1-.55,7.81,36.66,36.66,0,0,1-1.93,7.62,23.11,23.11,0,0,1-1.52,3.27,13.74,13.74,0,0,1-1.75,2.51,3.16,3.16,0,0,1-2.33,1.22q-2.3,0-3.4-2.81t-1.11-8.7Z"/><path class="cls-7" d="M135,20.48l-5.07,0V21a7,7,0,0,0,.58,2.9c.38.87.82,1.3,1.29,1.3a4.56,4.56,0,0,0,2.08-.84A22.47,22.47,0,0,0,137,21.94l.48-.46a7.2,7.2,0,0,0,.68-.67c.55-.54.89-.82,1-.82s.25.24.25.73a10.52,10.52,0,0,1-.18,1.81,19.81,19.81,0,0,1-.46,1.95,5,5,0,0,1-.56,1.33,10.83,10.83,0,0,1-2.71,2.44,18,18,0,0,1-3.9,2.08,4.1,4.1,0,0,1-1.22.22,5.52,5.52,0,0,1-3.48-1.23A7.9,7.9,0,0,1,124.46,26a12.58,12.58,0,0,1-.87-4.77,22.51,22.51,0,0,1,.57-4.77,33.35,33.35,0,0,1,1.6-5.2,31.31,31.31,0,0,1,2.33-4.71,21.44,21.44,0,0,1,2.52-3.37A13.65,13.65,0,0,1,133.32.82,4.65,4.65,0,0,1,135.74,0a3.69,3.69,0,0,1,3,1.55,5.78,5.78,0,0,1,1.24,3.75,11,11,0,0,1-.23,2.11,9.66,9.66,0,0,1-.6,2,7,7,0,0,1-1.16,1.8,8.41,8.41,0,0,1-1.74,1.52,3.94,3.94,0,0,1-2,.72c-.55,0-.82-.21-.82-.63a2.65,2.65,0,0,1,.47-1.17,8.55,8.55,0,0,0,1-1.93,22.18,22.18,0,0,0,.8-3.05A15.91,15.91,0,0,0,136,3.93c0-.54-.1-.81-.31-.81s-.91.57-1.75,1.71a17.57,17.57,0,0,0-2,3.36,22.83,22.83,0,0,0-1.14,3.15,18.17,18.17,0,0,0-.6,3.15h7.4c.82,0,1.22.34,1.22,1a6.94,6.94,0,0,1-1.36,3C136.56,19.83,135.73,20.48,135,20.48Z"/><path class="cls-8" d="M145.17,6.92l.38-1.49a6.13,6.13,0,0,0-.88.2,2.61,2.61,0,0,1-.77.09c-.46,0-.69-.35-.69-1.07a4,4,0,0,1,.17-1.09,3.46,3.46,0,0,1,.4-1,3.59,3.59,0,0,1,2-1.18A12.78,12.78,0,0,1,149.45,1a7,7,0,0,1,3.05.68A7.5,7.5,0,0,1,155,3.53a8.74,8.74,0,0,1,1.65,2.76,9.49,9.49,0,0,1,.59,3.38,12.51,12.51,0,0,1-.51,3.64,9.39,9.39,0,0,1-1.45,2.94,7.22,7.22,0,0,1-1.17,1.28,8.06,8.06,0,0,1-1.55.93,11.69,11.69,0,0,0,.46,1.19c.14.28.36.67.67,1.16a12.06,12.06,0,0,0,3.57,3.24,2.27,2.27,0,0,0,.28.18,26.06,26.06,0,0,1-.47,2.72,11.45,11.45,0,0,1-.69,1.87q-.87,1.8-2.07,1.8a2.89,2.89,0,0,1-1.64-.78,6.85,6.85,0,0,1-1.6-1.84,18.9,18.9,0,0,1-.89-1.92c-.28-.67-.55-1.44-.83-2.3s-.51-1.7-.71-2.51-.35-1.53-.44-2.15a3.56,3.56,0,0,1,0-.51,1.26,1.26,0,0,1,.17-.72,1.42,1.42,0,0,1,.62-.49,4.1,4.1,0,0,0,1-.78,11.54,11.54,0,0,0,1-1.33,10.85,10.85,0,0,0,1.11-2.83,13.45,13.45,0,0,0,.4-3.28,6.71,6.71,0,0,0-.57-3,3.2,3.2,0,0,0-1.82-1.53q-1.22,6.9-2.41,13l-.3,1.68q-.74,4-1.23,5.91a10.29,10.29,0,0,1-1,2.72,5.88,5.88,0,0,1-1.51,1.54,3.18,3.18,0,0,1-1.62.75c-.76,0-1.14-.69-1.14-2.08a21.6,21.6,0,0,1,.31-2.9q.32-2,1-5.34c.44-2.19.89-4.34,1.37-6.44S144.62,9.14,145.17,6.92Z"/><path class="cls-10" d="M9.28,4.45l-.94,0c-2.92,0-4.7.32-4.7,4.81C3.64,12.72,5.45,14,10.3,14H31.58a8.39,8.39,0,0,1-.84-1.34H8.36V11.59h22A7.72,7.72,0,0,1,30,10H8.36V8.9H30a7.42,7.42,0,0,1,.27-1.76H8.36V6.06H30.61a7.45,7.45,0,0,1,1-1.61H9.28Z"/><path class="cls-11" d="M31.58,14H10.3c-4.85,0-6.66-1.29-6.66-4.77,0-4.49,1.78-4.81,4.7-4.81l.94,0H31.57l.24-.3V3.33h-29V15.51h29V14.3Z"/><path class="cls-11" d="M31.81,14h-.23l.23.29Z"/><path class="cls-11" d="M31.81,4.45v-.3l-.24.3Z"/><path class="cls-10" d="M9.28,18H8.34c-2.92,0-4.7.32-4.7,4.8,0,3.49,1.81,4.78,6.66,4.78H31.58a8,8,0,0,1-1-1.69H8.36V24.82H30.2a7.63,7.63,0,0,1-.25-1.6H8.36V22.13H30a7.86,7.86,0,0,1,.36-1.76h-22V19.29H30.78A7.42,7.42,0,0,1,31.57,18H9.28Z"/><path class="cls-11" d="M31.81,27.87l-.23-.28H10.3c-4.85,0-6.66-1.29-6.66-4.78,0-4.48,1.78-4.8,4.7-4.8H31.57l.24-.3V16.9h-29V29.09h29Z"/><path class="cls-11" d="M31.81,27.59h-.23l.23.28Z"/><path class="cls-11" d="M31.81,18v-.3l-.24.3Z"/><path class="cls-12" d="M8.36,12.67H30.74a6.75,6.75,0,0,1-.43-1.08H8.36Z"/><path class="cls-12" d="M8.36,10H30c0-.25,0-.51,0-.76s0-.22,0-.33H8.36Z"/><path class="cls-12" d="M8.36,7.14H30.22a7,7,0,0,1,.39-1.08H8.36Z"/><path class="cls-12" d="M8.36,25.9H30.58a8.13,8.13,0,0,1-.38-1.08H8.36Z"/><path class="cls-12" d="M8.36,23.22H30c0-.14,0-.28,0-.42s0-.45,0-.67H8.36Z"/><path class="cls-12" d="M8.36,20.37h22a8.54,8.54,0,0,1,.46-1.08H8.36Z"/><path class="cls-1" d="M9.56.77h-1C6.23.76,0,.76,0,9.43c0,5.74,3.54,8.65,10.53,8.65H33V14.21H10.53c-4.85,0-6.67-1.3-6.67-4.78,0-4.48,1.78-4.8,4.71-4.8H33V.79H10.42l-.86,0"/><path class="cls-1" d="M9.56,14.15h-1c-2.34,0-8.57,0-8.57,8.67,0,5.74,3.54,8.65,10.53,8.65H33V27.58H10.53c-4.85,0-6.67-1.29-6.67-4.77C3.86,18.33,5.64,18,8.57,18l.93,0H33V14.16H9.56"/><text class="cls-13" transform="translate(170.99 31.24)">中文字词句教学平台</text></g></g></svg>