<?xml version="1.0" encoding="utf-8"?>
<!-- Generator: Adobe Illustrator 25.4.1, SVG Export Plug-In . SVG Version: 6.00 Build 0)  -->
<svg version="1.1" id="圖層_1" xmlns="http://www.w3.org/2000/svg" xmlns:xlink="http://www.w3.org/1999/xlink" x="0px" y="0px"
	 viewBox="0 0 237.5 60.3" style="enable-background:new 0 0 237.5 60.3;" xml:space="preserve">
<style type="text/css">
	.st0{fill:#0068B7;}
	.st1{fill:#231815;}
	.st2{fill:#009DE6;}
	.st3{fill:#00A73C;}
	.st4{fill:#F8BC00;}
	.st5{fill:#AB66A7;}
	.st6{fill:#DB610D;}
	.st7{fill:#F29A76;}
	.st8{fill:#00AFEC;}
	.st9{fill:#E6E6E6;}
	.st10{fill:#CCCCCC;}
	.st11{fill:#515958;}
</style>
<g>
	<path class="st0" d="M7.3,57.2H5c0,0,0,0.1,0,0.1c0,0.2,0.1,0.5,0.2,0.7c0.1,0.2,0.3,0.3,0.5,0.3c0.3,0,0.6-0.2,0.7-0.6l0.8,0.2
		c-0.1,0.4-0.4,0.7-0.7,0.9C6.3,58.9,6,59,5.7,59c-0.4,0-0.9-0.2-1.1-0.5C4.2,58.1,4,57.6,4,57.1c0-0.5,0.1-1.1,0.4-1.5
		c0.3-0.6,0.9-0.9,1.6-0.9c0.4,0,0.8,0.2,1,0.5c0.3,0.4,0.4,0.9,0.4,1.3C7.4,56.7,7.3,56.9,7.3,57.2z M6.5,56.5v-0.1
		c0-0.2,0-0.5-0.2-0.7c-0.1-0.2-0.3-0.2-0.5-0.2c-0.2,0-0.4,0.1-0.5,0.3c-0.2,0.2-0.3,0.5-0.3,0.8H6.5z"/>
	<path class="st1" d="M7.8,57.7v-0.9h1.8v0.9H7.8z"/>
	<path class="st1" d="M10.1,58.9v-4.7h1v3.9h2.3v0.8H10.1z"/>
	<path class="st1" d="M16.1,57.8L17,58c-0.1,0.3-0.3,0.6-0.5,0.8c-0.3,0.2-0.6,0.3-0.9,0.3c-0.5,0-1-0.2-1.3-0.6
		c-0.5-0.8-0.4-1.8,0.1-2.5c0.3-0.3,0.7-0.5,1.1-0.5c0.5,0,0.9,0.2,1.2,0.5c0.3,0.4,0.4,1,0.4,1.5h-2.2c0,0.2,0.1,0.4,0.2,0.6
		c0.1,0.1,0.3,0.2,0.5,0.2c0.1,0,0.3,0,0.4-0.1C15.9,58.1,16,58,16.1,57.8z M16.1,56.9c0-0.2-0.1-0.4-0.2-0.6
		c-0.1-0.1-0.3-0.2-0.5-0.2c-0.2,0-0.4,0.1-0.5,0.2c-0.1,0.2-0.2,0.4-0.2,0.6L16.1,56.9z"/>
	<path class="st1" d="M18.4,56.6l-0.8-0.2c0.1-0.3,0.2-0.5,0.5-0.7c0.3-0.2,0.7-0.3,1-0.2c0.3,0,0.6,0,0.9,0.1
		c0.2,0.1,0.3,0.2,0.4,0.4c0.1,0.3,0.1,0.5,0.1,0.8v1c0,0.2,0,0.4,0,0.7c0,0.2,0.1,0.3,0.2,0.5h-0.9c0-0.1,0-0.2-0.1-0.3v-0.1
		c-0.1,0.1-0.3,0.3-0.5,0.3c-0.2,0.1-0.4,0.1-0.6,0.1c-0.3,0-0.6-0.1-0.8-0.3c-0.2-0.2-0.3-0.4-0.3-0.7c0-0.2,0-0.4,0.1-0.5
		c0.1-0.2,0.2-0.3,0.4-0.3c0.2-0.1,0.5-0.2,0.7-0.2c0.3,0,0.6-0.1,0.9-0.2v-0.1c0-0.1,0-0.3-0.1-0.4c-0.1-0.1-0.3-0.1-0.5-0.1
		C18.8,56.1,18.5,56.2,18.4,56.6L18.4,56.6z M19.6,57.3c-0.1,0-0.3,0.1-0.5,0.1c-0.2,0-0.3,0.1-0.5,0.2c-0.1,0.1-0.2,0.2-0.2,0.3
		c0,0.1,0.1,0.2,0.1,0.3c0.1,0.1,0.2,0.1,0.4,0.1c0.2,0,0.3-0.1,0.5-0.2c0.1-0.1,0.2-0.2,0.2-0.3c0-0.1,0-0.3,0-0.4L19.6,57.3z"/>
	<path class="st1" d="M22.2,58.9h-0.9v-3.4h0.8V56c0.1-0.2,0.2-0.3,0.4-0.5c0.1-0.1,0.3-0.1,0.4-0.1c0.2,0,0.4,0.1,0.6,0.2l-0.3,0.8
		c-0.1-0.1-0.3-0.1-0.4-0.2c-0.1,0-0.2,0-0.3,0.1c-0.1,0.1-0.2,0.2-0.2,0.4c-0.1,0.4-0.1,0.8-0.1,1.1V58.9z"/>
	<path class="st1" d="M27,58.9h-0.9v-1.7c0-0.2,0-0.5-0.1-0.7c0-0.1-0.1-0.2-0.2-0.2c-0.1-0.1-0.2-0.1-0.3-0.1c-0.1,0-0.3,0-0.4,0.1
		c-0.1,0.1-0.2,0.2-0.2,0.3c-0.1,0.3-0.1,0.5-0.1,0.8v1.5h-0.9v-3.4h0.8V56c0.3-0.4,0.7-0.6,1.1-0.6c0.2,0,0.4,0,0.5,0.1
		c0.1,0.1,0.3,0.2,0.4,0.3c0.1,0.1,0.1,0.2,0.2,0.4c0,0.2,0.1,0.4,0,0.6L27,58.9z"/>
	<path class="st1" d="M27.9,55.1v-0.8h0.9v0.8H27.9z M27.9,58.9v-3.4h0.9v3.4H27.9z"/>
	<path class="st1" d="M32.8,58.9H32v-1.7c0-0.2,0-0.5-0.1-0.7c0-0.1-0.1-0.2-0.2-0.2c-0.1-0.1-0.2-0.1-0.3-0.1c-0.1,0-0.3,0-0.4,0.1
		c-0.1,0.1-0.2,0.2-0.2,0.3c-0.1,0.3-0.1,0.5-0.1,0.8v1.5h-0.9v-3.4h0.8V56c0.3-0.4,0.7-0.6,1.1-0.6c0.2,0,0.4,0,0.5,0.1
		c0.1,0.1,0.3,0.2,0.4,0.3c0.1,0.1,0.2,0.2,0.2,0.4c0,0.2,0.1,0.4,0,0.6L32.8,58.9z"/>
	<path class="st1" d="M33.7,59.1l1,0.1c0,0.1,0,0.2,0.1,0.2c0.1,0.1,0.3,0.1,0.4,0.1c0.2,0,0.4,0,0.5-0.1c0.1-0.1,0.1-0.1,0.2-0.2
		c0-0.1,0-0.3,0-0.4v-0.5c-0.2,0.3-0.6,0.5-1,0.6c-0.4,0-0.9-0.2-1.1-0.6c-0.2-0.3-0.3-0.7-0.3-1.1c0-0.5,0.2-0.9,0.5-1.3
		c0.3-0.3,0.6-0.4,1-0.4c0.4,0,0.8,0.2,1,0.5v-0.5h0.8v3c0,0.3,0,0.6-0.1,0.9c-0.1,0.2-0.1,0.3-0.3,0.5c-0.1,0.1-0.3,0.2-0.5,0.3
		c-0.2,0.1-0.5,0.1-0.8,0.1c-0.4,0.1-0.9,0-1.2-0.2c-0.2-0.2-0.4-0.5-0.4-0.8L33.7,59.1z M34.5,57.1c0,0.3,0,0.6,0.2,0.8
		c0.1,0.2,0.3,0.3,0.5,0.3c0.2,0,0.4-0.1,0.6-0.3c0.2-0.2,0.2-0.5,0.2-0.8c0-0.3-0.1-0.6-0.2-0.8c-0.1-0.2-0.3-0.3-0.6-0.3
		c-0.2,0-0.4,0.1-0.5,0.2C34.5,56.6,34.5,56.9,34.5,57.1L34.5,57.1z"/>
	<path class="st1" d="M39.2,55.5h0.5v-0.2c0-0.2,0-0.4,0.1-0.6c0.1-0.2,0.2-0.3,0.3-0.3c0.2-0.1,0.4-0.1,0.6-0.1
		c0.3,0,0.5,0,0.8,0.1l-0.1,0.6c-0.1,0-0.3,0-0.4,0c-0.1,0-0.2,0-0.3,0.1c-0.1,0.1-0.1,0.2-0.1,0.3v0.2h0.7v0.7h-0.7V59h-0.9v-2.7
		h-0.5V55.5z"/>
	<path class="st1" d="M41.6,57.2c0-0.3,0.1-0.6,0.2-0.9c0.1-0.3,0.4-0.5,0.6-0.6c0.3-0.1,0.6-0.2,0.9-0.2c0.5,0,0.9,0.2,1.3,0.5
		c0.3,0.3,0.5,0.8,0.5,1.3c0,0.5-0.2,0.9-0.5,1.3c-0.3,0.3-0.8,0.5-1.2,0.5c-0.3,0-0.6-0.1-0.9-0.2c-0.3-0.1-0.5-0.3-0.7-0.6
		C41.6,57.9,41.6,57.5,41.6,57.2z M42.5,57.2c0,0.3,0.1,0.6,0.2,0.8c0.3,0.3,0.8,0.4,1.1,0.1c0,0,0.1,0,0.1-0.1
		c0.2-0.2,0.3-0.5,0.2-0.8c0-0.3-0.1-0.5-0.2-0.8c-0.3-0.3-0.8-0.4-1.1-0.1c0,0-0.1,0-0.1,0.1C42.5,56.6,42.4,56.9,42.5,57.2
		L42.5,57.2z"/>
	<path class="st1" d="M46.6,58.9h-0.9v-3.4h0.8V56c0.1-0.2,0.2-0.3,0.4-0.5c0.1-0.1,0.3-0.1,0.4-0.1c0.2,0,0.4,0.1,0.6,0.2l-0.3,0.8
		c-0.1-0.1-0.3-0.1-0.4-0.2c-0.1,0-0.2,0-0.3,0.1c-0.1,0.1-0.2,0.2-0.2,0.4c-0.1,0.4-0.1,0.8-0.1,1.1L46.6,58.9z"/>
	<path class="st2" d="M50.1,58.9v-4.7h1.4l0.8,3.2l0.8-3.2h1.4v4.7h-0.9v-3.7l-0.9,3.7H52l-1-3.7v3.7L50.1,58.9z"/>
	<path class="st1" d="M56.3,56.6l-0.8-0.2c0.1-0.3,0.2-0.6,0.5-0.7c0.3-0.2,0.7-0.3,1-0.2c0.3,0,0.6,0,0.9,0.1
		c0.2,0.1,0.3,0.2,0.4,0.4c0.1,0.3,0.1,0.5,0.1,0.8v1c0,0.2,0,0.4,0,0.7c0,0.2,0.1,0.3,0.2,0.5h-0.9l-0.1-0.3c0,0,0-0.1,0-0.1
		c-0.1,0.1-0.3,0.3-0.5,0.3c-0.2,0.1-0.4,0.1-0.6,0.1c-0.3,0-0.6-0.1-0.8-0.3c-0.2-0.2-0.3-0.4-0.3-0.7c0-0.2,0-0.4,0.1-0.5
		c0.1-0.2,0.2-0.3,0.4-0.3c0.2-0.1,0.5-0.2,0.7-0.2c0.3,0,0.6-0.1,0.9-0.2v-0.1c0-0.1,0-0.3-0.1-0.4c-0.1-0.1-0.3-0.1-0.5-0.1
		c-0.1,0-0.3,0-0.4,0.1C56.4,56.3,56.3,56.4,56.3,56.6z M57.5,57.3c-0.1,0-0.3,0.1-0.5,0.1c-0.2,0-0.3,0.1-0.5,0.2
		c-0.1,0.1-0.2,0.2-0.2,0.3c0,0.1,0,0.2,0.1,0.3c0.1,0.1,0.2,0.1,0.4,0.1c0.2,0,0.3-0.1,0.5-0.2c0.1-0.1,0.2-0.2,0.2-0.3
		c0-0.1,0-0.3,0-0.4L57.5,57.3z"/>
	<path class="st1" d="M62.3,58.9h-0.9v-1.7c0-0.2,0-0.5-0.1-0.7c0-0.1-0.1-0.2-0.2-0.2c-0.1-0.1-0.2-0.1-0.3-0.1
		c-0.1,0-0.3,0-0.4,0.1c-0.1,0.1-0.2,0.2-0.3,0.3c-0.1,0.3-0.1,0.5-0.1,0.8v1.5h-0.9v-3.4h0.8V56c0.3-0.4,0.7-0.6,1.1-0.6
		c0.2,0,0.4,0,0.5,0.1c0.2,0.1,0.3,0.2,0.4,0.3c0.1,0.1,0.1,0.2,0.2,0.4c0,0.2,0.1,0.4,0,0.6L62.3,58.9z"/>
	<path class="st1" d="M66.4,58.9h-0.8v-0.5c-0.1,0.2-0.3,0.3-0.5,0.4C64.9,59,64.7,59,64.5,59c-0.4,0-0.8-0.2-1-0.5
		c-0.6-0.8-0.6-1.8,0-2.6c0.3-0.3,0.6-0.4,1-0.4c0.4,0,0.8,0.2,1,0.5v-1.7h0.9V58.9z M64,57.2c0,0.3,0,0.5,0.2,0.8
		c0.1,0.2,0.4,0.4,0.6,0.3c0.2,0,0.4-0.1,0.5-0.3c0.2-0.2,0.2-0.5,0.2-0.8c0-0.3,0-0.6-0.2-0.8c-0.2-0.3-0.7-0.3-1-0.1
		c0,0-0.1,0.1-0.1,0.1C64.1,56.6,64,56.9,64,57.2z"/>
	<path class="st1" d="M67.9,56.6l-0.8-0.2c0.1-0.3,0.2-0.5,0.5-0.7c0.3-0.2,0.7-0.3,1-0.2c0.3,0,0.6,0,0.9,0.1
		c0.2,0.1,0.3,0.2,0.4,0.4c0.1,0.3,0.1,0.5,0.1,0.8v1c0,0.2,0,0.4,0,0.7c0,0.2,0.1,0.3,0.2,0.5h-0.9c0-0.1,0-0.2-0.1-0.3v-0.1
		c-0.1,0.1-0.3,0.3-0.5,0.3c-0.2,0.1-0.4,0.1-0.6,0.1c-0.3,0-0.6-0.1-0.8-0.3C67.1,58.5,67,58.3,67,58c0-0.2,0-0.4,0.1-0.5
		c0.1-0.2,0.2-0.3,0.4-0.3c0.2-0.1,0.5-0.2,0.7-0.2c0.3,0,0.6-0.1,0.9-0.2v-0.1c0-0.1,0-0.3-0.1-0.4c-0.1-0.1-0.3-0.1-0.5-0.1
		C68.2,56.1,68,56.3,67.9,56.6L67.9,56.6z M69.1,57.3c-0.1,0-0.3,0.1-0.5,0.1c-0.2,0-0.3,0.1-0.5,0.2c-0.1,0.1-0.2,0.2-0.2,0.3
		c0,0.1,0.1,0.2,0.1,0.3c0.1,0.1,0.2,0.1,0.4,0.1c0.2,0,0.3-0.1,0.5-0.2c0.1-0.1,0.2-0.2,0.2-0.3c0-0.1,0-0.3,0-0.4L69.1,57.3z"/>
	<path class="st1" d="M71.8,58.9h-0.9v-3.4h0.8V56c0.1-0.2,0.2-0.3,0.4-0.5c0.1-0.1,0.2-0.1,0.4-0.1c0.2,0,0.4,0.1,0.6,0.2l-0.3,0.8
		c-0.1-0.1-0.3-0.1-0.4-0.2c-0.1,0-0.2,0-0.3,0.1c-0.1,0.1-0.2,0.2-0.2,0.4c-0.1,0.4-0.1,0.8-0.1,1.1V58.9z"/>
	<path class="st1" d="M73.5,55.1v-0.8h0.9v0.8H73.5z M73.5,58.9v-3.4h0.9v3.4H73.5z"/>
	<path class="st1" d="M78.4,58.9h-0.9v-1.7c0-0.2,0-0.5-0.1-0.7c0-0.1-0.1-0.2-0.2-0.2c-0.1-0.1-0.2-0.1-0.3-0.1
		c-0.1,0-0.3,0-0.4,0.1c-0.1,0.1-0.2,0.2-0.2,0.3c-0.1,0.3-0.1,0.5-0.1,0.8v1.5h-0.9v-3.4h0.8V56c0.3-0.4,0.7-0.6,1.1-0.6
		c0.2,0,0.4,0,0.6,0.1c0.1,0.1,0.3,0.2,0.4,0.3c0.1,0.1,0.1,0.2,0.2,0.4c0,0.2,0.1,0.4,0.1,0.6L78.4,58.9z"/>
	<path class="st3" d="M81.1,58.9v-4.7h1.5c0.4,0,0.8,0,1.1,0.1c0.3,0.1,0.5,0.2,0.7,0.5c0.2,0.3,0.3,0.6,0.3,0.9
		c0,0.3,0,0.5-0.2,0.7c-0.1,0.2-0.2,0.3-0.4,0.5C84,57,83.8,57,83.6,57.1c-0.3,0.1-0.7,0.1-1,0.1H82v1.8L81.1,58.9z M82.1,55v1.3
		h0.5c0.3,0,0.5,0,0.8-0.1c0.1,0,0.2-0.1,0.3-0.2c0.1-0.1,0.1-0.2,0.1-0.4c0-0.2,0-0.3-0.2-0.4c-0.1-0.1-0.2-0.2-0.4-0.2
		c-0.2,0-0.5,0-0.7,0L82.1,55z"/>
	<path class="st1" d="M86.3,58.9h-0.9v-3.4h0.8V56c0.1-0.2,0.2-0.3,0.4-0.5c0.1-0.1,0.3-0.1,0.4-0.1c0.2,0,0.4,0.1,0.6,0.2l-0.3,0.8
		c-0.1-0.1-0.3-0.1-0.4-0.2c-0.1,0-0.2,0-0.3,0.1c-0.1,0.1-0.2,0.2-0.2,0.4c-0.1,0.4-0.1,0.8-0.1,1.1L86.3,58.9z"/>
	<path class="st1" d="M87.8,57.2c0-0.3,0.1-0.6,0.2-0.9c0.1-0.3,0.4-0.5,0.6-0.6c0.3-0.1,0.6-0.2,0.9-0.2c0.5,0,0.9,0.2,1.3,0.5
		c0.7,0.7,0.7,1.8,0,2.5C90.5,58.8,90,59,89.6,59c-0.3,0-0.6-0.1-0.9-0.2c-0.3-0.1-0.5-0.4-0.6-0.6C87.9,57.9,87.8,57.5,87.8,57.2z
		 M88.7,57.2c0,0.3,0.1,0.6,0.3,0.8c0.1,0.2,0.4,0.3,0.6,0.3c0.2,0,0.4-0.1,0.6-0.3c0.2-0.2,0.3-0.5,0.2-0.8c0-0.3-0.1-0.5-0.2-0.8
		c-0.1-0.2-0.4-0.3-0.6-0.3c-0.2,0-0.4,0.1-0.6,0.3C88.8,56.7,88.7,56.9,88.7,57.2L88.7,57.2z"/>
	<path class="st1" d="M91.6,55.5h0.5v-0.2c0-0.2,0-0.4,0.1-0.6c0.1-0.2,0.2-0.3,0.3-0.3c0.2-0.1,0.4-0.1,0.6-0.1
		c0.3,0,0.5,0,0.8,0.1l-0.1,0.6c-0.1,0-0.3,0-0.4,0c-0.1,0-0.2,0-0.3,0.1C93,55.1,93,55.2,93,55.3v0.2h0.7v0.7H93V59h-0.9v-2.7h-0.5
		L91.6,55.5z"/>
	<path class="st1" d="M94.2,55.1v-0.8h0.9v0.8H94.2z M94.2,58.9v-3.4h0.9v3.4H94.2z"/>
	<path class="st1" d="M99,56.5l-0.9,0.2c0-0.2-0.1-0.3-0.2-0.4c-0.1-0.1-0.3-0.1-0.4-0.1c-0.2,0-0.4,0.1-0.5,0.2
		c-0.2,0.2-0.2,0.5-0.2,0.8c0,0.3,0.1,0.6,0.2,0.8c0.1,0.2,0.3,0.3,0.6,0.2c0.2,0,0.3,0,0.4-0.2c0.1-0.1,0.2-0.3,0.2-0.5l0.9,0.2
		c-0.1,0.4-0.3,0.7-0.5,0.9c-0.3,0.2-0.7,0.3-1.1,0.3c-0.4,0-0.9-0.2-1.2-0.5c-0.6-0.8-0.6-1.8,0-2.6c0.3-0.3,0.8-0.5,1.2-0.5
		c0.4,0,0.7,0.1,1,0.3C98.8,55.9,98.9,56.2,99,56.5z"/>
	<path class="st1" d="M99.7,55.1v-0.8h0.9v0.8H99.7z M99.7,58.9v-3.4h0.9v3.4H99.7z"/>
	<path class="st1" d="M103.5,57.8l0.9,0.2c-0.1,0.3-0.3,0.6-0.6,0.8c-0.3,0.2-0.6,0.3-0.9,0.3c-0.5,0-1-0.2-1.3-0.6
		c-0.2-0.3-0.4-0.8-0.3-1.2c0-0.5,0.1-1,0.4-1.3c0.3-0.3,0.7-0.5,1.1-0.5c0.5,0,0.9,0.2,1.2,0.5c0.3,0.4,0.5,1,0.4,1.5h-2.2
		c0,0.2,0.1,0.4,0.2,0.6c0.1,0.1,0.3,0.2,0.5,0.2c0.1,0,0.3,0,0.4-0.1C103.4,58.1,103.4,58,103.5,57.8z M103.5,56.9
		c0-0.2-0.1-0.4-0.2-0.6c-0.1-0.1-0.3-0.2-0.5-0.2c-0.2,0-0.4,0.1-0.5,0.2c-0.1,0.2-0.2,0.4-0.2,0.6L103.5,56.9z"/>
	<path class="st1" d="M108.2,58.9h-0.9v-1.7c0-0.2,0-0.5,0-0.7c0-0.1-0.1-0.2-0.2-0.2c-0.1-0.1-0.2-0.1-0.3-0.1
		c-0.1,0-0.3,0-0.4,0.1c-0.1,0.1-0.2,0.2-0.3,0.3c-0.1,0.3-0.1,0.5-0.1,0.8v1.5h-0.9v-3.4h0.8V56c0.3-0.4,0.7-0.6,1.1-0.6
		c0.2,0,0.4,0,0.5,0.1c0.2,0.1,0.3,0.2,0.4,0.3c0.1,0.1,0.1,0.2,0.2,0.4c0,0.2,0,0.4,0,0.6L108.2,58.9z"/>
	<path class="st1" d="M112.1,56.5l-0.9,0.2c0-0.2-0.1-0.3-0.2-0.4c-0.1-0.1-0.3-0.1-0.4-0.1c-0.2,0-0.4,0.1-0.5,0.2
		c-0.2,0.2-0.2,0.5-0.2,0.8c0,0.3,0,0.6,0.2,0.9c0.1,0.2,0.3,0.3,0.5,0.2c0.2,0,0.3,0,0.4-0.2c0.1-0.1,0.2-0.3,0.2-0.5l0.9,0.2
		c-0.1,0.4-0.2,0.7-0.5,0.9c-0.3,0.2-0.6,0.3-1,0.3c-0.4,0-0.9-0.2-1.2-0.5c-0.3-0.4-0.5-0.8-0.4-1.3c0-0.5,0.1-0.9,0.4-1.3
		c0.3-0.3,0.8-0.5,1.2-0.5c0.4,0,0.7,0.1,1,0.3C111.9,55.9,112,56.2,112.1,56.5z"/>
	<path class="st1" d="M112.4,55.5h0.9l0.8,2.4l0.8-2.4h0.9l-1.2,3.3l-0.2,0.6c-0.1,0.2-0.1,0.3-0.2,0.5c-0.1,0.1-0.1,0.2-0.2,0.2
		c-0.1,0.1-0.2,0.1-0.3,0.2c-0.2,0-0.3,0-0.5,0c-0.2,0-0.3,0-0.5,0l-0.1-0.7c0.1,0,0.3,0,0.4,0c0.2,0,0.3-0.1,0.5-0.2
		c0.1-0.1,0.2-0.3,0.2-0.5L112.4,55.5z"/>
	<path class="st4" d="M118.1,57.2c0-0.3,0.1-0.6,0.2-0.9c0.1-0.3,0.4-0.5,0.6-0.6c0.3-0.1,0.6-0.2,0.9-0.2c0.5,0,0.9,0.2,1.3,0.5
		c0.3,0.3,0.5,0.8,0.5,1.3c0,0.5-0.2,0.9-0.5,1.3c-0.3,0.3-0.8,0.5-1.2,0.5c-0.3,0-0.6-0.1-0.9-0.2c-0.3-0.1-0.5-0.4-0.6-0.6
		C118.1,57.9,118,57.5,118.1,57.2z M119,57.2c0,0.3,0.1,0.6,0.2,0.8c0.1,0.2,0.4,0.3,0.6,0.3c0.2,0,0.4-0.1,0.6-0.3
		c0.2-0.2,0.3-0.5,0.2-0.8c0-0.3-0.1-0.5-0.2-0.8c-0.1-0.2-0.4-0.3-0.6-0.3c-0.2,0-0.4,0.1-0.6,0.3C119,56.6,119,56.9,119,57.2
		L119,57.2z"/>
	<path class="st1" d="M121.9,55.5h0.5v-0.2c0-0.2,0-0.4,0.1-0.6c0.1-0.2,0.2-0.3,0.3-0.3c0.2-0.1,0.4-0.1,0.6-0.1
		c0.3,0,0.5,0,0.8,0.1l-0.1,0.6c-0.1,0-0.3,0-0.4,0c-0.1,0-0.2,0-0.3,0.1c-0.1,0.1-0.1,0.2-0.1,0.3v0.2h0.7v0.7h-0.7V59h-0.9v-2.7
		h-0.5L121.9,55.5z"/>
	<path class="st5" d="M126.9,58.9l-1.1-4.7h1l0.7,3.2l0.9-3.2h1.1l0.8,3.3l0.7-3.3h0.9l-1.1,4.7h-1l-0.9-3.5l-0.9,3.5H126.9z"/>
	<path class="st1" d="M132.1,57.2c0-0.3,0.1-0.6,0.2-0.9c0.1-0.3,0.4-0.5,0.6-0.6c0.3-0.1,0.6-0.2,0.9-0.2c0.5,0,0.9,0.2,1.3,0.5
		c0.7,0.7,0.7,1.8,0,2.5c-0.3,0.3-0.8,0.5-1.2,0.5c-0.3,0-0.6-0.1-0.9-0.2c-0.3-0.1-0.5-0.4-0.6-0.6
		C132.2,57.9,132.1,57.5,132.1,57.2z M133,57.2c0,0.3,0.1,0.6,0.2,0.8c0.1,0.2,0.4,0.3,0.6,0.3c0.2,0,0.4-0.1,0.6-0.3
		c0.2-0.2,0.3-0.5,0.2-0.8c0-0.3-0.1-0.5-0.2-0.8c-0.1-0.2-0.4-0.3-0.6-0.3c-0.2,0-0.4,0.1-0.6,0.3C133.1,56.6,133,56.9,133,57.2
		L133,57.2z"/>
	<path class="st1" d="M137.2,58.9h-0.9v-3.4h0.8V56c0.1-0.2,0.2-0.3,0.4-0.5c0.1-0.1,0.3-0.1,0.4-0.1c0.2,0,0.4,0.1,0.6,0.2
		l-0.3,0.8c-0.1-0.1-0.3-0.1-0.4-0.2c-0.1,0-0.2,0-0.3,0.1c-0.1,0.1-0.2,0.2-0.2,0.4c-0.1,0.4-0.1,0.8-0.1,1.1L137.2,58.9z"/>
	<path class="st1" d="M142,58.9h-0.8v-0.5c-0.1,0.2-0.3,0.3-0.5,0.4c-0.2,0.1-0.4,0.1-0.6,0.1c-0.4,0-0.8-0.2-1-0.5
		c-0.5-0.8-0.5-1.8,0-2.6c0.3-0.3,0.6-0.4,1-0.4c0.4,0,0.8,0.2,1,0.5v-1.7h0.9L142,58.9z M139.6,57.2c0,0.3,0,0.5,0.1,0.8
		c0.1,0.2,0.4,0.4,0.6,0.3c0.2,0,0.4-0.1,0.5-0.3c0.2-0.2,0.2-0.5,0.2-0.8c0-0.3,0-0.6-0.2-0.8c-0.2-0.3-0.7-0.3-1-0.1
		c0,0-0.1,0.1-0.1,0.1C139.7,56.6,139.6,56.9,139.6,57.2z"/>
	<path class="st1" d="M142.6,58l0.9-0.1c0,0.2,0.1,0.3,0.2,0.4c0.1,0.1,0.3,0.1,0.5,0.1c0.2,0,0.4,0,0.5-0.1
		c0.1-0.1,0.1-0.1,0.1-0.2c0-0.1,0-0.1-0.1-0.2c-0.1-0.1-0.2-0.1-0.3-0.1c-0.5-0.1-0.9-0.2-1.4-0.4c-0.3-0.2-0.4-0.5-0.4-0.8
		c0-0.3,0.1-0.6,0.4-0.7c0.3-0.2,0.7-0.3,1.1-0.3c0.3,0,0.7,0.1,1,0.2c0.2,0.2,0.4,0.4,0.5,0.7l-0.8,0.2c0-0.1-0.1-0.2-0.2-0.3
		c-0.1-0.1-0.3-0.1-0.4-0.1c-0.2,0-0.3,0-0.5,0.1c-0.1,0-0.1,0.1-0.1,0.2c0,0.1,0,0.1,0.1,0.2c0.3,0.1,0.6,0.2,0.8,0.2
		c0.4,0.1,0.7,0.2,1,0.4c0.2,0.2,0.3,0.4,0.3,0.7c0,0.3-0.1,0.6-0.4,0.8c-0.3,0.3-0.7,0.4-1.2,0.3c-0.4,0-0.8-0.1-1.1-0.3
		C142.8,58.6,142.6,58.3,142.6,58z"/>
	<path class="st1" d="M146.5,58h0.9v0.7c0,0.2,0,0.4-0.1,0.6c-0.1,0.2-0.1,0.3-0.3,0.4c-0.1,0.1-0.3,0.2-0.5,0.3l-0.2-0.4
		c0.2,0,0.3-0.1,0.4-0.2c0.1-0.1,0.1-0.3,0.1-0.4h-0.4V58z"/>
	<path class="st1" d="M153.2,57.2l0.9,0.3c-0.1,0.4-0.3,0.9-0.7,1.1c-0.9,0.6-2,0.5-2.8-0.3c-0.4-0.5-0.6-1.1-0.6-1.7
		c0-0.7,0.2-1.3,0.6-1.8c0.4-0.4,1-0.7,1.6-0.7c0.5,0,1,0.2,1.4,0.5c0.2,0.2,0.4,0.5,0.5,0.9l-0.9,0.2c0-0.2-0.2-0.4-0.3-0.6
		c-0.2-0.1-0.4-0.2-0.6-0.2c-0.3,0-0.6,0.1-0.8,0.4c-0.3,0.4-0.4,0.8-0.3,1.2c0,0.4,0.1,0.9,0.3,1.3c0.2,0.3,0.5,0.4,0.8,0.4
		c0.2,0,0.5-0.1,0.6-0.2C153,57.8,153.1,57.5,153.2,57.2z"/>
	<path class="st1" d="M155.8,54.2V56c0.4-0.5,1-0.6,1.6-0.4c0.1,0.1,0.3,0.2,0.4,0.3c0.1,0.1,0.2,0.2,0.2,0.4c0,0.2,0,0.5,0,0.7v2
		h-0.9v-1.8c0-0.2,0-0.4,0-0.7c0-0.1-0.1-0.2-0.2-0.2c-0.1-0.1-0.2-0.1-0.3-0.1c-0.1,0-0.3,0-0.4,0.1c-0.1,0.1-0.2,0.2-0.3,0.3
		c-0.1,0.2-0.1,0.4-0.1,0.7V59h-0.9v-4.7H155.8z"/>
	<path class="st1" d="M159.6,56.6l-0.8-0.2c0.1-0.3,0.2-0.5,0.5-0.7c0.3-0.2,0.7-0.3,1-0.2c0.3,0,0.6,0,0.9,0.1
		c0.2,0.1,0.3,0.2,0.4,0.4c0.1,0.3,0.1,0.5,0.1,0.8v1c0,0.2,0,0.4,0.1,0.7c0,0.2,0.1,0.3,0.2,0.5H161l-0.1-0.3c0,0,0-0.1,0-0.1
		c-0.1,0.1-0.3,0.3-0.5,0.3c-0.2,0.1-0.4,0.1-0.6,0.1c-0.3,0-0.6-0.1-0.8-0.3c-0.2-0.2-0.3-0.4-0.3-0.7c0-0.2,0-0.4,0.1-0.5
		c0.1-0.2,0.2-0.3,0.4-0.3c0.2-0.1,0.5-0.2,0.7-0.2c0.3,0,0.6-0.1,0.9-0.2v-0.1c0-0.1,0-0.3-0.1-0.4c-0.1-0.1-0.3-0.1-0.5-0.1
		c-0.1,0-0.3,0-0.4,0.1C159.7,56.3,159.6,56.4,159.6,56.6z M160.8,57.3l-0.6,0.1c-0.2,0-0.3,0.1-0.5,0.2c-0.1,0.1-0.2,0.2-0.2,0.3
		c0,0.1,0,0.2,0.1,0.3c0.1,0.1,0.2,0.1,0.4,0.1c0.2,0,0.3-0.1,0.5-0.2c0.1-0.1,0.2-0.2,0.2-0.3c0-0.1,0-0.3,0-0.4L160.8,57.3z"/>
	<path class="st1" d="M163.4,58.9h-0.9v-3.4h0.8V56c0.1-0.2,0.2-0.3,0.4-0.5c0.1-0.1,0.3-0.1,0.4-0.1c0.2,0,0.4,0.1,0.6,0.2
		l-0.3,0.8c-0.1-0.1-0.3-0.1-0.4-0.2c-0.1,0-0.2,0-0.3,0.1c-0.1,0.1-0.2,0.2-0.2,0.4c-0.1,0.4-0.1,0.8-0.1,1.1V58.9z"/>
	<path class="st1" d="M165.8,56.6l-0.8-0.2c0.1-0.3,0.2-0.5,0.5-0.7c0.3-0.2,0.7-0.3,1-0.2c0.3,0,0.6,0,0.9,0.1
		c0.2,0.1,0.3,0.2,0.4,0.4c0.1,0.3,0.1,0.5,0.1,0.8v1c0,0.2,0,0.4,0,0.7c0,0.2,0.1,0.3,0.2,0.5h-0.9c0-0.1,0-0.2-0.1-0.3
		c0,0,0-0.1,0-0.1c-0.1,0.1-0.3,0.3-0.5,0.3c-0.2,0.1-0.4,0.1-0.6,0.2c-0.3,0-0.6-0.1-0.8-0.3c-0.2-0.2-0.3-0.4-0.3-0.7
		c0-0.2,0-0.4,0.1-0.5c0.1-0.2,0.2-0.3,0.4-0.3c0.2-0.1,0.5-0.2,0.7-0.2c0.3,0,0.6-0.1,0.9-0.2v-0.1c0-0.1,0-0.3-0.1-0.4
		c-0.1-0.1-0.3-0.1-0.5-0.1C166.1,56.1,165.8,56.3,165.8,56.6z M167,57.3l-0.6,0.1c-0.2,0-0.3,0.1-0.5,0.2c-0.1,0.1-0.2,0.2-0.2,0.3
		c0,0.1,0.1,0.2,0.1,0.3c0.1,0.1,0.2,0.1,0.4,0.1c0.2,0,0.3-0.1,0.5-0.2c0.1-0.1,0.2-0.2,0.2-0.3c0-0.1,0-0.3,0-0.4L167,57.3z"/>
	<path class="st1" d="M171.7,56.5l-0.9,0.2c0-0.3-0.3-0.6-0.6-0.5c-0.2,0-0.4,0.1-0.5,0.2c-0.2,0.2-0.2,0.5-0.2,0.8
		c0,0.3,0,0.6,0.2,0.9c0.1,0.2,0.3,0.3,0.5,0.2c0.2,0,0.3,0,0.4-0.2c0.1-0.1,0.2-0.3,0.2-0.5l0.9,0.2c-0.1,0.4-0.2,0.7-0.5,0.9
		c-0.3,0.2-0.7,0.3-1.1,0.3c-0.4,0-0.9-0.2-1.2-0.5c-0.6-0.8-0.6-1.8,0-2.6c0.3-0.3,0.8-0.5,1.2-0.5c0.4,0,0.7,0.1,1,0.3
		C171.5,55.9,171.6,56.2,171.7,56.5z"/>
	<path class="st1" d="M174,55.5v0.7h-0.6v1.4c0,0.2,0,0.3,0,0.5c0,0,0,0.1,0.1,0.1c0,0,0.1,0,0.1,0c0.1,0,0.3,0,0.4-0.1l0.1,0.7
		c-0.2,0.1-0.5,0.1-0.7,0.1c-0.2,0-0.3,0-0.4-0.1c-0.1,0-0.2-0.1-0.3-0.2c-0.1-0.1-0.1-0.2-0.1-0.3c0-0.2,0-0.4,0-0.6v-1.4H172v-0.7
		h0.4v-0.7l0.9-0.5v1.2H174z"/>
	<path class="st6" d="M176.6,57.8l0.9,0.2c-0.1,0.3-0.3,0.6-0.6,0.8c-0.3,0.2-0.6,0.3-0.9,0.3c-0.5,0-1-0.2-1.3-0.6
		c-0.5-0.8-0.4-1.8,0.1-2.5c0.6-0.6,1.7-0.6,2.3,0c0,0,0,0,0,0c0.3,0.4,0.5,1,0.4,1.5h-2.3c0,0.2,0.1,0.4,0.2,0.6
		c0.1,0.1,0.3,0.2,0.5,0.2c0.1,0,0.3,0,0.4-0.1C176.5,58.1,176.5,58,176.6,57.8z M176.6,56.9c0-0.2-0.1-0.4-0.2-0.6
		c-0.1-0.1-0.3-0.2-0.5-0.2c-0.2,0-0.4,0.1-0.5,0.2c-0.1,0.2-0.2,0.4-0.2,0.6L176.6,56.9z"/>
	<path class="st7" d="M179.1,58.9h-0.9v-3.4h0.8V56c0.1-0.2,0.2-0.3,0.4-0.5c0.1-0.1,0.3-0.1,0.4-0.1c0.2,0,0.4,0.1,0.6,0.2
		l-0.3,0.8c-0.1-0.1-0.3-0.1-0.4-0.2c-0.1,0-0.2,0-0.3,0.1c-0.1,0.1-0.2,0.2-0.2,0.4c-0.1,0.4-0.1,0.8-0.1,1.1L179.1,58.9z"/>
	<path class="st1" d="M180.5,58l0.9-0.1c0,0.2,0.1,0.3,0.2,0.4c0.1,0.1,0.3,0.1,0.5,0.1c0.2,0,0.4,0,0.5-0.1
		c0.1-0.1,0.1-0.1,0.1-0.2c0-0.1,0-0.1-0.1-0.2c-0.1-0.1-0.2-0.1-0.3-0.1c-0.5-0.1-0.9-0.2-1.4-0.4c-0.3-0.2-0.4-0.5-0.4-0.8
		c0-0.3,0.1-0.6,0.4-0.7c0.3-0.2,0.7-0.3,1.1-0.3c0.3,0,0.7,0.1,1,0.2c0.2,0.2,0.4,0.4,0.5,0.7l-0.9,0.2c0-0.1-0.1-0.2-0.2-0.3
		c-0.1-0.1-0.3-0.1-0.4-0.1c-0.2,0-0.4,0-0.5,0.1c-0.1,0-0.1,0.1-0.1,0.2c0,0.1,0,0.1,0.1,0.2c0.3,0.1,0.6,0.2,0.8,0.2
		c0.4,0.1,0.7,0.2,1,0.4c0.2,0.2,0.3,0.4,0.3,0.7c0,0.3-0.1,0.6-0.4,0.8c-0.3,0.3-0.7,0.4-1.2,0.3c-0.4,0-0.8-0.1-1.1-0.3
		C180.7,58.6,180.5,58.3,180.5,58z"/>
	<path class="st1" d="M184.4,58h0.9v0.7c0,0.2,0,0.4-0.1,0.6c0,0.2-0.1,0.3-0.2,0.4c-0.1,0.1-0.3,0.2-0.5,0.3l-0.2-0.4
		c0.2,0,0.3-0.1,0.4-0.2c0.1-0.1,0.1-0.3,0.1-0.4h-0.4L184.4,58z"/>
	<path class="st1" d="M188.7,56.6l-0.8-0.2c0.1-0.3,0.2-0.6,0.5-0.7c0.3-0.2,0.7-0.3,1-0.2c0.3,0,0.6,0,0.9,0.1
		c0.2,0.1,0.3,0.2,0.4,0.4c0.1,0.3,0.1,0.5,0.1,0.8v1c0,0.2,0,0.4,0,0.7c0,0.2,0.1,0.3,0.2,0.5h-0.9l-0.1-0.3c0,0,0-0.1,0-0.1
		c-0.1,0.1-0.3,0.3-0.5,0.3c-0.2,0.1-0.3,0.1-0.5,0.2c-0.3,0-0.6-0.1-0.8-0.3c-0.2-0.2-0.3-0.4-0.3-0.7c0-0.2,0-0.4,0.1-0.5
		c0.1-0.2,0.2-0.3,0.4-0.3c0.2-0.1,0.5-0.2,0.7-0.2c0.3,0,0.6-0.1,0.9-0.2v-0.1c0-0.1,0-0.3-0.1-0.4c-0.1-0.1-0.3-0.1-0.5-0.1
		c-0.1,0-0.3,0-0.4,0.1C188.9,56.3,188.8,56.4,188.7,56.6z M189.9,57.3c-0.1,0-0.3,0.1-0.5,0.1c-0.2,0-0.3,0.1-0.5,0.2
		c-0.1,0.1-0.2,0.2-0.2,0.3c0,0.1,0.1,0.2,0.1,0.3c0.1,0.1,0.2,0.1,0.4,0.1c0.2,0,0.3-0.1,0.5-0.2c0.1-0.1,0.2-0.2,0.2-0.3
		c0-0.1,0-0.3,0-0.4L189.9,57.3z"/>
	<path class="st1" d="M194.8,58.9h-0.9v-1.7c0-0.2,0-0.5-0.1-0.7c0-0.1-0.1-0.2-0.2-0.2c-0.1-0.1-0.2-0.1-0.3-0.1
		c-0.1,0-0.3,0-0.4,0.1c-0.1,0.1-0.2,0.2-0.3,0.3c-0.1,0.3-0.1,0.5-0.1,0.8v1.5h-0.9v-3.4h0.8V56c0.3-0.4,0.7-0.6,1.1-0.6
		c0.2,0,0.4,0,0.6,0.1c0.1,0.1,0.3,0.2,0.4,0.3c0.1,0.1,0.1,0.2,0.2,0.4c0,0.2,0.1,0.4,0.1,0.6L194.8,58.9z"/>
	<path class="st1" d="M198.8,58.9H198v-0.5c-0.1,0.2-0.3,0.3-0.5,0.4c-0.2,0.1-0.4,0.1-0.6,0.1c-0.4,0-0.8-0.2-1-0.5
		c-0.6-0.8-0.6-1.8,0-2.6c0.3-0.3,0.6-0.4,1-0.4c0.4,0,0.8,0.2,1,0.5v-1.7h0.9L198.8,58.9z M196.4,57.2c0,0.3,0,0.5,0.1,0.8
		c0.1,0.2,0.4,0.4,0.6,0.3c0.2,0,0.4-0.1,0.5-0.3c0.2-0.2,0.2-0.5,0.2-0.8c0-0.3,0-0.6-0.2-0.8c-0.1-0.2-0.3-0.3-0.5-0.3
		c-0.2,0-0.4,0.1-0.5,0.3C196.5,56.6,196.4,56.9,196.4,57.2L196.4,57.2z"/>
	<path class="st1" d="M201.3,57.4l0.9-0.1c0,0.3,0.1,0.5,0.3,0.7c0.4,0.3,1,0.3,1.4,0c0.1-0.1,0.2-0.3,0.2-0.4c0-0.1,0-0.2-0.1-0.3
		c-0.1-0.1-0.2-0.2-0.3-0.2c-0.1,0-0.4-0.1-0.8-0.2c-0.4-0.1-0.8-0.2-1.1-0.5c-0.3-0.2-0.4-0.6-0.4-0.9c0-0.2,0.1-0.5,0.2-0.7
		c0.1-0.2,0.3-0.4,0.6-0.5c0.3-0.1,0.6-0.2,0.9-0.2c0.5,0,0.9,0.1,1.3,0.4c0.3,0.3,0.5,0.6,0.5,1h-1c0-0.2-0.1-0.4-0.3-0.5
		c-0.2-0.1-0.4-0.2-0.6-0.2c-0.2,0-0.5,0-0.6,0.2c-0.1,0.1-0.2,0.2-0.1,0.3c0,0.1,0.1,0.2,0.1,0.3c0.3,0.2,0.6,0.3,0.9,0.3
		c0.3,0.1,0.7,0.2,1,0.3c0.5,0.2,0.7,0.7,0.7,1.2c0,0.3-0.1,0.5-0.2,0.8c-0.1,0.2-0.4,0.4-0.6,0.5c-0.3,0.1-0.7,0.2-1,0.2
		c-0.5,0-1-0.1-1.4-0.4C201.5,58.2,201.3,57.8,201.3,57.4z"/>
	<path class="st1" d="M207.9,57.8l0.9,0.2c-0.1,0.3-0.3,0.6-0.6,0.8c-0.3,0.2-0.6,0.3-0.9,0.3c-0.5,0-1-0.2-1.3-0.6
		c-0.5-0.8-0.4-1.8,0.1-2.5c0.3-0.3,0.7-0.5,1.1-0.5c0.5,0,0.9,0.2,1.2,0.5c0.3,0.4,0.5,1,0.4,1.5h-2.3c0,0.2,0.1,0.4,0.2,0.6
		c0.1,0.1,0.3,0.2,0.5,0.2c0.1,0,0.3,0,0.4-0.1C207.8,58.1,207.8,58,207.9,57.8z M207.9,56.9c0-0.2-0.1-0.4-0.2-0.6
		c-0.1-0.1-0.3-0.2-0.5-0.2c-0.2,0-0.4,0.1-0.5,0.2c-0.1,0.2-0.2,0.4-0.2,0.6L207.9,56.9z"/>
	<path class="st1" d="M212.6,58.9h-0.9v-1.7c0-0.2,0-0.5-0.1-0.7c0-0.1-0.1-0.2-0.2-0.2c-0.1-0.1-0.2-0.1-0.3-0.1
		c-0.1,0-0.3,0-0.4,0.1c-0.1,0.1-0.2,0.2-0.2,0.3c-0.1,0.3-0.1,0.5-0.1,0.8v1.5h-0.9v-3.4h0.8V56c0.3-0.4,0.7-0.6,1.1-0.6
		c0.2,0,0.4,0,0.5,0.1c0.1,0.1,0.3,0.2,0.4,0.3c0.1,0.1,0.2,0.2,0.2,0.4c0,0.2,0.1,0.4,0.1,0.6L212.6,58.9z"/>
	<path class="st1" d="M215.1,55.5v0.7h-0.6v1.4c0,0.2,0,0.3,0,0.5c0,0,0,0.1,0.1,0.1c0.1,0,0.1,0,0.2,0c0.1,0,0.2,0,0.4-0.1l0.1,0.7
		c-0.2,0.1-0.5,0.1-0.7,0.1c-0.2,0-0.3,0-0.4-0.1c-0.1,0-0.2-0.1-0.3-0.2c-0.1-0.1-0.1-0.2-0.1-0.3c0-0.2,0-0.4,0-0.6v-1.4h-0.4
		v-0.7h0.4v-0.7l0.9-0.5v1.2H215.1z"/>
	<path class="st1" d="M217.7,57.8l0.9,0.2c-0.1,0.3-0.3,0.6-0.6,0.8c-0.3,0.2-0.6,0.3-0.9,0.3c-0.5,0-1-0.2-1.3-0.6
		c-0.5-0.8-0.4-1.8,0.1-2.5c0.6-0.6,1.7-0.6,2.3,0c0,0,0,0,0,0c0.3,0.4,0.5,1,0.4,1.5h-2.3c0,0.2,0.1,0.4,0.2,0.6
		c0.1,0.1,0.3,0.2,0.5,0.2c0.1,0,0.3,0,0.4-0.1C217.6,58.1,217.7,58,217.7,57.8z M217.7,56.9c0-0.2-0.1-0.4-0.2-0.6
		c-0.1-0.1-0.3-0.2-0.5-0.2c-0.2,0-0.4,0.1-0.5,0.2c-0.1,0.2-0.2,0.4-0.2,0.6L217.7,56.9z"/>
	<path class="st1" d="M222.5,58.9h-0.9v-1.7c0-0.2,0-0.5-0.1-0.7c0-0.1-0.1-0.2-0.2-0.2c-0.1-0.1-0.2-0.1-0.3-0.1
		c-0.1,0-0.3,0-0.4,0.1c-0.1,0.1-0.2,0.2-0.3,0.3c-0.1,0.3-0.1,0.5-0.1,0.8v1.5h-0.9v-3.4h0.8V56c0.3-0.4,0.7-0.6,1.1-0.6
		c0.2,0,0.4,0,0.5,0.1c0.2,0.1,0.3,0.2,0.4,0.3c0.1,0.1,0.1,0.2,0.2,0.4c0,0.2,0,0.4,0,0.6L222.5,58.9z"/>
	<path class="st1" d="M226.4,56.5l-0.9,0.2c0-0.2-0.1-0.3-0.2-0.4c-0.1-0.1-0.3-0.1-0.4-0.1c-0.2,0-0.4,0.1-0.5,0.2
		c-0.2,0.2-0.2,0.5-0.2,0.8c0,0.3,0,0.6,0.2,0.9c0.1,0.2,0.3,0.3,0.6,0.2c0.2,0,0.3,0,0.4-0.2c0.1-0.1,0.2-0.3,0.2-0.5l0.9,0.2
		c-0.1,0.4-0.3,0.7-0.5,0.9c-0.3,0.2-0.6,0.3-1,0.3c-0.4,0-0.9-0.2-1.2-0.5c-0.6-0.8-0.6-1.8,0-2.6c0.3-0.3,0.8-0.5,1.2-0.5
		c0.4,0,0.7,0.1,1,0.3C226.1,55.9,226.3,56.2,226.4,56.5z"/>
	<path class="st1" d="M229,57.8l0.9,0.2c-0.1,0.3-0.3,0.6-0.5,0.8c-0.3,0.2-0.6,0.3-0.9,0.3c-0.5,0-1-0.2-1.3-0.6
		c-0.2-0.3-0.3-0.8-0.3-1.2c0-0.5,0.1-1,0.4-1.3c0.3-0.3,0.7-0.5,1.1-0.5c0.5,0,0.9,0.2,1.2,0.5c0.3,0.4,0.5,1,0.4,1.5h-2.2
		c0,0.2,0.1,0.4,0.2,0.6c0.1,0.1,0.3,0.2,0.5,0.2c0.1,0,0.3,0,0.4-0.1C228.9,58.1,229,58,229,57.8z M229.1,56.9
		c0-0.2-0.1-0.4-0.2-0.6c-0.1-0.1-0.3-0.2-0.5-0.2c-0.2,0-0.4,0.1-0.5,0.2c-0.1,0.2-0.2,0.4-0.2,0.6L229.1,56.9z"/>
	<path class="st1" d="M230.4,58l0.9-0.1c0,0.2,0.1,0.3,0.2,0.4c0.1,0.1,0.3,0.1,0.5,0.1c0.2,0,0.4,0,0.5-0.1
		c0.1-0.1,0.1-0.1,0.1-0.2c0-0.1,0-0.1-0.1-0.2c-0.1-0.1-0.2-0.1-0.3-0.1c-0.5-0.1-0.9-0.2-1.4-0.4c-0.3-0.2-0.4-0.5-0.4-0.8
		c0-0.3,0.1-0.6,0.4-0.7c0.3-0.2,0.7-0.3,1.1-0.3c0.3,0,0.7,0.1,1,0.2c0.2,0.2,0.4,0.4,0.5,0.7l-0.9,0.2c0-0.1-0.1-0.2-0.2-0.3
		c-0.1-0.1-0.3-0.1-0.4-0.1c-0.2,0-0.4,0-0.5,0.1c-0.1,0-0.1,0.1-0.1,0.2c0,0.1,0,0.1,0.1,0.2c0.3,0.1,0.6,0.2,0.8,0.2
		c0.4,0.1,0.7,0.2,1,0.4c0.2,0.2,0.3,0.4,0.3,0.7c0,0.3-0.1,0.6-0.4,0.8c-0.3,0.2-0.7,0.3-1.1,0.3c-0.4,0-0.8-0.1-1.1-0.3
		C230.6,58.6,230.5,58.3,230.4,58z"/>
	<path class="st8" d="M75.5,28.6l0.5-1.5C79.3,15.3,81.7,7.6,83.2,4c0.2-0.5,0.4-0.9,0.6-1.1c0.2-0.3,0.4-0.5,0.6-0.8
		c0.3-0.3,0.5-0.5,0.9-0.7c1.2-0.7,2.6-1.1,4-1c0.5-0.1,1.1,0,1.6,0.3c0.3,0.4,0.4,1,0.3,1.5c0,0.6,0,1.2,0,1.9
		c-0.1,4-0.2,6.8-0.2,8.5c0,4.2,0.2,8.3,0.5,12.1c0.2,2.1,0.6,4.3,1,6.5c0.3,1.5,0.8,3,1.3,4.5c0.4,0.9,0.8,1.7,1.3,2.5
		c0.3,0.5,0.5,1.1,0.6,1.7c-0.1,1-0.5,2-1.1,2.8c-1.2,1.9-2.5,2.9-3.7,2.9c-1.7,0-3.3-1.2-4.7-3.6c-0.7-1.2-1.3-2.5-1.7-3.8
		c-0.5-1.7-0.8-3.5-1-5.2c-0.2-2.1-0.3-4.7-0.4-7.9c-0.1-3.5-0.2-5.4-0.2-5.9h-0.1l-2.2,6.7c-0.6,1.8-1.1,3.3-1.4,4.5
		c-0.4,1.2-0.8,2.6-1.3,4.2c-1.6,5.2-2.6,8.4-3.1,9.5l-0.2,0.3c-0.1,0.1-0.1,0.3-0.2,0.4c-0.2,0.3-0.5,0.6-0.8,0.8
		c-0.2,0.2-0.5,0.3-0.8,0.3c-0.6,0-1.2-0.6-2-1.8c-0.8-1.4-1.4-2.9-1.9-4.5c-0.5-2-1-3.9-1.3-5.9c-0.3-2-0.6-4.4-0.9-7.2
		c-0.3-2.8-0.5-6.1-0.7-10.1H66l-1,3.2c-0.2,0.7-0.5,1.9-1,3.4l-0.8,2.6c-0.6,2-1.2,4-1.8,6.1c-0.6,2-1.1,3.6-1.5,4.7
		s-0.8,2.2-1.3,3.3c-0.3,0.7-0.7,1.5-1.1,2.2c-0.7,1.1-1.6,2.1-2.7,2.9c-0.8,0.6-1.8,1-2.8,1c-0.3,0-0.7-0.1-0.9-0.4
		c-0.3-0.3-0.4-0.6-0.4-1c0.1-0.5,0.3-1.1,0.6-1.5c0.2-0.4,0.7-1.4,1.4-3l1.2-3c0.8-1.8,1.9-4.9,3.4-9.5l1-3c2.4-7.1,4-12,4.8-14.6
		c0.5-1.5,0.9-3,1.2-4.6c0-0.6-0.3-1.1-0.6-1.6c-0.3-0.3-0.4-0.7-0.5-1.1c0-0.5,0.4-0.9,1.2-1.4c0.8-0.4,1.7-0.7,2.7-0.6
		c1.6-0.1,3.2,0.6,4.1,2c0.7,1.6,1.2,3.3,1.4,5c0.4,2.5,0.9,6.1,1.3,10.8c0,0.3,0,0.5,0.1,0.6s0,0.3,0,0.4s0,0.2,0,0.4
		c0.1,0.4,0.1,0.8,0.1,1.2c0.3,2.9,0.5,4.7,0.7,5.5C74.9,27.2,75.2,27.9,75.5,28.6z"/>
	<path class="st3" d="M104.3,7.8l0.3-1.2c-0.4,0-0.8,0.1-1.2,0.2c-0.4,0.2-0.8,0.4-1.1,0.6c-0.3,0.2-0.7,0.4-1.1,0.5
		c-0.3,0-0.5-0.2-0.6-0.4c-0.2-0.3-0.2-0.7-0.2-1.1c0-0.9,0.2-1.8,0.7-2.7c0.3-0.8,0.9-1.5,1.6-1.9c1-0.6,2.1-1,3.2-1.3
		c1.3-0.3,2.6-0.5,3.9-0.5c1.4,0,2.7,0.1,4,0.5c1.1,0.3,2.2,0.9,3.1,1.6c0.9,0.8,1.8,1.7,2.4,2.7c0.7,1.2,1.3,2.5,1.6,3.8
		c0.4,1.5,0.6,3,0.6,4.6c0,1.7-0.2,3.3-0.6,4.9c-0.4,1.8-0.9,3.6-1.6,5.3c-0.6,1.5-1.3,3-2.2,4.4c-0.9,1.4-2.1,2.6-3.5,3.5
		c-1.1,0.9-2.4,1.4-3.8,1.4c-0.5,0-0.9-0.1-1.3-0.4c-0.3-0.2-0.5-0.6-0.6-1c0-0.6,0.2-1.2,0.4-1.7c0.4-0.7,1-1.4,1.6-2
		c0.7-0.7,1.3-1.4,1.9-2.3c0.7-1.2,1.2-2.5,1.6-3.9c0.4-1.6,0.5-3.3,0.5-4.9c0-1.6-0.2-3.1-0.6-4.6c-0.4-1.3-1-2.4-1.9-3.4
		l-2.9,14.8l-0.5,2.6c-0.2,1-0.5,2.8-0.9,5.3c-0.4,3-1.1,6-2,8.9c-0.3,0.8-0.6,1.5-1,2.2c-0.7,1-1.6,1.8-2.6,2.5
		c-0.8,0.6-1.7,1-2.7,1.1c-0.5,0-0.9-0.3-1.2-0.7c-0.3-0.6-0.5-1.3-0.4-1.9c0-1.3,0.2-2.7,0.4-4c0.3-1.7,0.9-4.9,1.8-9.4l0.4-1.9
		l0.4-2L104.3,7.8z"/>
	<path class="st4" d="M135.8,9.9c-0.8,1.2-1.5,2.5-2.1,3.8c-0.6,1.4-1.1,2.8-1.4,4.2c-0.4,1.4-0.7,2.8-0.8,4.2
		c-0.2,1.7-0.3,3.3-0.3,5c0,2.4,0.1,4.8,0.5,7.2c0.2,1.5,0.7,3,1.6,4.4c0.5,0.9,1.5,1.4,2.5,1.5c1-0.1,1.8-0.6,2.4-1.4
		c0.9-1.1,1.7-2.3,2.2-3.6c0.7-1.6,1.2-3.2,1.6-4.9c0.4-1.7,0.6-3.5,0.6-5.2c-0.1-3.3-0.7-6.5-2-9.5c-0.4-0.9-0.6-1.8-0.7-2.7
		c0-1,0.4-1.9,0.9-2.7c0.7-1.1,1.5-2,2.4-2.9c0.6-0.6,1.3-1.1,2.2-1.3c0.4,0,0.7,0.1,1,0.3c0.3,0.2,0.6,0.5,0.8,0.9
		c0.6,1.3,1,2.6,1.1,4c0.3,2.1,0.5,4.1,0.4,6.2c0.1,4.9-0.6,9.8-2,14.5c-1,3.9-2.9,7.4-5.5,10.5c-2.3,2.6-4.8,3.9-7.5,3.9
		c-1.6,0-3.2-0.4-4.6-1.3c-1.5-0.9-2.8-2.2-3.7-3.7c-1.7-3-2.6-6.5-2.4-10c0-2.6,0.3-5.1,0.9-7.6c0.6-2.7,1.4-5.3,2.4-7.8
		c1-2.4,2.2-4.8,3.6-7c1.1-1.9,2.6-3.5,4.2-5c1.3-1.1,2.7-2,4.2-2.7c1.2-0.6,2.6-0.9,3.9-1c1.6,0,2.4,0.4,2.4,1.2
		c-0.1,0.5-0.2,1.1-0.5,1.5c-0.5,0.7-1,1.4-1.6,2c-0.7,0.5-1.4,1-2.2,1.3c-0.9,0.4-1.7,0.9-2.4,1.4C137,8.3,136.3,9.1,135.8,9.9z"/>
	<path class="st5" d="M165.6,26.2L165.6,26.2c-1.2,3.3-2.3,6.4-3.4,9.2c-1,2.5-2.2,4.9-3.5,7.3c-0.5,0.8-1.2,1.4-1.9,2
		c-0.6,0.5-1.3,0.8-2,0.9c-0.2,0-0.4-0.1-0.6-0.2c-0.2-0.1-0.4-0.4-0.6-0.6c-0.7-1.2-1.3-4.4-1.7-9.4s-0.7-11.2-0.7-18.4
		c0-5.9,0.3-9.8,0.8-11.7c0.2-0.7,0.5-1.4,1-2c0.5-0.6,1.2-1.2,1.9-1.6c0.7-0.4,1.5-0.8,2.2-1.1c0.6-0.3,1.2-0.4,1.8-0.5
		c0.4,0,0.7,0.2,0.9,0.5c0.3,0.4,0.4,0.8,0.4,1.3c0,0.3,0,0.6-0.1,0.9c-0.3,2.1-0.6,5-0.9,8.7c-0.2,2.5-0.3,4.5-0.4,6.1
		c-0.1,1.6-0.1,3.7-0.2,6.4c-0.1,2.7-0.1,5.3-0.1,8l0.1,0.1c0.6-1.3,1.3-2.8,2-4.6c0.3-0.7,0.5-1.3,0.7-1.9s0.5-1.3,0.8-2
		c0.7-1.8,1.2-3.6,1.7-5.3c0.3-0.8,0.5-1.6,0.7-2.4c2.1-7.4,3.6-11.7,4.5-12.9c0.6-0.7,1.3-1.2,2.2-1.6c0.9-0.5,1.8-0.7,2.8-0.8
		c0.5,0,1,0.2,1.3,0.6c0.4,0.4,0.6,1,0.5,1.5c-0.1,1.2-0.3,2.3-0.6,3.5c-0.7,3.3-1.3,7-1.8,11c-0.4,3.5-0.7,7.1-0.7,10.6
		c0,6.3,0.8,9.5,2.3,9.5c0.4,0,0.9-0.5,1.4-1.6c0.5-1.3,0.9-2.7,1.2-4.1c0.3-1.7,0.6-3.6,0.8-5.8c0.2-2.2,0.3-4.5,0.3-6.8
		c0-1.4,0-3-0.1-4.9c0-0.5,0-1,0-1.4c0.1-2.7,1-5.3,2.5-7.4c0.8-1.3,1.4-1.9,1.9-1.9c1,0,1.4,2.9,1.4,8.6c0,3.9-0.3,7.9-0.8,11.8
		c-0.5,3.9-1.5,7.8-2.9,11.5c-0.6,1.7-1.4,3.3-2.3,4.9c-0.7,1.3-1.6,2.6-2.7,3.8c-0.8,1.1-2.1,1.8-3.5,1.8c-2.3,0-4-1.4-5.1-4.2
		s-1.7-7.2-1.7-13.1V26.2z"/>
	<path class="st6" d="M203.5,30.9l-7.6-0.1v0.8c0,1.5,0.3,3,0.9,4.4c0.6,1.3,1.2,2,1.9,2c1.1-0.2,2.2-0.6,3.1-1.3
		c1.7-1.1,3.2-2.3,4.7-3.6l0.7-0.7c0.4-0.3,0.7-0.6,1-1c0.8-0.8,1.3-1.2,1.5-1.2s0.4,0.4,0.4,1.1c0,0.9-0.1,1.8-0.3,2.7
		c-0.2,1-0.4,2-0.7,2.9c-0.2,0.7-0.5,1.4-0.8,2c-1.1,1.5-2.5,2.7-4.1,3.7c-1.8,1.3-3.8,2.3-5.9,3.1c-0.6,0.2-1.2,0.3-1.8,0.3
		c-1.9,0-3.8-0.7-5.2-1.8c-1.7-1.3-2.9-3.1-3.7-5.1c-0.9-2.3-1.3-4.7-1.3-7.2c0-2.4,0.3-4.8,0.9-7.2c0.6-2.7,1.4-5.3,2.4-7.8
		c1-2.5,2.1-4.8,3.5-7.1c1.1-1.8,2.4-3.5,3.8-5.1c1.2-1.4,2.6-2.6,4.1-3.6c1.1-0.7,2.3-1.2,3.6-1.2c1.8,0,3.4,0.9,4.5,2.3
		C210.4,3.9,211,6,211,8c0,1.1-0.1,2.1-0.3,3.2c-0.2,1-0.5,2-0.9,3c-0.4,1-1,1.9-1.8,2.7c-0.8,0.9-1.6,1.6-2.6,2.3
		c-0.9,0.6-1.9,1-3,1.1c-0.8,0-1.2-0.3-1.2-1c0.1-0.6,0.3-1.2,0.7-1.8c0.6-0.9,1.1-1.9,1.5-2.9c0.5-1.5,0.9-3,1.2-4.6
		c0.3-1.3,0.4-2.7,0.4-4.1c0-0.8-0.2-1.2-0.5-1.2c-0.5,0-1.4,0.8-2.6,2.6c-1.2,1.6-2.2,3.3-3,5.1c-0.7,1.5-1.3,3.1-1.7,4.8
		c-0.4,1.6-0.7,3.2-0.9,4.8h11.2c1.2,0,1.8,0.5,1.8,1.5s-0.7,2.5-2.1,4.6C205.9,29.9,204.6,30.9,203.5,30.9z"/>
	<path class="st7" d="M218.9,10.4l0.6-2.3c-0.4,0.1-0.9,0.2-1.3,0.3c-0.4,0.1-0.8,0.2-1.2,0.1c-0.7,0-1-0.5-1-1.6
		c0-0.6,0.1-1.1,0.3-1.6c0.1-0.5,0.3-1,0.6-1.4c0.8-0.9,1.9-1.6,3.1-1.8c1.8-0.5,3.6-0.7,5.5-0.7c1.6,0,3.2,0.3,4.6,1
		c1.4,0.7,2.7,1.6,3.8,2.8c1.1,1.2,1.9,2.6,2.5,4.2c0.6,1.6,0.9,3.4,0.9,5.1c0,1.9-0.2,3.7-0.8,5.5c-0.5,1.6-1.2,3.1-2.2,4.4
		c-0.5,0.7-1.1,1.4-1.8,1.9c-0.7,0.5-1.5,1-2.3,1.4c0.2,0.6,0.4,1.2,0.7,1.8c0.3,0.6,0.6,1.2,1,1.8c1.4,2,3.3,3.6,5.4,4.9
		c0.1,0.1,0.3,0.2,0.4,0.3c-0.2,1.4-0.4,2.7-0.7,4.1c-0.2,1-0.6,1.9-1,2.8c-0.9,1.8-1.9,2.7-3.1,2.7c-1-0.1-1.8-0.5-2.6-1.1
		c-1-0.8-1.8-1.7-2.4-2.8c-0.5-0.9-1-1.9-1.4-2.9c-0.4-1-0.8-2.2-1.2-3.5s-0.8-2.6-1.1-3.8c-0.3-1.2-0.5-2.3-0.7-3.2
		c0-0.3,0-0.5,0-0.8c0-0.4,0.1-0.8,0.2-1.1c0.2-0.3,0.6-0.6,0.9-0.7c0.6-0.3,1.1-0.7,1.6-1.2c0.6-0.6,1.1-1.3,1.6-2
		c0.8-1.3,1.3-2.8,1.7-4.3c0.4-1.6,0.6-3.3,0.6-4.9c0.1-1.6-0.2-3.2-0.9-4.6c-0.6-1.1-1.6-1.9-2.8-2.3c-1.2,6.9-2.4,13.4-3.6,19.5
		l-0.5,2.5c-0.8,4-1.4,7-1.9,8.9c-0.3,1.4-0.8,2.8-1.5,4.1c-0.6,0.9-1.4,1.7-2.3,2.3c-0.7,0.6-1.5,1-2.4,1.1c-1.1,0-1.7-1-1.7-3.2
		c0.1-1.4,0.2-2.9,0.4-4.3c0.3-2,0.8-4.7,1.5-8s1.4-6.5,2.1-9.7S218,13.8,218.9,10.4z"/>
	<path class="st9" d="M14,6.7h-1.4c-4.4,0-7.1,0.5-7.1,7.2c0,5.2,2.7,7.2,10,7.2h32.1c-0.5-0.6-0.9-1.3-1.3-2H12.6v-1.7h33.1
		c-0.3-0.8-0.4-1.6-0.5-2.4H12.6v-1.6h32.5c0-0.9,0.2-1.8,0.4-2.6H12.6V9.1h33.5c0.4-0.9,0.9-1.7,1.5-2.4L14,6.7L14,6.7z"/>
	<path class="st10" d="M47.6,21.1H15.5c-7.3,0-10-2-10-7.2c0-6.8,2.7-7.2,7.1-7.2l1.4,0h33.6L48,6.3V5H4.2v18.4H48v-1.8
		C47.8,21.4,47.7,21.3,47.6,21.1z"/>
	<path class="st10" d="M48,21.1h-0.3c0.1,0.1,0.2,0.3,0.3,0.4V21.1z"/>
	<path class="st10" d="M48,6.7V6.3l-0.4,0.4H48z"/>
	<path class="st9" d="M14,27.2h-1.4c-4.4,0-7.1,0.5-7.1,7.2c0,5.2,2.7,7.2,10,7.2h32.1c-0.6-0.8-1.1-1.7-1.5-2.6H12.6v-1.6h32.9
		c-0.2-0.8-0.3-1.6-0.4-2.4H12.6v-1.6h32.6c0.1-0.9,0.3-1.8,0.5-2.7H12.6v-1.6h33.8c0.3-0.7,0.7-1.3,1.2-1.9L14,27.2L14,27.2z"/>
	<path class="st10" d="M48,42l-0.3-0.4H15.5c-7.3,0-10-2-10-7.2c0-6.8,2.7-7.2,7.1-7.2H14h33.6l0.4-0.5v-1.2H4.2v18.4H48V42z"/>
	<path class="st10" d="M48,41.6h-0.3L48,42V41.6z"/>
	<path class="st10" d="M48,27.2v-0.5l-0.4,0.5H48z"/>
	<path class="st11" d="M12.6,19.1h33.7c-0.3-0.5-0.5-1.1-0.7-1.6H12.6V19.1z"/>
	<path class="st11" d="M12.6,15.1h32.6c0-0.4-0.1-0.8-0.1-1.1c0-0.2,0-0.3,0-0.5H12.6V15.1z"/>
	<path class="st11" d="M12.6,10.8h33c0.1-0.6,0.3-1.1,0.6-1.6H12.6V10.8z"/>
	<path class="st11" d="M12.6,39h33.5c-0.2-0.5-0.4-1.1-0.6-1.6H12.6V39z"/>
	<path class="st11" d="M12.6,35h32.5c0-0.2,0-0.4,0-0.6s0-0.7,0-1H12.6V35z"/>
	<path class="st11" d="M12.6,30.7h33.1c0.2-0.6,0.4-1.1,0.7-1.6H12.6V30.7z"/>
	<path class="st0" d="M14.4,1.2h-1.5C9.4,1.2,0,1.2,0,14.2c0,8.6,5.3,13,15.9,13h33.9v-5.8H15.9c-7.3,0-10-2-10-7.2
		C5.8,7.5,8.5,7,12.9,7h1.4h35.5V1.2H15.7L14.4,1.2"/>
	<path class="st0" d="M14.4,21.3h-1.5C9.4,21.3,0,21.3,0,34.4c0,8.6,5.3,13,15.9,13h33.9v-5.8H15.9c-7.3,0-10-1.9-10-7.2
		c0-6.8,2.7-7.2,7.1-7.2h1.4h35.4v-5.8H15.7L14.4,21.3"/>
</g>
</svg>
