<svg xmlns="http://www.w3.org/2000/svg" viewBox="0 0 237.51 100.39"><defs><style>.cls-1{fill:#0068b7;}.cls-13,.cls-2{fill:#231815;}.cls-3{fill:#009de6;}.cls-4{fill:#00a73c;}.cls-5{fill:#f8bc00;}.cls-6{fill:#ab66a7;}.cls-7{fill:#db610d;}.cls-8{fill:#f29a76;}.cls-9{fill:#00afec;}.cls-10{fill:#e6e6e6;}.cls-11{fill:#ccc;}.cls-12{fill:#515958;}.cls-13{font-size:14px;stroke:#231815;stroke-miterlimit:10;stroke-width:0.25px;font-family:MicrosoftJhengHeiRegular, Microsoft JhengHei;letter-spacing:0.6em;}</style></defs><g id="圖層_2" data-name="圖層 2"><g id="圖層_1-2" data-name="圖層 1"><path class="cls-1" d="M7.29,67.16H5a.49.49,0,0,0,0,.11,1.12,1.12,0,0,0,.2.68.59.59,0,0,0,.48.26c.31,0,.55-.2.73-.59l.84.17a2,2,0,0,1-.66.92,1.45,1.45,0,0,1-.91.31,1.39,1.39,0,0,1-1.14-.54A2.19,2.19,0,0,1,4,67.06a3,3,0,0,1,.4-1.55A1.69,1.69,0,0,1,6,64.6a1.21,1.21,0,0,1,1,.48,2.12,2.12,0,0,1,.38,1.34A3.38,3.38,0,0,1,7.29,67.16Zm-.78-.69v-.12a1.2,1.2,0,0,0-.17-.7.55.55,0,0,0-.47-.24.69.69,0,0,0-.52.27,1.65,1.65,0,0,0-.31.79Z"/><path class="cls-2" d="M7.8,67.67v-.9H9.57v.9Z"/><path class="cls-2" d="M10.12,68.92V64.27h1v3.86h2.35v.79Z"/><path class="cls-2" d="M16.06,67.84,17,68a1.48,1.48,0,0,1-.55.75,1.62,1.62,0,0,1-.93.26,1.5,1.5,0,0,1-1.31-.58,2.21,2.21,0,0,1,.1-2.5,1.49,1.49,0,0,1,1.12-.47,1.51,1.51,0,0,1,1.2.5A2.22,2.22,0,0,1,17,67.48H14.75a.89.89,0,0,0,.22.62.68.68,0,0,0,.52.23.51.51,0,0,0,.35-.12A.71.71,0,0,0,16.06,67.84Zm.05-.91a.81.81,0,0,0-.2-.59.61.61,0,0,0-.47-.21.62.62,0,0,0-.48.22.83.83,0,0,0-.19.58Z"/><path class="cls-2" d="M18.41,66.56l-.82-.15a1.29,1.29,0,0,1,.48-.73,1.7,1.7,0,0,1,1-.23,2,2,0,0,1,.89.14.84.84,0,0,1,.42.36,1.84,1.84,0,0,1,.12.8v1a3.76,3.76,0,0,0,0,.67,1.88,1.88,0,0,0,.16.45H19.8c0-.06-.05-.15-.08-.26l0-.11a1.6,1.6,0,0,1-.49.34,1.47,1.47,0,0,1-.56.11,1.18,1.18,0,0,1-.83-.29,1,1,0,0,1-.3-.72,1,1,0,0,1,.14-.51.92.92,0,0,1,.38-.35,3.17,3.17,0,0,1,.72-.21,4,4,0,0,0,.87-.22v-.09a.5.5,0,0,0-.12-.37.82.82,0,0,0-.49-.11.55.55,0,0,0-.59.43Zm1.2.73c-.11,0-.29.08-.54.14a1.57,1.57,0,0,0-.49.15.38.38,0,0,0-.18.32.45.45,0,0,0,.14.33.48.48,0,0,0,.36.13.74.74,0,0,0,.46-.16.61.61,0,0,0,.22-.29,2.15,2.15,0,0,0,0-.44Z"/><path class="cls-2" d="M22.24,68.92h-.89v-3.4h.83V66a1.46,1.46,0,0,1,.39-.46.71.71,0,0,1,.39-.1,1.09,1.09,0,0,1,.59.17l-.28.78a.77.77,0,0,0-.42-.15.48.48,0,0,0-.32.11.68.68,0,0,0-.21.37,5.23,5.23,0,0,0-.08,1.14Z"/><path class="cls-2" d="M27,68.92h-.9V67.19a2.51,2.51,0,0,0-.06-.71.51.51,0,0,0-.19-.26.54.54,0,0,0-.31-.09.75.75,0,0,0-.42.13.65.65,0,0,0-.25.34,2.74,2.74,0,0,0-.07.78v1.54h-.9v-3.4h.83V66a1.37,1.37,0,0,1,1.12-.57,1.42,1.42,0,0,1,.55.1.91.91,0,0,1,.37.28,1.16,1.16,0,0,1,.18.37,3.16,3.16,0,0,1,.05.61Z"/><path class="cls-2" d="M27.94,65.06v-.83h.9v.83Zm0,3.86v-3.4h.9v3.4Z"/><path class="cls-2" d="M32.85,68.92H32V67.19a2.51,2.51,0,0,0-.06-.71.49.49,0,0,0-.18-.26.55.55,0,0,0-.32-.09.8.8,0,0,0-.42.13.71.71,0,0,0-.25.34,2.74,2.74,0,0,0-.07.78v1.54h-.9v-3.4h.84V66a1.36,1.36,0,0,1,1.12-.57,1.33,1.33,0,0,1,.54.1.84.84,0,0,1,.37.28.85.85,0,0,1,.18.37,3.16,3.16,0,0,1,.05.61Z"/><path class="cls-2" d="M33.68,69.15l1,.12a.32.32,0,0,0,.12.25.67.67,0,0,0,.4.09,1.09,1.09,0,0,0,.53-.1.53.53,0,0,0,.18-.23,1.65,1.65,0,0,0,0-.41v-.5a1.21,1.21,0,0,1-1,.55,1.25,1.25,0,0,1-1.09-.58,2,2,0,0,1-.31-1.14A1.88,1.88,0,0,1,34,65.9a1.34,1.34,0,0,1,1-.45A1.27,1.27,0,0,1,36,66v-.48h.84v3a3.28,3.28,0,0,1-.1.9,1.13,1.13,0,0,1-.28.47,1.22,1.22,0,0,1-.48.26,2.33,2.33,0,0,1-.76.1A1.93,1.93,0,0,1,34,70a.91.91,0,0,1-.36-.75Zm.8-2a1.2,1.2,0,0,0,.21.79.64.64,0,0,0,.52.25.73.73,0,0,0,.56-.25,1.14,1.14,0,0,0,.22-.77,1.21,1.21,0,0,0-.21-.78.71.71,0,0,0-.56-.26.67.67,0,0,0-.53.26A1.15,1.15,0,0,0,34.48,67.15Z"/><path class="cls-2" d="M39.19,65.52h.5v-.25a1.49,1.49,0,0,1,.1-.64.74.74,0,0,1,.33-.35,1.27,1.27,0,0,1,.62-.13,2.36,2.36,0,0,1,.75.12l-.12.62a2,2,0,0,0-.41,0,.36.36,0,0,0-.28.09.51.51,0,0,0-.09.35v.24h.67v.71h-.67v2.69h-.9V66.23h-.5Z"/><path class="cls-2" d="M41.56,67.17a1.93,1.93,0,0,1,.22-.86,1.5,1.5,0,0,1,.63-.64,1.82,1.82,0,0,1,.9-.22,1.68,1.68,0,0,1,1.27.5,1.7,1.7,0,0,1,.49,1.26,1.76,1.76,0,0,1-.5,1.28,1.67,1.67,0,0,1-1.25.51,2,2,0,0,1-.89-.21,1.45,1.45,0,0,1-.65-.62A2.17,2.17,0,0,1,41.56,67.17Zm.92,0a1.14,1.14,0,0,0,.24.78.79.79,0,0,0,1.19,0,1.14,1.14,0,0,0,.23-.78,1.11,1.11,0,0,0-.23-.77.79.79,0,0,0-1.19,0A1.13,1.13,0,0,0,42.48,67.22Z"/><path class="cls-2" d="M46.63,68.92h-.89v-3.4h.83V66a1.46,1.46,0,0,1,.39-.46.71.71,0,0,1,.39-.1,1.09,1.09,0,0,1,.59.17l-.28.78a.77.77,0,0,0-.42-.15.48.48,0,0,0-.32.11.68.68,0,0,0-.21.37,5.23,5.23,0,0,0-.08,1.14Z"/><path class="cls-3" d="M50.14,68.92V64.23h1.42l.85,3.2.84-3.2h1.42v4.69h-.88V65.23l-.93,3.69H52L51,65.23v3.69Z"/><path class="cls-2" d="M56.28,66.56l-.82-.15a1.25,1.25,0,0,1,.48-.73,1.69,1.69,0,0,1,1-.23,2.11,2.11,0,0,1,.9.14.82.82,0,0,1,.41.36,1.84,1.84,0,0,1,.12.8v1a3.76,3.76,0,0,0,0,.67,1.88,1.88,0,0,0,.16.45h-.89l-.09-.26a.39.39,0,0,0,0-.11,1.73,1.73,0,0,1-.49.34,1.51,1.51,0,0,1-.56.11,1.16,1.16,0,0,1-.83-.29,1,1,0,0,1-.3-.72.89.89,0,0,1,.14-.51.92.92,0,0,1,.38-.35,3.17,3.17,0,0,1,.72-.21,4,4,0,0,0,.87-.22v-.09a.46.46,0,0,0-.13-.37.76.76,0,0,0-.48-.11.63.63,0,0,0-.37.1A.6.6,0,0,0,56.28,66.56Zm1.2.73c-.11,0-.3.08-.55.14a1.67,1.67,0,0,0-.49.15.4.4,0,0,0-.17.32.42.42,0,0,0,.14.33.48.48,0,0,0,.36.13.76.76,0,0,0,.46-.16.61.61,0,0,0,.22-.29,2.15,2.15,0,0,0,0-.44Z"/><path class="cls-2" d="M62.34,68.92h-.9V67.19a2.51,2.51,0,0,0-.06-.71.44.44,0,0,0-.18-.26.54.54,0,0,0-.31-.09.75.75,0,0,0-.42.13.67.67,0,0,0-.26.34,3.18,3.18,0,0,0-.07.78v1.54h-.9v-3.4h.84V66a1.37,1.37,0,0,1,1.12-.57,1.33,1.33,0,0,1,.54.1.94.94,0,0,1,.38.28,1,1,0,0,1,.17.37,2.52,2.52,0,0,1,.05.61Z"/><path class="cls-2" d="M66.37,68.92h-.83v-.5a1.39,1.39,0,0,1-.5.44,1.26,1.26,0,0,1-.57.14,1.3,1.3,0,0,1-1-.47,1.94,1.94,0,0,1-.42-1.32,1.87,1.87,0,0,1,.41-1.31,1.32,1.32,0,0,1,1-.45,1.23,1.23,0,0,1,1,.47V64.23h.9ZM64,67.15a1.6,1.6,0,0,0,.15.79.7.7,0,0,0,.61.35.66.66,0,0,0,.53-.27,1.24,1.24,0,0,0,.22-.79,1.26,1.26,0,0,0-.22-.84.68.68,0,0,0-1.07,0A1.11,1.11,0,0,0,64,67.15Z"/><path class="cls-2" d="M67.93,66.56l-.82-.15a1.29,1.29,0,0,1,.48-.73,1.7,1.7,0,0,1,1-.23,2,2,0,0,1,.89.14.84.84,0,0,1,.42.36,1.84,1.84,0,0,1,.12.8v1a3.76,3.76,0,0,0,0,.67,1.88,1.88,0,0,0,.16.45h-.89c0-.06,0-.15-.08-.26l0-.11a1.6,1.6,0,0,1-.49.34,1.47,1.47,0,0,1-.56.11,1.18,1.18,0,0,1-.83-.29A1,1,0,0,1,67,68a1,1,0,0,1,.14-.51.92.92,0,0,1,.38-.35,3.17,3.17,0,0,1,.72-.21,4,4,0,0,0,.87-.22v-.09a.5.5,0,0,0-.12-.37.82.82,0,0,0-.49-.11.55.55,0,0,0-.59.43Zm1.2.73c-.11,0-.29.08-.54.14a1.57,1.57,0,0,0-.49.15.38.38,0,0,0-.18.32.45.45,0,0,0,.14.33.52.52,0,0,0,.36.13.74.74,0,0,0,.46-.16.61.61,0,0,0,.22-.29,2.15,2.15,0,0,0,0-.44Z"/><path class="cls-2" d="M71.76,68.92h-.89v-3.4h.83V66a1.46,1.46,0,0,1,.39-.46.7.7,0,0,1,.38-.1,1.09,1.09,0,0,1,.6.17l-.28.78a.77.77,0,0,0-.42-.15.48.48,0,0,0-.32.11.68.68,0,0,0-.21.37,5.23,5.23,0,0,0-.08,1.14Z"/><path class="cls-2" d="M73.46,65.06v-.83h.89v.83Zm0,3.86v-3.4h.89v3.4Z"/><path class="cls-2" d="M78.37,68.92h-.9V67.19a2.51,2.51,0,0,0-.06-.71.51.51,0,0,0-.19-.26.52.52,0,0,0-.31-.09.77.77,0,0,0-.42.13.65.65,0,0,0-.25.34,2.74,2.74,0,0,0-.07.78v1.54h-.9v-3.4h.83V66a1.37,1.37,0,0,1,1.12-.57,1.42,1.42,0,0,1,.55.1.91.91,0,0,1,.37.28,1,1,0,0,1,.18.37,3.16,3.16,0,0,1,.05.61Z"/><path class="cls-4" d="M81.11,68.92V64.23h1.52a5.23,5.23,0,0,1,1.12.07,1.21,1.21,0,0,1,.68.46,1.45,1.45,0,0,1,.27.91,1.49,1.49,0,0,1-.16.73,1.13,1.13,0,0,1-.4.46,1.26,1.26,0,0,1-.49.22,4.85,4.85,0,0,1-1,.07h-.62v1.77Zm.94-3.9v1.34h.52a2.31,2.31,0,0,0,.75-.08.69.69,0,0,0,.3-.23.69.69,0,0,0-.05-.79.59.59,0,0,0-.38-.2,3.34,3.34,0,0,0-.68,0Z"/><path class="cls-2" d="M86.33,68.92h-.9v-3.4h.84V66a1.61,1.61,0,0,1,.38-.46.76.76,0,0,1,.39-.1,1,1,0,0,1,.59.17l-.27.78a.8.8,0,0,0-.43-.15.52.52,0,0,0-.32.11.75.75,0,0,0-.2.37,5.23,5.23,0,0,0-.08,1.14Z"/><path class="cls-2" d="M87.81,67.17a1.82,1.82,0,0,1,.23-.86,1.42,1.42,0,0,1,.62-.64,1.82,1.82,0,0,1,.9-.22,1.68,1.68,0,0,1,1.27.5,1.88,1.88,0,0,1,0,2.54,1.67,1.67,0,0,1-1.25.51,2,2,0,0,1-.89-.21,1.42,1.42,0,0,1-.64-.62A2.05,2.05,0,0,1,87.81,67.17Zm.93,0A1.14,1.14,0,0,0,89,68a.75.75,0,0,0,.59.27.76.76,0,0,0,.59-.27,1.14,1.14,0,0,0,.24-.78,1.11,1.11,0,0,0-.24-.77.76.76,0,0,0-.59-.27.75.75,0,0,0-.59.27A1.13,1.13,0,0,0,88.74,67.22Z"/><path class="cls-2" d="M91.63,65.52h.5v-.25a1.7,1.7,0,0,1,.09-.64.76.76,0,0,1,.34-.35,1.27,1.27,0,0,1,.62-.13,2.4,2.4,0,0,1,.75.12l-.12.62a2,2,0,0,0-.41,0,.36.36,0,0,0-.28.09.51.51,0,0,0-.09.35v.24h.67v.71H93v2.69h-.9V66.23h-.5Z"/><path class="cls-2" d="M94.21,65.06v-.83h.9v.83Zm0,3.86v-3.4h.9v3.4Z"/><path class="cls-2" d="M99,66.53l-.88.16a.62.62,0,0,0-.21-.4.6.6,0,0,0-.41-.14.65.65,0,0,0-.53.24,1.13,1.13,0,0,0-.2.77A1.38,1.38,0,0,0,97,68a.7.7,0,0,0,.55.25.56.56,0,0,0,.41-.15.9.9,0,0,0,.24-.5l.88.15a1.59,1.59,0,0,1-.53.92,1.62,1.62,0,0,1-1.05.31,1.55,1.55,0,0,1-1.18-.47,2.13,2.13,0,0,1,0-2.62,1.56,1.56,0,0,1,1.2-.46,1.66,1.66,0,0,1,1,.26A1.46,1.46,0,0,1,99,66.53Z"/><path class="cls-2" d="M99.68,65.06v-.83h.89v.83Zm0,3.86v-3.4h.89v3.4Z"/><path class="cls-2" d="M103.46,67.84l.9.15a1.43,1.43,0,0,1-.55.75,1.57,1.57,0,0,1-.93.26,1.5,1.5,0,0,1-1.31-.58,2,2,0,0,1-.34-1.17,1.86,1.86,0,0,1,.45-1.33,1.46,1.46,0,0,1,1.11-.47,1.49,1.49,0,0,1,1.2.5,2.22,2.22,0,0,1,.42,1.53h-2.25a.85.85,0,0,0,.21.62.68.68,0,0,0,.52.23.56.56,0,0,0,.36-.12A.7.7,0,0,0,103.46,67.84Zm.06-.91a.86.86,0,0,0-.21-.59.59.59,0,0,0-.46-.21.64.64,0,0,0-.49.22.83.83,0,0,0-.19.58Z"/><path class="cls-2" d="M108.23,68.92h-.9V67.19a3.19,3.19,0,0,0,0-.71.51.51,0,0,0-.19-.26.54.54,0,0,0-.31-.09.75.75,0,0,0-.42.13.67.67,0,0,0-.26.34,3.18,3.18,0,0,0-.07.78v1.54h-.9v-3.4H106V66a1.37,1.37,0,0,1,1.12-.57,1.33,1.33,0,0,1,.54.1.94.94,0,0,1,.38.28,1,1,0,0,1,.17.37,2.52,2.52,0,0,1,0,.61Z"/><path class="cls-2" d="M112.11,66.53l-.89.16a.66.66,0,0,0-.2-.4.62.62,0,0,0-.41-.14.67.67,0,0,0-.54.24,1.19,1.19,0,0,0-.2.77,1.37,1.37,0,0,0,.21.86.67.67,0,0,0,.54.25.6.6,0,0,0,.42-.15.84.84,0,0,0,.23-.5l.88.15a1.54,1.54,0,0,1-.53.92,1.81,1.81,0,0,1-2.23-.16,1.81,1.81,0,0,1-.44-1.3,1.88,1.88,0,0,1,.44-1.32,1.89,1.89,0,0,1,2.19-.2A1.48,1.48,0,0,1,112.11,66.53Z"/><path class="cls-2" d="M112.37,65.52h.95l.81,2.42.8-2.42h.93l-1.2,3.27-.21.6a3.06,3.06,0,0,1-.23.45.85.85,0,0,1-.25.25,1,1,0,0,1-.34.16,2.09,2.09,0,0,1-.46,0,2.94,2.94,0,0,1-.51,0l-.08-.71a1.82,1.82,0,0,0,.38,0,.58.58,0,0,0,.47-.18,1.38,1.38,0,0,0,.23-.47Z"/><path class="cls-5" d="M118.05,67.17a1.8,1.8,0,0,1,.22-.86,1.48,1.48,0,0,1,.62-.64,1.86,1.86,0,0,1,.91-.22,1.67,1.67,0,0,1,1.26.5,1.71,1.71,0,0,1,.5,1.26,1.76,1.76,0,0,1-.5,1.28,1.67,1.67,0,0,1-1.25.51,2,2,0,0,1-.9-.21,1.47,1.47,0,0,1-.64-.62A2.05,2.05,0,0,1,118.05,67.17Zm.92,0a1.14,1.14,0,0,0,.24.78.76.76,0,0,0,.59.27.75.75,0,0,0,.59-.27,1.14,1.14,0,0,0,.24-.78,1.11,1.11,0,0,0-.24-.77.75.75,0,0,0-.59-.27.76.76,0,0,0-.59.27A1.13,1.13,0,0,0,119,67.22Z"/><path class="cls-2" d="M121.87,65.52h.5v-.25a1.7,1.7,0,0,1,.09-.64.74.74,0,0,1,.33-.35,1.29,1.29,0,0,1,.62-.13,2.36,2.36,0,0,1,.75.12l-.12.62a2,2,0,0,0-.41,0,.38.38,0,0,0-.28.09.51.51,0,0,0-.08.35v.24h.67v.71h-.67v2.69h-.9V66.23h-.5Z"/><path class="cls-6" d="M126.94,68.92l-1.12-4.69h1l.7,3.22.86-3.22h1.13l.82,3.28.72-3.28H132l-1.14,4.69h-1l-.94-3.51L128,68.92Z"/><path class="cls-2" d="M132.12,67.17a1.82,1.82,0,0,1,.23-.86,1.42,1.42,0,0,1,.62-.64,1.82,1.82,0,0,1,.9-.22,1.68,1.68,0,0,1,1.27.5,1.88,1.88,0,0,1,0,2.54,1.67,1.67,0,0,1-1.25.51,2,2,0,0,1-.89-.21,1.42,1.42,0,0,1-.64-.62A2.05,2.05,0,0,1,132.12,67.17Zm.93,0a1.14,1.14,0,0,0,.24.78.75.75,0,0,0,.59.27.76.76,0,0,0,.59-.27,1.14,1.14,0,0,0,.24-.78,1.11,1.11,0,0,0-.24-.77.76.76,0,0,0-.59-.27.75.75,0,0,0-.59.27A1.13,1.13,0,0,0,133.05,67.22Z"/><path class="cls-2" d="M137.2,68.92h-.9v-3.4h.83V66a1.61,1.61,0,0,1,.39-.46.71.71,0,0,1,.39-.1,1.09,1.09,0,0,1,.59.17l-.28.78a.77.77,0,0,0-.42-.15.5.5,0,0,0-.32.11.68.68,0,0,0-.21.37,5.46,5.46,0,0,0-.07,1.14Z"/><path class="cls-2" d="M142,68.92h-.83v-.5a1.36,1.36,0,0,1-.49.44,1.33,1.33,0,0,1-.57.14,1.31,1.31,0,0,1-1-.47,1.93,1.93,0,0,1-.41-1.32,1.87,1.87,0,0,1,.4-1.31,1.33,1.33,0,0,1,1-.45,1.23,1.23,0,0,1,1,.47V64.23h.9Zm-2.4-1.77a1.6,1.6,0,0,0,.15.79.7.7,0,0,0,.61.35.66.66,0,0,0,.53-.27,1.18,1.18,0,0,0,.22-.79,1.33,1.33,0,0,0-.21-.84.69.69,0,0,0-1.08,0A1.17,1.17,0,0,0,139.6,67.15Z"/><path class="cls-2" d="M142.57,68l.91-.14a.6.6,0,0,0,.23.4.79.79,0,0,0,.49.14.86.86,0,0,0,.53-.13.29.29,0,0,0,.12-.24.26.26,0,0,0-.07-.17.74.74,0,0,0-.3-.12,4.72,4.72,0,0,1-1.38-.44.85.85,0,0,1-.4-.76.91.91,0,0,1,.35-.74,1.62,1.62,0,0,1,1.08-.3,1.94,1.94,0,0,1,1,.22,1.16,1.16,0,0,1,.46.68l-.84.15a.55.55,0,0,0-.21-.3.77.77,0,0,0-.44-.11,1,1,0,0,0-.5.1.22.22,0,0,0-.11.18.21.21,0,0,0,.09.17,3.44,3.44,0,0,0,.84.25,2.52,2.52,0,0,1,1,.4.85.85,0,0,1,.28.67,1,1,0,0,1-.39.8,1.71,1.71,0,0,1-1.16.34,2,2,0,0,1-1.1-.28A1.35,1.35,0,0,1,142.57,68Z"/><path class="cls-2" d="M146.51,68h.9v.65a2.44,2.44,0,0,1-.06.61,1.06,1.06,0,0,1-.26.41,1.28,1.28,0,0,1-.47.28l-.18-.37a.82.82,0,0,0,.39-.25.84.84,0,0,0,.12-.43h-.44Z"/><path class="cls-2" d="M153.19,67.2l.91.29a2,2,0,0,1-.7,1.14,2.21,2.21,0,0,1-2.78-.27,2.42,2.42,0,0,1-.6-1.74,2.58,2.58,0,0,1,.6-1.82,2.1,2.1,0,0,1,1.59-.65,2,2,0,0,1,1.4.51,1.92,1.92,0,0,1,.48.86l-.94.23a1,1,0,0,0-.34-.58,1,1,0,0,0-.65-.21,1.07,1.07,0,0,0-.84.37,1.84,1.84,0,0,0-.33,1.22,2,2,0,0,0,.32,1.26,1,1,0,0,0,.84.38.93.93,0,0,0,.64-.24A1.35,1.35,0,0,0,153.19,67.2Z"/><path class="cls-2" d="M155.81,64.23V66a1.34,1.34,0,0,1,1-.5,1.3,1.3,0,0,1,.56.11.94.94,0,0,1,.37.3,1,1,0,0,1,.18.39,3.82,3.82,0,0,1,0,.68v2h-.9V67.13a2.39,2.39,0,0,0,0-.68.38.38,0,0,0-.18-.23.53.53,0,0,0-.32-.09.75.75,0,0,0-.4.11.58.58,0,0,0-.26.33,1.84,1.84,0,0,0-.08.65v1.7h-.9V64.23Z"/><path class="cls-2" d="M159.59,66.56l-.82-.15a1.28,1.28,0,0,1,.47-.73,1.74,1.74,0,0,1,1-.23,2.11,2.11,0,0,1,.9.14.82.82,0,0,1,.41.36,1.84,1.84,0,0,1,.12.8v1a3.57,3.57,0,0,0,.05.67,1.88,1.88,0,0,0,.16.45H161l-.09-.26a.39.39,0,0,0,0-.11,1.73,1.73,0,0,1-.49.34,1.51,1.51,0,0,1-.56.11,1.16,1.16,0,0,1-.83-.29,1,1,0,0,1-.3-.72.89.89,0,0,1,.14-.51.92.92,0,0,1,.38-.35,3.17,3.17,0,0,1,.72-.21,4,4,0,0,0,.87-.22v-.09a.46.46,0,0,0-.13-.37.76.76,0,0,0-.48-.11.69.69,0,0,0-.38.1A.59.59,0,0,0,159.59,66.56Zm1.2.73-.55.14a1.67,1.67,0,0,0-.49.15.4.4,0,0,0-.17.32.42.42,0,0,0,.14.33.48.48,0,0,0,.36.13.76.76,0,0,0,.46-.16.53.53,0,0,0,.21-.29,1.5,1.5,0,0,0,0-.44Z"/><path class="cls-2" d="M163.42,68.92h-.9v-3.4h.84V66a1.61,1.61,0,0,1,.38-.46.76.76,0,0,1,.39-.1,1.06,1.06,0,0,1,.59.17l-.27.78a.83.83,0,0,0-.43-.15.52.52,0,0,0-.32.11.75.75,0,0,0-.2.37,5.23,5.23,0,0,0-.08,1.14Z"/><path class="cls-2" d="M165.78,66.56l-.81-.15a1.28,1.28,0,0,1,.47-.73,1.72,1.72,0,0,1,1-.23,2,2,0,0,1,.89.14.84.84,0,0,1,.42.36,1.84,1.84,0,0,1,.12.8v1a3.76,3.76,0,0,0,0,.67,2.45,2.45,0,0,0,.16.45h-.89c0-.06,0-.15-.08-.26a.45.45,0,0,1,0-.11,1.77,1.77,0,0,1-.5.34A1.47,1.47,0,0,1,166,69a1.14,1.14,0,0,1-.82-.29.92.92,0,0,1-.31-.72,1,1,0,0,1,.14-.51.89.89,0,0,1,.39-.35,2.91,2.91,0,0,1,.71-.21,4.35,4.35,0,0,0,.88-.22v-.09a.5.5,0,0,0-.13-.37.82.82,0,0,0-.49-.11.55.55,0,0,0-.59.43Zm1.21.73-.55.14a1.67,1.67,0,0,0-.49.15.38.38,0,0,0-.18.32.45.45,0,0,0,.14.33.52.52,0,0,0,.36.13.78.78,0,0,0,.47-.16.53.53,0,0,0,.21-.29,2,2,0,0,0,0-.44Z"/><path class="cls-2" d="M171.72,66.53l-.89.16a.58.58,0,0,0-.61-.54.67.67,0,0,0-.54.24,1.19,1.19,0,0,0-.2.77,1.37,1.37,0,0,0,.21.86.67.67,0,0,0,.54.25.6.6,0,0,0,.42-.15.84.84,0,0,0,.23-.5l.88.15a1.58,1.58,0,0,1-.52.92,1.62,1.62,0,0,1-1.05.31,1.57,1.57,0,0,1-1.19-.47,2.17,2.17,0,0,1,0-2.62,1.89,1.89,0,0,1,2.19-.2A1.48,1.48,0,0,1,171.72,66.53Z"/><path class="cls-2" d="M174,65.52v.72h-.61v1.37a4.41,4.41,0,0,0,0,.48.2.2,0,0,0,.08.12.26.26,0,0,0,.15,0,1.37,1.37,0,0,0,.37-.08l.07.69a1.76,1.76,0,0,1-.71.14,1.23,1.23,0,0,1-.44-.08.71.71,0,0,1-.28-.21,1,1,0,0,1-.13-.35,4.32,4.32,0,0,1,0-.64V66.24H172v-.72h.41v-.67l.91-.53v1.2Z"/><path class="cls-7" d="M176.55,67.84l.9.15a1.48,1.48,0,0,1-.55.75A1.62,1.62,0,0,1,176,69a1.5,1.5,0,0,1-1.31-.58,2.21,2.21,0,0,1,.1-2.5,1.63,1.63,0,0,1,2.32,0,2.22,2.22,0,0,1,.42,1.53h-2.26a.89.89,0,0,0,.22.62.68.68,0,0,0,.52.23.51.51,0,0,0,.35-.12A.71.71,0,0,0,176.55,67.84Zm0-.91a.81.81,0,0,0-.2-.59.61.61,0,0,0-.47-.21.64.64,0,0,0-.48.22.83.83,0,0,0-.19.58Z"/><path class="cls-8" d="M179.09,68.92h-.9v-3.4H179V66a1.61,1.61,0,0,1,.38-.46.76.76,0,0,1,.39-.1,1.06,1.06,0,0,1,.59.17l-.28.78a.77.77,0,0,0-.42-.15.52.52,0,0,0-.32.11.62.62,0,0,0-.2.37,5.23,5.23,0,0,0-.08,1.14Z"/><path class="cls-2" d="M180.46,68l.91-.14a.6.6,0,0,0,.23.4.79.79,0,0,0,.49.14.88.88,0,0,0,.53-.13.29.29,0,0,0,.12-.24.26.26,0,0,0-.07-.17.74.74,0,0,0-.3-.12,4.61,4.61,0,0,1-1.38-.44.85.85,0,0,1-.4-.76.91.91,0,0,1,.35-.74,1.62,1.62,0,0,1,1.08-.3,1.94,1.94,0,0,1,1,.22,1.16,1.16,0,0,1,.46.68l-.85.15a.49.49,0,0,0-.2-.3.76.76,0,0,0-.43-.11,1,1,0,0,0-.51.1.22.22,0,0,0-.11.18.21.21,0,0,0,.09.17,3.44,3.44,0,0,0,.84.25,2.52,2.52,0,0,1,1,.4.85.85,0,0,1,.28.67,1,1,0,0,1-.39.8,1.71,1.71,0,0,1-1.16.34,2,2,0,0,1-1.1-.28A1.35,1.35,0,0,1,180.46,68Z"/><path class="cls-2" d="M184.4,68h.9v.65a2,2,0,0,1-.07.61.85.85,0,0,1-.25.41,1.24,1.24,0,0,1-.48.28l-.17-.37a.82.82,0,0,0,.39-.25.84.84,0,0,0,.12-.43h-.44Z"/><path class="cls-2" d="M188.74,66.56l-.82-.15a1.25,1.25,0,0,1,.48-.73,1.7,1.7,0,0,1,1-.23,2,2,0,0,1,.89.14.84.84,0,0,1,.42.36,1.84,1.84,0,0,1,.12.8v1a3.76,3.76,0,0,0,0,.67,1.88,1.88,0,0,0,.16.45h-.89l-.09-.26a.39.39,0,0,0,0-.11,1.6,1.6,0,0,1-.49.34A1.47,1.47,0,0,1,189,69a1.16,1.16,0,0,1-.83-.29,1,1,0,0,1-.3-.72,1,1,0,0,1,.14-.51.92.92,0,0,1,.38-.35,3.17,3.17,0,0,1,.72-.21,4,4,0,0,0,.87-.22v-.09a.46.46,0,0,0-.13-.37.76.76,0,0,0-.48-.11.65.65,0,0,0-.37.1A.6.6,0,0,0,188.74,66.56Zm1.2.73c-.11,0-.3.08-.54.14a1.57,1.57,0,0,0-.49.15.38.38,0,0,0-.18.32.45.45,0,0,0,.14.33.48.48,0,0,0,.36.13.74.74,0,0,0,.46-.16.61.61,0,0,0,.22-.29,2.15,2.15,0,0,0,0-.44Z"/><path class="cls-2" d="M194.8,68.92h-.9V67.19a2.66,2.66,0,0,0-.05-.71.51.51,0,0,0-.19-.26.54.54,0,0,0-.31-.09.75.75,0,0,0-.42.13.67.67,0,0,0-.26.34,3.33,3.33,0,0,0-.06.78v1.54h-.9v-3.4h.83V66a1.37,1.37,0,0,1,1.12-.57,1.42,1.42,0,0,1,.55.1,1,1,0,0,1,.37.28,1,1,0,0,1,.17.37,2.52,2.52,0,0,1,.05.61Z"/><path class="cls-2" d="M198.83,68.92H198v-.5a1.36,1.36,0,0,1-.49.44,1.33,1.33,0,0,1-.57.14,1.31,1.31,0,0,1-1-.47,1.94,1.94,0,0,1-.42-1.32,1.87,1.87,0,0,1,.41-1.31,1.32,1.32,0,0,1,1-.45,1.23,1.23,0,0,1,1,.47V64.23h.9Zm-2.4-1.77a1.6,1.6,0,0,0,.15.79.7.7,0,0,0,.61.35.66.66,0,0,0,.53-.27,1.18,1.18,0,0,0,.22-.79,1.33,1.33,0,0,0-.21-.84.7.7,0,0,0-.54-.26.67.67,0,0,0-.54.26A1.11,1.11,0,0,0,196.43,67.15Z"/><path class="cls-2" d="M201.31,67.4l.92-.09a1.13,1.13,0,0,0,.34.68,1.27,1.27,0,0,0,1.37,0,.56.56,0,0,0,.23-.45.48.48,0,0,0-.09-.29,1,1,0,0,0-.34-.2l-.76-.2a2.5,2.5,0,0,1-1.07-.47,1.21,1.21,0,0,1-.43-.94,1.17,1.17,0,0,1,.2-.67,1.29,1.29,0,0,1,.59-.48,2.3,2.3,0,0,1,.92-.16,2,2,0,0,1,1.33.39,1.37,1.37,0,0,1,.47,1l-1,0a.83.83,0,0,0-.26-.52,1,1,0,0,0-.6-.16,1.12,1.12,0,0,0-.65.17.35.35,0,0,0-.15.29.37.37,0,0,0,.14.29,2.55,2.55,0,0,0,.87.31,4.53,4.53,0,0,1,1,.34,1.42,1.42,0,0,1,.52.48,1.44,1.44,0,0,1,.18.75,1.36,1.36,0,0,1-.22.75,1.33,1.33,0,0,1-.64.52,2.53,2.53,0,0,1-1,.17,2,2,0,0,1-1.36-.41A1.75,1.75,0,0,1,201.31,67.4Z"/><path class="cls-2" d="M207.88,67.84l.9.15a1.48,1.48,0,0,1-.55.75,1.62,1.62,0,0,1-.93.26,1.5,1.5,0,0,1-1.31-.58,2.21,2.21,0,0,1,.1-2.5,1.49,1.49,0,0,1,1.12-.47,1.51,1.51,0,0,1,1.2.5,2.22,2.22,0,0,1,.42,1.53h-2.26a.89.89,0,0,0,.22.62.68.68,0,0,0,.52.23.51.51,0,0,0,.35-.12A.71.71,0,0,0,207.88,67.84Zm.05-.91a.81.81,0,0,0-.2-.59.61.61,0,0,0-.47-.21.62.62,0,0,0-.48.22.83.83,0,0,0-.19.58Z"/><path class="cls-2" d="M212.65,68.92h-.9V67.19a2.51,2.51,0,0,0-.06-.71.55.55,0,0,0-.18-.26.57.57,0,0,0-.32-.09.8.8,0,0,0-.42.13.71.71,0,0,0-.25.34,2.74,2.74,0,0,0-.07.78v1.54h-.9v-3.4h.84V66a1.36,1.36,0,0,1,1.12-.57,1.33,1.33,0,0,1,.54.1.91.91,0,0,1,.37.28.85.85,0,0,1,.18.37,3.16,3.16,0,0,1,.05.61Z"/><path class="cls-2" d="M215.12,65.52v.72h-.61v1.37a4.41,4.41,0,0,0,0,.48.25.25,0,0,0,.08.12.27.27,0,0,0,.16,0,1.4,1.4,0,0,0,.36-.08l.07.69a1.76,1.76,0,0,1-.71.14,1.27,1.27,0,0,1-.44-.08.71.71,0,0,1-.28-.21,1,1,0,0,1-.13-.35,4.32,4.32,0,0,1,0-.64V66.24h-.41v-.72h.41v-.67l.91-.53v1.2Z"/><path class="cls-2" d="M217.71,67.84l.9.15a1.48,1.48,0,0,1-.55.75,1.62,1.62,0,0,1-.93.26,1.5,1.5,0,0,1-1.31-.58,2.21,2.21,0,0,1,.1-2.5,1.63,1.63,0,0,1,2.32,0,2.22,2.22,0,0,1,.42,1.53H216.4a.89.89,0,0,0,.22.62.68.68,0,0,0,.52.23.56.56,0,0,0,.36-.12A.77.77,0,0,0,217.71,67.84Zm0-.91a.81.81,0,0,0-.2-.59.61.61,0,0,0-.47-.21.64.64,0,0,0-.48.22.83.83,0,0,0-.19.58Z"/><path class="cls-2" d="M222.48,68.92h-.9V67.19a2.51,2.51,0,0,0-.06-.71.49.49,0,0,0-.18-.26.54.54,0,0,0-.31-.09.75.75,0,0,0-.42.13.67.67,0,0,0-.26.34,3.18,3.18,0,0,0-.07.78v1.54h-.9v-3.4h.84V66a1.37,1.37,0,0,1,1.12-.57,1.33,1.33,0,0,1,.54.1.94.94,0,0,1,.38.28,1,1,0,0,1,.17.37,3.16,3.16,0,0,1,0,.61Z"/><path class="cls-2" d="M226.36,66.53l-.89.16a.66.66,0,0,0-.2-.4.64.64,0,0,0-.41-.14.66.66,0,0,0-.54.24,1.19,1.19,0,0,0-.2.77,1.45,1.45,0,0,0,.2.86.7.7,0,0,0,.55.25.6.6,0,0,0,.42-.15.9.9,0,0,0,.23-.5l.88.15a1.59,1.59,0,0,1-.53.92,1.61,1.61,0,0,1-1,.31,1.56,1.56,0,0,1-1.19-.47,1.81,1.81,0,0,1-.44-1.3,1.83,1.83,0,0,1,.44-1.32,1.59,1.59,0,0,1,1.2-.46,1.62,1.62,0,0,1,1,.26A1.53,1.53,0,0,1,226.36,66.53Z"/><path class="cls-2" d="M229,67.84l.89.15a1.41,1.41,0,0,1-.54.75,1.63,1.63,0,0,1-.94.26,1.52,1.52,0,0,1-1.31-.58,2,2,0,0,1-.33-1.17,1.86,1.86,0,0,1,.44-1.33,1.46,1.46,0,0,1,1.11-.47,1.49,1.49,0,0,1,1.2.5,2.22,2.22,0,0,1,.42,1.53H227.7a.89.89,0,0,0,.22.62.66.66,0,0,0,.51.23.54.54,0,0,0,.36-.12A.78.78,0,0,0,229,67.84Zm.05-.91a.9.9,0,0,0-.2-.59.62.62,0,0,0-.47-.21.64.64,0,0,0-.49.22.88.88,0,0,0-.19.58Z"/><path class="cls-2" d="M230.37,68l.9-.14a.69.69,0,0,0,.23.4.82.82,0,0,0,.5.14.85.85,0,0,0,.52-.13.29.29,0,0,0,.12-.24.25.25,0,0,0-.06-.17.89.89,0,0,0-.31-.12,4.72,4.72,0,0,1-1.38-.44.88.88,0,0,1-.4-.76.94.94,0,0,1,.35-.74,1.62,1.62,0,0,1,1.08-.3,1.92,1.92,0,0,1,1,.22,1.17,1.17,0,0,1,.47.68l-.85.15a.55.55,0,0,0-.21-.3.74.74,0,0,0-.43-.11,1,1,0,0,0-.51.1.21.21,0,0,0-.1.18.21.21,0,0,0,.09.17,3.44,3.44,0,0,0,.84.25,2.46,2.46,0,0,1,1,.4.82.82,0,0,1,.28.67,1,1,0,0,1-.39.8A1.68,1.68,0,0,1,232,69a1.94,1.94,0,0,1-1.1-.28A1.31,1.31,0,0,1,230.37,68Z"/><path class="cls-9" d="M75.53,28.6,76,27.11Q81,9.36,83.23,4c.24-.48.44-.87.61-1.14a4,4,0,0,1,.59-.75,4.51,4.51,0,0,1,.86-.67,6.93,6.93,0,0,1,4-1,2.44,2.44,0,0,1,1.58.33,2.28,2.28,0,0,1,.33,1.5c0,.6,0,1.24,0,1.93-.12,4-.18,6.82-.18,8.51q0,6.37.52,12.1.35,3.2,1,6.48a32.14,32.14,0,0,0,1.35,4.49,18.22,18.22,0,0,0,1.29,2.53A3.61,3.61,0,0,1,95.76,40a5.8,5.8,0,0,1-1.11,2.79q-1.86,2.86-3.72,2.86-2.61,0-4.74-3.57a15.3,15.3,0,0,1-1.72-3.85,27.08,27.08,0,0,1-1-5.23c-.22-2.08-.35-4.72-.42-7.92q-.15-5.21-.17-5.87h-.09l-2.21,6.72q-.88,2.7-1.44,4.47c-.38,1.17-.82,2.58-1.32,4.22q-2.4,7.86-3.14,9.49l-.17.3a2.2,2.2,0,0,1-.23.37,2.83,2.83,0,0,1-.81.81,1.54,1.54,0,0,1-.77.29c-.59,0-1.24-.59-2-1.75a18.88,18.88,0,0,1-1.87-4.5,59.34,59.34,0,0,1-1.33-5.94q-.51-3-.89-7.16c-.26-2.76-.48-6.12-.67-10.1H66L65,19.64c-.21.73-.54,1.85-1,3.36l-.75,2.64q-.87,3-1.81,6.06c-.63,2.05-1.13,3.62-1.52,4.73s-.81,2.2-1.27,3.28a20.69,20.69,0,0,1-1.11,2.16,10.9,10.9,0,0,1-2.7,2.91,4.86,4.86,0,0,1-2.79,1,1.19,1.19,0,0,1-.88-.4,1.41,1.41,0,0,1-.38-1,3.22,3.22,0,0,1,.56-1.5c.21-.4.67-1.41,1.36-3l1.22-3c.75-1.78,1.89-4.95,3.41-9.54l1-3Q61.9,13.64,63.14,9.7a30,30,0,0,0,1.24-4.57,2.77,2.77,0,0,0-.63-1.56,1.91,1.91,0,0,1-.48-1.1c0-.48.4-.94,1.21-1.37A5.5,5.5,0,0,1,67.13.45a4.41,4.41,0,0,1,4.1,2,16.77,16.77,0,0,1,1.4,5q.66,3.7,1.3,10.77c0,.26,0,.47.07.62s0,.27,0,.38,0,.25,0,.43a12.24,12.24,0,0,1,.12,1.23q.45,4.3.67,5.55A8.87,8.87,0,0,0,75.53,28.6Z"/><path class="cls-4" d="M104.29,7.78l.29-1.17a3.35,3.35,0,0,0-1.17.18,7.3,7.3,0,0,0-1.12.59,2.82,2.82,0,0,1-1.08.46.68.68,0,0,1-.59-.43,2.25,2.25,0,0,1-.23-1.06,6.13,6.13,0,0,1,.66-2.66,4.34,4.34,0,0,1,1.63-1.94A11.17,11.17,0,0,1,105.92.48,16.65,16.65,0,0,1,109.86,0a14.56,14.56,0,0,1,4,.5,8.52,8.52,0,0,1,3.11,1.6,11.13,11.13,0,0,1,2.4,2.72,13.36,13.36,0,0,1,1.58,3.8,18.38,18.38,0,0,1,.56,4.59,25,25,0,0,1-.56,4.92,34.87,34.87,0,0,1-1.55,5.32,23.3,23.3,0,0,1-2.18,4.39,12.57,12.57,0,0,1-3.47,3.54,6.91,6.91,0,0,1-3.83,1.45,2.11,2.11,0,0,1-1.3-.42,1.25,1.25,0,0,1-.56-1,3.53,3.53,0,0,1,.45-1.74,9.51,9.51,0,0,1,1.63-2A12.55,12.55,0,0,0,112,25.39a14.41,14.41,0,0,0,1.56-3.89,20.94,20.94,0,0,0,.5-4.94,16.3,16.3,0,0,0-.57-4.63,9.19,9.19,0,0,0-1.86-3.4l-2.92,14.81-.53,2.6q-.34,1.53-.92,5.27a56.77,56.77,0,0,1-2,8.94,12.19,12.19,0,0,1-1,2.17,10.15,10.15,0,0,1-2.56,2.45,5,5,0,0,1-2.65,1.06,1.33,1.33,0,0,1-1.17-.69,3.55,3.55,0,0,1-.43-1.92,26.63,26.63,0,0,1,.43-4q.44-2.62,1.78-9.44l.37-1.86.4-2Z"/><path class="cls-5" d="M135.77,9.89a31.15,31.15,0,0,0-2.12,3.75,30.35,30.35,0,0,0-1.43,4.21,25.81,25.81,0,0,0-.82,4.2,32.35,32.35,0,0,0-.32,5,41.23,41.23,0,0,0,.53,7.21,11.11,11.11,0,0,0,1.56,4.36,3,3,0,0,0,2.48,1.47,3.38,3.38,0,0,0,2.41-1.36,13.77,13.77,0,0,0,2.23-3.57,25.35,25.35,0,0,0,1.61-4.92,23.8,23.8,0,0,0,.61-5.25,25.62,25.62,0,0,0-2-9.48,10.23,10.23,0,0,1-.73-2.72,4.84,4.84,0,0,1,.94-2.73,15.16,15.16,0,0,1,2.45-2.88,3.84,3.84,0,0,1,2.16-1.26,1.8,1.8,0,0,1,1,.35,2.28,2.28,0,0,1,.78.88,12.06,12.06,0,0,1,1.1,4,41.12,41.12,0,0,1,.44,6.22,49.28,49.28,0,0,1-2,14.47,27.64,27.64,0,0,1-5.49,10.5c-2.32,2.58-4.82,3.87-7.52,3.87A8.89,8.89,0,0,1,129,44.91a10.91,10.91,0,0,1-3.72-3.65,18.57,18.57,0,0,1-2.41-10,35.42,35.42,0,0,1,.89-7.61,47.63,47.63,0,0,1,2.43-7.83,42.88,42.88,0,0,1,3.57-7,22.75,22.75,0,0,1,4.18-5,17.16,17.16,0,0,1,4.21-2.66,10.05,10.05,0,0,1,3.95-1q2.4,0,2.4,1.2A3.72,3.72,0,0,1,144,2.89a10.19,10.19,0,0,1-1.61,2,10.43,10.43,0,0,1-2.25,1.29,11.57,11.57,0,0,0-2.45,1.44A13.32,13.32,0,0,0,135.77,9.89Z"/><path class="cls-6" d="M165.55,26.22h-.08q-1.62,5-3.37,9.16a60.56,60.56,0,0,1-3.52,7.29,8.52,8.52,0,0,1-1.93,2,3.51,3.51,0,0,1-2,.88,1.12,1.12,0,0,1-.56-.22,1.58,1.58,0,0,1-.56-.61c-.71-1.22-1.29-4.36-1.72-9.42s-.66-11.19-.66-18.42q0-8.79.83-11.7a5.56,5.56,0,0,1,1-2,7.18,7.18,0,0,1,1.88-1.57A13.49,13.49,0,0,1,157.1.47,5.41,5.41,0,0,1,158.94,0a1.11,1.11,0,0,1,.94.47,2.14,2.14,0,0,1,.35,1.3,6.12,6.12,0,0,1-.09.9c-.31,2.07-.59,5-.86,8.74q-.28,3.73-.4,6.07t-.21,6.37q-.1,4-.12,8l.08.13c.64-1.28,1.31-2.83,2-4.63.26-.66.5-1.28.74-1.86s.5-1.26.79-2q1-2.73,1.73-5.33c.26-.8.48-1.61.68-2.43q3.17-11.13,4.46-12.89a5.55,5.55,0,0,1,2.17-1.58,6.68,6.68,0,0,1,2.82-.75,1.74,1.74,0,0,1,1.34.58,2.24,2.24,0,0,1,.53,1.55,20.48,20.48,0,0,1-.57,3.47q-1.09,5-1.78,11a95.79,95.79,0,0,0-.68,10.63q0,9.51,2.32,9.51c.44,0,.9-.54,1.35-1.6a20.31,20.31,0,0,0,1.18-4.07q.49-2.48.82-5.76a67.61,67.61,0,0,0,.32-6.76c0-1.38,0-3-.12-4.9,0-.51,0-1,0-1.44a13.14,13.14,0,0,1,2.53-7.41c.83-1.26,1.44-1.9,1.85-1.9,1,0,1.44,2.89,1.44,8.65a79.66,79.66,0,0,1-.84,11.78,55.17,55.17,0,0,1-2.89,11.49,36.14,36.14,0,0,1-2.3,4.92A20.6,20.6,0,0,1,175.87,44a4.72,4.72,0,0,1-3.52,1.84c-2.29,0-4-1.42-5.12-4.24s-1.68-7.2-1.68-13.11Z"/><path class="cls-7" d="M203.49,30.88l-7.65-.07v.83a10.7,10.7,0,0,0,.87,4.38c.59,1.31,1.24,2,1.95,2a6.91,6.91,0,0,0,3.15-1.27,33.59,33.59,0,0,0,4.69-3.63l.73-.7a11.14,11.14,0,0,0,1-1c.82-.82,1.33-1.23,1.54-1.23s.38.36.38,1.1a15.88,15.88,0,0,1-.27,2.72,28.71,28.71,0,0,1-.7,2.94,7.81,7.81,0,0,1-.83,2,16.25,16.25,0,0,1-4.09,3.68,27.92,27.92,0,0,1-5.88,3.13,5.93,5.93,0,0,1-1.84.33,8.35,8.35,0,0,1-5.25-1.85,12,12,0,0,1-3.7-5.07,19,19,0,0,1-1.31-7.19,33.35,33.35,0,0,1,.87-7.18,49.67,49.67,0,0,1,2.41-7.84,46.48,46.48,0,0,1,3.51-7.1,32.18,32.18,0,0,1,3.8-5.08A20.2,20.2,0,0,1,201,1.23,7,7,0,0,1,204.64,0a5.55,5.55,0,0,1,4.46,2.34A8.79,8.79,0,0,1,211,8a16.27,16.27,0,0,1-.34,3.18,13.92,13.92,0,0,1-.9,3A10.16,10.16,0,0,1,208,16.9a13.24,13.24,0,0,1-2.61,2.29,6.06,6.06,0,0,1-3,1.09c-.83,0-1.25-.32-1.25-1a4.12,4.12,0,0,1,.71-1.75,12.58,12.58,0,0,0,1.49-2.91,33.27,33.27,0,0,0,1.21-4.6A23.49,23.49,0,0,0,205,5.93c0-.82-.16-1.22-.47-1.22-.49,0-1.37.85-2.64,2.56a27.93,27.93,0,0,0-3,5.07,33.74,33.74,0,0,0-1.71,4.75,27.62,27.62,0,0,0-.9,4.76h11.16q1.83,0,1.83,1.5t-2.05,4.58C205.87,29.9,204.63,30.88,203.49,30.88Z"/><path class="cls-8" d="M218.85,10.44l.57-2.26a9.65,9.65,0,0,0-1.32.31,4,4,0,0,1-1.17.14c-.69,0-1-.54-1-1.62a6.48,6.48,0,0,1,.26-1.64,5.33,5.33,0,0,1,.6-1.43,5.45,5.45,0,0,1,3.07-1.79,19.48,19.48,0,0,1,5.48-.69,10.67,10.67,0,0,1,4.61,1,11.35,11.35,0,0,1,3.78,2.84,13.36,13.36,0,0,1,2.48,4.15,14.07,14.07,0,0,1,.9,5.09,18.65,18.65,0,0,1-.78,5.5,14.12,14.12,0,0,1-2.19,4.43,10.76,10.76,0,0,1-1.75,1.93,12.69,12.69,0,0,1-2.34,1.4,15,15,0,0,0,.7,1.79,17,17,0,0,0,1,1.76,18.12,18.12,0,0,0,5.38,4.88,2.91,2.91,0,0,0,.41.27,36.62,36.62,0,0,1-.71,4.1,16.78,16.78,0,0,1-1,2.82c-.87,1.81-1.9,2.71-3.11,2.71A4.32,4.32,0,0,1,230.17,45a10.12,10.12,0,0,1-2.41-2.77,28.51,28.51,0,0,1-1.35-2.89c-.41-1-.82-2.17-1.24-3.47s-.78-2.56-1.07-3.79-.52-2.3-.66-3.24a4.92,4.92,0,0,1,0-.76,2.06,2.06,0,0,1,.25-1.1,2.34,2.34,0,0,1,.94-.73,6.62,6.62,0,0,0,1.58-1.17,19.53,19.53,0,0,0,1.56-2,16.39,16.39,0,0,0,1.67-4.27,20.61,20.61,0,0,0,.61-4.93,10.1,10.1,0,0,0-.86-4.6,4.74,4.74,0,0,0-2.75-2.31q-1.83,10.39-3.63,19.55L222.32,29c-.75,4-1.36,7-1.86,8.9A15.82,15.82,0,0,1,219,42a8.93,8.93,0,0,1-2.29,2.33,4.76,4.76,0,0,1-2.44,1.14c-1.15,0-1.72-1.05-1.72-3.15A34.09,34.09,0,0,1,213,38c.32-2,.8-4.73,1.46-8s1.35-6.55,2.07-9.72S218,13.78,218.85,10.44Z"/><path class="cls-10" d="M14,6.7l-1.41,0c-4.42,0-7.09.49-7.09,7.24,0,5.25,2.73,7.2,10,7.2H47.61a11,11,0,0,1-1.26-2H12.61V17.48H45.69a12.25,12.25,0,0,1-.51-2.42H12.61V13.42H45.14a11.63,11.63,0,0,1,.42-2.65H12.61V9.13H46.14a12.32,12.32,0,0,1,1.45-2.42H14Z"/><path class="cls-11" d="M47.61,21.12H15.54c-7.32,0-10-1.95-10-7.2,0-6.75,2.67-7.24,7.09-7.24L14,6.7h33.6L48,6.26V5H4.19V23.39H48V21.55C47.84,21.41,47.72,21.27,47.61,21.12Z"/><path class="cls-11" d="M48,21.12h-.35c.11.15.23.29.35.43Z"/><path class="cls-11" d="M48,6.71V6.26l-.37.45Z"/><path class="cls-10" d="M14,27.17l-1.41,0c-4.42,0-7.09.48-7.09,7.24,0,5.25,2.73,7.2,10,7.2H47.61A11.28,11.28,0,0,1,46.1,39H12.61V37.42H45.53A11.42,11.42,0,0,1,45.15,35H12.61V33.37H45.17a11.74,11.74,0,0,1,.54-2.66H12.61V29.08H46.4a11.65,11.65,0,0,1,1.19-1.9H14Z"/><path class="cls-11" d="M48,42l-.35-.43H15.54c-7.32,0-10-2-10-7.2,0-6.76,2.67-7.24,7.09-7.24l1.41,0h33.6l.37-.45V25.48H4.19V43.85H48Z"/><path class="cls-11" d="M48,41.59h-.35L48,42Z"/><path class="cls-11" d="M48,27.18v-.45l-.37.45Z"/><path class="cls-12" d="M12.61,19.1H46.35a11.45,11.45,0,0,1-.66-1.62H12.61Z"/><path class="cls-12" d="M12.61,15.06H45.18c0-.38-.06-.76-.06-1.15,0-.17,0-.33,0-.49H12.61Z"/><path class="cls-12" d="M12.61,10.77h33a10.65,10.65,0,0,1,.58-1.64H12.61Z"/><path class="cls-12" d="M12.61,39H46.1a11.09,11.09,0,0,1-.57-1.62H12.61Z"/><path class="cls-12" d="M12.61,35H45.15c0-.21,0-.42,0-.63s0-.67.05-1H12.61Z"/><path class="cls-12" d="M12.61,30.71h33.1a11.72,11.72,0,0,1,.69-1.63H12.61Z"/><path class="cls-1" d="M14.41,1.16H12.92C9.39,1.15,0,1.15,0,14.22c0,8.65,5.34,13,15.87,13H49.8V21.42H15.87c-7.31,0-10-2-10-7.2C5.82,7.46,8.5,7,12.92,7l1.41,0H49.8V1.18H15.7l-1.29,0"/><path class="cls-1" d="M14.41,21.33H12.92C9.39,21.32,0,21.32,0,34.39c0,8.64,5.34,13,15.87,13H49.8V41.58H15.87c-7.31,0-10-1.94-10-7.19,0-6.76,2.68-7.25,7.1-7.25l1.41,0H49.8V21.35H15.7l-1.29,0"/><text class="cls-13" transform="translate(24.57 96.61)">中文字詞句教學平台</text></g></g></svg>