<svg xmlns="http://www.w3.org/2000/svg" xmlns:xlink="http://www.w3.org/1999/xlink" viewBox="0 0 157.03 86.41"><defs><style>.cls-1{fill:#552b8c;}.cls-2{fill:#b5b5b6;opacity:0.75;}.cls-3{fill:#dcdddd;}.cls-4{fill:#898989;}.cls-5{fill:#fff;}.cls-6{fill:url(#linear-gradient);}.cls-7{fill:url(#linear-gradient-2);}</style><linearGradient id="linear-gradient" x1="-673.43" y1="-16406.92" x2="-673.43" y2="-16401.57" gradientTransform="matrix(0, 1, 1, 0, 16512.4, 693.12)" gradientUnits="userSpaceOnUse"><stop offset="0" stop-color="#552b8c"/><stop offset="0.05" stop-color="#5b3290"/><stop offset="0.12" stop-color="#6a4499"/><stop offset="0.2" stop-color="#8462aa"/><stop offset="0.29" stop-color="#a88cc0"/><stop offset="0.38" stop-color="#d6c1dd"/><stop offset="0.4" stop-color="#e1cee4"/><stop offset="0.66" stop-color="#a183bc"/><stop offset="0.89" stop-color="#6a4499"/><stop offset="1" stop-color="#552b8c"/></linearGradient><linearGradient id="linear-gradient-2" x1="-673.43" y1="-16695.71" x2="-673.43" y2="-16690.35" gradientTransform="translate(-16606.66 693.12) rotate(90)" xlink:href="#linear-gradient"/></defs><g id="圖層_2" data-name="圖層 2"><g id="圖層_1-2" data-name="圖層 1"><path class="cls-1" d="M2.77,81.26c-.43-.73-.88-1.47-1.34-2.24S.49,77.5,0,76.77a2.41,2.41,0,0,1,1.71-.63,7.81,7.81,0,0,1,1.84.3,8.86,8.86,0,0,1,2.33,1A18.27,18.27,0,0,1,8.05,79a7.31,7.31,0,0,0,1.31,1,9.64,9.64,0,0,0,1.08.3l.83.1a3.68,3.68,0,0,0,3.3-1.46,4.79,4.79,0,0,0,1-2.5A3.26,3.26,0,0,0,14,73.83a16.28,16.28,0,0,0-4.84-2.2l-3.42-1c-.32-.12-.62-.25-.92-.39a7.5,7.5,0,0,1-1.12-.7,6,6,0,0,1-2.18-2.31A7,7,0,0,1,.88,64a4.43,4.43,0,0,1,.46-2A6,6,0,0,1,4.6,59.12a11.16,11.16,0,0,1,2.83-.57l1.14,0a15.71,15.71,0,0,1,1.85.23l1.6.27.68.1q.18,0,.78.06l.7,0A4.87,4.87,0,0,0,15.54,59l2.66,4.26a3.26,3.26,0,0,1-1.66.45,5.14,5.14,0,0,1-1.65-.35l-.6-.3h-.08l-2.52-1.79A5.72,5.72,0,0,0,8.5,60.06a2.79,2.79,0,0,0-.81.12,5.17,5.17,0,0,0-1.18.63,2.07,2.07,0,0,0-.79,1.9,2.22,2.22,0,0,0,.74,1.84,5.77,5.77,0,0,0,1.61.93c.58.22,1.18.43,1.79.61l2.57.79A18.76,18.76,0,0,1,17,68.8a5.74,5.74,0,0,1,2,2.34,8.83,8.83,0,0,1,.83,2.62,11.56,11.56,0,0,1-.3,2.88,5.94,5.94,0,0,1-1.11,2.2,6.68,6.68,0,0,1-1.68,1.62,8.42,8.42,0,0,1-2,.89,8.19,8.19,0,0,1-2.29.38c-.76,0-1.41,0-1.94,0a7.83,7.83,0,0,1-1.29-.11c-.42-.07-1.11-.23-2-.47L6.46,81a8.79,8.79,0,0,0-1.77-.21A4.54,4.54,0,0,0,2.77,81.26Z"/><path class="cls-1" d="M21.4,68.39a5.73,5.73,0,0,0-.62-1A9.68,9.68,0,0,0,23.55,67c1-.32,2-.63,2.85-1v1.86a4.85,4.85,0,0,1,2.27-1.55A7.36,7.36,0,0,1,30.5,66a3.72,3.72,0,0,1,2.66,1.35l.39.44.71-.64A5.25,5.25,0,0,1,37.4,66a10.62,10.62,0,0,1,1.15.11,3.11,3.11,0,0,1,1.61.84,2.18,2.18,0,0,1,.8,1.68V78.91a2.6,2.6,0,0,0,.15.82,3.58,3.58,0,0,0,.48,1l.39.51H35.65A4,4,0,0,0,36.29,79V70.38a1.77,1.77,0,0,0-.41-1.09L35.57,69a1.23,1.23,0,0,0-.62-.18,1,1,0,0,0-1,.45,3.71,3.71,0,0,0-.28.71,4.59,4.59,0,0,0,0,.76V79a3.33,3.33,0,0,0,.68,2.17h-6a3.11,3.11,0,0,0,.52-1,3.26,3.26,0,0,0,.18-1V70.1a1.17,1.17,0,0,0-.39-.9,1.36,1.36,0,0,0-.95-.37,1.16,1.16,0,0,0-.91.44,1.64,1.64,0,0,0-.38,1.11v8.94a3.22,3.22,0,0,0,.33,1.43l.28.45H20.83a3.57,3.57,0,0,0,.65-1A2.92,2.92,0,0,0,21.76,79V69.32a.85.85,0,0,0,0-.24A4.92,4.92,0,0,0,21.4,68.39Z"/><path class="cls-1" d="M49.64,71l.62-.17-.11-.73c-.17-.92-.83-1.38-2-1.38a5.41,5.41,0,0,0-1.64.29,9.19,9.19,0,0,0-2,1l-.51.31a3.86,3.86,0,0,1,.59-1.63,4.46,4.46,0,0,1,1.21-1.24,7.45,7.45,0,0,1,1.24-.71,8,8,0,0,1,1.43-.42,7.79,7.79,0,0,1,1.85-.22,4.29,4.29,0,0,1,3.2,1.18A5.78,5.78,0,0,1,55,70.71l1,8.66a2.36,2.36,0,0,0,.35.95,2.78,2.78,0,0,0,.77.87H51.55l-.11-.8c-.19.11-.35.21-.49.31a10.17,10.17,0,0,1-1.18.53,6.22,6.22,0,0,1-2.32.39,4.32,4.32,0,0,1-2.74-.88,3.72,3.72,0,0,1-1.42-2A7.84,7.84,0,0,1,43,77.07a4.15,4.15,0,0,1,.49-2,6.73,6.73,0,0,1,1.14-1.5A8.77,8.77,0,0,1,46.1,72.4a10.53,10.53,0,0,1,1.56-.8A18.24,18.24,0,0,1,49.64,71Zm.75.85a4.86,4.86,0,0,0-1.2,1,6,6,0,0,0-.88,1.52,4.47,4.47,0,0,0-.41,1.74v.64a3.8,3.8,0,0,0,.57,2.17,1.79,1.79,0,0,0,1.54.84,1.52,1.52,0,0,0,1.29-.67Z"/><path class="cls-1" d="M57.67,68.37l-.54-.57,1.38-.42,1.41-.44,1.43-.45L62.78,66v2.66l.42-.59a6.92,6.92,0,0,1,1.39-1.42,2.78,2.78,0,0,1,1-.45,6.5,6.5,0,0,1,.75-.07,2.37,2.37,0,0,1,1.83.75,2.8,2.8,0,0,1,.68,2,2.4,2.4,0,0,1-.56,1.71,1.91,1.91,0,0,1-1.48.6,3.32,3.32,0,0,1-1.37-.32,3.41,3.41,0,0,1-1.2-.84,1.06,1.06,0,0,0-.76.2,5.65,5.65,0,0,0-.73.56v8.68a1.61,1.61,0,0,0,.42,1.18,3,3,0,0,0,.66.56H57.12l.4-.42a2.59,2.59,0,0,0,.59-1.49V69.72A2.29,2.29,0,0,0,57.67,68.37Z"/><path class="cls-1" d="M69.92,68.65h-1.5A47,47,0,0,0,73,64.74l1.54-1.54v3.62H77v1.83H74.56v9.6c0,.79.46,1.19,1.38,1.19a2.54,2.54,0,0,0,.65-.09l.73-.24.37-.2A3.43,3.43,0,0,1,77,80.36a3.68,3.68,0,0,1-1.26,1,8.21,8.21,0,0,1-1,.42,2.26,2.26,0,0,1-.53.07H73.4A3.13,3.13,0,0,1,69.92,79V68.65Z"/><path class="cls-1" d="M142.29,81.69h-6.65l.46-.48a2.9,2.9,0,0,0,.56-1.65V69.7a1.93,1.93,0,0,0-1-1.77,9.67,9.67,0,0,0,2.75-.46c1-.31,2-.63,2.88-1V79.58a2.47,2.47,0,0,0,.34,1.13,8,8,0,0,0,.42.74A1.24,1.24,0,0,0,142.29,81.69Zm-3.42-16.32a3,3,0,0,1-2-.66,2.09,2.09,0,0,1-.8-1.68,2.61,2.61,0,0,1,.7-1.85,2.58,2.58,0,0,1,2-.73,2.76,2.76,0,0,1,2,.66,2.46,2.46,0,0,1,.69,1.87,2.29,2.29,0,0,1-.71,1.7A2.59,2.59,0,0,1,138.87,65.37Z"/><path class="cls-1" d="M149.34,81.94h-6.26l.48-.4a2,2,0,0,0,.54-1.37V69.8a1.51,1.51,0,0,0-.15-.61,2.78,2.78,0,0,0-.47-.68l-.34-.31a9.28,9.28,0,0,0,2.76-.47c1-.31,2-.64,2.84-1v1.54l.5-.34a5.36,5.36,0,0,1,2.84-1.1,4.41,4.41,0,0,1,2.85.78A3.45,3.45,0,0,1,156,70.11v8.63a4.12,4.12,0,0,0,.17,1.19,10.52,10.52,0,0,0,.62,1.56l.23.45h-6.28l.31-.56a2.76,2.76,0,0,0,.31-1v-10c0-.62-.39-.93-1.18-.93a2.71,2.71,0,0,0-.68.09A.82.82,0,0,0,149,70a3.39,3.39,0,0,0-.21,1.39v9.77C148.74,81.48,148.94,81.73,149.34,81.94Z"/><path class="cls-1" d="M104,81.69H97.35l.46-.48a2.83,2.83,0,0,0,.56-1.65V69.7a1.93,1.93,0,0,0-1-1.77,9.74,9.74,0,0,0,2.76-.46c1-.31,2-.63,2.87-1V79.58a2.47,2.47,0,0,0,.34,1.13c.24.43.37.68.42.74A1.34,1.34,0,0,0,104,81.69Zm-3.42-16.32a3,3,0,0,1-2-.66,2.09,2.09,0,0,1-.8-1.68,2.61,2.61,0,0,1,.7-1.85,2.58,2.58,0,0,1,2-.73,2.8,2.8,0,0,1,2,.66,2.49,2.49,0,0,1,.68,1.87,2.29,2.29,0,0,1-.71,1.7A2.58,2.58,0,0,1,100.59,65.37Z"/><path class="cls-1" d="M111.05,81.69h-6.26l.48-.39a2.06,2.06,0,0,0,.54-1.38V69.56a1.52,1.52,0,0,0-.15-.62,2.56,2.56,0,0,0-.47-.67l-.34-.31a9.61,9.61,0,0,0,2.76-.47c1-.32,2-.65,2.84-1V68l.51-.34a5.28,5.28,0,0,1,2.83-1.09,4.42,4.42,0,0,1,2.84.77,3.43,3.43,0,0,1,1.09,2.49v8.62a4.12,4.12,0,0,0,.17,1.19,10.52,10.52,0,0,0,.62,1.56l.23.45h-6.28l.31-.56a2.71,2.71,0,0,0,.31-1v-10c0-.62-.39-.93-1.18-.93a2.71,2.71,0,0,0-.68.09.86.86,0,0,0-.56.52,3.39,3.39,0,0,0-.21,1.39v9.77C110.45,81.23,110.65,81.48,111.05,81.69Z"/><path class="cls-1" d="M96.57,63.49a6.31,6.31,0,0,0-.82-2.1,4.62,4.62,0,0,0-1.6-1.47,5,5,0,0,0-2.49-.57,4.78,4.78,0,0,0-1.42.21,11.3,11.3,0,0,0-1.3.47c-.42.19-.83.37-1.24.57a9.47,9.47,0,0,1-.93.37l0-2.29-.32.11c-1,.3-1.88.59-2.79.86a13.94,13.94,0,0,1-2.79.57l-.45.05.28.35c.34.43.64.83.89,1.18A2.09,2.09,0,0,1,82,63V79.7a1.37,1.37,0,0,1-.39,1,6.48,6.48,0,0,1-.95.81l-.65.45h8l.11-.47a4.92,4.92,0,0,1-.7-.4,1.24,1.24,0,0,1-.34-.35,1.14,1.14,0,0,1-.16-.45,6.09,6.09,0,0,1,0-.83V77.55a1.57,1.57,0,0,1,.32-.89,5.9,5.9,0,0,1,.83-.92A8.35,8.35,0,0,1,89,75l.94-.57c.9-.52,1.81-1,2.7-1.6s3-1.69,3.7-3.75a9.17,9.17,0,0,0,.36-1.55,10.46,10.46,0,0,0,.13-1.55A13,13,0,0,0,96.57,63.49Zm-9.52,9.2V63.16c.11-.09,4-1,4.55,1a6.29,6.29,0,0,1,.26,1.45C92.1,70.68,88.4,71.9,87.05,72.69Z"/><path class="cls-1" d="M127.79,66.5l.4.73,1,1.87a4,4,0,0,1,.44,1.82,9.9,9.9,0,0,1-.11,1.35,10.11,10.11,0,0,1-.33,1.48,6.24,6.24,0,0,1-.56,1.32,3.25,3.25,0,0,1-.32.45l-4.7-10.12-.81.6-.06,0a9.48,9.48,0,0,1-1.77.71c-.64.18-1.29.35-1.93.49l-.84.19.59.63a10.42,10.42,0,0,1,1.11,1.47c.45.67.9,1.43,1.36,2.25s.94,1.74,1.43,2.69,1,1.88,1.39,2.78.85,1.74,1.22,2.53l.86,1.84a.63.63,0,0,1-.17.47,1.62,1.62,0,0,1-.75.21,10.57,10.57,0,0,1-1.23,0,7.37,7.37,0,0,0-1.4,0,2.42,2.42,0,0,0-1.26.48,1.82,1.82,0,0,0-.58,1.51,1.85,1.85,0,0,0,.36,1.17A2.38,2.38,0,0,0,122,86a3.49,3.49,0,0,0,1,.29,7,7,0,0,0,1,.08,4.72,4.72,0,0,0,1.41-.22,2.36,2.36,0,0,0,1.24-1,9.56,9.56,0,0,0,1.1-2.32c.26-.8.52-1.57.78-2.29s.71-1.93,1.18-3.18,1-2.54,1.53-3.82,1.13-2.51,1.74-3.65a14.2,14.2,0,0,1,1.75-2.63l.73-.82Z"/><path class="cls-1" d="M105.59,7c-.35-3.94-3.94-7-8.32-7s-8,3.09-8.33,7h0V25.58h0a8.35,8.35,0,0,0,16.65,0h0Z"/><path class="cls-2" d="M103.69,5.81a6.52,6.52,0,0,0-12.94,0h-.06V26.59a6.53,6.53,0,1,0,13.06,0V5.81Z"/><path class="cls-3" d="M96.7.26a4.33,4.33,0,0,0-4.31,4.36v24a4.31,4.31,0,1,0,8.62,0v-24A4.33,4.33,0,0,0,96.7.26Z"/><path class="cls-4" d="M98.29,9.61a1,1,0,1,1-1-1A1,1,0,0,1,98.29,9.61Z"/><path class="cls-4" d="M98.33,12.83a1,1,0,1,1-1-1A1,1,0,0,1,98.33,12.83Z"/><path class="cls-4" d="M98.33,16a1,1,0,1,1-1-1A1,1,0,0,1,98.33,16Z"/><path class="cls-4" d="M98.33,19a1,1,0,0,1-2,0,1,1,0,1,1,2,0Z"/><path class="cls-4" d="M98.33,22.06a1,1,0,0,1-2,0,1,1,0,0,1,2,0Z"/><path class="cls-4" d="M98.33,25.29a1,1,0,1,1-1-1A1,1,0,0,1,98.33,25.29Z"/><path class="cls-4" d="M95.7,11.22a1,1,0,1,1-1-1A1,1,0,0,1,95.7,11.22Z"/><path class="cls-4" d="M95.74,14.44a1,1,0,1,1-1-1A1,1,0,0,1,95.74,14.44Z"/><path class="cls-4" d="M95.74,17.58a1,1,0,0,1-2,0,1,1,0,1,1,2,0Z"/><path class="cls-4" d="M95.74,20.62a1,1,0,1,1-1-1A1,1,0,0,1,95.74,20.62Z"/><path class="cls-4" d="M95.74,23.67a1,1,0,0,1-2,0,1,1,0,0,1,2,0Z"/><path class="cls-4" d="M100.84,11.22a1,1,0,1,1-1-1A1,1,0,0,1,100.84,11.22Z"/><path class="cls-4" d="M100.88,14.44a1,1,0,1,1-1-1A1,1,0,0,1,100.88,14.44Z"/><path class="cls-4" d="M100.88,17.58a1,1,0,1,1-1-1A1,1,0,0,1,100.88,17.58Z"/><path class="cls-4" d="M100.88,20.62a1,1,0,1,1-1-1A1,1,0,0,1,100.88,20.62Z"/><path class="cls-4" d="M100.88,23.67a1,1,0,1,1-1-1A1,1,0,0,1,100.88,23.67Z"/><path class="cls-4" d="M103,9.61c0,.55-.34,1-.75,1s-.75-.45-.75-1,.34-1,.75-1S103,9.05,103,9.61Z"/><path class="cls-4" d="M103.06,12.83c0,.55-.34,1-.75,1s-.75-.45-.75-1,.34-1,.75-1S103.06,12.28,103.06,12.83Z"/><path class="cls-4" d="M103.06,16c0,.56-.34,1-.75,1s-.75-.45-.75-1,.34-1,.75-1S103.06,15.41,103.06,16Z"/><path class="cls-4" d="M103.06,19a.78.78,0,1,1-1.5,0c0-.56.34-1,.75-1S103.06,18.46,103.06,19Z"/><path class="cls-4" d="M103.06,22.06c0,.56-.34,1-.75,1s-.75-.44-.75-1,.34-1,.75-1S103.06,21.51,103.06,22.06Z"/><path class="cls-4" d="M103.06,25.29c0,.55-.34,1-.75,1s-.75-.45-.75-1,.34-1,.75-1S103.06,24.73,103.06,25.29Z"/><path class="cls-4" d="M93.18,9.61c0,.55-.33,1-.75,1s-.74-.45-.74-1,.33-1,.74-1S93.18,9.05,93.18,9.61Z"/><path class="cls-4" d="M93.21,12.83c0,.55-.33,1-.74,1s-.75-.45-.75-1,.33-1,.75-1S93.21,12.28,93.21,12.83Z"/><path class="cls-4" d="M93.21,16c0,.56-.33,1-.74,1s-.75-.45-.75-1,.33-1,.75-1S93.21,15.41,93.21,16Z"/><path class="cls-4" d="M93.21,19c0,.55-.33,1-.74,1s-.75-.44-.75-1,.33-1,.75-1S93.21,18.46,93.21,19Z"/><path class="cls-4" d="M93.21,22.06c0,.56-.33,1-.74,1s-.75-.44-.75-1,.33-1,.75-1S93.21,21.51,93.21,22.06Z"/><path class="cls-4" d="M93.21,25.29c0,.55-.33,1-.74,1s-.75-.45-.75-1,.33-1,.75-1S93.21,24.73,93.21,25.29Z"/><path class="cls-4" d="M104.79,11.35c0,.55-.23,1-.5,1s-.5-.45-.5-1,.22-1,.5-1S104.79,10.79,104.79,11.35Z"/><path class="cls-4" d="M104.81,14.57c0,.55-.23,1-.5,1s-.5-.45-.5-1,.22-1,.5-1S104.81,14,104.81,14.57Z"/><path class="cls-4" d="M104.81,17.71c0,.55-.23,1-.5,1s-.5-.45-.5-1,.22-1,.5-1S104.81,17.15,104.81,17.71Z"/><path class="cls-4" d="M104.81,20.76c0,.55-.23,1-.5,1s-.5-.45-.5-1,.22-1,.5-1S104.81,20.2,104.81,20.76Z"/><path class="cls-4" d="M104.81,23.8c0,.56-.23,1-.5,1s-.5-.45-.5-1,.22-1,.5-1S104.81,23.25,104.81,23.8Z"/><path class="cls-4" d="M91,11.39c0,.55-.22,1-.5,1s-.49-.45-.49-1,.22-1,.49-1S91,10.84,91,11.39Z"/><path class="cls-4" d="M91,14.62c0,.55-.22,1-.5,1s-.49-.45-.49-1,.22-1,.49-1S91,14.06,91,14.62Z"/><path class="cls-4" d="M91,17.75c0,.55-.22,1-.5,1s-.49-.45-.49-1,.22-1,.49-1S91,17.2,91,17.75Z"/><path class="cls-4" d="M91,20.8c0,.55-.22,1-.5,1s-.49-.45-.49-1,.22-1,.49-1S91,20.25,91,20.8Z"/><path class="cls-4" d="M91,23.85c0,.55-.22,1-.5,1s-.49-.45-.49-1,.22-1,.49-1S91,23.29,91,23.85Z"/><path class="cls-4" d="M105.59,9.87c0,.55-.13,1-.3,1s-.3-.45-.3-1,.14-1,.3-1S105.59,9.31,105.59,9.87Z"/><path class="cls-4" d="M105.61,13.09c0,.55-.14,1-.3,1s-.3-.45-.3-1,.13-1,.3-1S105.61,12.54,105.61,13.09Z"/><path class="cls-4" d="M105.61,16.23c0,.55-.14,1-.3,1s-.3-.45-.3-1,.13-1,.3-1S105.61,15.67,105.61,16.23Z"/><path class="cls-4" d="M105.61,19.28c0,.55-.14,1-.3,1s-.3-.45-.3-1,.13-1,.3-1S105.61,18.72,105.61,19.28Z"/><path class="cls-4" d="M105.61,22.33c0,.55-.14,1-.3,1s-.3-.45-.3-1,.13-1,.3-1S105.61,21.77,105.61,22.33Z"/><path class="cls-4" d="M105.61,25.55c0,.55-.14,1-.3,1s-.3-.45-.3-1,.13-1,.3-1S105.61,25,105.61,25.55Z"/><path class="cls-4" d="M89.52,9.7c0,.55-.13,1-.3,1s-.3-.44-.3-1,.14-1,.3-1S89.52,9.14,89.52,9.7Z"/><path class="cls-4" d="M89.53,12.92c0,.55-.13,1-.29,1s-.3-.45-.3-1,.13-1,.3-1S89.53,12.36,89.53,12.92Z"/><path class="cls-4" d="M89.53,16.05c0,.55-.13,1-.29,1s-.3-.45-.3-1,.13-1,.3-1S89.53,15.5,89.53,16.05Z"/><path class="cls-4" d="M89.53,19.1c0,.56-.13,1-.29,1s-.3-.44-.3-1,.13-1,.3-1S89.53,18.55,89.53,19.1Z"/><path class="cls-4" d="M89.53,22.15c0,.55-.13,1-.29,1s-.3-.45-.3-1,.13-1,.3-1S89.53,21.6,89.53,22.15Z"/><path class="cls-4" d="M89.53,25.37c0,.56-.13,1-.29,1s-.3-.44-.3-1,.13-1,.3-1S89.53,24.82,89.53,25.37Z"/><path class="cls-5" d="M97.38,1.46a2.14,2.14,0,0,1-1.26,2.69,2.15,2.15,0,0,1-2.93-.53A2.15,2.15,0,0,1,94.45.92,2.15,2.15,0,0,1,97.38,1.46Z"/><path class="cls-5" d="M98.31,9.28a1,1,0,1,1-1-1A1,1,0,0,1,98.31,9.28Z"/><path class="cls-5" d="M98.35,12.5a1,1,0,1,1-1-1A1,1,0,0,1,98.35,12.5Z"/><path class="cls-5" d="M98.35,15.64a1,1,0,1,1-1-1A1,1,0,0,1,98.35,15.64Z"/><path class="cls-5" d="M98.35,18.68a1,1,0,1,1-1-1A1,1,0,0,1,98.35,18.68Z"/><path class="cls-5" d="M98.35,21.73a1,1,0,1,1-1-1A1,1,0,0,1,98.35,21.73Z"/><path class="cls-5" d="M98.35,25a1,1,0,1,1-1-1A1,1,0,0,1,98.35,25Z"/><path class="cls-5" d="M95.72,10.89a1,1,0,1,1-1-1A1,1,0,0,1,95.72,10.89Z"/><path class="cls-5" d="M95.76,14.11a1,1,0,1,1-1-1A1,1,0,0,1,95.76,14.11Z"/><path class="cls-5" d="M95.76,17.25a1,1,0,1,1-1-1A1,1,0,0,1,95.76,17.25Z"/><path class="cls-5" d="M95.76,20.3a1,1,0,1,1-1-1A1,1,0,0,1,95.76,20.3Z"/><path class="cls-5" d="M95.76,23.35a1,1,0,1,1-1-1A1,1,0,0,1,95.76,23.35Z"/><path class="cls-5" d="M100.86,10.89a1,1,0,1,1-1-1A1,1,0,0,1,100.86,10.89Z"/><path class="cls-5" d="M100.9,14.11a1,1,0,1,1-1-1A1,1,0,0,1,100.9,14.11Z"/><path class="cls-5" d="M100.9,17.25a1,1,0,1,1-1-1A1,1,0,0,1,100.9,17.25Z"/><path class="cls-5" d="M100.9,20.3a1,1,0,1,1-1-1A1,1,0,0,1,100.9,20.3Z"/><path class="cls-5" d="M100.9,23.35a1,1,0,1,1-1-1A1,1,0,0,1,100.9,23.35Z"/><path class="cls-5" d="M103.05,9.28c0,.55-.34,1-.75,1s-.74-.45-.74-1,.33-1,.74-1S103.05,8.73,103.05,9.28Z"/><path class="cls-5" d="M103.08,12.5c0,.56-.34,1-.75,1s-.74-.44-.74-1,.33-1,.74-1S103.08,12,103.08,12.5Z"/><path class="cls-5" d="M103.08,15.64c0,.55-.34,1-.75,1s-.74-.45-.74-1,.33-1,.74-1S103.08,15.09,103.08,15.64Z"/><path class="cls-5" d="M103.08,18.68c0,.56-.34,1-.75,1s-.74-.45-.74-1,.33-1,.74-1A.9.9,0,0,1,103.08,18.68Z"/><path class="cls-5" d="M103.08,21.73c0,.56-.34,1-.75,1s-.74-.45-.74-1,.33-1,.74-1S103.08,21.18,103.08,21.73Z"/><path class="cls-5" d="M103.08,25c0,.55-.34,1-.75,1s-.74-.45-.74-1,.33-1,.74-1S103.08,24.41,103.08,25Z"/><path class="cls-5" d="M93.2,9.28c0,.55-.33,1-.74,1s-.75-.45-.75-1,.33-1,.75-1S93.2,8.73,93.2,9.28Z"/><path class="cls-5" d="M93.23,12.5c0,.56-.33,1-.74,1s-.75-.44-.75-1,.34-1,.75-1S93.23,12,93.23,12.5Z"/><path class="cls-5" d="M93.23,15.64c0,.55-.33,1-.74,1s-.75-.45-.75-1,.34-1,.75-1S93.23,15.09,93.23,15.64Z"/><path class="cls-5" d="M93.23,18.68c0,.56-.33,1-.74,1s-.75-.45-.75-1a.9.9,0,0,1,.75-1C92.9,17.69,93.23,18.13,93.23,18.68Z"/><path class="cls-5" d="M93.23,21.73c0,.56-.33,1-.74,1s-.75-.45-.75-1,.34-1,.75-1S93.23,21.18,93.23,21.73Z"/><path class="cls-5" d="M93.23,25c0,.55-.33,1-.74,1s-.75-.45-.75-1,.34-1,.75-1S93.23,24.41,93.23,25Z"/><path class="cls-5" d="M104.81,11c0,.55-.22,1-.5,1s-.5-.45-.5-1,.22-1,.5-1S104.81,10.47,104.81,11Z"/><path class="cls-5" d="M104.83,14.25c0,.55-.22,1-.5,1s-.5-.45-.5-1,.22-1,.5-1S104.83,13.69,104.83,14.25Z"/><path class="cls-5" d="M104.83,17.38c0,.55-.22,1-.5,1s-.5-.45-.5-1,.22-1,.5-1S104.83,16.83,104.83,17.38Z"/><path class="cls-5" d="M104.83,20.43c0,.55-.22,1-.5,1s-.5-.45-.5-1,.22-1,.5-1S104.83,19.88,104.83,20.43Z"/><path class="cls-5" d="M104.83,23.48c0,.55-.22,1-.5,1s-.5-.45-.5-1,.22-1,.5-1S104.83,22.93,104.83,23.48Z"/><path class="cls-5" d="M91,11.06c0,.56-.22,1-.5,1s-.49-.45-.49-1,.22-1,.49-1S91,10.51,91,11.06Z"/><path class="cls-5" d="M91.07,14.29c0,.55-.23,1-.5,1s-.5-.45-.5-1,.22-1,.5-1S91.07,13.73,91.07,14.29Z"/><path class="cls-5" d="M91.07,17.43c0,.55-.23,1-.5,1s-.5-.44-.5-1,.22-1,.5-1S91.07,16.87,91.07,17.43Z"/><path class="cls-5" d="M91.07,20.47c0,.56-.23,1-.5,1s-.5-.44-.5-1,.22-1,.5-1S91.07,19.92,91.07,20.47Z"/><path class="cls-5" d="M91.07,23.52c0,.55-.23,1-.5,1s-.5-.45-.5-1,.22-1,.5-1S91.07,23,91.07,23.52Z"/><path class="cls-5" d="M105.62,9.54c0,.55-.14,1-.3,1s-.3-.45-.3-1,.13-1,.3-1S105.62,9,105.62,9.54Z"/><path class="cls-5" d="M105.63,12.76c0,.56-.13,1-.3,1s-.3-.44-.3-1,.13-1,.3-1S105.63,12.21,105.63,12.76Z"/><path class="cls-5" d="M105.63,15.9c0,.55-.13,1-.3,1s-.3-.45-.3-1,.13-1,.3-1S105.63,15.35,105.63,15.9Z"/><path class="cls-5" d="M105.63,19c0,.55-.13,1-.3,1s-.3-.45-.3-1,.13-1,.3-1S105.63,18.4,105.63,19Z"/><path class="cls-5" d="M105.63,22c0,.55-.13,1-.3,1s-.3-.45-.3-1,.13-1,.3-1S105.63,21.44,105.63,22Z"/><path class="cls-5" d="M105.63,25.22c0,.55-.13,1-.3,1s-.3-.45-.3-1,.13-1,.3-1S105.63,24.67,105.63,25.22Z"/><path class="cls-5" d="M89.54,9.36c0,.56-.13,1-.3,1s-.3-.45-.3-1,.14-1,.3-1S89.54,8.81,89.54,9.36Z"/><path class="cls-5" d="M89.56,12.59c0,.55-.14,1-.3,1s-.3-.45-.3-1,.13-1,.3-1S89.56,12,89.56,12.59Z"/><path class="cls-5" d="M89.56,15.73c0,.55-.14,1-.3,1s-.3-.45-.3-1,.13-1,.3-1S89.56,15.17,89.56,15.73Z"/><path class="cls-5" d="M89.56,18.77c0,.56-.14,1-.3,1s-.3-.45-.3-1,.13-1,.3-1S89.56,18.22,89.56,18.77Z"/><path class="cls-5" d="M89.56,21.82c0,.56-.14,1-.3,1s-.3-.44-.3-1,.13-1,.3-1S89.56,21.27,89.56,21.82Z"/><path class="cls-5" d="M89.56,25c0,.56-.14,1-.3,1s-.3-.45-.3-1,.13-1,.3-1S89.56,24.49,89.56,25Z"/><path class="cls-1" d="M96.53,52.46a1.79,1.79,0,0,1-1.78-2.65l1.43-3.5c.6-1.45,1.57-1.45,2.17,0l1.43,3.5A1.79,1.79,0,0,1,98,52.46Z"/><path class="cls-1" d="M86.88,44.68a.79.79,0,1,0,0,1.58h20.77a.79.79,0,1,0,0-1.58Z"/><path class="cls-1" d="M107.37,19V29.45a4.51,4.51,0,0,1-3.43,4.73c-.71,0-9.37.07-13.1,0-3.17,0-3.64-4.18-3.66-4.35V20.2H85.6v9.71c.2,2.05,1.54,5.8,5.21,5.86,3.89.07,13.13,0,13.23,0h.13A6.14,6.14,0,0,0,109,29.33V19Z"/><path class="cls-6" d="M109.46,19.23v2.21h-2.61V19.23a1.31,1.31,0,0,1,2.61,0Z"/><path class="cls-7" d="M85.07,19.23v2.21h2.61V19.23a1.31,1.31,0,0,0-2.61,0Z"/><path class="cls-1" d="M91,40.29c0,3,2.83,5.34,6.32,5.34s6.31-2.39,6.31-5.34S100.75,35,97.27,35,91,37.34,91,40.29Zm1.59,0c0-2.07,2.12-3.76,4.73-3.76S102,38.22,102,40.29,99.87,44,97.27,44,92.54,42.36,92.54,40.29Z"/><path class="cls-1" d="M76.54.69a37.83,37.83,0,0,1-22.1,0A.79.79,0,0,0,54,2.21a39.43,39.43,0,0,0,23,0,.79.79,0,0,0,.52-1A.78.78,0,0,0,76.54.69Z"/><path class="cls-1" d="M82.35,6.1a51.42,51.42,0,0,1-33.72,0,.79.79,0,1,0-.54,1.49,53.06,53.06,0,0,0,34.79,0,.79.79,0,0,0,.48-1A.78.78,0,0,0,82.35,6.1Z"/><path class="cls-1" d="M59.37,10.79A4.29,4.29,0,0,0,58,13.94c0,3,3,5.59,6.66,5.6H66.3c3.61,0,6.66-2.57,6.66-5.6h0a4.33,4.33,0,0,0-1.35-3.15,7.35,7.35,0,0,0-5.33-1.85H64.69A7.34,7.34,0,0,0,59.37,10.79Zm.24,3.15a2.75,2.75,0,0,1,.87-2,5.82,5.82,0,0,1,4.19-1.4H66.3a5.83,5.83,0,0,1,4.2,1.4,2.74,2.74,0,0,1,.87,2h0c0,2.17-2.32,4-5.08,4h-1.6C61.93,18,59.61,16.11,59.61,13.94Z"/><path class="cls-1" d="M64.7,19.42V35.3a.79.79,0,0,0,1.58,0V19.42a.79.79,0,0,0-1.58,0Z"/><path class="cls-1" d="M78.47,16.78v4.38c0,2-2.19,3.69-4.9,3.69-5.29.07-10.87.07-16.16,0-2.71,0-4.91-1.6-4.91-3.55V17.05a.79.79,0,0,0-1.58,0V21.3c0,2.82,2.9,5.13,6.48,5.14,5.29.06,10.89.07,16.19,0,3.57,0,6.47-2.38,6.47-5.28V16.78a.79.79,0,0,0-.79-.79A.79.79,0,0,0,78.47,16.78Z"/><path class="cls-1" d="M55.21,43.1a.79.79,0,0,0,.28,1.56,57.42,57.42,0,0,1,20,0,.79.79,0,0,0,.28-1.56A58.68,58.68,0,0,0,55.21,43.1Z"/><path class="cls-1" d="M61,35.19c-3.56.12-6.57,3-6.57,6.29V47.4c0,3.39,4.18,4.67,4.36,4.73l.22,0H71.92l.23,0c.18-.06,4.36-1.34,4.36-4.73h0V41.48c0-3.29-3-6.17-6.58-6.29C67,35.07,64,35.07,61,35.19Zm-5,12.21V41.48a5.07,5.07,0,0,1,5-4.7c2.92-.12,5.87-.12,8.79,0a5.07,5.07,0,0,1,5,4.7V47.4c0,2-2.65,3-3.13,3.17H59.18C58.71,50.41,56.05,49.42,56.05,47.4Z"/><path class="cls-1" d="M54.47,34.24v6.93a.79.79,0,0,0,1.58,0V34.24a.79.79,0,1,0-1.58,0Z"/><path class="cls-1" d="M74.92,34.24v6.93a.79.79,0,0,0,.79.79.79.79,0,0,0,.8-.79V34.24a.8.8,0,0,0-.8-.8A.79.79,0,0,0,74.92,34.24Z"/></g></g></svg>