<svg xmlns="http://www.w3.org/2000/svg" viewBox="0 0 157.03 27.85"><defs><style>.cls-1{fill:#552b8c;}</style></defs><g id="圖層_2" data-name="圖層 2"><g id="圖層_1-2" data-name="圖層 1"><path class="cls-1" d="M2.77,22.71c-.43-.73-.88-1.48-1.34-2.24S.49,19,0,18.22a2.41,2.41,0,0,1,1.71-.64,7.93,7.93,0,0,1,1.84.31,8.54,8.54,0,0,1,2.33,1,17.18,17.18,0,0,1,2.17,1.53,7.31,7.31,0,0,0,1.31,1,9.64,9.64,0,0,0,1.08.3l.83.09a3.68,3.68,0,0,0,3.3-1.46,4.73,4.73,0,0,0,1-2.49A3.26,3.26,0,0,0,14,15.28a16.28,16.28,0,0,0-4.84-2.2L5.75,12c-.32-.12-.62-.25-.92-.39A9.65,9.65,0,0,1,3.71,11,6,6,0,0,1,1.53,8.64,7,7,0,0,1,.88,5.47a4.36,4.36,0,0,1,.46-2,5.85,5.85,0,0,1,1.3-1.69A5.93,5.93,0,0,1,4.6.56,11.2,11.2,0,0,1,7.43,0H8.57a16.32,16.32,0,0,1,1.85.24L12,.52l.68.09q.18,0,.78.06l.7,0A4.53,4.53,0,0,0,15.54.45L18.2,4.71a3.18,3.18,0,0,1-1.66.46,4.93,4.93,0,0,1-1.65-.36l-.6-.29h-.08L11.69,2.73A5.64,5.64,0,0,0,8.5,1.51a2.79,2.79,0,0,0-.81.12,5.46,5.46,0,0,0-1.18.62,2.09,2.09,0,0,0-.79,1.91A2.23,2.23,0,0,0,6.46,6a6.31,6.31,0,0,0,1.61.93c.58.22,1.18.42,1.79.6l2.57.8A18.82,18.82,0,0,1,17,10.24a5.7,5.7,0,0,1,2,2.35,8.75,8.75,0,0,1,.83,2.62,11.53,11.53,0,0,1-.3,2.87,6,6,0,0,1-1.11,2.21,6.46,6.46,0,0,1-1.68,1.61,8.06,8.06,0,0,1-2,.9,8.57,8.57,0,0,1-2.29.38l-1.94,0a7.84,7.84,0,0,1-1.29-.1c-.42-.08-1.11-.23-2-.47l-.74-.16a8.79,8.79,0,0,0-1.77-.21A4.56,4.56,0,0,0,2.77,22.71Z"/><path class="cls-1" d="M21.4,9.84a5.42,5.42,0,0,0-.62-1,9.34,9.34,0,0,0,2.77-.47c1-.31,2-.63,2.85-1V9.32a5,5,0,0,1,2.27-1.56,7.75,7.75,0,0,1,1.83-.3,3.72,3.72,0,0,1,2.66,1.35l.39.44.71-.65A5.3,5.3,0,0,1,37.4,7.46a10.62,10.62,0,0,1,1.15.11,3.09,3.09,0,0,1,1.61.83,2.18,2.18,0,0,1,.8,1.68V20.36a2.65,2.65,0,0,0,.15.82,3.58,3.58,0,0,0,.48,1l.39.51H35.65a4,4,0,0,0,.64-2.24V11.83a1.79,1.79,0,0,0-.41-1.1l-.31-.27a1.23,1.23,0,0,0-.62-.18,1,1,0,0,0-1,.45,3.48,3.48,0,0,0-.28.71,4.59,4.59,0,0,0,0,.76v8.27a3.34,3.34,0,0,0,.68,2.18h-6a3.38,3.38,0,0,0,.7-2V11.54a1.2,1.2,0,0,0-.39-.9,1.36,1.36,0,0,0-.95-.36,1.15,1.15,0,0,0-.91.43,1.67,1.67,0,0,0-.38,1.12v8.93a3.24,3.24,0,0,0,.33,1.44l.28.45H20.83a3.71,3.71,0,0,0,.65-1,3,3,0,0,0,.28-1.18V10.77a.85.85,0,0,0,0-.24A4,4,0,0,0,21.4,9.84Z"/><path class="cls-1" d="M49.64,12.41l.62-.17-.11-.73c-.17-.92-.83-1.38-2-1.38a5.15,5.15,0,0,0-1.64.3,9.19,9.19,0,0,0-2,1l-.51.31a3.81,3.81,0,0,1,.59-1.63,4.46,4.46,0,0,1,1.21-1.24,6.94,6.94,0,0,1,1.24-.72,8.9,8.9,0,0,1,1.43-.42,8.33,8.33,0,0,1,1.85-.21,4.25,4.25,0,0,1,3.2,1.18A5.78,5.78,0,0,1,55,12.16l1,8.65a2.4,2.4,0,0,0,.35,1,3,3,0,0,0,.77.87H51.55l-.11-.81-.49.31a8.17,8.17,0,0,1-1.18.54,6.22,6.22,0,0,1-2.32.39,4.38,4.38,0,0,1-2.74-.88,3.78,3.78,0,0,1-1.42-2A7.74,7.74,0,0,1,43,18.51a4.14,4.14,0,0,1,.49-2A6.73,6.73,0,0,1,44.64,15a8.27,8.27,0,0,1,1.46-1.14,9.65,9.65,0,0,1,1.56-.8A20.41,20.41,0,0,1,49.64,12.41Zm.75.86a4.47,4.47,0,0,0-1.2,1,6.14,6.14,0,0,0-.88,1.51,4.55,4.55,0,0,0-.41,1.74v.65a3.77,3.77,0,0,0,.57,2.16,1.79,1.79,0,0,0,1.54.84,1.5,1.5,0,0,0,1.29-.67Z"/><path class="cls-1" d="M57.67,9.81l-.54-.56,1.38-.42,1.41-.45,1.43-.45,1.43-.47v2.66l.42-.59a6.67,6.67,0,0,1,1.39-1.42,2.78,2.78,0,0,1,1-.45,4.83,4.83,0,0,1,.75-.07,2.37,2.37,0,0,1,1.83.75,2.77,2.77,0,0,1,.68,2,2.37,2.37,0,0,1-.56,1.7,1.89,1.89,0,0,1-1.48.61,3.48,3.48,0,0,1-1.37-.32,3.41,3.41,0,0,1-1.2-.84,1.1,1.1,0,0,0-.76.19,5.73,5.73,0,0,0-.73.57V20.9a1.59,1.59,0,0,0,.42,1.18,3.15,3.15,0,0,0,.66.57H57.12l.4-.43a2.56,2.56,0,0,0,.59-1.49V11.16A2.34,2.34,0,0,0,57.67,9.81Z"/><path class="cls-1" d="M69.92,10.09h-1.5A45.65,45.65,0,0,0,73,6.19l1.54-1.55V8.27H77v1.82H74.56V19.7c0,.79.46,1.18,1.38,1.18a2.51,2.51,0,0,0,.65-.08l.73-.25.37-.19A3.49,3.49,0,0,1,77,21.81a3.81,3.81,0,0,1-1.26,1,6.34,6.34,0,0,1-1,.41,1.83,1.83,0,0,1-.53.07H73.4a3.12,3.12,0,0,1-3.48-2.81V10.09Z"/><path class="cls-1" d="M142.29,23.14h-6.65l.46-.48a2.93,2.93,0,0,0,.56-1.66V11.15a1.92,1.92,0,0,0-1-1.77,9.72,9.72,0,0,0,2.75-.47c1-.31,2-.62,2.88-.94V21a2.43,2.43,0,0,0,.34,1.12q.35.64.42.75A2.3,2.3,0,0,0,142.29,23.14ZM138.87,6.81a3,3,0,0,1-2-.66,2.09,2.09,0,0,1-.8-1.67,2.58,2.58,0,0,1,.7-1.85,2.58,2.58,0,0,1,2-.73,2.76,2.76,0,0,1,2,.66,2.45,2.45,0,0,1,.69,1.86,2.26,2.26,0,0,1-.71,1.7A2.59,2.59,0,0,1,138.87,6.81Z"/><path class="cls-1" d="M149.34,23.38h-6.26l.48-.39a2,2,0,0,0,.54-1.38V11.25a1.55,1.55,0,0,0-.15-.62,2.74,2.74,0,0,0-.47-.67l-.34-.31a9.61,9.61,0,0,0,2.76-.47c1-.31,2-.64,2.84-1V9.73l.5-.33a5.36,5.36,0,0,1,2.84-1.1,4.47,4.47,0,0,1,2.85.77A3.5,3.5,0,0,1,156,11.56v8.62a4.19,4.19,0,0,0,.17,1.2,10.06,10.06,0,0,0,.62,1.55l.23.45h-6.28l.31-.56a2.66,2.66,0,0,0,.31-1v-10c0-.61-.39-.92-1.18-.92a3.23,3.23,0,0,0-.68.08.86.86,0,0,0-.56.52,3.42,3.42,0,0,0-.21,1.39v9.77C148.74,22.92,148.94,23.18,149.34,23.38Z"/><path class="cls-1" d="M104,23.14H97.35l.46-.48A2.86,2.86,0,0,0,98.37,21V11.15a1.92,1.92,0,0,0-1-1.77,9.78,9.78,0,0,0,2.76-.47c1-.31,2-.62,2.87-.94V21a2.43,2.43,0,0,0,.34,1.12c.24.43.37.68.42.75A2.65,2.65,0,0,0,104,23.14ZM100.59,6.81a3,3,0,0,1-2-.66,2.09,2.09,0,0,1-.8-1.67,2.58,2.58,0,0,1,.7-1.85,2.58,2.58,0,0,1,2-.73,2.8,2.8,0,0,1,2,.66,2.49,2.49,0,0,1,.68,1.86,2.26,2.26,0,0,1-.71,1.7A2.58,2.58,0,0,1,100.59,6.81Z"/><path class="cls-1" d="M111.05,23.14h-6.26l.48-.4a2,2,0,0,0,.54-1.37V11a1.51,1.51,0,0,0-.15-.61,2.78,2.78,0,0,0-.47-.68l-.34-.31a9.28,9.28,0,0,0,2.76-.47c1-.31,2-.64,2.84-1V9.49l.51-.34a5.3,5.3,0,0,1,2.83-1.1,4.36,4.36,0,0,1,2.84.78,3.42,3.42,0,0,1,1.09,2.48v8.62a4.14,4.14,0,0,0,.17,1.2,10.52,10.52,0,0,0,.62,1.56l.23.45h-6.28l.31-.57a2.67,2.67,0,0,0,.31-1v-10c0-.62-.39-.93-1.18-.93a3.23,3.23,0,0,0-.68.08.88.88,0,0,0-.56.52,3.42,3.42,0,0,0-.21,1.39v9.78C110.45,22.68,110.65,22.93,111.05,23.14Z"/><path class="cls-1" d="M96.57,4.94a6.23,6.23,0,0,0-.82-2.1,4.55,4.55,0,0,0-1.6-1.48A5.56,5.56,0,0,0,90.24,1a11.38,11.38,0,0,0-1.3.48L87.7,2a7.5,7.5,0,0,1-.93.37l0-2.28-.32.1-2.79.87a15.49,15.49,0,0,1-2.79.57l-.45.05.28.35c.34.43.64.82.89,1.18A2.07,2.07,0,0,1,82,4.49V21.14a1.39,1.39,0,0,1-.39,1,6.4,6.4,0,0,1-.95.8l-.65.45h8l.11-.47a4.17,4.17,0,0,1-.7-.39,1.24,1.24,0,0,1-.34-.35,1.14,1.14,0,0,1-.16-.45,6.16,6.16,0,0,1,0-.84V19a1.57,1.57,0,0,1,.32-.89,5.12,5.12,0,0,1,.83-.92,7.46,7.46,0,0,1,1-.78l.94-.58c.9-.51,1.81-1.05,2.7-1.59s3-1.7,3.7-3.75a9.06,9.06,0,0,0,.36-1.56,10.35,10.35,0,0,0,.13-1.55A12.79,12.79,0,0,0,96.57,4.94Zm-9.52,9.2V4.6c.11-.08,4-1,4.55,1A6.39,6.39,0,0,1,91.86,7C92.1,12.13,88.4,13.34,87.05,14.14Z"/><path class="cls-1" d="M127.79,7.94l.4.73c.33.61.66,1.24,1,1.88a4,4,0,0,1,.44,1.82,9.64,9.64,0,0,1-.11,1.34,9.83,9.83,0,0,1-.33,1.48,6.11,6.11,0,0,1-.56,1.33,4,4,0,0,1-.32.45l-4.7-10.13-.81.61-.06,0a8.29,8.29,0,0,1-1.77.71c-.64.19-1.29.35-1.93.5l-.84.19.59.63A9.86,9.86,0,0,1,119.9,11c.45.67.9,1.43,1.36,2.25s.94,1.74,1.43,2.69,1,1.87,1.39,2.77.85,1.75,1.22,2.53l.86,1.85a.6.6,0,0,1-.17.46,1.41,1.41,0,0,1-.75.21,7.46,7.46,0,0,1-1.23,0,7.31,7.31,0,0,0-1.4,0,2.42,2.42,0,0,0-1.26.48,1.82,1.82,0,0,0-.58,1.51,1.87,1.87,0,0,0,.36,1.17,2.38,2.38,0,0,0,.83.65,3.49,3.49,0,0,0,1,.29,7,7,0,0,0,1,.07,4.43,4.43,0,0,0,1.41-.22,2.34,2.34,0,0,0,1.24-1,9.56,9.56,0,0,0,1.1-2.32c.26-.8.52-1.58.78-2.3l1.18-3.18c.47-1.25,1-2.54,1.53-3.81s1.13-2.52,1.74-3.65a13.87,13.87,0,0,1,1.75-2.63l.73-.83Z"/></g></g></svg>