<svg xmlns="http://www.w3.org/2000/svg" xmlns:xlink="http://www.w3.org/1999/xlink" viewBox="0 0 230.89 52.46"><defs><style>.cls-1{fill:#552b8c;}.cls-2{fill:#b5b5b6;opacity:0.75;}.cls-3{fill:#dcdddd;}.cls-4{fill:#898989;}.cls-5{fill:#fff;}.cls-6{fill:url(#linear-gradient);}.cls-7{fill:url(#linear-gradient-2);}</style><linearGradient id="linear-gradient" x1="-1260.39" y1="-15867.53" x2="-1260.39" y2="-15862.17" gradientTransform="matrix(0, 1, 1, 0, 15925.44, 1280.08)" gradientUnits="userSpaceOnUse"><stop offset="0" stop-color="#552b8c"/><stop offset="0.05" stop-color="#5b3290"/><stop offset="0.12" stop-color="#6a4499"/><stop offset="0.2" stop-color="#8462aa"/><stop offset="0.29" stop-color="#a88cc0"/><stop offset="0.38" stop-color="#d6c1dd"/><stop offset="0.4" stop-color="#e1cee4"/><stop offset="0.66" stop-color="#a183bc"/><stop offset="0.89" stop-color="#6a4499"/><stop offset="1" stop-color="#552b8c"/></linearGradient><linearGradient id="linear-gradient-2" x1="-1260.39" y1="-15883.44" x2="-1260.39" y2="-15878.08" gradientTransform="translate(-15841.96 1280.08) rotate(90)" xlink:href="#linear-gradient"/></defs><g id="圖層_2" data-name="圖層 2"><g id="圖層_1-2" data-name="圖層 1"><path class="cls-1" d="M76.63,36.41l-1.34-2.25c-.46-.77-.94-1.51-1.43-2.24a2.41,2.41,0,0,1,1.72-.64,7.89,7.89,0,0,1,1.84.3,9.2,9.2,0,0,1,2.33,1,16.89,16.89,0,0,1,2.17,1.53,7.22,7.22,0,0,0,1.31,1,10,10,0,0,0,1.08.31l.82.09A3.67,3.67,0,0,0,88.43,34a4.81,4.81,0,0,0,1-2.5A3.23,3.23,0,0,0,87.87,29,16.14,16.14,0,0,0,83,26.77l-3.42-1c-.31-.12-.62-.26-.91-.4a7,7,0,0,1-1.12-.7,6,6,0,0,1-2.19-2.31,7.06,7.06,0,0,1-.65-3.16,4.43,4.43,0,0,1,.46-2,6,6,0,0,1,3.26-2.87,11.2,11.2,0,0,1,2.83-.56h1.14a15.47,15.47,0,0,1,1.85.23l1.6.28.68.09c.12,0,.38,0,.79.06l.7,0a4.64,4.64,0,0,0,1.36-.25l2.65,4.26a3.2,3.2,0,0,1-1.65.45,4.89,4.89,0,0,1-1.66-.35l-.59-.29h-.09l-2.51-1.8a5.77,5.77,0,0,0-3.19-1.22,2.56,2.56,0,0,0-.82.13,5.23,5.23,0,0,0-1.18.62,2.09,2.09,0,0,0-.78,1.9,2.19,2.19,0,0,0,.74,1.84,5.72,5.72,0,0,0,1.6.93c.58.23,1.18.43,1.79.61l2.57.79a18.87,18.87,0,0,1,4.58,1.92,5.89,5.89,0,0,1,2,2.34,8.88,8.88,0,0,1,.82,2.62,12.12,12.12,0,0,1-.29,2.88A6.18,6.18,0,0,1,92.33,34a6.51,6.51,0,0,1-1.68,1.62,8.85,8.85,0,0,1-2,.9,8.64,8.64,0,0,1-2.29.38l-1.95,0a7.81,7.81,0,0,1-1.28-.11c-.43-.07-1.11-.23-2.06-.47l-.73-.15A8.88,8.88,0,0,0,78.55,36,4.56,4.56,0,0,0,76.63,36.41Z"/><path class="cls-1" d="M95.26,23.54a5.42,5.42,0,0,0-.62-1,9.62,9.62,0,0,0,2.77-.47c1-.31,2-.63,2.86-1V23a4.71,4.71,0,0,1,2.27-1.56,7.71,7.71,0,0,1,1.82-.31A3.72,3.72,0,0,1,107,22.5l.39.45.7-.65a5.36,5.36,0,0,1,3.14-1.15,9.3,9.3,0,0,1,1.16.12,3,3,0,0,1,1.61.83,2.21,2.21,0,0,1,.8,1.68V34.06a2.87,2.87,0,0,0,.14.81,3.59,3.59,0,0,0,.48,1l.4.51h-6.34a4,4,0,0,0,.65-2.23V25.52a1.78,1.78,0,0,0-.42-1.09l-.31-.27a1.19,1.19,0,0,0-.61-.18,1,1,0,0,0-.95.45,3.44,3.44,0,0,0-.28.7,3.66,3.66,0,0,0-.06.77v8.27a3.37,3.37,0,0,0,.68,2.17h-6a2.92,2.92,0,0,0,.52-1,3.16,3.16,0,0,0,.18-1V25.24a1.17,1.17,0,0,0-.39-.9,1.36,1.36,0,0,0-1-.36,1.18,1.18,0,0,0-.91.43,1.64,1.64,0,0,0-.37,1.11v8.94a3.19,3.19,0,0,0,.33,1.43l.27.45H94.69a3.58,3.58,0,0,0,.66-1,3.1,3.1,0,0,0,.28-1.18V24.46a1.93,1.93,0,0,0,0-.24A5,5,0,0,0,95.26,23.54Z"/><path class="cls-1" d="M123.51,26.11l.61-.17-.11-.73c-.17-.92-.82-1.38-2-1.38a5.16,5.16,0,0,0-1.65.3,8.75,8.75,0,0,0-2,1l-.5.3a3.73,3.73,0,0,1,.59-1.63,4.53,4.53,0,0,1,1.2-1.23,6.94,6.94,0,0,1,1.24-.72,9.23,9.23,0,0,1,1.43-.42,8.42,8.42,0,0,1,1.86-.21,4.26,4.26,0,0,1,3.2,1.18,5.84,5.84,0,0,1,1.43,3.45l1,8.66a2.64,2.64,0,0,0,.35,1,2.94,2.94,0,0,0,.78.87h-5.59l-.12-.8-.49.31a9.37,9.37,0,0,1-1.18.53,6,6,0,0,1-2.32.4,4.32,4.32,0,0,1-2.73-.89,3.72,3.72,0,0,1-1.42-2,7.17,7.17,0,0,1-.28-1.69,4,4,0,0,1,.49-2,6.8,6.8,0,0,1,1.14-1.51A8.38,8.38,0,0,1,120,27.54a10.52,10.52,0,0,1,1.56-.8A19.05,19.05,0,0,1,123.51,26.11Zm.75.85a4.92,4.92,0,0,0-1.21,1,6.56,6.56,0,0,0-.88,1.52,4.55,4.55,0,0,0-.41,1.74v.65a3.7,3.7,0,0,0,.58,2.16,1.76,1.76,0,0,0,1.53.84,1.5,1.5,0,0,0,1.29-.67Z"/><path class="cls-1" d="M131.53,23.51,131,23l1.37-.42,1.41-.45,1.43-.45,1.44-.48v2.66l.42-.59a6.57,6.57,0,0,1,1.38-1.41,2.52,2.52,0,0,1,1-.45,4.72,4.72,0,0,1,.74-.07,2.37,2.37,0,0,1,1.83.74,2.82,2.82,0,0,1,.69,2,2.42,2.42,0,0,1-.56,1.7,1.94,1.94,0,0,1-1.48.61,3.44,3.44,0,0,1-1.37-.32,3.35,3.35,0,0,1-1.21-.85,1.1,1.1,0,0,0-.75.2,5.21,5.21,0,0,0-.73.56V34.6a1.63,1.63,0,0,0,.41,1.18,3.6,3.6,0,0,0,.66.56H131l.4-.42a2.58,2.58,0,0,0,.6-1.49V24.86A2.24,2.24,0,0,0,131.53,23.51Z"/><path class="cls-1" d="M143.79,23.79h-1.5a45.5,45.5,0,0,0,4.59-3.9l1.55-1.55V22h2.45v1.82h-2.45V33.4c0,.79.46,1.18,1.38,1.18a3.11,3.11,0,0,0,.65-.08l.73-.25.36-.2a3.36,3.36,0,0,1-.73,1.46,3.81,3.81,0,0,1-1.26,1,9.66,9.66,0,0,1-1,.41,1.9,1.9,0,0,1-.54.07h-.79a3.12,3.12,0,0,1-3.47-2.81V23.79Z"/><path class="cls-1" d="M216.16,36.83H209.5l.47-.47a2.94,2.94,0,0,0,.55-1.66V24.84a1.94,1.94,0,0,0-1-1.77,9.68,9.68,0,0,0,2.76-.46c1-.31,2-.62,2.87-.94V34.73a2.5,2.5,0,0,0,.35,1.12c.23.43.37.68.41.74A1.34,1.34,0,0,0,216.16,36.83Zm-3.42-16.32a3,3,0,0,1-2-.66,2.06,2.06,0,0,1-.8-1.67,2.57,2.57,0,0,1,.7-1.86,2.6,2.6,0,0,1,2-.73,2.77,2.77,0,0,1,2,.66,2.46,2.46,0,0,1,.69,1.87,2.25,2.25,0,0,1-.72,1.7A2.54,2.54,0,0,1,212.74,20.51Z"/><path class="cls-1" d="M223.21,37.08H217l.48-.39a2.06,2.06,0,0,0,.54-1.38V25a1.54,1.54,0,0,0-.16-.62,2.34,2.34,0,0,0-.47-.67l-.34-.31a9.5,9.5,0,0,0,2.76-.47c1-.32,2-.65,2.84-1v1.54l.51-.34A5.3,5.3,0,0,1,225.94,22a4.47,4.47,0,0,1,2.85.77,3.4,3.4,0,0,1,1.08,2.49v8.62a4.5,4.5,0,0,0,.17,1.19,10.11,10.11,0,0,0,.62,1.56l.23.45h-6.28l.31-.56a2.54,2.54,0,0,0,.31-1v-10q0-.93-1.17-.93a2.84,2.84,0,0,0-.69.09.86.86,0,0,0-.56.52,3.39,3.39,0,0,0-.21,1.39v9.77C222.6,36.62,222.81,36.87,223.21,37.08Z"/><path class="cls-1" d="M177.87,36.83h-6.66l.47-.47a2.94,2.94,0,0,0,.55-1.66V24.84a1.94,1.94,0,0,0-1-1.77,9.68,9.68,0,0,0,2.76-.46c1-.31,2-.62,2.87-.94V34.73a2.5,2.5,0,0,0,.35,1.12c.23.43.37.68.41.74A1.34,1.34,0,0,0,177.87,36.83Zm-3.42-16.32a3,3,0,0,1-2-.66,2.06,2.06,0,0,1-.8-1.67,2.57,2.57,0,0,1,.7-1.86,2.6,2.6,0,0,1,2-.73,2.77,2.77,0,0,1,2,.66,2.46,2.46,0,0,1,.69,1.87,2.25,2.25,0,0,1-.72,1.7A2.54,2.54,0,0,1,174.45,20.51Z"/><path class="cls-1" d="M184.92,36.83h-6.26l.48-.39a2,2,0,0,0,.54-1.38V24.7a1.43,1.43,0,0,0-.16-.62,2.49,2.49,0,0,0-.47-.67l-.34-.31a9.5,9.5,0,0,0,2.76-.47c1-.32,2-.64,2.84-1v1.53l.51-.33a5.33,5.33,0,0,1,2.83-1.1,4.47,4.47,0,0,1,2.85.77A3.42,3.42,0,0,1,191.58,25v8.62a4.63,4.63,0,0,0,.17,1.2,10.06,10.06,0,0,0,.62,1.55l.23.45h-6.28l.31-.56a2.54,2.54,0,0,0,.31-1v-10c0-.61-.39-.92-1.17-.92a2.76,2.76,0,0,0-.69.08.88.88,0,0,0-.56.52,3.39,3.39,0,0,0-.21,1.39v9.77C184.31,36.37,184.52,36.63,184.92,36.83Z"/><path class="cls-1" d="M170.43,18.63a5.86,5.86,0,0,0-.82-2.09,4.47,4.47,0,0,0-1.6-1.48,5.08,5.08,0,0,0-2.48-.56,4.69,4.69,0,0,0-1.42.2,10.72,10.72,0,0,0-1.3.48l-1.25.56a7.83,7.83,0,0,1-.93.37l0-2.29-.33.11-2.78.87a14.93,14.93,0,0,1-2.8.56l-.45.05.28.36c.35.42.65.82.9,1.17a2.16,2.16,0,0,1,.34,1.24V34.84a1.36,1.36,0,0,1-.4,1,7,7,0,0,1-.94.8l-.66.45h8l.1-.47a4.55,4.55,0,0,1-.7-.4,1.37,1.37,0,0,1-.34-.34,1.09,1.09,0,0,1-.15-.46,5.82,5.82,0,0,1-.05-.83V32.69a1.51,1.51,0,0,1,.32-.88,6.09,6.09,0,0,1,.84-.93,7.06,7.06,0,0,1,1-.78l.93-.57q1.36-.78,2.7-1.59c.92-.56,3-1.7,3.7-3.75a9.28,9.28,0,0,0,.36-1.56,9.26,9.26,0,0,0,.13-1.55A12.2,12.2,0,0,0,170.43,18.63Zm-9.51,9.21V18.3c.1-.08,4-1.05,4.54,1a6.3,6.3,0,0,1,.27,1.45C166,25.83,162.27,27,160.92,27.84Z"/><path class="cls-1" d="M201.66,21.64l.4.73c.33.61.66,1.23,1,1.87a4,4,0,0,1,.44,1.83,9.63,9.63,0,0,1-.1,1.34,9.83,9.83,0,0,1-.33,1.48,6.57,6.57,0,0,1-.57,1.32,2.51,2.51,0,0,1-.32.46l-4.7-10.13-.81.6,0,0a8.51,8.51,0,0,1-1.77.71c-.65.18-1.3.35-1.93.49l-.85.2.6.63a12,12,0,0,1,1.11,1.46c.44.68.89,1.44,1.35,2.26s.94,1.74,1.43,2.68,1,1.88,1.4,2.78.84,1.75,1.21,2.53.64,1.35.87,1.85a.59.59,0,0,1-.18.46,1.39,1.39,0,0,1-.75.21,8.74,8.74,0,0,1-1.23,0,7.21,7.21,0,0,0-1.39,0,2.2,2.2,0,0,0-1.26.48,2.13,2.13,0,0,0-.22,2.67,2.34,2.34,0,0,0,.83.66,4.26,4.26,0,0,0,1,.29,8.51,8.51,0,0,0,1,.07,4.38,4.38,0,0,0,1.41-.22,2.33,2.33,0,0,0,1.25-1A9.93,9.93,0,0,0,201.56,38c.26-.81.53-1.58.79-2.3q.47-1.31,1.17-3.18c.47-1.25,1-2.54,1.53-3.82s1.14-2.51,1.74-3.64a14,14,0,0,1,1.75-2.64l.73-.82Z"/><path class="cls-1" d="M58,7c-.36-3.94-4-7-8.33-7s-8,3.09-8.33,7h0V25.58h0a8.36,8.36,0,0,0,16.66,0h0Z"/><path class="cls-2" d="M56.13,5.81a6.52,6.52,0,0,0-13,0h-.06V26.58a6.54,6.54,0,1,0,13.07,0V5.81Z"/><path class="cls-3" d="M49.13.26a4.33,4.33,0,0,0-4.31,4.36v24a4.32,4.32,0,1,0,8.63,0v-24A4.34,4.34,0,0,0,49.13.26Z"/><path class="cls-4" d="M50.72,9.61a1,1,0,1,1-1-1A1,1,0,0,1,50.72,9.61Z"/><path class="cls-4" d="M50.77,12.83a1,1,0,1,1-1-1A1,1,0,0,1,50.77,12.83Z"/><path class="cls-4" d="M50.77,16a1,1,0,1,1-1-1A1,1,0,0,1,50.77,16Z"/><path class="cls-4" d="M50.77,19a1,1,0,1,1-1-1A1,1,0,0,1,50.77,19Z"/><path class="cls-4" d="M50.77,22.06a1,1,0,1,1-1-1A1,1,0,0,1,50.77,22.06Z"/><path class="cls-4" d="M50.77,25.29a1,1,0,1,1-1-1A1,1,0,0,1,50.77,25.29Z"/><path class="cls-4" d="M48.13,11.22a1,1,0,1,1-1-1A1,1,0,0,1,48.13,11.22Z"/><path class="cls-4" d="M48.17,14.44a1,1,0,1,1-1-1A1,1,0,0,1,48.17,14.44Z"/><path class="cls-4" d="M48.17,17.58a1,1,0,1,1-1-1A1,1,0,0,1,48.17,17.58Z"/><path class="cls-4" d="M48.17,20.62a1,1,0,1,1-1-1A1,1,0,0,1,48.17,20.62Z"/><path class="cls-4" d="M48.17,23.67a1,1,0,0,1-2,0,1,1,0,0,1,2,0Z"/><path class="cls-4" d="M53.27,11.22a1,1,0,1,1-1-1A1,1,0,0,1,53.27,11.22Z"/><path class="cls-4" d="M53.31,14.44a1,1,0,1,1-1-1A1,1,0,0,1,53.31,14.44Z"/><path class="cls-4" d="M53.31,17.58a1,1,0,1,1-1-1A1,1,0,0,1,53.31,17.58Z"/><path class="cls-4" d="M53.31,20.62a1,1,0,1,1-1-1A1,1,0,0,1,53.31,20.62Z"/><path class="cls-4" d="M53.31,23.67a1,1,0,0,1-2,0,1,1,0,0,1,2,0Z"/><path class="cls-4" d="M55.46,9.61c0,.55-.33,1-.74,1s-.75-.45-.75-1,.33-1,.75-1S55.46,9.05,55.46,9.61Z"/><path class="cls-4" d="M55.49,12.83c0,.55-.33,1-.74,1s-.75-.45-.75-1,.34-1,.75-1S55.49,12.28,55.49,12.83Z"/><path class="cls-4" d="M55.49,16c0,.56-.33,1-.74,1S54,16.52,54,16s.34-1,.75-1S55.49,15.41,55.49,16Z"/><path class="cls-4" d="M55.49,19c0,.55-.33,1-.74,1A.9.9,0,0,1,54,19c0-.56.34-1,.75-1S55.49,18.46,55.49,19Z"/><path class="cls-4" d="M55.49,22.06c0,.56-.33,1-.74,1s-.75-.44-.75-1,.34-1,.75-1S55.49,21.51,55.49,22.06Z"/><path class="cls-4" d="M55.49,25.29c0,.55-.33,1-.74,1s-.75-.45-.75-1,.34-1,.75-1S55.49,24.73,55.49,25.29Z"/><path class="cls-4" d="M45.62,9.61c0,.55-.34,1-.75,1s-.74-.45-.74-1,.33-1,.74-1S45.62,9.05,45.62,9.61Z"/><path class="cls-4" d="M45.65,12.83c0,.55-.34,1-.74,1s-.75-.45-.75-1,.33-1,.75-1S45.65,12.28,45.65,12.83Z"/><path class="cls-4" d="M45.65,16c0,.56-.34,1-.74,1s-.75-.45-.75-1,.33-1,.75-1S45.65,15.41,45.65,16Z"/><path class="cls-4" d="M45.65,19a.9.9,0,0,1-.75,1c-.41,0-.74-.44-.74-1s.33-1,.74-1S45.65,18.46,45.65,19Z"/><path class="cls-4" d="M45.65,22.06c0,.56-.34,1-.75,1s-.74-.44-.74-1,.33-1,.74-1S45.65,21.51,45.65,22.06Z"/><path class="cls-4" d="M45.65,25.29c0,.55-.34,1-.74,1s-.75-.45-.75-1,.33-1,.75-1S45.65,24.73,45.65,25.29Z"/><path class="cls-4" d="M57.22,11.35c0,.55-.22,1-.5,1s-.5-.45-.5-1,.23-1,.5-1S57.22,10.79,57.22,11.35Z"/><path class="cls-4" d="M57.24,14.57c0,.55-.22,1-.5,1s-.5-.45-.5-1,.23-1,.5-1S57.24,14,57.24,14.57Z"/><path class="cls-4" d="M57.24,17.71c0,.55-.22,1-.5,1s-.5-.45-.5-1,.23-1,.5-1S57.24,17.15,57.24,17.71Z"/><path class="cls-4" d="M57.24,20.76c0,.55-.22,1-.5,1s-.5-.45-.5-1,.23-1,.5-1S57.24,20.2,57.24,20.76Z"/><path class="cls-4" d="M57.24,23.8c0,.56-.22,1-.5,1s-.5-.45-.5-1,.23-1,.5-1S57.24,23.25,57.24,23.8Z"/><path class="cls-4" d="M43.46,11.39c0,.55-.23,1-.5,1s-.5-.45-.5-1,.22-1,.5-1S43.46,10.84,43.46,11.39Z"/><path class="cls-4" d="M43.48,14.62c0,.55-.22,1-.5,1s-.5-.45-.5-1,.22-1,.5-1S43.48,14.06,43.48,14.62Z"/><path class="cls-4" d="M43.48,17.75c0,.55-.22,1-.5,1s-.5-.45-.5-1,.22-1,.5-1S43.48,17.2,43.48,17.75Z"/><path class="cls-4" d="M43.48,20.8c0,.55-.22,1-.5,1s-.5-.45-.5-1,.22-1,.5-1S43.48,20.25,43.48,20.8Z"/><path class="cls-4" d="M43.48,23.85c0,.55-.22,1-.5,1s-.5-.45-.5-1,.22-1,.5-1S43.48,23.29,43.48,23.85Z"/><path class="cls-4" d="M58,9.87c0,.55-.14,1-.3,1s-.3-.45-.3-1,.13-1,.3-1S58,9.31,58,9.87Z"/><path class="cls-4" d="M58,13.09c0,.55-.13,1-.3,1s-.3-.45-.3-1,.14-1,.3-1S58,12.54,58,13.09Z"/><path class="cls-4" d="M58,16.23c0,.55-.13,1-.3,1s-.3-.45-.3-1,.14-1,.3-1S58,15.67,58,16.23Z"/><path class="cls-4" d="M58,19.28c0,.55-.13,1-.3,1s-.3-.45-.3-1,.14-1,.3-1S58,18.72,58,19.28Z"/><path class="cls-4" d="M58,22.33c0,.55-.13,1-.3,1s-.3-.45-.3-1,.14-1,.3-1S58,21.77,58,22.33Z"/><path class="cls-4" d="M58,25.55c0,.55-.13,1-.3,1s-.3-.45-.3-1,.14-1,.3-1S58,25,58,25.55Z"/><path class="cls-4" d="M42,9.7c0,.55-.14,1-.3,1s-.3-.44-.3-1,.13-1,.3-1S42,9.14,42,9.7Z"/><path class="cls-4" d="M42,12.92c0,.55-.13,1-.3,1s-.3-.45-.3-1,.13-1,.3-1S42,12.36,42,12.92Z"/><path class="cls-4" d="M42,16.05c0,.55-.13,1-.3,1s-.3-.45-.3-1,.13-1,.3-1S42,15.5,42,16.05Z"/><path class="cls-4" d="M42,19.1c0,.56-.13,1-.3,1s-.3-.44-.3-1,.13-1,.3-1S42,18.55,42,19.1Z"/><path class="cls-4" d="M42,22.15c0,.55-.13,1-.3,1s-.3-.45-.3-1,.13-1,.3-1S42,21.6,42,22.15Z"/><path class="cls-4" d="M42,25.37c0,.56-.13,1-.3,1s-.3-.44-.3-1,.13-1,.3-1S42,24.82,42,25.37Z"/><path class="cls-5" d="M49.81,1.46a2.13,2.13,0,0,1-1.26,2.69,2.14,2.14,0,0,1-2.92-.53A2.14,2.14,0,0,1,46.89.92,2.14,2.14,0,0,1,49.81,1.46Z"/><path class="cls-5" d="M50.75,9.28a1,1,0,1,1-1-1A1,1,0,0,1,50.75,9.28Z"/><path class="cls-5" d="M50.79,12.5a1,1,0,1,1-1-1A1,1,0,0,1,50.79,12.5Z"/><path class="cls-5" d="M50.79,15.64a1,1,0,1,1-2,0,1,1,0,0,1,2,0Z"/><path class="cls-5" d="M50.79,18.68a1,1,0,1,1-2,0,1,1,0,0,1,2,0Z"/><path class="cls-5" d="M50.79,21.73a1,1,0,1,1-1-1A1,1,0,0,1,50.79,21.73Z"/><path class="cls-5" d="M50.79,25a1,1,0,1,1-1-1A1,1,0,0,1,50.79,25Z"/><path class="cls-5" d="M48.15,10.89a1,1,0,1,1-1-1A1,1,0,0,1,48.15,10.89Z"/><path class="cls-5" d="M48.2,14.11a1,1,0,1,1-1-1A1,1,0,0,1,48.2,14.11Z"/><path class="cls-5" d="M48.2,17.25a1,1,0,1,1-1-1A1,1,0,0,1,48.2,17.25Z"/><path class="cls-5" d="M48.2,20.3a1,1,0,1,1-1-1A1,1,0,0,1,48.2,20.3Z"/><path class="cls-5" d="M48.2,23.35a1,1,0,1,1-1-1A1,1,0,0,1,48.2,23.35Z"/><path class="cls-5" d="M53.29,10.89a1,1,0,1,1-1-1A1,1,0,0,1,53.29,10.89Z"/><path class="cls-5" d="M53.34,14.11a1,1,0,1,1-1-1A1,1,0,0,1,53.34,14.11Z"/><path class="cls-5" d="M53.34,17.25a1,1,0,1,1-1-1A1,1,0,0,1,53.34,17.25Z"/><path class="cls-5" d="M53.34,20.3a1,1,0,1,1-1-1A1,1,0,0,1,53.34,20.3Z"/><path class="cls-5" d="M53.34,23.35a1,1,0,1,1-1-1A1,1,0,0,1,53.34,23.35Z"/><path class="cls-5" d="M55.48,9.28c0,.55-.33,1-.74,1s-.75-.45-.75-1,.34-1,.75-1S55.48,8.73,55.48,9.28Z"/><path class="cls-5" d="M55.51,12.5c0,.56-.33,1-.74,1s-.75-.44-.75-1,.34-1,.75-1S55.51,12,55.51,12.5Z"/><path class="cls-5" d="M55.51,15.64c0,.55-.33,1-.74,1s-.75-.45-.75-1,.34-1,.75-1S55.51,15.09,55.51,15.64Z"/><path class="cls-5" d="M55.51,18.68c0,.56-.33,1-.74,1s-.75-.45-.75-1a.9.9,0,0,1,.75-1C55.18,17.69,55.51,18.13,55.51,18.68Z"/><path class="cls-5" d="M55.51,21.73c0,.56-.33,1-.74,1s-.75-.45-.75-1,.34-1,.75-1S55.51,21.18,55.51,21.73Z"/><path class="cls-5" d="M55.51,25c0,.55-.33,1-.74,1S54,25.51,54,25s.34-1,.75-1S55.51,24.41,55.51,25Z"/><path class="cls-5" d="M45.64,9.28c0,.55-.34,1-.75,1s-.74-.45-.74-1,.33-1,.74-1S45.64,8.73,45.64,9.28Z"/><path class="cls-5" d="M45.67,12.5c0,.56-.33,1-.75,1s-.74-.44-.74-1,.33-1,.74-1S45.67,12,45.67,12.5Z"/><path class="cls-5" d="M45.67,15.64c0,.55-.33,1-.75,1s-.74-.45-.74-1,.33-1,.74-1S45.67,15.09,45.67,15.64Z"/><path class="cls-5" d="M45.67,18.68c0,.56-.33,1-.75,1s-.74-.45-.74-1,.33-1,.74-1S45.67,18.13,45.67,18.68Z"/><path class="cls-5" d="M45.67,21.73c0,.56-.33,1-.75,1s-.74-.45-.74-1,.33-1,.74-1S45.67,21.18,45.67,21.73Z"/><path class="cls-5" d="M45.67,25c0,.55-.33,1-.75,1s-.74-.45-.74-1,.33-1,.74-1S45.67,24.41,45.67,25Z"/><path class="cls-5" d="M57.24,11c0,.55-.22,1-.5,1s-.5-.45-.5-1,.23-1,.5-1S57.24,10.47,57.24,11Z"/><path class="cls-5" d="M57.27,14.25c0,.55-.23,1-.5,1s-.5-.45-.5-1,.22-1,.5-1S57.27,13.69,57.27,14.25Z"/><path class="cls-5" d="M57.27,17.38c0,.55-.23,1-.5,1s-.5-.45-.5-1,.22-1,.5-1S57.27,16.83,57.27,17.38Z"/><path class="cls-5" d="M57.27,20.43c0,.55-.23,1-.5,1s-.5-.45-.5-1,.22-1,.5-1S57.27,19.88,57.27,20.43Z"/><path class="cls-5" d="M57.27,23.48c0,.55-.23,1-.5,1s-.5-.45-.5-1,.22-1,.5-1S57.27,22.93,57.27,23.48Z"/><path class="cls-5" d="M43.48,11.06c0,.56-.22,1-.5,1s-.5-.45-.5-1,.22-1,.5-1S43.48,10.51,43.48,11.06Z"/><path class="cls-5" d="M43.5,14.29c0,.55-.22,1-.5,1s-.5-.45-.5-1,.23-1,.5-1S43.5,13.73,43.5,14.29Z"/><path class="cls-5" d="M43.5,17.43c0,.55-.22,1-.5,1s-.5-.44-.5-1,.23-1,.5-1S43.5,16.87,43.5,17.43Z"/><path class="cls-5" d="M43.5,20.47c0,.56-.22,1-.5,1s-.5-.44-.5-1,.23-1,.5-1S43.5,19.92,43.5,20.47Z"/><path class="cls-5" d="M43.5,23.52c0,.55-.22,1-.5,1s-.5-.45-.5-1,.23-1,.5-1S43.5,23,43.5,23.52Z"/><path class="cls-5" d="M58.05,9.54c0,.55-.13,1-.3,1s-.3-.45-.3-1,.14-1,.3-1S58.05,9,58.05,9.54Z"/><path class="cls-5" d="M58.06,12.76c0,.56-.13,1-.3,1s-.29-.44-.29-1,.13-1,.29-1S58.06,12.21,58.06,12.76Z"/><path class="cls-5" d="M58.06,15.9c0,.55-.13,1-.3,1s-.29-.45-.29-1,.13-1,.29-1S58.06,15.35,58.06,15.9Z"/><path class="cls-5" d="M58.06,19c0,.55-.13,1-.3,1s-.29-.45-.29-1,.13-1,.29-1S58.06,18.4,58.06,19Z"/><path class="cls-5" d="M58.06,22c0,.55-.13,1-.3,1s-.29-.45-.29-1,.13-1,.29-1S58.06,21.44,58.06,22Z"/><path class="cls-5" d="M58.06,25.22c0,.55-.13,1-.3,1s-.29-.45-.29-1,.13-1,.29-1S58.06,24.67,58.06,25.22Z"/><path class="cls-5" d="M42,9.36c0,.56-.14,1-.3,1s-.3-.45-.3-1,.13-1,.3-1S42,8.81,42,9.36Z"/><path class="cls-5" d="M42,12.59c0,.55-.13,1-.3,1s-.3-.45-.3-1,.14-1,.3-1S42,12,42,12.59Z"/><path class="cls-5" d="M42,15.73c0,.55-.13,1-.3,1s-.3-.45-.3-1,.14-1,.3-1S42,15.17,42,15.73Z"/><path class="cls-5" d="M42,18.77c0,.56-.13,1-.3,1s-.3-.45-.3-1,.14-1,.3-1S42,18.22,42,18.77Z"/><path class="cls-5" d="M42,21.82c0,.55-.13,1-.3,1s-.3-.45-.3-1,.14-1,.3-1S42,21.27,42,21.82Z"/><path class="cls-5" d="M42,25c0,.56-.13,1-.3,1s-.3-.45-.3-1,.14-1,.3-1S42,24.49,42,25Z"/><path class="cls-1" d="M49,52.46a1.78,1.78,0,0,1-1.77-2.65l1.43-3.5c.59-1.45,1.57-1.45,2.16,0l1.43,3.5a1.78,1.78,0,0,1-1.77,2.65Z"/><path class="cls-1" d="M39.31,44.68a.79.79,0,0,0,0,1.58H60.09a.79.79,0,0,0,0-1.58Z"/><path class="cls-1" d="M59.81,19V29.45a4.52,4.52,0,0,1-3.44,4.73c-.71,0-9.37.07-13.1,0-3.17,0-3.63-4.18-3.65-4.35V20.2H38v9.71c.2,2.05,1.54,5.8,5.2,5.86,3.89.07,13.14,0,13.23,0h.14a6.15,6.15,0,0,0,4.79-6.43V19Z"/><path class="cls-6" d="M61.9,19.23v2.21H59.29V19.23a1.31,1.31,0,0,1,2.61,0Z"/><path class="cls-7" d="M37.5,19.23v2.21h2.61V19.23a1.31,1.31,0,0,0-2.61,0Z"/><path class="cls-1" d="M43.39,40.29c0,3,2.83,5.34,6.31,5.34S56,43.24,56,40.29,53.18,35,49.7,35,43.39,37.34,43.39,40.29Zm1.58,0c0-2.07,2.12-3.76,4.73-3.76s4.73,1.69,4.73,3.76S52.31,44,49.7,44,45,42.36,45,40.29Z"/><path class="cls-1" d="M29,.69A37.79,37.79,0,0,1,6.88.69a.8.8,0,0,0-1,.53.81.81,0,0,0,.53,1,39.43,39.43,0,0,0,23,0A.79.79,0,0,0,29,.69Z"/><path class="cls-1" d="M34.79,6.1a51.45,51.45,0,0,1-33.73,0A.79.79,0,1,0,.53,7.59a53.06,53.06,0,0,0,34.79,0,.8.8,0,0,0,.48-1A.79.79,0,0,0,34.79,6.1Z"/><path class="cls-1" d="M11.8,10.79a4.32,4.32,0,0,0-1.34,3.15c0,3,3,5.59,6.66,5.6h1.61c3.61,0,6.66-2.57,6.66-5.6h0a4.32,4.32,0,0,0-1.34-3.15,7.38,7.38,0,0,0-5.33-1.85H17.13A7.37,7.37,0,0,0,11.8,10.79ZM12,13.94a2.72,2.72,0,0,1,.88-2,5.79,5.79,0,0,1,4.19-1.4h1.63a5.8,5.8,0,0,1,4.19,1.4,2.75,2.75,0,0,1,.88,2h0c0,2.17-2.33,4-5.09,4h-1.6C14.37,18,12,16.11,12,13.94Z"/><path class="cls-1" d="M17.13,19.42V35.3a.8.8,0,0,0,1.59,0V19.42a.8.8,0,0,0-1.59,0Z"/><path class="cls-1" d="M30.91,16.78v4.38c0,2-2.2,3.69-4.9,3.69-5.29.07-10.88.07-16.16,0-2.72,0-4.91-1.6-4.91-3.55V17.05a.8.8,0,0,0-1.59,0V21.3c0,2.82,2.91,5.13,6.49,5.14,5.28.06,10.88.07,16.18,0,3.57,0,6.48-2.38,6.48-5.28V16.78a.8.8,0,0,0-1.59,0Z"/><path class="cls-1" d="M7.64,43.1a.79.79,0,1,0,.29,1.56,57.36,57.36,0,0,1,20,0,.79.79,0,1,0,.28-1.56A58.68,58.68,0,0,0,7.64,43.1Z"/><path class="cls-1" d="M13.47,35.19c-3.56.12-6.57,3-6.57,6.29V47.4c0,3.39,4.18,4.67,4.36,4.73l.23,0H24.36l.22,0c.18-.06,4.36-1.34,4.36-4.73h0V41.48c0-3.29-3-6.17-6.57-6.29C19.42,35.07,16.42,35.07,13.47,35.19Zm-5,12.21V41.48a5.07,5.07,0,0,1,5-4.7c2.92-.12,5.87-.12,8.78,0a5.06,5.06,0,0,1,5,4.7V47.4c0,2-2.65,3-3.12,3.17H11.62C11.15,50.41,8.49,49.42,8.49,47.4Z"/><path class="cls-1" d="M6.9,34.24v6.93a.79.79,0,0,0,.8.79.79.79,0,0,0,.79-.79V34.24a.79.79,0,0,0-.79-.8A.8.8,0,0,0,6.9,34.24Z"/><path class="cls-1" d="M27.35,34.24v6.93a.79.79,0,0,0,.8.79.79.79,0,0,0,.79-.79V34.24a.79.79,0,0,0-.79-.8A.8.8,0,0,0,27.35,34.24Z"/></g></g></svg>