<svg xmlns="http://www.w3.org/2000/svg" xmlns:xlink="http://www.w3.org/1999/xlink" viewBox="0 0 61.9 52.46"><defs><style>.cls-1{fill:#552b8c;}.cls-2{fill:#b5b5b6;opacity:0.75;}.cls-3{fill:#dcdddd;}.cls-4{fill:#898989;}.cls-5{fill:#fff;}.cls-6{fill:url(#linear-gradient);}.cls-7{fill:url(#linear-gradient-2);}</style><linearGradient id="linear-gradient" x1="-721" y1="-16406.92" x2="-721" y2="-16401.57" gradientTransform="matrix(0, 1, 1, 0, 16464.84, 740.68)" gradientUnits="userSpaceOnUse"><stop offset="0" stop-color="#552b8c"/><stop offset="0.05" stop-color="#5b3290"/><stop offset="0.12" stop-color="#6a4499"/><stop offset="0.2" stop-color="#8462aa"/><stop offset="0.29" stop-color="#a88cc0"/><stop offset="0.38" stop-color="#d6c1dd"/><stop offset="0.4" stop-color="#e1cee4"/><stop offset="0.66" stop-color="#a183bc"/><stop offset="0.89" stop-color="#6a4499"/><stop offset="1" stop-color="#552b8c"/></linearGradient><linearGradient id="linear-gradient-2" x1="-721" y1="-16695.71" x2="-721" y2="-16690.35" gradientTransform="translate(-16654.22 740.68) rotate(90)" xlink:href="#linear-gradient"/></defs><g id="圖層_2" data-name="圖層 2"><g id="圖層_1-2" data-name="圖層 1"><path class="cls-1" d="M58,7c-.36-3.94-4-7-8.33-7s-8,3.09-8.33,7h0V25.58h0a8.36,8.36,0,0,0,16.66,0h0Z"/><path class="cls-2" d="M56.13,5.81a6.52,6.52,0,0,0-13,0h-.06V26.59a6.54,6.54,0,1,0,13.07,0V5.81Z"/><path class="cls-3" d="M49.13.26a4.33,4.33,0,0,0-4.31,4.36v24a4.32,4.32,0,1,0,8.63,0v-24A4.34,4.34,0,0,0,49.13.26Z"/><path class="cls-4" d="M50.72,9.61a1,1,0,1,1-1-1A1,1,0,0,1,50.72,9.61Z"/><path class="cls-4" d="M50.77,12.83a1,1,0,1,1-1-1A1,1,0,0,1,50.77,12.83Z"/><path class="cls-4" d="M50.77,16a1,1,0,1,1-1-1A1,1,0,0,1,50.77,16Z"/><path class="cls-4" d="M50.77,19a1,1,0,1,1-1-1A1,1,0,0,1,50.77,19Z"/><path class="cls-4" d="M50.77,22.06a1,1,0,1,1-1-1A1,1,0,0,1,50.77,22.06Z"/><path class="cls-4" d="M50.77,25.29a1,1,0,1,1-1-1A1,1,0,0,1,50.77,25.29Z"/><path class="cls-4" d="M48.13,11.22a1,1,0,1,1-1-1A1,1,0,0,1,48.13,11.22Z"/><path class="cls-4" d="M48.17,14.44a1,1,0,1,1-1-1A1,1,0,0,1,48.17,14.44Z"/><path class="cls-4" d="M48.17,17.58a1,1,0,1,1-1-1A1,1,0,0,1,48.17,17.58Z"/><path class="cls-4" d="M48.17,20.62a1,1,0,1,1-1-1A1,1,0,0,1,48.17,20.62Z"/><path class="cls-4" d="M48.17,23.67a1,1,0,0,1-2,0,1,1,0,0,1,2,0Z"/><path class="cls-4" d="M53.27,11.22a1,1,0,1,1-1-1A1,1,0,0,1,53.27,11.22Z"/><path class="cls-4" d="M53.31,14.44a1,1,0,1,1-1-1A1,1,0,0,1,53.31,14.44Z"/><path class="cls-4" d="M53.31,17.58a1,1,0,1,1-1-1A1,1,0,0,1,53.31,17.58Z"/><path class="cls-4" d="M53.31,20.62a1,1,0,1,1-1-1A1,1,0,0,1,53.31,20.62Z"/><path class="cls-4" d="M53.31,23.67a1,1,0,0,1-2,0,1,1,0,0,1,2,0Z"/><path class="cls-4" d="M55.46,9.61c0,.55-.33,1-.75,1s-.74-.45-.74-1,.33-1,.74-1S55.46,9.05,55.46,9.61Z"/><path class="cls-4" d="M55.49,12.83c0,.55-.33,1-.74,1s-.75-.45-.75-1,.34-1,.75-1S55.49,12.28,55.49,12.83Z"/><path class="cls-4" d="M55.49,16c0,.56-.33,1-.74,1S54,16.52,54,16s.34-1,.75-1S55.49,15.41,55.49,16Z"/><path class="cls-4" d="M55.49,19c0,.55-.33,1-.74,1A.9.9,0,0,1,54,19c0-.56.34-1,.75-1S55.49,18.46,55.49,19Z"/><path class="cls-4" d="M55.49,22.06c0,.56-.33,1-.74,1s-.75-.44-.75-1,.34-1,.75-1S55.49,21.51,55.49,22.06Z"/><path class="cls-4" d="M55.49,25.29c0,.55-.33,1-.74,1s-.75-.45-.75-1,.34-1,.75-1S55.49,24.73,55.49,25.29Z"/><path class="cls-4" d="M45.62,9.61c0,.55-.34,1-.75,1s-.74-.45-.74-1,.33-1,.74-1S45.62,9.05,45.62,9.61Z"/><path class="cls-4" d="M45.65,12.83c0,.55-.34,1-.74,1s-.75-.45-.75-1,.33-1,.75-1S45.65,12.28,45.65,12.83Z"/><path class="cls-4" d="M45.65,16c0,.56-.34,1-.74,1s-.75-.45-.75-1,.33-1,.75-1S45.65,15.41,45.65,16Z"/><path class="cls-4" d="M45.65,19a.9.9,0,0,1-.75,1c-.41,0-.74-.44-.74-1s.33-1,.74-1S45.65,18.46,45.65,19Z"/><path class="cls-4" d="M45.65,22.06c0,.56-.34,1-.75,1s-.74-.44-.74-1,.33-1,.74-1S45.65,21.51,45.65,22.06Z"/><path class="cls-4" d="M45.65,25.29c0,.55-.34,1-.74,1s-.75-.45-.75-1,.33-1,.75-1S45.65,24.73,45.65,25.29Z"/><path class="cls-4" d="M57.22,11.35c0,.55-.22,1-.5,1s-.5-.45-.5-1,.23-1,.5-1S57.22,10.79,57.22,11.35Z"/><path class="cls-4" d="M57.24,14.57c0,.55-.22,1-.5,1s-.5-.45-.5-1,.23-1,.5-1S57.24,14,57.24,14.57Z"/><path class="cls-4" d="M57.24,17.71c0,.55-.22,1-.5,1s-.5-.45-.5-1,.23-1,.5-1S57.24,17.15,57.24,17.71Z"/><path class="cls-4" d="M57.24,20.76c0,.55-.22,1-.5,1s-.5-.45-.5-1,.23-1,.5-1S57.24,20.2,57.24,20.76Z"/><path class="cls-4" d="M57.24,23.8c0,.56-.22,1-.5,1s-.5-.45-.5-1,.23-1,.5-1S57.24,23.25,57.24,23.8Z"/><path class="cls-4" d="M43.46,11.39c0,.55-.23,1-.5,1s-.5-.45-.5-1,.22-1,.5-1S43.46,10.84,43.46,11.39Z"/><path class="cls-4" d="M43.48,14.62c0,.55-.22,1-.5,1s-.5-.45-.5-1,.22-1,.5-1S43.48,14.06,43.48,14.62Z"/><path class="cls-4" d="M43.48,17.75c0,.55-.22,1-.5,1s-.5-.45-.5-1,.22-1,.5-1S43.48,17.2,43.48,17.75Z"/><path class="cls-4" d="M43.48,20.8c0,.55-.22,1-.5,1s-.5-.45-.5-1,.22-1,.5-1S43.48,20.25,43.48,20.8Z"/><path class="cls-4" d="M43.48,23.85c0,.55-.22,1-.5,1s-.5-.45-.5-1,.22-1,.5-1S43.48,23.29,43.48,23.85Z"/><path class="cls-4" d="M58,9.87c0,.55-.14,1-.3,1s-.3-.45-.3-1,.13-1,.3-1S58,9.31,58,9.87Z"/><path class="cls-4" d="M58,13.09c0,.55-.13,1-.3,1s-.3-.45-.3-1,.14-1,.3-1S58,12.54,58,13.09Z"/><path class="cls-4" d="M58,16.23c0,.55-.13,1-.3,1s-.3-.45-.3-1,.14-1,.3-1S58,15.67,58,16.23Z"/><path class="cls-4" d="M58,19.28c0,.55-.13,1-.3,1s-.3-.45-.3-1,.14-1,.3-1S58,18.72,58,19.28Z"/><path class="cls-4" d="M58,22.33c0,.55-.13,1-.3,1s-.3-.45-.3-1,.14-1,.3-1S58,21.77,58,22.33Z"/><path class="cls-4" d="M58,25.55c0,.55-.13,1-.3,1s-.3-.45-.3-1,.14-1,.3-1S58,25,58,25.55Z"/><path class="cls-4" d="M42,9.7c0,.55-.14,1-.3,1s-.3-.44-.3-1,.13-1,.3-1S42,9.14,42,9.7Z"/><path class="cls-4" d="M42,12.92c0,.55-.13,1-.3,1s-.3-.45-.3-1,.13-1,.3-1S42,12.36,42,12.92Z"/><path class="cls-4" d="M42,16.05c0,.55-.13,1-.3,1s-.3-.45-.3-1,.13-1,.3-1S42,15.5,42,16.05Z"/><path class="cls-4" d="M42,19.1c0,.56-.13,1-.3,1s-.3-.44-.3-1,.13-1,.3-1S42,18.55,42,19.1Z"/><path class="cls-4" d="M42,22.15c0,.55-.13,1-.3,1s-.3-.45-.3-1,.13-1,.3-1S42,21.6,42,22.15Z"/><path class="cls-4" d="M42,25.37c0,.56-.13,1-.3,1s-.3-.44-.3-1,.13-1,.3-1S42,24.82,42,25.37Z"/><path class="cls-5" d="M49.81,1.46a2.13,2.13,0,0,1-1.26,2.69,2.14,2.14,0,0,1-2.92-.53A2.14,2.14,0,0,1,46.89.92,2.14,2.14,0,0,1,49.81,1.46Z"/><path class="cls-5" d="M50.75,9.28a1,1,0,1,1-1-1A1,1,0,0,1,50.75,9.28Z"/><path class="cls-5" d="M50.79,12.5a1,1,0,1,1-1-1A1,1,0,0,1,50.79,12.5Z"/><path class="cls-5" d="M50.79,15.64a1,1,0,1,1-2,0,1,1,0,0,1,2,0Z"/><path class="cls-5" d="M50.79,18.68a1,1,0,1,1-2,0,1,1,0,0,1,2,0Z"/><path class="cls-5" d="M50.79,21.73a1,1,0,1,1-1-1A1,1,0,0,1,50.79,21.73Z"/><path class="cls-5" d="M50.79,25a1,1,0,1,1-1-1A1,1,0,0,1,50.79,25Z"/><path class="cls-5" d="M48.15,10.89a1,1,0,1,1-1-1A1,1,0,0,1,48.15,10.89Z"/><path class="cls-5" d="M48.2,14.11a1,1,0,1,1-1-1A1,1,0,0,1,48.2,14.11Z"/><path class="cls-5" d="M48.2,17.25a1,1,0,1,1-1-1A1,1,0,0,1,48.2,17.25Z"/><path class="cls-5" d="M48.2,20.3a1,1,0,1,1-1-1A1,1,0,0,1,48.2,20.3Z"/><path class="cls-5" d="M48.2,23.35a1,1,0,1,1-1-1A1,1,0,0,1,48.2,23.35Z"/><path class="cls-5" d="M53.29,10.89a1,1,0,1,1-1-1A1,1,0,0,1,53.29,10.89Z"/><path class="cls-5" d="M53.34,14.11a1,1,0,1,1-1-1A1,1,0,0,1,53.34,14.11Z"/><path class="cls-5" d="M53.34,17.25a1,1,0,1,1-1-1A1,1,0,0,1,53.34,17.25Z"/><path class="cls-5" d="M53.34,20.3a1,1,0,1,1-1-1A1,1,0,0,1,53.34,20.3Z"/><path class="cls-5" d="M53.34,23.35a1,1,0,1,1-1-1A1,1,0,0,1,53.34,23.35Z"/><path class="cls-5" d="M55.48,9.28c0,.55-.33,1-.74,1s-.75-.45-.75-1,.34-1,.75-1S55.48,8.73,55.48,9.28Z"/><path class="cls-5" d="M55.51,12.5c0,.56-.33,1-.74,1s-.75-.44-.75-1,.34-1,.75-1S55.51,12,55.51,12.5Z"/><path class="cls-5" d="M55.51,15.64c0,.55-.33,1-.74,1s-.75-.45-.75-1,.34-1,.75-1S55.51,15.09,55.51,15.64Z"/><path class="cls-5" d="M55.51,18.68c0,.56-.33,1-.74,1s-.75-.45-.75-1a.9.9,0,0,1,.75-1C55.18,17.69,55.51,18.13,55.51,18.68Z"/><path class="cls-5" d="M55.51,21.73c0,.56-.33,1-.74,1s-.75-.45-.75-1,.34-1,.75-1S55.51,21.18,55.51,21.73Z"/><path class="cls-5" d="M55.51,25c0,.55-.33,1-.74,1S54,25.51,54,25s.34-1,.75-1S55.51,24.41,55.51,25Z"/><path class="cls-5" d="M45.64,9.28c0,.55-.34,1-.75,1s-.74-.45-.74-1,.33-1,.74-1S45.64,8.73,45.64,9.28Z"/><path class="cls-5" d="M45.67,12.5c0,.56-.33,1-.75,1s-.74-.44-.74-1,.33-1,.74-1S45.67,12,45.67,12.5Z"/><path class="cls-5" d="M45.67,15.64c0,.55-.33,1-.75,1s-.74-.45-.74-1,.33-1,.74-1S45.67,15.09,45.67,15.64Z"/><path class="cls-5" d="M45.67,18.68c0,.56-.33,1-.75,1s-.74-.45-.74-1,.33-1,.74-1S45.67,18.13,45.67,18.68Z"/><path class="cls-5" d="M45.67,21.73c0,.56-.33,1-.75,1s-.74-.45-.74-1,.33-1,.74-1S45.67,21.18,45.67,21.73Z"/><path class="cls-5" d="M45.67,25c0,.55-.33,1-.75,1s-.74-.45-.74-1,.33-1,.74-1S45.67,24.41,45.67,25Z"/><path class="cls-5" d="M57.24,11c0,.55-.22,1-.5,1s-.5-.45-.5-1,.23-1,.5-1S57.24,10.47,57.24,11Z"/><path class="cls-5" d="M57.27,14.25c0,.55-.23,1-.5,1s-.5-.45-.5-1,.22-1,.5-1S57.27,13.69,57.27,14.25Z"/><path class="cls-5" d="M57.27,17.38c0,.55-.23,1-.5,1s-.5-.45-.5-1,.22-1,.5-1S57.27,16.83,57.27,17.38Z"/><path class="cls-5" d="M57.27,20.43c0,.55-.23,1-.5,1s-.5-.45-.5-1,.22-1,.5-1S57.27,19.88,57.27,20.43Z"/><path class="cls-5" d="M57.27,23.48c0,.55-.23,1-.5,1s-.5-.45-.5-1,.22-1,.5-1S57.27,22.93,57.27,23.48Z"/><path class="cls-5" d="M43.48,11.06c0,.56-.22,1-.5,1s-.5-.45-.5-1,.22-1,.5-1S43.48,10.51,43.48,11.06Z"/><path class="cls-5" d="M43.5,14.29c0,.55-.22,1-.5,1s-.5-.45-.5-1,.23-1,.5-1S43.5,13.73,43.5,14.29Z"/><path class="cls-5" d="M43.5,17.43c0,.55-.22,1-.5,1s-.5-.44-.5-1,.23-1,.5-1S43.5,16.87,43.5,17.43Z"/><path class="cls-5" d="M43.5,20.47c0,.56-.22,1-.5,1s-.5-.44-.5-1,.23-1,.5-1S43.5,19.92,43.5,20.47Z"/><path class="cls-5" d="M43.5,23.52c0,.55-.22,1-.5,1s-.5-.45-.5-1,.23-1,.5-1S43.5,23,43.5,23.52Z"/><path class="cls-5" d="M58.05,9.54c0,.55-.13,1-.3,1s-.3-.45-.3-1,.14-1,.3-1S58.05,9,58.05,9.54Z"/><path class="cls-5" d="M58.06,12.76c0,.56-.13,1-.3,1s-.29-.44-.29-1,.13-1,.29-1S58.06,12.21,58.06,12.76Z"/><path class="cls-5" d="M58.06,15.9c0,.55-.13,1-.3,1s-.29-.45-.29-1,.13-1,.29-1S58.06,15.35,58.06,15.9Z"/><path class="cls-5" d="M58.06,19c0,.55-.13,1-.3,1s-.29-.45-.29-1,.13-1,.29-1S58.06,18.4,58.06,19Z"/><path class="cls-5" d="M58.06,22c0,.55-.13,1-.3,1s-.29-.45-.29-1,.13-1,.29-1S58.06,21.44,58.06,22Z"/><path class="cls-5" d="M58.06,25.22c0,.55-.13,1-.3,1s-.29-.45-.29-1,.13-1,.29-1S58.06,24.67,58.06,25.22Z"/><path class="cls-5" d="M42,9.36c0,.56-.14,1-.3,1s-.3-.45-.3-1,.13-1,.3-1S42,8.81,42,9.36Z"/><path class="cls-5" d="M42,12.59c0,.55-.13,1-.3,1s-.3-.45-.3-1,.14-1,.3-1S42,12,42,12.59Z"/><path class="cls-5" d="M42,15.73c0,.55-.13,1-.3,1s-.3-.45-.3-1,.14-1,.3-1S42,15.17,42,15.73Z"/><path class="cls-5" d="M42,18.77c0,.56-.13,1-.3,1s-.3-.45-.3-1,.14-1,.3-1S42,18.22,42,18.77Z"/><path class="cls-5" d="M42,21.82c0,.56-.13,1-.3,1s-.3-.44-.3-1,.14-1,.3-1S42,21.27,42,21.82Z"/><path class="cls-5" d="M42,25c0,.56-.13,1-.3,1s-.3-.45-.3-1,.14-1,.3-1S42,24.49,42,25Z"/><path class="cls-1" d="M49,52.46a1.78,1.78,0,0,1-1.77-2.65l1.43-3.5c.59-1.45,1.57-1.45,2.16,0l1.43,3.5a1.78,1.78,0,0,1-1.77,2.65Z"/><path class="cls-1" d="M39.31,44.68a.79.79,0,0,0,0,1.58H60.09a.79.79,0,0,0,0-1.58Z"/><path class="cls-1" d="M59.81,19V29.45a4.52,4.52,0,0,1-3.44,4.73c-.71,0-9.37.07-13.1,0-3.17,0-3.63-4.18-3.65-4.35V20.2H38v9.71c.2,2.05,1.54,5.8,5.2,5.86,3.89.07,13.14,0,13.23,0h.14a6.15,6.15,0,0,0,4.79-6.43V19Z"/><path class="cls-6" d="M61.9,19.23v2.21H59.29V19.23a1.31,1.31,0,0,1,2.61,0Z"/><path class="cls-7" d="M37.5,19.23v2.21h2.61V19.23a1.31,1.31,0,0,0-2.61,0Z"/><path class="cls-1" d="M43.39,40.29c0,3,2.83,5.34,6.31,5.34S56,43.24,56,40.29,53.18,35,49.7,35,43.39,37.34,43.39,40.29Zm1.58,0c0-2.07,2.12-3.76,4.73-3.76s4.73,1.69,4.73,3.76S52.31,44,49.7,44,45,42.36,45,40.29Z"/><path class="cls-1" d="M29,.69A37.79,37.79,0,0,1,6.88.69a.8.8,0,0,0-1,.53.81.81,0,0,0,.53,1,39.43,39.43,0,0,0,23,0A.79.79,0,0,0,29,.69Z"/><path class="cls-1" d="M34.79,6.1a51.45,51.45,0,0,1-33.73,0A.79.79,0,1,0,.53,7.59a53.06,53.06,0,0,0,34.79,0,.8.8,0,0,0,.48-1A.79.79,0,0,0,34.79,6.1Z"/><path class="cls-1" d="M11.8,10.79a4.32,4.32,0,0,0-1.34,3.15c0,3,3,5.59,6.66,5.6h1.61c3.61,0,6.66-2.57,6.66-5.6h0a4.32,4.32,0,0,0-1.34-3.15,7.39,7.39,0,0,0-5.34-1.85H17.13A7.37,7.37,0,0,0,11.8,10.79ZM12,13.94a2.72,2.72,0,0,1,.88-2,5.79,5.79,0,0,1,4.19-1.4h1.63a5.8,5.8,0,0,1,4.19,1.4,2.75,2.75,0,0,1,.88,2h0c0,2.17-2.33,4-5.09,4h-1.6C14.37,18,12,16.11,12,13.94Z"/><path class="cls-1" d="M17.13,19.42V35.3a.8.8,0,0,0,1.59,0V19.42a.8.8,0,0,0-1.59,0Z"/><path class="cls-1" d="M30.91,16.78v4.38c0,2-2.2,3.69-4.9,3.69-5.29.07-10.88.07-16.16,0-2.72,0-4.91-1.6-4.91-3.55V17.05a.8.8,0,0,0-1.59,0V21.3c0,2.82,2.91,5.13,6.49,5.14,5.28.06,10.88.07,16.18,0,3.57,0,6.48-2.38,6.48-5.28V16.78a.8.8,0,0,0-1.59,0Z"/><path class="cls-1" d="M7.64,43.1a.79.79,0,1,0,.29,1.56,57.36,57.36,0,0,1,20,0,.79.79,0,1,0,.28-1.56A58.68,58.68,0,0,0,7.64,43.1Z"/><path class="cls-1" d="M13.47,35.19c-3.56.12-6.57,3-6.57,6.29V47.4c0,3.39,4.18,4.67,4.36,4.73l.23,0H24.36l.22,0c.18-.06,4.36-1.34,4.36-4.73h0V41.48c0-3.29-3-6.17-6.57-6.29C19.42,35.07,16.42,35.07,13.47,35.19Zm-5,12.21V41.48a5.07,5.07,0,0,1,5-4.7c2.92-.12,5.87-.12,8.78,0a5.06,5.06,0,0,1,5,4.7V47.4c0,2-2.65,3-3.12,3.17H11.62C11.15,50.41,8.49,49.42,8.49,47.4Z"/><path class="cls-1" d="M6.9,34.24v6.93a.79.79,0,0,0,.8.79.79.79,0,0,0,.79-.79V34.24a.79.79,0,0,0-.79-.8A.8.8,0,0,0,6.9,34.24Z"/><path class="cls-1" d="M27.35,34.24v6.93a.79.79,0,0,0,.8.79.79.79,0,0,0,.79-.79V34.24a.79.79,0,0,0-.79-.8A.8.8,0,0,0,27.35,34.24Z"/></g></g></svg>