<svg xmlns="http://www.w3.org/2000/svg" xmlns:xlink="http://www.w3.org/1999/xlink" viewBox="0 0 161.69 108.91"><defs><style>.cls-1{fill:#552b8c;}.cls-2{fill:#b5b5b6;opacity:0.75;}.cls-3{fill:#dcdddd;}.cls-4{fill:#898989;}.cls-5{fill:#fff;}.cls-6{fill:url(#linear-gradient);}.cls-7{fill:url(#linear-gradient-2);}.cls-8{font-size:14px;fill:#231815;stroke:#231815;stroke-miterlimit:10;stroke-width:0.25px;font-family:MicrosoftJhengHeiRegular, Microsoft JhengHei;letter-spacing:0.1em;}</style><linearGradient id="linear-gradient" x1="-362.68" y1="-16715.48" x2="-362.68" y2="-16710.13" gradientTransform="matrix(0, 1, 1, 0, 16823.16, 382.36)" gradientUnits="userSpaceOnUse"><stop offset="0" stop-color="#552b8c"/><stop offset="0.05" stop-color="#5b3290"/><stop offset="0.12" stop-color="#6a4499"/><stop offset="0.2" stop-color="#8462aa"/><stop offset="0.29" stop-color="#a88cc0"/><stop offset="0.38" stop-color="#d6c1dd"/><stop offset="0.4" stop-color="#e1cee4"/><stop offset="0.66" stop-color="#a183bc"/><stop offset="0.89" stop-color="#6a4499"/><stop offset="1" stop-color="#552b8c"/></linearGradient><linearGradient id="linear-gradient-2" x1="-362.68" y1="-17004.27" x2="-362.68" y2="-16998.91" gradientTransform="translate(-16913.02 382.36) rotate(90)" xlink:href="#linear-gradient"/></defs><g id="圖層_2" data-name="圖層 2"><g id="圖層_1-2" data-name="圖層 1"><path class="cls-1" d="M5,81.26,3.63,79c-.47-.77-.94-1.52-1.43-2.25a2.41,2.41,0,0,1,1.71-.63,7.89,7.89,0,0,1,1.84.3,9,9,0,0,1,2.33,1A18.27,18.27,0,0,1,10.25,79a7.31,7.31,0,0,0,1.31,1,9.64,9.64,0,0,0,1.08.3l.82.1a3.69,3.69,0,0,0,3.31-1.46,4.79,4.79,0,0,0,1-2.5,3.26,3.26,0,0,0-1.53-2.54,16.4,16.4,0,0,0-4.84-2.2l-3.43-1c-.31-.12-.62-.25-.91-.39a7,7,0,0,1-1.12-.7,6.05,6.05,0,0,1-2.19-2.31A7.09,7.09,0,0,1,3.07,64a4.56,4.56,0,0,1,.46-2,6,6,0,0,1,3.26-2.87,11.26,11.26,0,0,1,2.83-.57l1.14,0a15.82,15.82,0,0,1,1.86.23l1.59.27.69.1q.18,0,.78.06l.7,0A4.94,4.94,0,0,0,17.74,59l2.65,4.26a3.2,3.2,0,0,1-1.65.45,5.19,5.19,0,0,1-1.66-.35l-.59-.3H16.4l-2.51-1.79a5.74,5.74,0,0,0-3.19-1.22,2.74,2.74,0,0,0-.81.12,5.18,5.18,0,0,0-1.19.63,2.09,2.09,0,0,0-.78,1.9,2.22,2.22,0,0,0,.74,1.84,5.77,5.77,0,0,0,1.61.93c.58.22,1.17.43,1.78.61l2.57.79A18.87,18.87,0,0,1,19.2,68.8a5.74,5.74,0,0,1,2,2.34,8.83,8.83,0,0,1,.83,2.62,11.56,11.56,0,0,1-.3,2.88,6.26,6.26,0,0,1-1.11,2.2A6.68,6.68,0,0,1,19,80.46a8.42,8.42,0,0,1-2,.89,8.25,8.25,0,0,1-2.29.38c-.76,0-1.42,0-1.95,0a7.81,7.81,0,0,1-1.28-.11c-.43-.07-1.11-.23-2-.47L8.66,81a8.8,8.8,0,0,0-1.78-.21A4.5,4.5,0,0,0,5,81.26Z"/><path class="cls-1" d="M23.59,68.39a5.16,5.16,0,0,0-.62-1A9.62,9.62,0,0,0,25.74,67c1-.32,2-.64,2.86-1v1.86a4.85,4.85,0,0,1,2.27-1.55A7.36,7.36,0,0,1,32.69,66a3.72,3.72,0,0,1,2.67,1.35l.39.44.7-.64A5.3,5.3,0,0,1,39.6,66a10.85,10.85,0,0,1,1.15.11,3.11,3.11,0,0,1,1.61.84,2.21,2.21,0,0,1,.8,1.68V78.91a2.88,2.88,0,0,0,.14.82,4,4,0,0,0,.49,1l.39.51H37.84A3.9,3.9,0,0,0,38.49,79V70.38a1.78,1.78,0,0,0-.42-1.09l-.3-.28a1.23,1.23,0,0,0-.62-.18,1,1,0,0,0-.95.45,3.71,3.71,0,0,0-.28.71,3.55,3.55,0,0,0-.06.76V79a3.39,3.39,0,0,0,.68,2.17h-6a3.09,3.09,0,0,0,.51-1,3,3,0,0,0,.19-1V70.1a1.17,1.17,0,0,0-.39-.9,1.39,1.39,0,0,0-1-.37,1.16,1.16,0,0,0-.9.44,1.59,1.59,0,0,0-.38,1.11v8.94a3.22,3.22,0,0,0,.33,1.43l.28.45H23a3.79,3.79,0,0,0,.65-1A2.92,2.92,0,0,0,24,79V69.32a.85.85,0,0,0,0-.24A5.53,5.53,0,0,0,23.59,68.39Z"/><path class="cls-1" d="M51.84,71l.62-.17-.12-.73c-.17-.92-.82-1.38-2-1.38a5.42,5.42,0,0,0-1.65.29,8.92,8.92,0,0,0-2,1l-.51.31a3.73,3.73,0,0,1,.59-1.63,4.46,4.46,0,0,1,1.21-1.24,7.42,7.42,0,0,1,1.23-.71,8.51,8.51,0,0,1,1.43-.42,7.88,7.88,0,0,1,1.86-.22,4.29,4.29,0,0,1,3.2,1.18,5.84,5.84,0,0,1,1.43,3.46l1,8.66a2.78,2.78,0,0,0,.35.95,2.94,2.94,0,0,0,.78.87H53.75l-.11-.8-.5.31a9.37,9.37,0,0,1-1.18.53,6.13,6.13,0,0,1-2.31.39,4.32,4.32,0,0,1-2.74-.88,3.72,3.72,0,0,1-1.42-2,7.25,7.25,0,0,1-.28-1.69,4.15,4.15,0,0,1,.49-2,6.73,6.73,0,0,1,1.14-1.5A8.77,8.77,0,0,1,48.3,72.4a9.64,9.64,0,0,1,1.56-.8A18.24,18.24,0,0,1,51.84,71Zm.75.85a5.11,5.11,0,0,0-1.21,1,6,6,0,0,0-.87,1.52,4.32,4.32,0,0,0-.42,1.74v.64a3.83,3.83,0,0,0,.58,2.17,1.79,1.79,0,0,0,1.53.84,1.53,1.53,0,0,0,1.3-.67Z"/><path class="cls-1" d="M59.86,68.37l-.53-.57,1.38-.42,1.4-.44,1.44-.45L65,66v2.66l.42-.59a6.67,6.67,0,0,1,1.39-1.42,2.72,2.72,0,0,1,1-.45,6.56,6.56,0,0,1,.74-.07,2.37,2.37,0,0,1,1.84.75,2.85,2.85,0,0,1,.68,2,2.45,2.45,0,0,1-.56,1.71,1.93,1.93,0,0,1-1.48.6,3.28,3.28,0,0,1-1.37-.32A3.45,3.45,0,0,1,66.46,70a1,1,0,0,0-.75.2,5.65,5.65,0,0,0-.73.56v8.68a1.64,1.64,0,0,0,.41,1.18,3.6,3.6,0,0,0,.66.56H59.31l.4-.42a2.61,2.61,0,0,0,.6-1.49V69.72A2.24,2.24,0,0,0,59.86,68.37Z"/><path class="cls-1" d="M72.12,68.65h-1.5a48.26,48.26,0,0,0,4.6-3.91l1.54-1.54v3.62h2.45v1.83H76.76v9.6c0,.79.46,1.19,1.38,1.19a2.54,2.54,0,0,0,.65-.09l.73-.24.37-.2a3.45,3.45,0,0,1-.74,1.45,3.65,3.65,0,0,1-1.25,1,8.21,8.21,0,0,1-1,.42,2.35,2.35,0,0,1-.54.07h-.79A3.12,3.12,0,0,1,72.12,79V68.65Z"/><path class="cls-1" d="M144.49,81.69h-6.65l.46-.48a2.9,2.9,0,0,0,.56-1.65V69.7a1.92,1.92,0,0,0-1-1.77,9.68,9.68,0,0,0,2.76-.46c1-.31,2-.63,2.87-1V79.58a2.5,2.5,0,0,0,.35,1.13,8,8,0,0,0,.42.74A1,1,0,0,0,144.49,81.69Zm-3.42-16.32a3,3,0,0,1-2-.66,2.09,2.09,0,0,1-.8-1.68A2.46,2.46,0,0,1,141,60.45a2.76,2.76,0,0,1,2,.66,2.46,2.46,0,0,1,.69,1.87,2.27,2.27,0,0,1-.72,1.7A2.54,2.54,0,0,1,141.07,65.37Z"/><path class="cls-1" d="M151.54,81.94h-6.26l.48-.4a2,2,0,0,0,.54-1.37V69.8a1.39,1.39,0,0,0-.16-.61,2.72,2.72,0,0,0-.46-.68l-.35-.31a9.18,9.18,0,0,0,2.76-.47c1-.31,2-.64,2.85-1v1.54l.5-.34a5.36,5.36,0,0,1,2.84-1.1,4.36,4.36,0,0,1,2.84.78,3.38,3.38,0,0,1,1.08,2.48v8.63a4.5,4.5,0,0,0,.17,1.19,10.76,10.76,0,0,0,.63,1.56l.22.45H153l.31-.56a2.7,2.7,0,0,0,.3-1v-10q0-.93-1.17-.93a2.71,2.71,0,0,0-.68.09.82.82,0,0,0-.56.52,3.39,3.39,0,0,0-.21,1.39v9.77C150.94,81.48,151.14,81.73,151.54,81.94Z"/><path class="cls-1" d="M106.2,81.69H99.55l.46-.48a2.9,2.9,0,0,0,.56-1.65V69.7a1.93,1.93,0,0,0-1-1.77,9.67,9.67,0,0,0,2.75-.46c1-.31,2-.63,2.88-1V79.58a2.47,2.47,0,0,0,.34,1.13,8,8,0,0,0,.42.74A1,1,0,0,0,106.2,81.69Zm-3.42-16.32a3,3,0,0,1-2-.66A2.09,2.09,0,0,1,100,63a2.46,2.46,0,0,1,2.66-2.58,2.76,2.76,0,0,1,2,.66,2.46,2.46,0,0,1,.69,1.87,2.29,2.29,0,0,1-.71,1.7A2.59,2.59,0,0,1,102.78,65.37Z"/><path class="cls-1" d="M113.25,81.69H107l.48-.39a2.06,2.06,0,0,0,.54-1.38V69.56a1.39,1.39,0,0,0-.16-.62,2.51,2.51,0,0,0-.46-.67l-.34-.31a9.5,9.5,0,0,0,2.75-.47q1.53-.48,2.85-1V68l.5-.34A5.33,5.33,0,0,1,116,66.61a4.42,4.42,0,0,1,2.84.77,3.38,3.38,0,0,1,1.08,2.49v8.62a4.5,4.5,0,0,0,.17,1.19,10.76,10.76,0,0,0,.63,1.56l.22.45h-6.27l.31-.56a2.71,2.71,0,0,0,.31-1v-10c0-.62-.4-.93-1.18-.93a2.71,2.71,0,0,0-.68.09.84.84,0,0,0-.56.52,3.39,3.39,0,0,0-.21,1.39v9.77C112.65,81.23,112.85,81.48,113.25,81.69Z"/><path class="cls-1" d="M98.76,63.49a5.91,5.91,0,0,0-.82-2.1,4.57,4.57,0,0,0-1.6-1.48,5.05,5.05,0,0,0-2.48-.56,4.78,4.78,0,0,0-1.42.21,11.3,11.3,0,0,0-1.3.47c-.42.19-.83.37-1.24.57A9.47,9.47,0,0,1,89,61l0-2.29-.33.11c-1,.29-1.87.59-2.78.86a14.18,14.18,0,0,1-2.8.57l-.44.05.28.35c.34.43.64.83.89,1.18A2.16,2.16,0,0,1,84.16,63V79.7a1.34,1.34,0,0,1-.4,1,5.93,5.93,0,0,1-.94.81l-.65.45h8l.11-.47a4.92,4.92,0,0,1-.7-.4,1.45,1.45,0,0,1-.35-.35,1.32,1.32,0,0,1-.15-.45,6.09,6.09,0,0,1,0-.83V77.55a1.5,1.5,0,0,1,.32-.89,5.9,5.9,0,0,1,.83-.92,7.65,7.65,0,0,1,1-.78l.94-.57c.9-.52,1.81-1,2.7-1.6s3-1.69,3.69-3.75a7.58,7.58,0,0,0,.36-1.55A9.3,9.3,0,0,0,99,65.94,12.19,12.19,0,0,0,98.76,63.49Zm-9.51,9.2V63.16c.1-.09,4-1,4.55,1a6.29,6.29,0,0,1,.26,1.45C94.3,70.68,90.6,71.9,89.25,72.69Z"/><path class="cls-1" d="M130,66.5l.4.73c.33.61.66,1.23,1,1.87a3.92,3.92,0,0,1,.45,1.82,9.9,9.9,0,0,1-.11,1.35,10.11,10.11,0,0,1-.33,1.48,6.24,6.24,0,0,1-.56,1.32,2.61,2.61,0,0,1-.33.45L125.8,65.4l-.8.6-.06,0a9.48,9.48,0,0,1-1.77.71c-.65.18-1.29.34-1.93.49l-.84.19.59.63a11.25,11.25,0,0,1,1.11,1.47c.44.67.9,1.43,1.35,2.25s1,1.74,1.44,2.69,1,1.88,1.39,2.78.85,1.74,1.22,2.53l.86,1.84a.63.63,0,0,1-.17.47,1.66,1.66,0,0,1-.75.21,10.51,10.51,0,0,1-1.23,0,7.37,7.37,0,0,0-1.4,0,2.39,2.39,0,0,0-1.26.48,1.83,1.83,0,0,0-.59,1.51,1.86,1.86,0,0,0,.37,1.17,2.21,2.21,0,0,0,.83.65,3.49,3.49,0,0,0,1,.29,6.9,6.9,0,0,0,1,.08,4.74,4.74,0,0,0,1.42-.22,2.36,2.36,0,0,0,1.24-1,9.56,9.56,0,0,0,1.1-2.32c.26-.8.52-1.57.78-2.29s.71-1.93,1.18-3.18,1-2.54,1.52-3.82,1.14-2.51,1.75-3.65a13.73,13.73,0,0,1,1.74-2.63l.74-.82Z"/><path class="cls-1" d="M107.79,7c-.35-3.94-4-7-8.33-7s-8,3.09-8.33,7h0V25.58h0a8.36,8.36,0,0,0,16.66,0h0Z"/><path class="cls-2" d="M105.89,5.81A6.52,6.52,0,0,0,93,5.81h-.07V26.58a6.54,6.54,0,1,0,13.07,0V5.81Z"/><path class="cls-3" d="M98.9.26a4.34,4.34,0,0,0-4.32,4.36v24a4.32,4.32,0,1,0,8.63,0v-24A4.33,4.33,0,0,0,98.9.26Z"/><path class="cls-4" d="M100.48,9.61a1,1,0,1,1-1-1A1,1,0,0,1,100.48,9.61Z"/><path class="cls-4" d="M100.53,12.83a1,1,0,1,1-1-1A1,1,0,0,1,100.53,12.83Z"/><path class="cls-4" d="M100.53,16a1,1,0,1,1-1-1A1,1,0,0,1,100.53,16Z"/><path class="cls-4" d="M100.53,19a1,1,0,0,1-2,0,1,1,0,1,1,2,0Z"/><path class="cls-4" d="M100.53,22.06a1,1,0,1,1-1-1A1,1,0,0,1,100.53,22.06Z"/><path class="cls-4" d="M100.53,25.29a1,1,0,0,1-2,0,1,1,0,1,1,2,0Z"/><path class="cls-4" d="M97.89,11.22a1,1,0,1,1-1-1A1,1,0,0,1,97.89,11.22Z"/><path class="cls-4" d="M97.94,14.44a1,1,0,1,1-1-1A1,1,0,0,1,97.94,14.44Z"/><path class="cls-4" d="M97.94,17.58a1,1,0,1,1-1-1A1,1,0,0,1,97.94,17.58Z"/><path class="cls-4" d="M97.94,20.62a1,1,0,1,1-1-1A1,1,0,0,1,97.94,20.62Z"/><path class="cls-4" d="M97.94,23.67a1,1,0,1,1-1-1A1,1,0,0,1,97.94,23.67Z"/><path class="cls-4" d="M103,11.22a1,1,0,1,1-1-1A1,1,0,0,1,103,11.22Z"/><path class="cls-4" d="M103.08,14.44a1,1,0,1,1-1-1A1,1,0,0,1,103.08,14.44Z"/><path class="cls-4" d="M103.08,17.58a1,1,0,1,1-1-1A1,1,0,0,1,103.08,17.58Z"/><path class="cls-4" d="M103.08,20.62a1,1,0,1,1-1-1A1,1,0,0,1,103.08,20.62Z"/><path class="cls-4" d="M103.08,23.67a1,1,0,1,1-1-1A1,1,0,0,1,103.08,23.67Z"/><path class="cls-4" d="M105.22,9.61c0,.55-.33,1-.74,1s-.75-.45-.75-1,.34-1,.75-1S105.22,9.05,105.22,9.61Z"/><path class="cls-4" d="M105.25,12.83c0,.55-.33,1-.74,1s-.75-.45-.75-1,.34-1,.75-1S105.25,12.28,105.25,12.83Z"/><path class="cls-4" d="M105.25,16c0,.56-.33,1-.74,1s-.75-.45-.75-1,.34-1,.75-1S105.25,15.41,105.25,16Z"/><path class="cls-4" d="M105.25,19c0,.55-.33,1-.74,1a.9.9,0,0,1-.75-1c0-.56.34-1,.75-1S105.25,18.46,105.25,19Z"/><path class="cls-4" d="M105.25,22.06c0,.56-.33,1-.74,1s-.75-.44-.75-1,.34-1,.75-1S105.25,21.51,105.25,22.06Z"/><path class="cls-4" d="M105.25,25.29c0,.55-.33,1-.74,1s-.75-.45-.75-1,.34-1,.75-1S105.25,24.73,105.25,25.29Z"/><path class="cls-4" d="M95.38,9.61c0,.55-.34,1-.75,1s-.74-.45-.74-1,.33-1,.74-1S95.38,9.05,95.38,9.61Z"/><path class="cls-4" d="M95.41,12.83c0,.55-.33,1-.74,1s-.75-.45-.75-1,.33-1,.75-1S95.41,12.28,95.41,12.83Z"/><path class="cls-4" d="M95.41,16c0,.56-.33,1-.74,1s-.75-.45-.75-1,.33-1,.75-1S95.41,15.41,95.41,16Z"/><path class="cls-4" d="M95.41,19c0,.55-.33,1-.75,1s-.74-.44-.74-1,.33-1,.74-1S95.41,18.46,95.41,19Z"/><path class="cls-4" d="M95.41,22.06c0,.56-.33,1-.75,1s-.74-.44-.74-1,.33-1,.74-1S95.41,21.51,95.41,22.06Z"/><path class="cls-4" d="M95.41,25.29c0,.55-.33,1-.74,1s-.75-.45-.75-1,.33-1,.75-1S95.41,24.73,95.41,25.29Z"/><path class="cls-4" d="M107,11.35c0,.55-.22,1-.5,1s-.49-.45-.49-1,.22-1,.49-1S107,10.79,107,11.35Z"/><path class="cls-4" d="M107,14.57c0,.55-.23,1-.5,1s-.5-.45-.5-1,.22-1,.5-1S107,14,107,14.57Z"/><path class="cls-4" d="M107,17.71c0,.55-.23,1-.5,1s-.5-.45-.5-1,.22-1,.5-1S107,17.15,107,17.71Z"/><path class="cls-4" d="M107,20.76c0,.55-.23,1-.5,1s-.5-.45-.5-1,.22-1,.5-1S107,20.2,107,20.76Z"/><path class="cls-4" d="M107,23.8c0,.56-.23,1-.5,1s-.5-.45-.5-1,.22-1,.5-1S107,23.25,107,23.8Z"/><path class="cls-4" d="M93.22,11.39c0,.55-.22,1-.5,1s-.5-.45-.5-1,.23-1,.5-1S93.22,10.84,93.22,11.39Z"/><path class="cls-4" d="M93.24,14.62c0,.55-.22,1-.5,1s-.5-.45-.5-1,.23-1,.5-1S93.24,14.06,93.24,14.62Z"/><path class="cls-4" d="M93.24,17.75c0,.55-.22,1-.5,1s-.5-.45-.5-1,.23-1,.5-1S93.24,17.2,93.24,17.75Z"/><path class="cls-4" d="M93.24,20.8c0,.55-.22,1-.5,1s-.5-.45-.5-1,.23-1,.5-1S93.24,20.25,93.24,20.8Z"/><path class="cls-4" d="M93.24,23.85c0,.55-.22,1-.5,1s-.5-.45-.5-1,.23-1,.5-1S93.24,23.29,93.24,23.85Z"/><path class="cls-4" d="M107.79,9.87c0,.55-.13,1-.3,1s-.3-.45-.3-1,.13-1,.3-1S107.79,9.31,107.79,9.87Z"/><path class="cls-4" d="M107.8,13.09c0,.55-.13,1-.3,1s-.3-.45-.3-1,.14-1,.3-1S107.8,12.54,107.8,13.09Z"/><path class="cls-4" d="M107.8,16.23c0,.55-.13,1-.3,1s-.3-.45-.3-1,.14-1,.3-1S107.8,15.67,107.8,16.23Z"/><path class="cls-4" d="M107.8,19.28c0,.55-.13,1-.3,1s-.3-.45-.3-1,.14-1,.3-1S107.8,18.72,107.8,19.28Z"/><path class="cls-4" d="M107.8,22.33c0,.55-.13,1-.3,1s-.3-.45-.3-1,.14-1,.3-1S107.8,21.77,107.8,22.33Z"/><path class="cls-4" d="M107.8,25.55c0,.55-.13,1-.3,1s-.3-.45-.3-1,.14-1,.3-1S107.8,25,107.8,25.55Z"/><path class="cls-4" d="M91.72,9.7c0,.55-.14,1-.3,1s-.3-.44-.3-1,.13-1,.3-1S91.72,9.14,91.72,9.7Z"/><path class="cls-4" d="M91.73,12.92c0,.55-.13,1-.3,1s-.3-.45-.3-1,.13-1,.3-1S91.73,12.36,91.73,12.92Z"/><path class="cls-4" d="M91.73,16.05c0,.55-.13,1-.3,1s-.3-.45-.3-1,.13-1,.3-1S91.73,15.5,91.73,16.05Z"/><path class="cls-4" d="M91.73,19.1c0,.56-.13,1-.3,1s-.3-.44-.3-1,.13-1,.3-1S91.73,18.55,91.73,19.1Z"/><path class="cls-4" d="M91.73,22.15c0,.55-.13,1-.3,1s-.3-.45-.3-1,.13-1,.3-1S91.73,21.6,91.73,22.15Z"/><path class="cls-4" d="M91.73,25.37c0,.56-.13,1-.3,1s-.3-.44-.3-1,.13-1,.3-1S91.73,24.82,91.73,25.37Z"/><path class="cls-5" d="M99.57,1.46a2.13,2.13,0,0,1-1.26,2.69,2.14,2.14,0,0,1-2.92-.53A2.14,2.14,0,0,1,96.65.92,2.14,2.14,0,0,1,99.57,1.46Z"/><path class="cls-5" d="M100.51,9.28a1,1,0,1,1-1-1A1,1,0,0,1,100.51,9.28Z"/><path class="cls-5" d="M100.55,12.5a1,1,0,1,1-1-1A1,1,0,0,1,100.55,12.5Z"/><path class="cls-5" d="M100.55,15.64a1,1,0,0,1-2,0,1,1,0,0,1,2,0Z"/><path class="cls-5" d="M100.55,18.68a1,1,0,1,1-2,0,1,1,0,0,1,2,0Z"/><path class="cls-5" d="M100.55,21.73a1,1,0,1,1-1-1A1,1,0,0,1,100.55,21.73Z"/><path class="cls-5" d="M100.55,25a1,1,0,1,1-1-1A1,1,0,0,1,100.55,25Z"/><path class="cls-5" d="M97.91,10.89a1,1,0,0,1-1,1,1,1,0,1,1,0-2A1,1,0,0,1,97.91,10.89Z"/><path class="cls-5" d="M98,14.11a1,1,0,1,1-1-1A1,1,0,0,1,98,14.11Z"/><path class="cls-5" d="M98,17.25a1,1,0,1,1-1-1A1,1,0,0,1,98,17.25Z"/><path class="cls-5" d="M98,20.3a1,1,0,1,1-1-1A1,1,0,0,1,98,20.3Z"/><path class="cls-5" d="M98,23.35a1,1,0,0,1-2,0,1,1,0,1,1,2,0Z"/><path class="cls-5" d="M103.05,10.89a1,1,0,1,1-1-1A1,1,0,0,1,103.05,10.89Z"/><path class="cls-5" d="M103.1,14.11a1,1,0,1,1-1-1A1,1,0,0,1,103.1,14.11Z"/><path class="cls-5" d="M103.1,17.25a1,1,0,1,1-1-1A1,1,0,0,1,103.1,17.25Z"/><path class="cls-5" d="M103.1,20.3a1,1,0,1,1-1-1A1,1,0,0,1,103.1,20.3Z"/><path class="cls-5" d="M103.1,23.35a1,1,0,1,1-1-1A1,1,0,0,1,103.1,23.35Z"/><path class="cls-5" d="M105.24,9.28c0,.55-.33,1-.74,1s-.75-.45-.75-1,.34-1,.75-1S105.24,8.73,105.24,9.28Z"/><path class="cls-5" d="M105.28,12.5c0,.56-.34,1-.75,1s-.74-.44-.74-1,.33-1,.74-1S105.28,12,105.28,12.5Z"/><path class="cls-5" d="M105.28,15.64c0,.55-.34,1-.75,1s-.74-.45-.74-1,.33-1,.74-1S105.28,15.09,105.28,15.64Z"/><path class="cls-5" d="M105.28,18.68c0,.56-.34,1-.75,1s-.74-.45-.74-1,.33-1,.74-1A.9.9,0,0,1,105.28,18.68Z"/><path class="cls-5" d="M105.28,21.73c0,.56-.34,1-.75,1s-.74-.45-.74-1,.33-1,.74-1S105.28,21.18,105.28,21.73Z"/><path class="cls-5" d="M105.28,25c0,.55-.34,1-.75,1s-.74-.45-.74-1,.33-1,.74-1S105.28,24.41,105.28,25Z"/><path class="cls-5" d="M95.4,9.28c0,.55-.34,1-.75,1s-.74-.45-.74-1,.33-1,.74-1S95.4,8.73,95.4,9.28Z"/><path class="cls-5" d="M95.43,12.5c0,.56-.33,1-.74,1s-.75-.44-.75-1,.34-1,.75-1S95.43,12,95.43,12.5Z"/><path class="cls-5" d="M95.43,15.64c0,.55-.33,1-.74,1s-.75-.45-.75-1,.34-1,.75-1S95.43,15.09,95.43,15.64Z"/><path class="cls-5" d="M95.43,18.68c0,.56-.33,1-.75,1s-.74-.45-.74-1,.34-1,.74-1S95.43,18.13,95.43,18.68Z"/><path class="cls-5" d="M95.43,21.73c0,.56-.33,1-.75,1s-.74-.45-.74-1,.34-1,.74-1S95.43,21.18,95.43,21.73Z"/><path class="cls-5" d="M95.43,25c0,.55-.33,1-.74,1s-.75-.45-.75-1,.34-1,.75-1S95.43,24.41,95.43,25Z"/><path class="cls-5" d="M107,11c0,.55-.22,1-.5,1s-.5-.45-.5-1,.22-1,.5-1S107,10.47,107,11Z"/><path class="cls-5" d="M107,14.25c0,.55-.22,1-.5,1s-.5-.45-.5-1,.22-1,.5-1S107,13.69,107,14.25Z"/><path class="cls-5" d="M107,17.38c0,.55-.22,1-.5,1s-.5-.45-.5-1,.22-1,.5-1S107,16.83,107,17.38Z"/><path class="cls-5" d="M107,20.43c0,.55-.22,1-.5,1s-.5-.45-.5-1,.22-1,.5-1S107,19.88,107,20.43Z"/><path class="cls-5" d="M107,23.48c0,.55-.22,1-.5,1s-.5-.45-.5-1,.22-1,.5-1S107,22.93,107,23.48Z"/><path class="cls-5" d="M93.24,11.06c0,.56-.22,1-.5,1s-.5-.45-.5-1,.23-1,.5-1S93.24,10.51,93.24,11.06Z"/><path class="cls-5" d="M93.26,14.29c0,.55-.22,1-.5,1s-.5-.45-.5-1,.23-1,.5-1S93.26,13.73,93.26,14.29Z"/><path class="cls-5" d="M93.26,17.43c0,.55-.22,1-.5,1s-.5-.44-.5-1,.23-1,.5-1S93.26,16.87,93.26,17.43Z"/><path class="cls-5" d="M93.26,20.47c0,.56-.22,1-.5,1s-.5-.44-.5-1,.23-1,.5-1S93.26,19.92,93.26,20.47Z"/><path class="cls-5" d="M93.26,23.52c0,.55-.22,1-.5,1s-.5-.45-.5-1,.23-1,.5-1S93.26,23,93.26,23.52Z"/><path class="cls-5" d="M107.81,9.54c0,.55-.13,1-.3,1s-.3-.45-.3-1,.14-1,.3-1S107.81,9,107.81,9.54Z"/><path class="cls-5" d="M107.83,12.76c0,.56-.14,1-.3,1s-.3-.44-.3-1,.13-1,.3-1S107.83,12.21,107.83,12.76Z"/><path class="cls-5" d="M107.83,15.9c0,.55-.14,1-.3,1s-.3-.45-.3-1,.13-1,.3-1S107.83,15.35,107.83,15.9Z"/><path class="cls-5" d="M107.83,19c0,.55-.14,1-.3,1s-.3-.45-.3-1,.13-1,.3-1S107.83,18.4,107.83,19Z"/><path class="cls-5" d="M107.83,22c0,.55-.14,1-.3,1s-.3-.45-.3-1,.13-1,.3-1S107.83,21.44,107.83,22Z"/><path class="cls-5" d="M107.83,25.22c0,.55-.14,1-.3,1s-.3-.45-.3-1,.13-1,.3-1S107.83,24.66,107.83,25.22Z"/><path class="cls-5" d="M91.74,9.36c0,.56-.14,1-.3,1s-.3-.45-.3-1,.13-1,.3-1S91.74,8.81,91.74,9.36Z"/><path class="cls-5" d="M91.75,12.59c0,.55-.13,1-.3,1s-.3-.45-.3-1,.14-1,.3-1S91.75,12,91.75,12.59Z"/><path class="cls-5" d="M91.75,15.73c0,.55-.13,1-.3,1s-.3-.45-.3-1,.14-1,.3-1S91.75,15.17,91.75,15.73Z"/><path class="cls-5" d="M91.75,18.77c0,.56-.13,1-.3,1s-.3-.45-.3-1,.14-1,.3-1S91.75,18.22,91.75,18.77Z"/><path class="cls-5" d="M91.75,21.82c0,.56-.13,1-.3,1s-.3-.44-.3-1,.14-1,.3-1S91.75,21.27,91.75,21.82Z"/><path class="cls-5" d="M91.75,25c0,.56-.13,1-.3,1s-.3-.45-.3-1,.14-1,.3-1S91.75,24.49,91.75,25Z"/><path class="cls-1" d="M98.72,52.46A1.78,1.78,0,0,1,97,49.81l1.43-3.5c.59-1.45,1.57-1.45,2.16,0l1.43,3.5a1.78,1.78,0,0,1-1.77,2.65Z"/><path class="cls-1" d="M89.07,44.68a.79.79,0,1,0,0,1.58h20.78a.79.79,0,1,0,0-1.58Z"/><path class="cls-1" d="M109.57,19V29.45a4.52,4.52,0,0,1-3.44,4.73c-.71,0-9.37.07-13.1,0-3.16,0-3.63-4.18-3.65-4.35V20.2H87.8v9.71c.2,2.05,1.54,5.8,5.2,5.86,3.9.07,13.14,0,13.23,0h.14a6.15,6.15,0,0,0,4.79-6.43V19Z"/><path class="cls-6" d="M111.66,19.23v2.21h-2.61V19.23a1.31,1.31,0,0,1,2.61,0Z"/><path class="cls-7" d="M87.26,19.23v2.21h2.61V19.23a1.31,1.31,0,0,0-2.61,0Z"/><path class="cls-1" d="M93.15,40.29c0,3,2.83,5.34,6.31,5.34s6.32-2.39,6.32-5.34S102.94,35,99.46,35,93.15,37.34,93.15,40.29Zm1.59,0c0-2.07,2.12-3.76,4.72-3.76s4.73,1.69,4.73,3.76S102.07,44,99.46,44,94.74,42.36,94.74,40.29Z"/><path class="cls-1" d="M78.73.69a37.79,37.79,0,0,1-22.09,0,.79.79,0,0,0-.46,1.52,39.39,39.39,0,0,0,23,0A.79.79,0,1,0,78.73.69Z"/><path class="cls-1" d="M84.55,6.1a51.45,51.45,0,0,1-33.73,0,.79.79,0,0,0-1,.47.8.8,0,0,0,.48,1,53.06,53.06,0,0,0,34.79,0,.8.8,0,0,0,.48-1A.79.79,0,0,0,84.55,6.1Z"/><path class="cls-1" d="M61.56,10.79a4.32,4.32,0,0,0-1.34,3.15c0,3,3,5.59,6.66,5.6H68.5c3.6,0,6.66-2.57,6.66-5.6h0a4.33,4.33,0,0,0-1.35-3.15,7.37,7.37,0,0,0-5.33-1.85H66.89A7.38,7.38,0,0,0,61.56,10.79Zm.24,3.15a2.76,2.76,0,0,1,.88-2,5.8,5.8,0,0,1,4.19-1.4H68.5a5.8,5.8,0,0,1,4.19,1.4,2.75,2.75,0,0,1,.88,2h0c0,2.17-2.33,4-5.08,4h-1.6C64.13,18,61.8,16.11,61.8,13.94Z"/><path class="cls-1" d="M66.89,19.42V35.3a.8.8,0,0,0,1.59,0V19.42a.8.8,0,0,0-1.59,0Z"/><path class="cls-1" d="M80.67,16.78v4.38c0,2-2.2,3.69-4.9,3.69-5.29.07-10.88.07-16.16,0-2.71,0-4.91-1.6-4.91-3.55V17.05a.8.8,0,0,0-1.59,0V21.3c0,2.82,2.91,5.13,6.49,5.14,5.29.06,10.88.07,16.18,0,3.57,0,6.48-2.38,6.48-5.28V16.78a.8.8,0,0,0-1.59,0Z"/><path class="cls-1" d="M57.41,43.1a.79.79,0,0,0,.28,1.56,57.36,57.36,0,0,1,20,0A.79.79,0,0,0,78,43.1,58.62,58.62,0,0,0,57.41,43.1Z"/><path class="cls-1" d="M63.23,35.19c-3.55.12-6.57,3-6.57,6.29V47.4c0,3.39,4.19,4.67,4.36,4.73l.23,0H74.12l.23,0c.17-.06,4.36-1.34,4.35-4.73h0V41.48c0-3.29-3-6.17-6.57-6.29C69.18,35.07,66.19,35.07,63.23,35.19Zm-5,12.21V41.48a5.07,5.07,0,0,1,5-4.7c2.92-.12,5.87-.12,8.78,0,2.74.09,5.05,2.24,5.05,4.7V47.4c0,2-2.66,3-3.13,3.17H61.38C60.91,50.41,58.25,49.42,58.25,47.4Z"/><path class="cls-1" d="M56.66,34.24v6.93a.79.79,0,0,0,.8.79.79.79,0,0,0,.79-.79V34.24a.79.79,0,0,0-.79-.8A.8.8,0,0,0,56.66,34.24Z"/><path class="cls-1" d="M77.12,34.24v6.93a.79.79,0,1,0,1.58,0V34.24a.79.79,0,1,0-1.58,0Z"/><text class="cls-8" transform="translate(0.13 105.13)">中文智能听说系统-拼音</text></g></g></svg>