<?xml version="1.0" encoding="utf-8"?>
<!-- Generator: Adobe Illustrator 25.4.1, SVG Export Plug-In . SVG Version: 6.00 Build 0)  -->
<svg version="1.1" id="圖層_1" xmlns="http://www.w3.org/2000/svg" xmlns:xlink="http://www.w3.org/1999/xlink" x="0px" y="0px"
	 viewBox="0 0 262.4 25.3" style="enable-background:new 0 0 262.4 25.3;" xml:space="preserve">
<style type="text/css">
	.st0{fill:#00A6E4;}
	.st1{fill:#DFC44A;}
	.st2{fill:#595757;}
</style>
<g id="圖層_2_00000072965454930251453920000015909068424934492068_">
	<g id="圖層_1-2">
		<path class="st0" d="M0,11.4l3.2-0.2c0,0.7,0.1,1.4,0.5,2.1c0.7,0.7,1.7,1,2.7,0.9c0.8,0.1,1.7-0.1,2.4-0.6
			c0.5-0.3,0.7-0.9,0.7-1.4c0-0.5-0.2-0.9-0.6-1.2C8.3,10.4,7.5,10,6.7,9.7c-1-0.4-1.9-0.9-2.8-1.4C3.3,7.9,2.8,7.5,2.5,6.9
			C2.1,6.2,2,5.5,2,4.8c0-1.3,0.5-2.6,1.5-3.4c1.2-1,2.8-1.5,4.3-1.4c1.6-0.1,3.2,0.4,4.5,1.4c1,0.9,1.7,2.2,1.7,3.6l-3.2,0.2
			c0-0.7-0.3-1.3-0.8-1.8C9.4,2.8,8.6,2.6,7.8,2.7c-0.7-0.1-1.4,0.1-2,0.5C5.5,3.4,5.2,3.9,5.2,4.4c0,0.5,0.2,0.9,0.6,1.2
			c0.7,0.5,1.6,1,2.4,1.3c1.3,0.5,2.5,1.2,3.6,2c0.8,0.8,1.2,1.8,1.1,2.9c0,1.4-0.6,2.8-1.7,3.7C9.9,16.5,8.2,17,6.4,17
			c-1.3,0-2.5-0.2-3.7-0.7c-0.9-0.4-1.7-1.1-2.2-2C0.2,13.4,0,12.4,0,11.4z"/>
		<path class="st1" d="M17.1,4.8h3l-0.3,1.4c1-1,2.3-1.6,3.7-1.7c0.7,0,1.5,0.1,2.1,0.6c0.5,0.4,0.8,0.9,0.9,1.5
			C27,6,27.6,5.5,28.3,5.1c0.7-0.4,1.6-0.6,2.4-0.6c0.8-0.1,1.6,0.2,2.2,0.8c0.5,0.5,0.8,1.3,0.8,2c-0.1,0.7-0.2,1.4-0.4,2.1
			l-1.5,7.2h-3.2l1.5-7.2c0.2-0.9,0.3-1.4,0.3-1.5c0-0.3-0.1-0.6-0.3-0.8c-0.3-0.2-0.6-0.3-0.9-0.3c-0.9,0-1.7,0.5-2.2,1.3
			c-0.6,1-1,2.1-1.2,3.2l-1.1,5.4h-3.2l1.5-7.2c0.1-0.5,0.2-1.1,0.2-1.6c0-0.3-0.1-0.6-0.3-0.8c-0.2-0.2-0.6-0.3-0.9-0.3
			c-0.4,0-0.8,0.1-1.1,0.3c-0.4,0.2-0.7,0.5-1,0.9c-0.3,0.4-0.6,0.9-0.7,1.4c-0.2,0.6-0.3,1.2-0.5,1.8l-1.1,5.4h-3.2L17.1,4.8z"/>
		<path class="st1" d="M39.6,8.1l-3.1-0.3c0.3-1,1-1.9,1.9-2.5c1.1-0.6,2.3-1,3.5-0.9c1.2-0.1,2.4,0.2,3.4,0.9
			c0.7,0.5,1.1,1.4,1.1,2.2c0,0.4,0,0.8-0.1,1.1c-0.1,0.4-0.3,1.5-0.7,3.2c-0.2,1-0.4,2-0.5,3c0,0.6,0.1,1.1,0.3,1.7h-3.1
			c-0.1-0.4-0.2-0.9-0.2-1.4c-0.5,0.5-1,0.9-1.6,1.2c-0.6,0.3-1.2,0.4-1.8,0.4c-0.9,0-1.8-0.3-2.4-1c-0.7-0.7-1-1.6-1-2.5
			c-0.1-1,0.3-2,1-2.7c1.1-0.8,2.4-1.3,3.8-1.2c1,0,2.1-0.2,3.1-0.4c0.1-0.4,0.2-0.7,0.2-1.1c0-0.3-0.1-0.7-0.4-0.9
			c-0.3-0.3-0.8-0.4-1.2-0.3c-0.5,0-0.9,0.1-1.3,0.3C39.9,7.4,39.7,7.7,39.6,8.1z M42.6,11.1c-0.3,0.1-0.5,0.1-0.8,0.1
			c-1.1,0-2.2,0.3-3.1,0.9c-0.3,0.3-0.5,0.7-0.5,1.1c0,0.4,0.1,0.7,0.4,1c0.3,0.3,0.7,0.4,1.1,0.4c0.5,0,1-0.2,1.4-0.4
			c0.4-0.2,0.8-0.5,1-0.9c0.3-0.5,0.5-1.1,0.6-1.7L42.6,11.1z"/>
		<path class="st1" d="M50,4.8h3l-0.5,2.3c1.1-1.7,2.3-2.6,3.6-2.6c0.5,0,1,0.1,1.5,0.3l-1.2,2.6c-0.3-0.1-0.6-0.2-0.9-0.2
			c-0.6,0-1.2,0.2-1.7,0.6c-0.6,0.4-1,1-1.3,1.7c-0.4,1.1-0.8,2.2-1,3.3l-0.8,3.7h-3.1L50,4.8z"/>
		<path class="st1" d="M57.4,7.2l0.5-2.4h1.6l0.4-1.9l3.7-2.2l-0.8,4.1h1.9l-0.5,2.4h-1.9l-1.1,5c-0.1,0.5-0.2,1-0.3,1.5
			c0,0.2,0.1,0.4,0.2,0.6c0.2,0.2,0.5,0.2,0.8,0.2c0.1,0,0.5,0,1-0.1l-0.5,2.4c-0.6,0.1-1.1,0.2-1.7,0.2c-0.9,0.1-1.7-0.2-2.4-0.6
			c-0.5-0.5-0.8-1.1-0.8-1.8c0.1-0.9,0.3-1.7,0.5-2.5l1-4.8H57.4z"/>
		<path class="st0" d="M67.6,16.6h-3.4l3.4-16.3h7.3c1,0,2,0.1,2.9,0.4c0.7,0.3,1.3,0.8,1.7,1.4c0.4,0.7,0.7,1.6,0.7,2.5
			c0,1.3-0.4,2.5-1.2,3.4c-1,1-2.4,1.6-3.8,1.7c0.5,0.4,0.9,1,1.2,1.5c1,1.7,1.8,3.5,2.5,5.4h-3.6c-0.3-0.9-0.9-2.4-1.7-4.3
			c-0.3-0.8-0.8-1.6-1.5-2.1c-0.5-0.3-1.1-0.4-1.7-0.3H69L67.6,16.6z M69.6,7.4h1.8c1.2,0.1,2.4,0,3.6-0.3c0.6-0.2,1-0.5,1.4-1
			c0.3-0.4,0.5-0.9,0.5-1.5c0-0.5-0.3-1.1-0.7-1.3C75.5,3.1,74.8,3,74.2,3h-3.7L69.6,7.4z"/>
		<path class="st1" d="M92.2,11.7h-8c0,0.1,0,0.2,0,0.3c0,0.7,0.2,1.4,0.7,1.9c0.4,0.5,1,0.7,1.6,0.7c1.1,0,2-0.7,2.5-1.6l2.9,0.5
			c-0.5,1.1-1.3,2-2.2,2.6c-0.9,0.6-2,0.9-3.1,0.9c-1.4,0.1-2.8-0.5-3.9-1.5c-1-1.1-1.6-2.5-1.5-4c0-1.6,0.5-3.1,1.3-4.3
			c1.2-1.7,3.2-2.7,5.2-2.6c1.3-0.1,2.5,0.4,3.4,1.3c0.9,1,1.4,2.4,1.3,3.8C92.4,10.3,92.3,11,92.2,11.7z M89.5,9.7
			c0-0.1,0-0.2,0-0.3c0.1-0.7-0.2-1.4-0.6-2c-0.4-0.4-1-0.7-1.6-0.7c-0.7,0-1.3,0.3-1.8,0.8c-0.6,0.6-0.9,1.4-1.1,2.2L89.5,9.7z"/>
		<path class="st1" d="M97.9,8.1l-3.1-0.3c0.3-1,1-1.9,1.9-2.5c1.1-0.6,2.3-1,3.5-0.9c1.2-0.1,2.4,0.2,3.3,0.9
			c0.7,0.5,1.1,1.4,1.1,2.2c0,0.4,0,0.8-0.1,1.1c-0.1,0.4-0.3,1.5-0.7,3.2c-0.3,1-0.4,2-0.5,3c0,0.6,0.1,1.1,0.3,1.7h-3.1
			c-0.2-0.4-0.2-0.9-0.3-1.3c-0.5,0.5-1,0.9-1.6,1.2c-0.6,0.3-1.2,0.4-1.8,0.4c-0.9,0-1.8-0.3-2.4-1c-0.7-0.7-1-1.6-1-2.5
			c-0.1-1,0.3-2,1-2.7c1.1-0.8,2.4-1.2,3.8-1.2c1-0.1,2-0.2,3-0.5c0.1-0.3,0.2-0.7,0.2-1.1c0-0.3-0.1-0.7-0.4-0.9
			c-0.3-0.3-0.8-0.4-1.2-0.3c-0.5,0-0.9,0.1-1.3,0.3C98.2,7.4,98,7.7,97.9,8.1z M100.9,11.1c-0.3,0.1-0.5,0.1-0.8,0.1
			c-1.1,0-2.2,0.3-3.2,0.8c-0.3,0.3-0.5,0.7-0.5,1.1c0,0.4,0.1,0.7,0.4,1c0.3,0.3,0.7,0.4,1.1,0.4c0.5,0,0.9-0.1,1.4-0.4
			c0.4-0.2,0.8-0.5,1-0.9c0.3-0.5,0.5-1.1,0.6-1.7L100.9,11.1z"/>
		<path class="st1" d="M117,16.6h-3l0.3-1.3c-0.5,0.5-1.1,0.9-1.7,1.2c-0.6,0.2-1.2,0.4-1.9,0.4c-1.1,0-2.2-0.4-3-1.2
			c-0.8-1-1.2-2.4-1.2-3.7c0-1.8,0.6-3.7,1.6-5.2c0.9-1.5,2.6-2.3,4.3-2.3c1.5-0.1,2.9,0.7,3.6,1.9l1.3-6.2h3.2L117,16.6z
			 M109.6,11.8c0,0.7,0.2,1.4,0.7,2c0.4,0.5,1,0.7,1.6,0.7c0.6,0,1.2-0.2,1.6-0.6c0.6-0.5,1-1.1,1.2-1.8c0.3-0.7,0.5-1.5,0.5-2.4
			c0-0.8-0.2-1.5-0.7-2.1c-0.4-0.5-1-0.8-1.6-0.8c-1,0-1.9,0.6-2.3,1.6C109.9,9.5,109.6,10.7,109.6,11.8L109.6,11.8z"/>
		<path class="st1" d="M122.5,4.8h3.2l-2.5,11.9H120L122.5,4.8z M123.4,0.3h3.2L126,3.2h-3.2L123.4,0.3z"/>
		<path class="st1" d="M128.9,4.8h3l-0.3,1.6c0.6-0.6,1.4-1.1,2.1-1.4c0.7-0.3,1.4-0.4,2.1-0.4c0.9,0,1.7,0.3,2.3,0.8
			c0.6,0.6,0.9,1.4,0.9,2.2c-0.1,0.8-0.2,1.6-0.4,2.3l-1.4,6.7H134l1.4-6.7c0.2-1,0.3-1.6,0.4-1.8c0-0.4-0.1-0.7-0.4-1
			c-0.3-0.2-0.6-0.4-1-0.4c-0.6,0-1.1,0.2-1.6,0.6c-0.6,0.4-1.1,0.9-1.4,1.6c-0.4,0.9-0.7,1.9-0.8,2.8l-1,4.9h-3.2L128.9,4.8z"/>
		<path class="st1" d="M140.1,17.3l3.4,0.5c0,0.3,0,0.5,0.2,0.8c0.1,0.2,0.3,0.3,0.5,0.4c0.3,0.1,0.7,0.2,1,0.2
			c0.6,0,1.2-0.1,1.7-0.4c0.4-0.3,0.6-0.6,0.8-1c0.2-0.6,0.4-1.3,0.5-1.9l0.1-0.6c-1,0.9-2.3,1.3-3.6,1.4c-1.1,0-2.1-0.4-2.8-1.2
			c-0.8-1-1.2-2.3-1.1-3.6c0-1.3,0.2-2.6,0.8-3.9c0.4-1.1,1.2-2,2.1-2.6c0.8-0.6,1.8-0.9,2.8-0.9c0.8,0,1.5,0.2,2.1,0.6
			c0.7,0.4,1.2,1,1.5,1.7l0.4-2.1h3l-1.9,9.8c-0.2,1.2-0.5,2.3-0.9,3.4c-0.2,0.6-0.5,1.1-0.8,1.6c-0.3,0.4-0.7,0.7-1.1,1
			c-0.5,0.3-1.1,0.5-1.6,0.6c-0.7,0.1-1.3,0.2-2,0.2c-1.3,0.1-2.6-0.2-3.8-0.9c-0.9-0.7-1.4-1.7-1.3-2.9
			C140.1,17.6,140.1,17.4,140.1,17.3z M143.9,11.5c0,0.7,0.2,1.4,0.6,2c0.4,0.5,0.9,0.7,1.5,0.7c0.6,0,1.2-0.2,1.6-0.6
			c0.6-0.5,1-1.1,1.2-1.8c0.3-0.7,0.4-1.5,0.4-2.2c0-0.7-0.2-1.4-0.7-2c-0.4-0.5-1-0.7-1.6-0.7c-0.6,0-1.2,0.3-1.6,0.7
			c-0.6,0.6-1,1.3-1.2,2.1C144,10.2,143.9,10.8,143.9,11.5L143.9,11.5z"/>
		<path class="st1" d="M157,10.2h6.1l-0.6,3h-6.1L157,10.2z"/>
		<path class="st0" d="M173.1,17.5H170l-0.6-13.4l-2.6,13.4h-3l3.3-16.1h4.7l0.5,11.3l5.5-11.3h4.8l-3.4,16.1h-3l3.2-13.3
			L173.1,17.5z"/>
		<path class="st1" d="M187,9.2l-3.1-0.3c0.3-1,1-1.9,1.8-2.4c1-0.6,2.3-0.9,3.5-0.9c1.2-0.1,2.4,0.2,3.3,0.9
			c0.7,0.5,1.1,1.4,1.1,2.2c0,0.4,0,0.7-0.1,1.1c-0.1,0.4-0.3,1.4-0.6,3.1c-0.2,1-0.4,1.9-0.5,2.9c0,0.6,0.1,1.1,0.3,1.7h-3.1
			c-0.1-0.4-0.2-0.9-0.2-1.3c-0.4,0.5-1,0.9-1.6,1.2c-0.6,0.3-1.2,0.4-1.8,0.4c-0.9,0-1.8-0.3-2.4-1c-0.6-0.7-1-1.5-0.9-2.4
			c-0.1-1,0.3-2,1-2.7c1.1-0.8,2.4-1.2,3.7-1.2c1-0.1,2-0.2,3-0.4c0.1-0.3,0.2-0.7,0.2-1.1c0-0.3-0.1-0.6-0.4-0.8
			c-0.3-0.2-0.7-0.4-1.2-0.3c-0.5,0-0.9,0.1-1.3,0.3C187.3,8.5,187.1,8.8,187,9.2z M190,12.1c-0.2,0.1-0.5,0.1-0.8,0.1
			c-1.1,0-2.1,0.3-3.1,0.8c-0.3,0.2-0.5,0.6-0.5,1.1c0,0.4,0.1,0.7,0.4,0.9c0.3,0.3,0.6,0.4,1,0.4c0.5,0,0.9-0.1,1.3-0.4
			c0.4-0.2,0.7-0.5,0.9-0.9c0.3-0.5,0.5-1.1,0.6-1.7L190,12.1z"/>
		<path class="st1" d="M197.5,5.9h3l-0.3,1.5c0.6-0.6,1.3-1.1,2.1-1.4c0.6-0.3,1.3-0.4,2-0.4c0.8,0,1.7,0.3,2.3,0.8
			c0.6,0.6,0.9,1.4,0.8,2.2c-0.1,0.8-0.2,1.6-0.4,2.3l-1.4,6.6h-3.1l1.4-6.6c0.1-0.6,0.2-1.2,0.3-1.8c0-0.4-0.1-0.7-0.4-0.9
			c-0.3-0.2-0.6-0.4-1-0.3c-0.6,0-1.1,0.2-1.5,0.6c-0.6,0.4-1,0.9-1.3,1.6c-0.4,0.9-0.6,1.8-0.8,2.8l-1,4.8h-3.1L197.5,5.9z"/>
		<path class="st1" d="M219.5,17.5h-3l0.3-1.3c-0.5,0.5-1.1,0.9-1.7,1.2c-0.6,0.2-1.2,0.4-1.9,0.4c-1.1,0-2.2-0.4-2.9-1.2
			c-0.8-1-1.2-2.3-1.1-3.6c0-1.8,0.5-3.6,1.6-5.1c0.9-1.5,2.5-2.3,4.2-2.3c1.4-0.1,2.8,0.6,3.5,1.9l1.3-6h3.1L219.5,17.5z
			 M212.3,12.8c0,0.7,0.2,1.4,0.6,1.9c0.4,0.5,1,0.7,1.6,0.7c0.6,0,1.2-0.2,1.6-0.6c0.6-0.5,1-1.1,1.2-1.8c0.3-0.7,0.4-1.5,0.4-2.3
			c0-0.7-0.2-1.4-0.7-2c-0.4-0.5-1-0.8-1.6-0.8c-1,0-1.9,0.6-2.3,1.5C212.6,10.5,212.3,11.7,212.3,12.8z"/>
		<path class="st1" d="M226.9,9.2l-3.1-0.3c0.3-1,1-1.9,1.8-2.4c1-0.6,2.3-0.9,3.5-0.9c1.2-0.1,2.4,0.2,3.3,0.9
			c0.7,0.5,1.1,1.4,1.1,2.2c0,0.4,0,0.7-0.1,1.1c-0.1,0.4-0.3,1.4-0.7,3.1c-0.2,1-0.4,1.9-0.5,2.9c0,0.6,0.1,1.1,0.3,1.7h-3.1
			c-0.1-0.4-0.2-0.9-0.2-1.3c-0.5,0.5-1,0.9-1.6,1.2c-0.6,0.3-1.2,0.4-1.8,0.4c-0.9,0-1.8-0.3-2.4-1c-0.6-0.6-1-1.5-0.9-2.4
			c-0.1-1,0.3-2,1-2.7c1.1-0.8,2.4-1.2,3.7-1.2c1-0.1,2-0.2,3-0.4c0.1-0.3,0.2-0.7,0.2-1.1c0-0.3-0.1-0.6-0.4-0.8
			c-0.4-0.3-0.8-0.4-1.2-0.3c-0.5,0-0.9,0.1-1.3,0.3C227.3,8.5,227,8.8,226.9,9.2z M229.9,12.1c-0.2,0.1-0.5,0.1-0.8,0.1
			c-1.1,0-2.1,0.3-3.1,0.8c-0.3,0.2-0.5,0.6-0.5,1.1c0,0.4,0.1,0.7,0.4,0.9c0.3,0.3,0.6,0.4,1,0.4c0.5,0,0.9-0.1,1.3-0.4
			c0.4-0.2,0.8-0.5,1-0.9c0.3-0.5,0.4-1.1,0.6-1.7L229.9,12.1z"/>
		<path class="st1" d="M237.3,5.9h2.9l-0.5,2.3c1.1-1.7,2.3-2.5,3.6-2.5c0.5,0,1,0.1,1.5,0.3l-1.2,2.6c-0.3-0.1-0.6-0.2-0.9-0.2
			c-0.6,0-1.2,0.2-1.6,0.6c-0.6,0.4-1,1-1.3,1.6c-0.4,1-0.7,2.1-0.9,3.2l-0.8,3.7h-3.1L237.3,5.9z"/>
		<path class="st1" d="M246.2,5.9h3.1l-2.4,11.6h-3.1L246.2,5.9z M247.1,1.5h3.1l-0.6,2.8h-3.1L247.1,1.5z"/>
		<path class="st1" d="M252.5,5.9h3l-0.3,1.5c0.6-0.6,1.3-1.1,2.1-1.4c0.6-0.3,1.3-0.4,2-0.4c0.8,0,1.7,0.2,2.3,0.8
			c0.6,0.6,0.9,1.4,0.8,2.2c0,0.8-0.2,1.6-0.3,2.4l-1.4,6.6h-3.1l1.4-6.6c0.1-0.6,0.2-1.2,0.3-1.8c0-0.4-0.1-0.7-0.4-0.9
			c-0.3-0.2-0.6-0.4-1-0.3c-0.6,0-1.1,0.2-1.5,0.6c-0.5,0.4-1,0.9-1.3,1.5c-0.4,0.9-0.6,1.8-0.8,2.8l-1,4.8H250L252.5,5.9z"/>
		<path class="st2" d="M157.4,22.2c0,1.5-1.2,2.7-2.7,2.7c-1.5,0-2.7-1.2-2.7-2.7s1.2-2.7,2.7-2.7c0,0,0,0,0,0
			C156.2,19.5,157.4,20.7,157.4,22.2C157.4,22.2,157.4,22.2,157.4,22.2z M154.8,19c-1.7,0-3.2,1.4-3.2,3.1s1.4,3.2,3.1,3.2
			c1.7,0,3.2-1.4,3.2-3.1c0,0,0,0,0,0C157.9,20.4,156.5,19,154.8,19z"/>
		<path class="st2" d="M153.4,24v-3.6h1.6c0.3,0,0.5,0,0.8,0.1c0.2,0.1,0.3,0.2,0.4,0.4c0.1,0.2,0.2,0.4,0.1,0.6
			c0,0.2-0.1,0.5-0.2,0.7c-0.2,0.2-0.5,0.3-0.8,0.3c0.1,0.1,0.2,0.1,0.3,0.2c0.2,0.1,0.3,0.3,0.4,0.5l0.6,1H156l-0.5-0.8
			c-0.1-0.2-0.3-0.4-0.4-0.5c-0.1-0.1-0.2-0.2-0.2-0.2c-0.1,0-0.1-0.1-0.2-0.1h-0.3h-0.6V24H153.4z M153.8,21.9h1
			c0.2,0,0.4,0,0.5-0.1c0.1,0,0.2-0.1,0.3-0.2c0.1-0.1,0.1-0.2,0.1-0.3c0-0.2-0.1-0.3-0.2-0.4c-0.2-0.1-0.4-0.2-0.6-0.2h-1.2
			L153.8,21.9z"/>
	</g>
</g>
</svg>
