<?xml version="1.0" encoding="utf-8"?>
<!-- Generator: Adobe Illustrator 25.4.1, SVG Export Plug-In . SVG Version: 6.00 Build 0)  -->
<svg version="1.1" id="圖層_1" xmlns="http://www.w3.org/2000/svg" xmlns:xlink="http://www.w3.org/1999/xlink" x="0px" y="0px"
	 viewBox="0 0 262.4 116.6" style="enable-background:new 0 0 262.4 116.6;" xml:space="preserve">
<style type="text/css">
	.st0{fill:#FFFFFF;}
	.st1{fill:#00A6E4;}
	.st2{fill:#85C5ED;}
	.st3{fill:#A9D1F0;}
	.st4{fill:#DFC44A;}
	.st5{opacity:0.25;fill:#DFC44A;enable-background:new    ;}
	.st6{fill:#595757;}
</style>
<polygon class="st0" points="105.1,13.6 109.8,12.7 133.6,3.7 138.9,3.9 139,6.8 144.2,7.8 144.3,10.1 149.6,11.7 109.8,20 "/>
<path class="st1" d="M149.6,61.3c0,2.5-2,4.5-4.5,4.5c0,0,0,0,0,0h-35.6c-2.5,0-4.5-2.1-4.4-4.5V19.8c0-2.5,2-0.8,4.5-0.8h35.6
	c2.5,0,4.5-1.8,4.5,0.8L149.6,61.3z"/>
<path class="st0" d="M113.2,62.4h0.4c0,0.1,0.1,0.3,0.1,0.4c0.1,0.1,0.2,0.2,0.3,0.3c0.2,0.1,0.3,0.1,0.5,0.1c0.2,0,0.3,0,0.4-0.1
	c0.1,0,0.2-0.1,0.3-0.2c0.1-0.1,0.1-0.2,0.1-0.3c0-0.1,0-0.2-0.1-0.3c-0.1-0.1-0.2-0.2-0.3-0.2c-0.2-0.1-0.4-0.1-0.6-0.2
	c-0.2,0-0.4-0.1-0.7-0.2c-0.1-0.1-0.3-0.2-0.4-0.3c-0.1-0.1-0.1-0.3-0.1-0.4c0-0.4,0.2-0.7,0.6-0.8c0.2-0.1,0.4-0.1,0.6-0.1
	c0.2,0,0.5,0,0.7,0.1c0.2,0.1,0.3,0.2,0.4,0.4c0.1,0.2,0.2,0.3,0.2,0.5h-0.4c0-0.2-0.1-0.4-0.2-0.5c-0.2-0.1-0.4-0.2-0.6-0.2
	c-0.2,0-0.4,0-0.6,0.2c-0.1,0.1-0.2,0.2-0.2,0.4c0,0.1,0,0.2,0.1,0.3c0.2,0.1,0.4,0.2,0.7,0.2c0.3,0,0.5,0.1,0.8,0.2
	c0.2,0.1,0.3,0.2,0.4,0.3c0.1,0.1,0.1,0.3,0.1,0.5c0,0.2-0.1,0.4-0.2,0.5c-0.1,0.2-0.3,0.3-0.4,0.4c-0.2,0.1-0.4,0.1-0.7,0.1
	c-0.3,0-0.5,0-0.8-0.1c-0.2-0.1-0.4-0.2-0.5-0.4C113.3,62.9,113.2,62.7,113.2,62.4z"/>
<path class="st0" d="M116.4,63.5v-2.5h0.4v0.3c0.1-0.1,0.2-0.2,0.3-0.3c0.1-0.1,0.3-0.1,0.4-0.1c0.2,0,0.3,0,0.4,0.1
	c0.1,0.1,0.2,0.2,0.2,0.3c0.1-0.3,0.4-0.4,0.8-0.4c0.2,0,0.4,0.1,0.6,0.2c0.1,0.2,0.2,0.4,0.2,0.6v1.7h-0.4V62c0-0.1,0-0.2,0-0.3
	c0-0.1-0.1-0.1-0.2-0.2c-0.1,0-0.2-0.1-0.2-0.1c-0.2,0-0.3,0.1-0.4,0.2c-0.1,0.2-0.2,0.4-0.2,0.5v1.4h-0.4v-1.6c0-0.1,0-0.3-0.1-0.4
	c-0.1-0.1-0.2-0.2-0.3-0.1c-0.1,0-0.2,0-0.3,0.1c-0.1,0.1-0.2,0.2-0.2,0.3c-0.1,0.2-0.1,0.3-0.1,0.5v1.3L116.4,63.5z"/>
<path class="st0" d="M122,63.2c-0.1,0.1-0.3,0.2-0.4,0.3c-0.1,0.1-0.3,0.1-0.5,0.1c-0.2,0-0.5-0.1-0.6-0.2c-0.1-0.1-0.2-0.3-0.2-0.5
	c0-0.1,0-0.2,0.1-0.3c0-0.1,0.1-0.2,0.2-0.2c0.1-0.1,0.2-0.1,0.3-0.1l0.4-0.1c0.3,0,0.5-0.1,0.8-0.1c0,0,0-0.1,0-0.1
	c0-0.1,0-0.3-0.1-0.4c-0.1-0.1-0.3-0.1-0.5-0.1c-0.2,0-0.3,0-0.4,0.1c-0.1,0.1-0.2,0.2-0.2,0.4h-0.4c0-0.2,0.1-0.3,0.2-0.4
	c0.1-0.1,0.2-0.2,0.4-0.2c0.2-0.1,0.4-0.1,0.6-0.1c0.2,0,0.3,0,0.5,0.1c0.1,0,0.2,0.1,0.3,0.2c0.1,0.1,0.1,0.2,0.1,0.3
	c0,0.1,0,0.3,0,0.4v0.5c0,0.2,0,0.5,0,0.7c0,0.1,0.1,0.2,0.1,0.3H122C122,63.5,122,63.4,122,63.2z M122,62.3
	c-0.2,0.1-0.4,0.1-0.7,0.2c-0.1,0-0.2,0-0.4,0.1c-0.1,0-0.1,0.1-0.2,0.1c0,0.1-0.1,0.1-0.1,0.2c0,0.1,0,0.2,0.1,0.3
	c0.1,0.1,0.2,0.1,0.4,0.1c0.2,0,0.3,0,0.4-0.1c0.1-0.1,0.2-0.2,0.3-0.3c0-0.1,0.1-0.3,0.1-0.4L122,62.3z"/>
<path class="st0" d="M123,63.5v-2.5h0.4v0.4c0.1-0.1,0.2-0.2,0.3-0.3c0.1-0.1,0.2-0.1,0.3-0.1c0.2,0,0.3,0.1,0.4,0.1l-0.2,0.4
	c-0.1-0.1-0.2-0.1-0.3-0.1c-0.1,0-0.2,0-0.2,0.1c-0.1,0.1-0.1,0.1-0.2,0.2c0,0.2-0.1,0.3-0.1,0.5v1.3L123,63.5z"/>
<path class="st0" d="M125.5,63.2l0.1,0.4c-0.1,0-0.2,0-0.3,0c-0.1,0-0.2,0-0.3-0.1c-0.1,0-0.1-0.1-0.2-0.2c0-0.2,0-0.3,0-0.5v-1.4
	h-0.3v-0.3h0.3v-0.6l0.4-0.2v0.8h0.4v0.3h-0.4v1.4c0,0.1,0,0.1,0,0.2c0,0,0,0.1,0.1,0.1c0,0,0.1,0,0.1,0L125.5,63.2z"/>
<path class="st0" d="M127.3,63.5v-3.4h1.5c0.2,0,0.5,0,0.7,0.1c0.2,0.1,0.3,0.2,0.4,0.3c0.1,0.2,0.2,0.3,0.1,0.5
	c0,0.2-0.1,0.4-0.2,0.6c-0.2,0.2-0.5,0.3-0.7,0.3c0.1,0,0.2,0.1,0.3,0.2c0.1,0.1,0.3,0.3,0.4,0.5l0.6,0.9h-0.6l-0.4-0.7
	c-0.1-0.2-0.2-0.3-0.3-0.5c-0.1-0.1-0.1-0.2-0.2-0.2c-0.1,0-0.1-0.1-0.2-0.1h-0.8v1.5L127.3,63.5z M127.7,61.6h1
	c0.2,0,0.3,0,0.5-0.1c0.1,0,0.2-0.1,0.3-0.2c0.1-0.1,0.1-0.2,0.1-0.3c0-0.2-0.1-0.3-0.2-0.4c-0.2-0.1-0.4-0.2-0.6-0.2h-1.1
	L127.7,61.6z"/>
<path class="st0" d="M132.3,115.7h0.4c-0.1,0.2-0.2,0.4-0.4,0.6c-0.2,0.1-0.4,0.2-0.7,0.2c-0.3,0-0.6-0.1-0.9-0.3
	c-0.2-0.3-0.3-0.6-0.3-0.9c0-0.4,0.1-0.7,0.3-1c0.2-0.2,0.5-0.3,0.8-0.3c0.3,0,0.6,0.1,0.8,0.3c0.2,0.3,0.3,0.6,0.3,0.9v0.1h-1.8
	c0,0.2,0.1,0.4,0.2,0.6c0.1,0.1,0.3,0.2,0.5,0.2c0.1,0,0.3,0,0.4-0.1C132.1,115.9,132.2,115.8,132.3,115.7z M130.9,115h1.4
	c0-0.2-0.1-0.3-0.2-0.5c-0.1-0.2-0.3-0.2-0.5-0.2c-0.2,0-0.3,0.1-0.5,0.2C131,114.6,130.9,114.8,130.9,115z"/>
<path class="st0" d="M134.9,63.2c-0.1,0.1-0.3,0.2-0.4,0.3c-0.1,0.1-0.3,0.1-0.5,0.1c-0.2,0-0.5-0.1-0.6-0.2
	c-0.1-0.1-0.2-0.3-0.2-0.5c0-0.2,0.1-0.4,0.3-0.6c0.1-0.1,0.2-0.1,0.3-0.1l0.4-0.1c0.3,0,0.5-0.1,0.8-0.2v-0.1c0-0.1,0-0.3-0.1-0.4
	c-0.1-0.1-0.3-0.1-0.5-0.1c-0.2,0-0.3,0-0.4,0.1c-0.1,0.1-0.2,0.2-0.2,0.4h-0.4c0-0.2,0.1-0.3,0.2-0.4c0.1-0.1,0.2-0.2,0.4-0.2
	c0.2-0.1,0.4-0.1,0.6-0.1c0.2,0,0.3,0,0.5,0.1c0.1,0,0.2,0.1,0.3,0.2c0.1,0.1,0.1,0.2,0.1,0.3c0,0.1,0,0.3,0,0.4v0.5
	c0,0.2,0,0.5,0,0.7c0,0.1,0,0.2,0.1,0.3h-0.4C134.8,63.5,134.8,63.3,134.9,63.2z M134.9,62.3c-0.2,0.1-0.4,0.1-0.7,0.2
	c-0.1,0-0.2,0-0.4,0.1c-0.1,0-0.1,0.1-0.2,0.1c0,0.1,0,0.1,0,0.2c0,0.1,0,0.2,0.1,0.3c0.1,0.1,0.2,0.1,0.4,0.1c0.2,0,0.3,0,0.4-0.1
	c0.1-0.1,0.2-0.2,0.3-0.3c0.1-0.1,0.1-0.3,0.1-0.4L134.9,62.3z"/>
<path class="st0" d="M137.5,63.5v-0.3c-0.1,0.2-0.4,0.4-0.7,0.4c-0.2,0-0.4-0.1-0.5-0.2c-0.2-0.1-0.3-0.3-0.4-0.5
	c-0.1-0.2-0.1-0.4-0.1-0.7c0-0.2,0-0.4,0.1-0.7c0.1-0.2,0.2-0.4,0.4-0.5c0.2-0.1,0.3-0.2,0.5-0.2c0.1,0,0.3,0,0.4,0.1
	c0.1,0.1,0.2,0.1,0.3,0.2v-1.2h0.4v3.4L137.5,63.5z M136.1,62.3c0,0.3,0.1,0.5,0.2,0.7c0.1,0.1,0.3,0.2,0.5,0.2
	c0.2,0,0.4-0.1,0.5-0.2c0.1-0.2,0.2-0.4,0.2-0.7c0-0.3-0.1-0.5-0.2-0.7c-0.1-0.1-0.3-0.2-0.5-0.2c-0.2,0-0.4,0.1-0.5,0.2
	C136.2,61.8,136.1,62,136.1,62.3z"/>
<path class="st0" d="M138.5,60.6v-0.5h0.4v0.5H138.5z M138.5,63.5v-2.5h0.4v2.5H138.5z"/>
<path class="st0" d="M139.6,63.5v-2.5h0.4v0.3c0.2-0.3,0.5-0.4,0.8-0.4c0.1,0,0.3,0,0.4,0.1c0.1,0,0.2,0.1,0.3,0.2
	c0.1,0.1,0.1,0.2,0.1,0.3c0,0.1,0,0.3,0,0.4v1.5h-0.4V62c0-0.1,0-0.3,0-0.4c0-0.1-0.1-0.2-0.2-0.2c-0.1-0.1-0.2-0.1-0.3-0.1
	c-0.2,0-0.3,0.1-0.4,0.2c-0.2,0.2-0.2,0.4-0.2,0.6v1.3L139.6,63.5z"/>
<path class="st0" d="M142.1,63.7l0.4,0c0,0.1,0.1,0.2,0.1,0.3c0.1,0.1,0.3,0.1,0.4,0.1c0.2,0,0.3,0,0.4-0.1c0.1-0.1,0.2-0.2,0.2-0.3
	c0-0.2,0-0.4,0-0.5c-0.2,0.2-0.4,0.3-0.7,0.3c-0.3,0-0.6-0.1-0.8-0.4c-0.2-0.2-0.3-0.6-0.3-0.9c0-0.2,0-0.4,0.1-0.7
	c0.1-0.2,0.2-0.4,0.4-0.5c0.2-0.1,0.4-0.2,0.6-0.2c0.3,0,0.6,0.1,0.7,0.4v-0.3h0.4v2.1c0,0.3,0,0.6-0.1,0.8
	c-0.1,0.2-0.2,0.3-0.4,0.4c-0.2,0.1-0.4,0.1-0.6,0.1c-0.3,0-0.5-0.1-0.7-0.2C142.2,64.2,142.1,64,142.1,63.7z M142.4,62.3
	c0,0.3,0,0.5,0.2,0.7c0.2,0.3,0.6,0.3,0.9,0.1c0,0,0.1-0.1,0.1-0.1c0.1-0.2,0.2-0.4,0.2-0.7c0-0.2-0.1-0.5-0.2-0.7
	c-0.1-0.1-0.3-0.2-0.5-0.2c-0.2,0-0.4,0.1-0.5,0.2C142.5,61.8,142.4,62,142.4,62.3z"/>
<path class="st1" d="M105.1,13.6l3.5,3.8c13.4-3.3,27.2-5.2,41-5.7l0,0v11.1H105L105.1,13.6z"/>
<path class="st1" d="M109.8,12.7l23.7-9L133.4,0C133.4,0,118.8,8.6,109.8,12.7z"/>
<path class="st2" d="M112.7,13.4c0,0,24.3-6.4,26.3-6.6l-0.1-2.9C138.9,3.9,116.9,11.9,112.7,13.4z"/>
<path class="st3" d="M114.6,14.7c0,0,25.6-4.8,29.7-4.6l-0.1-2.3C144.2,7.8,117.4,13.5,114.6,14.7z"/>
<path class="st4" d="M109.8,27.5c-0.2-0.8,0.5-1.5,0.5-1.7c0.1-0.7,0.5-1.3,1.1-1.7c1-0.8,2-1.6,3-2.4c0.7-0.5,1.3-1.4,2.1-1.5
	c0.2,0,0.4,0,0.6-0.1c0.3-0.1,0.6-0.6,0.9-0.8c0.3-0.2,0.7-0.4,1.1-0.4c0.8-0.1,1.5-0.4,2.3-0.6c0.8-0.3,1.6-0.5,2.4-0.7
	c0.9-0.2,1.8-0.2,2.7-0.2c1.2,0,2.4-0.2,3.5-0.1c0.6,0,1.1,0,1.7,0.1c0.9,0.2,1.8,0.8,2.8,1c0.6,0.1,1.1,0.2,1.7,0.3
	c0.3,0,0.7,0.1,1,0.3c0.4,0.2,0.7,0.5,1,0.8c0.9,0.6,1.5,1.5,2.4,2.2c0.5,0.4,1.3,0.7,1.8,1.1c0.3,0.3,0.6,0.6,1,0.8
	c0.5,0.1,0.9,0.4,1.4,0.6c0.3,0.4,0.6,0.9,0.9,1.3c0.2,0.3,0.4,0.5,0.6,0.8s0.2,0.6,0.4,0.9c0.2,0.5,0.4,0.7,0.2,1.1
	s-0.1,0.4,0.2,0.9c0.2,0.3,0.3,0.7,0.3,1c0.2,0.6,0.6,1.1,0.8,1.7c0.1,0.6,0.2,1.2,0.3,1.8c0.2,0.9,0.4,1.8,0.5,2.8
	c0,0.2,0,0.5,0,0.7c-0.1,0.2-0.4,0.4-0.5,0.7c-0.2,0.6-0.5,1.2-0.9,1.6c-0.2,0.2-0.3,0-0.7,0c-0.3,0-0.5,0.1-0.6,0.4c0,0,0,0,0,0
	c0,0.6,0,1.2,0,1.8c-0.1,0.8-0.5,1.5-1.1,2c-0.3,0.2-0.7,0.2-1,0.5s-0.5,0.7-0.9,0.9c-0.5,0.3-1,0.5-1.5,0.7
	c-0.3,0.2-0.7,0.3-1.1,0.4c-0.3,0-0.6-0.1-1-0.1c-0.9,0-1.6,0.4-2.7,0.2c-0.3-0.1-0.7-0.2-0.9-0.5c-0.5-0.4-0.4-0.8-0.5-1.4
	c-0.2-0.8-0.5-1.5-1-2.2c-0.7-1,0.2-1.8,0.2-2.8c0.1-1.1-1-1.8-1.6-2.6c-0.3-0.4-0.4-0.8-0.5-1.3c0-0.3,0.3-0.4,0.3-0.8
	c-0.1-0.7-1.1-0.5-1.5-0.7c-0.2-0.1-0.4-0.5-0.6-0.7c-0.3-0.3-0.5-0.6-0.9-0.8c-0.4-0.2-0.8-0.4-1.2-0.6c-0.2-0.1-0.5-0.2-0.8-0.2
	c-0.4,0.1-0.9,0.6-1.3,0.9s-0.9,0.7-1.4,1c-0.3,0.2-0.6,0.5-0.8,0.9c-0.2,0.3-0.2,0.7-0.5,0.9c-0.9,0.7-0.5-0.7-0.7-1
	s-0.4-0.1-0.6-0.4s-0.3-0.7-0.5-0.9c0-0.1-0.1-0.1-0.1-0.2c-0.3,0.1-0.6,0.8-0.8,1c-0.2,0.3-0.4,0.6-0.7,0.8
	c-0.3,0.2-0.6,0.3-0.9,0.4s-0.4,0.4-0.6,0.7c-0.3,0.6-0.8,0.2-1.2,0.5c-0.2,0.2-0.3,0.4-0.6,0.5s-0.7-0.1-0.9-0.1
	c-0.6-0.1-1.3-0.1-1.9,0c-0.7,0.2-1.5,0.2-2.3,0c-0.6-0.1-1.2-0.2-1.9-0.2c-1-0.1-1.3-1.1-1.3-2c0-0.6,0-1.1,0-1.6s-0.2-0.9-0.2-1.3
	c0,0-0.3-0.7,0.7-1.6s0.3-0.1-0.1-0.7C109.2,29.6,110,28.4,109.8,27.5z"/>
<path class="st1" d="M128,17.1l-1.5,0.1h-0.6c-0.7,0-1.4,0-2.1,0.2c-0.8,0.2-1.6,0.4-2.4,0.7c-0.7,0.3-1.5,0.5-2.3,0.6H119
	c-0.4,0-0.8,0.2-1.1,0.4l-0.4,0.4c-0.1,0.2-0.3,0.3-0.4,0.4l-0.3,0h-0.2c-0.7,0.2-1.3,0.6-1.8,1.1l-0.5,0.5l-3,2.4
	c-0.7,0.4-1.1,1.1-1.2,1.9c0,0.1-0.1,0.1-0.1,0.2c-0.3,0.4-0.4,0.8-0.4,1.3c0,0.1,0,0.2,0,0.3l0,0c0,0.1,0,0.2,0,0.2
	c0,0.4-0.1,0.8-0.3,1.2c-0.1,0.2-0.2,0.5-0.2,0.7c0,0.1,0,0.2,0.1,0.3c0.1,0.1,0.1,0.2,0.2,0.2l-0.1,0.1c-0.5,0.4-0.8,0.9-0.9,1.6
	c0,0.1,0,0.2,0,0.3c0,0.1,0.1,0.8,0.1,0.8l0.1,0.5v1.6c0,1.3,0.6,2.2,1.6,2.3h0.5c0.4,0,0.9,0.1,1.3,0.2c0.8,0.2,1.6,0.2,2.4,0
	c0.6-0.1,1.2-0.2,1.8-0.1l0.2,0.1c0.3,0.1,0.6,0.2,0.9,0.1c0.2-0.1,0.3-0.2,0.4-0.3l0.2-0.2c0.1-0.1,0.3-0.1,0.4-0.1
	c0.4,0,0.7-0.2,0.9-0.5l0.1-0.2c0.1-0.2,0.2-0.3,0.4-0.4l0.3-0.2l0.5-0.3c0.3-0.3,0.6-0.6,0.8-0.9l0.2-0.3c0.1-0.2,0.2-0.4,0.3-0.5
	c0.1,0.1,0.1,0.2,0.2,0.3c0.1,0.2,0.2,0.4,0.3,0.6c0.1,0.1,0.3,0.2,0.5,0.2h0.1c0,0.1,0,0.2,0,0.3v0.2c0,0.4,0,0.7,0.3,0.9
	s0.6,0,0.8-0.2c0.2-0.2,0.3-0.4,0.4-0.7l0.1-0.3c0.2-0.3,0.4-0.6,0.7-0.8l1.3-1l0.4-0.3c0.2-0.2,0.5-0.4,0.8-0.5
	c0.2,0,0.4,0,0.6,0.1l0.4,0.2c0.3,0.1,0.5,0.2,0.7,0.4c0.3,0.2,0.6,0.5,0.8,0.8l0.1,0.2c0.1,0.2,0.3,0.4,0.5,0.5
	c0.2,0.1,0.4,0.1,0.6,0.1c0.5,0,0.7,0.1,0.7,0.3l0,0c0,0,0,0.1-0.1,0.2c-0.1,0.2-0.2,0.3-0.2,0.5l0,0c0.1,0.5,0.2,1,0.5,1.4l0.6,0.8
	c0.5,0.4,0.8,1,0.9,1.6c0,0,0,0.1,0,0.1c0,0.3-0.1,0.6-0.2,0.9c-0.2,0.4-0.3,0.7-0.3,1.1c0,0.4,0.1,0.7,0.3,1c0.5,0.6,0.8,1.4,1,2.1
	l0.1,0.4c0,0.5,0.2,0.9,0.6,1.2c0.3,0.2,0.6,0.4,1,0.5c0.6,0.1,1.2,0.1,1.8-0.1c0.3-0.1,0.7-0.1,1-0.1h0.4h0.6
	c0.3,0,0.6-0.1,0.9-0.3l0.3-0.1h0.1c0.5-0.2,1-0.4,1.5-0.7c0.2-0.2,0.5-0.4,0.6-0.6l0.3-0.4c0.1-0.1,0.3-0.2,0.4-0.2l0.5-0.2
	c0.7-0.5,1.1-1.3,1.2-2.1v-0.7c0-0.3,0-0.6,0-1c0-0.2,0.1-0.2,0.3-0.2h0.3c0.2,0.1,0.5,0,0.6-0.1c0.4-0.4,0.7-0.9,0.9-1.4l0.2-0.4
	l0.2-0.2c0.1-0.1,0.2-0.3,0.3-0.5c0-0.1,0.1-0.2,0.1-0.3c0-0.1,0-0.2,0-0.3v-0.2c0-0.6-0.1-1.2-0.3-1.8l-0.2-1l-0.1-0.6
	c0-0.4-0.1-0.8-0.2-1.2c-0.1-0.3-0.3-0.6-0.4-0.9l-0.4-0.8l-0.1-0.4c0-0.3-0.1-0.5-0.3-0.7l-0.2-0.3l-0.1-0.2c0,0,0.1-0.1,0.1-0.1
	c0.1-0.2,0.2-0.3,0.2-0.5c0-0.2-0.1-0.5-0.2-0.6l-0.1-0.2l-0.1-0.4l-0.2-0.5L146,26l-0.2-0.3l-0.2-0.4c-0.2-0.3-0.4-0.7-0.6-0.9
	c-0.3-0.2-0.6-0.4-1-0.5l-0.4-0.2c-0.3-0.1-0.5-0.3-0.7-0.5l-0.3-0.2c-0.3-0.2-0.6-0.4-0.9-0.6c-0.3-0.2-0.6-0.4-0.9-0.6
	c-0.4-0.3-0.7-0.6-1-1c-0.4-0.5-0.9-0.9-1.4-1.3l-0.5-0.4l-0.6-0.4c-0.3-0.2-0.5-0.2-0.8-0.3h-0.2l-1-0.2l-0.7-0.1
	c-0.5-0.1-0.9-0.3-1.4-0.5c-0.5-0.2-0.9-0.4-1.4-0.5c-0.6-0.1-1.1-0.1-1.7-0.1C129.3,17,128.7,17.1,128,17.1z M126.5,17.8l1.5-0.1
	c0.6,0,1.3-0.1,2-0.1c0.5,0,1.1,0,1.6,0.1c0.4,0.1,0.9,0.3,1.3,0.5c0.5,0.2,1,0.4,1.5,0.5l0.7,0.1l1,0.2l0.3,0
	c0.2,0,0.4,0.1,0.6,0.2l0.5,0.4L138,20c0.5,0.4,0.9,0.8,1.3,1.2c0.3,0.3,0.7,0.7,1,1c0.3,0.2,0.6,0.4,1,0.6c0.3,0.2,0.6,0.3,0.8,0.5
	l0.3,0.2c0.3,0.2,0.5,0.4,0.8,0.6l0.5,0.2c0.3,0.1,0.5,0.2,0.8,0.4c0.2,0.3,0.4,0.5,0.6,0.8l0.3,0.5l0.2,0.3l0.3,0.5l0.2,0.5
	l0.1,0.4l0.1,0.2c0.2,0.4,0.2,0.4,0.1,0.6c-0.3,0.3-0.3,0.7,0,0.9c0,0,0,0,0,0l0.2,0.2c0.1,0.2,0.2,0.4,0.2,0.5l0.1,0.4l0.4,0.9
	c0.1,0.3,0.3,0.5,0.4,0.8c0.1,0.4,0.2,0.8,0.2,1.1l0.1,0.6l0.2,1c0.1,0.5,0.2,1.1,0.3,1.7V37c0,0.1,0,0.3,0,0.4
	c-0.1,0.1-0.1,0.2-0.2,0.2l-0.3,0.4l-0.2,0.4c-0.1,0.4-0.4,0.8-0.7,1.2H147h0l-0.4-0.1c-0.4,0-0.8,0.2-0.9,0.7
	c-0.1,0.4-0.1,0.7,0,1.1V42c-0.1,0.7-0.4,1.3-1,1.7l-0.4,0.2c-0.2,0.1-0.4,0.2-0.6,0.3l-0.4,0.4c-0.1,0.2-0.3,0.4-0.5,0.5
	c-0.5,0.3-0.9,0.5-1.4,0.7h-0.1l-0.3,0.1c-0.2,0.1-0.5,0.2-0.7,0.2h-0.4h-0.5c-0.3,0-0.7,0.1-1,0.1c-0.5,0.1-1,0.2-1.6,0.1
	c-0.3-0.1-0.6-0.2-0.9-0.4c-0.2-0.2-0.4-0.5-0.3-0.8l-0.1-0.5c-0.2-0.8-0.6-1.6-1.1-2.3c-0.4-0.5-0.2-1,0-1.6c0.1-0.3,0.2-0.7,0.3-1
	c0-0.8-0.4-1.6-1-2.1l-0.6-0.7c-0.2-0.3-0.4-0.7-0.4-1.1c0-0.1,0-0.1,0.1-0.2c0.1-0.2,0.2-0.4,0.2-0.6c-0.1-0.7-0.8-0.8-1.2-0.8
	c-0.1,0-0.3,0-0.4-0.1c-0.1-0.1-0.2-0.2-0.3-0.3l-0.2-0.3c-0.3-0.3-0.6-0.6-0.9-0.8c-0.3-0.2-0.6-0.3-0.9-0.5l-0.4-0.2
	c-0.3-0.2-0.7-0.2-1-0.2c-0.4,0.1-0.7,0.3-1,0.6l-0.3,0.3l-1.4,1.1c-0.3,0.3-0.6,0.6-0.8,1l-0.2,0.4c0,0.2-0.1,0.3-0.2,0.4l-0.1,0.1
	c0-0.1,0-0.2,0-0.3v-0.2c0-0.2,0-0.3,0-0.5c-0.1-0.2-0.3-0.4-0.5-0.4c-0.1,0-0.1,0-0.2-0.1c-0.1-0.1-0.2-0.2-0.2-0.4
	c-0.1-0.2-0.2-0.4-0.3-0.5c0,0,0,0,0.1,0.1l-0.1-0.1c-0.1-0.1-0.2-0.2-0.3-0.1c-0.4,0.1-0.7,0.5-0.8,0.9l-0.2,0.3
	c-0.2,0.3-0.4,0.5-0.6,0.8l-0.4,0.2l-0.4,0.2c-0.3,0.1-0.5,0.4-0.6,0.6l-0.1,0.2c-0.1,0.2-0.2,0.2-0.5,0.2c-0.2,0-0.5,0.1-0.7,0.2
	l-0.3,0.3c-0.1,0.1-0.1,0.1-0.2,0.2c-0.2,0-0.4,0-0.6-0.1l-0.2-0.1c-0.7-0.1-1.3-0.1-2,0.1c-0.7,0.2-1.4,0.2-2.1,0
	c-0.5-0.1-0.9-0.2-1.4-0.2h-0.5c-1-0.1-1.1-1.5-1.1-1.8v-1.7l-0.1-0.6l-0.1-0.7c0,0,0-0.1,0-0.1c0,0-0.2-0.6,0.7-1.3l0.3-0.3
	c0.2-0.2,0.4-0.3,0.3-0.5c-0.1-0.1-0.2-0.2-0.4-0.2c-0.2,0-0.2,0-0.2-0.1s0.1-0.3,0.2-0.5c0.2-0.5,0.3-1.1,0.3-1.7l0,0
	c0-0.4,0.1-0.9,0.3-1.2l0.2-0.4c0.1-0.6,0.5-1.2,1-1.5l3-2.4l0.5-0.5c0.4-0.5,0.9-0.8,1.4-1h0.2l0.5-0.1c0.3-0.1,0.5-0.3,0.7-0.5
	l0.3-0.3c0.3-0.2,0.5-0.3,0.9-0.3h0.1c0.8-0.2,1.6-0.4,2.3-0.6c0.8-0.3,1.6-0.5,2.3-0.7c0.7-0.1,1.3-0.2,2-0.1L126.5,17.8z"/>
<path class="st5" d="M109.8,27.5c-0.2-0.8,0.5-1.5,0.5-1.7c0.1-0.7,0.5-1.3,1.1-1.7c1-0.8,2-1.6,3-2.4c0.7-0.5,1.3-1.4,2.1-1.5
	c0.2,0,0.4,0,0.6-0.1c0.3-0.1,0.6-0.6,0.9-0.8c0.3-0.2,0.7-0.4,1.1-0.4c0.8-0.1,1.5-0.4,2.3-0.6c0.8-0.3,1.6-0.5,2.4-0.7
	c0.9-0.2,1.8-0.2,2.7-0.2c1.2,0,2.4-0.2,3.5-0.1c0.6,0,1.1,0,1.7,0.1c0.9,0.2,1.8,0.8,2.8,1c0.6,0.1,1.1,0.2,1.7,0.3
	c0.3,0,0.7,0.1,1,0.3c0.4,0.2,0.7,0.5,1,0.8c0.9,0.6,1.5,1.5,2.4,2.2c0.5,0.4,1.3,0.7,1.8,1.1c0.3,0.3,0.6,0.6,1,0.8
	c0.5,0.1,0.9,0.4,1.4,0.6c0.3,0.4,0.6,0.9,0.9,1.3c0.2,0.3,0.4,0.5,0.6,0.8s0.2,0.6,0.4,0.9c0.2,0.5,0.4,0.7,0.2,1.1
	s-0.1,0.4,0.2,0.9c0.2,0.3,0.3,0.7,0.3,1c0.2,0.6,0.6,1.1,0.8,1.7c0.1,0.6,0.2,1.2,0.3,1.8c0.2,0.9,0.4,1.8,0.5,2.8
	c0,0.2,0,0.5,0,0.7c-0.1,0.2-0.4,0.4-0.5,0.7c-0.2,0.6-0.5,1.2-0.9,1.6c-0.2,0.2-0.3,0-0.7,0c-0.3,0-0.5,0.1-0.6,0.4c0,0,0,0,0,0
	c0,0.6,0,1.2,0,1.8c-0.1,0.8-0.5,1.5-1.1,2c-0.3,0.2-0.7,0.2-1,0.5s-0.5,0.7-0.9,0.9c-0.5,0.3-1,0.5-1.5,0.7
	c-0.3,0.2-0.7,0.3-1.1,0.4c-0.3,0-0.6-0.1-1-0.1c-0.9,0-1.6,0.4-2.7,0.2c-0.3-0.1-0.7-0.2-0.9-0.5c-0.5-0.4-0.4-0.8-0.5-1.4
	c-0.2-0.8-0.5-1.5-1-2.2c-0.7-1,0.2-1.8,0.2-2.8c0.1-1.1-1-1.8-1.6-2.6c-0.3-0.4-0.4-0.8-0.5-1.3c0-0.3,0.3-0.4,0.3-0.8
	c-0.1-0.7-1.1-0.5-1.5-0.7c-0.2-0.1-0.4-0.5-0.6-0.7c-0.3-0.3-0.5-0.6-0.9-0.8c-0.4-0.2-0.8-0.4-1.2-0.6c-0.2-0.1-0.5-0.2-0.8-0.2
	c-0.4,0.1-0.9,0.6-1.3,0.9s-0.9,0.7-1.4,1c-0.3,0.2-0.6,0.5-0.8,0.9c-0.2,0.3-0.2,0.7-0.5,0.9c-0.9,0.7-0.5-0.7-0.7-1
	s-0.4-0.1-0.6-0.4s-0.3-0.7-0.5-0.9c0-0.1-0.1-0.1-0.1-0.2c-0.3,0.1-0.6,0.8-0.8,1c-0.2,0.3-0.4,0.6-0.7,0.8
	c-0.3,0.2-0.6,0.3-0.9,0.4s-0.4,0.4-0.6,0.7c-0.3,0.6-0.8,0.2-1.2,0.5c-0.2,0.2-0.3,0.4-0.6,0.5s-0.7-0.1-0.9-0.1
	c-0.6-0.1-1.3-0.1-1.9,0c-0.7,0.2-1.5,0.2-2.3,0c-0.6-0.1-1.2-0.2-1.9-0.2c-1-0.1-1.3-1.1-1.3-2c0-0.6,0-1.1,0-1.6s-0.2-0.9-0.2-1.3
	c0,0-0.3-0.7,0.7-1.6s0.3-0.1-0.1-0.7C109.2,29.6,110,28.4,109.8,27.5z"/>
<path class="st1" d="M128,17.1l-1.5,0.1h-0.6c-0.7,0-1.4,0-2.1,0.2c-0.8,0.2-1.6,0.4-2.4,0.7c-0.7,0.3-1.5,0.5-2.3,0.6H119
	c-0.4,0-0.8,0.2-1.1,0.4l-0.4,0.4c-0.1,0.2-0.3,0.3-0.4,0.4l-0.3,0h-0.2c-0.7,0.2-1.3,0.6-1.8,1.1l-0.5,0.5l-3,2.4
	c-0.7,0.4-1.1,1.1-1.2,1.9c0,0.1-0.1,0.1-0.1,0.2c-0.3,0.4-0.4,0.8-0.4,1.3c0,0.1,0,0.2,0,0.3l0,0c0,0.1,0,0.2,0,0.2
	c0,0.4-0.1,0.8-0.3,1.2c-0.1,0.2-0.2,0.5-0.2,0.7c0,0.1,0,0.2,0.1,0.3c0.1,0.1,0.1,0.2,0.2,0.2l-0.1,0.1c-0.5,0.4-0.8,0.9-0.9,1.6
	c0,0.1,0,0.2,0,0.3c0,0.1,0.1,0.8,0.1,0.8l0.1,0.5v1.6c0,1.3,0.6,2.2,1.6,2.3h0.5c0.4,0,0.9,0.1,1.3,0.2c0.8,0.2,1.6,0.2,2.4,0
	c0.6-0.1,1.2-0.2,1.8-0.1l0.2,0.1c0.3,0.1,0.6,0.2,0.9,0.1c0.2-0.1,0.3-0.2,0.4-0.3l0.2-0.2c0.1-0.1,0.3-0.1,0.4-0.1
	c0.4,0,0.7-0.2,0.9-0.5l0.1-0.2c0.1-0.2,0.2-0.3,0.4-0.4l0.3-0.2l0.5-0.3c0.3-0.3,0.6-0.6,0.8-0.9l0.2-0.3c0.1-0.2,0.2-0.4,0.3-0.5
	c0.1,0.1,0.1,0.2,0.2,0.3c0.1,0.2,0.2,0.4,0.3,0.6c0.1,0.1,0.3,0.2,0.5,0.2h0.1c0,0.1,0,0.2,0,0.3v0.2c0,0.4,0,0.7,0.3,0.9
	s0.6,0,0.8-0.2c0.2-0.2,0.3-0.4,0.4-0.7l0.1-0.3c0.2-0.3,0.4-0.6,0.7-0.8l1.3-1l0.4-0.3c0.2-0.2,0.5-0.4,0.8-0.5
	c0.2,0,0.4,0,0.6,0.1l0.4,0.2c0.3,0.1,0.5,0.2,0.7,0.4c0.3,0.2,0.6,0.5,0.8,0.8l0.1,0.2c0.1,0.2,0.3,0.4,0.5,0.5
	c0.2,0.1,0.4,0.1,0.6,0.1c0.5,0,0.7,0.1,0.7,0.3l0,0c0,0,0,0.1-0.1,0.2c-0.1,0.2-0.2,0.3-0.2,0.5l0,0c0.1,0.5,0.2,1,0.5,1.4l0.6,0.8
	c0.5,0.4,0.8,1,0.9,1.6c0,0,0,0.1,0,0.1c0,0.3-0.1,0.6-0.2,0.9c-0.2,0.4-0.3,0.7-0.3,1.1c0,0.4,0.1,0.7,0.3,1c0.5,0.6,0.8,1.4,1,2.1
	l0.1,0.4c0,0.5,0.2,0.9,0.6,1.2c0.3,0.2,0.6,0.4,1,0.5c0.6,0.1,1.2,0.1,1.8-0.1c0.3-0.1,0.7-0.1,1-0.1h0.4h0.6
	c0.3,0,0.6-0.1,0.9-0.3l0.3-0.1h0.1c0.5-0.2,1-0.4,1.5-0.7c0.2-0.2,0.5-0.4,0.6-0.6l0.3-0.4c0.1-0.1,0.3-0.2,0.4-0.2l0.5-0.2
	c0.7-0.5,1.1-1.3,1.2-2.1v-0.7c0-0.3,0-0.6,0-1c0-0.2,0.1-0.2,0.3-0.2h0.3c0.2,0.1,0.5,0,0.6-0.1c0.4-0.4,0.7-0.9,0.9-1.4l0.2-0.4
	l0.2-0.2c0.1-0.1,0.2-0.3,0.3-0.5c0-0.1,0.1-0.2,0.1-0.3c0-0.1,0-0.2,0-0.3v-0.2c0-0.6-0.1-1.2-0.3-1.8l-0.2-1l-0.1-0.6
	c0-0.4-0.1-0.8-0.2-1.2c-0.1-0.3-0.3-0.6-0.4-0.9l-0.4-0.8l-0.1-0.4c0-0.3-0.1-0.5-0.3-0.7l-0.2-0.3l-0.1-0.2c0,0,0.1-0.1,0.1-0.1
	c0.1-0.2,0.2-0.3,0.2-0.5c0-0.2-0.1-0.5-0.2-0.6l-0.1-0.2l-0.1-0.4l-0.2-0.5L146,26l-0.2-0.3l-0.2-0.4c-0.2-0.3-0.4-0.7-0.6-0.9
	c-0.3-0.2-0.6-0.4-1-0.5l-0.4-0.2c-0.3-0.1-0.5-0.3-0.7-0.5l-0.3-0.2c-0.3-0.2-0.6-0.4-0.9-0.6c-0.3-0.2-0.6-0.4-0.9-0.6
	c-0.4-0.3-0.7-0.6-1-1c-0.4-0.5-0.9-0.9-1.4-1.3l-0.5-0.4l-0.6-0.4c-0.3-0.2-0.5-0.2-0.8-0.3h-0.2l-1-0.2l-0.7-0.1
	c-0.5-0.1-0.9-0.3-1.4-0.5c-0.5-0.2-0.9-0.4-1.4-0.5c-0.6-0.1-1.1-0.1-1.7-0.1C129.3,17,128.7,17.1,128,17.1z M126.5,17.8l1.5-0.1
	c0.6,0,1.3-0.1,2-0.1c0.5,0,1.1,0,1.6,0.1c0.4,0.1,0.9,0.3,1.3,0.5c0.5,0.2,1,0.4,1.5,0.5l0.7,0.1l1,0.2l0.3,0
	c0.2,0,0.4,0.1,0.6,0.2l0.5,0.4L138,20c0.5,0.4,0.9,0.8,1.3,1.2c0.3,0.3,0.7,0.7,1,1c0.3,0.2,0.6,0.4,1,0.6c0.3,0.2,0.6,0.3,0.8,0.5
	l0.3,0.2c0.3,0.2,0.5,0.4,0.8,0.6l0.5,0.2c0.3,0.1,0.5,0.2,0.8,0.4c0.2,0.3,0.4,0.5,0.6,0.8l0.3,0.5l0.2,0.3l0.3,0.5l0.2,0.5
	l0.1,0.4l0.1,0.2c0.2,0.4,0.2,0.4,0.1,0.6c-0.3,0.3-0.3,0.7,0,0.9c0,0,0,0,0,0l0.2,0.2c0.1,0.2,0.2,0.4,0.2,0.5l0.1,0.4l0.4,0.9
	c0.1,0.3,0.3,0.5,0.4,0.8c0.1,0.4,0.2,0.8,0.2,1.1l0.1,0.6l0.2,1c0.1,0.5,0.2,1.1,0.3,1.7V37c0,0.1,0,0.3,0,0.4
	c-0.1,0.1-0.1,0.2-0.2,0.2l-0.3,0.4l-0.2,0.4c-0.1,0.4-0.4,0.8-0.7,1.2H147h0l-0.4-0.1c-0.4,0-0.8,0.2-0.9,0.7
	c-0.1,0.4-0.1,0.7,0,1.1V42c-0.1,0.7-0.4,1.3-1,1.7l-0.4,0.2c-0.2,0.1-0.4,0.2-0.6,0.3l-0.4,0.4c-0.1,0.2-0.3,0.4-0.5,0.5
	c-0.5,0.3-0.9,0.5-1.4,0.7h-0.1l-0.3,0.1c-0.2,0.1-0.5,0.2-0.7,0.2h-0.4h-0.5c-0.3,0-0.7,0.1-1,0.1c-0.5,0.1-1,0.2-1.6,0.1
	c-0.3-0.1-0.6-0.2-0.9-0.4c-0.2-0.2-0.4-0.5-0.3-0.8l-0.1-0.5c-0.2-0.8-0.6-1.6-1.1-2.3c-0.4-0.5-0.2-1,0-1.6c0.1-0.3,0.2-0.7,0.3-1
	c0-0.8-0.4-1.6-1-2.1l-0.6-0.7c-0.2-0.3-0.4-0.7-0.4-1.1c0-0.1,0-0.1,0.1-0.2c0.1-0.2,0.2-0.4,0.2-0.6c-0.1-0.7-0.8-0.8-1.2-0.8
	c-0.1,0-0.3,0-0.4-0.1c-0.1-0.1-0.2-0.2-0.3-0.3l-0.2-0.3c-0.3-0.3-0.6-0.6-0.9-0.8c-0.3-0.2-0.6-0.3-0.9-0.5l-0.4-0.2
	c-0.3-0.2-0.7-0.2-1-0.2c-0.4,0.1-0.7,0.3-1,0.6l-0.3,0.3l-1.4,1.1c-0.3,0.3-0.6,0.6-0.8,1l-0.2,0.4c0,0.2-0.1,0.3-0.2,0.4l-0.1,0.1
	c0-0.1,0-0.2,0-0.3v-0.2c0-0.2,0-0.3,0-0.5c-0.1-0.2-0.3-0.4-0.5-0.4c-0.1,0-0.1,0-0.2-0.1c-0.1-0.1-0.2-0.2-0.2-0.4
	c-0.1-0.2-0.2-0.4-0.3-0.5c0,0,0,0,0.1,0.1l-0.1-0.1c-0.1-0.1-0.2-0.2-0.3-0.1c-0.4,0.1-0.7,0.5-0.8,0.9l-0.2,0.3
	c-0.2,0.3-0.4,0.5-0.6,0.8l-0.4,0.2l-0.4,0.2c-0.3,0.1-0.5,0.4-0.6,0.6l-0.1,0.2c-0.1,0.2-0.2,0.2-0.5,0.2c-0.2,0-0.5,0.1-0.7,0.2
	l-0.3,0.3c-0.1,0.1-0.1,0.1-0.2,0.2c-0.2,0-0.4,0-0.6-0.1l-0.2-0.1c-0.7-0.1-1.3-0.1-2,0.1c-0.7,0.2-1.4,0.2-2.1,0
	c-0.5-0.1-0.9-0.2-1.4-0.2h-0.5c-1-0.1-1.1-1.5-1.1-1.8v-1.7l-0.1-0.6l-0.1-0.7c0,0,0-0.1,0-0.1c0,0-0.2-0.6,0.7-1.3l0.3-0.3
	c0.2-0.2,0.4-0.3,0.3-0.5c-0.1-0.1-0.2-0.2-0.4-0.2c-0.2,0-0.2,0-0.2-0.1s0.1-0.3,0.2-0.5c0.2-0.5,0.3-1.1,0.3-1.7l0,0
	c0-0.4,0.1-0.9,0.3-1.2l0.2-0.4c0.1-0.6,0.5-1.2,1-1.5l3-2.4l0.5-0.5c0.4-0.5,0.9-0.8,1.4-1h0.2l0.5-0.1c0.3-0.1,0.5-0.3,0.7-0.5
	l0.3-0.3c0.3-0.2,0.5-0.3,0.9-0.3h0.1c0.8-0.2,1.6-0.4,2.3-0.6c0.8-0.3,1.6-0.5,2.3-0.7c0.7-0.1,1.3-0.2,2-0.1L126.5,17.8z"/>
<path class="st1" d="M118.2,24.5c-2.5,0.5-4.5,3-4.2,5.3c0.1,0.6,0.2,1.2,0.4,1.8c0.3,0.9,0.5,1.8,0.4,2.8c-0.1,1.3-0.8,1.8-1.8,2.5
	l-0.6,0.5l0.2,0.3l0.6-0.5c1-0.7,1.9-1.3,2-2.8c0-1-0.1-2-0.4-2.9c-0.2-0.6-0.3-1.1-0.4-1.7c-0.1-2.4,1.6-4.5,3.9-4.9
	c0.9-0.2,2.4-0.3,2.9,0.3c0.2,0.2,0.2,0.4,0.2,0.7l0.4,0.1c0.1-0.4,0-0.7-0.3-1C120.7,24,118.3,24.5,118.2,24.5z"/>
<path class="st1" d="M119.6,23c-0.3,0.5-0.4,1.1-0.2,1.6l0.4-0.1c-0.1-0.4,0-0.9,0.2-1.3c0.4-0.6,0.9-1,1.6-1.2l-0.1-0.4
	C120.7,21.8,120,22.3,119.6,23z"/>
<path class="st1" d="M118.1,33l0.1,0.2c0.5,0.8,1.4,2.5,2.4,2.3v-0.4c-0.8,0.1-1.7-1.5-2-2.2l-0.1-0.2c-0.8-1.4-1.1-3-1-4.6H117
	C116.9,29.9,117.2,31.5,118.1,33z"/>
<path class="st1" d="M123.9,23.1c0.5,0.3,0.9,1,0.8,1.6c0,0.9-0.4,1.8-1.2,2.4c-1,0.7-2.6,0.3-3.8-0.3l-0.2,0.3
	c1.3,0.7,3,1.1,4.2,0.3c0.8-0.6,1.3-1.6,1.3-2.7c0-0.8-0.4-1.5-1-1.9L123.9,23.1z"/>
<path class="st1" d="M123.8,27.6c0.1,0,0.2,0.1,0.2,0.1c0.1,0.3,0.1,0.5,0,0.8c-0.2,0.3-0.6,0.6-1,0.7l-0.7,0.3
	c-0.9,0.6-1.6,1.5-1.8,2.6c-0.2,0.7-0.1,1.4,0.3,2c0.1,0.1,0.2,0.2,0.4,0.3l0.3,0.2l0.2-0.3l-0.4-0.3c-0.1,0-0.2-0.1-0.3-0.2
	c-0.3-0.5-0.4-1.1-0.2-1.7c0.2-1,0.8-1.8,1.6-2.3l0.6-0.3c0.5-0.1,1-0.4,1.2-0.9c0.2-0.4,0.2-0.8,0-1.2c-0.1-0.2-0.3-0.3-0.5-0.3
	L123.8,27.6z"/>
<path class="st1" d="M111.1,24.3c0.2,0.4,0.3,0.8,0.4,1.2c0.3,1,0.6,2,1.4,2.5c0.5,0.2,1.1,0.3,1.6,0.1l-0.1-0.4
	c-0.4,0.2-0.9,0.2-1.3,0c-0.7-0.4-1-1.4-1.2-2.2c-0.1-0.4-0.3-0.8-0.4-1.2L111.1,24.3z"/>
<path class="st1" d="M112.8,32.5c0,0.4-0.2,0.8-0.6,1.1c-1,0.6-2.1,0.8-3.2,0.5l-0.1,0.3c1.2,0.3,2.5,0.1,3.6-0.6
	c0.5-0.3,0.7-0.8,0.7-1.4L112.8,32.5z"/>
<path class="st1" d="M111.3,34.1l0.4-0.1c-0.5-1.5-0.2-4.2,1.2-5.4l-0.2-0.3C111.1,29.6,110.8,32.5,111.3,34.1z"/>
<path class="st1" d="M125.8,20.6c0.2,0.9,0.6,1.8,1.4,2.4c0.4,0.4,0.7,0.8,1,1.2l0,0c0.5,0.7,0.8,1.5,1.1,2.4
	c0.2,0.7,0.2,1.5,0.2,2.3v0.6c0,0.9-0.2,2.4-1,2.5v0.4c1.3-0.1,1.4-2.4,1.4-2.9v-0.6c0-0.8,0-1.6-0.2-2.4c-0.3-0.9-0.7-1.7-1.2-2.5
	v0c-0.3-0.5-0.6-0.9-1-1.3c-0.7-0.6-1.1-1.3-1.3-2.2c0-1.1,0.4-2.2,1.1-3l-0.3-0.3C126.3,18.2,125.8,19.3,125.8,20.6z"/>
<path class="st1" d="M125.8,20.6l0.3,0.2c0.7-0.8,2.4-1.8,3.5-1.6c0.5,0.1,0.8,0.5,0.9,0.9l0.1,0.6c0,0.6,0.3,1.1,0.8,1.4
	c0.5,0.2,1.1,0.2,1.7,0c1.2-0.3,1.4-1,1.7-2l-0.4-0.1c-0.2,1-0.4,1.5-1.4,1.7c-0.5,0.1-1,0.1-1.4,0c-0.5-0.3-0.5-0.7-0.6-1.1
	l-0.1-0.6c-0.1-0.6-0.6-1.1-1.2-1.2C128.4,18.6,126.6,19.7,125.8,20.6z"/>
<path class="st1" d="M131.3,28.1c-0.4,0.2-0.9,0.2-1.3,0.1h-0.3v0.4h0.3c0.5,0,1,0,1.5-0.2c1.1-0.5,1.9-1.5,2.1-2.8h-0.4
	C133,26.8,132.3,27.7,131.3,28.1z"/>
<path class="st1" d="M133.4,26c1.1,0.2,2.3-0.2,2.9-1.2l-0.3-0.2c-0.6,0.8-1.6,1.2-2.6,1c-0.8-0.1-1.9-0.9-1.8-1.8h-0.4
	C131.2,24.9,132.5,25.8,133.4,26z"/>
<path class="st1" d="M124.9,31.4c0.2,0.9,0.7,1.9,1.3,1.9v-0.4c-0.4,0-0.8-0.7-1-1.6c-0.1-0.7-0.1-1.6,0.4-1.8l-0.2-0.4
	C124.8,29.5,124.8,30.5,124.9,31.4z"/>
<path class="st1" d="M137.6,19.7l-0.1,2.7c0.1,1,0.5,2,1.3,2.8l0.1,0.1c0.9,1.2,1.2,2.6,1.1,4.1c-0.1,0.6-0.4,1-0.9,1.3
	c-0.6,0.2-1.2,0.2-1.7,0.1l-0.7-0.1c-1-0.2-2.1,0.2-2.7,1c-0.3,0.3-0.6,0.5-0.9,0.8c-0.8,0.7-1.6,1.3-1,2.5l0.3-0.2
	c-0.4-1,0.1-1.4,0.9-2.1c0.3-0.2,0.6-0.5,0.9-0.8c0.6-0.7,1.5-1,2.4-0.8l0.7,0.1c0.7,0.2,1.4,0.1,2-0.1c0.6-0.3,1-0.9,1.1-1.6
	c0.2-1.6-0.2-3.2-1.2-4.4l-0.1-0.1c-0.7-0.7-1.1-1.6-1.2-2.5l0.1-2.7L137.6,19.7z"/>
<path class="st1" d="M140.4,29.3c2.7,0.2,4.9,2.5,4.8,5.2h0.4c0-2.9-2.2-5.4-5.2-5.6L140.4,29.3z"/>
<path class="st1" d="M144.2,35.3c-0.1,0.4-0.4,0.7-0.7,1l0.2,0.3c0.3-0.3,0.6-0.7,0.8-1.1c0.3-0.6,0.5-1,1.5-0.9
	c0.6,0,1.1,0.3,1.2,0.9l0.2,0.4c0.2,0.5,0.5,1.3,1.3,1.3v-0.4c-0.5,0-0.7-0.4-0.9-1l-0.2-0.4c-0.4-0.9-1.5-1.3-2.5-0.9
	C144.7,34.6,144.4,35,144.2,35.3L144.2,35.3z"/>
<path class="st1" d="M136,31.1c0.6,0.1,1.2,0.4,1.6,0.8l0.1,0.1c1.2,0.7,1.7,2.2,1.4,3.5c-0.1,1-0.4,1.9-1.1,2.6l-0.5,0.4
	c-0.4,0.3-0.7,0.7-0.9,1.2c-0.3,0.8-1.2,5-0.2,6.5c0.2,0.3,0.5,0.5,0.9,0.5v-0.4c-0.3,0-0.5-0.1-0.6-0.3c-0.9-1.3,0-5.3,0.3-6.1
	c0.2-0.4,0.5-0.8,0.8-1l0.5-0.5c0.7-0.8,1.1-1.8,1.2-2.8c0.4-1.5-0.2-3.1-1.5-3.9l-0.1-0.1c-0.5-0.4-1.1-0.8-1.8-0.9L136,31.1z"/>
<path class="st1" d="M142.5,38.2c0.1,0.1,0.2,0.3,0.1,0.4c-0.1,0.3-0.7,0.6-1.2,0.8c-0.3,0.1-0.6,0.3-0.9,0.5
	c-0.6,0.6-0.5,2-0.4,2.8c0.1,1.2,0.5,2.4,1.1,3.5l0.3-0.3c-0.6-1-0.9-2.1-1-3.2c-0.1-0.7-0.2-2,0.3-2.5c0.2-0.2,0.5-0.3,0.7-0.4
	c0.6-0.2,1.3-0.5,1.4-1c0.1-0.3,0-0.5-0.2-0.8L142.5,38.2z"/>
<path class="st1" d="M141.1,35.6l0.1,0.5c0,0.9,0.5,1.7,1.3,2.1c1,0.7,2.4,0.8,3.5,0.3l-0.2-0.3c-1,0.5-2.2,0.4-3.1-0.3
	c-0.7-0.4-1.1-1-1.1-1.8l-0.1-0.6L141.1,35.6z"/>
<path class="st1" d="M138.2,38.3l0.1-0.4c-1.4-0.5-2.1-2.4-2-3.7h-0.4C135.8,35.6,136.5,37.8,138.2,38.3z"/>
<path class="st1" d="M141.2,24.5c0.1,0.6-0.1,1.2-0.6,1.7c-0.2,0.2-0.6,0.3-0.9,0.2l-0.1,0.4c0.4,0.1,0.9,0,1.2-0.2
	c0.5-0.5,0.8-1.3,0.7-2L141.2,24.5z"/>
<path class="st1" d="M136.8,27.9c-0.1,0.6,0.1,1.1,0.4,1.6c0.5,0.6,1.5,1.5,2.3,1.2l-0.1-0.4c-0.6,0.2-1.4-0.6-1.9-1.1
	c-0.3-0.4-0.4-0.9-0.3-1.3v-0.3h-0.4L136.8,27.9z"/>
<path class="st1" d="M137.2,41.9c0.7,1.2,2,1.9,3.4,1.9v-0.4c-1.5-0.2-2.3-0.4-3.1-1.7L137.2,41.9z"/>
<path class="st0" d="M120,44.3c0.1,1.1-0.2,2.2-0.8,3.2c-0.5,0.8-1.4,1.2-2.3,1.2v-1.4c1,0,1.5-1,1.5-3h-1.5v-3h3.1V44.3z"/>
<path class="st0" d="M131.5,44.3c0.1,1.1-0.2,2.2-0.8,3.2c-0.5,0.8-1.4,1.2-2.3,1.2v-1.4c1,0,1.5-1,1.5-3h-1.5v-3h3.1V44.3z"/>
<path class="st0" d="M124.3,56.4l-4.2-2.5l-0.6,1l4.5,2.6c0.2,0.1,0.4,0.1,0.6,0l6.1-4l-0.6-1L124.3,56.4z"/>
<path class="st1" d="M0,81.4l3.2-0.2c0,0.7,0.1,1.4,0.5,2.1c0.7,0.7,1.7,1,2.7,0.9c0.8,0.1,1.7-0.1,2.4-0.6c0.5-0.3,0.7-0.9,0.7-1.4
	c0-0.5-0.2-0.9-0.6-1.2c-0.7-0.5-1.5-0.9-2.3-1.2c-1-0.4-1.9-0.9-2.8-1.4C2.7,77.6,2,76.2,2,74.8c0-1.3,0.5-2.6,1.5-3.4
	c1.2-1,2.8-1.5,4.3-1.4c1.6-0.1,3.2,0.4,4.5,1.3c1.1,0.9,1.7,2.2,1.7,3.7l-3.2,0.1c0-0.7-0.4-1.3-0.9-1.8c-0.6-0.5-1.4-0.7-2.2-0.6
	c-0.7-0.1-1.4,0.1-2,0.5c-0.4,0.3-0.6,0.8-0.6,1.2c0,0.5,0.2,0.9,0.6,1.2c0.8,0.5,1.6,1,2.4,1.3c1.3,0.5,2.5,1.2,3.6,2
	c0.8,0.8,1.2,1.8,1.1,2.9c0,1.4-0.6,2.8-1.7,3.7c-1.3,1.1-3,1.6-4.8,1.5c-1.3,0-2.5-0.2-3.7-0.7c-0.9-0.4-1.7-1.1-2.2-2
	C0.1,83.4-0.1,82.4,0,81.4z"/>
<path class="st4" d="M17.1,74.8h3l-0.3,1.4c1-1,2.3-1.7,3.7-1.7c0.7,0,1.5,0.2,2.1,0.6c0.5,0.4,0.8,0.9,0.9,1.5
	c0.5-0.6,1.1-1.1,1.8-1.5c0.7-0.4,1.6-0.6,2.4-0.6c0.8-0.1,1.6,0.2,2.2,0.8c0.5,0.5,0.8,1.3,0.8,2c-0.1,0.7-0.2,1.4-0.4,2.1
	l-1.5,7.2h-3.2l1.5-7.2c0.2-0.9,0.3-1.4,0.3-1.5c0-0.3-0.1-0.6-0.3-0.8c-0.3-0.2-0.6-0.3-0.9-0.3c-0.9,0-1.7,0.5-2.2,1.3
	c-0.6,1-1,2.1-1.2,3.2l-1.1,5.4h-3.2l1.5-7.2c0.1-0.5,0.2-1.1,0.2-1.6c0-0.3-0.1-0.6-0.3-0.8c-0.2-0.2-0.6-0.3-0.9-0.3
	c-0.4,0-0.8,0.1-1.1,0.3c-0.4,0.2-0.7,0.5-1,0.9c-0.3,0.4-0.6,0.9-0.7,1.4c-0.2,0.6-0.3,1.2-0.5,1.8l-1.1,5.4h-3.2L17.1,74.8z"/>
<path class="st4" d="M39.6,78.1l-3.1-0.3c0.3-1,1-1.9,1.9-2.5c1.1-0.6,2.3-0.9,3.5-0.9c1.2-0.1,2.4,0.2,3.4,0.9
	c0.7,0.5,1.1,1.4,1.1,2.2c0,0.4,0,0.8-0.1,1.1c-0.1,0.4-0.3,1.4-0.7,3.2c-0.3,1-0.4,2-0.5,3c0,0.6,0.1,1.1,0.3,1.7h-3
	c-0.1-0.4-0.2-0.9-0.2-1.4c-0.5,0.5-1,0.9-1.6,1.2c-0.6,0.3-1.2,0.4-1.8,0.4c-0.9,0-1.8-0.3-2.4-1c-0.7-0.7-1-1.6-1-2.5
	c-0.1-1,0.3-2,1-2.7c1.1-0.8,2.4-1.2,3.8-1.2c1,0,2.1-0.2,3.1-0.4c0.1-0.3,0.2-0.7,0.2-1.1c0-0.3-0.1-0.7-0.4-0.9
	c-0.3-0.3-0.8-0.4-1.2-0.3c-0.5,0-0.9,0.1-1.3,0.3C39.9,77.4,39.7,77.7,39.6,78.1z M42.6,81.1c-0.2,0.1-0.5,0.1-0.8,0.2
	c-1.1,0-2.2,0.3-3.1,0.9c-0.6,0.5-0.7,1.4-0.2,2c0,0,0,0,0,0c0.3,0.3,0.7,0.4,1.1,0.4c0.5,0,1-0.1,1.4-0.3c0.4-0.2,0.8-0.5,1-0.9
	c0.3-0.6,0.5-1.1,0.6-1.8L42.6,81.1z"/>
<path class="st4" d="M50,74.8h3l-0.5,2.3c1.1-1.7,2.3-2.6,3.6-2.6c0.5,0,1,0.1,1.5,0.3l-1.2,2.6c-0.3-0.1-0.6-0.2-0.9-0.2
	c-0.6,0-1.2,0.2-1.7,0.6c-0.6,0.4-1,1-1.3,1.7c-0.4,1.1-0.8,2.2-1,3.3l-0.8,3.7h-3.1L50,74.8z"/>
<path class="st4" d="M57.4,77.2l0.5-2.4h1.6l0.4-1.9l3.7-2.2l-0.8,4.1h1.9l-0.5,2.4h-1.9l-1.1,5c-0.1,0.5-0.2,1-0.3,1.5
	c0,0.2,0.1,0.4,0.2,0.6c0.2,0.2,0.5,0.2,0.8,0.2c0.1,0,0.5,0,1-0.1l-0.5,2.4c-0.6,0.1-1.1,0.2-1.7,0.2c-0.9,0.1-1.7-0.2-2.4-0.7
	c-0.5-0.5-0.8-1.1-0.8-1.8c0.1-0.9,0.3-1.7,0.5-2.5l1-4.8H57.4z"/>
<path class="st1" d="M67.6,86.6h-3.4l3.4-16.3h7.3c1,0,2,0.1,2.9,0.4c0.7,0.3,1.3,0.8,1.7,1.4c0.4,0.7,0.7,1.6,0.7,2.5
	c0,1.3-0.4,2.5-1.3,3.4c-1,1-2.4,1.6-3.8,1.7c0.5,0.4,0.9,1,1.2,1.5c1,1.7,1.8,3.5,2.5,5.4h-3.6c-0.3-0.9-0.9-2.3-1.7-4.3
	c-0.3-0.8-0.8-1.6-1.5-2.1c-0.5-0.3-1.1-0.4-1.7-0.3H69L67.6,86.6z M69.6,77.4h1.8c1.2,0.1,2.4,0,3.6-0.3c0.6-0.2,1-0.5,1.4-1
	c0.3-0.4,0.5-0.9,0.5-1.4c0-0.5-0.3-1.1-0.7-1.3c-0.6-0.3-1.3-0.4-1.9-0.3h-3.7L69.6,77.4z"/>
<path class="st4" d="M92.2,81.7h-8c0,0.1,0,0.2,0,0.3c0,0.7,0.2,1.4,0.7,1.9c0.4,0.5,1,0.7,1.6,0.7c1.1,0,2-0.7,2.5-1.7l2.9,0.5
	c-0.5,1.1-1.3,2-2.2,2.6c-0.9,0.6-2,0.9-3.1,0.9c-1.4,0.1-2.8-0.5-3.9-1.5c-1-1.1-1.6-2.5-1.5-4c0-1.6,0.5-3.1,1.3-4.3
	c1.2-1.7,3.2-2.7,5.2-2.6c1.3-0.1,2.5,0.4,3.4,1.3c0.9,1,1.4,2.4,1.3,3.8C92.4,80.3,92.3,81,92.2,81.7z M89.5,79.7
	c0-0.1,0-0.2,0-0.3c0.1-0.7-0.1-1.4-0.6-2c-0.4-0.4-1-0.7-1.6-0.7c-0.7,0-1.3,0.3-1.8,0.8c-0.6,0.6-0.9,1.4-1.1,2.2L89.5,79.7z"/>
<path class="st4" d="M97.9,78.1l-3.1-0.3c0.3-1,1-1.9,1.8-2.5c1.1-0.6,2.3-0.9,3.5-0.9c1.2-0.1,2.4,0.2,3.3,0.9
	c0.7,0.5,1.1,1.4,1.1,2.2c0,0.4,0,0.8-0.1,1.1c-0.1,0.4-0.3,1.4-0.7,3.2c-0.3,1-0.4,2-0.5,3c0,0.6,0.1,1.1,0.3,1.7h-3.1
	c-0.2-0.4-0.2-0.9-0.3-1.3c-0.5,0.5-1,0.9-1.6,1.2c-0.6,0.3-1.2,0.4-1.8,0.4c-0.9,0-1.8-0.3-2.4-1c-0.7-0.7-1-1.6-1-2.5
	c-0.1-1,0.3-2,1-2.7c1.1-0.8,2.4-1.2,3.8-1.2c1-0.1,2-0.2,3-0.5c0.1-0.3,0.2-0.7,0.2-1.1c0-0.3-0.1-0.7-0.4-0.9
	c-0.3-0.3-0.8-0.4-1.2-0.3c-0.5,0-0.9,0.1-1.3,0.3C98.2,77.4,98,77.8,97.9,78.1z M100.9,81.1c-0.2,0.1-0.4,0.1-0.8,0.2
	c-1.1,0-2.2,0.3-3.1,0.9c-0.6,0.5-0.7,1.3-0.2,1.9c0,0,0,0,0.1,0.1c0.3,0.3,0.7,0.4,1.1,0.4c0.5,0,0.9-0.1,1.4-0.4
	c0.4-0.2,0.8-0.5,1-0.9c0.3-0.6,0.5-1.1,0.6-1.8L100.9,81.1z"/>
<path class="st4" d="M117,86.6h-3l0.3-1.2c-0.5,0.5-1.1,0.9-1.7,1.2c-0.6,0.2-1.2,0.4-1.9,0.4c-1.1,0-2.2-0.4-3-1.3
	c-0.8-1-1.3-2.4-1.2-3.7c0-1.8,0.6-3.7,1.6-5.2c0.9-1.5,2.6-2.3,4.3-2.3c1.5-0.1,2.9,0.7,3.6,1.9l1.3-6.1h3.2L117,86.6z M109.6,81.8
	c0,0.7,0.2,1.4,0.7,2c0.4,0.5,1,0.7,1.6,0.7c0.6,0,1.2-0.2,1.6-0.6c0.6-0.5,1-1.1,1.2-1.8c0.3-0.8,0.5-1.6,0.5-2.4
	c0-0.8-0.2-1.5-0.7-2.1c-0.4-0.5-1-0.8-1.6-0.8c-1,0-1.9,0.6-2.3,1.6C109.9,79.5,109.6,80.7,109.6,81.8L109.6,81.8z"/>
<path class="st4" d="M122.5,74.8h3.2l-2.5,11.8H120L122.5,74.8z M123.4,70.3h3.2l-0.6,2.9h-3.2L123.4,70.3z"/>
<path class="st4" d="M128.9,74.8h3l-0.3,1.6c0.6-0.6,1.4-1,2.1-1.4c0.7-0.3,1.4-0.4,2.1-0.4c0.9,0,1.7,0.3,2.3,0.8
	c0.6,0.6,0.9,1.4,0.9,2.2c-0.1,0.8-0.2,1.6-0.4,2.3l-1.4,6.7H134l1.4-6.7c0.2-1,0.3-1.6,0.4-1.8c0-0.4-0.1-0.7-0.4-1
	c-0.3-0.2-0.6-0.4-1-0.4c-0.6,0-1.1,0.2-1.6,0.6c-0.6,0.4-1.1,1-1.4,1.6c-0.4,0.9-0.7,1.9-0.8,2.8l-1,4.9h-3.2L128.9,74.8z"/>
<path class="st4" d="M140.1,87.3l3.4,0.5c0,0.3,0,0.5,0.2,0.8c0.1,0.2,0.3,0.4,0.5,0.4c0.3,0.1,0.7,0.2,1,0.2c0.6,0,1.2-0.1,1.7-0.4
	c0.4-0.2,0.6-0.6,0.8-1c0.2-0.6,0.4-1.3,0.5-1.9l0.1-0.6c-1,0.9-2.3,1.3-3.6,1.4c-1.1,0-2.1-0.4-2.8-1.2c-0.8-1-1.2-2.3-1.1-3.6
	c0-1.3,0.2-2.6,0.8-3.8c0.4-1.1,1.2-2,2.1-2.6c0.8-0.6,1.8-0.9,2.8-0.9c0.8,0,1.5,0.2,2.1,0.6c0.7,0.4,1.2,1,1.5,1.7l0.4-2.1h3
	l-1.9,9.8c-0.2,1.2-0.5,2.3-0.9,3.4c-0.2,0.6-0.5,1.1-0.8,1.6c-0.3,0.4-0.7,0.7-1.1,1c-0.5,0.3-1.1,0.5-1.6,0.6
	c-0.7,0.1-1.3,0.2-2,0.2c-1.3,0.1-2.6-0.2-3.8-0.9c-0.9-0.7-1.4-1.7-1.3-2.8C140.1,87.6,140.1,87.4,140.1,87.3z M143.9,81.5
	c0,0.7,0.2,1.4,0.6,2c0.4,0.5,0.9,0.7,1.5,0.7c0.6,0,1.2-0.2,1.6-0.6c0.6-0.5,1-1.1,1.2-1.8c0.3-0.7,0.4-1.5,0.4-2.2
	c0-0.7-0.2-1.4-0.7-2c-0.4-0.5-1-0.7-1.6-0.7c-0.6,0-1.1,0.3-1.6,0.7c-0.6,0.6-1,1.3-1.2,2.1C144,80.2,143.9,80.8,143.9,81.5
	L143.9,81.5z"/>
<path class="st4" d="M157,80.2h6.1l-0.6,3h-6.1L157,80.2z"/>
<path class="st1" d="M173.1,87.6H170l-0.6-13.4l-2.6,13.4h-3l3.4-16.1h4.7l0.5,11.3l5.5-11.3h4.8l-3.4,16.1h-3l3.2-13.3L173.1,87.6z
	"/>
<path class="st4" d="M187,79.2l-3.1-0.2c0.3-1,1-1.9,1.8-2.4c1-0.6,2.3-0.9,3.5-0.9c1.2-0.1,2.4,0.2,3.3,0.9
	c0.7,0.5,1.1,1.3,1.1,2.2c0,0.4,0,0.7-0.1,1.1c-0.1,0.4-0.3,1.4-0.6,3.1c-0.2,1-0.4,1.9-0.5,2.9c0,0.6,0.1,1.1,0.3,1.7h-3.1
	c-0.1-0.4-0.2-0.9-0.2-1.3c-0.4,0.5-1,0.9-1.6,1.2c-0.6,0.3-1.2,0.4-1.8,0.4c-0.9,0-1.8-0.3-2.4-0.9c-0.6-0.7-1-1.5-0.9-2.4
	c-0.1-1,0.3-2,1-2.7c1.1-0.8,2.4-1.2,3.7-1.2c1,0,2-0.2,3-0.4c0.1-0.3,0.2-0.7,0.2-1.1c0-0.3-0.1-0.6-0.4-0.8
	c-0.4-0.2-0.8-0.4-1.2-0.3c-0.5,0-0.9,0.1-1.3,0.3C187.3,78.5,187.1,78.8,187,79.2z M190,82.1c-0.2,0.1-0.5,0.1-0.8,0.1
	c-1.1,0-2.1,0.3-3.1,0.8c-0.6,0.4-0.7,1.3-0.3,1.8c0,0.1,0.1,0.1,0.1,0.2c0.3,0.2,0.6,0.4,1,0.4c0.5,0,0.9-0.1,1.3-0.3
	c0.4-0.2,0.7-0.5,0.9-0.9c0.3-0.5,0.5-1.1,0.6-1.7L190,82.1z"/>
<path class="st4" d="M197.5,75.9h3l-0.3,1.5c0.6-0.6,1.3-1,2.1-1.4c0.6-0.3,1.3-0.4,2-0.4c0.8,0,1.7,0.3,2.3,0.8
	c0.6,0.6,0.9,1.4,0.8,2.2c-0.1,0.8-0.2,1.6-0.4,2.3l-1.4,6.6h-3.1l1.4-6.6c0.1-0.6,0.2-1.2,0.3-1.8c0-0.4-0.1-0.7-0.4-1
	c-0.3-0.2-0.6-0.4-1-0.3c-0.6,0-1.1,0.2-1.5,0.6c-0.6,0.4-1,0.9-1.4,1.5c-0.4,0.9-0.6,1.8-0.8,2.8l-1,4.8h-3.1L197.5,75.9z"/>
<path class="st4" d="M219.5,87.6h-3l0.3-1.3c-0.5,0.5-1.1,0.9-1.7,1.2c-0.6,0.2-1.2,0.4-1.9,0.3c-1.1,0-2.2-0.4-2.9-1.2
	c-0.8-1-1.2-2.3-1.1-3.6c0-1.8,0.5-3.5,1.6-5c0.9-1.5,2.5-2.4,4.2-2.4c1.4-0.1,2.8,0.6,3.5,1.9l1.3-6h3.1L219.5,87.6z M212.3,82.8
	c-0.1,0.7,0.2,1.4,0.6,2c0.4,0.5,1,0.7,1.6,0.7c0.6,0,1.2-0.2,1.6-0.6c0.6-0.5,1-1.1,1.2-1.8c0.3-0.7,0.4-1.5,0.4-2.3
	c0-0.7-0.2-1.4-0.7-2c-0.4-0.5-1-0.8-1.6-0.8c-1,0-1.9,0.6-2.3,1.5C212.6,80.6,212.3,81.7,212.3,82.8z"/>
<path class="st4" d="M226.9,79.2l-3.1-0.2c0.3-1,1-1.9,1.8-2.4c1-0.6,2.3-0.9,3.5-0.9c1.2-0.1,2.4,0.2,3.3,0.9
	c0.7,0.5,1.1,1.3,1.1,2.2c0,0.4,0,0.7-0.1,1.1c-0.1,0.4-0.3,1.4-0.7,3.1c-0.2,1-0.4,1.9-0.5,2.9c0,0.6,0.1,1.1,0.3,1.7h-3.1
	c-0.1-0.4-0.2-0.9-0.2-1.3c-0.4,0.5-1,0.9-1.6,1.2c-0.6,0.3-1.2,0.4-1.8,0.4c-0.9,0-1.8-0.3-2.4-0.9c-0.6-0.7-1-1.5-0.9-2.4
	c-0.1-1,0.3-2,1-2.7c1.1-0.8,2.4-1.2,3.7-1.2c1,0,2-0.2,3-0.4c0.1-0.3,0.2-0.7,0.2-1.1c0-0.3-0.1-0.6-0.4-0.8
	c-0.4-0.2-0.8-0.4-1.2-0.3c-0.5,0-0.9,0.1-1.3,0.3C227.3,78.5,227,78.8,226.9,79.2z M229.9,82.1c-0.3,0.1-0.5,0.1-0.8,0.1
	c-1.1,0-2.1,0.3-3.1,0.8c-0.3,0.2-0.5,0.6-0.5,1.1c0,0.4,0.1,0.7,0.4,0.9c0.3,0.2,0.6,0.4,1,0.4c0.5,0,0.9-0.1,1.3-0.3
	c0.4-0.2,0.8-0.5,1-0.9c0.3-0.5,0.4-1.1,0.6-1.7L229.9,82.1z"/>
<path class="st4" d="M237.3,75.9h2.9l-0.5,2.3c1.1-1.7,2.3-2.5,3.6-2.5c0.5,0,1,0.1,1.5,0.3l-1.2,2.6c-0.3-0.1-0.6-0.2-0.9-0.2
	c-0.6,0-1.2,0.2-1.6,0.6c-0.6,0.4-1,1-1.3,1.7c-0.4,1-0.7,2.1-0.9,3.2l-0.8,3.7h-3.1L237.3,75.9z"/>
<path class="st4" d="M246.2,75.9h3.1l-2.4,11.7h-3.1L246.2,75.9z M247.1,71.5h3.1l-0.6,2.8h-3.1L247.1,71.5z"/>
<path class="st4" d="M252.5,75.9h3l-0.3,1.5c0.6-0.6,1.3-1,2.1-1.4c0.6-0.3,1.3-0.4,2-0.4c0.8,0,1.7,0.2,2.3,0.8
	c0.6,0.6,0.9,1.4,0.8,2.2c0,0.8-0.2,1.6-0.3,2.4l-1.4,6.6h-3.1l1.4-6.6c0.1-0.6,0.2-1.2,0.3-1.8c0-0.4-0.1-0.7-0.4-1
	c-0.3-0.2-0.6-0.4-1-0.3c-0.6,0-1.1,0.2-1.5,0.6c-0.5,0.4-1,0.9-1.3,1.5c-0.4,0.9-0.6,1.8-0.8,2.8l-1,4.8H250L252.5,75.9z"/>
<path class="st6" d="M157.4,92.2c0,1.5-1.2,2.7-2.7,2.7c-1.5,0-2.7-1.2-2.7-2.7c0-1.5,1.2-2.7,2.7-2.7c0,0,0,0,0,0
	C156.2,89.5,157.4,90.7,157.4,92.2C157.5,92.2,157.5,92.2,157.4,92.2z M154.8,89c-1.7,0-3.2,1.4-3.2,3.1c0,1.7,1.4,3.2,3.1,3.2
	c1.7,0,3.2-1.4,3.2-3.1c0,0,0,0,0,0C157.9,90.4,156.5,89,154.8,89z"/>
<path class="st6" d="M153.4,94v-3.7h1.6c0.3,0,0.5,0,0.8,0.1c0.2,0.1,0.3,0.2,0.4,0.3c0.1,0.2,0.2,0.4,0.1,0.6
	c0,0.2-0.1,0.5-0.2,0.7c-0.2,0.2-0.5,0.3-0.8,0.3c0.1,0,0.2,0.1,0.3,0.2c0.2,0.1,0.3,0.3,0.4,0.5l0.6,1H156l-0.5-0.8
	c-0.1-0.2-0.3-0.4-0.4-0.5c-0.1-0.1-0.2-0.2-0.2-0.2c-0.1,0-0.1-0.1-0.2-0.1h-0.8V94H153.4z M153.8,91.9h1c0.2,0,0.4,0,0.5-0.1
	c0.1,0,0.2-0.1,0.3-0.2c0.1-0.1,0.1-0.2,0.1-0.3c0-0.2-0.1-0.3-0.2-0.4c-0.2-0.1-0.4-0.2-0.6-0.2h-1.2L153.8,91.9z"/>
<g>
	<g>
		<path class="st1" d="M106.7,110.7c0.4-0.6,0.7-1.4,1-2.3l0-0.8h-2.1c0.9-1.1,1.6-1.9,2.1-2.5l0,0v-0.8H104v0.9h2.5
			c-0.9,1.1-1.6,2-2.2,2.6l0,0v0.8h2.4c-0.5,1.6-1.5,3-2.9,4.1l-0.1,0.1l0.7,0.7l0.1-0.1c0.6-0.5,1.1-1.1,1.7-1.8
			c0.9,1,2.5,1.5,4.6,1.5h5.1l0.2-0.9h-5C109,112.1,107.6,111.6,106.7,110.7z"/>
		<path class="st1" d="M111.5,107h-2.7v4h6.3v-4h-2.6v-1.5h3.3v-0.9h-3.3v-1.8c1-0.1,1.8-0.3,2.6-0.6l0.1,0l-0.5-0.9l-0.1,0
			c-1.8,0.5-3.9,0.8-6,0.9l-0.2,0l0.3,0.9l0.1,0c0.9,0,1.8-0.1,2.7-0.2v1.6h-3.3v0.9h3.3V107z M109.8,110v-2.1h4.3v2.1H109.8z"/>
		<path class="st1" d="M106.4,103.9l0.1,0.1l0.7-0.6l-0.1-0.1c-0.5-0.7-1.1-1.3-1.9-2l-0.1-0.1l-0.7,0.6l0.1,0.1
			C105.3,102.6,105.9,103.3,106.4,103.9z"/>
	</g>
	<g>
		<path class="st1" d="M118.8,104.2c-0.1,1.1-0.4,2.2-0.7,3.2l0,0.1l0.9,0.3l0-0.1c0.3-0.9,0.5-2,0.7-3.3l0-0.1l-1-0.1L118.8,104.2z
			"/>
		<path class="st1" d="M122.6,105.5c-0.5-0.5-1-1-1.5-1.5v-2.8h-0.9v12.1h0.9v-8c0.3,0.3,0.6,0.6,0.9,0.9l0.1,0.1L122.6,105.5
			L122.6,105.5z"/>
		<path class="st1" d="M126.9,108.7h2.7v-0.9h-2.7V105h3v-1h-3v-2.9h-1v2.9h-1.4c0.2-0.5,0.3-1.1,0.4-1.8l0-0.1L124,102l0,0.1
			c-0.3,1.6-0.8,3.1-1.7,4.7l-0.1,0.1l0.8,0.5l0.1-0.1c0.4-0.6,0.8-1.4,1.2-2.3h1.8v2.8h-3.1v0.9h3.1v3.3h-3.8v0.9h8V112h-3.2V108.7
			z"/>
	</g>
	<g>
		<path class="st1" d="M142.4,111.3c0.1-0.3,0.2-0.7,0.2-1.2l0-0.1l-0.9-0.3l0,0.2c0,0.9-0.1,1.1-0.2,1.2c0,0-0.2,0.2-0.9,0.2
			c-0.5,0-0.6,0-0.6,0c0,0,0,0,0,0v-2.3h1.7V105H140c0.3-0.4,0.7-0.9,1.2-1.5l0.1-0.1l-0.8-0.5l-0.1,0.1c-0.4,0.6-0.9,1.2-1.5,1.8
			l-0.1,0.1l0.2,0.2h-1.3l0.2-0.1l-0.1-0.1c-0.4-0.7-0.8-1.4-1.3-1.9l-0.1-0.1l-0.8,0.5l0.1,0.1c0.3,0.3,0.6,0.8,1.1,1.6h-2v3.7h1.7
			c0,0.5-0.3,1-0.7,1.5c-0.4,0.5-1.1,0.9-1.8,1.3l-0.1,0.1l0.5,0.7l0.1,0c1.9-0.8,2.9-1.9,3-3.5h1.5v2.5c0,0.2,0.1,0.3,0.2,0.5
			c0.1,0.2,0.3,0.3,0.6,0.3c0.2,0,0.5,0,0.8,0c0.6,0,1-0.1,1.2-0.2C142.2,111.8,142.3,111.6,142.4,111.3z M140.8,105.9v2h-4.9v-2
			H140.8z"/>
		<path class="st1" d="M136,102.4h7v9.6c0,0.1,0,0.2-0.1,0.3c0,0-0.2,0.1-0.7,0.1c-0.3,0-0.6,0-0.8,0l-0.2,0l0.2,0.9l0.1,0
			c0.3,0,0.5,0,0.8,0c0.6,0,1-0.1,1.3-0.3c0.2-0.2,0.4-0.5,0.4-0.9v-10.6H136V102.4z"/>
		<path class="st1" d="M134.7,103.4L134.7,103.4l0.8-0.5l-0.1-0.1c-0.6-0.6-1.2-1.2-1.8-1.7l-0.1-0.1l-0.7,0.6l0.1,0.1
			C133.5,102.2,134.1,102.8,134.7,103.4z"/>
		<rect x="132.9" y="103.6" class="st1" width="0.9" height="9.6"/>
	</g>
	<g>
		<path class="st1" d="M150.3,106.8l-0.6,0.7l0.1,0.1c1,0.5,1.9,1,2.7,1.5l0.1,0.1l0.5-0.7l-0.1-0.1
			C152.3,107.8,151.3,107.3,150.3,106.8L150.3,106.8z"/>
		<path class="st1" d="M156.8,106.7l0,0.1l0.9,0.3l0-0.1c0.3-0.8,0.5-1.6,0.7-2.4l0-0.1h-3.9v-1.1h3.4v-0.9h-3.4v-1.4h-0.9v1.4h-3.4
			v0.9h3.4v1.1h-3.9v0.9h7.5C157.1,105.8,157,106.3,156.8,106.7z"/>
		<path class="st1" d="M153.7,107.8l0.5-0.7l-0.1-0.1c-0.9-0.6-1.8-1.1-2.7-1.5l-0.1,0l-0.5,0.7l0.1,0.1
			C152,106.7,152.9,107.2,153.7,107.8L153.7,107.8z"/>
		<path class="st1" d="M158.5,110v-0.9h-3.1c0.2-0.8,0.3-1.9,0.3-3.3v-0.1l-0.9,0l0,0.1c0,1.5-0.1,2.6-0.4,3.3h-4.7v0.9h4.2
			c-0.8,1.1-2.2,2-4.3,2.5l-0.1,0l0.4,0.9l0.1,0c2.5-0.7,4.1-1.8,5-3.4H158.5z"/>
		<path class="st1" d="M158.6,112.7c-1-0.9-2-1.7-3.1-2.3l-0.1-0.1l-0.6,0.7l0.1,0.1c1,0.7,2,1.4,3,2.3l0.1,0.1L158.6,112.7
			L158.6,112.7z"/>
		<path class="st1" d="M150.4,110.8l-0.5-0.8l-0.1,0.1c-0.3,0.3-0.6,0.6-1,0.8v-6.1h-2.4v0.9h1.4v5.5c0,0.3,0,0.4-0.1,0.5l0,0.1
			l0.5,0.8l0.1-0.1C149.1,112,149.8,111.4,150.4,110.8L150.4,110.8z"/>
		<path class="st1" d="M148.7,104l0.1,0.1l0.8-0.5l-0.1-0.1c-0.5-0.8-1.1-1.6-1.7-2.2l-0.1-0.1l-0.8,0.5l0.1,0.1
			C147.7,102.5,148.3,103.3,148.7,104z"/>
	</g>
</g>
</svg>
