<?xml version="1.0" encoding="utf-8"?>
<!-- Generator: Adobe Illustrator 25.4.1, SVG Export Plug-In . SVG Version: 6.00 Build 0)  -->
<svg version="1.1" id="圖層_1" xmlns="http://www.w3.org/2000/svg" xmlns:xlink="http://www.w3.org/1999/xlink" x="0px" y="0px"
	 viewBox="0 0 313.5 65.8" style="enable-background:new 0 0 313.5 65.8;" xml:space="preserve">
<style type="text/css">
	.st0{fill:#FFFFFF;}
	.st1{fill:#00A6E4;}
	.st2{fill:#85C5ED;}
	.st3{fill:#A9D1F0;}
	.st4{fill:#DFC44A;}
	.st5{opacity:0.25;fill:#DFC44A;enable-background:new    ;}
	.st6{fill:#595757;}
</style>
<polygon class="st0" points="0.1,13.6 4.9,12.7 28.6,3.7 33.9,3.9 34.1,6.8 39.3,7.8 39.4,10.1 44.6,11.7 4.9,20 "/>
<path class="st1" d="M44.6,61.3c0,2.5-2,4.5-4.5,4.5c0,0,0,0,0,0H4.5c-2.5,0-4.5-2-4.5-4.5c0,0,0,0,0,0V19.8c0-2.5,2-0.8,4.5-0.8
	h35.6c2.5,0,4.5-1.8,4.5,0.8V61.3z"/>
<path class="st0" d="M8.2,62.4h0.4c0,0.1,0.1,0.3,0.1,0.4C8.9,63,9,63.1,9.1,63.1c0.2,0.1,0.3,0.1,0.5,0.1c0.1,0,0.3,0,0.4-0.1
	c0.1,0,0.2-0.1,0.3-0.2c0.1-0.1,0.1-0.2,0.1-0.3c0-0.1,0-0.2-0.1-0.3c-0.1-0.1-0.2-0.2-0.3-0.2c-0.2-0.1-0.4-0.1-0.6-0.2
	c-0.2,0-0.4-0.1-0.6-0.2c-0.2-0.1-0.3-0.2-0.4-0.3c-0.1-0.1-0.1-0.3-0.1-0.5c0-0.2,0-0.3,0.1-0.5c0.1-0.1,0.3-0.3,0.4-0.3
	c0.2-0.1,0.4-0.1,0.6-0.1c0.2,0,0.5,0,0.7,0.1c0.2,0.1,0.3,0.2,0.4,0.4c0.1,0.2,0.2,0.3,0.2,0.5h-0.4c0-0.2-0.1-0.4-0.2-0.5
	c-0.2-0.1-0.4-0.2-0.6-0.2c-0.2,0-0.4,0-0.6,0.2c-0.1,0.1-0.2,0.3-0.2,0.4c0,0.1,0,0.2,0.1,0.3c0.2,0.1,0.4,0.2,0.7,0.2
	c0.3,0,0.5,0.1,0.7,0.2c0.2,0.1,0.3,0.2,0.4,0.3c0.2,0.3,0.2,0.7,0,1c-0.1,0.2-0.3,0.3-0.4,0.4c-0.2,0.1-0.4,0.1-0.6,0.1
	c-0.3,0-0.5,0-0.8-0.1c-0.2-0.1-0.4-0.2-0.5-0.4C8.3,62.9,8.2,62.7,8.2,62.4z"/>
<path class="st0" d="M11.5,63.5v-2.5h0.4v0.3c0.1-0.1,0.2-0.2,0.3-0.3c0.1-0.1,0.3-0.1,0.4-0.1c0.2,0,0.3,0,0.4,0.1
	c0.1,0.1,0.2,0.2,0.2,0.3c0.2-0.3,0.4-0.4,0.8-0.4c0.2,0,0.4,0.1,0.6,0.2c0.1,0.2,0.2,0.4,0.2,0.6v1.7h-0.4V62c0-0.1,0-0.2,0-0.3
	c0-0.1-0.1-0.1-0.1-0.2c-0.1,0-0.2-0.1-0.2-0.1c-0.2,0-0.3,0.1-0.4,0.2c-0.1,0.2-0.2,0.4-0.2,0.5v1.4H13v-1.6c0-0.1,0-0.3-0.1-0.4
	c-0.1-0.1-0.2-0.1-0.3-0.1c-0.2,0-0.5,0.1-0.5,0.4c-0.1,0.2-0.1,0.3-0.1,0.5v1.3L11.5,63.5z"/>
<path class="st0" d="M17,63.2c-0.1,0.1-0.3,0.2-0.4,0.3c-0.1,0.1-0.3,0.1-0.5,0.1c-0.2,0-0.5-0.1-0.6-0.2c-0.1-0.1-0.2-0.3-0.2-0.5
	c0-0.1,0-0.2,0.1-0.3c0-0.1,0.1-0.2,0.2-0.2c0.1-0.1,0.2-0.1,0.3-0.1l0.4-0.1c0.3,0,0.5-0.1,0.8-0.1v-0.1c0-0.1,0-0.3-0.1-0.4
	c-0.1-0.1-0.3-0.1-0.5-0.1c-0.2,0-0.3,0-0.4,0.1c-0.1,0.1-0.2,0.2-0.2,0.4h-0.4c0-0.2,0.1-0.3,0.2-0.4c0.1-0.1,0.2-0.2,0.4-0.2
	c0.2-0.1,0.4-0.1,0.6-0.1c0.2,0,0.3,0,0.5,0.1c0.1,0,0.2,0.1,0.3,0.2c0.1,0.1,0.1,0.2,0.1,0.3c0,0.1,0,0.3,0,0.4v0.5
	c0,0.2,0,0.5,0,0.7c0,0.1,0,0.2,0.1,0.3h-0.4C17,63.5,17,63.4,17,63.2z M17,62.3c-0.2,0.1-0.4,0.1-0.7,0.2c-0.1,0-0.2,0-0.4,0.1
	c-0.1,0-0.1,0.1-0.2,0.1c0,0.1,0,0.1,0,0.2c0,0.1,0,0.2,0.1,0.3c0.1,0.1,0.2,0.1,0.4,0.1c0.2,0,0.3,0,0.4-0.1
	c0.1-0.1,0.2-0.2,0.3-0.3c0.1-0.1,0.1-0.3,0.1-0.4L17,62.3z"/>
<path class="st0" d="M18,63.5v-2.5h0.4v0.4c0.1-0.1,0.1-0.2,0.3-0.3C18.8,61,18.9,61,19,61c0.2,0,0.3,0.1,0.4,0.1l-0.1,0.4
	c-0.1-0.1-0.2-0.1-0.3-0.1c-0.1,0-0.2,0-0.2,0.1c-0.1,0.1-0.1,0.1-0.1,0.2c0,0.2-0.1,0.3-0.1,0.5v1.3L18,63.5z"/>
<path class="st0" d="M20.5,63.2l0,0.4c-0.1,0-0.2,0-0.3,0c-0.1,0-0.2,0-0.4-0.1c-0.1,0-0.1-0.1-0.2-0.2c0-0.2-0.1-0.3,0-0.5v-1.4
	h-0.3v-0.3h0.3v-0.6l0.4-0.2v0.8h0.4v0.3h-0.4v1.4c0,0.1,0,0.1,0,0.2c0,0,0,0.1,0.1,0.1c0,0,0.1,0,0.1,0L20.5,63.2z"/>
<path class="st0" d="M22.3,63.5v-3.4h1.5c0.2,0,0.5,0,0.7,0.1c0.2,0.1,0.3,0.2,0.4,0.3c0.1,0.2,0.1,0.3,0.1,0.5
	c0,0.2-0.1,0.4-0.2,0.6c-0.2,0.2-0.5,0.3-0.7,0.3c0.1,0,0.2,0.1,0.3,0.2c0.1,0.1,0.3,0.3,0.4,0.5l0.6,0.9h-0.6l-0.5-0.7
	c-0.1-0.2-0.2-0.3-0.3-0.5c-0.1-0.1-0.1-0.2-0.2-0.2c-0.1,0-0.1-0.1-0.2-0.1h-0.8v1.5L22.3,63.5z M22.8,61.6h1c0.2,0,0.3,0,0.5-0.1
	c0.2-0.1,0.4-0.3,0.4-0.5c0-0.2-0.1-0.3-0.2-0.4c-0.2-0.1-0.4-0.2-0.5-0.2h-1.1V61.6z"/>
<path class="st0" d="M27.3,62.7h0.4c-0.1,0.2-0.2,0.4-0.4,0.6c-0.5,0.3-1.1,0.3-1.5-0.1c-0.2-0.3-0.3-0.6-0.3-0.9
	c0-0.4,0.1-0.7,0.3-1c0.2-0.2,0.5-0.3,0.8-0.3c0.3,0,0.6,0.1,0.8,0.3c0.2,0.3,0.3,0.6,0.3,0.9v0.1H26c0,0.2,0.1,0.5,0.2,0.6
	c0.1,0.1,0.3,0.2,0.5,0.2c0.1,0,0.3,0,0.4-0.1C27.2,63,27.3,62.9,27.3,62.7z M26,62.1h1.4c0-0.2-0.1-0.3-0.1-0.5
	c-0.1-0.2-0.3-0.2-0.5-0.2c-0.2,0-0.3,0.1-0.5,0.2C26.1,61.7,26,61.9,26,62.1z"/>
<path class="st0" d="M29.9,63.2c-0.1,0.1-0.3,0.2-0.4,0.3c-0.2,0.1-0.3,0.1-0.5,0.1c-0.2,0-0.4-0.1-0.6-0.2
	c-0.1-0.1-0.2-0.3-0.2-0.5c0-0.2,0.1-0.4,0.3-0.6c0.1-0.1,0.2-0.1,0.3-0.1l0.4-0.1c0.3,0,0.5-0.1,0.8-0.2v-0.1c0-0.1,0-0.3-0.1-0.4
	c-0.1-0.1-0.3-0.1-0.5-0.1c-0.2,0-0.3,0-0.4,0.1c-0.1,0.1-0.2,0.2-0.2,0.4h-0.4c0-0.2,0.1-0.3,0.2-0.4c0.1-0.1,0.2-0.2,0.4-0.2
	c0.2-0.1,0.4-0.1,0.6-0.1c0.2,0,0.3,0,0.5,0.1c0.1,0,0.2,0.1,0.3,0.2c0.1,0.1,0.1,0.2,0.1,0.3c0,0.1,0,0.3,0,0.4v0.5
	c0,0.4,0,0.6,0,0.7c0,0.1,0.1,0.2,0.1,0.3H30C29.9,63.5,29.9,63.3,29.9,63.2z M29.9,62.3c-0.2,0.1-0.4,0.1-0.7,0.2
	c-0.1,0-0.2,0-0.4,0.1c-0.1,0-0.1,0.1-0.2,0.1c0,0.1-0.1,0.1-0.1,0.2c0,0.1,0,0.2,0.1,0.3c0.1,0.1,0.2,0.1,0.4,0.1
	c0.2,0,0.3,0,0.4-0.1c0.1-0.1,0.2-0.2,0.3-0.3c0.1-0.1,0.1-0.3,0.1-0.4L29.9,62.3z"/>
<path class="st0" d="M32.5,63.5v-0.3c-0.1,0.2-0.4,0.4-0.7,0.4c-0.2,0-0.4-0.1-0.5-0.2c-0.2-0.1-0.3-0.2-0.4-0.4
	c-0.1-0.2-0.1-0.4-0.1-0.7c0-0.2,0-0.4,0.1-0.7c0.1-0.2,0.2-0.4,0.4-0.5c0.2-0.1,0.3-0.2,0.5-0.2c0.1,0,0.3,0,0.4,0.1
	c0.1,0.1,0.2,0.1,0.3,0.2v-1.2h0.4v3.4L32.5,63.5z M31.2,62.3c0,0.3,0.1,0.5,0.2,0.7c0.1,0.1,0.3,0.2,0.5,0.2c0.2,0,0.4-0.1,0.5-0.2
	c0.1-0.2,0.2-0.4,0.2-0.7c0-0.3-0.1-0.5-0.2-0.7c-0.1-0.1-0.3-0.2-0.5-0.2c-0.2,0-0.3,0.1-0.5,0.2C31.2,61.8,31.2,62,31.2,62.3z"/>
<path class="st0" d="M33.5,60.6v-0.5H34v0.5H33.5z M33.5,63.5v-2.5H34v2.5H33.5z"/>
<path class="st0" d="M34.6,63.5v-2.5H35v0.3c0.2-0.3,0.5-0.4,0.8-0.4c0.1,0,0.3,0,0.4,0.1c0.1,0,0.2,0.1,0.3,0.2
	c0.1,0.1,0.1,0.2,0.1,0.3c0,0.1,0,0.3,0,0.4v1.5h-0.4V62c0-0.1,0-0.3,0-0.4c0-0.1-0.1-0.2-0.2-0.2c-0.1-0.1-0.2-0.1-0.3-0.1
	c-0.2,0-0.3,0.1-0.5,0.2c-0.2,0.2-0.2,0.4-0.2,0.6v1.3L34.6,63.5z"/>
<path class="st0" d="M37.2,63.7l0.4,0c0,0.1,0.1,0.2,0.1,0.3c0.1,0.1,0.3,0.1,0.4,0.1c0.2,0,0.3,0,0.5-0.1c0.1-0.1,0.2-0.2,0.2-0.3
	c0-0.2,0-0.4,0-0.5c-0.2,0.2-0.4,0.3-0.7,0.3c-0.3,0-0.6-0.1-0.8-0.4c-0.2-0.3-0.3-0.6-0.3-0.9c0-0.2,0-0.4,0.1-0.7
	c0.1-0.2,0.2-0.3,0.4-0.5c0.2-0.1,0.4-0.2,0.6-0.2c0.3,0,0.6,0.1,0.7,0.4v-0.3h0.4v2.1c0,0.3,0,0.6-0.1,0.8
	c-0.1,0.2-0.2,0.3-0.4,0.4c-0.2,0.1-0.4,0.1-0.6,0.1c-0.3,0-0.5-0.1-0.7-0.2C37.2,64.2,37.1,64,37.2,63.7z M37.5,62.3
	c0,0.3,0,0.5,0.2,0.7c0.1,0.1,0.3,0.2,0.5,0.2c0.2,0,0.4-0.1,0.5-0.2c0.3-0.4,0.3-1,0-1.4c-0.2-0.3-0.6-0.3-0.9-0.1
	c-0.1,0-0.1,0.1-0.1,0.1C37.5,61.8,37.5,62,37.5,62.3z"/>
<path class="st1" d="M0.1,13.6l3.5,3.8c13.4-3.3,27.2-5.2,41-5.7l0,0v11.1H0L0.1,13.6z"/>
<path class="st1" d="M4.9,12.7l23.7-9L28.5,0C28.5,0,13.8,8.6,4.9,12.7z"/>
<path class="st2" d="M7.7,13.4c0,0,24.3-6.4,26.4-6.6l-0.1-2.9C33.9,3.9,11.9,11.9,7.7,13.4z"/>
<path class="st3" d="M9.7,14.7c0,0,25.5-4.8,29.7-4.6l-0.1-2.3C39.3,7.8,12.4,13.5,9.7,14.7z"/>
<path class="st4" d="M4.9,27.5c-0.2-0.8,0.5-1.5,0.5-1.7c0.1-0.7,0.5-1.3,1.1-1.7c1-0.8,2-1.6,3-2.4c0.7-0.5,1.3-1.4,2.1-1.5
	c0.2,0,0.4,0,0.6-0.1c0.3-0.1,0.6-0.6,0.9-0.8c0.3-0.2,0.7-0.4,1.1-0.4c0.8-0.1,1.5-0.4,2.3-0.6c0.8-0.3,1.6-0.5,2.4-0.7
	c0.9-0.2,1.8-0.2,2.7-0.2c1.2,0,2.4-0.2,3.5-0.1c0.6,0,1.1,0,1.7,0.1c1,0.2,1.8,0.8,2.8,1c0.6,0.1,1.1,0.2,1.7,0.3
	c0.3,0,0.7,0.1,1,0.3c0.4,0.2,0.7,0.5,1,0.8c0.9,0.6,1.5,1.5,2.4,2.2c0.5,0.4,1.3,0.7,1.8,1.1c0.3,0.3,0.6,0.6,1,0.8
	c0.5,0.1,0.9,0.4,1.3,0.6c0.3,0.4,0.6,0.9,0.9,1.3c0.2,0.3,0.4,0.5,0.5,0.8s0.2,0.6,0.4,0.9c0.2,0.5,0.4,0.7,0.2,1.1
	s-0.1,0.4,0.2,0.9c0.1,0.3,0.3,0.7,0.3,1c0.2,0.6,0.6,1.1,0.8,1.7c0.1,0.6,0.2,1.2,0.3,1.8c0.2,0.9,0.4,1.8,0.5,2.8
	c0,0.2,0,0.5,0,0.7c-0.1,0.2-0.4,0.4-0.5,0.7c-0.2,0.6-0.5,1.2-0.9,1.6c-0.2,0.2-0.3,0-0.7,0c-0.3,0-0.5,0.1-0.6,0.4c0,0,0,0,0,0
	c0,0.6,0,1.2,0,1.8c-0.1,0.8-0.5,1.5-1.1,2c-0.3,0.2-0.7,0.2-1,0.5s-0.5,0.7-0.9,0.9c-0.5,0.3-1,0.5-1.5,0.7
	c-0.3,0.2-0.7,0.3-1.1,0.4c-0.3,0-0.6-0.1-1-0.1c-1,0-1.6,0.4-2.7,0.2c-0.3-0.1-0.6-0.2-0.9-0.5c-0.5-0.4-0.4-0.8-0.5-1.4
	c-0.2-0.8-0.6-1.5-1.1-2.2c-0.7-1,0.2-1.8,0.2-2.8c0.1-1.1-1-1.8-1.5-2.6c-0.3-0.4-0.4-0.8-0.5-1.3c0-0.3,0.3-0.4,0.3-0.8
	c0-0.7-1.1-0.5-1.5-0.7c-0.2-0.1-0.4-0.5-0.6-0.7c-0.3-0.3-0.5-0.6-0.9-0.8c-0.4-0.2-0.8-0.4-1.2-0.6c-0.2-0.1-0.5-0.2-0.8-0.2
	c-0.4,0.1-0.9,0.6-1.2,0.9s-0.9,0.7-1.4,1c-0.3,0.2-0.6,0.5-0.8,0.9c-0.2,0.3-0.2,0.7-0.5,0.9c-0.9,0.7-0.5-0.7-0.6-1
	s-0.4-0.1-0.6-0.4s-0.3-0.7-0.5-0.9l-0.1-0.2c-0.4,0.1-0.6,0.8-0.8,1c-0.2,0.3-0.4,0.6-0.7,0.8c-0.3,0.2-0.6,0.3-0.9,0.4
	s-0.4,0.4-0.6,0.7c-0.4,0.6-0.8,0.2-1.2,0.5c-0.2,0.2-0.3,0.4-0.6,0.5s-0.7-0.1-0.9-0.1c-0.6-0.1-1.3-0.1-1.9,0
	c-0.7,0.2-1.5,0.2-2.3,0c-0.6-0.1-1.2-0.2-1.9-0.2c-1-0.1-1.3-1.1-1.3-2c0-0.5,0-1.1,0-1.6c0-0.5-0.2-0.9-0.2-1.3
	c0,0-0.3-0.7,0.7-1.6s0.3-0.1-0.1-0.7C4.3,29.6,5.1,28.4,4.9,27.5z"/>
<path class="st1" d="M23,17.1l-1.5,0.1h-0.6c-0.7,0-1.4,0-2.1,0.2c-0.8,0.2-1.6,0.4-2.4,0.7c-0.7,0.3-1.5,0.5-2.3,0.6H14
	c-0.4,0-0.8,0.2-1.1,0.4l-0.4,0.4c-0.1,0.2-0.3,0.3-0.4,0.4l-0.3,0h-0.2c-0.7,0.2-1.3,0.6-1.8,1.1l-0.5,0.5l-3,2.4
	c-0.7,0.4-1.1,1.1-1.2,1.9C5.1,25.9,5,25.9,5,26c-0.3,0.4-0.4,0.8-0.4,1.3c0,0.1,0,0.2,0,0.3l0,0c0,0.1,0,0.2,0,0.2
	c0,0.4-0.1,0.8-0.2,1.1c-0.1,0.2-0.2,0.5-0.2,0.7c0,0.1,0,0.2,0.1,0.3c0.1,0.1,0.1,0.2,0.2,0.2l-0.1,0.1c-0.5,0.4-0.8,0.9-0.9,1.6
	c0,0.1,0,0.2,0,0.3L3.6,33l0.1,0.5v1.6c0,1.3,0.6,2.2,1.6,2.3h0.5c0.4,0,0.9,0.1,1.3,0.2c0.8,0.2,1.6,0.2,2.4,0
	c0.6-0.1,1.2-0.2,1.8-0.1l0.2,0.1c0.3,0.1,0.6,0.2,0.9,0.1c0.2-0.1,0.3-0.2,0.4-0.3l0.2-0.2c0.1-0.1,0.3-0.1,0.4-0.1
	c0.4,0,0.7-0.2,0.9-0.5l0.1-0.2c0.1-0.2,0.2-0.3,0.4-0.4l0.4-0.2l0.5-0.3c0.3-0.3,0.6-0.6,0.8-0.9l0.2-0.3c0.1-0.2,0.2-0.4,0.3-0.5
	c0.1,0.1,0.1,0.2,0.2,0.3c0.1,0.2,0.2,0.4,0.4,0.6c0.1,0.1,0.3,0.2,0.5,0.2h0.1c0,0.1,0,0.2,0,0.3v0.2c0,0.4,0,0.7,0.3,0.9
	c0.3,0.1,0.6,0,0.8-0.2c0.2-0.2,0.4-0.4,0.4-0.7l0.1-0.3c0.2-0.3,0.4-0.6,0.7-0.8l1.4-1l0.4-0.3c0.2-0.2,0.5-0.4,0.8-0.5
	c0.2,0,0.4,0,0.6,0.1l0.4,0.2c0.3,0.1,0.5,0.2,0.8,0.4c0.3,0.2,0.6,0.5,0.8,0.8l0.1,0.2c0.1,0.2,0.3,0.4,0.5,0.5
	c0.2,0.1,0.4,0.1,0.6,0.1c0.5,0,0.7,0.1,0.7,0.3l0,0c0,0,0,0.1-0.1,0.2c-0.1,0.2-0.2,0.3-0.2,0.5l0,0c0.1,0.5,0.2,1,0.5,1.4l0.6,0.8
	c0.5,0.4,0.8,1,0.9,1.6v0.1c0,0.3-0.1,0.6-0.2,0.9c-0.2,0.4-0.3,0.7-0.3,1.1c0,0.4,0.1,0.7,0.3,1c0.5,0.6,0.8,1.4,1,2.1l0.1,0.4
	c0,0.5,0.2,0.9,0.5,1.2c0.3,0.2,0.6,0.4,1,0.5c0.6,0.1,1.2,0.1,1.8-0.1c0.3-0.1,0.7-0.1,1-0.1h0.4h0.5c0.3,0,0.6-0.1,0.9-0.3
	l0.3-0.1h0.1c0.5-0.2,1-0.4,1.5-0.7c0.2-0.2,0.5-0.4,0.6-0.6l0.3-0.4c0.1-0.1,0.3-0.2,0.4-0.2l0.5-0.2c0.7-0.5,1.1-1.3,1.2-2.1v-0.8
	c0-0.3,0-0.6,0-1c0-0.2,0.1-0.2,0.3-0.2h0.3c0.2,0.1,0.5,0,0.6-0.1c0.4-0.4,0.7-0.9,0.8-1.4l0.2-0.4l0.2-0.2
	c0.1-0.1,0.3-0.3,0.3-0.5c0-0.1,0.1-0.2,0-0.3c0-0.1,0-0.2,0-0.3v-0.2c0-0.6-0.1-1.2-0.3-1.8l-0.2-1l-0.1-0.6c0-0.4-0.1-0.8-0.2-1.2
	c-0.1-0.3-0.3-0.6-0.4-0.9l-0.4-0.8l-0.1-0.4c0-0.3-0.1-0.5-0.3-0.7l0-0.1L41.8,29c0,0,0.1-0.1,0.1-0.1c0.1-0.2,0.2-0.3,0.2-0.5
	c0-0.2-0.1-0.5-0.2-0.6l-0.1-0.2l-0.2-0.4l-0.2-0.5L41,26l-0.2-0.3l-0.3-0.4c-0.2-0.3-0.4-0.6-0.6-0.9c-0.3-0.2-0.6-0.4-1-0.5
	l-0.4-0.2c-0.3-0.1-0.5-0.3-0.7-0.5l-0.3-0.2c-0.3-0.2-0.6-0.4-0.9-0.6c-0.3-0.2-0.6-0.4-0.9-0.6c-0.4-0.3-0.7-0.6-1-1
	c-0.4-0.5-0.9-0.9-1.4-1.3l-0.5-0.4l-0.6-0.4c-0.3-0.2-0.5-0.2-0.8-0.3h-0.2l-1-0.2l-0.7-0.1c-0.5-0.1-0.9-0.3-1.4-0.5
	c-0.5-0.2-0.9-0.4-1.4-0.5c-0.6-0.1-1.2-0.1-1.7-0.1C24.4,17,23.7,17.1,23,17.1z M21.5,17.8l1.5-0.1c0.6,0,1.3-0.1,2-0.1
	c0.5,0,1.1,0,1.6,0.1c0.4,0.1,0.9,0.3,1.3,0.5c0.5,0.2,1,0.4,1.5,0.5l0.7,0.1l1,0.2l0.3,0c0.2,0,0.4,0.1,0.6,0.2l0.5,0.4L33,20
	c0.5,0.4,0.9,0.8,1.3,1.2c0.3,0.4,0.6,0.7,1,1c0.3,0.2,0.6,0.5,1,0.6c0.3,0.2,0.6,0.3,0.8,0.5l0.3,0.2c0.3,0.2,0.5,0.4,0.8,0.6
	l0.5,0.2c0.3,0.1,0.5,0.2,0.8,0.4c0.2,0.3,0.4,0.5,0.5,0.8l0.3,0.5l0.2,0.3l0.3,0.5l0.2,0.5l0.2,0.4l0.1,0.2
	c0.2,0.4,0.2,0.4,0.1,0.6c-0.3,0.3-0.3,0.7,0,1l0.2,0.2c0.1,0.2,0.2,0.4,0.2,0.5l0.1,0.4l0.4,0.9c0.1,0.3,0.3,0.5,0.4,0.8
	c0.1,0.4,0.2,0.8,0.2,1.1l0.1,0.6l0.2,1c0.1,0.5,0.2,1.1,0.3,1.7V37c0,0.1,0,0.3,0,0.4c-0.1,0.1-0.1,0.2-0.2,0.2L42.9,38l-0.2,0.4
	c-0.1,0.4-0.4,0.8-0.7,1.2H42h0l-0.4-0.1c-0.4,0-0.8,0.3-0.9,0.7c-0.1,0.4-0.1,0.7,0,1.1V42c-0.1,0.7-0.4,1.3-1,1.7l-0.4,0.2
	c-0.2,0.1-0.4,0.2-0.6,0.3l-0.4,0.4c-0.1,0.2-0.3,0.4-0.5,0.5c-0.5,0.3-0.9,0.5-1.4,0.7h-0.1l-0.3,0.1c-0.2,0.1-0.5,0.2-0.7,0.2
	h-0.5h-0.5c-0.3,0-0.7,0.1-1,0.1c-0.5,0.1-1,0.2-1.5,0.1c-0.3-0.1-0.6-0.2-0.9-0.4c-0.2-0.2-0.4-0.5-0.4-0.8l-0.1-0.5
	c-0.2-0.8-0.6-1.6-1.1-2.3c-0.4-0.5-0.2-1,0-1.6c0.1-0.3,0.2-0.7,0.3-1c0-0.8-0.4-1.6-1-2.1L28.2,37c-0.2-0.3-0.4-0.7-0.4-1.1
	c0-0.1,0-0.1,0.1-0.2c0.1-0.2,0.2-0.4,0.2-0.6c0-0.7-0.8-0.8-1.2-0.8c-0.1,0-0.3,0-0.4-0.1c-0.1-0.1-0.2-0.2-0.3-0.3L26,33.6
	c-0.3-0.3-0.6-0.6-0.9-0.8c-0.3-0.2-0.6-0.3-0.9-0.5l-0.4-0.2c-0.3-0.2-0.7-0.2-1-0.2c-0.4,0.1-0.7,0.3-1,0.6l-0.3,0.3l-1.4,1
	c-0.3,0.3-0.6,0.6-0.8,1l-0.2,0.4c0,0.2-0.1,0.3-0.2,0.4l-0.1,0.1c0-0.1,0-0.2,0-0.3v-0.2c0-0.2,0-0.3-0.1-0.5
	c-0.1-0.2-0.3-0.4-0.5-0.4c-0.1,0-0.1,0-0.2-0.1c-0.1-0.1-0.2-0.2-0.2-0.4c-0.1-0.2-0.2-0.4-0.3-0.5c0,0,0,0,0.1,0.1l-0.1-0.1
	c-0.1-0.1-0.2-0.2-0.3-0.1c-0.4,0.1-0.6,0.5-0.8,0.9l-0.1,0.3c-0.2,0.3-0.4,0.5-0.6,0.8L15,35.3l-0.4,0.2c-0.3,0.1-0.5,0.4-0.6,0.6
	l-0.1,0.2c-0.1,0.2-0.2,0.2-0.5,0.2c-0.2,0-0.5,0.1-0.7,0.2L12.4,37c0,0.1-0.1,0.1-0.2,0.2c-0.2,0-0.4,0-0.6-0.1L11.5,37
	c-0.7-0.1-1.3-0.1-2,0.1c-0.7,0.2-1.4,0.2-2.2,0c-0.5-0.1-0.9-0.2-1.4-0.2H5.4c-1-0.1-1.1-1.5-1.1-1.8v-1.7l-0.1-0.6l-0.1-0.7
	c0,0,0-0.1,0-0.1c0,0-0.2-0.6,0.6-1.3L5,30.5c0.2-0.2,0.4-0.3,0.3-0.5c-0.1-0.1-0.2-0.2-0.4-0.2c-0.1,0-0.2,0-0.2-0.1
	s0.1-0.3,0.2-0.5c0.2-0.5,0.3-1.1,0.3-1.7l0,0c0-0.4,0.1-0.9,0.3-1.2l0.2-0.4c0.1-0.6,0.5-1.2,1-1.5l3-2.4l0.5-0.5
	c0.4-0.5,0.9-0.8,1.4-1h0.2l0.5-0.1c0.3-0.1,0.5-0.3,0.7-0.5l0.3-0.3c0.3-0.2,0.5-0.3,0.9-0.3h0.1c0.8-0.2,1.6-0.4,2.3-0.6
	c0.8-0.3,1.6-0.5,2.4-0.7c0.7-0.1,1.3-0.2,2-0.1L21.5,17.8z"/>
<path class="st5" d="M4.9,27.5c-0.2-0.8,0.5-1.5,0.5-1.7c0.1-0.7,0.5-1.3,1.1-1.7c1-0.8,2-1.6,3-2.4c0.7-0.5,1.3-1.4,2.1-1.5
	c0.2,0,0.4,0,0.6-0.1c0.3-0.1,0.6-0.6,0.9-0.8c0.3-0.2,0.7-0.4,1.1-0.4c0.8-0.1,1.5-0.4,2.3-0.6c0.8-0.3,1.6-0.5,2.4-0.7
	c0.9-0.2,1.8-0.2,2.7-0.2c1.2,0,2.4-0.2,3.5-0.1c0.6,0,1.1,0,1.7,0.1c1,0.2,1.8,0.8,2.8,1c0.6,0.1,1.1,0.2,1.7,0.3
	c0.3,0,0.7,0.1,1,0.3c0.4,0.2,0.7,0.5,1,0.8c0.9,0.6,1.5,1.5,2.4,2.2c0.5,0.4,1.3,0.7,1.8,1.1c0.3,0.3,0.6,0.6,1,0.8
	c0.5,0.1,0.9,0.4,1.3,0.6c0.3,0.4,0.6,0.9,0.9,1.3c0.2,0.3,0.4,0.5,0.5,0.8s0.2,0.6,0.4,0.9c0.2,0.5,0.4,0.7,0.2,1.1
	s-0.1,0.4,0.2,0.9c0.1,0.3,0.3,0.7,0.3,1c0.2,0.6,0.6,1.1,0.8,1.7c0.1,0.6,0.2,1.2,0.3,1.8c0.2,0.9,0.4,1.8,0.5,2.8
	c0,0.2,0,0.5,0,0.7c-0.1,0.2-0.4,0.4-0.5,0.7c-0.2,0.6-0.5,1.2-0.9,1.6c-0.2,0.2-0.3,0-0.7,0c-0.3,0-0.5,0.1-0.6,0.4c0,0,0,0,0,0
	c0,0.6,0,1.2,0,1.8c-0.1,0.8-0.5,1.5-1.1,2c-0.3,0.2-0.7,0.2-1,0.5s-0.5,0.7-0.9,0.9c-0.5,0.3-1,0.5-1.5,0.7
	c-0.3,0.2-0.7,0.3-1.1,0.4c-0.3,0-0.6-0.1-1-0.1c-1,0-1.6,0.4-2.7,0.2c-0.3-0.1-0.6-0.2-0.9-0.5c-0.5-0.4-0.4-0.8-0.5-1.4
	c-0.2-0.8-0.6-1.5-1.1-2.2c-0.7-1,0.2-1.8,0.2-2.8c0.1-1.1-1-1.8-1.5-2.6c-0.3-0.4-0.4-0.8-0.5-1.3c0-0.3,0.3-0.4,0.3-0.8
	c0-0.7-1.1-0.5-1.5-0.7c-0.2-0.1-0.4-0.5-0.6-0.7c-0.3-0.3-0.5-0.6-0.9-0.8c-0.4-0.2-0.8-0.4-1.2-0.6c-0.2-0.1-0.5-0.2-0.8-0.2
	c-0.4,0.1-0.9,0.6-1.2,0.9s-0.9,0.7-1.4,1c-0.3,0.2-0.6,0.5-0.8,0.9c-0.2,0.3-0.2,0.7-0.5,0.9c-0.9,0.7-0.5-0.7-0.6-1
	s-0.4-0.1-0.6-0.4s-0.3-0.7-0.5-0.9l-0.1-0.2c-0.4,0.1-0.6,0.8-0.8,1c-0.2,0.3-0.4,0.6-0.7,0.8c-0.3,0.2-0.6,0.3-0.9,0.4
	s-0.4,0.4-0.6,0.7c-0.4,0.6-0.8,0.2-1.2,0.5c-0.2,0.2-0.3,0.4-0.6,0.5s-0.7-0.1-0.9-0.1c-0.6-0.1-1.3-0.1-1.9,0
	c-0.7,0.2-1.5,0.2-2.3,0c-0.6-0.1-1.2-0.2-1.9-0.2c-1-0.1-1.3-1.1-1.3-2c0-0.5,0-1.1,0-1.6c0-0.5-0.2-0.9-0.2-1.3
	c0,0-0.3-0.7,0.7-1.6s0.3-0.1-0.1-0.7C4.3,29.6,5.1,28.4,4.9,27.5z"/>
<path class="st1" d="M23,17.1l-1.5,0.1h-0.6c-0.7,0-1.4,0-2.1,0.2c-0.8,0.2-1.6,0.4-2.4,0.7c-0.7,0.3-1.5,0.5-2.3,0.6H14
	c-0.4,0-0.8,0.2-1.1,0.4l-0.4,0.4c-0.1,0.2-0.3,0.3-0.4,0.4l-0.3,0h-0.2c-0.7,0.2-1.3,0.6-1.8,1.1l-0.5,0.5l-3,2.4
	c-0.7,0.4-1.1,1.1-1.2,1.9C5.1,25.9,5,25.9,5,26c-0.3,0.4-0.4,0.8-0.4,1.3c0,0.1,0,0.2,0,0.3l0,0c0,0.1,0,0.2,0,0.2
	c0,0.4-0.1,0.8-0.2,1.1c-0.1,0.2-0.2,0.5-0.2,0.7c0,0.1,0,0.2,0.1,0.3c0.1,0.1,0.1,0.2,0.2,0.2l-0.1,0.1c-0.5,0.4-0.8,0.9-0.9,1.6
	c0,0.1,0,0.2,0,0.3L3.6,33l0.1,0.5v1.6c0,1.3,0.6,2.2,1.6,2.3h0.5c0.4,0,0.9,0.1,1.3,0.2c0.8,0.2,1.6,0.2,2.4,0
	c0.6-0.1,1.2-0.2,1.8-0.1l0.2,0.1c0.3,0.1,0.6,0.2,0.9,0.1c0.2-0.1,0.3-0.2,0.4-0.3l0.2-0.2c0.1-0.1,0.3-0.1,0.4-0.1
	c0.4,0,0.7-0.2,0.9-0.5l0.1-0.2c0.1-0.2,0.2-0.3,0.4-0.4l0.4-0.2l0.5-0.3c0.3-0.3,0.6-0.6,0.8-0.9l0.2-0.3c0.1-0.2,0.2-0.4,0.3-0.5
	c0.1,0.1,0.1,0.2,0.2,0.3c0.1,0.2,0.2,0.4,0.4,0.6c0.1,0.1,0.3,0.2,0.5,0.2h0.1c0,0.1,0,0.2,0,0.3v0.2c0,0.4,0,0.7,0.3,0.9
	c0.3,0.1,0.6,0,0.8-0.2c0.2-0.2,0.4-0.4,0.4-0.7l0.1-0.3c0.2-0.3,0.4-0.6,0.7-0.8l1.4-1l0.4-0.3c0.2-0.2,0.5-0.4,0.8-0.5
	c0.2,0,0.4,0,0.6,0.1l0.4,0.2c0.3,0.1,0.5,0.2,0.8,0.4c0.3,0.2,0.6,0.5,0.8,0.8l0.1,0.2c0.1,0.2,0.3,0.4,0.5,0.5
	c0.2,0.1,0.4,0.1,0.6,0.1c0.5,0,0.7,0.1,0.7,0.3l0,0c0,0,0,0.1-0.1,0.2c-0.1,0.2-0.2,0.3-0.2,0.5l0,0c0.1,0.5,0.2,1,0.5,1.4l0.6,0.8
	c0.5,0.4,0.8,1,0.9,1.6v0.1c0,0.3-0.1,0.6-0.2,0.9c-0.2,0.4-0.3,0.7-0.3,1.1c0,0.4,0.1,0.7,0.3,1c0.5,0.6,0.8,1.4,1,2.1l0.1,0.4
	c0,0.5,0.2,0.9,0.5,1.2c0.3,0.2,0.6,0.4,1,0.5c0.6,0.1,1.2,0.1,1.8-0.1c0.3-0.1,0.7-0.1,1-0.1h0.4h0.5c0.3,0,0.6-0.1,0.9-0.3
	l0.3-0.1h0.1c0.5-0.2,1-0.4,1.5-0.7c0.2-0.2,0.5-0.4,0.6-0.6l0.3-0.4c0.1-0.1,0.3-0.2,0.4-0.2l0.5-0.2c0.7-0.5,1.1-1.3,1.2-2.1v-0.8
	c0-0.3,0-0.6,0-1c0-0.2,0.1-0.2,0.3-0.2h0.3c0.2,0.1,0.5,0,0.6-0.1c0.4-0.4,0.7-0.9,0.8-1.4l0.2-0.4l0.2-0.2
	c0.1-0.1,0.3-0.3,0.3-0.5c0-0.1,0.1-0.2,0-0.3c0-0.1,0-0.2,0-0.3v-0.2c0-0.6-0.1-1.2-0.3-1.8l-0.2-1l-0.1-0.6c0-0.4-0.1-0.8-0.2-1.2
	c-0.1-0.3-0.3-0.6-0.4-0.9l-0.4-0.8l-0.1-0.4c0-0.3-0.1-0.5-0.3-0.7l0-0.1L41.8,29c0,0,0.1-0.1,0.1-0.1c0.1-0.2,0.2-0.3,0.2-0.5
	c0-0.2-0.1-0.5-0.2-0.6l-0.1-0.2l-0.2-0.4l-0.2-0.5L41,26l-0.2-0.3l-0.3-0.4c-0.2-0.3-0.4-0.6-0.6-0.9c-0.3-0.2-0.6-0.4-1-0.5
	l-0.4-0.2c-0.3-0.1-0.5-0.3-0.7-0.5l-0.3-0.2c-0.3-0.2-0.6-0.4-0.9-0.6c-0.3-0.2-0.6-0.4-0.9-0.6c-0.4-0.3-0.7-0.6-1-1
	c-0.4-0.5-0.9-0.9-1.4-1.3l-0.5-0.4l-0.6-0.4c-0.3-0.2-0.5-0.2-0.8-0.3h-0.2l-1-0.2l-0.7-0.1c-0.5-0.1-0.9-0.3-1.4-0.5
	c-0.5-0.2-0.9-0.4-1.4-0.5c-0.6-0.1-1.2-0.1-1.7-0.1C24.4,17,23.7,17.1,23,17.1z M21.5,17.8l1.5-0.1c0.6,0,1.3-0.1,2-0.1
	c0.5,0,1.1,0,1.6,0.1c0.4,0.1,0.9,0.3,1.3,0.5c0.5,0.2,1,0.4,1.5,0.5l0.7,0.1l1,0.2l0.3,0c0.2,0,0.4,0.1,0.6,0.2l0.5,0.4L33,20
	c0.5,0.4,0.9,0.8,1.3,1.2c0.3,0.4,0.6,0.7,1,1c0.3,0.2,0.6,0.5,1,0.6c0.3,0.2,0.6,0.3,0.8,0.5l0.3,0.2c0.3,0.2,0.5,0.4,0.8,0.6
	l0.5,0.2c0.3,0.1,0.5,0.2,0.8,0.4c0.2,0.3,0.4,0.5,0.5,0.8l0.3,0.5l0.2,0.3l0.3,0.5l0.2,0.5l0.2,0.4l0.1,0.2
	c0.2,0.4,0.2,0.4,0.1,0.6c-0.3,0.3-0.3,0.7,0,1l0.2,0.2c0.1,0.2,0.2,0.4,0.2,0.5l0.1,0.4l0.4,0.9c0.1,0.3,0.3,0.5,0.4,0.8
	c0.1,0.4,0.2,0.8,0.2,1.1l0.1,0.6l0.2,1c0.1,0.5,0.2,1.1,0.3,1.7V37c0,0.1,0,0.3,0,0.4c-0.1,0.1-0.1,0.2-0.2,0.2L42.9,38l-0.2,0.4
	c-0.1,0.4-0.4,0.8-0.7,1.2H42h0l-0.4-0.1c-0.4,0-0.8,0.3-0.9,0.7c-0.1,0.4-0.1,0.7,0,1.1V42c-0.1,0.7-0.4,1.3-1,1.7l-0.4,0.2
	c-0.2,0.1-0.4,0.2-0.6,0.3l-0.4,0.4c-0.1,0.2-0.3,0.4-0.5,0.5c-0.5,0.3-0.9,0.5-1.4,0.7h-0.1l-0.3,0.1c-0.2,0.1-0.5,0.2-0.7,0.2
	h-0.5h-0.5c-0.3,0-0.7,0.1-1,0.1c-0.5,0.1-1,0.2-1.5,0.1c-0.3-0.1-0.6-0.2-0.9-0.4c-0.2-0.2-0.4-0.5-0.4-0.8l-0.1-0.5
	c-0.2-0.8-0.6-1.6-1.1-2.3c-0.4-0.5-0.2-1,0-1.6c0.1-0.3,0.2-0.7,0.3-1c0-0.8-0.4-1.6-1-2.1L28.2,37c-0.2-0.3-0.4-0.7-0.4-1.1
	c0-0.1,0-0.1,0.1-0.2c0.1-0.2,0.2-0.4,0.2-0.6c0-0.7-0.8-0.8-1.2-0.8c-0.1,0-0.3,0-0.4-0.1c-0.1-0.1-0.2-0.2-0.3-0.3L26,33.6
	c-0.3-0.3-0.6-0.6-0.9-0.8c-0.3-0.2-0.6-0.3-0.9-0.5l-0.4-0.2c-0.3-0.2-0.7-0.2-1-0.2c-0.4,0.1-0.7,0.3-1,0.6l-0.3,0.3l-1.4,1
	c-0.3,0.3-0.6,0.6-0.8,1l-0.2,0.4c0,0.2-0.1,0.3-0.2,0.4l-0.1,0.1c0-0.1,0-0.2,0-0.3v-0.2c0-0.2,0-0.3-0.1-0.5
	c-0.1-0.2-0.3-0.4-0.5-0.4c-0.1,0-0.1,0-0.2-0.1c-0.1-0.1-0.2-0.2-0.2-0.4c-0.1-0.2-0.2-0.4-0.3-0.5c0,0,0,0,0.1,0.1l-0.1-0.1
	c-0.1-0.1-0.2-0.2-0.3-0.1c-0.4,0.1-0.6,0.5-0.8,0.9l-0.1,0.3c-0.2,0.3-0.4,0.5-0.6,0.8L15,35.3l-0.4,0.2c-0.3,0.1-0.5,0.4-0.6,0.6
	l-0.1,0.2c-0.1,0.2-0.2,0.2-0.5,0.2c-0.2,0-0.5,0.1-0.7,0.2L12.4,37c0,0.1-0.1,0.1-0.2,0.2c-0.2,0-0.4,0-0.6-0.1L11.5,37
	c-0.7-0.1-1.3-0.1-2,0.1c-0.7,0.2-1.4,0.2-2.2,0c-0.5-0.1-0.9-0.2-1.4-0.2H5.4c-1-0.1-1.1-1.5-1.1-1.8v-1.7l-0.1-0.6l-0.1-0.7
	c0,0,0-0.1,0-0.1c0,0-0.2-0.6,0.6-1.3L5,30.5c0.2-0.2,0.4-0.3,0.3-0.5c-0.1-0.1-0.2-0.2-0.4-0.2c-0.1,0-0.2,0-0.2-0.1
	s0.1-0.3,0.2-0.5c0.2-0.5,0.3-1.1,0.3-1.7l0,0c0-0.4,0.1-0.9,0.3-1.2l0.2-0.4c0.1-0.6,0.5-1.2,1-1.5l3-2.4l0.5-0.5
	c0.4-0.5,0.9-0.8,1.4-1h0.2l0.5-0.1c0.3-0.1,0.5-0.3,0.7-0.5l0.3-0.3c0.3-0.2,0.5-0.3,0.9-0.3h0.1c0.8-0.2,1.6-0.4,2.3-0.6
	c0.8-0.3,1.6-0.5,2.4-0.7c0.7-0.1,1.3-0.2,2-0.1L21.5,17.8z"/>
<path class="st1" d="M13.3,24.5c-2.5,0.5-4.5,3-4.2,5.3c0.1,0.6,0.2,1.2,0.4,1.8c0.3,0.9,0.4,1.8,0.4,2.8c-0.1,1.3-0.8,1.8-1.8,2.5
	l-0.6,0.5l0.2,0.3l0.6-0.5c1-0.7,1.9-1.3,2-2.8c0-1-0.1-2-0.4-2.9c-0.2-0.6-0.3-1.1-0.4-1.7c-0.1-2.4,1.6-4.5,3.9-4.9
	c0.9-0.2,2.4-0.3,2.9,0.3c0.2,0.2,0.2,0.4,0.2,0.7l0.4,0.1c0.1-0.4,0-0.7-0.3-1C15.7,24,13.4,24.5,13.3,24.5z"/>
<path class="st1" d="M14.6,23c-0.3,0.5-0.4,1.1-0.2,1.6l0.4-0.1c-0.1-0.5-0.1-0.9,0.2-1.3c0.4-0.6,0.9-1.1,1.6-1.2l-0.1-0.4
	C15.7,21.8,15.1,22.3,14.6,23z"/>
<path class="st1" d="M13.1,33l0.1,0.2c0.5,0.8,1.4,2.5,2.4,2.3v-0.4c-0.8,0.1-1.7-1.5-2-2.2l-0.1-0.2c-0.8-1.4-1.1-3-1-4.6H12
	C11.9,29.9,12.3,31.5,13.1,33z"/>
<path class="st1" d="M19,23.1c0.5,0.4,0.8,1,0.8,1.6c0,0.9-0.4,1.8-1.1,2.4c-1,0.7-2.6,0.3-3.8-0.3l-0.2,0.3c1.3,0.7,3,1.1,4.2,0.3
	c0.9-0.6,1.3-1.6,1.3-2.7c0-0.8-0.4-1.5-1-1.9L19,23.1z"/>
<path class="st1" d="M18.8,27.6c0.1,0,0.2,0.1,0.2,0.1c0.1,0.3,0.1,0.5,0,0.8c-0.2,0.3-0.6,0.6-1,0.7l-0.6,0.3
	c-0.9,0.6-1.6,1.5-1.8,2.6c-0.2,0.7-0.1,1.4,0.3,2c0.1,0.1,0.3,0.2,0.4,0.3l0.3,0.2l0.2-0.3l-0.4-0.3c-0.1,0-0.2-0.1-0.3-0.2
	c-0.3-0.5-0.4-1.1-0.2-1.7c0.2-1,0.8-1.8,1.6-2.3l0.6-0.3c0.5-0.1,1-0.4,1.2-0.9c0.2-0.4,0.2-0.8,0-1.2c-0.1-0.2-0.3-0.3-0.5-0.3
	L18.8,27.6z"/>
<path class="st1" d="M6.2,24.3c0.2,0.4,0.3,0.8,0.4,1.2c0.3,1,0.6,2,1.4,2.5c0.5,0.3,1.1,0.3,1.6,0.1l-0.1-0.4
	c-0.4,0.2-0.9,0.2-1.4,0c-0.7-0.4-1-1.4-1.2-2.2c-0.1-0.4-0.3-0.8-0.4-1.2L6.2,24.3z"/>
<path class="st1" d="M7.8,32.5c0,0.4-0.2,0.8-0.6,1.1c-1,0.6-2.1,0.8-3.2,0.5l-0.1,0.3c1.2,0.3,2.5,0.1,3.6-0.6
	c0.5-0.3,0.7-0.8,0.7-1.4L7.8,32.5z"/>
<path class="st1" d="M6.3,34.1L6.7,34c-0.4-1.5-0.2-4.2,1.2-5.4l-0.2-0.3C6.1,29.6,5.9,32.5,6.3,34.1z"/>
<path class="st1" d="M20.8,20.6c0.2,0.9,0.6,1.8,1.4,2.4c0.4,0.4,0.7,0.8,1,1.2l0,0c0.5,0.7,0.8,1.5,1.1,2.4
	c0.2,0.7,0.2,1.5,0.2,2.3v0.6c0,0.9-0.2,2.4-1,2.5v0.4c1.3-0.1,1.4-2.4,1.4-2.9v-0.6c0-0.8,0-1.6-0.2-2.4c-0.3-0.9-0.7-1.7-1.2-2.5
	v0c-0.3-0.5-0.6-0.9-1-1.3c-0.7-0.6-1.1-1.3-1.3-2.2c0-1.1,0.4-2.2,1.1-3l-0.3-0.3C21.3,18.2,20.8,19.4,20.8,20.6z"/>
<path class="st1" d="M20.9,20.6l0.3,0.2c0.7-0.8,2.4-1.8,3.5-1.6c0.5,0.1,0.8,0.5,0.9,0.9l0.1,0.6c0,0.6,0.3,1.1,0.8,1.4
	c0.6,0.2,1.1,0.2,1.7,0c1.2-0.3,1.4-1,1.7-2l-0.4-0.1c-0.2,1-0.4,1.5-1.4,1.7c-0.5,0.2-1,0.2-1.4,0c-0.5-0.3-0.5-0.7-0.6-1.1
	l-0.1-0.6c-0.1-0.6-0.6-1.1-1.2-1.2C23.4,18.6,21.6,19.7,20.9,20.6z"/>
<path class="st1" d="M26.4,28.1c-0.4,0.2-0.9,0.2-1.3,0.1h-0.3v0.4H25c0.5,0,1,0,1.5-0.2c1.1-0.5,1.9-1.5,2.1-2.8h-0.4
	C28,26.8,27.3,27.7,26.4,28.1z"/>
<path class="st1" d="M28.5,26c1.1,0.2,2.3-0.2,2.9-1.2l-0.3-0.2c-0.6,0.8-1.6,1.2-2.5,1c-0.8-0.1-1.9-0.9-1.8-1.8h-0.4
	C26.3,24.9,27.6,25.8,28.5,26z"/>
<path class="st1" d="M20,31.4c0.2,0.9,0.7,1.9,1.4,1.9v-0.4c-0.4,0-0.8-0.7-1-1.6c-0.1-0.7-0.1-1.6,0.4-1.8l-0.1-0.4
	C19.9,29.5,19.8,30.5,20,31.4z"/>
<path class="st1" d="M32.7,19.7l-0.1,2.7c0.1,1,0.5,2,1.3,2.8l0.1,0.1c0.9,1.2,1.3,2.6,1.1,4.1c-0.1,0.6-0.4,1-0.9,1.3
	c-0.6,0.2-1.2,0.2-1.7,0.1l-0.7-0.1c-1-0.1-2,0.2-2.7,1c-0.3,0.3-0.6,0.5-0.9,0.8c-0.8,0.7-1.6,1.3-1,2.5l0.4-0.2
	c-0.4-1,0.1-1.4,0.9-2.1c0.3-0.2,0.6-0.5,0.9-0.8c0.6-0.7,1.5-1,2.4-0.9l0.7,0.1c0.7,0.2,1.4,0.1,2-0.1c0.6-0.3,1-0.9,1.1-1.6
	c0.2-1.6-0.2-3.1-1.2-4.4l-0.1-0.1c-0.7-0.7-1.1-1.6-1.2-2.5l0.1-2.7L32.7,19.7z"/>
<path class="st1" d="M35.4,29.3c2.7,0.2,4.9,2.5,4.8,5.2h0.4c0-2.9-2.2-5.4-5.2-5.6L35.4,29.3z"/>
<path class="st1" d="M39.2,35.3c-0.1,0.4-0.4,0.7-0.7,1l0.2,0.3c0.3-0.3,0.6-0.7,0.8-1.1c0.3-0.6,0.5-1,1.5-0.9
	c0.6,0,1.1,0.3,1.2,0.9l0.2,0.4c0.2,0.5,0.5,1.3,1.3,1.3v-0.4c-0.5,0-0.7-0.4-0.9-1l-0.2-0.4c-0.4-0.9-1.5-1.3-2.5-0.9
	C39.8,34.6,39.4,35,39.2,35.3L39.2,35.3z"/>
<path class="st1" d="M31.1,31.1c0.6,0.2,1.2,0.5,1.6,0.9l0.2,0.1c1.2,0.7,1.7,2.2,1.4,3.5c-0.1,1-0.4,1.9-1.1,2.6l-0.5,0.4
	c-0.4,0.3-0.7,0.7-0.9,1.2c-0.3,0.8-1.2,5-0.2,6.5c0.2,0.3,0.5,0.5,0.9,0.5v-0.4c-0.3,0-0.5-0.1-0.6-0.3c-0.9-1.3,0-5.3,0.3-6.1
	c0.2-0.4,0.5-0.8,0.8-1l0.5-0.5c0.7-0.8,1.1-1.8,1.2-2.8c0.4-1.5-0.3-3-1.5-3.9l-0.2-0.1c-0.5-0.4-1.1-0.8-1.8-0.9L31.1,31.1z"/>
<path class="st1" d="M37.6,38.2c0.1,0.1,0.2,0.3,0.1,0.4c-0.1,0.3-0.7,0.6-1.2,0.8c-0.3,0.1-0.6,0.3-0.9,0.5c-0.6,0.6-0.5,2-0.4,2.8
	s0.4,2.7,1.1,3.5l0.3-0.3c-0.6-1-0.9-2.1-1-3.2c-0.1-0.7-0.2-2,0.3-2.5c0.2-0.2,0.5-0.3,0.7-0.4c0.6-0.2,1.3-0.5,1.4-1
	c0.1-0.3,0-0.5-0.2-0.8L37.6,38.2z"/>
<path class="st1" d="M36.1,35.6l0.1,0.5c0,0.9,0.5,1.6,1.3,2.1c1.1,0.7,2.4,0.8,3.5,0.3l-0.2-0.3c-1,0.5-2.2,0.4-3.2-0.3
	c-0.7-0.4-1.1-1-1.1-1.8l-0.1-0.6L36.1,35.6z"/>
<path class="st1" d="M33.2,38.3l0.1-0.4c-1.4-0.5-2.1-2.4-2-3.7H31C30.9,35.6,31.5,37.8,33.2,38.3z"/>
<path class="st1" d="M36.2,24.5c0.1,0.6-0.1,1.2-0.6,1.7c-0.2,0.2-0.6,0.3-0.9,0.2l-0.1,0.4c0.4,0.1,0.9,0,1.2-0.2
	c0.5-0.5,0.8-1.3,0.7-2L36.2,24.5z"/>
<path class="st1" d="M31.8,27.9c-0.1,0.6,0.1,1.1,0.4,1.6c0.5,0.6,1.5,1.5,2.3,1.2l-0.1-0.4c-0.5,0.2-1.4-0.6-1.9-1.1
	c-0.3-0.4-0.4-0.9-0.3-1.3v-0.3h-0.4L31.8,27.9z"/>
<path class="st1" d="M32.3,41.9c0.7,1.2,2,1.9,3.4,1.9v-0.4c-1.5-0.2-2.3-0.4-3.2-1.7L32.3,41.9z"/>
<path class="st0" d="M15.1,44.3c0.1,1.1-0.2,2.2-0.8,3.2c-0.5,0.8-1.4,1.2-2.3,1.2v-1.4c1,0,1.5-1,1.5-3H12v-3h3.1L15.1,44.3z"/>
<path class="st0" d="M26.5,44.3c0.1,1.1-0.2,2.2-0.8,3.2c-0.5,0.8-1.4,1.2-2.3,1.2v-1.4c1,0,1.5-1,1.5-3h-1.5v-3h3.1V44.3z"/>
<path class="st0" d="M19.4,56.4l-4.2-2.5l-0.6,1l4.5,2.7c0.2,0.1,0.4,0.1,0.6,0l6.1-4l-0.6-1L19.4,56.4z"/>
<path class="st1" d="M51.2,30.5l3.2-0.2c0,0.7,0.2,1.4,0.5,2.1c0.7,0.7,1.8,1,2.8,0.9c0.8,0.1,1.7-0.1,2.4-0.6
	c0.5-0.3,0.7-0.9,0.7-1.4c0-0.5-0.2-0.9-0.6-1.2c-0.7-0.5-1.5-0.9-2.3-1.2c-1-0.4-1.9-0.9-2.8-1.4c-1.2-0.7-1.9-2.1-1.9-3.5
	c0-1.3,0.5-2.6,1.5-3.4c1.2-1,2.8-1.5,4.3-1.4c1.6-0.1,3.2,0.4,4.5,1.4c1.1,0.9,1.7,2.2,1.7,3.6L62,24.2c0-0.7-0.3-1.3-0.9-1.8
	c-0.6-0.4-1.4-0.7-2.1-0.6c-0.7-0.1-1.4,0.1-2,0.5c-0.4,0.3-0.6,0.8-0.6,1.2c0,0.5,0.2,0.9,0.5,1.2c0.7,0.5,1.6,1,2.4,1.3
	c1.3,0.5,2.5,1.2,3.6,2c0.8,0.8,1.2,1.8,1.2,2.9c0,1.4-0.6,2.8-1.7,3.7c-1.4,1.1-3.1,1.6-4.8,1.4c-1.2,0-2.5-0.2-3.6-0.7
	c-0.9-0.4-1.7-1.1-2.2-2C51.4,32.4,51.2,31.5,51.2,30.5z"/>
<path class="st4" d="M68.3,23.9h3L71,25.3c1-1,2.3-1.7,3.7-1.7c0.7,0,1.5,0.2,2.1,0.6c0.5,0.4,0.8,0.9,0.9,1.5
	c0.5-0.6,1.1-1.2,1.8-1.5c0.7-0.4,1.6-0.6,2.4-0.6c0.8,0,1.6,0.2,2.2,0.8c0.5,0.5,0.8,1.3,0.8,2c-0.1,0.7-0.2,1.4-0.4,2.1L83,35.7
	h-3.2l1.5-7.2c0.2-0.9,0.3-1.4,0.3-1.5c0-0.3-0.1-0.6-0.3-0.8c-0.3-0.2-0.6-0.3-0.9-0.3c-0.9,0-1.7,0.5-2.2,1.3
	c-0.6,1-1,2.1-1.2,3.2L76,35.7h-3.2l1.5-7.2c0.1-0.5,0.2-1.1,0.3-1.6c0-0.3-0.1-0.6-0.3-0.8c-0.2-0.2-0.6-0.3-0.9-0.3
	c-0.4,0-0.8,0.1-1.1,0.3c-0.4,0.2-0.7,0.5-1,0.9c-0.3,0.4-0.6,0.9-0.7,1.4c-0.1,0.3-0.2,0.9-0.5,1.8L69,35.7h-3.2L68.3,23.9z"/>
<path class="st4" d="M90.8,27.2L87.6,27c0.3-1,1-1.9,1.9-2.5c1.1-0.6,2.3-0.9,3.5-0.9c1.2-0.1,2.4,0.2,3.4,0.9
	c0.7,0.5,1.1,1.4,1.1,2.2c0,0.4,0,0.8-0.1,1.1c-0.1,0.4-0.3,1.5-0.7,3.2c-0.2,1-0.4,2-0.5,3c0,0.6,0.1,1.1,0.3,1.7h-3.1
	c-0.1-0.4-0.2-0.9-0.3-1.3c-0.5,0.5-1,0.9-1.6,1.2c-0.6,0.3-1.2,0.4-1.8,0.4c-0.9,0-1.8-0.3-2.4-1c-0.7-0.7-1-1.6-1-2.5
	c-0.1-1,0.3-2,1-2.7c1.1-0.8,2.4-1.2,3.8-1.2c1,0,2-0.2,3-0.5c0.1-0.3,0.2-0.7,0.2-1.1c0-0.3-0.1-0.7-0.4-0.9
	c-0.3-0.3-0.8-0.4-1.2-0.4c-0.5,0-0.9,0.1-1.3,0.4C91,26.5,90.8,26.9,90.8,27.2z M93.8,30.2c-0.2,0-0.4,0.1-0.8,0.1
	c-1.1,0-2.2,0.3-3.1,0.9c-0.3,0.3-0.5,0.7-0.5,1.1c0,0.4,0.1,0.7,0.4,1c0.3,0.3,0.6,0.4,1,0.4c0.5,0,1-0.1,1.4-0.4
	c0.4-0.2,0.8-0.5,1-0.9c0.3-0.6,0.5-1.1,0.6-1.8L93.8,30.2z"/>
<path class="st4" d="M101.2,23.9h3l-0.5,2.3c1.1-1.7,2.3-2.5,3.6-2.5c0.5,0,1,0.1,1.5,0.4l-1.2,2.6c-0.3-0.1-0.6-0.2-0.9-0.2
	c-0.6,0-1.2,0.2-1.6,0.6c-0.6,0.4-1,1-1.3,1.7c-0.4,1.1-0.8,2.2-1,3.3l-0.8,3.7h-3.2L101.2,23.9z"/>
<path class="st4" d="M108.6,26.3l0.5-2.4h1.6L111,22l3.7-2.2l-0.8,4.1h1.9l-0.5,2.4h-1.9l-1.1,5c-0.1,0.5-0.2,1-0.3,1.5
	c0,0.2,0.1,0.4,0.2,0.6c0.2,0.2,0.5,0.2,0.8,0.2c0.1,0,0.5,0,1-0.1l-0.5,2.4c-0.6,0.1-1.1,0.2-1.7,0.2c-0.9,0.1-1.7-0.2-2.4-0.7
	c-0.5-0.5-0.8-1.1-0.8-1.8c0.1-0.9,0.2-1.7,0.4-2.5l1-4.8L108.6,26.3z"/>
<path class="st1" d="M118.8,35.7h-3.4l3.4-16.3h7.3c1,0,2,0.1,2.9,0.4c0.7,0.3,1.3,0.8,1.7,1.4c0.4,0.8,0.7,1.6,0.6,2.5
	c0,1.3-0.4,2.5-1.2,3.4c-1,1-2.4,1.6-3.8,1.7c0.5,0.4,0.9,1,1.2,1.5c1,1.7,1.8,3.5,2.5,5.4h-3.6c-0.3-0.9-0.8-2.4-1.7-4.3
	c-0.3-0.8-0.8-1.6-1.5-2.1c-0.5-0.3-1.1-0.4-1.7-0.3h-1.4L118.8,35.7z M120.7,26.5h1.8c1.2,0.1,2.4,0,3.6-0.3c0.6-0.2,1-0.5,1.4-1
	c0.3-0.4,0.5-0.9,0.5-1.4c0-0.5-0.3-1.1-0.7-1.3c-0.6-0.2-1.3-0.3-1.9-0.3h-3.7L120.7,26.5z"/>
<path class="st4" d="M143.4,30.8h-8c0,0.1,0,0.2,0,0.3c0,0.7,0.2,1.4,0.6,1.9c0.4,0.5,1,0.7,1.6,0.7c1.1,0,2-0.7,2.5-1.6l2.9,0.5
	c-0.5,1.1-1.3,2-2.2,2.6c-0.9,0.6-2,0.9-3.1,0.9c-1.4,0.1-2.8-0.5-3.9-1.5c-1-1.1-1.6-2.5-1.5-4c0-1.6,0.5-3.1,1.4-4.3
	c1.2-1.7,3.2-2.7,5.2-2.6c1.3-0.1,2.6,0.5,3.5,1.4c0.9,1,1.4,2.4,1.3,3.8C143.6,29.5,143.5,30.1,143.4,30.8z M140.7,28.9
	c0-0.1,0-0.2,0-0.3c0.1-0.7-0.1-1.4-0.6-2c-0.4-0.4-1-0.7-1.6-0.7c-0.7,0-1.3,0.3-1.8,0.8c-0.6,0.6-0.9,1.4-1.1,2.2L140.7,28.9z"/>
<path class="st4" d="M149.1,27.2L146,27c0.3-1,1-1.9,1.9-2.5c1.1-0.6,2.3-0.9,3.5-0.9c1.2-0.1,2.4,0.2,3.4,0.9
	c0.7,0.5,1.1,1.4,1.1,2.2c0,0.4,0,0.8-0.1,1.1c-0.1,0.4-0.3,1.5-0.7,3.2c-0.2,1-0.4,2-0.5,3c0,0.6,0.1,1.1,0.3,1.7h-3.1
	c-0.2-0.4-0.2-0.9-0.3-1.3c-0.5,0.5-1,0.9-1.6,1.2c-0.6,0.2-1.2,0.4-1.9,0.3c-0.9,0-1.8-0.3-2.4-1c-0.7-0.7-1-1.6-1-2.5
	c0-1,0.3-2,1.1-2.7c1.1-0.8,2.4-1.2,3.8-1.2c1,0,2.1-0.2,3.1-0.5c0.1-0.3,0.2-0.7,0.2-1.1c0-0.3-0.1-0.7-0.4-0.9
	c-0.3-0.3-0.8-0.4-1.2-0.4c-0.5,0-0.9,0.1-1.3,0.4C149.4,26.4,149.2,26.8,149.1,27.2z M152.1,30.2c-0.2,0-0.4,0.1-0.8,0.1
	c-1.1,0-2.2,0.3-3.1,0.9c-0.6,0.5-0.7,1.3-0.2,1.9c0,0,0,0,0.1,0.1c0.3,0.3,0.7,0.4,1.1,0.4c0.5,0,0.9-0.1,1.4-0.4
	c0.4-0.2,0.8-0.5,1-0.9c0.3-0.6,0.5-1.1,0.6-1.8L152.1,30.2z"/>
<path class="st4" d="M168.2,35.7h-3l0.3-1.2c-0.5,0.5-1.1,0.9-1.7,1.2c-0.6,0.2-1.2,0.4-1.9,0.4c-1.1,0-2.2-0.4-3-1.3
	c-0.8-1.1-1.2-2.4-1.1-3.7c0-1.8,0.6-3.6,1.6-5.1c0.9-1.5,2.6-2.3,4.3-2.3c1.5-0.1,2.9,0.7,3.6,1.9l1.3-6.1h3.2L168.2,35.7z
	 M160.8,31c-0.1,0.7,0.2,1.4,0.6,2c0.4,0.5,1,0.7,1.6,0.7c0.6,0,1.2-0.2,1.6-0.6c0.6-0.5,1-1.1,1.2-1.8c0.3-0.8,0.4-1.6,0.4-2.4
	c0-0.8-0.2-1.5-0.7-2.1c-0.4-0.5-1-0.8-1.6-0.9c-1,0-1.9,0.6-2.3,1.6C161.1,28.6,160.7,29.8,160.8,31z"/>
<path class="st4" d="M173.7,23.9h3.2l-2.5,11.8h-3.2L173.7,23.9z M174.6,19.4h3.2l-0.6,2.9H174L174.6,19.4z"/>
<path class="st4" d="M180,23.9h3l-0.3,1.5c0.7-0.6,1.4-1.1,2.2-1.4c0.7-0.3,1.4-0.4,2.1-0.4c0.9,0,1.7,0.3,2.3,0.9
	c0.6,0.6,0.9,1.4,0.9,2.2c-0.1,0.8-0.2,1.6-0.4,2.4l-1.4,6.7h-3.2l1.4-6.7c0.2-1,0.3-1.6,0.4-1.8c0-0.4-0.1-0.7-0.4-1
	c-0.3-0.2-0.6-0.4-1-0.4c-0.6,0-1.1,0.2-1.6,0.6c-0.6,0.4-1.1,0.9-1.4,1.6c-0.4,0.9-0.7,1.8-0.9,2.8l-1,4.9h-3.2L180,23.9z"/>
<path class="st4" d="M191.3,36.4l3.4,0.5c0,0.3,0,0.5,0.2,0.8c0.1,0.2,0.3,0.4,0.5,0.5c0.3,0.1,0.7,0.2,1,0.2c0.6,0,1.2-0.1,1.7-0.4
	c0.4-0.2,0.6-0.6,0.8-1c0.2-0.6,0.4-1.3,0.5-1.9l0.1-0.5c-1,0.9-2.3,1.4-3.6,1.4c-1.1,0-2.1-0.4-2.8-1.2c-0.8-1-1.2-2.3-1.1-3.6
	c0-1.3,0.2-2.6,0.8-3.8c0.4-1.1,1.2-2,2.1-2.6c0.8-0.6,1.8-0.9,2.8-0.9c0.8,0,1.5,0.2,2.1,0.6c0.7,0.4,1.2,1,1.5,1.7l0.4-2.1h3
	l-1.9,9.8c-0.2,1.2-0.5,2.3-0.9,3.4c-0.2,0.6-0.5,1.1-0.8,1.6c-0.3,0.4-0.7,0.7-1.1,1c-0.5,0.3-1.1,0.5-1.6,0.6
	c-0.7,0.1-1.3,0.2-2,0.2c-1.3,0.1-2.6-0.2-3.8-0.9c-0.9-0.7-1.4-1.7-1.3-2.8C191.3,36.7,191.3,36.5,191.3,36.4z M195.1,30.6
	c0,0.7,0.2,1.4,0.6,2c0.4,0.5,0.9,0.7,1.5,0.7c0.6,0,1.2-0.2,1.6-0.6c0.6-0.5,1-1.1,1.2-1.8c0.3-0.7,0.4-1.5,0.4-2.2
	c0-0.7-0.2-1.4-0.7-2c-0.4-0.5-1-0.8-1.6-0.8c-0.6,0-1.1,0.3-1.6,0.7c-0.5,0.6-1,1.3-1.2,2.1C195.2,29.3,195.1,29.9,195.1,30.6z"/>
<path class="st4" d="M208.1,29.3h6.1l-0.6,3h-6.1L208.1,29.3z"/>
<path class="st1" d="M224.3,36.7h-3.1l-0.6-13.4L218,36.7h-3l3.4-16.1h4.7l0.5,11.3l5.5-11.3h4.8l-3.4,16.1h-3l3.2-13.3L224.3,36.7z
	"/>
<path class="st4" d="M238.2,28.3l-3.1-0.3c0.3-1,1-1.9,1.8-2.4c1-0.6,2.3-0.9,3.5-0.9c1.2-0.1,2.4,0.2,3.3,0.9
	c0.7,0.5,1.1,1.3,1.1,2.2c0,0.4,0,0.7-0.1,1.1c-0.1,0.4-0.3,1.4-0.6,3.1c-0.2,1-0.4,1.9-0.5,2.9c0,0.6,0.1,1.1,0.3,1.7h-3.1
	c-0.1-0.4-0.2-0.9-0.2-1.3c-0.4,0.5-1,0.9-1.6,1.2c-0.6,0.3-1.2,0.4-1.8,0.4c-0.9,0-1.8-0.3-2.4-1c-0.6-0.6-1-1.5-0.9-2.4
	c-0.1-1,0.3-2,1-2.7c1.1-0.8,2.4-1.2,3.7-1.2c1,0,2-0.2,3-0.5c0.1-0.3,0.2-0.7,0.2-1c0-0.3-0.1-0.6-0.4-0.9
	c-0.4-0.2-0.8-0.4-1.2-0.3c-0.5,0-0.9,0.1-1.3,0.4C238.5,27.6,238.3,27.9,238.2,28.3z M241.2,31.2c-0.2,0.1-0.5,0.1-0.8,0.1
	c-1.1,0-2.1,0.3-3.1,0.8c-0.6,0.4-0.7,1.3-0.2,1.9c0,0,0.1,0.1,0.1,0.1c0.3,0.2,0.6,0.4,1,0.4c0.5,0,0.9-0.1,1.4-0.3
	c0.4-0.2,0.7-0.5,0.9-0.9c0.3-0.5,0.5-1.1,0.6-1.7L241.2,31.2z"/>
<path class="st4" d="M248.7,25h3l-0.3,1.5c0.6-0.6,1.3-1,2.1-1.4c0.6-0.3,1.3-0.4,2-0.4c0.8,0,1.7,0.3,2.3,0.8
	c0.6,0.6,0.9,1.4,0.8,2.2c-0.1,0.8-0.2,1.6-0.4,2.3l-1.4,6.6h-3.1l1.4-6.7c0.1-0.6,0.2-1.2,0.3-1.8c0-0.4-0.1-0.7-0.4-1
	c-0.3-0.2-0.6-0.4-1-0.4c-0.6,0-1.1,0.2-1.5,0.6c-0.6,0.4-1,0.9-1.3,1.5c-0.4,0.9-0.6,1.8-0.8,2.8l-1,4.8h-3.1L248.7,25z"/>
<path class="st4" d="M270.7,36.7h-3l0.3-1.3c-0.5,0.5-1.1,0.9-1.7,1.2c-0.6,0.2-1.2,0.4-1.9,0.3c-1.1,0-2.2-0.4-2.9-1.2
	c-0.8-1-1.2-2.3-1.1-3.7c0-1.8,0.6-3.6,1.6-5c0.9-1.4,2.5-2.3,4.2-2.3c1.4-0.1,2.8,0.6,3.5,1.9l1.3-6h3.1L270.7,36.7z M263.4,31.9
	c0,0.7,0.2,1.4,0.6,1.9c0.4,0.5,1,0.7,1.5,0.7c0.6,0,1.1-0.2,1.6-0.6c0.6-0.5,1-1.1,1.2-1.8c0.3-0.7,0.4-1.5,0.4-2.3
	c0-0.7-0.2-1.4-0.7-2c-0.4-0.5-0.9-0.8-1.6-0.8c-1,0-1.9,0.6-2.3,1.5C263.7,29.6,263.4,30.8,263.4,31.9z"/>
<path class="st4" d="M278.1,28.3L275,28c0.3-1,1-1.9,1.8-2.4c1-0.6,2.3-0.9,3.5-0.9c1.2-0.1,2.4,0.2,3.3,0.9
	c0.7,0.5,1.1,1.3,1.1,2.2c0,0.4,0,0.7-0.1,1.1c-0.1,0.4-0.3,1.4-0.6,3.1c-0.2,1-0.4,1.9-0.5,2.9c0,0.6,0.1,1.1,0.3,1.7h-3.1
	c-0.1-0.4-0.2-0.9-0.2-1.3c-0.4,0.5-1,0.9-1.6,1.2c-0.6,0.3-1.2,0.4-1.8,0.4c-0.9,0-1.8-0.3-2.4-1c-0.6-0.6-1-1.5-1-2.4
	c-0.1-1,0.3-2,1-2.7c1.1-0.8,2.4-1.2,3.7-1.2c1,0,2-0.2,3-0.5c0.1-0.3,0.2-0.7,0.2-1c0-0.3-0.1-0.6-0.4-0.9
	c-0.4-0.2-0.8-0.4-1.2-0.3c-0.5,0-0.9,0.1-1.3,0.4C278.4,27.6,278.2,27.9,278.1,28.3z M281.1,31.2c-0.2,0.1-0.5,0.1-0.8,0.1
	c-1.1,0-2.1,0.3-3.1,0.8c-0.3,0.2-0.5,0.6-0.5,1.1c0,0.4,0.1,0.7,0.4,0.9c0.3,0.2,0.6,0.4,1,0.4c0.5,0,0.9-0.1,1.4-0.3
	c0.4-0.2,0.7-0.5,0.9-0.9c0.3-0.5,0.5-1.1,0.5-1.7L281.1,31.2z"/>
<path class="st4" d="M288.4,25h2.9l-0.5,2.3c1.1-1.7,2.3-2.5,3.6-2.5c0.5,0,1,0.1,1.5,0.3l-1.2,2.6c-0.3-0.1-0.6-0.2-0.9-0.1
	c-0.6,0-1.2,0.2-1.6,0.6c-0.6,0.4-1,1-1.3,1.6c-0.4,1.1-0.7,2.1-0.9,3.3l-0.8,3.7H286L288.4,25z"/>
<path class="st4" d="M297.4,25h3.1l-2.4,11.7h-3.1L297.4,25z M298.3,20.6h3.1l-0.6,2.9h-3.1L298.3,20.6z"/>
<path class="st4" d="M303.6,25h3l-0.3,1.5c0.6-0.6,1.3-1,2.1-1.4c0.6-0.3,1.3-0.4,2-0.4c0.8,0,1.7,0.3,2.3,0.8
	c0.6,0.6,0.9,1.4,0.8,2.2c-0.1,0.8-0.2,1.6-0.4,2.3l-1.4,6.6h-3.1L310,30c0.1-0.6,0.2-1.2,0.3-1.8c0-0.4-0.1-0.7-0.4-1
	c-0.3-0.2-0.6-0.4-1-0.4c-0.6,0-1.1,0.2-1.5,0.6c-0.6,0.4-1,0.9-1.3,1.5c-0.4,0.9-0.6,1.8-0.8,2.8l-1,4.8h-3.1L303.6,25z"/>
<path class="st6" d="M208.6,41.3c0,1.5-1.2,2.7-2.7,2.7s-2.7-1.2-2.7-2.7s1.2-2.7,2.7-2.7l0,0C207.4,38.6,208.6,39.8,208.6,41.3z
	 M205.9,38.1c-1.7,0-3.2,1.4-3.2,3.1c0,1.7,1.4,3.2,3.1,3.2c1.7,0,3.2-1.4,3.2-3.1c0,0,0,0,0,0C209.1,39.6,207.7,38.1,205.9,38.1z"
	/>
<path class="st6" d="M204.5,43.1v-3.7h1.6c0.3,0,0.5,0,0.8,0.1c0.2,0.1,0.3,0.2,0.4,0.3c0.1,0.2,0.2,0.4,0.2,0.6
	c0,0.2-0.1,0.5-0.3,0.7c-0.2,0.2-0.5,0.3-0.8,0.3c0.1,0,0.2,0.1,0.3,0.2c0.2,0.1,0.3,0.3,0.4,0.5l0.6,1h-0.6l-0.5-0.8
	c-0.1-0.2-0.2-0.3-0.4-0.5c-0.1-0.1-0.1-0.2-0.2-0.2c-0.1,0-0.1-0.1-0.2-0.1h-0.3H205v1.6L204.5,43.1z M205,41.1h1
	c0.2,0,0.4,0,0.5-0.1c0.1,0,0.2-0.1,0.3-0.2c0.1-0.1,0.1-0.2,0.1-0.3c0-0.2-0.1-0.3-0.2-0.4c-0.2-0.1-0.4-0.2-0.6-0.2H205L205,41.1z
	"/>
<g>
	<g>
		<path class="st1" d="M54.2,50.5c0.4-0.6,0.7-1.4,1-2.3l0-0.8h-2.1c0.9-1.1,1.6-1.9,2.1-2.5l0,0V44h-3.7v0.9h2.5
			c-0.9,1.1-1.6,2-2.2,2.6l0,0v0.8h2.4c-0.5,1.6-1.5,3-2.9,4.1l-0.1,0.1l0.7,0.7l0.1-0.1c0.6-0.5,1.1-1.1,1.7-1.8
			c0.9,1,2.5,1.5,4.6,1.5h5.1l0.2-0.9h-5C56.5,51.9,55,51.4,54.2,50.5z"/>
		<path class="st1" d="M59,46.8h-2.7v4h6.3v-4h-2.6v-1.5h3.3v-0.9h-3.3v-1.8c1-0.1,1.8-0.3,2.6-0.6l0.1,0l-0.5-0.9l-0.1,0
			c-1.8,0.5-3.9,0.8-6,0.9l-0.2,0l0.3,0.9l0.1,0c0.9,0,1.8-0.1,2.7-0.2v1.6h-3.3v0.9H59V46.8z M57.3,49.8v-2.1h4.3v2.1H57.3z"/>
		<path class="st1" d="M53.8,43.7l0.1,0.1l0.7-0.6l-0.1-0.1c-0.5-0.7-1.1-1.3-1.9-2L52.6,41l-0.7,0.6l0.1,0.1
			C52.8,42.4,53.4,43.1,53.8,43.7z"/>
	</g>
	<g>
		<path class="st1" d="M66.3,44c-0.1,1.1-0.4,2.2-0.7,3.2l0,0.1l0.9,0.3l0-0.1c0.3-0.9,0.5-2,0.7-3.3l0-0.1l-1-0.1L66.3,44z"/>
		<path class="st1" d="M70.1,45.3c-0.5-0.5-1-1-1.5-1.5V41h-0.9V53h0.9v-8c0.3,0.3,0.6,0.6,0.9,0.9l0.1,0.1L70.1,45.3L70.1,45.3z"/>
		<path class="st1" d="M74.4,48.5h2.7v-0.9h-2.7v-2.8h3v-1h-3V41h-1v2.9H72c0.2-0.5,0.3-1.1,0.4-1.8l0-0.1l-0.9-0.2l0,0.1
			c-0.3,1.6-0.8,3.1-1.7,4.7l-0.1,0.1l0.8,0.5l0.1-0.1c0.4-0.6,0.8-1.4,1.2-2.3h1.8v2.8h-3.1v0.9h3.1v3.3h-3.8v0.9h8v-0.9h-3.2V48.5
			z"/>
	</g>
	<g>
		<path class="st1" d="M89.9,51.1c0.1-0.3,0.2-0.7,0.2-1.2l0-0.1l-0.9-0.3l0,0.2c0,0.9-0.1,1.1-0.2,1.2c0,0-0.2,0.2-0.9,0.2
			c-0.5,0-0.6,0-0.6,0c0,0,0,0,0,0v-2.3h1.7v-3.7h-1.7c0.3-0.4,0.7-0.9,1.2-1.5l0.1-0.1L88,42.7l-0.1,0.1c-0.4,0.6-0.9,1.2-1.5,1.8
			l-0.1,0.1l0.2,0.2h-1.3l0.2-0.1l-0.1-0.1c-0.4-0.7-0.8-1.4-1.3-1.9l-0.1-0.1l-0.8,0.5l0.1,0.1c0.3,0.3,0.6,0.8,1.1,1.6h-2v3.7h1.7
			c0,0.5-0.3,1-0.7,1.5c-0.4,0.5-1.1,0.9-1.8,1.3l-0.1,0.1l0.5,0.7l0.1,0c1.9-0.8,2.9-1.9,3-3.5h1.5V51c0,0.2,0.1,0.3,0.2,0.5
			c0.1,0.2,0.3,0.3,0.6,0.3c0.2,0,0.5,0,0.8,0c0.6,0,1-0.1,1.2-0.2C89.6,51.6,89.8,51.4,89.9,51.1z M88.3,45.7v2h-4.9v-2H88.3z"/>
		<path class="st1" d="M83.4,42.2h7v9.6c0,0.1,0,0.2-0.1,0.3c0,0-0.2,0.1-0.7,0.1c-0.3,0-0.6,0-0.8,0l-0.2,0l0.2,0.9l0.1,0
			c0.3,0,0.5,0,0.8,0c0.6,0,1-0.1,1.3-0.3c0.2-0.2,0.4-0.5,0.4-0.9V41.3h-7.9V42.2z"/>
		<path class="st1" d="M82.1,43.2L82.1,43.2l0.8-0.5l-0.1-0.1c-0.6-0.6-1.2-1.2-1.8-1.7l-0.1-0.1l-0.7,0.6l0.1,0.1
			C81,42,81.6,42.6,82.1,43.2z"/>
		<rect x="80.4" y="43.4" class="st1" width="0.9" height="9.6"/>
	</g>
	<g>
		<path class="st1" d="M97.8,46.6l-0.6,0.7l0.1,0.1c1,0.5,1.9,1,2.7,1.5l0.1,0.1l0.5-0.7l-0.1-0.1C99.7,47.6,98.8,47.1,97.8,46.6
			L97.8,46.6z"/>
		<path class="st1" d="M104.3,46.5l0,0.1l0.9,0.3l0-0.1c0.3-0.8,0.5-1.6,0.7-2.4l0-0.1H102v-1.1h3.4v-0.9H102V41h-0.9v1.4h-3.4v0.9
			h3.4v1.1h-3.9v0.9h7.5C104.6,45.7,104.4,46.1,104.3,46.5z"/>
		<path class="st1" d="M101.1,47.6l0.5-0.7l-0.1-0.1c-0.9-0.6-1.8-1.1-2.7-1.5l-0.1,0L98.3,46l0.1,0.1
			C99.5,46.5,100.3,47,101.1,47.6L101.1,47.6z"/>
		<path class="st1" d="M105.9,49.8v-0.9h-3.1c0.2-0.8,0.3-1.9,0.3-3.3v-0.1l-0.9,0l0,0.1c0,1.5-0.1,2.6-0.4,3.3h-4.7v0.9h4.2
			c-0.8,1.1-2.2,2-4.3,2.5l-0.1,0l0.4,0.9l0.1,0c2.5-0.7,4.1-1.8,5-3.4H105.9z"/>
		<path class="st1" d="M106,52.5c-1-0.9-2-1.7-3.1-2.3l-0.1-0.1l-0.6,0.7l0.1,0.1c1,0.7,2,1.4,3,2.3l0.1,0.1L106,52.5L106,52.5z"/>
		<path class="st1" d="M97.9,50.7l-0.5-0.8l-0.1,0.1c-0.3,0.3-0.6,0.6-1,0.8v-6.1h-2.4v0.9h1.4v5.5c0,0.3,0,0.4-0.1,0.5l0,0.1
			l0.5,0.8l0.1-0.1C96.6,51.8,97.2,51.3,97.9,50.7L97.9,50.7z"/>
		<path class="st1" d="M96.1,43.8l0.1,0.1l0.8-0.5L97,43.3c-0.5-0.8-1.1-1.6-1.7-2.2L95.2,41l-0.8,0.5l0.1,0.1
			C95.2,42.4,95.7,43.1,96.1,43.8z"/>
	</g>
</g>
</svg>
