<?xml version="1.0" encoding="UTF-8"?>
<svg id="_圖層_2" data-name="圖層 2" xmlns="http://www.w3.org/2000/svg" viewBox="0 0 223.59 200.29">
  <defs>
    <style>
      .cls-1 {
        fill: #24345d;
      }

      .cls-2 {
        fill: #dcdbd6;
      }

      .cls-3 {
        fill: #324676;
      }

      .cls-4 {
        fill: #9fa0a0;
      }

      .cls-5 {
        fill: #4dbdbd;
      }
    </style>
  </defs>
  <g id="_圖層_1-2" data-name="圖層 1">
    <g>
      <path class="cls-3" d="M54.87,85.39c-1.86-.7-3.52-1.72-4.92-2.99-3.23-2.91-5.13-7.1-5.01-11.51.13-4.47,2.33-8.62,5.84-11.34.99-.77,2.09-1.43,3.28-1.95,9.68,14.15.81,27.79.81,27.79Z"/>
      <path class="cls-1" d="M54.87,85.39c-1.86-.7-3.52-1.72-4.92-2.99.32-3.45.57-7.08.72-10.88.16-4.19.19-8.18.11-11.97.99-.77,2.09-1.43,3.28-1.95.27,9.26.54,18.53.81,27.79Z"/>
    </g>
    <g>
      <path class="cls-5" d="M3.49,169.01c-.55-.89-1.11-1.81-1.69-2.75-.58-.94-1.18-1.86-1.8-2.75.57-.52,1.29-.78,2.16-.78.57,0,1.34.12,2.32.37.98.25,1.96.66,2.94,1.23.98.57,1.89,1.2,2.73,1.88.84.68,1.39,1.07,1.65,1.17.26.1.71.22,1.36.37l1.04.11c1.96,0,3.35-.59,4.16-1.78.82-1.19,1.23-2.21,1.23-3.05,0-1.12-.64-2.15-1.93-3.11-1.29-.95-3.32-1.85-6.1-2.7l-4.31-1.26c-.4-.15-.78-.31-1.15-.48-.37-.17-.84-.46-1.41-.85-1.29-.82-2.21-1.76-2.75-2.83-.54-1.07-.82-2.35-.82-3.87,0-.92.19-1.75.58-2.49.38-.74.93-1.43,1.64-2.06.71-.63,1.53-1.12,2.46-1.45.93-.34,2.12-.56,3.56-.69.47,0,.95,0,1.44.02.49.01,1.26.11,2.33.28l2.02.34.86.11c.15.02.48.05.99.07.51.02.8.04.88.04.47,0,1.05-.1,1.72-.3l3.31,5.2c-.65.37-1.34.56-2.08.56-.57,0-1.26-.14-2.08-.43l-.74-.35h-.11l-3.16-2.19c-1.46-.99-2.8-1.49-4.02-1.49-.35,0-.69.05-1.02.15-.33.1-.83.35-1.49.76-.66.41-.99,1.18-.99,2.32,0,1.02.31,1.77.93,2.25.62.48,1.3.86,2.03,1.13.73.27,1.48.52,2.25.74l3.24.97c2.7.82,4.62,1.6,5.76,2.34,1.14.74,1.99,1.7,2.56,2.86.57,1.17.92,2.23,1.04,3.2,0,1.41-.12,2.58-.37,3.51-.25.93-.71,1.83-1.39,2.69-.68.87-1.39,1.53-2.12,1.97-.73.45-1.57.81-2.53,1.1-.95.29-1.91.44-2.88.46-.97.03-1.78.04-2.45.04-.54,0-1.08-.04-1.62-.13-.53-.09-1.39-.28-2.58-.58l-.93-.19c-.84-.17-1.59-.26-2.23-.26-.82,0-1.62.19-2.42.56Z"/>
      <path class="cls-3" d="M26.92,151.83c-.22-.45-.5-.87-.82-1.26,1.09,0,2.31-.21,3.66-.62,1.35-.41,2.61-.83,3.77-1.25v2.46c.99-1.1,2-1.79,3.01-2.06,1.02-.27,1.82-.4,2.42-.4,1.21,0,2.39.59,3.53,1.77l.52.58.93-.85c1.39-1,2.77-1.5,4.16-1.5.3,0,.81.05,1.53.15.72.1,1.43.47,2.14,1.1.71.63,1.06,1.38,1.06,2.22v13.59c0,.32.06.68.19,1.08.12.4.33.82.63,1.27l.52.67h-8.4c.6-.86.89-1.85.89-2.96v-11.36c0-.48-.19-.96-.56-1.44l-.41-.36c-.27-.16-.54-.24-.82-.24-.64,0-1.07.2-1.26.6-.2.4-.32.71-.37.93-.05.22-.07.56-.07,1.01v10.94c0,1.17.3,2.13.89,2.88h-7.96c.3-.37.53-.8.69-1.28.16-.48.24-.92.24-1.32v-12.08c0-.47-.17-.87-.52-1.19-.35-.32-.77-.48-1.26-.48s-.87.19-1.21.58c-.33.39-.5.87-.5,1.47v11.82c0,.67.15,1.3.45,1.9l.37.59h-8.18c.32-.35.61-.8.85-1.37.25-.57.37-1.09.37-1.56v-12.79c0-.07-.02-.18-.06-.32-.04-.14-.18-.44-.43-.91Z"/>
      <path class="cls-3" d="M64.28,155.25l.82-.22-.15-.97c-.22-1.21-1.09-1.82-2.6-1.82-.67,0-1.4.13-2.18.39-.78.26-1.66.7-2.62,1.32l-.67.41c.1-.79.36-1.51.78-2.16.42-.64.95-1.19,1.6-1.63.64-.45,1.19-.76,1.64-.95.45-.19,1.08-.37,1.9-.56.82-.19,1.63-.28,2.45-.28,1.81,0,3.22.52,4.24,1.56,1.02,1.04,1.65,2.56,1.9,4.57l1.34,11.45c.05.4.2.82.46,1.26.26.45.6.83,1.02,1.15h-7.4l-.15-1.08c-.25.15-.46.29-.65.41-.19.12-.71.36-1.56.71-.86.35-1.88.52-3.07.52-1.41,0-2.62-.39-3.62-1.17-1-.78-1.63-1.65-1.88-2.62-.25-.97-.37-1.71-.37-2.23,0-1.02.22-1.91.65-2.68.43-.77.94-1.43,1.51-1.99.57-.56,1.21-1.06,1.93-1.51.72-.45,1.41-.8,2.06-1.06.66-.26,1.53-.54,2.62-.84ZM65.27,156.37c-.65.4-1.18.84-1.59,1.34-.41.5-.8,1.17-1.16,2.01-.36.84-.54,1.61-.54,2.31v.86c0,1.17.25,2.12.76,2.86.51.74,1.18,1.12,2.03,1.12.72,0,1.29-.3,1.71-.89l-1.2-9.59Z"/>
      <path class="cls-3" d="M74.91,151.8l-.71-.75,1.82-.55,1.86-.59,1.9-.59,1.9-.62v3.5l.56-.78c.72-.92,1.33-1.54,1.84-1.88.51-.33.97-.53,1.38-.59.41-.06.74-.09.99-.09,1.02,0,1.83.33,2.43.99.61.66.91,1.53.91,2.62,0,.97-.25,1.72-.74,2.25-.5.53-1.15.8-1.97.8-.57,0-1.18-.14-1.82-.42-.64-.28-1.18-.65-1.6-1.11-.32-.05-.66.04-1,.26-.35.22-.67.47-.97.74v11.49c0,.67.19,1.19.56,1.56.37.37.67.62.89.74h-8.92l.52-.56c.52-.72.78-1.38.78-1.97v-12.67c0-.65-.2-1.24-.59-1.79Z"/>
      <path class="cls-3" d="M91.12,152.2h-2.01c2.26-1.69,4.29-3.41,6.1-5.17l2.04-2.05v4.8h3.24v2.42h-3.24v12.68c0,1.04.61,1.56,1.82,1.56.27,0,.56-.04.86-.11l.97-.34.48-.26c-.17.73-.5,1.38-.97,1.93-.47.56-1.03.99-1.66,1.29-.63.3-1.06.49-1.29.55-.22.06-.46.1-.71.1h-1.04c-2.64,0-4.17-1.24-4.59-3.72v-13.68Z"/>
      <path class="cls-5" d="M103.8,148.26c-.6.25-1.24.37-1.93.37-.47,0-.98-.1-1.52-.3.45-.72.82-1.41,1.12-2.08.3-.67.72-1.79,1.26-3.35l.71-1.97c.35.2.74.37,1.17.52.43.15.98.28,1.64.39.66.11,1.17.17,1.54.17h10.26c1.09,0,1.77-.01,2.04-.04.27-.03.67-.12,1.19-.29.52-.17.88-.28,1.08-.35.2-.06.52-.2.97-.4l.26,1.08c.72,2.59,1.57,4.71,2.56,6.36-.5.1-1.04.15-1.64.15-.37,0-.89-.06-1.54-.19-.66-.12-1.28-.38-1.86-.76-.58-.38-1.27-1.07-2.06-2.06l-.33-.45c-.32-.45-.59-.76-.82-.95-.22-.19-.47-.28-.74-.28-.2,0-.41.05-.63.15v21.83c0,.25.04.49.13.72.09.24.28.59.58,1.06.3.47.72.87,1.26,1.19h-10.63c.65-.42,1.13-.94,1.47-1.56.34-.62.5-1.23.5-1.82v-21.41c-.6,0-1.09.14-1.49.41-.4.27-1.18,1.02-2.34,2.23l-.74.78c-.07.1-.26.24-.56.41-.3.17-.6.32-.89.45Z"/>
      <path class="cls-3" d="M135.22,155.25l.82-.22-.15-.97c-.22-1.21-1.09-1.82-2.6-1.82-.67,0-1.39.13-2.17.39-.78.26-1.66.7-2.62,1.32l-.67.41c.1-.79.36-1.51.78-2.16.42-.64.95-1.19,1.6-1.63.64-.45,1.19-.76,1.64-.95.45-.19,1.08-.37,1.9-.56.82-.19,1.64-.28,2.46-.28,1.81,0,3.22.52,4.24,1.56,1.02,1.04,1.65,2.56,1.9,4.57l1.34,11.45c.05.4.2.82.46,1.26.26.45.6.83,1.02,1.15h-7.4l-.15-1.08c-.25.15-.46.29-.65.41-.19.12-.71.36-1.56.71-.85.35-1.88.52-3.07.52-1.41,0-2.62-.39-3.62-1.17-1-.78-1.63-1.65-1.88-2.62-.25-.97-.37-1.71-.37-2.23,0-1.02.22-1.91.65-2.68.43-.77.94-1.43,1.51-1.99.57-.56,1.21-1.06,1.93-1.51.72-.45,1.41-.8,2.06-1.06.66-.26,1.53-.54,2.62-.84ZM136.21,156.37c-.65.4-1.18.84-1.59,1.34-.41.5-.8,1.17-1.16,2.01-.36.84-.54,1.61-.54,2.31v.86c0,1.17.25,2.12.76,2.86.51.74,1.18,1.12,2.03,1.12.72,0,1.29-.3,1.71-.89l-1.2-9.59Z"/>
      <path class="cls-3" d="M153.99,168.79h-8.85c.47-.49.81-1.08,1.02-1.75.21-.67.32-1.55.32-2.64v-19.26c0-1.29-.43-2.16-1.3-2.6,1.98,0,3.92-.36,5.8-1.08l1.67-.78v24.83c0,1.46.45,2.55,1.34,3.27Z"/>
      <path class="cls-3" d="M163.7,168.79h-8.66c.87-.84,1.3-1.95,1.3-3.31v-19.89c0-.32-.03-.61-.09-.86-.06-.25-.18-.56-.35-.95-.17-.38-.46-.8-.86-1.25.72,0,1.74-.09,3.07-.26,1.32-.17,2.79-.71,4.41-1.61v17.57l3.99-4.95c.24-.32.36-.71.36-1.16,0-.57-.2-1.22-.59-1.94l-.26-.41h8.29c-.52.27-.93.56-1.22.86l-.07.08-.93,1-4.31,4.65,5.21,9.85c.37.74.61,1.2.72,1.38.11.17.35.42.72.74l.56.45h-9.18l.33-.41c.25-.4.37-.79.37-1.19,0-.2-.04-.4-.11-.59l-2.83-6.43-1.04,1.3v4.65c0,.45.1.9.32,1.36.21.46.5.9.87,1.32Z"/>
      <path class="cls-3" d="M184.03,168.79h-8.81l.6-.63c.5-.72.74-1.45.74-2.19v-13.05c0-1.04-.43-1.82-1.3-2.34,1.07,0,2.28-.21,3.64-.61,1.36-.41,2.63-.82,3.79-1.25v17.29c0,.42.16.92.46,1.49.31.57.5.9.56.98.06.09.17.19.32.32ZM179.5,147.19c-1.04,0-1.92-.29-2.62-.88-.71-.58-1.06-1.32-1.06-2.21,0-.99.31-1.81.93-2.46.62-.64,1.49-.96,2.6-.96s2.05.29,2.66.87c.61.58.91,1.41.91,2.47,0,.89-.32,1.64-.95,2.25-.63.61-1.46.91-2.47.91Z"/>
      <path class="cls-3" d="M193.36,168.79h-8.29l.63-.52c.47-.54.71-1.15.71-1.82v-13.72c0-.25-.07-.52-.21-.82-.14-.3-.34-.59-.61-.89l-.45-.41c1.09,0,2.3-.2,3.64-.62,1.34-.41,2.59-.84,3.75-1.29v2.02l.67-.45c1.44-.97,2.69-1.45,3.76-1.45,1.69,0,2.94.34,3.77,1.02.83.68,1.31,1.78,1.43,3.29v11.41c0,.52.07,1.05.22,1.58.15.53.42,1.22.82,2.06l.3.59h-8.29l.41-.74c.27-.57.41-1.03.41-1.38v-13.24c0-.82-.52-1.23-1.56-1.23-.3,0-.6.04-.91.11-.31.07-.56.3-.74.69-.19.39-.28,1-.28,1.84v12.94c0,.4.27.73.82,1Z"/>
      <path class="cls-3" d="M221.14,149.71c.45-.07.88-.23,1.3-.48l-.19.6c-.02.07-.11.46-.24,1.15-.14.7-.21,1.14-.21,1.34v13.46l.89,1.45c.59.97.89,1.88.89,2.75,0,.94-.35,1.78-1.04,2.53-.69.74-1.6,1.33-2.73,1.75-1.13.42-2.19.73-3.19.93-1,.2-2.05.3-3.13.3-3.51,0-5.57-.12-6.16-.35-.59-.24-1.02-.43-1.28-.59-.26-.16-.53-.39-.82-.67-.28-.29-.43-.67-.43-1.17,0-.72.26-1.2.78-1.43.52-.23.95-.35,1.3-.35.25,0,.52.02.83.08.31.05.8.28,1.48.69.68.41,1.29.79,1.83,1.15.54.36.92.57,1.13.63.21.06.55.09,1.02.09.27,0,.56-.01.85-.04.3-.03.71-.12,1.24-.28.53-.16,1.02-.53,1.46-1.1.45-.57.67-1.14.67-1.71,0-.25-.06-.47-.19-.67l-.56-.78-.71-.93-.15-.22-.37-.48c-.79,1.02-1.58,1.6-2.36,1.75-.78.15-1.32.22-1.62.22-1.64,0-3.09-.75-4.35-2.25-1.26-1.5-1.96-2.96-2.1-4.39-.14-1.43-.2-2.22-.2-2.38v-.35c0-.22.01-.48.04-.76.02-.28.08-.89.17-1.82.09-.93.52-2.1,1.3-3.51.78-1.41,1.66-2.46,2.64-3.14.98-.68,1.92-1.14,2.83-1.38.9-.24,2-.35,3.29-.35.79,0,1.78.15,2.95.45,1.18.3,1.87.45,2.06.45h.41c.27-.07.48-.12.63-.15ZM215.63,153.21c0-.22-.1-.55-.3-.97l-.37-.52c-.3-.37-.69-.56-1.19-.56-.69,0-1.19.27-1.49.8-.3.53-.5.98-.59,1.34-.1.36-.19.86-.28,1.51-.09.64-.13,1.49-.13,2.53,0,2.41.16,4.16.48,5.28.32,1.12.79,1.92,1.41,2.42.37.25.7.37,1,.37.52,0,.88-.17,1.08-.52.2-.35.31-.71.34-1.08.02-.37.04-.78.04-1.23v-9.37Z"/>
    </g>
    <g>
      <path class="cls-3" d="M11.66,200.25c-.63,0-.94-.31-.94-.94v-5.3h-5.57c-.38,0-.69-.12-.92-.35-.24-.24-.35-.54-.35-.92v-5.77c0-.38.12-.69.35-.92.24-.24.54-.35.92-.35h5.57v-2.47c0-.63.31-.94.94-.94s.94.31.94.94v2.47h5.65c.38,0,.69.12.92.35.24.23.35.54.35.92v5.77c0,.38-.12.69-.35.92-.24.24-.54.35-.92.35h-5.65v5.3c0,.63-.31.94-.94.94ZM6.14,192.22h4.57v-4.75h-4.57c-.31,0-.47.16-.47.47v3.81c0,.31.16.47.47.47ZM12.6,192.22h4.57c.31,0,.47-.16.47-.47v-3.81c0-.31-.16-.47-.47-.47h-4.57v4.75Z"/>
      <path class="cls-3" d="M30.85,199.54c-.43-.68-.18-1.16.75-1.45,2.39-.78,4.42-1.86,6.08-3.22-1.83-2.03-3.29-4.57-4.38-7.63h-1.94c-.59,0-.88-.29-.88-.88s.29-.88.88-.88h6.87v-2.3c0-.61.31-.92.94-.92s.92.31.92.92v2.3h6.97c.59,0,.88.29.88.88s-.29.88-.88.88h-2c-1.09,3.04-2.58,5.56-4.5,7.58,1.69,1.41,3.72,2.49,6.08,3.24,1.02.27,1.27.79.75,1.53-.33.47-.82.61-1.47.41-2.68-.85-4.97-2.11-6.87-3.77-1.82,1.53-4.05,2.77-6.69,3.73-.69.24-1.2.1-1.51-.41ZM39.16,193.52c1.62-1.69,2.89-3.78,3.79-6.28h-7.65c.93,2.47,2.22,4.57,3.87,6.28Z"/>
      <path class="cls-3" d="M58.43,192.16c-.24-.25-.27-.51-.1-.79.13-.21.39-.41.77-.59,1.16-.68,1.95-1.5,2.35-2.47h-2.81c-.48,0-.73-.24-.73-.73s.24-.73.73-.73h.61c-.05-.03-.14-.09-.27-.18-.21-.13-.37-.23-.47-.29-.18-.1-.29-.24-.32-.4-.03-.16.02-.32.17-.48.63-.82,1.1-1.68,1.41-2.57.16-.51.49-.71,1-.61.58.12.77.45.59,1-.05.16-.11.31-.18.47h4.3c.48,0,.73.24.73.73s-.24.73-.73.73h-1.94v1.02c0,.26,0,.46-.02.59h2.45c.48,0,.73.24.73.73s-.24.73-.73.73h-2.73l-.06.18c.62.31,1.56.86,2.83,1.63.26.17.38.33.35.49-.03.13-.16.32-.41.57-.21.2-.39.31-.53.33-.16.04-.33-.02-.53-.18-.9-.68-1.66-1.23-2.28-1.65-.64.98-1.61,1.83-2.9,2.55-.55.26-.98.24-1.28-.08ZM59.75,186.86h2.06v-1.61h-1.35c-.17.33-.35.62-.53.86-.1.16-.21.3-.31.43-.17.21-.12.31.14.31ZM61.9,199.56c-.38,0-.69-.12-.92-.35-.24-.24-.35-.54-.35-.92v-4.85c0-.38.12-.69.35-.92.24-.24.54-.35.92-.35h9.64c.38,0,.69.12.92.35.24.24.35.54.35.92v4.85c0,.38-.12.69-.35.92-.24.24-.54.35-.92.35h-9.64ZM62.41,195.15h8.56v-1.06c0-.31-.16-.47-.47-.47h-7.62c-.31,0-.47.16-.47.47v1.06ZM62.89,198.09h7.62c.31,0,.47-.16.47-.47v-1.1h-8.56v1.1c0,.31.16.47.47.47ZM68.71,190.79c-.38,0-.69-.12-.92-.35-.24-.24-.35-.54-.35-.92v-4.46c0-.38.12-.69.35-.92s.54-.35.92-.35h4.46c.38,0,.69.12.92.35.24.24.35.54.35.92v4.46c0,.38-.12.69-.35.92-.24.24-.54.35-.92.35h-4.46ZM69.6,189.18h2.59c.31,0,.47-.16.47-.47v-2.85c0-.31-.16-.47-.47-.47h-2.59c-.31,0-.47.16-.47.47v2.85c0,.31.16.47.47.47Z"/>
      <path class="cls-3" d="M92.82,187.84s-.03-.09-.06-.15c-.03-.06-.05-.1-.06-.13-1.1.07-2.7.16-4.79.29-.84.05-1.45.09-1.83.12-.27.01-.47-.05-.59-.18-.1-.12-.17-.33-.2-.63-.07-.61.19-.93.77-.94h.29c.14-.01.26-.02.33-.02.5-.99.95-2.07,1.35-3.22.16-.54.53-.74,1.12-.61.69.16.89.56.59,1.22-.31.76-.71,1.6-1.18,2.53l1.65-.08,1.67-.08c-.26-.47-.46-.82-.61-1.04-.33-.51-.2-.88.39-1.1.43-.17.77-.07,1.02.29.84,1.26,1.44,2.33,1.81,3.22.09.25.09.45,0,.59-.09.13-.27.25-.53.37-.56.24-.95.08-1.16-.47ZM87.2,200.23c-.56,0-.84-.28-.84-.84v-8.91c0-.38.12-.69.35-.92.24-.24.54-.35.92-.35h4.49c.38,0,.69.12.92.35.24.24.35.54.35.92v7.81c0,.45-.05.79-.16,1.04-.11.25-.29.44-.57.59-.35.16-.92.25-1.71.28-.61.03-1.01-.18-1.18-.63-.25-.67.09-.99,1.02-.96.09,0,.21,0,.35-.02h.14c.21,0,.31-.1.31-.31v-1.86h-3.57v2.98c0,.56-.28.84-.84.84ZM88.05,192.12h3.57v-.92c0-.31-.16-.47-.47-.47h-2.63c-.31,0-.47.16-.47.47v.92ZM88.05,195.01h3.57v-1.49h-3.57v1.49ZM97.62,190.87c-1.01,0-1.68-.16-2.02-.48-.34-.32-.51-.95-.51-1.89v-5.3c0-.6.3-.9.9-.9s.9.3.9.9v2.16c1.39-.51,2.55-.99,3.49-1.45.38-.2.73-.1,1.04.27.44.51.38.89-.2,1.14-1.19.51-2.64,1.02-4.34,1.53v1.63c0,.33.06.54.17.63.11.09.37.14.77.14h2.65c.33,0,.54-.11.65-.33.05-.48.18-.86.37-1.12.22-.34.5-.44.84-.29.22.09.37.31.45.67.07.27.08.58.04.92-.14.68-.39,1.15-.73,1.41-.31.25-.8.37-1.47.37h-3.02ZM97.64,200.09c-1.01,0-1.68-.16-2.03-.49-.35-.33-.52-.95-.52-1.86v-5.5c0-.59.3-.88.9-.88s.88.29.88.88v2.02c1.48-.52,2.7-1.06,3.65-1.61.39-.24.77-.16,1.12.24.43.5.38.89-.16,1.18-1.13.55-2.66,1.12-4.61,1.71v1.94c0,.33.06.54.19.64.12.1.4.15.81.15h2.75c.41,0,.67-.2.78-.59.05-.48.16-.87.33-1.16.21-.35.48-.46.8-.31.21.09.36.31.45.67.07.29.08.59.04.9-.14.8-.38,1.34-.71,1.64-.33.29-.84.44-1.55.44h-3.14Z"/>
      <path class="cls-3" d="M115.56,198.21c-.38,0-.69-.12-.92-.35-.24-.24-.35-.54-.35-.92v-11.44c0-.38.12-.69.35-.92s.54-.35.92-.35h12.15c.38,0,.69.12.92.35s.35.54.35.92v11.44c0,.38-.12.69-.35.92-.24.24-.54.35-.92.35h-12.15ZM116.62,196.34h9.93c.31,0,.47-.16.47-.47v-9.34c0-.31-.16-.47-.47-.47h-9.93c-.31,0-.47.16-.47.47v9.34c0,.31.16.47.47.47Z"/>
      <path class="cls-3" d="M140.88,186.94c-.48,0-.73-.24-.73-.73s.24-.73.73-.73h5.79c.48,0,.73.24.73.73s-.24.73-.73.73h-5.79ZM146.69,199.29s-.01-.03-.03-.05c-.02-.02-.04-.04-.05-.05h-4.32c-.38,0-.69-.12-.92-.35-.24-.24-.35-.54-.35-.92v-3.22c0-.38.12-.69.35-.92.24-.24.54-.35.92-.35h3.18c.38,0,.69.12.92.35.24.24.35.54.35.92v3.98c1.12-.5,1.92-1.21,2.39-2.14.38-.72.62-1.78.73-3.18h-.79c-.44,0-.67-.22-.67-.67v-3.75s-.07.07-.12.13c-.05.06-.09.1-.1.11-.07.09-.14.1-.24.04-.41-.38-.82-.68-1.24-.9v.69c0,.38-.19.57-.57.57h-4.42c-.47,0-.71-.24-.71-.71s.24-.71.71-.71h4.99v.1c.8-.75,1.48-1.77,2.04-3.08.21-.5.58-.68,1.12-.55.63.16.82.53.57,1.12-.34.72-.66,1.31-.96,1.79h6.14c-.6-.85-1.15-1.86-1.65-3.04h-3.02c-.55,0-.82-.28-.82-.84s.27-.82.82-.82h3.24c.31,0,.6.09.85.26.26.18.44.42.56.72.46,1.1,1.04,2.1,1.75,3,.26.29.37.61.31.96-.05.35-.26.66-.63.92-.08.07-.18.16-.29.28v3.12c0,.38-.12.69-.35.92-.24.24-.54.35-.92.35h-.75v4.59c0,.25.02.4.07.46.05.06.16.09.34.09h1.04c.2,0,.32-.17.37-.51.03-.48.12-.88.27-1.2.21-.39.47-.51.79-.35.2.09.33.32.41.69.07.29.08.58.06.88-.09.81-.27,1.37-.55,1.69-.25.29-.64.43-1.18.43h-1.49c-.75,0-1.24-.16-1.49-.47-.24-.3-.35-.87-.35-1.71v-4.59h-1.39c-.12,1.53-.37,2.75-.75,3.65-.47,1.09-1.22,1.96-2.24,2.61-.86.44-1.52.33-1.96-.33ZM141.75,192.2c-.47,0-.71-.24-.71-.73s.24-.71.71-.71h4.28c.47,0,.71.24.71.71s-.24.73-.71.73h-4.28ZM141.82,184.33c-.47,0-.71-.24-.71-.73s.24-.71.71-.71h4.16c.47,0,.71.24.71.71s-.24.73-.71.73h-4.16ZM143.04,197.72h2.16v-2.36c0-.31-.16-.47-.47-.47h-1.69c-.31,0-.47.16-.47.47v1.88c0,.31.16.47.47.47ZM150.54,191.77h4c.31,0,.47-.16.47-.47v-2.18h-4.95v2.18c0,.31.16.47.47.47Z"/>
      <path class="cls-3" d="M176.54,200.27c-.64,0-.96-.31-.96-.94v-5.24c-2.29.08-4.53.14-6.71.18-.29.01-.5-.05-.63-.2-.12-.13-.19-.35-.22-.65-.08-.65.18-.98.79-.98s1.64-.01,3.08-.04h.2c.38-.27.89-.66,1.53-1.16-.92-.85-2.05-1.72-3.41-2.61-.56-.35-.6-.76-.1-1.22.34-.31.71-.35,1.1-.12.07.04.16.1.28.18.12.08.21.14.27.18.82-.83,1.56-1.66,2.2-2.49-1.6.09-3,.14-4.2.16-.52.01-.85-.22-.98-.69-.17-.61.12-.94.86-.96,5.36-.17,9.54-.53,12.54-1.08.21-.04.39-.02.53.06.12.05.26.18.41.37.29.35.42.62.39.8-.04.21-.27.35-.69.43-1.96.31-4.15.56-6.58.75l.14.08s.01,0,0,.02c-.94,1.17-2.02,2.32-3.24,3.47.77.55,1.4,1.04,1.88,1.47,1.52-1.33,2.86-2.64,4.02-3.92.34-.39.76-.45,1.26-.18.68.37.76.81.24,1.34-1.78,1.78-3.7,3.47-5.75,5.08.14,0,.35,0,.63-.02,2.55-.04,4.48-.08,5.79-.12-.47-.44-.83-.78-1.08-1-.5-.44-.46-.86.12-1.24.39-.26.77-.25,1.14.04,1.5,1.27,2.71,2.45,3.61,3.55.2.25.26.46.2.65-.05.17-.22.35-.51.55-.54.37-.98.3-1.33-.2-.08-.1-.22-.27-.41-.49-.09-.11-.16-.18-.2-.24-1.71.08-3.47.14-5.26.18v5.3c0,.63-.31.94-.94.94ZM169.24,199.7c-.21,0-.43-.09-.67-.28-.35-.27-.52-.53-.49-.77.03-.24.24-.47.65-.71,1.06-.73,1.97-1.52,2.73-2.38.3-.38.71-.48,1.22-.29.75.27.88.7.39,1.28-.46.5-.94.98-1.45,1.45-.55.5-1.12.97-1.71,1.43-.25.18-.47.27-.67.26ZM183.77,199.64c-.21,0-.42-.11-.63-.33-.44-.45-.94-.9-1.49-1.38-.5-.43-1.06-.88-1.69-1.35-.59-.43-.57-.86.06-1.28.39-.26.76-.27,1.1-.02,1.56,1.12,2.73,2.06,3.53,2.81.26.24.37.45.31.65-.03.18-.2.39-.51.61-.26.2-.49.29-.69.29Z"/>
      <path class="cls-3" d="M196.15,198.51c-.16.06-.36.03-.62-.1-.25-.12-.41-.26-.47-.41-.06-.15-.04-.35.07-.6.3-.79.55-1.81.75-3.06.09-.58.4-.82.92-.73.48.08.69.37.63.88-.13.76-.27,1.42-.41,1.98-.14.59-.3,1.11-.47,1.55-.1.26-.24.42-.39.48ZM198.9,200.29c-.54,0-.8-.27-.8-.8v-7.16c-1,.05-1.73.1-2.2.14-.48.01-.75-.24-.8-.75-.05-.55.2-.83.77-.84l.51-.02c.48-.64.85-1.16,1.1-1.55-.47-.69-1.11-1.46-1.92-2.3-.31-.31-.33-.67-.04-1.06.29-.39.61-.44.96-.14.5-.9.94-1.83,1.31-2.79.18-.51.54-.66,1.06-.45.54.21.67.58.39,1.12-.63,1.22-1.22,2.25-1.79,3.1.41.43.72.79.94,1.08.56-.93,1.07-1.82,1.51-2.69.22-.46.58-.57,1.06-.33.51.22.62.58.33,1.08-1.28,2.01-2.39,3.63-3.32,4.85.77-.01,1.58-.05,2.43-.12-.05-.12-.13-.28-.24-.5-.1-.22-.18-.38-.24-.48-.24-.41-.12-.7.33-.88.38-.16.67-.06.86.29.61,1.13,1.06,2.13,1.33,3.02.05.2.05.35-.02.47-.07.1-.2.2-.41.29-.51.21-.83.06-.96-.45-.01-.03-.03-.08-.06-.16-.01-.05-.03-.09-.04-.12l-1.28.08v7.26c0,.54-.27.8-.8.8ZM201.06,196.66c-.16-.68-.39-1.42-.71-2.22-.18-.46-.05-.76.41-.92.41-.13.69,0,.86.37.01.03.03.06.04.1.21.51.35.9.43,1.16.05.16.13.39.24.71.07.2.11.34.14.43.09.41-.07.67-.49.8-.51.17-.82.03-.92-.43ZM201.61,199.76c-.41-.52-.22-.98.57-1.37.8-.52,1.37-1.24,1.73-2.14.27-.75.46-1.8.55-3.16.03-.31.11-.57.26-.76.17-.24.39-.35.65-.35.29,0,.5.09.65.28.14.19.2.44.18.74-.11,1.77-.37,3.16-.8,4.18-.51,1.15-1.33,2.06-2.47,2.73-.56.29-1,.24-1.3-.14ZM211.13,191.38c-.07-.14-.19-.37-.37-.69l-7.56.59c-.55.04-.85-.22-.9-.77-.07-.58.2-.88.78-.92l.77-.04c.48-1.01.88-2.08,1.2-3.22h-2.08c-.55,0-.82-.27-.82-.82s.27-.82.82-.82h3.38v-1.53c0-.6.31-.9.92-.9s.9.3.9.9v1.53h3.71c.55,0,.82.27.82.82s-.27.82-.82.82h-4.79c-.58,1.35-1.04,2.39-1.39,3.12.95-.05,2.32-.14,4.08-.27-.12-.17-.29-.42-.53-.75-.07-.08-.11-.14-.14-.18-.34-.43-.25-.79.27-1.08.41-.22.75-.16,1.04.18.99,1.24,1.76,2.36,2.3,3.36.12.24.14.43.06.59-.07.14-.22.28-.47.41-.52.29-.92.18-1.18-.33ZM209.89,200.13c-.72,0-1.2-.16-1.45-.47-.24-.3-.35-.88-.35-1.73v-5.14c0-.56.28-.84.84-.84s.84.28.84.84v5.14c0,.25.02.41.07.48.05.07.16.11.34.11h1.02c.18,0,.3-.16.35-.47.03-.47.12-.86.29-1.18.21-.38.47-.49.79-.33.18.09.31.31.39.67.07.27.08.56.06.84-.09.79-.27,1.33-.55,1.65-.25.29-.63.43-1.16.43h-1.49Z"/>
    </g>
    <g>
      <path class="cls-4" d="M112.65,46.13c-2.73,0-5.27,1.16-7.37,3.63h0c-.93,1.09-1.77,2.42-2.51,4.03-2.06,4.47-3.31,10.98-3.31,19.82,0,5.67.77,13.08,1.96,20.71,2.85,18.23,8.13,37.72,11.22,37.72,3.46,0,8.68-19.87,11.39-38.25,1.1-7.44,1.79-14.64,1.79-20.18,0-19.21-5.9-27.49-13.18-27.49Z"/>
      <path class="cls-4" d="M170.59,71.77c.02,13.3-4.62,26.37-15.86,32.12-10.6,6.35-29.03,5.72-43.06,5.75-14.04-.03-32.47.6-43.07-5.75-11.23-5.76-14.64-18.5-13.25-31.55-1.38-13.05,2.02-25.79,13.25-31.55,10.6-6.35,29.03-5.72,43.06-5.75,14.04.03,32.46-.6,43.06,5.75,11.23,5.75,16.15,17.28,15.85,30.98Z"/>
    </g>
    <path class="cls-2" d="M109.79,43.26c-2.73,0-5.27,1.16-7.37,3.63h0c-.93,1.09-1.77,2.42-2.5,4.03h0c-2.06,4.47-3.31,10.98-3.31,19.82,0,5.67.77,13.08,1.96,20.71,2.85,18.23,8.13,37.72,11.22,37.72,3.46,0,8.68-19.87,11.39-38.25,1.1-7.44,1.79-14.64,1.79-20.18,0-19.21-5.9-27.49-13.18-27.49ZM110.24,99.64c-.73,0-1.32-1.56-1.32-3.48s.59-3.48,1.32-3.48,1.32,1.56,1.32,3.48-.59,3.48-1.32,3.48ZM119.13,85.38c-2.11,2.28-6.14,2.28-9.34,2.28s-7.23,0-9.34-2.28c-2.11-2.28-2.98-16.27-2.02-20.93.96-4.66,6.42-7.81,11.37-7.81s10.41,3.15,11.37,7.81c.96,4.66.08,18.65-2.02,20.93Z"/>
    <path class="cls-2" d="M165.3,69.48c.29,13.66-2.02,25.79-13.25,31.55-10.6,6.35-29.03,5.72-43.06,5.75-14.04-.03-32.47.6-43.07-5.75-11.23-5.76-13.34-18.14-13.25-31.55.09-14.44,2.02-25.79,13.25-31.55,10.6-6.35,29.03-5.72,43.07-5.75,14.04.03,32.47-.6,43.06,5.75,11.23,5.76,12.95,17.12,13.25,31.55Z"/>
    <path class="cls-3" d="M152.19,69.89c0,16.16-9.96,29.27-22.24,29.27h-40.31c-12.28,0-22.24-13.1-22.24-29.27h0c0-16.16,9.96-29.26,22.24-29.26h40.31c12.28,0,22.24,13.1,22.24,29.26h0Z"/>
    <path class="cls-5" d="M117.74,80.03c0,4.47-3.62,8.09-8.09,8.09s-8.09-3.62-8.09-8.09h16.17Z"/>
    <g>
      <g>
        <path class="cls-3" d="M96.49,21.15c-.11,0-.23-.03-.33-.08-3.95-2.1-6.39-6.18-6.39-10.65s2.17-8.11,5.82-10.32c.34-.2.77-.1.98.24.2.34.1.77-.24.98-3.22,1.95-5.13,5.35-5.13,9.1,0,3.94,2.16,7.54,5.64,9.39.35.18.48.61.29.96-.13.24-.37.38-.63.38Z"/>
        <path class="cls-3" d="M97.57,16.99c-.17,0-.34-.06-.47-.18-1.92-1.71-2.98-3.92-2.98-6.21s1.08-4.54,3.03-6.26c.3-.26.74-.23,1,.06.26.29.23.74-.06,1-1.65,1.45-2.55,3.29-2.55,5.19s.89,3.71,2.51,5.15c.29.26.32.71.06,1-.14.16-.33.24-.53.24Z"/>
      </g>
      <g>
        <path class="cls-3" d="M121.92,21.15c.11,0,.23-.03.33-.08,3.95-2.1,6.39-6.18,6.39-10.65s-2.17-8.11-5.82-10.32c-.34-.2-.77-.1-.98.24-.2.34-.1.77.24.98,3.21,1.95,5.13,5.35,5.13,9.1,0,3.94-2.16,7.54-5.64,9.39-.35.18-.48.61-.29.96.13.24.37.38.63.38Z"/>
        <path class="cls-3" d="M120.85,16.99c.17,0,.34-.06.47-.18,1.92-1.71,2.98-3.92,2.98-6.21s-1.08-4.54-3.03-6.26c-.29-.26-.74-.23-1,.06-.26.29-.23.74.06,1,1.64,1.45,2.55,3.29,2.55,5.19s-.89,3.71-2.51,5.15c-.29.26-.32.71-.06,1,.14.16.33.24.53.24Z"/>
      </g>
      <path class="cls-3" d="M112.62,31.9c0,1.68-1.36,3.04-3.04,3.04h0c-1.68,0-3.04-1.36-3.04-3.04l1.94-16.16c0-1.68-.58-3.04,1.11-3.04h0c1.68,0,1.11,1.36,1.11,3.04l1.94,16.16Z"/>
      <path class="cls-3" d="M109.13,3.91h.9c3.43,0,6.22,2.79,6.22,6.22v.9c0,3.43-2.78,6.21-6.21,6.21h-.9c-3.43,0-6.21-2.78-6.21-6.21v-.9c0-3.43,2.79-6.22,6.22-6.22Z"/>
    </g>
    <path class="cls-5" d="M97.61,66.55c0,1.77-1.43,3.2-3.2,3.2h0c-1.77,0-3.2-1.43-3.2-3.2v-8.29c0-1.77,1.43-3.2,3.2-3.2h0c1.77,0,3.2,1.43,3.2,3.2v8.29Z"/>
    <path class="cls-5" d="M126.38,66.55c0,1.77-1.43,3.2-3.2,3.2h0c-1.77,0-3.2-1.43-3.2-3.2v-8.29c0-1.77,1.43-3.2,3.2-3.2h0c1.77,0,3.2,1.43,3.2,3.2v8.29Z"/>
    <g>
      <path class="cls-3" d="M171.33,62.28c-.32,3.45-.57,7.08-.72,10.88-.16,4.19-.19,8.18-.11,11.97,3.51-2.73,5.71-6.87,5.84-11.34.12-4.41-1.77-8.6-5.01-11.51Z"/>
      <path class="cls-1" d="M171.33,62.28c-.74-.67-1.05-.96-1.93-1.48-.78-.46-5,11.93-.51,25.42,1.19-.52.61-.32,1.6-1.09-.08-3.79-.05-7.78.11-11.97.15-3.8.4-7.43.72-10.88Z"/>
    </g>
  </g>
</svg>