<?xml version="1.0" encoding="UTF-8"?>
<svg id="_圖層_2" data-name="圖層 2" xmlns="http://www.w3.org/2000/svg" viewBox="0 0 447.51 136.04">
  <defs>
    <style>
      .cls-1 {
        fill: #24345d;
      }

      .cls-2 {
        fill: #fff;
        stroke: #fff;
        stroke-linecap: round;
        stroke-linejoin: round;
        stroke-width: 4px;
      }

      .cls-3 {
        fill: #dcdbd6;
      }

      .cls-4 {
        fill: #324676;
      }

      .cls-5 {
        fill: #9fa0a0;
      }

      .cls-6 {
        fill: #4dbdbd;
      }
    </style>
  </defs>
  <g id="_圖層_1-2" data-name="圖層 1">
    <g>
      <g>
        <path class="cls-2" d="M173.41,69.56c-1.54-1-4.12-2.05-7.76-3.15l-4.35-1.3c-1.03-.3-2.04-.63-3.03-1-.98-.37-1.89-.88-2.73-1.53s-1.25-1.66-1.25-3.03c0-1.53.44-2.58,1.33-3.13.88-.55,1.55-.89,2-1.03.45-.13.91-.2,1.38-.2,1.63,0,3.44.67,5.41,2l4.25,2.95h.15l1,.47c1.1.39,2.03.58,2.8.58,1,0,1.94-.25,2.8-.75l-4.45-7c-.9.27-1.67.4-2.31.4-.1,0-.49-.02-1.18-.05-.69-.03-1.13-.07-1.33-.1l-1.16-.15-2.71-.45c-1.44-.23-2.49-.36-3.14-.38-.65-.02-1.3-.02-1.93-.02-1.94.17-3.54.48-4.8.93-1.26.45-2.36,1.1-3.32,1.95-.95.85-1.69,1.77-2.21,2.78-.52,1-.78,2.12-.78,3.35,0,2.04.37,3.77,1.1,5.2.73,1.44,1.97,2.7,3.7,3.8.77.53,1.4.92,1.9,1.15.5.23,1.02.45,1.55.65l5.81,1.7c3.74,1.13,6.47,2.34,8.21,3.63,1.73,1.29,2.6,2.68,2.6,4.18,0,1.13-.55,2.5-1.65,4.1-1.1,1.6-2.97,2.4-5.6,2.4l-1.4-.15c-.87-.2-1.48-.37-1.83-.5-.35-.13-1.09-.66-2.23-1.58-1.13-.92-2.36-1.76-3.68-2.53-1.32-.77-2.64-1.32-3.95-1.65-1.32-.33-2.36-.5-3.13-.5-1.17,0-2.14.35-2.9,1.05.83,1.2,1.64,2.44,2.43,3.7.78,1.27,1.54,2.5,2.27,3.7,1.07-.5,2.15-.75,3.25-.75.87,0,1.87.12,3,.35l1.25.25c1.6.4,2.76.66,3.48.78.72.12,1.44.18,2.18.18.9,0,2-.02,3.3-.05,1.3-.03,2.59-.24,3.88-.62,1.28-.38,2.42-.88,3.4-1.48.98-.6,1.94-1.48,2.85-2.65.92-1.17,1.54-2.38,1.88-3.63.34-1.25.5-2.83.5-4.73-.17-1.3-.63-2.74-1.4-4.3-.77-1.57-1.92-2.85-3.45-3.85Z"/>
        <path class="cls-2" d="M215.94,87.16c-.17-.54-.25-1.02-.25-1.46v-18.29c0-1.14-.47-2.13-1.42-2.99-.95-.85-1.91-1.35-2.88-1.48-.97-.13-1.65-.2-2.05-.2-1.87,0-3.74.68-5.6,2.02l-1.25,1.14-.7-.78c-1.54-1.59-3.12-2.39-4.75-2.39-.8,0-1.89.18-3.25.54-1.37.37-2.72,1.29-4.05,2.77v-3.32c-1.57.57-3.26,1.13-5.08,1.68-1.82.55-3.46.83-4.93.83.43.53.8,1.1,1.1,1.7.33.63.52,1.04.58,1.23.05.19.08.33.08.43v17.21c0,.63-.17,1.33-.5,2.1-.33.77-.72,1.38-1.15,1.85h11.01l-.5-.8c-.4-.8-.6-1.65-.6-2.55v-15.91c0-.8.23-1.46.68-1.98.45-.52.99-.77,1.63-.77.67,0,1.23.22,1.7.65.47.43.7.97.7,1.6v16.26c0,.53-.11,1.12-.33,1.78-.22.65-.53,1.22-.93,1.73h10.71c-.8-1-1.2-2.29-1.2-3.87v-14.73c0-.6.03-1.06.1-1.36.07-.3.23-.72.5-1.25.26-.54.83-.8,1.7-.8.37,0,.73.11,1.1.32l.55.49c.5.65.75,1.29.75,1.94v15.28c0,1.49-.4,2.82-1.2,3.98h11.31l-.7-.9c-.4-.6-.69-1.17-.85-1.71Z"/>
        <path class="cls-2" d="M279.08,86.47c-.4.1-.78.15-1.15.15-1.63,0-2.45-.7-2.45-2.1v-17.06h4.35v-3.25h-4.35v-6.47l-2.75,2.75c-2.21,2.15-4.68,4.26-7.38,6.32-.15-1.01-.53-1.86-1.15-2.54-.82-.88-1.91-1.33-3.28-1.33-.33,0-.78.04-1.33.13-.55.08-1.17.35-1.85.8-.69.45-1.51,1.29-2.48,2.53l-.75,1.05v-4.72l-2.55.84-2.55.79-2.5.79-2.45.74.95,1c.53.74.8,1.54.8,2.41v17.05c0,.8-.35,1.69-1.05,2.66l-.7.75c-.57-.43-1.03-.95-1.38-1.55-.35-.6-.56-1.17-.63-1.7l-1.8-15.41c-.33-2.7-1.18-4.75-2.55-6.15-1.37-1.4-3.27-2.1-5.71-2.1-1.1,0-2.2.13-3.3.38-1.1.25-1.95.5-2.55.75-.6.25-1.33.68-2.2,1.28-.87.6-1.59,1.33-2.15,2.2-.57.87-.92,1.84-1.05,2.9l.9-.55c1.3-.83,2.48-1.43,3.53-1.78,1.05-.35,2.03-.52,2.93-.52,2.03,0,3.2.82,3.5,2.45l.2,1.3-1.1.3c-1.47.4-2.64.78-3.53,1.13-.88.35-1.81.82-2.78,1.42-.97.6-1.84,1.28-2.6,2.03-.77.75-1.44,1.64-2.03,2.68-.58,1.03-.88,2.23-.88,3.6,0,.7.17,1.7.5,3,.33,1.3,1.18,2.48,2.53,3.53,1.35,1.05,2.98,1.58,4.88,1.58,1.6,0,2.98-.23,4.13-.7,1.15-.47,1.85-.78,2.1-.95.25-.17.54-.35.88-.55l.2,1.45h21.97c-.3-.17-.7-.5-1.2-1-.5-.5-.75-1.2-.75-2.1v-15.46c.4-.37.83-.7,1.3-1,.47-.3.92-.42,1.35-.35.57.62,1.28,1.12,2.15,1.49.87.38,1.68.56,2.45.56,1.1,0,1.98-.36,2.65-1.07.67-.72,1-1.73,1-3.03,0-.12-.02-.23-.03-.35h1.83v18.41c.57,3.34,2.63,5,6.18,5h1.41c.34,0,.65-.04.95-.13.3-.08.88-.33,1.73-.74.85-.41,1.6-.99,2.23-1.73.64-.75,1.07-1.61,1.31-2.6l-.65.35-1.3.45ZM231.75,87.17c-1.14,0-2.05-.5-2.73-1.5-.69-1-1.03-2.28-1.03-3.85v-1.15c0-.93.24-1.97.73-3.1.49-1.13,1.01-2.03,1.56-2.7.56-.67,1.27-1.27,2.14-1.8l1.61,12.91c-.56.8-1.33,1.2-2.3,1.2Z"/>
        <path class="cls-2" d="M310.56,52.3c-.6.28-1.03.46-1.3.55-.27.08-.75.24-1.45.46-.7.23-1.24.35-1.6.39-.37.03-1.29.05-2.75.05h-13.81c-.5,0-1.19-.08-2.08-.23-.89-.15-1.62-.33-2.2-.53-.58-.2-1.11-.43-1.58-.7l-.95,2.65c-.73,2.1-1.3,3.6-1.7,4.5-.4.9-.9,1.84-1.5,2.8.73.27,1.42.4,2.05.4.93,0,1.8-.17,2.6-.5.4-.16.8-.37,1.2-.6.4-.23.65-.42.75-.55l1-1.05c1.57-1.63,2.62-2.63,3.15-3,.53-.37,1.2-.55,2-.55v28.82c0,.8-.23,1.62-.68,2.45-.45.84-1.11,1.54-1.98,2.1h14.31c-.73-.43-1.3-.96-1.7-1.6-.4-.63-.66-1.11-.78-1.42-.12-.32-.17-.64-.17-.97v-29.38c.3-.13.58-.2.85-.2.37,0,.7.12,1,.38.3.25.67.68,1.1,1.28l.45.6c1.07,1.33,1.99,2.26,2.78,2.78.78.52,1.62.86,2.5,1.03.88.17,1.58.25,2.08.25.8,0,1.53-.07,2.2-.2-1.34-2.21-2.48-5.07-3.45-8.56l-.35-1.45Z"/>
        <path class="cls-2" d="M350.04,51.95l-2.25,1.05c-2.53.97-5.14,1.45-7.81,1.45,1.17.6,1.75,1.77,1.75,3.5v25.92c0,1.47-.14,2.65-.43,3.55-.28.9-.74,1.68-1.38,2.35-.57-.43-1.02-.95-1.37-1.55-.35-.6-.56-1.17-.62-1.7l-1.8-15.41c-.33-2.7-1.18-4.75-2.55-6.15-1.37-1.4-3.27-2.1-5.7-2.1-1.1,0-2.2.13-3.3.38-1.1.25-1.95.5-2.55.75-.6.25-1.33.68-2.2,1.28-.87.6-1.59,1.33-2.15,2.2-.57.87-.92,1.84-1.05,2.9l.9-.55c1.3-.83,2.48-1.43,3.53-1.78,1.05-.35,2.03-.52,2.93-.52,2.03,0,3.2.82,3.5,2.45l.2,1.3-1.1.3c-1.47.4-2.64.78-3.53,1.13-.88.35-1.81.82-2.78,1.42-.97.6-1.84,1.28-2.6,2.03-.77.75-1.44,1.64-2.03,2.68-.58,1.03-.88,2.23-.88,3.6,0,.7.17,1.7.5,3,.33,1.3,1.18,2.48,2.53,3.53,1.35,1.05,2.98,1.58,4.88,1.58,1.6,0,2.98-.23,4.13-.7,1.15-.47,1.85-.78,2.1-.95.25-.17.54-.35.88-.55l.2,1.45h21.87c-1.2-.97-1.8-2.43-1.8-4.4v-33.42ZM327.22,87.17c-1.13,0-2.04-.5-2.73-1.5-.69-1-1.03-2.28-1.03-3.85v-1.15c0-.93.24-1.97.73-3.1.49-1.13,1.01-2.03,1.56-2.7.56-.67,1.27-1.27,2.15-1.8l1.62,12.91c-.57.8-1.34,1.2-2.3,1.2Z"/>
        <path class="cls-2" d="M378.33,88.17c-.15-.23-.48-.85-.97-1.85l-7.01-13.26,5.81-6.25,1.25-1.35.1-.11c.4-.4.95-.78,1.65-1.15h-11.16l.35.55c.53.97.8,1.84.8,2.61,0,.6-.16,1.12-.48,1.55l-5.37,6.66v-23.65c-2.17,1.21-4.15,1.93-5.93,2.16-1.79.24-3.16.35-4.13.35.53.6.92,1.16,1.15,1.68.23.52.39.94.47,1.27.08.33.13.72.13,1.15v26.77c0,1.83-.58,3.32-1.75,4.45h11.66c-.5-.57-.89-1.16-1.18-1.77-.28-.62-.42-1.23-.42-1.83v-6.26l1.4-1.75,3.8,8.66c.1.27.15.53.15.8,0,.53-.17,1.07-.5,1.6l-.45.55h12.36l-.75-.6c-.5-.43-.82-.77-.98-1Z"/>
        <path class="cls-2" d="M391.84,89.35c-.08-.12-.33-.56-.75-1.33-.42-.77-.62-1.43-.62-2v-23.27c-1.57.57-3.27,1.13-5.1,1.68-1.83.55-3.47.83-4.9.83,1.17.7,1.75,1.75,1.75,3.15v17.56c0,1-.33,1.99-1,2.95l-.8.85h11.86c-.2-.17-.34-.31-.43-.42Z"/>
        <path class="cls-2" d="M386.16,60.7c1.37,0,2.48-.41,3.33-1.23.85-.82,1.28-1.83,1.28-3.03,0-1.43-.41-2.54-1.23-3.33-.82-.78-2.01-1.18-3.58-1.18s-2.67.43-3.5,1.3c-.83.87-1.25,1.97-1.25,3.3,0,1.2.48,2.19,1.43,2.98s2.13,1.18,3.53,1.18Z"/>
        <path class="cls-2" d="M416.98,86.2c-.2-.71-.3-1.42-.3-2.13v-15.36c-.17-2.03-.81-3.51-1.93-4.43-1.12-.92-2.81-1.38-5.08-1.38-1.44,0-3.12.65-5.06,1.95l-.9.6v-2.71c-1.57.6-3.25,1.18-5.05,1.73-1.8.55-3.44.83-4.9.83l.6.55c.37.4.64.8.83,1.2.18.4.28.77.28,1.1v18.46c0,.9-.32,1.72-.95,2.45l-.85.7h11.16c-.73-.37-1.1-.82-1.1-1.35v-17.41c0-1.13.12-1.96.38-2.48.25-.52.58-.82,1-.92.42-.1.83-.15,1.23-.15,1.4,0,2.1.55,2.1,1.65v17.81c0,.47-.18,1.08-.55,1.85l-.55,1h11.16l-.4-.8c-.53-1.13-.9-2.06-1.1-2.78Z"/>
        <path class="cls-2" d="M444.31,87.67l-1.2-1.95v-18.11c0-.27.09-.87.28-1.8.18-.93.29-1.45.32-1.55l.25-.8c-.57.34-1.15.55-1.75.65-.2.03-.48.1-.85.2h-.55c-.27,0-1.19-.2-2.78-.6-1.59-.4-2.91-.6-3.98-.6-1.73,0-3.21.16-4.43.47-1.22.32-2.49.93-3.8,1.85-1.32.92-2.5,2.33-3.55,4.23-1.05,1.9-1.63,3.48-1.75,4.73-.12,1.25-.19,2.07-.22,2.45-.03.39-.05.73-.05,1.03v.47c0,.22.09,1.28.27,3.2.18,1.92,1.13,3.89,2.83,5.9,1.7,2.02,3.65,3.03,5.85,3.03.4,0,1.12-.1,2.18-.3,1.05-.2,2.11-.98,3.18-2.35l.5.65.2.3.95,1.25.75,1.05c.17.27.25.57.25.9,0,.77-.3,1.53-.9,2.3-.6.77-1.26,1.26-1.97,1.48-.71.22-1.27.34-1.67.38-.4.03-.78.05-1.15.05-.63,0-1.09-.04-1.37-.13-.28-.08-.79-.37-1.52-.85-.73-.48-1.55-1-2.47-1.55-.92-.55-1.58-.86-2-.92-.42-.07-.79-.1-1.12-.1-.47,0-1.05.16-1.75.48-.7.32-1.05.96-1.05,1.93,0,.67.19,1.19.57,1.58.38.38.75.68,1.1.9.35.22.92.48,1.72.8.8.32,3.56.48,8.29.48,1.46,0,2.87-.13,4.22-.4,1.35-.26,2.78-.68,4.3-1.25,1.51-.57,2.74-1.35,3.67-2.35.93-1,1.4-2.13,1.4-3.4,0-1.17-.4-2.4-1.2-3.7ZM434.8,81.42c0,.6-.02,1.15-.05,1.65-.03.5-.18.99-.45,1.45-.27.47-.75.7-1.45.7-.4,0-.85-.17-1.35-.5-.84-.67-1.47-1.75-1.9-3.25-.44-1.5-.65-3.87-.65-7.1,0-1.4.06-2.54.17-3.4.12-.87.24-1.54.38-2.03.13-.48.4-1.08.8-1.8.4-.72,1.07-1.07,2-1.07.67,0,1.2.25,1.6.75l.5.7c.27.56.4,1,.4,1.3v12.61Z"/>
        <path class="cls-2" d="M53.22,23.07c.11.06.22.08.33.08.25,0,.5-.14.63-.38.18-.35.05-.78-.29-.96-3.48-1.85-5.64-5.45-5.64-9.39s1.92-7.16,5.13-9.1c.33-.2.44-.64.24-.98-.2-.34-.64-.44-.98-.24-3.64,2.21-5.82,6.07-5.82,10.32,0,4.47,2.45,8.55,6.39,10.65Z"/>
        <path class="cls-2" d="M51.17,12.6c0,2.29,1.06,4.49,2.98,6.21.13.12.3.18.47.18.2,0,.39-.08.53-.24.26-.29.24-.74-.06-1-1.62-1.44-2.51-3.27-2.51-5.15s.91-3.74,2.55-5.19c.29-.26.32-.71.06-1-.26-.29-.71-.32-1-.06-1.96,1.72-3.03,3.94-3.03,6.26Z"/>
        <path class="cls-2" d="M79.16,3.32c3.21,1.95,5.13,5.35,5.13,9.1,0,3.94-2.16,7.54-5.64,9.39-.35.18-.48.61-.29.96.13.24.37.38.63.38.11,0,.23-.03.33-.08,3.95-2.1,6.39-6.18,6.39-10.65s-2.17-8.11-5.82-10.32c-.34-.2-.77-.1-.98.24-.2.34-.1.77.24.98Z"/>
        <path class="cls-2" d="M79.95,12.6c0,1.88-.89,3.71-2.51,5.15-.29.26-.32.71-.06,1,.14.16.33.24.53.24.17,0,.34-.06.47-.18,1.92-1.71,2.98-3.92,2.98-6.21s-1.08-4.54-3.03-6.26c-.3-.26-.74-.23-1,.06-.26.29-.23.74.06,1,1.64,1.45,2.55,3.29,2.55,5.19Z"/>
        <path class="cls-2" d="M126.64,62.91c-1.58-7.14-5.03-13.19-10.61-17.44-1.77-2.19-4.03-4.05-6.92-5.54-9.71-5.82-25.99-5.77-39.45-5.75,0-.09.03-.18.03-.28l-1.76-14.72c3.04-.41,5.38-3,5.38-6.15v-.9c0-3.43-2.78-6.21-6.21-6.21h-.9c-3.43,0-6.22,2.78-6.22,6.21v.9c0,3.15,2.35,5.75,5.39,6.16l-1.77,14.72c0,.1.02.19.03.28-13.68-.02-30.65-.24-40.65,5.75-8.03,4.12-11.3,11.1-12.54,20.02-.92.46-1.8.98-2.59,1.6-3.51,2.73-5.71,6.87-5.84,11.34-.12,4.41,1.77,8.6,5.01,11.51,1.22,1.1,2.64,2,4.21,2.68,1.21,4.87,3.3,9.15,6.78,12.44,1.99,2.57,4.5,4.75,7.66,6.37,8.32,4.99,21.46,5.67,33.52,5.74,2.62,11.04,5.62,19.55,7.67,19.55.13,0,.26-.03.39-.09.9,1.87,1.75,2.95,2.47,2.95,2.46,0,5.8-10.02,8.5-22.41,12.07-.08,25.24-.75,33.58-5.74,7.21-3.69,11.69-10.41,13.98-18.26.06.2.12.39.19.59,1.19-.52.61-.32,1.6-1.09,3.51-2.73,5.71-6.87,5.84-11.34.12-4.41-1.77-8.6-5.01-11.51-.68-.62-1.02-.92-1.75-1.37Z"/>
      </g>
      <g>
        <g>
          <path class="cls-6" d="M149.29,90.08c-.73-1.2-1.49-2.43-2.27-3.7-.78-1.27-1.59-2.5-2.43-3.7.77-.7,1.73-1.05,2.9-1.05.77,0,1.81.16,3.13.5,1.32.33,2.64.88,3.95,1.65,1.32.77,2.54,1.61,3.68,2.53,1.14.92,1.88,1.44,2.23,1.58.35.13.96.3,1.83.5l1.4.15c2.63,0,4.5-.8,5.6-2.4,1.1-1.6,1.65-2.97,1.65-4.1,0-1.5-.87-2.89-2.6-4.18-1.73-1.28-4.47-2.49-8.21-3.63l-5.81-1.7c-.53-.2-1.05-.42-1.55-.65-.5-.23-1.13-.62-1.9-1.15-1.73-1.1-2.97-2.37-3.7-3.8-.73-1.43-1.1-3.17-1.1-5.2,0-1.23.26-2.35.78-3.35.52-1,1.25-1.93,2.21-2.78.95-.85,2.06-1.5,3.32-1.95,1.26-.45,2.85-.76,4.8-.93.64,0,1.28,0,1.93.02.65.02,1.7.14,3.14.38l2.71.45,1.16.15c.2.03.64.07,1.33.1.69.03,1.08.05,1.18.05.64,0,1.41-.13,2.31-.4l4.45,7c-.87.5-1.8.75-2.8.75-.77,0-1.7-.19-2.8-.58l-1-.47h-.15l-4.25-2.95c-1.97-1.33-3.77-2-5.41-2-.47,0-.92.07-1.38.2-.45.13-1.12.48-2,1.03-.89.55-1.33,1.59-1.33,3.13,0,1.37.42,2.38,1.25,3.03s1.74,1.16,2.73,1.53c.98.37,1.99.7,3.03,1l4.35,1.3c3.64,1.1,6.22,2.15,7.76,3.15,1.54,1,2.68,2.29,3.45,3.85.77,1.57,1.24,3,1.4,4.3,0,1.9-.17,3.48-.5,4.73-.33,1.25-.96,2.46-1.88,3.63-.92,1.17-1.87,2.05-2.85,2.65-.98.6-2.12,1.09-3.4,1.48-1.28.38-2.58.59-3.88.62-1.3.03-2.4.05-3.3.05-.73,0-1.46-.06-2.18-.18-.72-.12-1.88-.37-3.48-.78l-1.25-.25c-1.13-.23-2.13-.35-3-.35-1.1,0-2.18.25-3.25.75Z"/>
          <path class="cls-4" d="M180.81,66.96c-.3-.6-.67-1.17-1.1-1.7,1.47,0,3.11-.28,4.93-.83,1.82-.55,3.51-1.11,5.08-1.68v3.32c1.34-1.49,2.69-2.41,4.05-2.77,1.37-.36,2.45-.54,3.25-.54,1.63,0,3.22.8,4.75,2.39l.7.78,1.25-1.14c1.87-1.35,3.73-2.02,5.6-2.02.4,0,1.08.07,2.05.2.97.13,1.93.63,2.88,1.48.95.85,1.42,1.85,1.42,2.99v18.29c0,.44.08.92.25,1.46.17.54.45,1.11.85,1.71l.7.9h-11.31c.8-1.16,1.2-2.49,1.2-3.98v-15.28c0-.65-.25-1.29-.75-1.94l-.55-.49c-.37-.21-.73-.32-1.1-.32-.87,0-1.44.27-1.7.8-.27.54-.44.95-.5,1.25-.07.3-.1.76-.1,1.36v14.73c0,1.58.4,2.87,1.2,3.87h-10.71c.4-.5.71-1.08.93-1.73.22-.65.33-1.24.33-1.78v-16.26c0-.63-.23-1.17-.7-1.6-.47-.43-1.03-.65-1.7-.65s-1.18.26-1.63.77c-.45.52-.68,1.18-.68,1.98v15.91c0,.9.2,1.75.6,2.55l.5.8h-11.01c.43-.47.82-1.08,1.15-1.85.33-.77.5-1.47.5-2.1v-17.21c0-.1-.03-.24-.08-.43-.05-.18-.24-.59-.58-1.23Z"/>
          <path class="cls-4" d="M231.1,71.56l1.1-.3-.2-1.3c-.3-1.63-1.47-2.45-3.5-2.45-.9,0-1.88.17-2.93.52-1.05.35-2.23.94-3.53,1.78l-.9.55c.13-1.07.48-2.03,1.05-2.9.57-.87,1.28-1.6,2.15-2.2.87-.6,1.6-1.03,2.2-1.28.6-.25,1.45-.5,2.55-.75,1.1-.25,2.2-.38,3.3-.38,2.44,0,4.34.7,5.71,2.1,1.37,1.4,2.22,3.45,2.55,6.15l1.8,15.41c.07.53.27,1.1.63,1.7.35.6.81,1.12,1.38,1.55h-9.96l-.2-1.45c-.33.2-.62.38-.88.55-.25.17-.95.48-2.1.95-1.15.47-2.53.7-4.13.7-1.9,0-3.53-.52-4.88-1.58-1.35-1.05-2.19-2.23-2.53-3.53-.33-1.3-.5-2.3-.5-3,0-1.37.29-2.57.88-3.6.58-1.04,1.26-1.93,2.03-2.68.77-.75,1.63-1.42,2.6-2.03.97-.6,1.89-1.08,2.78-1.42.88-.35,2.06-.73,3.53-1.13ZM232.44,73.06c-.87.53-1.59,1.13-2.14,1.8-.55.67-1.08,1.57-1.56,2.7-.49,1.13-.73,2.17-.73,3.1v1.15c0,1.57.34,2.85,1.03,3.85.68,1,1.59,1.5,2.73,1.5.97,0,1.73-.4,2.3-1.2l-1.61-12.91Z"/>
          <path class="cls-4" d="M245.41,66.91l-.95-1,2.45-.74,2.5-.79,2.55-.79,2.55-.84v4.72l.75-1.05c.97-1.23,1.79-2.08,2.48-2.53.68-.45,1.3-.72,1.85-.8.55-.08.99-.13,1.33-.13,1.37,0,2.46.44,3.28,1.33.82.88,1.23,2.06,1.23,3.53,0,1.3-.34,2.31-1,3.03-.67.72-1.55,1.07-2.65,1.07-.77,0-1.59-.18-2.45-.56-.87-.37-1.59-.87-2.15-1.49-.43-.07-.89.05-1.35.35-.47.3-.9.63-1.3,1v15.46c0,.9.25,1.6.75,2.1.5.5.9.83,1.2,1h-12.01l.7-.75c.7-.97,1.05-1.86,1.05-2.66v-17.05c0-.87-.27-1.67-.8-2.41Z"/>
          <path class="cls-4" d="M267.23,67.46h-2.7c3.04-2.27,5.77-4.59,8.21-6.96l2.75-2.75v6.47h4.35v3.25h-4.35v17.06c0,1.4.82,2.1,2.45,2.1.37,0,.75-.05,1.15-.15l1.3-.45.65-.35c-.23.99-.67,1.85-1.31,2.6-.64.75-1.38,1.33-2.23,1.73-.85.41-1.43.65-1.73.74-.3.09-.62.13-.95.13h-1.41c-3.55,0-5.61-1.67-6.18-5v-18.41Z"/>
          <path class="cls-6" d="M284.29,62.15c-.8.33-1.67.5-2.6.5-.63,0-1.32-.13-2.05-.4.6-.97,1.1-1.9,1.5-2.8.4-.9.97-2.4,1.7-4.5l.95-2.65c.47.27.99.5,1.58.7.58.2,1.32.38,2.2.53.88.15,1.58.23,2.08.23h13.81c1.47,0,2.38-.02,2.75-.05.37-.03.9-.16,1.6-.39.7-.22,1.18-.38,1.45-.46.27-.09.7-.27,1.3-.55l.35,1.45c.97,3.49,2.12,6.34,3.45,8.56-.67.13-1.4.2-2.2.2-.5,0-1.19-.09-2.08-.25-.88-.16-1.72-.51-2.5-1.03-.79-.51-1.71-1.44-2.78-2.78l-.45-.6c-.43-.6-.8-1.03-1.1-1.28-.3-.25-.63-.38-1-.38-.27,0-.55.07-.85.2v29.38c0,.33.06.66.17.97.12.32.38.79.78,1.42.4.63.97,1.17,1.7,1.6h-14.31c.87-.57,1.53-1.27,1.98-2.1.45-.83.68-1.65.68-2.45v-28.82c-.8,0-1.47.18-2,.55-.53.37-1.58,1.37-3.15,3l-1,1.05c-.1.14-.35.32-.75.55-.4.23-.8.44-1.2.6Z"/>
          <path class="cls-4" d="M326.57,71.56l1.1-.3-.2-1.3c-.3-1.63-1.47-2.45-3.5-2.45-.9,0-1.88.17-2.93.52-1.05.35-2.23.94-3.53,1.78l-.9.55c.13-1.07.48-2.03,1.05-2.9.57-.87,1.28-1.6,2.15-2.2.87-.6,1.6-1.03,2.2-1.28.6-.25,1.45-.5,2.55-.75,1.1-.25,2.2-.38,3.3-.38,2.43,0,4.34.7,5.7,2.1,1.37,1.4,2.22,3.45,2.55,6.15l1.8,15.41c.07.53.27,1.1.62,1.7.35.6.81,1.12,1.38,1.55h-9.96l-.2-1.45c-.33.2-.63.38-.88.55-.25.17-.95.48-2.1.95-1.15.47-2.53.7-4.13.7-1.9,0-3.53-.52-4.88-1.58-1.35-1.05-2.19-2.23-2.53-3.53-.33-1.3-.5-2.3-.5-3,0-1.37.29-2.57.88-3.6.58-1.04,1.26-1.93,2.03-2.68.77-.75,1.63-1.42,2.6-2.03.97-.6,1.89-1.08,2.78-1.42.88-.35,2.06-.73,3.53-1.13ZM327.91,73.06c-.87.53-1.59,1.13-2.15,1.8-.55.67-1.08,1.57-1.56,2.7-.49,1.13-.73,2.17-.73,3.1v1.15c0,1.57.34,2.85,1.03,3.85.68,1,1.59,1.5,2.73,1.5.97,0,1.73-.4,2.3-1.2l-1.62-12.91Z"/>
          <path class="cls-4" d="M351.84,89.77h-11.91c.63-.67,1.09-1.45,1.38-2.35.28-.9.43-2.08.43-3.55v-25.92c0-1.73-.58-2.9-1.75-3.5,2.67,0,5.27-.48,7.81-1.45l2.25-1.05v33.42c0,1.97.6,3.44,1.8,4.4Z"/>
          <path class="cls-4" d="M364.9,89.77h-11.66c1.17-1.13,1.75-2.62,1.75-4.45v-26.77c0-.43-.04-.82-.13-1.15-.08-.33-.24-.76-.47-1.27-.23-.52-.62-1.08-1.15-1.68.97,0,2.34-.12,4.13-.35,1.78-.23,3.76-.95,5.93-2.16v23.65l5.37-6.66c.32-.43.48-.95.48-1.55,0-.77-.27-1.64-.8-2.61l-.35-.55h11.16c-.7.37-1.25.75-1.65,1.15l-.1.11-1.25,1.35-5.81,6.25,7.01,13.26c.5,1,.82,1.62.97,1.85.15.23.48.57.98,1l.75.6h-12.36l.45-.55c.33-.53.5-1.07.5-1.6,0-.27-.05-.54-.15-.8l-3.8-8.66-1.4,1.75v6.26c0,.6.14,1.21.42,1.83.28.62.68,1.21,1.18,1.77Z"/>
          <path class="cls-4" d="M392.27,89.77h-11.86l.8-.85c.67-.97,1-1.95,1-2.95v-17.56c0-1.4-.58-2.45-1.75-3.15,1.44,0,3.07-.28,4.9-.83,1.84-.55,3.54-1.11,5.1-1.68v23.27c0,.57.21,1.23.62,2,.42.77.67,1.21.75,1.33.08.12.23.26.43.42ZM386.16,60.7c-1.4,0-2.58-.39-3.53-1.18s-1.43-1.78-1.43-2.98c0-1.34.42-2.44,1.25-3.3.83-.87,2-1.3,3.5-1.3s2.76.39,3.58,1.18c.82.78,1.23,1.89,1.23,3.33,0,1.2-.43,2.21-1.28,3.03-.85.82-1.96,1.23-3.33,1.23Z"/>
          <path class="cls-4" d="M404.83,89.77h-11.16l.85-.7c.63-.73.95-1.55.95-2.45v-18.46c0-.33-.09-.7-.28-1.1-.18-.4-.46-.8-.83-1.2l-.6-.55c1.47,0,3.1-.28,4.9-.83,1.8-.55,3.49-1.13,5.05-1.73v2.71l.9-.6c1.94-1.3,3.62-1.95,5.06-1.95,2.27,0,3.96.46,5.08,1.38,1.12.92,1.76,2.39,1.93,4.43v15.36c0,.7.1,1.41.3,2.13.2.72.57,1.64,1.1,2.78l.4.8h-11.16l.55-1c.37-.77.55-1.38.55-1.85v-17.81c0-1.1-.7-1.65-2.1-1.65-.4,0-.81.05-1.23.15-.42.1-.75.41-1,.92-.25.52-.38,1.34-.38,2.48v17.41c0,.53.37.99,1.1,1.35Z"/>
          <path class="cls-4" d="M442.2,64.11c.6-.1,1.18-.32,1.75-.65l-.25.8c-.03.1-.14.62-.32,1.55-.18.94-.28,1.54-.28,1.8v18.11l1.2,1.95c.8,1.3,1.2,2.53,1.2,3.7,0,1.27-.47,2.4-1.4,3.4-.93,1-2.16,1.78-3.67,2.35-1.52.57-2.95.99-4.3,1.25-1.35.27-2.75.4-4.22.4-4.73,0-7.49-.16-8.29-.48-.8-.32-1.38-.58-1.72-.8-.35-.22-.72-.52-1.1-.9-.38-.38-.57-.91-.57-1.58,0-.97.35-1.61,1.05-1.93.7-.32,1.28-.48,1.75-.48.33,0,.71.03,1.12.1.42.07,1.08.37,2,.92.91.55,1.74,1.07,2.47,1.55.73.48,1.24.77,1.52.85.28.08.74.13,1.37.13.37,0,.75-.02,1.15-.05.4-.03.96-.16,1.67-.38.71-.22,1.37-.71,1.97-1.48.6-.77.9-1.53.9-2.3,0-.33-.08-.63-.25-.9l-.75-1.05-.95-1.25-.2-.3-.5-.65c-1.07,1.37-2.13,2.15-3.18,2.35-1.05.2-1.78.3-2.18.3-2.2,0-4.15-1.01-5.85-3.03-1.7-2.02-2.64-3.98-2.83-5.9-.18-1.92-.27-2.99-.27-3.2v-.47c0-.3.02-.64.05-1.03.03-.38.11-1.2.22-2.45.12-1.25.7-2.83,1.75-4.73,1.05-1.9,2.23-3.31,3.55-4.23,1.32-.92,2.59-1.54,3.8-1.85,1.22-.32,2.69-.47,4.43-.47,1.07,0,2.39.2,3.98.6,1.58.4,2.51.6,2.78.6h.55c.37-.1.65-.17.85-.2ZM434.8,68.81c0-.3-.13-.74-.4-1.3l-.5-.7c-.4-.5-.93-.75-1.6-.75-.93,0-1.6.36-2,1.07-.4.72-.67,1.32-.8,1.8-.14.48-.26,1.16-.38,2.03-.12.87-.17,2-.17,3.4,0,3.24.22,5.6.65,7.1.43,1.5,1.07,2.59,1.9,3.25.5.33.95.5,1.35.5.7,0,1.18-.23,1.45-.7.27-.47.42-.95.45-1.45.03-.5.05-1.05.05-1.65v-12.61Z"/>
        </g>
        <g>
          <g>
            <path class="cls-4" d="M11.93,87.39c-1.86-.7-3.52-1.72-4.92-2.99-3.23-2.91-5.13-7.1-5.01-11.51.13-4.47,2.33-8.62,5.84-11.34.99-.77,2.09-1.43,3.28-1.95,9.68,14.15.81,27.79.81,27.79Z"/>
            <path class="cls-1" d="M11.93,87.39c-1.86-.7-3.52-1.72-4.92-2.99.32-3.45.57-7.08.72-10.88.16-4.19.19-8.18.11-11.97.99-.77,2.09-1.43,3.28-1.95.27,9.26.54,18.53.81,27.79Z"/>
          </g>
          <g>
            <path class="cls-5" d="M69.71,48.13c-2.73,0-5.27,1.16-7.37,3.63h0c-.93,1.09-1.77,2.42-2.51,4.03-2.06,4.47-3.31,10.98-3.31,19.82,0,5.67.77,13.08,1.96,20.71,2.85,18.23,8.13,37.72,11.22,37.72,3.46,0,8.68-19.87,11.39-38.25,1.1-7.44,1.79-14.64,1.79-20.18,0-19.21-5.9-27.49-13.18-27.49Z"/>
            <path class="cls-5" d="M127.65,73.77c.02,13.3-4.62,26.37-15.86,32.12-10.6,6.35-29.03,5.72-43.06,5.75-14.04-.03-32.47.6-43.07-5.75-11.23-5.76-14.64-18.5-13.25-31.55-1.38-13.05,2.02-25.79,13.25-31.55,10.6-6.35,29.03-5.72,43.06-5.75,14.04.03,32.46-.6,43.06,5.75,11.23,5.75,16.15,17.28,15.85,30.98Z"/>
          </g>
          <path class="cls-3" d="M66.85,45.26c-2.73,0-5.27,1.16-7.37,3.63h0c-.93,1.09-1.77,2.42-2.5,4.03h0c-2.06,4.47-3.31,10.98-3.31,19.82,0,5.67.77,13.08,1.96,20.71,2.85,18.23,8.13,37.72,11.22,37.72,3.46,0,8.68-19.87,11.39-38.25,1.1-7.44,1.79-14.64,1.79-20.18,0-19.21-5.9-27.49-13.18-27.49ZM67.3,101.64c-.73,0-1.32-1.56-1.32-3.48s.59-3.48,1.32-3.48,1.32,1.56,1.32,3.48-.59,3.48-1.32,3.48ZM76.2,87.38c-2.11,2.28-6.14,2.28-9.34,2.28s-7.23,0-9.34-2.28c-2.11-2.28-2.98-16.27-2.02-20.93.96-4.66,6.42-7.81,11.37-7.81s10.41,3.15,11.37,7.81c.96,4.66.08,18.65-2.02,20.93Z"/>
          <path class="cls-3" d="M122.36,71.48c.29,13.66-2.02,25.79-13.25,31.55-10.6,6.35-29.03,5.72-43.06,5.75-14.04-.03-32.47.6-43.07-5.75-11.23-5.76-13.34-18.14-13.25-31.55.09-14.44,2.02-25.79,13.25-31.55,10.6-6.35,29.03-5.72,43.07-5.75,14.04.03,32.47-.6,43.06,5.75,11.23,5.76,12.95,17.12,13.25,31.55Z"/>
          <path class="cls-4" d="M109.25,71.89c0,16.16-9.95,29.27-22.24,29.27h-40.31c-12.28,0-22.24-13.1-22.24-29.27h0c0-16.16,9.96-29.26,22.24-29.26h40.31c12.28,0,22.24,13.1,22.24,29.26h0Z"/>
          <path class="cls-6" d="M74.8,82.03c0,4.47-3.62,8.09-8.09,8.09s-8.09-3.62-8.09-8.09h16.17Z"/>
          <g>
            <g>
              <path class="cls-4" d="M53.55,23.15c-.11,0-.23-.03-.33-.08-3.95-2.1-6.39-6.18-6.39-10.65s2.17-8.11,5.82-10.32c.34-.2.77-.1.98.24.2.34.1.77-.24.98-3.22,1.95-5.13,5.35-5.13,9.1,0,3.94,2.16,7.54,5.64,9.39.35.18.48.61.29.96-.13.24-.37.38-.63.38Z"/>
              <path class="cls-4" d="M54.63,18.99c-.17,0-.34-.06-.47-.18-1.92-1.71-2.98-3.92-2.98-6.21s1.08-4.54,3.03-6.26c.3-.26.74-.23,1,.06.26.29.23.74-.06,1-1.65,1.45-2.55,3.29-2.55,5.19s.89,3.71,2.51,5.15c.29.26.32.71.06,1-.14.16-.33.24-.53.24Z"/>
            </g>
            <g>
              <path class="cls-4" d="M78.99,23.15c.11,0,.23-.03.33-.08,3.95-2.1,6.39-6.18,6.39-10.65s-2.17-8.11-5.82-10.32c-.34-.2-.77-.1-.98.24-.2.34-.1.77.24.98,3.21,1.95,5.13,5.35,5.13,9.1,0,3.94-2.16,7.54-5.64,9.39-.35.18-.48.61-.29.96.13.24.37.38.63.38Z"/>
              <path class="cls-4" d="M77.91,18.99c.17,0,.34-.06.47-.18,1.92-1.71,2.98-3.92,2.98-6.21s-1.08-4.54-3.03-6.26c-.3-.26-.74-.23-1,.06-.26.29-.23.74.06,1,1.64,1.45,2.55,3.29,2.55,5.19s-.89,3.71-2.51,5.15c-.29.26-.32.71-.06,1,.14.16.33.24.53.24Z"/>
            </g>
            <path class="cls-4" d="M69.69,33.9c0,1.68-1.36,3.04-3.04,3.04h0c-1.68,0-3.04-1.36-3.04-3.04l1.94-16.16c0-1.68-.58-3.04,1.11-3.04h0c1.68,0,1.11,1.36,1.11,3.04l1.94,16.16Z"/>
            <path class="cls-4" d="M66.19,5.91h.9c3.43,0,6.22,2.79,6.22,6.22v.9c0,3.43-2.78,6.21-6.21,6.21h-.9c-3.43,0-6.21-2.78-6.21-6.21v-.9c0-3.43,2.79-6.22,6.22-6.22Z"/>
          </g>
          <path class="cls-6" d="M54.67,68.55c0,1.77-1.43,3.2-3.2,3.2h0c-1.77,0-3.2-1.43-3.2-3.2v-8.29c0-1.77,1.43-3.2,3.2-3.2h0c1.77,0,3.2,1.43,3.2,3.2v8.29Z"/>
          <path class="cls-6" d="M83.44,68.55c0,1.77-1.43,3.2-3.2,3.2h0c-1.77,0-3.2-1.43-3.2-3.2v-8.29c0-1.77,1.43-3.2,3.2-3.2h0c1.77,0,3.2,1.43,3.2,3.2v8.29Z"/>
          <g>
            <path class="cls-4" d="M128.39,64.28c-.32,3.45-.57,7.08-.72,10.88-.16,4.19-.19,8.18-.11,11.97,3.51-2.73,5.71-6.87,5.84-11.34.12-4.41-1.77-8.6-5.01-11.51Z"/>
            <path class="cls-1" d="M128.39,64.28c-.74-.67-1.05-.96-1.93-1.48-.78-.46-5,11.93-.51,25.42,1.19-.52.61-.32,1.6-1.09-.08-3.79-.05-7.78.11-11.97.15-3.8.4-7.43.72-10.88Z"/>
          </g>
        </g>
      </g>
    </g>
  </g>
</svg>