<?xml version="1.0" encoding="UTF-8"?>
<svg xmlns="http://www.w3.org/2000/svg" version="1.1" viewBox="0 0 580.9 143.5">
  <defs>
    <style>
      .cls-1 {
        fill: none;
        stroke: #fff;
        stroke-miterlimit: 10;
        stroke-width: 5.2px;
      }

      .cls-2 {
        fill: #24345d;
      }

      .cls-3 {
        fill: #fff;
      }

      .cls-4 {
        fill: #aeb3b8;
      }

      .cls-5 {
        fill: #314675;
      }

      .cls-6 {
        fill: #4dbcbc;
      }

      .cls-7 {
        fill: #e2e3e3;
      }
    </style>
  </defs>
  <!-- Generator: Adobe Illustrator 28.7.7, SVG Export Plug-In . SVG Version: 1.2.0 Build 194)  -->
  <g>
    <g id="_圖層_1" data-name="圖層_1">
      <g>
        <g>
          <path class="cls-5" d="M12.2,92.3c-1.9-.7-3.7-1.8-5.2-3.1-3.4-3-5.4-7.4-5.2-12.1.1-4.7,2.4-9,6.1-11.9,1-.8,2.2-1.5,3.4-2,10.1,14.8.8,29.1.8,29.1h0Z"/>
          <path class="cls-2" d="M12.2,92.3c-1.9-.7-3.7-1.8-5.2-3.1.3-3.6.6-7.4.8-11.4.2-4.4.2-8.6,0-12.5,1-.8,2.2-1.5,3.4-2,.3,9.7.6,19.4.8,29.1h.2Z"/>
        </g>
        <g>
          <path class="cls-4" d="M72.8,51.2c-2.9,0-5.5,1.2-7.7,3.8h0c-1,1.1-1.9,2.5-2.6,4.2-2.2,4.7-3.5,11.5-3.5,20.8s.8,13.7,2.1,21.7c3,19.1,8.5,39.5,11.8,39.5s9.1-20.8,11.9-40.1c1.2-7.8,1.9-15.3,1.9-21.1,0-20.1-6.2-28.8-13.8-28.8h-.1Z"/>
          <path class="cls-4" d="M133.5,78c0,13.9-4.8,27.6-16.6,33.6-11.1,6.7-30.4,6-45.1,6s-34,.6-45.1-6c-11.8-6-15.3-19.4-13.9-33-1.5-13.7,2.1-27,13.9-33,11.1-6.7,30.4-6,45.1-6s34-.6,45.1,6c11.8,6,16.9,18.1,16.6,32.4Z"/>
        </g>
        <path class="cls-7" d="M69.8,48.2c-2.9,0-5.5,1.2-7.7,3.8h0c-1,1.1-1.9,2.5-2.6,4.2h0c-2.2,4.7-3.5,11.5-3.5,20.8s.8,13.7,2.1,21.7c3,19.1,8.5,39.5,11.8,39.5s9.1-20.8,11.9-40.1c1.2-7.8,1.9-15.3,1.9-21.1,0-20.1-6.2-28.8-13.8-28.8h0ZM70.2,107.2c-.8,0-1.4-1.6-1.4-3.6s.6-3.6,1.4-3.6,1.4,1.6,1.4,3.6-.6,3.6-1.4,3.6ZM79.6,92.3c-2.2,2.4-6.4,2.4-9.8,2.4s-7.6,0-9.8-2.4-3.1-17-2.1-21.9,6.7-8.2,11.9-8.2,10.9,3.3,11.9,8.2,0,19.5-2.1,21.9Z"/>
        <path class="cls-7" d="M127.9,75.7c.3,14.3-2.1,27-13.9,33.1-11.1,6.7-30.4,6-45.1,6s-34,.6-45.1-6c-11.8-6-14-19-13.9-33,0-15.1,2.1-27,13.9-33,11.1-6.7,30.4-6,45.1-6s34-.6,45.1,6c11.8,6,13.6,17.9,13.9,33h0Z"/>
        <path class="cls-5" d="M114.2,76.1c0,16.9-10.4,30.7-23.3,30.7h-42.2c-12.9,0-23.3-13.7-23.3-30.7h0c0-16.9,10.4-30.7,23.3-30.7h42.2c12.9,0,23.3,13.7,23.3,30.7h0Z"/>
        <path class="cls-6" d="M78.1,86.7c0,4.7-3.8,8.5-8.5,8.5s-8.5-3.8-8.5-8.5h17Z"/>
        <g>
          <g>
            <path class="cls-5" d="M55.8,25h-.3c-4.1-2.2-6.7-6.5-6.7-11.2s2.3-8.5,6.1-10.8c.4-.2.8,0,1,.3.2.4,0,.8-.3,1-3.4,2-5.4,5.6-5.4,9.5s2.3,7.9,5.9,9.8c.4.2.5.6.3,1,0,.2-.4.4-.7.4h.1Z"/>
            <path class="cls-5" d="M57,20.7c-.2,0-.4,0-.5-.2-2-1.8-3.1-4.1-3.1-6.5s1.1-4.8,3.2-6.6c.3-.3.8-.2,1.1,0,.3.3.2.8,0,1-1.7,1.5-2.7,3.4-2.7,5.4s.9,3.9,2.6,5.4c.3.3.3.7,0,1,0,.2-.3.2-.6.2v.3Z"/>
          </g>
          <g>
            <path class="cls-5" d="M82.5,25h.3c4.1-2.2,6.7-6.5,6.7-11.2s-2.3-8.5-6.1-10.8c-.4-.2-.8,0-1,.3-.2.4,0,.8.3,1,3.4,2,5.4,5.6,5.4,9.5s-2.3,7.9-5.9,9.8c-.4.2-.5.6-.3,1,0,.2.4.4.7.4h0Z"/>
            <path class="cls-5" d="M81.4,20.7c.2,0,.4,0,.5-.2,2-1.8,3.1-4.1,3.1-6.5s-1.1-4.8-3.2-6.6c-.3-.3-.8-.2-1,0-.3.3-.2.8,0,1,1.7,1.5,2.7,3.4,2.7,5.4s-.9,3.9-2.6,5.4c-.3.3-.3.7,0,1,0,.2.3.2.6.2v.3h0Z"/>
          </g>
          <path class="cls-5" d="M72.7,36.3c0,1.8-1.4,3.2-3.2,3.2h0c-1.8,0-3.2-1.4-3.2-3.2l2-16.9c0-1.8-.6-3.2,1.2-3.2h0c1.8,0,1.2,1.4,1.2,3.2l2,16.9Z"/>
          <path class="cls-5" d="M69.1,7h.9c3.6,0,6.5,2.9,6.5,6.5v.9c0,3.6-2.9,6.5-6.5,6.5h-.9c-3.6,0-6.5-2.9-6.5-6.5v-.9c0-3.6,2.9-6.5,6.5-6.5Z"/>
        </g>
        <path class="cls-6" d="M57,72.6c0,1.9-1.5,3.4-3.4,3.4h0c-1.9,0-3.4-1.5-3.4-3.4v-8.7c0-1.9,1.5-3.4,3.4-3.4h0c1.9,0,3.4,1.5,3.4,3.4v8.7Z"/>
        <path class="cls-6" d="M87.2,72.6c0,1.9-1.5,3.4-3.4,3.4h0c-1.9,0-3.4-1.5-3.4-3.4v-8.7c0-1.9,1.5-3.4,3.4-3.4h0c1.9,0,3.4,1.5,3.4,3.4v8.7Z"/>
        <g>
          <path class="cls-5" d="M134.2,68.1c-.3,3.6-.6,7.4-.8,11.4-.2,4.4-.2,8.6-.1,12.5,3.7-2.9,6-7.2,6.1-11.9.1-4.6-1.9-9-5.2-12.1h0Z"/>
          <path class="cls-2" d="M134.2,68.1c-.8-.7-1.1-1-2-1.6-.8-.5-5.2,12.5-.5,26.6,1.2-.5.6-.3,1.7-1.1,0-4,0-8.2.1-12.5.2-4,.4-7.8.8-11.4h-.1Z"/>
        </g>
      </g>
      <g>
        <g>
          <g>
            <path class="cls-6" d="M171.1,96.7c-2.9,0-5.5-.8-7.9-2.4-1.2-1-1.3-2.1-.3-3.2,1.1-1.3,2.3-1.4,3.7-.4,1.6.9,3.2,1.4,4.7,1.4s2.4-.3,3.1-.8c.7-.5,1.1-1.3,1.1-2.2s-.3-1.6-1-2.1c-.4-.3-1.3-.8-2.7-1.4h-.3l-3.6-1.5c-3.6-1.5-5.4-3.9-5.4-7.2s.9-4,2.6-5.5c1.7-1.5,3.9-2.2,6.6-2.2s4.8.7,6.8,2.1c1,.9,1.1,1.8.2,2.9-1,1.2-2,1.3-3.2.5-1.2-.6-2.4-.9-3.8-.9s-2.1.3-2.8.8-1,1.2-1,2,.4,1.5,1.2,2.1c.5.4,1.4.8,2.8,1.3h.3l3.5,1.5c1.7.7,3,1.6,3.9,2.7,1,1.2,1.5,2.7,1.5,4.6s-.9,4.1-2.6,5.6c-1.8,1.6-4.2,2.4-7.2,2.4h-.2Z"/>
            <path class="cls-1" d="M171.1,96.7c-2.9,0-5.5-.8-7.9-2.4-1.2-1-1.3-2.1-.3-3.2,1.1-1.3,2.3-1.4,3.7-.4,1.6.9,3.2,1.4,4.7,1.4s2.4-.3,3.1-.8c.7-.5,1.1-1.3,1.1-2.2s-.3-1.6-1-2.1c-.4-.3-1.3-.8-2.7-1.4h-.3l-3.6-1.5c-3.6-1.5-5.4-3.9-5.4-7.2s.9-4,2.6-5.5c1.7-1.5,3.9-2.2,6.6-2.2s4.8.7,6.8,2.1c1,.9,1.1,1.8.2,2.9-1,1.2-2,1.3-3.2.5-1.2-.6-2.4-.9-3.8-.9s-2.1.3-2.8.8-1,1.2-1,2,.4,1.5,1.2,2.1c.5.4,1.4.8,2.8,1.3h.3l3.5,1.5c1.7.7,3,1.6,3.9,2.7,1,1.2,1.5,2.7,1.5,4.6s-.9,4.1-2.6,5.6c-1.8,1.6-4.2,2.4-7.2,2.4h-.2Z"/>
          </g>
          <g>
            <path class="cls-5" d="M187.8,96.2c-1.7,0-2.6-.9-2.6-2.6v-15.3c0-1.4.8-2.2,2.3-2.2s2.1.6,2.3,1.9v.8h.3c1-1,1.9-1.8,2.7-2.3,1.1-.6,2.3-.9,3.5-.9,2.7,0,4.5,1.2,5.5,3.5,1.1-1.1,2-2,2.9-2.5,1.1-.7,2.3-1,3.5-1,2.1,0,3.7.7,4.7,2.2,1,1.4,1.5,3.3,1.5,5.9v9.9c0,1.7-.9,2.6-2.6,2.6s-2.7-.9-2.7-2.6v-9.3c0-1.5-.2-2.6-.7-3.3-.4-.6-1.1-.9-2.1-.9s-2.4.8-3.9,2.3v11.2c0,1.7-.9,2.6-2.6,2.6s-2.7-.9-2.7-2.6v-9.3c0-1.5-.2-2.6-.7-3.3-.4-.6-1.1-.9-2.1-.9s-2.4.8-3.9,2.3v11.2c0,1.7-.9,2.6-2.6,2.6h0Z"/>
            <path class="cls-1" d="M187.8,96.2c-1.7,0-2.6-.9-2.6-2.6v-15.3c0-1.4.8-2.2,2.3-2.2s2.1.6,2.3,1.9v.8h.3c1-1,1.9-1.8,2.7-2.3,1.1-.6,2.3-.9,3.5-.9,2.7,0,4.5,1.2,5.5,3.5,1.1-1.1,2-2,2.9-2.5,1.1-.7,2.3-1,3.5-1,2.1,0,3.7.7,4.7,2.2,1,1.4,1.5,3.3,1.5,5.9v9.9c0,1.7-.9,2.6-2.6,2.6s-2.7-.9-2.7-2.6v-9.3c0-1.5-.2-2.6-.7-3.3-.4-.6-1.1-.9-2.1-.9s-2.4.8-3.9,2.3v11.2c0,1.7-.9,2.6-2.6,2.6s-2.7-.9-2.7-2.6v-9.3c0-1.5-.2-2.6-.7-3.3-.4-.6-1.1-.9-2.1-.9s-2.4.8-3.9,2.3v11.2c0,1.7-.9,2.6-2.6,2.6h0Z"/>
          </g>
          <g>
            <path class="cls-5" d="M224.8,96.7c-1.8,0-3.2-.6-4.3-1.7s-1.7-2.6-1.7-4.3.9-3.8,2.7-5,4.8-2,8.8-2.4c0-2.3-1.2-3.5-3.4-3.5s-2.3.3-3.6.9-2.2.4-2.9-.8c-.6-1.1-.4-2,.7-2.6,2.3-1.2,4.5-1.8,6.8-1.8s4.5.7,5.8,2.2,2,3.7,2,6.6v9.6c0,1.4-.8,2.2-2.3,2.2s-2.1-.6-2.4-1.9v-.3h-.1c-2.1,1.8-4.1,2.7-6.1,2.7h0ZM226.5,92.6c1.3,0,2.6-.7,3.9-2v-4.1c-2.3.3-4,.8-5.1,1.4-1,.6-1.4,1.4-1.4,2.3,0,1.5.9,2.3,2.7,2.3h0Z"/>
            <path class="cls-1" d="M224.8,96.7c-1.8,0-3.2-.6-4.3-1.7s-1.7-2.6-1.7-4.3.9-3.8,2.7-5,4.8-2,8.8-2.4c0-2.3-1.2-3.5-3.4-3.5s-2.3.3-3.6.9-2.2.4-2.9-.8c-.6-1.1-.4-2,.7-2.6,2.3-1.2,4.5-1.8,6.8-1.8s4.5.7,5.8,2.2,2,3.7,2,6.6v9.6c0,1.4-.8,2.2-2.3,2.2s-2.1-.6-2.4-1.9v-.3h-.1c-2.1,1.8-4.1,2.7-6.1,2.7h0ZM226.5,92.6c1.3,0,2.6-.7,3.9-2v-4.1c-2.3.3-4,.8-5.1,1.4-1,.6-1.4,1.4-1.4,2.3,0,1.5.9,2.3,2.7,2.3h0Z"/>
          </g>
          <g>
            <path class="cls-5" d="M243.7,96.2c-1.7,0-2.6-.9-2.6-2.6v-15.3c0-1.4.7-2.2,2.2-2.2s2.2.7,2.3,2v1.6h.3c.7-1.3,1.6-2.3,2.6-3s2-1,3.1-1h.5c.6,0,1.1.5,1.3,1s.3,1.1.1,1.8c-.3,1.5-1.2,2.2-2.5,1.9h0c-.9,0-1.7.3-2.5.9-.9.7-1.6,1.7-2.2,3.1v9.4c0,1.7-.9,2.6-2.6,2.6v-.2h0Z"/>
            <path class="cls-1" d="M243.7,96.2c-1.7,0-2.6-.9-2.6-2.6v-15.3c0-1.4.7-2.2,2.2-2.2s2.2.7,2.3,2v1.6h.3c.7-1.3,1.6-2.3,2.6-3s2-1,3.1-1h.5c.6,0,1.1.5,1.3,1s.3,1.1.1,1.8c-.3,1.5-1.2,2.2-2.5,1.9h0c-.9,0-1.7.3-2.5.9-.9.7-1.6,1.7-2.2,3.1v9.4c0,1.7-.9,2.6-2.6,2.6v-.2h0Z"/>
          </g>
          <g>
            <path class="cls-5" d="M264.1,96.7c-4.4,0-6.6-2.5-6.6-7.5v-8.9h-.9c-1.3,0-1.9-.7-1.9-2s.6-2,1.8-2h1.3l.4-3.5c.1-1.4.9-2,2.3-2s2.3.7,2.3,2.2v3.2h2.9c1.4,0,2.1.7,2.1,2.1s-.7,2.1-2.1,2.1h-2.9v8.9c0,2.3.9,3.4,2.7,3.4h0c1.2-.3,2,.2,2.3,1.5.3,1.2-.1,2-1.2,2.3-.9.2-1.8.3-2.7.3h.2Z"/>
            <path class="cls-1" d="M264.1,96.7c-4.4,0-6.6-2.5-6.6-7.5v-8.9h-.9c-1.3,0-1.9-.7-1.9-2s.6-2,1.8-2h1.3l.4-3.5c.1-1.4.9-2,2.3-2s2.3.7,2.3,2.2v3.2h2.9c1.4,0,2.1.7,2.1,2.1s-.7,2.1-2.1,2.1h-2.9v8.9c0,2.3.9,3.4,2.7,3.4h0c1.2-.3,2,.2,2.3,1.5.3,1.2-.1,2-1.2,2.3-.9.2-1.8.3-2.7.3h.2Z"/>
          </g>
          <g>
            <path class="cls-6" d="M279.5,96.2c-1.8,0-2.7-.9-2.7-2.7v-19.5h-5.3c-1.5,0-2.2-.7-2.2-2.2s.7-2.2,2.2-2.2h16c1.5,0,2.2.7,2.2,2.2s-.7,2.2-2.2,2.2h-5.4v19.5c0,1.8-.9,2.7-2.7,2.7h.1Z"/>
            <path class="cls-1" d="M279.5,96.2c-1.8,0-2.7-.9-2.7-2.7v-19.5h-5.3c-1.5,0-2.2-.7-2.2-2.2s.7-2.2,2.2-2.2h16c1.5,0,2.2.7,2.2,2.2s-.7,2.2-2.2,2.2h-5.4v19.5c0,1.8-.9,2.7-2.7,2.7h.1Z"/>
          </g>
          <g>
            <path class="cls-5" d="M295.9,96.7c-1.8,0-3.2-.6-4.3-1.7-1.1-1.1-1.7-2.6-1.7-4.3s.9-3.8,2.7-5,4.8-2,8.8-2.4c0-2.3-1.2-3.5-3.4-3.5s-2.3.3-3.6.9c-1.3.6-2.2.4-2.9-.8-.6-1.1-.4-2,.7-2.6,2.3-1.2,4.5-1.8,6.8-1.8s4.5.7,5.8,2.2,2,3.7,2,6.6v9.6c0,1.4-.8,2.2-2.3,2.2s-2.1-.6-2.4-1.9v-.3h-.1c-2.1,1.8-4.1,2.7-6.1,2.7h0ZM297.6,92.6c1.3,0,2.6-.7,3.9-2v-4.1c-2.3.3-4,.8-5.1,1.4-1,.6-1.4,1.4-1.4,2.3,0,1.5.9,2.3,2.7,2.3h-.1Z"/>
            <path class="cls-1" d="M295.9,96.7c-1.8,0-3.2-.6-4.3-1.7-1.1-1.1-1.7-2.6-1.7-4.3s.9-3.8,2.7-5,4.8-2,8.8-2.4c0-2.3-1.2-3.5-3.4-3.5s-2.3.3-3.6.9c-1.3.6-2.2.4-2.9-.8-.6-1.1-.4-2,.7-2.6,2.3-1.2,4.5-1.8,6.8-1.8s4.5.7,5.8,2.2,2,3.7,2,6.6v9.6c0,1.4-.8,2.2-2.3,2.2s-2.1-.6-2.4-1.9v-.3h-.1c-2.1,1.8-4.1,2.7-6.1,2.7h0ZM297.6,92.6c1.3,0,2.6-.7,3.9-2v-4.1c-2.3.3-4,.8-5.1,1.4-1,.6-1.4,1.4-1.4,2.3,0,1.5.9,2.3,2.7,2.3h-.1Z"/>
          </g>
          <g>
            <path class="cls-5" d="M317.1,96.7c-3.3,0-5-2-5-6.1v-20.4c0-1.7.9-2.6,2.6-2.6s2.6.9,2.6,2.6v20.7c0,1.1.4,1.6,1.1,1.6h0c.2,0,.4,0,.5.3.1.2.2.4.3.7.1.7.1,1.3,0,1.9-.2.7-.5,1.2-1,1.3h-1.3.2,0Z"/>
            <path class="cls-1" d="M317.1,96.7c-3.3,0-5-2-5-6.1v-20.4c0-1.7.9-2.6,2.6-2.6s2.6.9,2.6,2.6v20.7c0,1.1.4,1.6,1.1,1.6h0c.2,0,.4,0,.5.3.1.2.2.4.3.7.1.7.1,1.3,0,1.9-.2.7-.5,1.2-1,1.3h-1.3.2,0Z"/>
          </g>
          <g>
            <path class="cls-5" d="M326.1,96.2c-1.7,0-2.6-.8-2.6-2.6v-23.6c0-1.7.9-2.6,2.6-2.6s2.6.8,2.6,2.6v14.7h.1l6.1-7.6c.6-.7,1.4-1.1,2.3-1.1h3c.4,0,.7,0,.7.3s0,.4-.3.7l-6.1,7.2,5.9,9.3c.5.8.7,1.4.4,1.9-.3.5-.9.7-1.8.7h-1c-.5,0-.9,0-1.4-.4-.4-.3-.8-.6-1.1-1l-4.1-6.9-2.9,3.3v2.5c0,1.7-.9,2.6-2.6,2.6h.2,0Z"/>
            <path class="cls-1" d="M326.1,96.2c-1.7,0-2.6-.8-2.6-2.6v-23.6c0-1.7.9-2.6,2.6-2.6s2.6.8,2.6,2.6v14.7h.1l6.1-7.6c.6-.7,1.4-1.1,2.3-1.1h3c.4,0,.7,0,.7.3s0,.4-.3.7l-6.1,7.2,5.9,9.3c.5.8.7,1.4.4,1.9-.3.5-.9.7-1.8.7h-1c-.5,0-.9,0-1.4-.4-.4-.3-.8-.6-1.1-1l-4.1-6.9-2.9,3.3v2.5c0,1.7-.9,2.6-2.6,2.6h.2,0Z"/>
          </g>
          <g>
            <path class="cls-5" d="M347.9,72.8c-.9,0-1.7-.3-2.3-.8-.6-.5-.9-1.2-.9-2.1s.3-1.6.9-2.1,1.4-.8,2.3-.8,1.7.3,2.2.8c.6.5.9,1.2.9,2.1s-.3,1.5-.9,2.1-1.3.8-2.2.8ZM347.9,96.2c-1.7,0-2.6-.9-2.6-2.6v-14.9c0-1.7.9-2.6,2.6-2.6s2.6.9,2.6,2.6v14.9c0,1.7-.9,2.6-2.6,2.6Z"/>
            <path class="cls-1" d="M347.9,72.8c-.9,0-1.7-.3-2.3-.8-.6-.5-.9-1.2-.9-2.1s.3-1.6.9-2.1,1.4-.8,2.3-.8,1.7.3,2.2.8c.6.5.9,1.2.9,2.1s-.3,1.5-.9,2.1-1.3.8-2.2.8ZM347.9,96.2c-1.7,0-2.6-.9-2.6-2.6v-14.9c0-1.7.9-2.6,2.6-2.6s2.6.9,2.6,2.6v14.9c0,1.7-.9,2.6-2.6,2.6Z"/>
          </g>
          <g>
            <path class="cls-5" d="M358.8,96.2c-1.7,0-2.6-.9-2.6-2.6v-15.3c0-1.4.8-2.2,2.3-2.2s2.1.6,2.3,1.9v.7h.3c2.2-2.1,4.3-3.2,6.5-3.2,4.1,0,6.2,2.7,6.2,8.1v9.9c0,1.7-.9,2.6-2.6,2.6s-2.7-.9-2.7-2.6v-9.3c0-1.5-.2-2.6-.7-3.3-.4-.6-1.2-1-2.2-1s-1.5.2-2.2.6c-.5.3-1.2.9-2,1.7v11.2c0,1.7-.9,2.6-2.6,2.6v.2h0Z"/>
            <path class="cls-1" d="M358.8,96.2c-1.7,0-2.6-.9-2.6-2.6v-15.3c0-1.4.8-2.2,2.3-2.2s2.1.6,2.3,1.9v.7h.3c2.2-2.1,4.3-3.2,6.5-3.2,4.1,0,6.2,2.7,6.2,8.1v9.9c0,1.7-.9,2.6-2.6,2.6s-2.7-.9-2.7-2.6v-9.3c0-1.5-.2-2.6-.7-3.3-.4-.6-1.2-1-2.2-1s-1.5.2-2.2.6c-.5.3-1.2.9-2,1.7v11.2c0,1.7-.9,2.6-2.6,2.6v.2h0Z"/>
          </g>
          <g>
            <path class="cls-5" d="M386.3,104.9c-2.5,0-4.5-.4-6-1.3-1.6-.9-2.4-2.2-2.4-3.9s1-3.1,2.9-4.2v-.2c-1.2-.8-1.8-1.9-1.8-3.4s.2-1.4.7-2.1c.4-.6.9-1.2,1.5-1.7h0c-.7-.7-1.4-1.4-1.8-2.3-.6-1-.8-2-.8-3.1,0-2.3.8-4.1,2.4-5.4,1.5-1.2,3.4-1.9,5.7-1.9s2.1.2,3,.5h5.3c1.3,0,1.9.6,1.9,1.9s-.6,1.9-1.9,1.9h-1.5c.6.8.9,1.8.9,3.1,0,2.2-.8,3.9-2.3,5.1-1.4,1.2-3.2,1.7-5.5,1.7s-1.7-.2-2.6-.5c-.6.5-.9,1-.9,1.7s.2,1,.7,1.2c.5.3,1.3.4,2.5.4h3.4c5,0,7.5,1.7,7.5,5s-1,3.8-2.9,5.1c-2,1.4-4.7,2-8,2v.4h0ZM387.1,101.6c1.5,0,2.7-.3,3.7-.9.9-.6,1.4-1.2,1.4-2.1s-.3-1.2-.9-1.4c-.5-.2-1.3-.4-2.5-.4h-2.4c-1.1,0-2,0-2.8-.3-.9.7-1.3,1.5-1.3,2.3s.4,1.5,1.3,2,2,.7,3.5.7h0ZM386.6,86.6c.9,0,1.7-.3,2.2-1,.6-.7.9-1.6.9-2.7s-.3-2.1-.9-2.7-1.3-1-2.2-1-1.7.3-2.3,1c-.6.7-.9,1.6-.9,2.7s.3,2.1.9,2.7,1.3,1,2.2,1h0Z"/>
            <path class="cls-1" d="M386.3,104.9c-2.5,0-4.5-.4-6-1.3-1.6-.9-2.4-2.2-2.4-3.9s1-3.1,2.9-4.2v-.2c-1.2-.8-1.8-1.9-1.8-3.4s.2-1.4.7-2.1c.4-.6.9-1.2,1.5-1.7h0c-.7-.7-1.4-1.4-1.8-2.3-.6-1-.8-2-.8-3.1,0-2.3.8-4.1,2.4-5.4,1.5-1.2,3.4-1.9,5.7-1.9s2.1.2,3,.5h5.3c1.3,0,1.9.6,1.9,1.9s-.6,1.9-1.9,1.9h-1.5c.6.8.9,1.8.9,3.1,0,2.2-.8,3.9-2.3,5.1-1.4,1.2-3.2,1.7-5.5,1.7s-1.7-.2-2.6-.5c-.6.5-.9,1-.9,1.7s.2,1,.7,1.2c.5.3,1.3.4,2.5.4h3.4c5,0,7.5,1.7,7.5,5s-1,3.8-2.9,5.1c-2,1.4-4.7,2-8,2v.4h0ZM387.1,101.6c1.5,0,2.7-.3,3.7-.9.9-.6,1.4-1.2,1.4-2.1s-.3-1.2-.9-1.4c-.5-.2-1.3-.4-2.5-.4h-2.4c-1.1,0-2,0-2.8-.3-.9.7-1.3,1.5-1.3,2.3s.4,1.5,1.3,2,2,.7,3.5.7h0ZM386.6,86.6c.9,0,1.7-.3,2.2-1,.6-.7.9-1.6.9-2.7s-.3-2.1-.9-2.7-1.3-1-2.2-1-1.7.3-2.3,1c-.6.7-.9,1.6-.9,2.7s.3,2.1.9,2.7,1.3,1,2.2,1h0Z"/>
          </g>
          <g>
            <path class="cls-5" d="M401.4,87.8c-1.2,0-1.9-.6-1.9-1.9s.6-1.9,1.9-1.9h6.1c1.2,0,1.9.6,1.9,1.9s-.6,1.9-1.9,1.9h-6.1Z"/>
            <path class="cls-1" d="M401.4,87.8c-1.2,0-1.9-.6-1.9-1.9s.6-1.9,1.9-1.9h6.1c1.2,0,1.9.6,1.9,1.9s-.6,1.9-1.9,1.9h-6.1Z"/>
          </g>
          <g>
            <path class="cls-6" d="M416.8,96.2c-1.6,0-2.4-.8-2.4-2.4v-21.9c0-.7.2-1.3.6-1.7s1-.6,1.7-.6h1.7c.6,0,1.1.2,1.5.5.5.3.8.7.9,1.3l3.9,10.7c.3.8.6,1.9,1.1,3.5.2.7.4,1.3.5,1.6h.2c.2-.5.4-1.3.8-2.4.4-1.2.6-2.2.9-2.8l3.8-10.7c.2-.5.5-.9.9-1.3.5-.3,1-.5,1.5-.5h2.7c.4,0,.7,0,1,.4s.4.6.4,1v22.8c0,1.6-.8,2.4-2.4,2.4s-2.4-.8-2.4-2.4v-8.7c0-1.5.2-4.2.6-8.1v-.6h-.1l-2.2,6.3-3.6,9.7c-.2.4-.4.8-.8,1-.4.3-.8.4-1.3.4h-.1c-.9,0-1.6-.4-1.9-1.3l-3.6-9.8-2.1-6.3h-.1c0,.3,0,.7.1,1.3.4,3.6.5,6.1.5,7.5v8.7c0,1.6-.8,2.4-2.4,2.4h0Z"/>
            <path class="cls-1" d="M416.8,96.2c-1.6,0-2.4-.8-2.4-2.4v-21.9c0-.7.2-1.3.6-1.7s1-.6,1.7-.6h1.7c.6,0,1.1.2,1.5.5.5.3.8.7.9,1.3l3.9,10.7c.3.8.6,1.9,1.1,3.5.2.7.4,1.3.5,1.6h.2c.2-.5.4-1.3.8-2.4.4-1.2.6-2.2.9-2.8l3.8-10.7c.2-.5.5-.9.9-1.3.5-.3,1-.5,1.5-.5h2.7c.4,0,.7,0,1,.4s.4.6.4,1v22.8c0,1.6-.8,2.4-2.4,2.4s-2.4-.8-2.4-2.4v-8.7c0-1.5.2-4.2.6-8.1v-.6h-.1l-2.2,6.3-3.6,9.7c-.2.4-.4.8-.8,1-.4.3-.8.4-1.3.4h-.1c-.9,0-1.6-.4-1.9-1.3l-3.6-9.8-2.1-6.3h-.1c0,.3,0,.7.1,1.3.4,3.6.5,6.1.5,7.5v8.7c0,1.6-.8,2.4-2.4,2.4h0Z"/>
          </g>
          <g>
            <path class="cls-5" d="M449.6,96.7c-1.8,0-3.2-.6-4.3-1.7-1.1-1.1-1.7-2.6-1.7-4.3s.9-3.8,2.7-5,4.8-2,8.8-2.4c0-2.3-1.2-3.5-3.4-3.5s-2.3.3-3.6.9c-1.3.6-2.2.4-2.9-.8-.6-1.1-.4-2,.7-2.6,2.3-1.2,4.5-1.8,6.8-1.8s4.5.7,5.8,2.2,2,3.7,2,6.6v9.6c0,1.4-.8,2.2-2.3,2.2s-2.1-.6-2.4-1.9v-.3h-.1c-2.1,1.8-4.1,2.7-6.1,2.7h0ZM451.3,92.6c1.3,0,2.6-.7,3.9-2v-4.1c-2.3.3-4,.8-5.1,1.4-1,.6-1.4,1.4-1.4,2.3,0,1.5.9,2.3,2.7,2.3h-.1Z"/>
            <path class="cls-1" d="M449.6,96.7c-1.8,0-3.2-.6-4.3-1.7-1.1-1.1-1.7-2.6-1.7-4.3s.9-3.8,2.7-5,4.8-2,8.8-2.4c0-2.3-1.2-3.5-3.4-3.5s-2.3.3-3.6.9c-1.3.6-2.2.4-2.9-.8-.6-1.1-.4-2,.7-2.6,2.3-1.2,4.5-1.8,6.8-1.8s4.5.7,5.8,2.2,2,3.7,2,6.6v9.6c0,1.4-.8,2.2-2.3,2.2s-2.1-.6-2.4-1.9v-.3h-.1c-2.1,1.8-4.1,2.7-6.1,2.7h0ZM451.3,92.6c1.3,0,2.6-.7,3.9-2v-4.1c-2.3.3-4,.8-5.1,1.4-1,.6-1.4,1.4-1.4,2.3,0,1.5.9,2.3,2.7,2.3h-.1Z"/>
          </g>
          <g>
            <path class="cls-5" d="M468.5,96.2c-1.7,0-2.6-.9-2.6-2.6v-15.3c0-1.4.8-2.2,2.3-2.2s2.1.6,2.3,1.9v.7h.3c2.2-2.1,4.3-3.2,6.5-3.2,4.1,0,6.2,2.7,6.2,8.1v9.9c0,1.7-.9,2.6-2.6,2.6s-2.7-.9-2.7-2.6v-9.3c0-1.5-.2-2.6-.7-3.3-.4-.6-1.2-1-2.2-1s-1.5.2-2.2.6c-.5.3-1.2.9-2,1.7v11.2c0,1.7-.9,2.6-2.6,2.6v.2h0Z"/>
            <path class="cls-1" d="M468.5,96.2c-1.7,0-2.6-.9-2.6-2.6v-15.3c0-1.4.8-2.2,2.3-2.2s2.1.6,2.3,1.9v.7h.3c2.2-2.1,4.3-3.2,6.5-3.2,4.1,0,6.2,2.7,6.2,8.1v9.9c0,1.7-.9,2.6-2.6,2.6s-2.7-.9-2.7-2.6v-9.3c0-1.5-.2-2.6-.7-3.3-.4-.6-1.2-1-2.2-1s-1.5.2-2.2.6c-.5.3-1.2.9-2,1.7v11.2c0,1.7-.9,2.6-2.6,2.6v.2h0Z"/>
          </g>
          <g>
            <path class="cls-5" d="M496,96.7c-2.5,0-4.5-.9-6-2.8s-2.2-4.4-2.2-7.7.9-5.8,2.6-7.8c1.6-1.9,3.6-2.8,5.9-2.8s2,.2,2.9.6c.7.3,1.4.8,2.2,1.6l-.2-3.2v-4.5c0-1.7.9-2.6,2.7-2.6s2.6.9,2.6,2.6v23.9c0,.7-.2,1.2-.6,1.6s-1,.5-1.7.5c-1.3,0-2.1-.6-2.3-1.8v-.3h-.2c-1.8,1.7-3.6,2.6-5.6,2.6h0ZM497.4,92.3c1.4,0,2.7-.7,3.7-2.1v-8.8c-1.1-1-2.3-1.5-3.7-1.5s-2.2.5-2.9,1.6c-.8,1.1-1.2,2.7-1.2,4.6s.4,3.6,1.1,4.7,1.7,1.6,3.1,1.6h-.1Z"/>
            <path class="cls-1" d="M496,96.7c-2.5,0-4.5-.9-6-2.8s-2.2-4.4-2.2-7.7.9-5.8,2.6-7.8c1.6-1.9,3.6-2.8,5.9-2.8s2,.2,2.9.6c.7.3,1.4.8,2.2,1.6l-.2-3.2v-4.5c0-1.7.9-2.6,2.7-2.6s2.6.9,2.6,2.6v23.9c0,.7-.2,1.2-.6,1.6s-1,.5-1.7.5c-1.3,0-2.1-.6-2.3-1.8v-.3h-.2c-1.8,1.7-3.6,2.6-5.6,2.6h0ZM497.4,92.3c1.4,0,2.7-.7,3.7-2.1v-8.8c-1.1-1-2.3-1.5-3.7-1.5s-2.2.5-2.9,1.6c-.8,1.1-1.2,2.7-1.2,4.6s.4,3.6,1.1,4.7,1.7,1.6,3.1,1.6h-.1Z"/>
          </g>
          <g>
            <path class="cls-5" d="M517,96.7c-1.8,0-3.2-.6-4.3-1.7-1.1-1.1-1.7-2.6-1.7-4.3s.9-3.8,2.7-5c1.8-1.2,4.8-2,8.8-2.4,0-2.3-1.2-3.5-3.4-3.5s-2.3.3-3.6.9-2.2.4-2.9-.8c-.6-1.1-.4-2,.7-2.6,2.3-1.2,4.5-1.8,6.8-1.8s4.5.7,5.8,2.2,2,3.7,2,6.6v9.6c0,1.4-.8,2.2-2.3,2.2s-2.1-.6-2.4-1.9v-.3h0c-2.1,1.8-4.1,2.7-6.1,2.7h0ZM518.8,92.6c1.3,0,2.6-.7,3.9-2v-4.1c-2.3.3-4,.8-5.1,1.4-1,.6-1.4,1.4-1.4,2.3,0,1.5.9,2.3,2.7,2.3h-.1Z"/>
            <path class="cls-1" d="M517,96.7c-1.8,0-3.2-.6-4.3-1.7-1.1-1.1-1.7-2.6-1.7-4.3s.9-3.8,2.7-5c1.8-1.2,4.8-2,8.8-2.4,0-2.3-1.2-3.5-3.4-3.5s-2.3.3-3.6.9-2.2.4-2.9-.8c-.6-1.1-.4-2,.7-2.6,2.3-1.2,4.5-1.8,6.8-1.8s4.5.7,5.8,2.2,2,3.7,2,6.6v9.6c0,1.4-.8,2.2-2.3,2.2s-2.1-.6-2.4-1.9v-.3h0c-2.1,1.8-4.1,2.7-6.1,2.7h0ZM518.8,92.6c1.3,0,2.6-.7,3.9-2v-4.1c-2.3.3-4,.8-5.1,1.4-1,.6-1.4,1.4-1.4,2.3,0,1.5.9,2.3,2.7,2.3h-.1Z"/>
          </g>
          <g>
            <path class="cls-5" d="M536,96.2c-1.7,0-2.6-.9-2.6-2.6v-15.3c0-1.4.7-2.2,2.2-2.2s2.2.7,2.3,2v1.6h.3c.7-1.3,1.6-2.3,2.6-3s2-1,3.1-1h.5c.6,0,1.1.5,1.3,1s.3,1.1,0,1.8c-.3,1.5-1.2,2.2-2.5,1.9h0c-.9,0-1.7.3-2.5.9-.9.7-1.6,1.7-2.2,3.1v9.4c0,1.7-.9,2.6-2.6,2.6v-.2h.1Z"/>
            <path class="cls-1" d="M536,96.2c-1.7,0-2.6-.9-2.6-2.6v-15.3c0-1.4.7-2.2,2.2-2.2s2.2.7,2.3,2v1.6h.3c.7-1.3,1.6-2.3,2.6-3s2-1,3.1-1h.5c.6,0,1.1.5,1.3,1s.3,1.1,0,1.8c-.3,1.5-1.2,2.2-2.5,1.9h0c-.9,0-1.7.3-2.5.9-.9.7-1.6,1.7-2.2,3.1v9.4c0,1.7-.9,2.6-2.6,2.6v-.2h.1Z"/>
          </g>
          <g>
            <path class="cls-5" d="M551.7,72.8c-.9,0-1.7-.3-2.3-.8s-.9-1.2-.9-2.1.3-1.6.9-2.1c.6-.5,1.4-.8,2.3-.8s1.7.3,2.2.8c.6.5.9,1.2.9,2.1s-.3,1.5-.9,2.1c-.6.6-1.3.8-2.2.8ZM551.6,96.2c-1.7,0-2.6-.9-2.6-2.6v-14.9c0-1.7.9-2.6,2.6-2.6s2.6.9,2.6,2.6v14.9c0,1.7-.9,2.6-2.6,2.6Z"/>
            <path class="cls-1" d="M551.7,72.8c-.9,0-1.7-.3-2.3-.8s-.9-1.2-.9-2.1.3-1.6.9-2.1c.6-.5,1.4-.8,2.3-.8s1.7.3,2.2.8c.6.5.9,1.2.9,2.1s-.3,1.5-.9,2.1c-.6.6-1.3.8-2.2.8ZM551.6,96.2c-1.7,0-2.6-.9-2.6-2.6v-14.9c0-1.7.9-2.6,2.6-2.6s2.6.9,2.6,2.6v14.9c0,1.7-.9,2.6-2.6,2.6Z"/>
          </g>
          <g>
            <path class="cls-5" d="M562.5,96.2c-1.7,0-2.6-.9-2.6-2.6v-15.3c0-1.4.8-2.2,2.3-2.2s2.1.6,2.3,1.9v.7h.3c2.2-2.1,4.3-3.2,6.5-3.2,4.1,0,6.2,2.7,6.2,8.1v9.9c0,1.7-.9,2.6-2.6,2.6s-2.7-.9-2.7-2.6v-9.3c0-1.5-.2-2.6-.7-3.3-.4-.6-1.2-1-2.2-1s-1.5.2-2.2.6c-.5.3-1.2.9-2,1.7v11.2c0,1.7-.9,2.6-2.6,2.6v.2h0Z"/>
            <path class="cls-1" d="M562.5,96.2c-1.7,0-2.6-.9-2.6-2.6v-15.3c0-1.4.8-2.2,2.3-2.2s2.1.6,2.3,1.9v.7h.3c2.2-2.1,4.3-3.2,6.5-3.2,4.1,0,6.2,2.7,6.2,8.1v9.9c0,1.7-.9,2.6-2.6,2.6s-2.7-.9-2.7-2.6v-9.3c0-1.5-.2-2.6-.7-3.3-.4-.6-1.2-1-2.2-1s-1.5.2-2.2.6c-.5.3-1.2.9-2,1.7v11.2c0,1.7-.9,2.6-2.6,2.6v.2h0Z"/>
          </g>
        </g>
        <g>
          <path class="cls-6" d="M171.1,96.7c-2.9,0-5.5-.8-7.9-2.4-1.2-1-1.3-2.1-.3-3.2,1.1-1.3,2.3-1.4,3.7-.4,1.6.9,3.2,1.4,4.7,1.4s2.4-.3,3.1-.8c.7-.5,1.1-1.3,1.1-2.2s-.3-1.6-1-2.1c-.4-.3-1.3-.8-2.7-1.4h-.3l-3.6-1.5c-3.6-1.5-5.4-3.9-5.4-7.2s.9-4,2.6-5.5c1.7-1.5,3.9-2.2,6.6-2.2s4.8.7,6.8,2.1c1,.9,1.1,1.8.2,2.9-1,1.2-2,1.3-3.2.5-1.2-.6-2.4-.9-3.8-.9s-2.1.3-2.8.8-1,1.2-1,2,.4,1.5,1.2,2.1c.5.4,1.4.8,2.8,1.3h.3l3.5,1.5c1.7.7,3,1.6,3.9,2.7,1,1.2,1.5,2.7,1.5,4.6s-.9,4.1-2.6,5.6c-1.8,1.6-4.2,2.4-7.2,2.4h-.2Z"/>
          <path class="cls-5" d="M187.8,96.2c-1.7,0-2.6-.9-2.6-2.6v-15.3c0-1.4.8-2.2,2.3-2.2s2.1.6,2.3,1.9v.8h.3c1-1,1.9-1.8,2.7-2.3,1.1-.6,2.3-.9,3.5-.9,2.7,0,4.5,1.2,5.5,3.5,1.1-1.1,2-2,2.9-2.5,1.1-.7,2.3-1,3.5-1,2.1,0,3.7.7,4.7,2.2,1,1.4,1.5,3.3,1.5,5.9v9.9c0,1.7-.9,2.6-2.6,2.6s-2.7-.9-2.7-2.6v-9.3c0-1.5-.2-2.6-.7-3.3-.4-.6-1.1-.9-2.1-.9s-2.4.8-3.9,2.3v11.2c0,1.7-.9,2.6-2.6,2.6s-2.7-.9-2.7-2.6v-9.3c0-1.5-.2-2.6-.7-3.3-.4-.6-1.1-.9-2.1-.9s-2.4.8-3.9,2.3v11.2c0,1.7-.9,2.6-2.6,2.6h0Z"/>
          <path class="cls-5" d="M224.8,96.7c-1.8,0-3.2-.6-4.3-1.7s-1.7-2.6-1.7-4.3.9-3.8,2.7-5,4.8-2,8.8-2.4c0-2.3-1.2-3.5-3.4-3.5s-2.3.3-3.6.9-2.2.4-2.9-.8c-.6-1.1-.4-2,.7-2.6,2.3-1.2,4.5-1.8,6.8-1.8s4.5.7,5.8,2.2,2,3.7,2,6.6v9.6c0,1.4-.8,2.2-2.3,2.2s-2.1-.6-2.4-1.9v-.3h-.1c-2.1,1.8-4.1,2.7-6.1,2.7h0ZM226.5,92.6c1.3,0,2.6-.7,3.9-2v-4.1c-2.3.3-4,.8-5.1,1.4-1,.6-1.4,1.4-1.4,2.3,0,1.5.9,2.3,2.7,2.3h0Z"/>
          <path class="cls-5" d="M243.7,96.2c-1.7,0-2.6-.9-2.6-2.6v-15.3c0-1.4.7-2.2,2.2-2.2s2.2.7,2.3,2v1.6h.3c.7-1.3,1.6-2.3,2.6-3s2-1,3.1-1h.5c.6,0,1.1.5,1.3,1s.3,1.1.1,1.8c-.3,1.5-1.2,2.2-2.5,1.9h0c-.9,0-1.7.3-2.5.9-.9.7-1.6,1.7-2.2,3.1v9.4c0,1.7-.9,2.6-2.6,2.6v-.2h0Z"/>
          <path class="cls-5" d="M264.1,96.7c-4.4,0-6.6-2.5-6.6-7.5v-8.9h-.9c-1.3,0-1.9-.7-1.9-2s.6-2,1.8-2h1.3l.4-3.5c.1-1.4.9-2,2.3-2s2.3.7,2.3,2.2v3.2h2.9c1.4,0,2.1.7,2.1,2.1s-.7,2.1-2.1,2.1h-2.9v8.9c0,2.3.9,3.4,2.7,3.4h0c1.2-.3,2,.2,2.3,1.5.3,1.2-.1,2-1.2,2.3-.9.2-1.8.3-2.7.3h.2Z"/>
          <path class="cls-6" d="M279.5,96.2c-1.8,0-2.7-.9-2.7-2.7v-19.5h-5.3c-1.5,0-2.2-.7-2.2-2.2s.7-2.2,2.2-2.2h16c1.5,0,2.2.7,2.2,2.2s-.7,2.2-2.2,2.2h-5.4v19.5c0,1.8-.9,2.7-2.7,2.7h.1Z"/>
          <path class="cls-5" d="M295.9,96.7c-1.8,0-3.2-.6-4.3-1.7-1.1-1.1-1.7-2.6-1.7-4.3s.9-3.8,2.7-5,4.8-2,8.8-2.4c0-2.3-1.2-3.5-3.4-3.5s-2.3.3-3.6.9c-1.3.6-2.2.4-2.9-.8-.6-1.1-.4-2,.7-2.6,2.3-1.2,4.5-1.8,6.8-1.8s4.5.7,5.8,2.2,2,3.7,2,6.6v9.6c0,1.4-.8,2.2-2.3,2.2s-2.1-.6-2.4-1.9v-.3h-.1c-2.1,1.8-4.1,2.7-6.1,2.7h0ZM297.6,92.6c1.3,0,2.6-.7,3.9-2v-4.1c-2.3.3-4,.8-5.1,1.4-1,.6-1.4,1.4-1.4,2.3,0,1.5.9,2.3,2.7,2.3h-.1Z"/>
          <path class="cls-5" d="M317.1,96.7c-3.3,0-5-2-5-6.1v-20.4c0-1.7.9-2.6,2.6-2.6s2.6.9,2.6,2.6v20.7c0,1.1.4,1.6,1.1,1.6h0c.2,0,.4,0,.5.3.1.2.2.4.3.7.1.7.1,1.3,0,1.9-.2.7-.5,1.2-1,1.3h-1.3.2,0Z"/>
          <path class="cls-5" d="M326.1,96.2c-1.7,0-2.6-.8-2.6-2.6v-23.6c0-1.7.9-2.6,2.6-2.6s2.6.8,2.6,2.6v14.7h.1l6.1-7.6c.6-.7,1.4-1.1,2.3-1.1h3c.4,0,.7,0,.7.3s0,.4-.3.7l-6.1,7.2,5.9,9.3c.5.8.7,1.4.4,1.9-.3.5-.9.7-1.8.7h-1c-.5,0-.9,0-1.4-.4-.4-.3-.8-.6-1.1-1l-4.1-6.9-2.9,3.3v2.5c0,1.7-.9,2.6-2.6,2.6h.2,0Z"/>
          <path class="cls-5" d="M347.9,72.8c-.9,0-1.7-.3-2.3-.8-.6-.5-.9-1.2-.9-2.1s.3-1.6.9-2.1,1.4-.8,2.3-.8,1.7.3,2.2.8c.6.5.9,1.2.9,2.1s-.3,1.5-.9,2.1-1.3.8-2.2.8ZM347.9,96.2c-1.7,0-2.6-.9-2.6-2.6v-14.9c0-1.7.9-2.6,2.6-2.6s2.6.9,2.6,2.6v14.9c0,1.7-.9,2.6-2.6,2.6Z"/>
          <path class="cls-5" d="M358.8,96.2c-1.7,0-2.6-.9-2.6-2.6v-15.3c0-1.4.8-2.2,2.3-2.2s2.1.6,2.3,1.9v.7h.3c2.2-2.1,4.3-3.2,6.5-3.2,4.1,0,6.2,2.7,6.2,8.1v9.9c0,1.7-.9,2.6-2.6,2.6s-2.7-.9-2.7-2.6v-9.3c0-1.5-.2-2.6-.7-3.3-.4-.6-1.2-1-2.2-1s-1.5.2-2.2.6c-.5.3-1.2.9-2,1.7v11.2c0,1.7-.9,2.6-2.6,2.6v.2h0Z"/>
          <path class="cls-5" d="M386.3,104.9c-2.5,0-4.5-.4-6-1.3-1.6-.9-2.4-2.2-2.4-3.9s1-3.1,2.9-4.2v-.2c-1.2-.8-1.8-1.9-1.8-3.4s.2-1.4.7-2.1c.4-.6.9-1.2,1.5-1.7h0c-.7-.7-1.4-1.4-1.8-2.3-.6-1-.8-2-.8-3.1,0-2.3.8-4.1,2.4-5.4,1.5-1.2,3.4-1.9,5.7-1.9s2.1.2,3,.5h5.3c1.3,0,1.9.6,1.9,1.9s-.6,1.9-1.9,1.9h-1.5c.6.8.9,1.8.9,3.1,0,2.2-.8,3.9-2.3,5.1-1.4,1.2-3.2,1.7-5.5,1.7s-1.7-.2-2.6-.5c-.6.5-.9,1-.9,1.7s.2,1,.7,1.2c.5.3,1.3.4,2.5.4h3.4c5,0,7.5,1.7,7.5,5s-1,3.8-2.9,5.1c-2,1.4-4.7,2-8,2v.4h0ZM387.1,101.6c1.5,0,2.7-.3,3.7-.9.9-.6,1.4-1.2,1.4-2.1s-.3-1.2-.9-1.4c-.5-.2-1.3-.4-2.5-.4h-2.4c-1.1,0-2,0-2.8-.3-.9.7-1.3,1.5-1.3,2.3s.4,1.5,1.3,2,2,.7,3.5.7h0ZM386.6,86.6c.9,0,1.7-.3,2.2-1,.6-.7.9-1.6.9-2.7s-.3-2.1-.9-2.7-1.3-1-2.2-1-1.7.3-2.3,1c-.6.7-.9,1.6-.9,2.7s.3,2.1.9,2.7,1.3,1,2.2,1h0Z"/>
          <path class="cls-5" d="M401.4,87.8c-1.2,0-1.9-.6-1.9-1.9s.6-1.9,1.9-1.9h6.1c1.2,0,1.9.6,1.9,1.9s-.6,1.9-1.9,1.9h-6.1Z"/>
          <path class="cls-6" d="M416.8,96.2c-1.6,0-2.4-.8-2.4-2.4v-21.9c0-.7.2-1.3.6-1.7s1-.6,1.7-.6h1.7c.6,0,1.1.2,1.5.5.5.3.8.7.9,1.3l3.9,10.7c.3.8.6,1.9,1.1,3.5.2.7.4,1.3.5,1.6h.2c.2-.5.4-1.3.8-2.4.4-1.2.6-2.2.9-2.8l3.8-10.7c.2-.5.5-.9.9-1.3.5-.3,1-.5,1.5-.5h2.7c.4,0,.7,0,1,.4s.4.6.4,1v22.8c0,1.6-.8,2.4-2.4,2.4s-2.4-.8-2.4-2.4v-8.7c0-1.5.2-4.2.6-8.1v-.6h-.1l-2.2,6.3-3.6,9.7c-.2.4-.4.8-.8,1-.4.3-.8.4-1.3.4h-.1c-.9,0-1.6-.4-1.9-1.3l-3.6-9.8-2.1-6.3h-.1c0,.3,0,.7.1,1.3.4,3.6.5,6.1.5,7.5v8.7c0,1.6-.8,2.4-2.4,2.4h0Z"/>
          <path class="cls-5" d="M449.6,96.7c-1.8,0-3.2-.6-4.3-1.7-1.1-1.1-1.7-2.6-1.7-4.3s.9-3.8,2.7-5,4.8-2,8.8-2.4c0-2.3-1.2-3.5-3.4-3.5s-2.3.3-3.6.9c-1.3.6-2.2.4-2.9-.8-.6-1.1-.4-2,.7-2.6,2.3-1.2,4.5-1.8,6.8-1.8s4.5.7,5.8,2.2,2,3.7,2,6.6v9.6c0,1.4-.8,2.2-2.3,2.2s-2.1-.6-2.4-1.9v-.3h-.1c-2.1,1.8-4.1,2.7-6.1,2.7h0ZM451.3,92.6c1.3,0,2.6-.7,3.9-2v-4.1c-2.3.3-4,.8-5.1,1.4-1,.6-1.4,1.4-1.4,2.3,0,1.5.9,2.3,2.7,2.3h-.1Z"/>
          <path class="cls-5" d="M468.5,96.2c-1.7,0-2.6-.9-2.6-2.6v-15.3c0-1.4.8-2.2,2.3-2.2s2.1.6,2.3,1.9v.7h.3c2.2-2.1,4.3-3.2,6.5-3.2,4.1,0,6.2,2.7,6.2,8.1v9.9c0,1.7-.9,2.6-2.6,2.6s-2.7-.9-2.7-2.6v-9.3c0-1.5-.2-2.6-.7-3.3-.4-.6-1.2-1-2.2-1s-1.5.2-2.2.6c-.5.3-1.2.9-2,1.7v11.2c0,1.7-.9,2.6-2.6,2.6v.2h0Z"/>
          <path class="cls-5" d="M496,96.7c-2.5,0-4.5-.9-6-2.8s-2.2-4.4-2.2-7.7.9-5.8,2.6-7.8c1.6-1.9,3.6-2.8,5.9-2.8s2,.2,2.9.6c.7.3,1.4.8,2.2,1.6l-.2-3.2v-4.5c0-1.7.9-2.6,2.7-2.6s2.6.9,2.6,2.6v23.9c0,.7-.2,1.2-.6,1.6s-1,.5-1.7.5c-1.3,0-2.1-.6-2.3-1.8v-.3h-.2c-1.8,1.7-3.6,2.6-5.6,2.6h0ZM497.4,92.3c1.4,0,2.7-.7,3.7-2.1v-8.8c-1.1-1-2.3-1.5-3.7-1.5s-2.2.5-2.9,1.6c-.8,1.1-1.2,2.7-1.2,4.6s.4,3.6,1.1,4.7,1.7,1.6,3.1,1.6h-.1Z"/>
          <path class="cls-5" d="M517,96.7c-1.8,0-3.2-.6-4.3-1.7-1.1-1.1-1.7-2.6-1.7-4.3s.9-3.8,2.7-5c1.8-1.2,4.8-2,8.8-2.4,0-2.3-1.2-3.5-3.4-3.5s-2.3.3-3.6.9-2.2.4-2.9-.8c-.6-1.1-.4-2,.7-2.6,2.3-1.2,4.5-1.8,6.8-1.8s4.5.7,5.8,2.2,2,3.7,2,6.6v9.6c0,1.4-.8,2.2-2.3,2.2s-2.1-.6-2.4-1.9v-.3h0c-2.1,1.8-4.1,2.7-6.1,2.7h0ZM518.8,92.6c1.3,0,2.6-.7,3.9-2v-4.1c-2.3.3-4,.8-5.1,1.4-1,.6-1.4,1.4-1.4,2.3,0,1.5.9,2.3,2.7,2.3h-.1Z"/>
          <path class="cls-5" d="M536,96.2c-1.7,0-2.6-.9-2.6-2.6v-15.3c0-1.4.7-2.2,2.2-2.2s2.2.7,2.3,2v1.6h.3c.7-1.3,1.6-2.3,2.6-3s2-1,3.1-1h.5c.6,0,1.1.5,1.3,1s.3,1.1,0,1.8c-.3,1.5-1.2,2.2-2.5,1.9h0c-.9,0-1.7.3-2.5.9-.9.7-1.6,1.7-2.2,3.1v9.4c0,1.7-.9,2.6-2.6,2.6v-.2h.1Z"/>
          <path class="cls-5" d="M551.7,72.8c-.9,0-1.7-.3-2.3-.8s-.9-1.2-.9-2.1.3-1.6.9-2.1c.6-.5,1.4-.8,2.3-.8s1.7.3,2.2.8c.6.5.9,1.2.9,2.1s-.3,1.5-.9,2.1c-.6.6-1.3.8-2.2.8ZM551.6,96.2c-1.7,0-2.6-.9-2.6-2.6v-14.9c0-1.7.9-2.6,2.6-2.6s2.6.9,2.6,2.6v14.9c0,1.7-.9,2.6-2.6,2.6Z"/>
          <path class="cls-5" d="M562.5,96.2c-1.7,0-2.6-.9-2.6-2.6v-15.3c0-1.4.8-2.2,2.3-2.2s2.1.6,2.3,1.9v.7h.3c2.2-2.1,4.3-3.2,6.5-3.2,4.1,0,6.2,2.7,6.2,8.1v9.9c0,1.7-.9,2.6-2.6,2.6s-2.7-.9-2.7-2.6v-9.3c0-1.5-.2-2.6-.7-3.3-.4-.6-1.2-1-2.2-1s-1.5.2-2.2.6c-.5.3-1.2.9-2,1.7v11.2c0,1.7-.9,2.6-2.6,2.6v.2h0Z"/>
        </g>
        <g>
          <g>
            <g>
              <path class="cls-2" d="M135,67.8c-.7-.6-1.1-1-1.8-1.4-1.7-7.5-5.3-13.8-11.1-18.3-1.9-2.3-4.2-4.2-7.3-5.8-11.1-6.7-30.4-6-45.1-6s-34-.6-45.1,6c-8.4,4.3-11.8,11.6-13.1,21-1,.5-1.9,1-2.7,1.7-3.7,2.9-6,7.2-6.1,11.9,0,4.6,1.9,9,5.2,12.1,1.3,1.2,2.8,2.1,4.4,2.8,1.3,5.1,3.5,9.6,7.1,13,2.1,2.7,4.7,5,8,6.7,8.7,5.2,22.5,5.9,35.1,6,2.7,11.6,5.9,20.5,8,20.5s.3,0,.4,0c.9,2,1.8,3.1,2.6,3.1,2.6,0,6.1-10.5,8.9-23.5,12.6,0,26.4-.8,35.2-6,7.6-3.9,12.2-10.9,14.6-19.1,0,.2.1.4.2.6,1.2-.5.6-.3,1.7-1.1,3.7-2.9,6-7.2,6.1-11.9.1-4.6-1.9-9-5.2-12.1v-.2h0Z"/>
              <path class="cls-3" d="M73.5,143.5c-1.9,0-3.2-1.5-4.2-3.1-1.9-.6-4.8-3.8-8.9-20.4-12.8-.2-25.7-1.2-34.3-6.3-3.4-1.8-6.3-4.2-8.7-7.2-3.4-3.3-5.9-7.6-7.4-12.9-1.5-.7-2.8-1.7-3.9-2.7C2.1,87.2,0,82.1,0,76.8c.2-5.4,2.8-10.5,7.1-13.9.6-.5,1.2-.9,1.9-1.3,1.8-10.6,6.3-17.5,14.3-21.6,10.8-6.4,28.4-6.4,42.5-6.4h7.8c14.1,0,31.7,0,42.5,6.3,3.1,1.6,5.7,3.7,7.8,6.2,5.8,4.5,9.7,10.7,11.6,18.6.4.3.8.7,1.3,1.1,4,3.6,6.3,8.8,6.1,14.1-.2,5.4-2.8,10.5-7.1,13.9-.2.2-.3.3-.4.4-.4.4-.7.6-1.2.8-3,8.6-8.2,15-15.3,18.7-8.7,5.1-21.5,6.2-34.3,6.3-5.3,23.5-9.2,23.5-11,23.5h-.1ZM72.2,134.5l1.1,2.2c0,.2.2.5.3.6,1.4-2.5,3.8-9,6.3-20.4l.4-2h2.1c12.8,0,25.8-.8,33.8-5.7h.2c8-4.2,11.7-11.9,13.3-17.6l2.4-8.3,1.7,5.2c2.3-2.4,3.7-5.5,3.8-8.7.1-3.8-1.5-7.4-4.4-10h0c-.7-.6-.9-.8-1.5-1.2l-.9-.6-.2-1.1c-1.6-7.2-5-12.8-10.1-16.8l-.3-.2-.2-.2c-1.7-2.1-3.8-3.8-6.4-5.1h-.2c-9.5-5.8-26.4-5.8-39.9-5.7h-7.8c-13.5,0-30.4,0-39.9,5.7h-.2c-6.8,3.6-10.4,9.4-11.7,19.1l-.2,1.4-1.2.6c-.9.5-1.6.9-2.3,1.4-3.1,2.4-5,6-5.1,9.9,0,3.8,1.5,7.4,4.4,10,1.1,1,2.3,1.7,3.7,2.4l1.2.5.3,1.3c1.3,5,3.3,8.9,6.4,11.8l.3.3c1.9,2.5,4.3,4.5,7.1,5.9h.2c8,4.9,21,5.6,33.8,5.7h2.1l.5,2c2.7,11.3,4.8,16.4,5.9,18.2l1.2-.5h0Z"/>
            </g>
            <g>
              <path class="cls-5" d="M13,92c-1.9-.7-3.7-1.8-5.2-3.1-3.4-3-5.4-7.4-5.2-12.1,0-4.7,2.4-9,6.1-11.9,1-.8,2.2-1.5,3.4-2,10.1,14.8.8,29.1.8,29.1h0Z"/>
              <path class="cls-2" d="M13,92c-1.9-.7-3.7-1.8-5.2-3.1.3-3.6.6-7.4.8-11.4.2-4.4.2-8.6.1-12.5,1-.8,2.2-1.5,3.4-2,.3,9.7.6,19.4.8,29.1h0Z"/>
            </g>
            <g>
              <path class="cls-4" d="M73.5,50.9c-2.9,0-5.5,1.2-7.7,3.8h0c-1,1.1-1.9,2.5-2.6,4.2-2.2,4.7-3.5,11.5-3.5,20.8s.8,13.7,2.1,21.7c3,19.1,8.5,39.5,11.8,39.5s9.1-20.8,11.9-40.1c1.2-7.8,1.9-15.3,1.9-21.1,0-20.1-6.2-28.8-13.8-28.8,0,0,0,0-.1,0Z"/>
              <path class="cls-4" d="M134.2,77.8c0,13.9-4.8,27.6-16.6,33.6-11.1,6.7-30.4,6-45.1,6s-34,.6-45.1-6c-11.8-6-15.3-19.4-13.9-33-1.5-13.7,2.1-27,13.9-33,11.1-6.7,30.4-6,45.1-6s34-.6,45.1,6c11.8,6,16.9,18.1,16.6,32.4Z"/>
            </g>
            <path class="cls-7" d="M70.6,47.9c-2.9,0-5.5,1.2-7.7,3.8h0c-1,1.1-1.9,2.5-2.6,4.2h0c-2.2,4.7-3.5,11.5-3.5,20.8s.8,13.7,2.1,21.7c3,19.1,8.5,39.5,11.8,39.5s9.1-20.8,11.9-40.1c1.2-7.8,1.9-15.3,1.9-21.1,0-20.1-6.2-28.8-13.8-28.8h0ZM71,107c-.8,0-1.4-1.6-1.4-3.6s.6-3.6,1.4-3.6,1.4,1.6,1.4,3.6-.6,3.6-1.4,3.6ZM80.3,92c-2.2,2.4-6.4,2.4-9.8,2.4s-7.6,0-9.8-2.4-3.1-17-2.1-21.9,6.7-8.2,11.9-8.2,10.9,3.3,11.9,8.2,0,19.5-2.1,21.9Z"/>
            <path class="cls-7" d="M128.7,75.4c.3,14.3-2.1,27-13.9,33.1-11.1,6.7-30.4,6-45.1,6s-34,.6-45.1-6c-11.8-6-14-19-13.9-33,0-15.1,2.1-27,13.9-33,11.1-6.7,30.4-6,45.1-6s34-.6,45.1,6c11.8,6,13.6,17.9,13.9,33h0Z"/>
            <path class="cls-5" d="M115,75.8c0,16.9-10.4,30.7-23.3,30.7h-42.2c-12.9,0-23.3-13.7-23.3-30.7h0c0-16.9,10.4-30.7,23.3-30.7h42.2c12.9,0,23.3,13.7,23.3,30.7h0Z"/>
            <path class="cls-6" d="M78.9,86.4c0,4.7-3.8,8.5-8.5,8.5s-8.5-3.8-8.5-8.5h17Z"/>
            <g>
              <g>
                <g>
                  <path class="cls-5" d="M56.6,24.7h-.3c-4.1-2.2-6.7-6.5-6.7-11.2s2.3-8.5,6.1-10.8c.4-.2.8,0,1,.3.2.4,0,.8-.3,1-3.4,2-5.4,5.6-5.4,9.5s2.3,7.9,5.9,9.8c.4.2.5.6.3,1,0,.2-.4.4-.7.4h.1Z"/>
                  <path class="cls-3" d="M56.6,27.4c-.6,0-1.1-.1-1.6-.4-5-2.7-8.1-7.8-8.1-13.5s2.7-10.3,7.4-13c1.6-1,3.7-.4,4.6,1.1,1,1.6.5,3.7-1.1,4.6-2.6,1.6-4.1,4.3-4.1,7.3s1.7,6,4.5,7.5c1.6.9,2.3,2.9,1.4,4.5-.6,1.1-1.7,1.8-3,1.8h0ZM57.5,22.3h0Z"/>
                </g>
                <g>
                  <path class="cls-5" d="M57.7,20.4c-.2,0-.4,0-.5-.2-2-1.8-3.1-4.1-3.1-6.5s1.1-4.8,3.2-6.6c.3-.3.8-.2,1.1,0,.3.3.2.8,0,1-1.7,1.5-2.7,3.4-2.7,5.4s.9,3.9,2.6,5.4c.3.3.3.7,0,1,0,.2-.3.2-.6.2v.3Z"/>
                  <path class="cls-3" d="M57.7,23c-.8,0-1.6-.3-2.3-.9-2.6-2.3-4-5.3-4-8.4s1.4-6.2,4.1-8.5c1.4-1.2,3.5-1.1,4.7.3.6.7.9,1.5.8,2.4,0,.9-.5,1.7-1.1,2.3-1.2,1-1.8,2.2-1.8,3.5s.6,2.4,1.7,3.4c.7.6,1.1,1.4,1.1,2.3s-.3,1.8-.8,2.4c-.6.7-1.5,1.1-2.5,1.1h0ZM59,18.2h0Z"/>
                </g>
              </g>
              <g>
                <g>
                  <path class="cls-5" d="M83.3,24.7h.3c4.1-2.2,6.7-6.5,6.7-11.2s-2.3-8.5-6.1-10.8c-.4-.2-.8,0-1,.3-.2.4,0,.8.3,1,3.4,2,5.4,5.6,5.4,9.5s-2.3,7.9-5.9,9.8c-.4.2-.5.6-.3,1,0,.2.4.4.7.4h0Z"/>
                  <path class="cls-3" d="M83.3,27.4c-1.2,0-2.4-.7-3-1.8-.4-.8-.5-1.7-.3-2.6.3-.9.8-1.6,1.6-2,2.8-1.5,4.5-4.4,4.5-7.5s-1.5-5.7-4.1-7.3c-.8-.5-1.3-1.2-1.5-2.1s0-1.8.4-2.5C81.9,0,83.9-.5,85.5.5c4.6,2.8,7.4,7.7,7.4,13.1s-3.1,10.8-8.1,13.5c-.5.3-1,.4-1.6.4h0ZM82.4,22.3h0ZM84.8,1.7h0Z"/>
                </g>
                <g>
                  <path class="cls-5" d="M82.1,20.4c.2,0,.4,0,.5-.2,2-1.8,3.1-4.1,3.1-6.5s-1.1-4.8-3.2-6.6c-.3-.3-.8-.2-1,0-.3.3-.2.8,0,1,1.7,1.5,2.7,3.4,2.7,5.4s-.9,3.9-2.6,5.4c-.3.3-.3.7,0,1,0,.2.3.2.6.2v.3h0Z"/>
                  <path class="cls-3" d="M82.1,23c-1,0-1.9-.4-2.5-1.1-1.2-1.4-1.1-3.5.3-4.7,1.1-1,1.8-2.2,1.8-3.4s-.6-2.5-1.8-3.5c-.7-.6-1.1-1.4-1.1-2.3s.2-1.8.8-2.4c.6-.7,1.4-1.1,2.3-1.1s1.8.2,2.4.8c2.6,2.3,4.1,5.3,4.1,8.5s-1.4,6.2-4,8.5c-.6.5-1.4.9-2.2.9v-.2h-.1ZM80.9,18.2h0ZM83.3,6.3h0Z"/>
                </g>
              </g>
              <g>
                <path class="cls-5" d="M70.8,6.7h-.9c-3.6,0-6.5,2.9-6.5,6.5v.9c0,3.3,2.5,6,5.6,6.4l-1.8,15.4c0,1.8,1.4,3.2,3.2,3.2s3.2-1.4,3.2-3.2l-1.8-15.4c3.2-.4,5.6-3.1,5.6-6.4v-.9c0-3.6-2.9-6.5-6.5-6.5h0Z"/>
                <path class="cls-3" d="M70.3,41.8c-3.2,0-5.8-2.6-5.8-5.8v-.3l1.6-13.2c-3.2-1.4-5.4-4.7-5.4-8.3v-.9c0-5,4.1-9.1,9.1-9.1h.9c5,0,9.1,4.1,9.1,9.1v.9c0,3.7-2.2,6.9-5.4,8.3l1.6,13.5c0,3.2-2.6,5.8-5.8,5.8h.1ZM69.8,36.1c0,.3.3.5.6.5s.5-.2.6-.5l-.6-4.7-.6,4.7ZM69.9,9.3c-2.1,0-3.9,1.7-3.9,3.9v.9c0,1.9,1.5,3.6,3.4,3.9h1c0,.1,1,0,1,0,1.9-.3,3.4-1.9,3.4-3.9v-.9c0-2.1-1.7-3.9-3.9-3.9,0,0-1,0-1,0Z"/>
              </g>
              <g>
                <g>
                  <path class="cls-5" d="M56.6,24.7h-.3c-4.1-2.2-6.7-6.5-6.7-11.2s2.3-8.5,6.1-10.8c.4-.2.8,0,1,.3.2.4,0,.8-.3,1-3.4,2-5.4,5.6-5.4,9.5s2.3,7.9,5.9,9.8c.4.2.5.6.3,1,0,.2-.4.4-.7.4h.1Z"/>
                  <path class="cls-5" d="M57.7,20.4c-.2,0-.4,0-.5-.2-2-1.8-3.1-4.1-3.1-6.5s1.1-4.8,3.2-6.6c.3-.3.8-.2,1.1,0,.3.3.2.8,0,1-1.7,1.5-2.7,3.4-2.7,5.4s.9,3.9,2.6,5.4c.3.3.3.7,0,1,0,.2-.3.2-.6.2v.3Z"/>
                </g>
                <g>
                  <path class="cls-5" d="M83.3,24.7h.3c4.1-2.2,6.7-6.5,6.7-11.2s-2.3-8.5-6.1-10.8c-.4-.2-.8,0-1,.3-.2.4,0,.8.3,1,3.4,2,5.4,5.6,5.4,9.5s-2.3,7.9-5.9,9.8c-.4.2-.5.6-.3,1,0,.2.4.4.7.4h0Z"/>
                  <path class="cls-5" d="M82.1,20.4c.2,0,.4,0,.5-.2,2-1.8,3.1-4.1,3.1-6.5s-1.1-4.8-3.2-6.6c-.3-.3-.8-.2-1,0-.3.3-.2.8,0,1,1.7,1.5,2.7,3.4,2.7,5.4s-.9,3.9-2.6,5.4c-.3.3-.3.7,0,1,0,.2.3.2.6.2v.3h0Z"/>
                </g>
                <path class="cls-5" d="M73.5,36c0,1.8-1.4,3.2-3.2,3.2h0c-1.8,0-3.2-1.4-3.2-3.2l2-16.9c0-1.8-.6-3.2,1.2-3.2h0c1.8,0,1.2,1.4,1.2,3.2l2,16.9Z"/>
                <path class="cls-5" d="M69.9,6.7h.9c3.6,0,6.5,2.9,6.5,6.5v.9c0,3.6-2.9,6.5-6.5,6.5h-.9c-3.6,0-6.5-2.9-6.5-6.5v-.9c0-3.6,2.9-6.5,6.5-6.5Z"/>
              </g>
            </g>
            <path class="cls-6" d="M57.8,72.3c0,1.9-1.5,3.4-3.4,3.4h0c-1.9,0-3.4-1.5-3.4-3.4v-8.7c0-1.9,1.5-3.4,3.4-3.4h0c1.9,0,3.4,1.5,3.4,3.4v8.7Z"/>
            <path class="cls-6" d="M87.9,72.3c0,1.9-1.5,3.4-3.4,3.4h0c-1.9,0-3.4-1.5-3.4-3.4v-8.7c0-1.9,1.5-3.4,3.4-3.4h0c1.9,0,3.4,1.5,3.4,3.4v8.7Z"/>
            <g>
              <path class="cls-5" d="M135,67.8c-.3,3.6-.6,7.4-.8,11.4-.2,4.4-.2,8.6-.1,12.5,3.7-2.9,6-7.2,6.1-11.9.1-4.6-1.9-9-5.2-12.1h0Z"/>
              <path class="cls-2" d="M135,67.8c-.8-.7-1.1-1-2-1.6-.8-.5-5.2,12.5-.5,26.6,1.2-.5.6-.3,1.7-1.1,0-4,0-8.2.1-12.5.2-4,.4-7.8.8-11.4h-.1Z"/>
            </g>
          </g>
          <g>
            <g>
              <path class="cls-6" d="M171.9,96.4c-2.9,0-5.5-.8-7.9-2.4-1.2-1-1.3-2.1-.3-3.2,1.1-1.3,2.3-1.4,3.7-.4,1.6.9,3.2,1.4,4.7,1.4s2.4-.3,3.1-.8c.7-.5,1.1-1.3,1.1-2.2s-.3-1.6-1-2.1c-.4-.3-1.3-.8-2.7-1.4h-.3l-3.6-1.5c-3.6-1.5-5.4-3.9-5.4-7.2s.9-4,2.6-5.5c1.7-1.5,3.9-2.2,6.6-2.2s4.8.7,6.8,2.1c1,.9,1.1,1.8.2,2.9-1,1.2-2,1.3-3.2.5-1.2-.6-2.4-.9-3.8-.9s-2.1.3-2.8.8-1,1.2-1,2,.4,1.5,1.2,2.1c.5.4,1.4.8,2.8,1.3h.3l3.5,1.5c1.7.7,3,1.6,3.9,2.7,1,1.2,1.5,2.7,1.5,4.6s-.9,4.1-2.6,5.6c-1.8,1.6-4.2,2.4-7.2,2.4h-.2Z"/>
              <path class="cls-3" d="M171.9,99c-3.4,0-6.5-1-9.4-2.8l-.2-.2c-1.4-1.2-1.8-2.5-1.9-3.3,0-.9,0-2.2,1.3-3.6,1.9-2.3,4.6-2.6,7.1-.9,1.2.7,2.2,1,3.2,1s1.4-.2,1.6-.3h0s-.5-.5-2.1-1.2h-.3l-3.5-1.5c-5.8-2.4-7-6.5-7-9.6s1.2-5.5,3.5-7.5c2.2-1.9,5-2.8,8.3-2.8s5.8.9,8.3,2.6l.2.2c2.1,1.8,2.3,4.4.5,6.5-1.8,2.2-4.3,2.6-6.6,1.1-.8-.4-1.6-.6-2.5-.6s-.9,0-1.1.2c.2,0,.7.4,2.1,1,.2,0,.3,0,.4.2l3.4,1.4c2.1.9,3.8,2,4.9,3.4,1.4,1.7,2.1,3.8,2.1,6.2s-1.2,5.6-3.5,7.6-5.3,3.1-8.9,3.1h0v-.2ZM165.5,92.3h0ZM166.2,74.9c-.2.5-.3,1-.3,1.6,0,1.5.4,3.4,3.8,4.7l3.7,1.6c1.7.7,2.7,1.2,3.4,1.7,1.4,1.1,2.1,2.5,2.1,4.2s0,1.1-.2,1.6c.3-.6.4-1.3.4-2,0-1.2-.3-2.2-.9-2.9-.6-.7-1.5-1.3-2.8-1.9l-3.7-1.6c-1.6-.6-2.7-1.2-3.4-1.7-1.4-1-2.2-2.5-2.2-4.1s0-.9.2-1.3h-.1ZM178,72.2h0Z"/>
            </g>
            <g>
              <path class="cls-5" d="M188.6,95.9c-1.7,0-2.6-.9-2.6-2.6v-15.3c0-1.4.8-2.2,2.3-2.2s2.1.6,2.3,1.9v.8h.3c1-1,1.9-1.8,2.7-2.3,1.1-.6,2.3-.9,3.5-.9,2.7,0,4.5,1.2,5.5,3.5,1.1-1.1,2-2,2.9-2.5,1.1-.7,2.3-1,3.5-1,2.1,0,3.7.7,4.7,2.2,1,1.4,1.5,3.3,1.5,5.9v9.9c0,1.7-.9,2.6-2.6,2.6s-2.7-.9-2.7-2.6v-9.3c0-1.5-.2-2.6-.7-3.3-.4-.6-1.1-.9-2.1-.9s-2.4.8-3.9,2.3v11.2c0,1.7-.9,2.6-2.6,2.6s-2.7-.9-2.7-2.6v-9.3c0-1.5-.2-2.6-.7-3.3-.4-.6-1.1-.9-2.1-.9s-2.4.8-3.9,2.3v11.2c0,1.7-.9,2.6-2.6,2.6h0Z"/>
              <path class="cls-3" d="M212.5,98.5c-3.2,0-5.3-2.1-5.3-5.2v-9.3c0-.8,0-1.3-.2-1.6h0s-.4,0-1.3.8v10.1c0,3.2-2.1,5.2-5.2,5.2s-5.3-2.1-5.3-5.2v-9.3c0-.8,0-1.3-.2-1.6h0s-.4,0-1.3.8v10.1c0,3.2-2.1,5.2-5.2,5.2s-5.2-2.1-5.2-5.2v-15.3c0-2.9,1.9-4.8,4.9-4.8s2.5.4,3.4,1.2c.2,0,.4-.3.6-.4,1.6-.9,3.1-1.3,4.8-1.3s4.4.8,5.9,2.2c.4-.3.8-.6,1.2-.8,1.5-.9,3.1-1.4,4.8-1.4,3.7,0,5.7,1.7,6.8,3.2,1.4,1.8,2,4.4,2,7.5v9.9c0,3.2-2.1,5.2-5.2,5.2h0ZM212.5,93.6h0ZM212.5,93.3h0v-9.9c0-2-.3-3.5-1-4.4-.3-.4-.7-.7-1.4-1,.6.4,1,.9,1.2,1.2.8,1.1,1.2,2.7,1.2,4.8v9.3h0ZM200.5,93.3h0v-12.3l-.5-1.1c-.5-1-1.1-1.6-2-1.8.6.4,1,.9,1.3,1.2.8,1.1,1.1,2.7,1.1,4.8v9.3h0ZM188.6,93.3h0v-12.2,12.2h0Z"/>
            </g>
            <g>
              <path class="cls-5" d="M225.6,96.4c-1.8,0-3.2-.6-4.3-1.7s-1.7-2.6-1.7-4.3.9-3.8,2.7-5,4.8-2,8.8-2.4c0-2.3-1.2-3.5-3.4-3.5s-2.3.3-3.6.9-2.2.4-2.9-.8c-.6-1.1-.4-2,.7-2.6,2.3-1.2,4.5-1.8,6.8-1.8s4.5.7,5.8,2.2,2,3.7,2,6.6v9.6c0,1.4-.8,2.2-2.3,2.2s-2.1-.6-2.4-1.9v-.3h-.1c-2.1,1.8-4.1,2.7-6.1,2.7h0ZM227.3,92.3c1.3,0,2.6-.7,3.9-2v-4.1c-2.3.3-4,.8-5.1,1.4-1,.6-1.4,1.4-1.4,2.3,0,1.5.9,2.3,2.7,2.3h0Z"/>
              <path class="cls-3" d="M225.6,99c-2.5,0-4.6-.8-6.2-2.5-1.6-1.6-2.4-3.7-2.4-6.1s1.4-5.5,3.9-7.2c0,0,.2,0,.3-.2-.9-.4-1.7-1.1-2.3-2.2-1.3-2.4-.6-4.8,1.7-6.1,2.7-1.4,5.4-2.1,8.1-2.1s5.9,1.1,7.7,3.1c1.7,2,2.6,4.8,2.6,8.4v9.6c0,2.9-1.9,4.8-4.9,4.8s-2.4-.4-3.2-1c-1.8,1-3.6,1.5-5.3,1.5h0ZM233.8,91.1h0v-5.8h0v5.8ZM233.8,82.9v1.1-1.1Z"/>
            </g>
            <g>
              <path class="cls-5" d="M244.5,95.9c-1.7,0-2.6-.9-2.6-2.6v-15.3c0-1.4.7-2.2,2.2-2.2s2.2.7,2.3,2v1.6h.3c.7-1.3,1.6-2.3,2.6-3s2-1,3.1-1h.5c.6,0,1.1.5,1.3,1s.3,1.1.1,1.8c-.3,1.5-1.2,2.2-2.5,1.9h0c-.9,0-1.7.3-2.5.9-.9.7-1.6,1.7-2.2,3.1v9.4c0,1.7-.9,2.6-2.6,2.6v-.2h0Z"/>
              <path class="cls-3" d="M244.5,98.5c-3.2,0-5.2-2.1-5.2-5.2v-15.3c0-2.9,1.9-4.8,4.8-4.8s2.6.4,3.4,1.2c0,0,.2,0,.3-.2,1.5-1,3-1.5,4.6-1.5h1c1.4.4,2.5,1.2,3.1,2.5.5,1,.6,2.2.3,3.4-.6,2.8-2.6,4.3-5.2,4-.2,0-.5,0-.8.3-.5.3-.8.8-1.2,1.5v8.9c0,3.2-2.1,5.2-5.2,5.2h.1ZM244.5,93.3h0v-9.9l.2-.5c.1-.3.3-.7.4-1h-.6v11.3h0ZM251.7,77.2h0Z"/>
            </g>
            <g>
              <path class="cls-5" d="M264.9,96.4c-4.4,0-6.6-2.5-6.6-7.5v-8.9h-.9c-1.3,0-1.9-.7-1.9-2s.6-2,1.8-2h1.3l.4-3.5c.1-1.4.9-2,2.3-2s2.3.7,2.3,2.2v3.2h2.9c1.4,0,2.1.7,2.1,2.1s-.7,2.1-2.1,2.1h-2.9v8.9c0,2.3.9,3.4,2.7,3.4h0c1.2-.3,2,.2,2.3,1.5.3,1.2-.1,2-1.2,2.3-.9.2-1.8.3-2.7.3h.2Z"/>
              <path class="cls-3" d="M264.9,99c-5.9,0-9.2-3.7-9.2-10.2v-6.6c-1.7-.6-2.8-2.2-2.8-4.4s1.3-4,3.4-4.5l.2-1.3c.3-2.7,2.2-4.4,4.9-4.4s4.9,1.9,4.9,4.8v.6h.3c2.9,0,4.7,1.8,4.7,4.7s-1.8,4.7-4.7,4.7h-.3v7c2.4-.3,4.4,1,5,3.6.6,2.7-.6,4.8-3,5.4s-2.3.4-3.4.4v.2ZM260.9,78.1v10.8c0,2.5.6,3.7,1.4,4.3-.8-1-1.4-2.4-1.4-4.3v-11.2s0,.4,0,.4Z"/>
            </g>
            <g>
              <path class="cls-6" d="M280.3,95.9c-1.8,0-2.7-.9-2.7-2.7v-19.5h-5.3c-1.5,0-2.2-.7-2.2-2.2s.7-2.2,2.2-2.2h16c1.5,0,2.2.7,2.2,2.2s-.7,2.2-2.2,2.2h-5.4v19.5c0,1.8-.9,2.7-2.7,2.7h.1Z"/>
              <path class="cls-3" d="M280.3,98.5c-3.2,0-5.3-2.1-5.3-5.3v-16.9h-2.7c-2.9,0-4.8-1.9-4.8-4.8s1.9-4.8,4.8-4.8h16c2.9,0,4.8,1.9,4.8,4.8s-1.9,4.8-4.8,4.8h-2.7v16.9c0,3.2-2.1,5.3-5.3,5.3ZM280.3,93.3h0v-21.3h0v21.3h0Z"/>
            </g>
            <g>
              <path class="cls-5" d="M296.7,96.4c-1.8,0-3.2-.6-4.3-1.7-1.1-1.1-1.7-2.6-1.7-4.3s.9-3.8,2.7-5,4.8-2,8.8-2.4c0-2.3-1.2-3.5-3.4-3.5s-2.3.3-3.6.9c-1.3.6-2.2.4-2.9-.8-.6-1.1-.4-2,.7-2.6,2.3-1.2,4.5-1.8,6.8-1.8s4.5.7,5.8,2.2,2,3.7,2,6.6v9.6c0,1.4-.8,2.2-2.3,2.2s-2.1-.6-2.4-1.9v-.3h-.1c-2.1,1.8-4.1,2.7-6.1,2.7h0ZM298.4,92.3c1.3,0,2.6-.7,3.9-2v-4.1c-2.3.3-4,.8-5.1,1.4-1,.6-1.4,1.4-1.4,2.3,0,1.5.9,2.3,2.7,2.3h-.1Z"/>
              <path class="cls-3" d="M296.7,99c-2.5,0-4.6-.9-6.2-2.5s-2.4-3.7-2.4-6.1,1.4-5.5,3.9-7.2c0,0,.2,0,.3-.2-.9-.4-1.7-1.1-2.3-2.2-1.3-2.4-.6-4.8,1.7-6.1,2.7-1.4,5.4-2.1,8.1-2.1s5.9,1.1,7.7,3.1c1.7,2,2.6,4.8,2.6,8.4v9.6c0,2.9-1.9,4.8-4.9,4.8s-2.4-.4-3.2-1c-1.8,1-3.6,1.5-5.3,1.5h0ZM304.9,91.1h0v-5.8h0v5.8ZM304.9,83v1.1-1.1Z"/>
            </g>
            <g>
              <path class="cls-5" d="M317.9,96.4c-3.3,0-5-2-5-6.1v-20.4c0-1.7.9-2.6,2.6-2.6s2.6.9,2.6,2.6v20.7c0,1.1.4,1.6,1.1,1.6h0c.2,0,.4,0,.5.3.1.2.2.4.3.7.1.7.1,1.3,0,1.9-.2.7-.5,1.2-1,1.3h-1.3.2,0Z"/>
              <path class="cls-3" d="M317.9,99c-2.3,0-7.6-.9-7.6-8.8v-20.4c0-3.2,2.1-5.2,5.2-5.2s5.2,2.1,5.2,5.2v20c.5.2.9.6,1.2,1.1.4.6.6,1.1.7,1.7.2,1.1.2,2.1,0,3-.5,2.4-2,3.1-2.9,3.3h-.4c-.6,0-1.1.2-1.5.2h0ZM315.6,69.8h0v20.4c0,2.1.4,2.9,1,3.3-.6-.7-1-1.7-1-3v-20.7h0ZM315.5,69.5h0Z"/>
            </g>
            <g>
              <path class="cls-5" d="M326.9,95.9c-1.7,0-2.6-.8-2.6-2.6v-23.6c0-1.7.9-2.6,2.6-2.6s2.6.8,2.6,2.6v14.7h.1l6.1-7.6c.6-.7,1.4-1.1,2.3-1.1h3c.4,0,.7,0,.7.3s0,.4-.3.7l-6.1,7.2,5.9,9.3c.5.8.7,1.4.4,1.9-.3.5-.9.7-1.8.7h-1c-.5,0-.9,0-1.4-.4-.4-.3-.8-.6-1.1-1l-4.1-6.9-2.9,3.3v2.5c0,1.7-.9,2.6-2.6,2.6h.2,0Z"/>
              <path class="cls-3" d="M339.8,98.5h-1c-1,0-1.9-.3-2.7-.8-.8-.5-1.4-1.1-1.9-1.8h0l-2.1-3.7v1.1c0,3.1-2,5.2-5.2,5.2s-5.2-2-5.2-5.2v-23.6c0-3.1,2-5.2,5.2-5.2s5.2,2,5.2,5.2v7.4l1.6-2c1.1-1.4,2.6-2.1,4.3-2.1h3c2.1,0,2.9,1.2,3.1,1.8.2.5.7,2-.6,3.5l-4.9,5.7,4.9,7.6c1.4,2.1.9,3.8.5,4.6-.5.9-1.7,2.1-4.1,2.1v.2h0ZM326.8,93.6h0ZM327.1,93.3h0ZM326.9,87.1v2.7l2.4-2.7h-2.4ZM327.1,69.9h0ZM326.8,69.5h0Z"/>
            </g>
            <g>
              <path class="cls-5" d="M348.7,72.5c-.9,0-1.7-.3-2.3-.8-.6-.5-.9-1.2-.9-2.1s.3-1.6.9-2.1,1.4-.8,2.3-.8,1.7.3,2.2.8c.6.5.9,1.2.9,2.1s-.3,1.5-.9,2.1-1.3.8-2.2.8ZM348.6,95.9c-1.7,0-2.6-.9-2.6-2.6v-14.9c0-1.7.9-2.6,2.6-2.6s2.6.9,2.6,2.6v14.9c0,1.7-.9,2.6-2.6,2.6Z"/>
              <path class="cls-3" d="M348.6,98.5c-3.2,0-5.2-2.1-5.2-5.2v-14.9c0-1.8.7-3.3,1.9-4.2-.2-.2-.4-.3-.6-.5-1.2-1-1.8-2.4-1.8-4s.6-3,1.8-4.1c1.1-.9,2.5-1.4,4-1.4s2.9.5,4,1.5,1.8,2.4,1.8,4-.6,2.9-1.7,4c-.2.2-.5.4-.7.6,1.2.9,1.9,2.4,1.9,4.2v14.9c0,3.2-2.1,5.2-5.2,5.2h-.2,0ZM348.7,93.6h0ZM348.6,93.3h0v-14.9h0v14.9h0ZM348.1,69.6h0v.2h1v-.3h-1ZM348.1,69.5h0Z"/>
            </g>
            <g>
              <path class="cls-5" d="M359.6,95.9c-1.7,0-2.6-.9-2.6-2.6v-15.3c0-1.4.8-2.2,2.3-2.2s2.1.6,2.3,1.9v.7h.3c2.2-2.1,4.3-3.2,6.5-3.2,4.1,0,6.2,2.7,6.2,8.1v9.9c0,1.7-.9,2.6-2.6,2.6s-2.7-.9-2.7-2.6v-9.3c0-1.5-.2-2.6-.7-3.3-.4-.6-1.2-1-2.2-1s-1.5.2-2.2.6c-.5.3-1.2.9-2,1.7v11.2c0,1.7-.9,2.6-2.6,2.6v.2h0Z"/>
              <path class="cls-3" d="M371.9,98.5c-3.2,0-5.3-2.1-5.3-5.2v-9.3c0-.9,0-1.3-.1-1.6h0c-.3,0-.6,0-.9.2,0,0-.3.2-.7.6v10.1c0,3.2-2.1,5.2-5.2,5.2s-5.2-2.1-5.2-5.2v-15.3c0-2.9,1.9-4.8,4.9-4.8s2.6.4,3.4,1.2c1.8-1.2,3.7-1.7,5.7-1.7s8.8,1,8.8,10.7v9.9c0,3.2-2.1,5.2-5.2,5.2h-.2,0ZM371.8,93.3h0v-9.9c0-4.2-1.3-5.2-2.6-5.4.7.4,1.1.9,1.4,1.3.8,1.1,1.1,2.6,1.1,4.8v9.3h.1ZM359.6,93.3h0v-12.2,12.2h0Z"/>
            </g>
            <g>
              <path class="cls-5" d="M387.1,104.6c-2.5,0-4.5-.4-6-1.3-1.6-.9-2.4-2.2-2.4-3.9s1-3.1,2.9-4.2v-.2c-1.2-.8-1.8-1.9-1.8-3.4s.2-1.4.7-2.1c.4-.6.9-1.2,1.5-1.7h0c-.7-.7-1.4-1.4-1.8-2.3-.6-1-.8-2-.8-3.1,0-2.3.8-4.1,2.4-5.4,1.5-1.2,3.4-1.9,5.7-1.9s2.1.2,3,.5h5.3c1.3,0,1.9.6,1.9,1.9s-.6,1.9-1.9,1.9h-1.5c.6.8.9,1.8.9,3.1,0,2.2-.8,3.9-2.3,5.1-1.4,1.2-3.2,1.7-5.5,1.7s-1.7-.2-2.6-.5c-.6.5-.9,1-.9,1.7s.2,1,.7,1.2c.5.3,1.3.4,2.5.4h3.4c5,0,7.5,1.7,7.5,5s-1,3.8-2.9,5.1c-2,1.4-4.7,2-8,2v.4h0ZM387.8,101.3c1.5,0,2.7-.3,3.7-.9.9-.6,1.4-1.2,1.4-2.1s-.3-1.2-.9-1.4c-.5-.2-1.3-.4-2.5-.4h-2.4c-1.1,0-2,0-2.8-.3-.9.7-1.3,1.5-1.3,2.3s.4,1.5,1.3,2,2,.7,3.5.7h0ZM387.4,86.3c.9,0,1.7-.3,2.2-1,.6-.7.9-1.6.9-2.7s-.3-2.1-.9-2.7-1.3-1-2.2-1-1.7.3-2.3,1c-.6.7-.9,1.6-.9,2.7s.3,2.1.9,2.7,1.3,1,2.2,1h0Z"/>
              <path class="cls-3" d="M387.1,107.3c-2.9,0-5.4-.5-7.3-1.6-2.4-1.4-3.8-3.6-3.8-6.2s.4-3,1.8-4.6c-.5-.9-.7-2-.7-3.2s.4-2.4,1.1-3.5c0,0,.1-.2.2-.3-.2-.3-.4-.6-.6-.9-.8-1.4-1.2-2.9-1.2-4.4,0-3,1.2-5.6,3.4-7.4,2-1.6,4.5-2.5,7.3-2.5s2.3.2,3.4.5h4.9c2.7,0,4.6,1.8,4.6,4.6s-1,3.5-2.6,4.2v.8c0,3-1.1,5.4-3.2,7.1-.1,0-.3.2-.4.3,5.8,1.2,6.5,5.4,6.5,7.3s-.7,5-4.1,7.3c-2.5,1.7-5.6,2.5-9.5,2.5h.2ZM395.1,96.3c0,.2.2.3.2.5,0-.2-.1-.3-.2-.5ZM387.4,81.5h-.3c-.2.2-.2.7-.2,1s0,.7.2,1h.6c.2-.2.2-.7.2-1s0-.8-.2-1h-.3Z"/>
            </g>
            <g>
              <path class="cls-5" d="M402.2,87.5c-1.2,0-1.9-.6-1.9-1.9s.6-1.9,1.9-1.9h6.1c1.2,0,1.9.6,1.9,1.9s-.6,1.9-1.9,1.9h-6.1Z"/>
              <path class="cls-3" d="M408.3,90.1h-6.1c-2.7,0-4.5-1.8-4.5-4.5s1.8-4.5,4.5-4.5h6.1c2.7,0,4.5,1.8,4.5,4.5s-1.8,4.5-4.5,4.5Z"/>
            </g>
            <g>
              <path class="cls-6" d="M417.6,95.9c-1.6,0-2.4-.8-2.4-2.4v-21.9c0-.7.2-1.3.6-1.7s1-.6,1.7-.6h1.7c.6,0,1.1.2,1.5.5.5.3.8.7.9,1.3l3.9,10.7c.3.8.6,1.9,1.1,3.5.2.7.4,1.3.5,1.6h.2c.2-.5.4-1.3.8-2.4.4-1.2.6-2.2.9-2.8l3.8-10.7c.2-.5.5-.9.9-1.3.5-.3,1-.5,1.5-.5h2.7c.4,0,.7,0,1,.4s.4.6.4,1v22.8c0,1.6-.8,2.4-2.4,2.4s-2.4-.8-2.4-2.4v-8.7c0-1.5.2-4.2.6-8.1v-.6h-.1l-2.2,6.3-3.6,9.7c-.2.4-.4.8-.8,1-.4.3-.8.4-1.3.4h-.1c-.9,0-1.6-.4-1.9-1.3l-3.6-9.8-2.1-6.3h-.1c0,.3,0,.7.1,1.3.4,3.6.5,6.1.5,7.5v8.7c0,1.6-.8,2.4-2.4,2.4h0Z"/>
              <path class="cls-3" d="M436.9,98.5c-3.1,0-5.1-2-5.1-5v-.9.4c-.5,1-1.1,1.7-1.9,2.3-.8.6-1.8.9-2.7.9h-.1c-2,0-3.6-1.1-4.4-3v-.4c-.1,0-.1.8-.1.8,0,3-2,5-5,5s-5-2-5-5v-21.9c0-1.4.5-2.6,1.4-3.5s2.2-1.4,3.5-1.4h1.7c1.1,0,2.1.3,3,.9s1.6,1.5,1.9,2.6l3.1,8.6,3.1-8.6c.3-1,1-1.9,1.9-2.5s1.9-.9,3-.9h2.7c1.1,0,2.1.4,2.8,1.1.7.7,1.1,1.7,1.1,2.8v22.8c0,3.1-2,5-5,5h.1ZM437.1,93.7h0ZM427,89.5l.2.6.2-.6h-.4ZM434.7,73.4h2v-1.5h-1.4l-.5,1.5h-.1ZM417.8,73.4h2l-.6-1.5h-1.4v1.5Z"/>
            </g>
            <g>
              <path class="cls-5" d="M450.4,96.4c-1.8,0-3.2-.6-4.3-1.7-1.1-1.1-1.7-2.6-1.7-4.3s.9-3.8,2.7-5,4.8-2,8.8-2.4c0-2.3-1.2-3.5-3.4-3.5s-2.3.3-3.6.9c-1.3.6-2.2.4-2.9-.8-.6-1.1-.4-2,.7-2.6,2.3-1.2,4.5-1.8,6.8-1.8s4.5.7,5.8,2.2,2,3.7,2,6.6v9.6c0,1.4-.8,2.2-2.3,2.2s-2.1-.6-2.4-1.9v-.3h-.1c-2.1,1.8-4.1,2.7-6.1,2.7h0ZM452.1,92.3c1.3,0,2.6-.7,3.9-2v-4.1c-2.3.3-4,.8-5.1,1.4-1,.6-1.4,1.4-1.4,2.3,0,1.5.9,2.3,2.7,2.3h-.1Z"/>
              <path class="cls-3" d="M450.4,99c-2.5,0-4.6-.9-6.2-2.5s-2.4-3.7-2.4-6.1,1.4-5.5,3.9-7.2c0,0,.2,0,.3-.2-.9-.4-1.7-1.1-2.3-2.2-1.3-2.4-.6-4.8,1.7-6.1,2.7-1.4,5.4-2.1,8.1-2.1s5.9,1.1,7.7,3.1c1.7,2,2.6,4.8,2.6,8.4v9.6c0,2.9-1.9,4.8-4.9,4.8s-2.4-.4-3.2-1c-1.8,1-3.6,1.5-5.3,1.5h0ZM458.6,91.1h0v-5.8h0v5.8ZM458.6,83v1.1-1.1Z"/>
            </g>
            <g>
              <path class="cls-5" d="M469.3,95.9c-1.7,0-2.6-.9-2.6-2.6v-15.3c0-1.4.8-2.2,2.3-2.2s2.1.6,2.3,1.9v.7h.3c2.2-2.1,4.3-3.2,6.5-3.2,4.1,0,6.2,2.7,6.2,8.1v9.9c0,1.7-.9,2.6-2.6,2.6s-2.7-.9-2.7-2.6v-9.3c0-1.5-.2-2.6-.7-3.3-.4-.6-1.2-1-2.2-1s-1.5.2-2.2.6c-.5.3-1.2.9-2,1.7v11.2c0,1.7-.9,2.6-2.6,2.6v.2h0Z"/>
              <path class="cls-3" d="M481.6,98.5c-3.2,0-5.3-2.1-5.3-5.2v-9.3c0-.9,0-1.3-.1-1.6-.3,0-.6,0-.9.2,0,0-.3.2-.7.6v10.1c0,3.2-2.1,5.2-5.2,5.2s-5.2-2.1-5.2-5.2v-15.3c0-2.9,1.9-4.8,4.9-4.8s2.6.4,3.4,1.2c1.8-1.2,3.7-1.7,5.7-1.7s8.8,1,8.8,10.7v9.9c0,3.2-2.1,5.2-5.2,5.2h-.2,0ZM469.3,93.6h0ZM481.6,93.3h0v-9.9c0-4.2-1.3-5.2-2.5-5.4.6.4,1,.9,1.4,1.3.8,1.1,1.1,2.6,1.1,4.8v9.3h0ZM469.3,93.3h0v-12.2,12.2h0Z"/>
            </g>
            <g>
              <path class="cls-5" d="M496.8,96.4c-2.5,0-4.5-.9-6-2.8s-2.2-4.4-2.2-7.7.9-5.8,2.6-7.8c1.6-1.9,3.6-2.8,5.9-2.8s2,.2,2.9.6c.7.3,1.4.8,2.2,1.6l-.2-3.2v-4.5c0-1.7.9-2.6,2.7-2.6s2.6.9,2.6,2.6v23.9c0,.7-.2,1.2-.6,1.6s-1,.5-1.7.5c-1.3,0-2.1-.6-2.3-1.8v-.3h-.2c-1.8,1.7-3.6,2.6-5.6,2.6h0ZM498.2,92.1c1.4,0,2.7-.7,3.7-2.1v-8.8c-1.1-1-2.3-1.5-3.7-1.5s-2.2.5-2.9,1.6c-.8,1.1-1.2,2.7-1.2,4.6s.4,3.6,1.1,4.7,1.7,1.6,3.1,1.6h-.1Z"/>
              <path class="cls-3" d="M496.8,99c-3.3,0-6.1-1.3-8.1-3.8-1.9-2.3-2.8-5.5-2.8-9.3s1.1-7,3.2-9.5,4.8-3.8,7.8-3.8,1.5,0,2.3.3v-3.1c0-3.2,2.1-5.2,5.3-5.2s5.2,2.1,5.2,5.2v23.9c0,1.8-.8,2.9-1.5,3.5-.6.5-1.7,1.2-3.4,1.2s-2.3-.3-3.1-.9c-1.6,1-3.3,1.4-5,1.4h.1ZM492.3,81c-.8,1.3-1.2,3-1.2,4.9s.6,4.7,1.7,6.1c.1.2.3.3.4.5-.1-.2-.3-.3-.4-.5-1-1.5-1.5-3.5-1.5-6.1s.3-3.5,1-4.9ZM504.3,91.2h.3v.2-8h0v7.5l-.3.3ZM498.2,82.2c-.3,0-.5,0-.8.5-.5.7-.7,1.7-.7,3.1,0,2,.4,2.9.6,3.2.2.2.3.4.9.4s.6,0,1.1-.5v-6.5c-.4-.2-.7-.2-1.1-.2ZM504.5,74.2v.7-5h0v4.4h0Z"/>
            </g>
            <g>
              <path class="cls-5" d="M517.8,96.4c-1.8,0-3.2-.6-4.3-1.7s-1.7-2.6-1.7-4.3.9-3.8,2.7-5,4.8-2,8.8-2.4c0-2.3-1.2-3.5-3.4-3.5s-2.3.3-3.6.9-2.2.4-2.9-.8c-.6-1.1-.4-2,.7-2.6,2.3-1.2,4.5-1.8,6.8-1.8s4.5.7,5.8,2.2,2,3.7,2,6.6v9.6c0,1.4-.8,2.2-2.3,2.2s-2.1-.6-2.4-1.9v-.3h0c-2.1,1.8-4.1,2.7-6.1,2.7h0ZM519.5,92.3c1.3,0,2.6-.7,3.9-2v-4.1c-2.3.3-4,.8-5.1,1.4-1,.6-1.4,1.4-1.4,2.3,0,1.5.9,2.3,2.7,2.3h-.1Z"/>
              <path class="cls-3" d="M517.8,99c-2.5,0-4.6-.8-6.2-2.5-1.6-1.6-2.4-3.7-2.4-6.1s1.4-5.5,3.9-7.2c0,0,.2,0,.3-.2-.9-.4-1.7-1.1-2.3-2.2-1.3-2.4-.6-4.8,1.7-6.1,2.7-1.4,5.4-2.1,8.1-2.1s5.9,1.1,7.7,3.1c1.7,2,2.6,4.8,2.6,8.4v9.6c0,2.9-1.9,4.8-4.9,4.8s-2.4-.4-3.2-1c-1.8,1-3.6,1.5-5.3,1.5h0ZM526,91.1h0v-5.8h0v5.8ZM526,82.9v1.1-1.1Z"/>
            </g>
            <g>
              <path class="cls-5" d="M536.7,95.9c-1.7,0-2.6-.9-2.6-2.6v-15.3c0-1.4.7-2.2,2.2-2.2s2.2.7,2.3,2v1.6h.3c.7-1.3,1.6-2.3,2.6-3s2-1,3.1-1h.5c.6,0,1.1.5,1.3,1s.3,1.1,0,1.8c-.3,1.5-1.2,2.2-2.5,1.9h0c-.9,0-1.7.3-2.5.9-.9.7-1.6,1.7-2.2,3.1v9.4c0,1.7-.9,2.6-2.6,2.6v-.2h.1Z"/>
              <path class="cls-3" d="M536.7,98.5c-3.2,0-5.2-2.1-5.2-5.2v-15.3c0-2.9,1.9-4.8,4.8-4.8s2.6.4,3.4,1.2c0,0,.2,0,.3-.2,1.5-1,3-1.5,4.6-1.5h1c1.4.4,2.5,1.2,3.1,2.5.5,1.1.6,2.2.3,3.4-.6,2.8-2.6,4.3-5.2,4-.2,0-.5,0-.8.3-.5.3-.8.8-1.2,1.5v8.9c0,3.2-2.1,5.2-5.2,5.2h.1ZM536.7,93.6h0ZM536.7,93.3h0v-9.9l.2-.5c0-.3.3-.7.4-1h-.6v11.3h0Z"/>
            </g>
            <g>
              <path class="cls-5" d="M552.4,72.5c-.9,0-1.7-.3-2.3-.8s-.9-1.2-.9-2.1.3-1.6.9-2.1c.6-.5,1.4-.8,2.3-.8s1.7.3,2.2.8c.6.5.9,1.2.9,2.1s-.3,1.5-.9,2.1c-.6.6-1.3.8-2.2.8ZM552.4,95.9c-1.7,0-2.6-.9-2.6-2.6v-14.9c0-1.7.9-2.6,2.6-2.6s2.6.9,2.6,2.6v14.9c0,1.7-.9,2.6-2.6,2.6Z"/>
              <path class="cls-3" d="M552.4,98.5c-3.2,0-5.2-2.1-5.2-5.2v-14.9c0-1.8.7-3.3,1.9-4.2-.2,0-.4-.3-.6-.5-1.2-1-1.8-2.4-1.8-4s.6-3,1.8-4.1c1.1-.9,2.5-1.4,4-1.4s2.9.5,4,1.5,1.8,2.4,1.8,4-.6,2.9-1.7,4c-.2.2-.5.4-.7.6,1.2.9,1.9,2.4,1.9,4.2v14.9c0,3.2-2.1,5.2-5.2,5.2h-.2ZM552.4,93.3h0v-14.9h0v14.9h0ZM551.9,69.5h0v.2s.2.2.5.2h.5v-.3h-1Z"/>
            </g>
            <g>
              <path class="cls-5" d="M563.3,95.9c-1.7,0-2.6-.9-2.6-2.6v-15.3c0-1.4.8-2.2,2.3-2.2s2.1.6,2.3,1.9v.7h.3c2.2-2.1,4.3-3.2,6.5-3.2,4.1,0,6.2,2.7,6.2,8.1v9.9c0,1.7-.9,2.6-2.6,2.6s-2.7-.9-2.7-2.6v-9.3c0-1.5-.2-2.6-.7-3.3-.4-.6-1.2-1-2.2-1s-1.5.2-2.2.6c-.5.3-1.2.9-2,1.7v11.2c0,1.7-.9,2.6-2.6,2.6v.2h0Z"/>
              <path class="cls-3" d="M575.7,98.5c-3.2,0-5.3-2.1-5.3-5.2v-10.9c-.3,0-.6,0-.9.2,0,0-.3.2-.7.6v10.1c0,3.2-2.1,5.2-5.2,5.2s-5.2-2.1-5.2-5.2v-15.3c0-2.9,1.9-4.8,4.9-4.8s2.6.4,3.4,1.2c1.8-1.2,3.7-1.7,5.7-1.7s8.8,1,8.8,10.7v9.9c0,3.2-2.1,5.2-5.2,5.2h-.3ZM563.3,93.6h0ZM575.6,93.3h0v-9.9c0-4.2-1.3-5.2-2.5-5.4.6.4,1,.9,1.4,1.3.8,1.1,1.1,2.6,1.1,4.8v9.3h0ZM563.3,93.3h0v-12.2,12.2h0Z"/>
            </g>
          </g>
          <g>
            <path class="cls-6" d="M171.9,96.4c-2.9,0-5.5-.8-7.9-2.4-1.2-1-1.3-2.1-.3-3.2,1.1-1.3,2.3-1.4,3.7-.4,1.6.9,3.2,1.4,4.7,1.4s2.4-.3,3.1-.8c.7-.5,1.1-1.3,1.1-2.2s-.3-1.6-1-2.1c-.4-.3-1.3-.8-2.7-1.4h-.3l-3.6-1.5c-3.6-1.5-5.4-3.9-5.4-7.2s.9-4,2.6-5.5c1.7-1.5,3.9-2.2,6.6-2.2s4.8.7,6.8,2.1c1,.9,1.1,1.8.2,2.9-1,1.2-2,1.3-3.2.5-1.2-.6-2.4-.9-3.8-.9s-2.1.3-2.8.8-1,1.2-1,2,.4,1.5,1.2,2.1c.5.4,1.4.8,2.8,1.3h.3l3.5,1.5c1.7.7,3,1.6,3.9,2.7,1,1.2,1.5,2.7,1.5,4.6s-.9,4.1-2.6,5.6c-1.8,1.6-4.2,2.4-7.2,2.4h-.2Z"/>
            <path class="cls-5" d="M188.6,95.9c-1.7,0-2.6-.9-2.6-2.6v-15.3c0-1.4.8-2.2,2.3-2.2s2.1.6,2.3,1.9v.8h.3c1-1,1.9-1.8,2.7-2.3,1.1-.6,2.3-.9,3.5-.9,2.7,0,4.5,1.2,5.5,3.5,1.1-1.1,2-2,2.9-2.5,1.1-.7,2.3-1,3.5-1,2.1,0,3.7.7,4.7,2.2,1,1.4,1.5,3.3,1.5,5.9v9.9c0,1.7-.9,2.6-2.6,2.6s-2.7-.9-2.7-2.6v-9.3c0-1.5-.2-2.6-.7-3.3-.4-.6-1.1-.9-2.1-.9s-2.4.8-3.9,2.3v11.2c0,1.7-.9,2.6-2.6,2.6s-2.7-.9-2.7-2.6v-9.3c0-1.5-.2-2.6-.7-3.3-.4-.6-1.1-.9-2.1-.9s-2.4.8-3.9,2.3v11.2c0,1.7-.9,2.6-2.6,2.6h0Z"/>
            <path class="cls-5" d="M225.6,96.4c-1.8,0-3.2-.6-4.3-1.7s-1.7-2.6-1.7-4.3.9-3.8,2.7-5,4.8-2,8.8-2.4c0-2.3-1.2-3.5-3.4-3.5s-2.3.3-3.6.9-2.2.4-2.9-.8c-.6-1.1-.4-2,.7-2.6,2.3-1.2,4.5-1.8,6.8-1.8s4.5.7,5.8,2.2,2,3.7,2,6.6v9.6c0,1.4-.8,2.2-2.3,2.2s-2.1-.6-2.4-1.9v-.3h-.1c-2.1,1.8-4.1,2.7-6.1,2.7h0ZM227.3,92.3c1.3,0,2.6-.7,3.9-2v-4.1c-2.3.3-4,.8-5.1,1.4-1,.6-1.4,1.4-1.4,2.3,0,1.5.9,2.3,2.7,2.3h0Z"/>
            <path class="cls-5" d="M244.5,95.9c-1.7,0-2.6-.9-2.6-2.6v-15.3c0-1.4.7-2.2,2.2-2.2s2.2.7,2.3,2v1.6h.3c.7-1.3,1.6-2.3,2.6-3s2-1,3.1-1h.5c.6,0,1.1.5,1.3,1s.3,1.1.1,1.8c-.3,1.5-1.2,2.2-2.5,1.9h0c-.9,0-1.7.3-2.5.9-.9.7-1.6,1.7-2.2,3.1v9.4c0,1.7-.9,2.6-2.6,2.6v-.2h0Z"/>
            <path class="cls-5" d="M264.9,96.4c-4.4,0-6.6-2.5-6.6-7.5v-8.9h-.9c-1.3,0-1.9-.7-1.9-2s.6-2,1.8-2h1.3l.4-3.5c.1-1.4.9-2,2.3-2s2.3.7,2.3,2.2v3.2h2.9c1.4,0,2.1.7,2.1,2.1s-.7,2.1-2.1,2.1h-2.9v8.9c0,2.3.9,3.4,2.7,3.4h0c1.2-.3,2,.2,2.3,1.5.3,1.2-.1,2-1.2,2.3-.9.2-1.8.3-2.7.3h.2Z"/>
            <path class="cls-6" d="M280.3,95.9c-1.8,0-2.7-.9-2.7-2.7v-19.5h-5.3c-1.5,0-2.2-.7-2.2-2.2s.7-2.2,2.2-2.2h16c1.5,0,2.2.7,2.2,2.2s-.7,2.2-2.2,2.2h-5.4v19.5c0,1.8-.9,2.7-2.7,2.7h.1Z"/>
            <path class="cls-5" d="M296.7,96.4c-1.8,0-3.2-.6-4.3-1.7-1.1-1.1-1.7-2.6-1.7-4.3s.9-3.8,2.7-5,4.8-2,8.8-2.4c0-2.3-1.2-3.5-3.4-3.5s-2.3.3-3.6.9c-1.3.6-2.2.4-2.9-.8-.6-1.1-.4-2,.7-2.6,2.3-1.2,4.5-1.8,6.8-1.8s4.5.7,5.8,2.2,2,3.7,2,6.6v9.6c0,1.4-.8,2.2-2.3,2.2s-2.1-.6-2.4-1.9v-.3h-.1c-2.1,1.8-4.1,2.7-6.1,2.7h0ZM298.4,92.3c1.3,0,2.6-.7,3.9-2v-4.1c-2.3.3-4,.8-5.1,1.4-1,.6-1.4,1.4-1.4,2.3,0,1.5.9,2.3,2.7,2.3h-.1Z"/>
            <path class="cls-5" d="M317.9,96.4c-3.3,0-5-2-5-6.1v-20.4c0-1.7.9-2.6,2.6-2.6s2.6.9,2.6,2.6v20.7c0,1.1.4,1.6,1.1,1.6h0c.2,0,.4,0,.5.3.1.2.2.4.3.7.1.7.1,1.3,0,1.9-.2.7-.5,1.2-1,1.3h-1.3.2,0Z"/>
            <path class="cls-5" d="M326.9,95.9c-1.7,0-2.6-.8-2.6-2.6v-23.6c0-1.7.9-2.6,2.6-2.6s2.6.8,2.6,2.6v14.7h.1l6.1-7.6c.6-.7,1.4-1.1,2.3-1.1h3c.4,0,.7,0,.7.3s0,.4-.3.7l-6.1,7.2,5.9,9.3c.5.8.7,1.4.4,1.9-.3.5-.9.7-1.8.7h-1c-.5,0-.9,0-1.4-.4-.4-.3-.8-.6-1.1-1l-4.1-6.9-2.9,3.3v2.5c0,1.7-.9,2.6-2.6,2.6h.2,0Z"/>
            <path class="cls-5" d="M348.7,72.5c-.9,0-1.7-.3-2.3-.8-.6-.5-.9-1.2-.9-2.1s.3-1.6.9-2.1,1.4-.8,2.3-.8,1.7.3,2.2.8c.6.5.9,1.2.9,2.1s-.3,1.5-.9,2.1-1.3.8-2.2.8ZM348.6,95.9c-1.7,0-2.6-.9-2.6-2.6v-14.9c0-1.7.9-2.6,2.6-2.6s2.6.9,2.6,2.6v14.9c0,1.7-.9,2.6-2.6,2.6Z"/>
            <path class="cls-5" d="M359.6,95.9c-1.7,0-2.6-.9-2.6-2.6v-15.3c0-1.4.8-2.2,2.3-2.2s2.1.6,2.3,1.9v.7h.3c2.2-2.1,4.3-3.2,6.5-3.2,4.1,0,6.2,2.7,6.2,8.1v9.9c0,1.7-.9,2.6-2.6,2.6s-2.7-.9-2.7-2.6v-9.3c0-1.5-.2-2.6-.7-3.3-.4-.6-1.2-1-2.2-1s-1.5.2-2.2.6c-.5.3-1.2.9-2,1.7v11.2c0,1.7-.9,2.6-2.6,2.6v.2h0Z"/>
            <path class="cls-5" d="M387.1,104.6c-2.5,0-4.5-.4-6-1.3-1.6-.9-2.4-2.2-2.4-3.9s1-3.1,2.9-4.2v-.2c-1.2-.8-1.8-1.9-1.8-3.4s.2-1.4.7-2.1c.4-.6.9-1.2,1.5-1.7h0c-.7-.7-1.4-1.4-1.8-2.3-.6-1-.8-2-.8-3.1,0-2.3.8-4.1,2.4-5.4,1.5-1.2,3.4-1.9,5.7-1.9s2.1.2,3,.5h5.3c1.3,0,1.9.6,1.9,1.9s-.6,1.9-1.9,1.9h-1.5c.6.8.9,1.8.9,3.1,0,2.2-.8,3.9-2.3,5.1-1.4,1.2-3.2,1.7-5.5,1.7s-1.7-.2-2.6-.5c-.6.5-.9,1-.9,1.7s.2,1,.7,1.2c.5.3,1.3.4,2.5.4h3.4c5,0,7.5,1.7,7.5,5s-1,3.8-2.9,5.1c-2,1.4-4.7,2-8,2v.4h0ZM387.8,101.3c1.5,0,2.7-.3,3.7-.9.9-.6,1.4-1.2,1.4-2.1s-.3-1.2-.9-1.4c-.5-.2-1.3-.4-2.5-.4h-2.4c-1.1,0-2,0-2.8-.3-.9.7-1.3,1.5-1.3,2.3s.4,1.5,1.3,2,2,.7,3.5.7h0ZM387.4,86.3c.9,0,1.7-.3,2.2-1,.6-.7.9-1.6.9-2.7s-.3-2.1-.9-2.7-1.3-1-2.2-1-1.7.3-2.3,1c-.6.7-.9,1.6-.9,2.7s.3,2.1.9,2.7,1.3,1,2.2,1h0Z"/>
            <path class="cls-5" d="M402.2,87.5c-1.2,0-1.9-.6-1.9-1.9s.6-1.9,1.9-1.9h6.1c1.2,0,1.9.6,1.9,1.9s-.6,1.9-1.9,1.9h-6.1Z"/>
            <path class="cls-6" d="M417.6,95.9c-1.6,0-2.4-.8-2.4-2.4v-21.9c0-.7.2-1.3.6-1.7s1-.6,1.7-.6h1.7c.6,0,1.1.2,1.5.5.5.3.8.7.9,1.3l3.9,10.7c.3.8.6,1.9,1.1,3.5.2.7.4,1.3.5,1.6h.2c.2-.5.4-1.3.8-2.4.4-1.2.6-2.2.9-2.8l3.8-10.7c.2-.5.5-.9.9-1.3.5-.3,1-.5,1.5-.5h2.7c.4,0,.7,0,1,.4s.4.6.4,1v22.8c0,1.6-.8,2.4-2.4,2.4s-2.4-.8-2.4-2.4v-8.7c0-1.5.2-4.2.6-8.1v-.6h-.1l-2.2,6.3-3.6,9.7c-.2.4-.4.8-.8,1-.4.3-.8.4-1.3.4h-.1c-.9,0-1.6-.4-1.9-1.3l-3.6-9.8-2.1-6.3h-.1c0,.3,0,.7.1,1.3.4,3.6.5,6.1.5,7.5v8.7c0,1.6-.8,2.4-2.4,2.4h0Z"/>
            <path class="cls-5" d="M450.4,96.4c-1.8,0-3.2-.6-4.3-1.7-1.1-1.1-1.7-2.6-1.7-4.3s.9-3.8,2.7-5,4.8-2,8.8-2.4c0-2.3-1.2-3.5-3.4-3.5s-2.3.3-3.6.9c-1.3.6-2.2.4-2.9-.8-.6-1.1-.4-2,.7-2.6,2.3-1.2,4.5-1.8,6.8-1.8s4.5.7,5.8,2.2,2,3.7,2,6.6v9.6c0,1.4-.8,2.2-2.3,2.2s-2.1-.6-2.4-1.9v-.3h-.1c-2.1,1.8-4.1,2.7-6.1,2.7h0ZM452.1,92.3c1.3,0,2.6-.7,3.9-2v-4.1c-2.3.3-4,.8-5.1,1.4-1,.6-1.4,1.4-1.4,2.3,0,1.5.9,2.3,2.7,2.3h-.1Z"/>
            <path class="cls-5" d="M469.3,95.9c-1.7,0-2.6-.9-2.6-2.6v-15.3c0-1.4.8-2.2,2.3-2.2s2.1.6,2.3,1.9v.7h.3c2.2-2.1,4.3-3.2,6.5-3.2,4.1,0,6.2,2.7,6.2,8.1v9.9c0,1.7-.9,2.6-2.6,2.6s-2.7-.9-2.7-2.6v-9.3c0-1.5-.2-2.6-.7-3.3-.4-.6-1.2-1-2.2-1s-1.5.2-2.2.6c-.5.3-1.2.9-2,1.7v11.2c0,1.7-.9,2.6-2.6,2.6v.2h0Z"/>
            <path class="cls-5" d="M496.8,96.4c-2.5,0-4.5-.9-6-2.8s-2.2-4.4-2.2-7.7.9-5.8,2.6-7.8c1.6-1.9,3.6-2.8,5.9-2.8s2,.2,2.9.6c.7.3,1.4.8,2.2,1.6l-.2-3.2v-4.5c0-1.7.9-2.6,2.7-2.6s2.6.9,2.6,2.6v23.9c0,.7-.2,1.2-.6,1.6s-1,.5-1.7.5c-1.3,0-2.1-.6-2.3-1.8v-.3h-.2c-1.8,1.7-3.6,2.6-5.6,2.6h0ZM498.2,92.1c1.4,0,2.7-.7,3.7-2.1v-8.8c-1.1-1-2.3-1.5-3.7-1.5s-2.2.5-2.9,1.6c-.8,1.1-1.2,2.7-1.2,4.6s.4,3.6,1.1,4.7,1.7,1.6,3.1,1.6h-.1Z"/>
            <path class="cls-5" d="M517.8,96.4c-1.8,0-3.2-.6-4.3-1.7s-1.7-2.6-1.7-4.3.9-3.8,2.7-5,4.8-2,8.8-2.4c0-2.3-1.2-3.5-3.4-3.5s-2.3.3-3.6.9-2.2.4-2.9-.8c-.6-1.1-.4-2,.7-2.6,2.3-1.2,4.5-1.8,6.8-1.8s4.5.7,5.8,2.2,2,3.7,2,6.6v9.6c0,1.4-.8,2.2-2.3,2.2s-2.1-.6-2.4-1.9v-.3h0c-2.1,1.8-4.1,2.7-6.1,2.7h0ZM519.5,92.3c1.3,0,2.6-.7,3.9-2v-4.1c-2.3.3-4,.8-5.1,1.4-1,.6-1.4,1.4-1.4,2.3,0,1.5.9,2.3,2.7,2.3h-.1Z"/>
            <path class="cls-5" d="M536.7,95.9c-1.7,0-2.6-.9-2.6-2.6v-15.3c0-1.4.7-2.2,2.2-2.2s2.2.7,2.3,2v1.6h.3c.7-1.3,1.6-2.3,2.6-3s2-1,3.1-1h.5c.6,0,1.1.5,1.3,1s.3,1.1,0,1.8c-.3,1.5-1.2,2.2-2.5,1.9h0c-.9,0-1.7.3-2.5.9-.9.7-1.6,1.7-2.2,3.1v9.4c0,1.7-.9,2.6-2.6,2.6v-.2h.1Z"/>
            <path class="cls-5" d="M552.4,72.5c-.9,0-1.7-.3-2.3-.8s-.9-1.2-.9-2.1.3-1.6.9-2.1c.6-.5,1.4-.8,2.3-.8s1.7.3,2.2.8c.6.5.9,1.2.9,2.1s-.3,1.5-.9,2.1c-.6.6-1.3.8-2.2.8ZM552.4,95.9c-1.7,0-2.6-.9-2.6-2.6v-14.9c0-1.7.9-2.6,2.6-2.6s2.6.9,2.6,2.6v14.9c0,1.7-.9,2.6-2.6,2.6Z"/>
            <path class="cls-5" d="M563.3,95.9c-1.7,0-2.6-.9-2.6-2.6v-15.3c0-1.4.8-2.2,2.3-2.2s2.1.6,2.3,1.9v.7h.3c2.2-2.1,4.3-3.2,6.5-3.2,4.1,0,6.2,2.7,6.2,8.1v9.9c0,1.7-.9,2.6-2.6,2.6s-2.7-.9-2.7-2.6v-9.3c0-1.5-.2-2.6-.7-3.3-.4-.6-1.2-1-2.2-1s-1.5.2-2.2.6c-.5.3-1.2.9-2,1.7v11.2c0,1.7-.9,2.6-2.6,2.6v.2h0Z"/>
          </g>
        </g>
      </g>
    </g>
  </g>
</svg>