<?xml version="1.0" encoding="UTF-8"?>
<svg xmlns="http://www.w3.org/2000/svg" version="1.1" viewBox="0 0 421.6 43.3">
  <defs>
    <style>
      .cls-1 {
        fill: none;
        stroke: #fff;
        stroke-miterlimit: 10;
        stroke-width: 5.2px;
      }

      .cls-2 {
        fill: #fff;
      }

      .cls-3 {
        fill: #314675;
      }

      .cls-4 {
        fill: #4dbcbc;
      }
    </style>
  </defs>
  <!-- Generator: Adobe Illustrator 28.7.7, SVG Export Plug-In . SVG Version: 1.2.0 Build 194)  -->
  <g>
    <g id="_圖層_1" data-name="圖層_1">
      <g>
        <g>
          <g>
            <path class="cls-4" d="M11.5,32.5c-2.9,0-5.5-.8-7.9-2.4-1.2-1-1.3-2.1-.3-3.2,1.1-1.3,2.3-1.4,3.7-.4,1.6.9,3.2,1.4,4.7,1.4s2.4-.3,3.1-.8c.7-.5,1.1-1.3,1.1-2.2s-.3-1.6-1-2.1c-.4-.3-1.3-.8-2.7-1.4h-.3l-3.6-1.5c-3.6-1.5-5.4-3.9-5.4-7.2s.9-4,2.6-5.5c1.7-1.5,3.9-2.2,6.6-2.2s4.8.7,6.8,2.1c1,.9,1.1,1.8.2,2.9-1,1.2-2,1.3-3.2.5-1.2-.6-2.4-.9-3.8-.9s-2.1.3-2.8.8-1,1.2-1,2,.4,1.5,1.2,2.1c.5.4,1.4.8,2.8,1.3h.3l3.5,1.5c1.7.7,3,1.6,3.9,2.7,1,1.2,1.5,2.7,1.5,4.6s-.9,4.1-2.6,5.6c-1.8,1.6-4.2,2.4-7.2,2.4h-.2Z"/>
            <path class="cls-1" d="M11.5,32.5c-2.9,0-5.5-.8-7.9-2.4-1.2-1-1.3-2.1-.3-3.2,1.1-1.3,2.3-1.4,3.7-.4,1.6.9,3.2,1.4,4.7,1.4s2.4-.3,3.1-.8c.7-.5,1.1-1.3,1.1-2.2s-.3-1.6-1-2.1c-.4-.3-1.3-.8-2.7-1.4h-.3l-3.6-1.5c-3.6-1.5-5.4-3.9-5.4-7.2s.9-4,2.6-5.5c1.7-1.5,3.9-2.2,6.6-2.2s4.8.7,6.8,2.1c1,.9,1.1,1.8.2,2.9-1,1.2-2,1.3-3.2.5-1.2-.6-2.4-.9-3.8-.9s-2.1.3-2.8.8-1,1.2-1,2,.4,1.5,1.2,2.1c.5.4,1.4.8,2.8,1.3h.3l3.5,1.5c1.7.7,3,1.6,3.9,2.7,1,1.2,1.5,2.7,1.5,4.6s-.9,4.1-2.6,5.6c-1.8,1.6-4.2,2.4-7.2,2.4h-.2Z"/>
          </g>
          <g>
            <path class="cls-3" d="M28.2,32c-1.7,0-2.6-.9-2.6-2.6v-15.3c0-1.4.8-2.2,2.3-2.2s2.1.6,2.3,1.9v.8h.3c1-1,1.9-1.8,2.7-2.3,1.1-.6,2.3-.9,3.5-.9,2.7,0,4.5,1.2,5.5,3.5,1.1-1.1,2-2,2.9-2.5,1.1-.7,2.3-1,3.5-1,2.1,0,3.7.7,4.7,2.2,1,1.4,1.5,3.3,1.5,5.9v9.9c0,1.7-.9,2.6-2.6,2.6s-2.7-.9-2.7-2.6v-9.3c0-1.5-.2-2.6-.7-3.3-.4-.6-1.1-.9-2.1-.9s-2.4.8-3.9,2.3v11.2c0,1.7-.9,2.6-2.6,2.6s-2.7-.9-2.7-2.6v-9.3c0-1.5-.2-2.6-.7-3.3-.4-.6-1.1-.9-2.1-.9s-2.4.8-3.9,2.3v11.2c0,1.7-.9,2.6-2.6,2.6h0Z"/>
            <path class="cls-1" d="M28.2,32c-1.7,0-2.6-.9-2.6-2.6v-15.3c0-1.4.8-2.2,2.3-2.2s2.1.6,2.3,1.9v.8h.3c1-1,1.9-1.8,2.7-2.3,1.1-.6,2.3-.9,3.5-.9,2.7,0,4.5,1.2,5.5,3.5,1.1-1.1,2-2,2.9-2.5,1.1-.7,2.3-1,3.5-1,2.1,0,3.7.7,4.7,2.2,1,1.4,1.5,3.3,1.5,5.9v9.9c0,1.7-.9,2.6-2.6,2.6s-2.7-.9-2.7-2.6v-9.3c0-1.5-.2-2.6-.7-3.3-.4-.6-1.1-.9-2.1-.9s-2.4.8-3.9,2.3v11.2c0,1.7-.9,2.6-2.6,2.6s-2.7-.9-2.7-2.6v-9.3c0-1.5-.2-2.6-.7-3.3-.4-.6-1.1-.9-2.1-.9s-2.4.8-3.9,2.3v11.2c0,1.7-.9,2.6-2.6,2.6h0Z"/>
          </g>
          <g>
            <path class="cls-3" d="M65.2,32.5c-1.8,0-3.2-.6-4.3-1.7s-1.7-2.6-1.7-4.3.9-3.8,2.7-5,4.8-2,8.8-2.4c0-2.3-1.2-3.5-3.4-3.5s-2.3.3-3.6.9-2.2.4-2.9-.8c-.6-1.1-.4-2,.7-2.6,2.3-1.2,4.5-1.8,6.8-1.8s4.5.7,5.8,2.2,2,3.7,2,6.6v9.6c0,1.4-.8,2.2-2.3,2.2s-2.1-.6-2.4-1.9v-.3h-.1c-2.1,1.8-4.1,2.7-6.1,2.7h0ZM66.9,28.4c1.3,0,2.6-.7,3.9-2v-4.1c-2.3.3-4,.8-5.1,1.4-1,.6-1.4,1.4-1.4,2.3,0,1.5.9,2.3,2.7,2.3h0Z"/>
            <path class="cls-1" d="M65.2,32.5c-1.8,0-3.2-.6-4.3-1.7s-1.7-2.6-1.7-4.3.9-3.8,2.7-5,4.8-2,8.8-2.4c0-2.3-1.2-3.5-3.4-3.5s-2.3.3-3.6.9-2.2.4-2.9-.8c-.6-1.1-.4-2,.7-2.6,2.3-1.2,4.5-1.8,6.8-1.8s4.5.7,5.8,2.2,2,3.7,2,6.6v9.6c0,1.4-.8,2.2-2.3,2.2s-2.1-.6-2.4-1.9v-.3h-.1c-2.1,1.8-4.1,2.7-6.1,2.7h0ZM66.9,28.4c1.3,0,2.6-.7,3.9-2v-4.1c-2.3.3-4,.8-5.1,1.4-1,.6-1.4,1.4-1.4,2.3,0,1.5.9,2.3,2.7,2.3h0Z"/>
          </g>
          <g>
            <path class="cls-3" d="M84.1,32c-1.7,0-2.6-.9-2.6-2.6v-15.3c0-1.4.7-2.2,2.2-2.2s2.2.7,2.3,2v1.6h.3c.7-1.3,1.6-2.3,2.6-3s2-1,3.1-1h.5c.6,0,1.1.5,1.3,1s.3,1.1.1,1.8c-.3,1.5-1.2,2.2-2.5,1.9h0c-.9,0-1.7.3-2.5.9-.9.7-1.6,1.7-2.2,3.1v9.4c0,1.7-.9,2.6-2.6,2.6v-.2h0Z"/>
            <path class="cls-1" d="M84.1,32c-1.7,0-2.6-.9-2.6-2.6v-15.3c0-1.4.7-2.2,2.2-2.2s2.2.7,2.3,2v1.6h.3c.7-1.3,1.6-2.3,2.6-3s2-1,3.1-1h.5c.6,0,1.1.5,1.3,1s.3,1.1.1,1.8c-.3,1.5-1.2,2.2-2.5,1.9h0c-.9,0-1.7.3-2.5.9-.9.7-1.6,1.7-2.2,3.1v9.4c0,1.7-.9,2.6-2.6,2.6v-.2h0Z"/>
          </g>
          <g>
            <path class="cls-3" d="M104.5,32.5c-4.4,0-6.6-2.5-6.6-7.5v-8.9h-.9c-1.3,0-1.9-.7-1.9-2s.6-2,1.8-2h1.3l.4-3.5c.1-1.4.9-2,2.3-2s2.3.7,2.3,2.2v3.2h2.9c1.4,0,2.1.7,2.1,2.1s-.7,2.1-2.1,2.1h-2.9v8.9c0,2.3.9,3.4,2.7,3.4h0c1.2-.3,2,.2,2.3,1.5.3,1.2-.1,2-1.2,2.3-.9.2-1.8.3-2.7.3h.2Z"/>
            <path class="cls-1" d="M104.5,32.5c-4.4,0-6.6-2.5-6.6-7.5v-8.9h-.9c-1.3,0-1.9-.7-1.9-2s.6-2,1.8-2h1.3l.4-3.5c.1-1.4.9-2,2.3-2s2.3.7,2.3,2.2v3.2h2.9c1.4,0,2.1.7,2.1,2.1s-.7,2.1-2.1,2.1h-2.9v8.9c0,2.3.9,3.4,2.7,3.4h0c1.2-.3,2,.2,2.3,1.5.3,1.2-.1,2-1.2,2.3-.9.2-1.8.3-2.7.3h.2Z"/>
          </g>
          <g>
            <path class="cls-4" d="M119.9,32c-1.8,0-2.7-.9-2.7-2.7V9.8h-5.3c-1.5,0-2.2-.7-2.2-2.2s.7-2.2,2.2-2.2h16c1.5,0,2.2.7,2.2,2.2s-.7,2.2-2.2,2.2h-5.4v19.5c0,1.8-.9,2.7-2.7,2.7h.1Z"/>
            <path class="cls-1" d="M119.9,32c-1.8,0-2.7-.9-2.7-2.7V9.8h-5.3c-1.5,0-2.2-.7-2.2-2.2s.7-2.2,2.2-2.2h16c1.5,0,2.2.7,2.2,2.2s-.7,2.2-2.2,2.2h-5.4v19.5c0,1.8-.9,2.7-2.7,2.7h.1Z"/>
          </g>
          <g>
            <path class="cls-3" d="M136.3,32.5c-1.8,0-3.2-.6-4.3-1.7-1.1-1.1-1.7-2.6-1.7-4.3s.9-3.8,2.7-5,4.8-2,8.8-2.4c0-2.3-1.2-3.5-3.4-3.5s-2.3.3-3.6.9c-1.3.6-2.2.4-2.9-.8-.6-1.1-.4-2,.7-2.6,2.3-1.2,4.5-1.8,6.8-1.8s4.5.7,5.8,2.2,2,3.7,2,6.6v9.6c0,1.4-.8,2.2-2.3,2.2s-2.1-.6-2.4-1.9v-.3h-.1c-2.1,1.8-4.1,2.7-6.1,2.7h0ZM138,28.4c1.3,0,2.6-.7,3.9-2v-4.1c-2.3.3-4,.8-5.1,1.4-1,.6-1.4,1.4-1.4,2.3,0,1.5.9,2.3,2.7,2.3h-.1Z"/>
            <path class="cls-1" d="M136.3,32.5c-1.8,0-3.2-.6-4.3-1.7-1.1-1.1-1.7-2.6-1.7-4.3s.9-3.8,2.7-5,4.8-2,8.8-2.4c0-2.3-1.2-3.5-3.4-3.5s-2.3.3-3.6.9c-1.3.6-2.2.4-2.9-.8-.6-1.1-.4-2,.7-2.6,2.3-1.2,4.5-1.8,6.8-1.8s4.5.7,5.8,2.2,2,3.7,2,6.6v9.6c0,1.4-.8,2.2-2.3,2.2s-2.1-.6-2.4-1.9v-.3h-.1c-2.1,1.8-4.1,2.7-6.1,2.7h0ZM138,28.4c1.3,0,2.6-.7,3.9-2v-4.1c-2.3.3-4,.8-5.1,1.4-1,.6-1.4,1.4-1.4,2.3,0,1.5.9,2.3,2.7,2.3h-.1Z"/>
          </g>
          <g>
            <path class="cls-3" d="M157.5,32.5c-3.3,0-5-2-5-6.1V6c0-1.7.9-2.6,2.6-2.6s2.6.9,2.6,2.6v20.7c0,1.1.4,1.6,1.1,1.6h0c.2,0,.4,0,.5.3.1.2.2.4.3.7.1.7.1,1.3,0,1.9-.2.7-.5,1.2-1,1.3h-1.3.2,0Z"/>
            <path class="cls-1" d="M157.5,32.5c-3.3,0-5-2-5-6.1V6c0-1.7.9-2.6,2.6-2.6s2.6.9,2.6,2.6v20.7c0,1.1.4,1.6,1.1,1.6h0c.2,0,.4,0,.5.3.1.2.2.4.3.7.1.7.1,1.3,0,1.9-.2.7-.5,1.2-1,1.3h-1.3.2,0Z"/>
          </g>
          <g>
            <path class="cls-3" d="M166.5,32c-1.7,0-2.6-.8-2.6-2.6V5.8c0-1.7.9-2.6,2.6-2.6s2.6.8,2.6,2.6v14.7h.1l6.1-7.6c.6-.7,1.4-1.1,2.3-1.1h3c.4,0,.7,0,.7.3s0,.4-.3.7l-6.1,7.2,5.9,9.3c.5.8.7,1.4.4,1.9-.3.5-.9.7-1.8.7h-1c-.5,0-.9,0-1.4-.4-.4-.3-.8-.6-1.1-1l-4.1-6.9-2.9,3.3v2.5c0,1.7-.9,2.6-2.6,2.6h.2,0Z"/>
            <path class="cls-1" d="M166.5,32c-1.7,0-2.6-.8-2.6-2.6V5.8c0-1.7.9-2.6,2.6-2.6s2.6.8,2.6,2.6v14.7h.1l6.1-7.6c.6-.7,1.4-1.1,2.3-1.1h3c.4,0,.7,0,.7.3s0,.4-.3.7l-6.1,7.2,5.9,9.3c.5.8.7,1.4.4,1.9-.3.5-.9.7-1.8.7h-1c-.5,0-.9,0-1.4-.4-.4-.3-.8-.6-1.1-1l-4.1-6.9-2.9,3.3v2.5c0,1.7-.9,2.6-2.6,2.6h.2,0Z"/>
          </g>
          <g>
            <path class="cls-3" d="M188.3,8.6c-.9,0-1.7-.3-2.3-.8-.6-.5-.9-1.2-.9-2.1s.3-1.6.9-2.1,1.4-.8,2.3-.8,1.7.3,2.2.8c.6.5.9,1.2.9,2.1s-.3,1.5-.9,2.1-1.3.8-2.2.8ZM188.3,32c-1.7,0-2.6-.9-2.6-2.6v-14.9c0-1.7.9-2.6,2.6-2.6s2.6.9,2.6,2.6v14.9c0,1.7-.9,2.6-2.6,2.6Z"/>
            <path class="cls-1" d="M188.3,8.6c-.9,0-1.7-.3-2.3-.8-.6-.5-.9-1.2-.9-2.1s.3-1.6.9-2.1,1.4-.8,2.3-.8,1.7.3,2.2.8c.6.5.9,1.2.9,2.1s-.3,1.5-.9,2.1-1.3.8-2.2.8ZM188.3,32c-1.7,0-2.6-.9-2.6-2.6v-14.9c0-1.7.9-2.6,2.6-2.6s2.6.9,2.6,2.6v14.9c0,1.7-.9,2.6-2.6,2.6Z"/>
          </g>
          <g>
            <path class="cls-3" d="M199.2,32c-1.7,0-2.6-.9-2.6-2.6v-15.3c0-1.4.8-2.2,2.3-2.2s2.1.6,2.3,1.9v.7h.3c2.2-2.1,4.3-3.2,6.5-3.2,4.1,0,6.2,2.7,6.2,8.1v9.9c0,1.7-.9,2.6-2.6,2.6s-2.7-.9-2.7-2.6v-9.3c0-1.5-.2-2.6-.7-3.3-.4-.6-1.2-1-2.2-1s-1.5.2-2.2.6c-.5.3-1.2.9-2,1.7v11.2c0,1.7-.9,2.6-2.6,2.6v.2h0Z"/>
            <path class="cls-1" d="M199.2,32c-1.7,0-2.6-.9-2.6-2.6v-15.3c0-1.4.8-2.2,2.3-2.2s2.1.6,2.3,1.9v.7h.3c2.2-2.1,4.3-3.2,6.5-3.2,4.1,0,6.2,2.7,6.2,8.1v9.9c0,1.7-.9,2.6-2.6,2.6s-2.7-.9-2.7-2.6v-9.3c0-1.5-.2-2.6-.7-3.3-.4-.6-1.2-1-2.2-1s-1.5.2-2.2.6c-.5.3-1.2.9-2,1.7v11.2c0,1.7-.9,2.6-2.6,2.6v.2h0Z"/>
          </g>
          <g>
            <path class="cls-3" d="M226.7,40.7c-2.5,0-4.5-.4-6-1.3-1.6-.9-2.4-2.2-2.4-3.9s1-3.1,2.9-4.2v-.2c-1.2-.8-1.8-1.9-1.8-3.4s.2-1.4.7-2.1c.4-.6.9-1.2,1.5-1.7h0c-.7-.7-1.4-1.4-1.8-2.3-.6-1-.8-2-.8-3.1,0-2.3.8-4.1,2.4-5.4,1.5-1.2,3.4-1.9,5.7-1.9s2.1.2,3,.5h5.3c1.3,0,1.9.6,1.9,1.9s-.6,1.9-1.9,1.9h-1.5c.6.8.9,1.8.9,3.1,0,2.2-.8,3.9-2.3,5.1-1.4,1.2-3.2,1.7-5.5,1.7s-1.7-.2-2.6-.5c-.6.5-.9,1-.9,1.7s.2,1,.7,1.2c.5.3,1.3.4,2.5.4h3.4c5,0,7.5,1.7,7.5,5s-1,3.8-2.9,5.1c-2,1.4-4.7,2-8,2v.4h0ZM227.5,37.4c1.5,0,2.7-.3,3.7-.9.9-.6,1.4-1.2,1.4-2.1s-.3-1.2-.9-1.4c-.5-.2-1.3-.4-2.5-.4h-2.4c-1.1,0-2,0-2.8-.3-.9.7-1.3,1.5-1.3,2.3s.4,1.5,1.3,2,2,.7,3.5.7h0ZM227,22.4c.9,0,1.7-.3,2.2-1,.6-.7.9-1.6.9-2.7s-.3-2.1-.9-2.7-1.3-1-2.2-1-1.7.3-2.3,1c-.6.7-.9,1.6-.9,2.7s.3,2.1.9,2.7,1.3,1,2.2,1h0Z"/>
            <path class="cls-1" d="M226.7,40.7c-2.5,0-4.5-.4-6-1.3-1.6-.9-2.4-2.2-2.4-3.9s1-3.1,2.9-4.2v-.2c-1.2-.8-1.8-1.9-1.8-3.4s.2-1.4.7-2.1c.4-.6.9-1.2,1.5-1.7h0c-.7-.7-1.4-1.4-1.8-2.3-.6-1-.8-2-.8-3.1,0-2.3.8-4.1,2.4-5.4,1.5-1.2,3.4-1.9,5.7-1.9s2.1.2,3,.5h5.3c1.3,0,1.9.6,1.9,1.9s-.6,1.9-1.9,1.9h-1.5c.6.8.9,1.8.9,3.1,0,2.2-.8,3.9-2.3,5.1-1.4,1.2-3.2,1.7-5.5,1.7s-1.7-.2-2.6-.5c-.6.5-.9,1-.9,1.7s.2,1,.7,1.2c.5.3,1.3.4,2.5.4h3.4c5,0,7.5,1.7,7.5,5s-1,3.8-2.9,5.1c-2,1.4-4.7,2-8,2v.4h0ZM227.5,37.4c1.5,0,2.7-.3,3.7-.9.9-.6,1.4-1.2,1.4-2.1s-.3-1.2-.9-1.4c-.5-.2-1.3-.4-2.5-.4h-2.4c-1.1,0-2,0-2.8-.3-.9.7-1.3,1.5-1.3,2.3s.4,1.5,1.3,2,2,.7,3.5.7h0ZM227,22.4c.9,0,1.7-.3,2.2-1,.6-.7.9-1.6.9-2.7s-.3-2.1-.9-2.7-1.3-1-2.2-1-1.7.3-2.3,1c-.6.7-.9,1.6-.9,2.7s.3,2.1.9,2.7,1.3,1,2.2,1h0Z"/>
          </g>
          <g>
            <path class="cls-3" d="M241.8,23.6c-1.2,0-1.9-.6-1.9-1.9s.6-1.9,1.9-1.9h6.1c1.2,0,1.9.6,1.9,1.9s-.6,1.9-1.9,1.9h-6.1Z"/>
            <path class="cls-1" d="M241.8,23.6c-1.2,0-1.9-.6-1.9-1.9s.6-1.9,1.9-1.9h6.1c1.2,0,1.9.6,1.9,1.9s-.6,1.9-1.9,1.9h-6.1Z"/>
          </g>
          <g>
            <path class="cls-4" d="M257.2,32c-1.6,0-2.4-.8-2.4-2.4V7.7c0-.7.2-1.3.6-1.7s1-.6,1.7-.6h1.7c.6,0,1.1.2,1.5.5.5.3.8.7.9,1.3l3.9,10.7c.3.8.6,1.9,1.1,3.5.2.7.4,1.3.5,1.6h.2c.2-.5.4-1.3.8-2.4.4-1.2.6-2.2.9-2.8l3.8-10.7c.2-.5.5-.9.9-1.3.5-.3,1-.5,1.5-.5h2.7c.4,0,.7,0,1,.4s.4.6.4,1v22.8c0,1.6-.8,2.4-2.4,2.4s-2.4-.8-2.4-2.4v-8.7c0-1.5.2-4.2.6-8.1v-.6h-.1l-2.2,6.3-3.6,9.7c-.2.4-.4.8-.8,1-.4.3-.8.4-1.3.4h-.1c-.9,0-1.6-.4-1.9-1.3l-3.6-9.8-2.1-6.3h-.1c0,.3,0,.7.1,1.3.4,3.6.5,6.1.5,7.5v8.7c0,1.6-.8,2.4-2.4,2.4h0Z"/>
            <path class="cls-1" d="M257.2,32c-1.6,0-2.4-.8-2.4-2.4V7.7c0-.7.2-1.3.6-1.7s1-.6,1.7-.6h1.7c.6,0,1.1.2,1.5.5.5.3.8.7.9,1.3l3.9,10.7c.3.8.6,1.9,1.1,3.5.2.7.4,1.3.5,1.6h.2c.2-.5.4-1.3.8-2.4.4-1.2.6-2.2.9-2.8l3.8-10.7c.2-.5.5-.9.9-1.3.5-.3,1-.5,1.5-.5h2.7c.4,0,.7,0,1,.4s.4.6.4,1v22.8c0,1.6-.8,2.4-2.4,2.4s-2.4-.8-2.4-2.4v-8.7c0-1.5.2-4.2.6-8.1v-.6h-.1l-2.2,6.3-3.6,9.7c-.2.4-.4.8-.8,1-.4.3-.8.4-1.3.4h-.1c-.9,0-1.6-.4-1.9-1.3l-3.6-9.8-2.1-6.3h-.1c0,.3,0,.7.1,1.3.4,3.6.5,6.1.5,7.5v8.7c0,1.6-.8,2.4-2.4,2.4h0Z"/>
          </g>
          <g>
            <path class="cls-3" d="M290,32.5c-1.8,0-3.2-.6-4.3-1.7-1.1-1.1-1.7-2.6-1.7-4.3s.9-3.8,2.7-5,4.8-2,8.8-2.4c0-2.3-1.2-3.5-3.4-3.5s-2.3.3-3.6.9c-1.3.6-2.2.4-2.9-.8-.6-1.1-.4-2,.7-2.6,2.3-1.2,4.5-1.8,6.8-1.8s4.5.7,5.8,2.2,2,3.7,2,6.6v9.6c0,1.4-.8,2.2-2.3,2.2s-2.1-.6-2.4-1.9v-.3h-.1c-2.1,1.8-4.1,2.7-6.1,2.7h0ZM291.7,28.4c1.3,0,2.6-.7,3.9-2v-4.1c-2.3.3-4,.8-5.1,1.4-1,.6-1.4,1.4-1.4,2.3,0,1.5.9,2.3,2.7,2.3h-.1Z"/>
            <path class="cls-1" d="M290,32.5c-1.8,0-3.2-.6-4.3-1.7-1.1-1.1-1.7-2.6-1.7-4.3s.9-3.8,2.7-5,4.8-2,8.8-2.4c0-2.3-1.2-3.5-3.4-3.5s-2.3.3-3.6.9c-1.3.6-2.2.4-2.9-.8-.6-1.1-.4-2,.7-2.6,2.3-1.2,4.5-1.8,6.8-1.8s4.5.7,5.8,2.2,2,3.7,2,6.6v9.6c0,1.4-.8,2.2-2.3,2.2s-2.1-.6-2.4-1.9v-.3h-.1c-2.1,1.8-4.1,2.7-6.1,2.7h0ZM291.7,28.4c1.3,0,2.6-.7,3.9-2v-4.1c-2.3.3-4,.8-5.1,1.4-1,.6-1.4,1.4-1.4,2.3,0,1.5.9,2.3,2.7,2.3h-.1Z"/>
          </g>
          <g>
            <path class="cls-3" d="M308.9,32c-1.7,0-2.6-.9-2.6-2.6v-15.3c0-1.4.8-2.2,2.3-2.2s2.1.6,2.3,1.9v.7h.3c2.2-2.1,4.3-3.2,6.5-3.2,4.1,0,6.2,2.7,6.2,8.1v9.9c0,1.7-.9,2.6-2.6,2.6s-2.7-.9-2.7-2.6v-9.3c0-1.5-.2-2.6-.7-3.3-.4-.6-1.2-1-2.2-1s-1.5.2-2.2.6c-.5.3-1.2.9-2,1.7v11.2c0,1.7-.9,2.6-2.6,2.6v.2h0Z"/>
            <path class="cls-1" d="M308.9,32c-1.7,0-2.6-.9-2.6-2.6v-15.3c0-1.4.8-2.2,2.3-2.2s2.1.6,2.3,1.9v.7h.3c2.2-2.1,4.3-3.2,6.5-3.2,4.1,0,6.2,2.7,6.2,8.1v9.9c0,1.7-.9,2.6-2.6,2.6s-2.7-.9-2.7-2.6v-9.3c0-1.5-.2-2.6-.7-3.3-.4-.6-1.2-1-2.2-1s-1.5.2-2.2.6c-.5.3-1.2.9-2,1.7v11.2c0,1.7-.9,2.6-2.6,2.6v.2h0Z"/>
          </g>
          <g>
            <path class="cls-3" d="M336.4,32.5c-2.5,0-4.5-.9-6-2.8s-2.2-4.4-2.2-7.7.9-5.8,2.6-7.8c1.6-1.9,3.6-2.8,5.9-2.8s2,.2,2.9.6c.7.3,1.4.8,2.2,1.6l-.2-3.2v-4.5c0-1.7.9-2.6,2.7-2.6s2.6.9,2.6,2.6v23.9c0,.7-.2,1.2-.6,1.6s-1,.5-1.7.5c-1.3,0-2.1-.6-2.3-1.8v-.3h-.2c-1.8,1.7-3.6,2.6-5.6,2.6h0ZM337.8,28.1c1.4,0,2.7-.7,3.7-2.1v-8.8c-1.1-1-2.3-1.5-3.7-1.5s-2.2.5-2.9,1.6c-.8,1.1-1.2,2.7-1.2,4.6s.4,3.6,1.1,4.7,1.7,1.6,3.1,1.6h-.1Z"/>
            <path class="cls-1" d="M336.4,32.5c-2.5,0-4.5-.9-6-2.8s-2.2-4.4-2.2-7.7.9-5.8,2.6-7.8c1.6-1.9,3.6-2.8,5.9-2.8s2,.2,2.9.6c.7.3,1.4.8,2.2,1.6l-.2-3.2v-4.5c0-1.7.9-2.6,2.7-2.6s2.6.9,2.6,2.6v23.9c0,.7-.2,1.2-.6,1.6s-1,.5-1.7.5c-1.3,0-2.1-.6-2.3-1.8v-.3h-.2c-1.8,1.7-3.6,2.6-5.6,2.6h0ZM337.8,28.1c1.4,0,2.7-.7,3.7-2.1v-8.8c-1.1-1-2.3-1.5-3.7-1.5s-2.2.5-2.9,1.6c-.8,1.1-1.2,2.7-1.2,4.6s.4,3.6,1.1,4.7,1.7,1.6,3.1,1.6h-.1Z"/>
          </g>
          <g>
            <path class="cls-3" d="M357.4,32.5c-1.8,0-3.2-.6-4.3-1.7-1.1-1.1-1.7-2.6-1.7-4.3s.9-3.8,2.7-5c1.8-1.2,4.8-2,8.8-2.4,0-2.3-1.2-3.5-3.4-3.5s-2.3.3-3.6.9-2.2.4-2.9-.8c-.6-1.1-.4-2,.7-2.6,2.3-1.2,4.5-1.8,6.8-1.8s4.5.7,5.8,2.2,2,3.7,2,6.6v9.6c0,1.4-.8,2.2-2.3,2.2s-2.1-.6-2.4-1.9v-.3h0c-2.1,1.8-4.1,2.7-6.1,2.7h0ZM359.2,28.4c1.3,0,2.6-.7,3.9-2v-4.1c-2.3.3-4,.8-5.1,1.4-1,.6-1.4,1.4-1.4,2.3,0,1.5.9,2.3,2.7,2.3h-.1Z"/>
            <path class="cls-1" d="M357.4,32.5c-1.8,0-3.2-.6-4.3-1.7-1.1-1.1-1.7-2.6-1.7-4.3s.9-3.8,2.7-5c1.8-1.2,4.8-2,8.8-2.4,0-2.3-1.2-3.5-3.4-3.5s-2.3.3-3.6.9-2.2.4-2.9-.8c-.6-1.1-.4-2,.7-2.6,2.3-1.2,4.5-1.8,6.8-1.8s4.5.7,5.8,2.2,2,3.7,2,6.6v9.6c0,1.4-.8,2.2-2.3,2.2s-2.1-.6-2.4-1.9v-.3h0c-2.1,1.8-4.1,2.7-6.1,2.7h0ZM359.2,28.4c1.3,0,2.6-.7,3.9-2v-4.1c-2.3.3-4,.8-5.1,1.4-1,.6-1.4,1.4-1.4,2.3,0,1.5.9,2.3,2.7,2.3h-.1Z"/>
          </g>
          <g>
            <path class="cls-3" d="M376.4,32c-1.7,0-2.6-.9-2.6-2.6v-15.3c0-1.4.7-2.2,2.2-2.2s2.2.7,2.3,2v1.6h.3c.7-1.3,1.6-2.3,2.6-3s2-1,3.1-1h.5c.6,0,1.1.5,1.3,1s.3,1.1,0,1.8c-.3,1.5-1.2,2.2-2.5,1.9h0c-.9,0-1.7.3-2.5.9-.9.7-1.6,1.7-2.2,3.1v9.4c0,1.7-.9,2.6-2.6,2.6v-.2h.1Z"/>
            <path class="cls-1" d="M376.4,32c-1.7,0-2.6-.9-2.6-2.6v-15.3c0-1.4.7-2.2,2.2-2.2s2.2.7,2.3,2v1.6h.3c.7-1.3,1.6-2.3,2.6-3s2-1,3.1-1h.5c.6,0,1.1.5,1.3,1s.3,1.1,0,1.8c-.3,1.5-1.2,2.2-2.5,1.9h0c-.9,0-1.7.3-2.5.9-.9.7-1.6,1.7-2.2,3.1v9.4c0,1.7-.9,2.6-2.6,2.6v-.2h.1Z"/>
          </g>
          <g>
            <path class="cls-3" d="M392.1,8.6c-.9,0-1.7-.3-2.3-.8s-.9-1.2-.9-2.1.3-1.6.9-2.1c.6-.5,1.4-.8,2.3-.8s1.7.3,2.2.8c.6.5.9,1.2.9,2.1s-.3,1.5-.9,2.1c-.6.6-1.3.8-2.2.8ZM392,32c-1.7,0-2.6-.9-2.6-2.6v-14.9c0-1.7.9-2.6,2.6-2.6s2.6.9,2.6,2.6v14.9c0,1.7-.9,2.6-2.6,2.6Z"/>
            <path class="cls-1" d="M392.1,8.6c-.9,0-1.7-.3-2.3-.8s-.9-1.2-.9-2.1.3-1.6.9-2.1c.6-.5,1.4-.8,2.3-.8s1.7.3,2.2.8c.6.5.9,1.2.9,2.1s-.3,1.5-.9,2.1c-.6.6-1.3.8-2.2.8ZM392,32c-1.7,0-2.6-.9-2.6-2.6v-14.9c0-1.7.9-2.6,2.6-2.6s2.6.9,2.6,2.6v14.9c0,1.7-.9,2.6-2.6,2.6Z"/>
          </g>
          <g>
            <path class="cls-3" d="M402.9,32c-1.7,0-2.6-.9-2.6-2.6v-15.3c0-1.4.8-2.2,2.3-2.2s2.1.6,2.3,1.9v.7h.3c2.2-2.1,4.3-3.2,6.5-3.2,4.1,0,6.2,2.7,6.2,8.1v9.9c0,1.7-.9,2.6-2.6,2.6s-2.7-.9-2.7-2.6v-9.3c0-1.5-.2-2.6-.7-3.3-.4-.6-1.2-1-2.2-1s-1.5.2-2.2.6c-.5.3-1.2.9-2,1.7v11.2c0,1.7-.9,2.6-2.6,2.6v.2h0Z"/>
            <path class="cls-1" d="M402.9,32c-1.7,0-2.6-.9-2.6-2.6v-15.3c0-1.4.8-2.2,2.3-2.2s2.1.6,2.3,1.9v.7h.3c2.2-2.1,4.3-3.2,6.5-3.2,4.1,0,6.2,2.7,6.2,8.1v9.9c0,1.7-.9,2.6-2.6,2.6s-2.7-.9-2.7-2.6v-9.3c0-1.5-.2-2.6-.7-3.3-.4-.6-1.2-1-2.2-1s-1.5.2-2.2.6c-.5.3-1.2.9-2,1.7v11.2c0,1.7-.9,2.6-2.6,2.6v.2h0Z"/>
          </g>
        </g>
        <g>
          <path class="cls-4" d="M11.5,32.5c-2.9,0-5.5-.8-7.9-2.4-1.2-1-1.3-2.1-.3-3.2,1.1-1.3,2.3-1.4,3.7-.4,1.6.9,3.2,1.4,4.7,1.4s2.4-.3,3.1-.8c.7-.5,1.1-1.3,1.1-2.2s-.3-1.6-1-2.1c-.4-.3-1.3-.8-2.7-1.4h-.3l-3.6-1.5c-3.6-1.5-5.4-3.9-5.4-7.2s.9-4,2.6-5.5c1.7-1.5,3.9-2.2,6.6-2.2s4.8.7,6.8,2.1c1,.9,1.1,1.8.2,2.9-1,1.2-2,1.3-3.2.5-1.2-.6-2.4-.9-3.8-.9s-2.1.3-2.8.8-1,1.2-1,2,.4,1.5,1.2,2.1c.5.4,1.4.8,2.8,1.3h.3l3.5,1.5c1.7.7,3,1.6,3.9,2.7,1,1.2,1.5,2.7,1.5,4.6s-.9,4.1-2.6,5.6c-1.8,1.6-4.2,2.4-7.2,2.4h-.2Z"/>
          <path class="cls-3" d="M28.2,32c-1.7,0-2.6-.9-2.6-2.6v-15.3c0-1.4.8-2.2,2.3-2.2s2.1.6,2.3,1.9v.8h.3c1-1,1.9-1.8,2.7-2.3,1.1-.6,2.3-.9,3.5-.9,2.7,0,4.5,1.2,5.5,3.5,1.1-1.1,2-2,2.9-2.5,1.1-.7,2.3-1,3.5-1,2.1,0,3.7.7,4.7,2.2,1,1.4,1.5,3.3,1.5,5.9v9.9c0,1.7-.9,2.6-2.6,2.6s-2.7-.9-2.7-2.6v-9.3c0-1.5-.2-2.6-.7-3.3-.4-.6-1.1-.9-2.1-.9s-2.4.8-3.9,2.3v11.2c0,1.7-.9,2.6-2.6,2.6s-2.7-.9-2.7-2.6v-9.3c0-1.5-.2-2.6-.7-3.3-.4-.6-1.1-.9-2.1-.9s-2.4.8-3.9,2.3v11.2c0,1.7-.9,2.6-2.6,2.6h0Z"/>
          <path class="cls-3" d="M65.2,32.5c-1.8,0-3.2-.6-4.3-1.7s-1.7-2.6-1.7-4.3.9-3.8,2.7-5,4.8-2,8.8-2.4c0-2.3-1.2-3.5-3.4-3.5s-2.3.3-3.6.9-2.2.4-2.9-.8c-.6-1.1-.4-2,.7-2.6,2.3-1.2,4.5-1.8,6.8-1.8s4.5.7,5.8,2.2,2,3.7,2,6.6v9.6c0,1.4-.8,2.2-2.3,2.2s-2.1-.6-2.4-1.9v-.3h-.1c-2.1,1.8-4.1,2.7-6.1,2.7h0ZM66.9,28.4c1.3,0,2.6-.7,3.9-2v-4.1c-2.3.3-4,.8-5.1,1.4-1,.6-1.4,1.4-1.4,2.3,0,1.5.9,2.3,2.7,2.3h0Z"/>
          <path class="cls-3" d="M84.1,32c-1.7,0-2.6-.9-2.6-2.6v-15.3c0-1.4.7-2.2,2.2-2.2s2.2.7,2.3,2v1.6h.3c.7-1.3,1.6-2.3,2.6-3s2-1,3.1-1h.5c.6,0,1.1.5,1.3,1s.3,1.1.1,1.8c-.3,1.5-1.2,2.2-2.5,1.9h0c-.9,0-1.7.3-2.5.9-.9.7-1.6,1.7-2.2,3.1v9.4c0,1.7-.9,2.6-2.6,2.6v-.2h0Z"/>
          <path class="cls-3" d="M104.5,32.5c-4.4,0-6.6-2.5-6.6-7.5v-8.9h-.9c-1.3,0-1.9-.7-1.9-2s.6-2,1.8-2h1.3l.4-3.5c.1-1.4.9-2,2.3-2s2.3.7,2.3,2.2v3.2h2.9c1.4,0,2.1.7,2.1,2.1s-.7,2.1-2.1,2.1h-2.9v8.9c0,2.3.9,3.4,2.7,3.4h0c1.2-.3,2,.2,2.3,1.5.3,1.2-.1,2-1.2,2.3-.9.2-1.8.3-2.7.3h.2Z"/>
          <path class="cls-4" d="M119.9,32c-1.8,0-2.7-.9-2.7-2.7V9.8h-5.3c-1.5,0-2.2-.7-2.2-2.2s.7-2.2,2.2-2.2h16c1.5,0,2.2.7,2.2,2.2s-.7,2.2-2.2,2.2h-5.4v19.5c0,1.8-.9,2.7-2.7,2.7h.1Z"/>
          <path class="cls-3" d="M136.3,32.5c-1.8,0-3.2-.6-4.3-1.7-1.1-1.1-1.7-2.6-1.7-4.3s.9-3.8,2.7-5,4.8-2,8.8-2.4c0-2.3-1.2-3.5-3.4-3.5s-2.3.3-3.6.9c-1.3.6-2.2.4-2.9-.8-.6-1.1-.4-2,.7-2.6,2.3-1.2,4.5-1.8,6.8-1.8s4.5.7,5.8,2.2,2,3.7,2,6.6v9.6c0,1.4-.8,2.2-2.3,2.2s-2.1-.6-2.4-1.9v-.3h-.1c-2.1,1.8-4.1,2.7-6.1,2.7h0ZM138,28.4c1.3,0,2.6-.7,3.9-2v-4.1c-2.3.3-4,.8-5.1,1.4-1,.6-1.4,1.4-1.4,2.3,0,1.5.9,2.3,2.7,2.3h-.1Z"/>
          <path class="cls-3" d="M157.5,32.5c-3.3,0-5-2-5-6.1V6c0-1.7.9-2.6,2.6-2.6s2.6.9,2.6,2.6v20.7c0,1.1.4,1.6,1.1,1.6h0c.2,0,.4,0,.5.3.1.2.2.4.3.7.1.7.1,1.3,0,1.9-.2.7-.5,1.2-1,1.3h-1.3.2,0Z"/>
          <path class="cls-3" d="M166.5,32c-1.7,0-2.6-.8-2.6-2.6V5.8c0-1.7.9-2.6,2.6-2.6s2.6.8,2.6,2.6v14.7h.1l6.1-7.6c.6-.7,1.4-1.1,2.3-1.1h3c.4,0,.7,0,.7.3s0,.4-.3.7l-6.1,7.2,5.9,9.3c.5.8.7,1.4.4,1.9-.3.5-.9.7-1.8.7h-1c-.5,0-.9,0-1.4-.4-.4-.3-.8-.6-1.1-1l-4.1-6.9-2.9,3.3v2.5c0,1.7-.9,2.6-2.6,2.6h.2,0Z"/>
          <path class="cls-3" d="M188.3,8.6c-.9,0-1.7-.3-2.3-.8-.6-.5-.9-1.2-.9-2.1s.3-1.6.9-2.1,1.4-.8,2.3-.8,1.7.3,2.2.8c.6.5.9,1.2.9,2.1s-.3,1.5-.9,2.1-1.3.8-2.2.8ZM188.3,32c-1.7,0-2.6-.9-2.6-2.6v-14.9c0-1.7.9-2.6,2.6-2.6s2.6.9,2.6,2.6v14.9c0,1.7-.9,2.6-2.6,2.6Z"/>
          <path class="cls-3" d="M199.2,32c-1.7,0-2.6-.9-2.6-2.6v-15.3c0-1.4.8-2.2,2.3-2.2s2.1.6,2.3,1.9v.7h.3c2.2-2.1,4.3-3.2,6.5-3.2,4.1,0,6.2,2.7,6.2,8.1v9.9c0,1.7-.9,2.6-2.6,2.6s-2.7-.9-2.7-2.6v-9.3c0-1.5-.2-2.6-.7-3.3-.4-.6-1.2-1-2.2-1s-1.5.2-2.2.6c-.5.3-1.2.9-2,1.7v11.2c0,1.7-.9,2.6-2.6,2.6v.2h0Z"/>
          <path class="cls-3" d="M226.7,40.7c-2.5,0-4.5-.4-6-1.3-1.6-.9-2.4-2.2-2.4-3.9s1-3.1,2.9-4.2v-.2c-1.2-.8-1.8-1.9-1.8-3.4s.2-1.4.7-2.1c.4-.6.9-1.2,1.5-1.7h0c-.7-.7-1.4-1.4-1.8-2.3-.6-1-.8-2-.8-3.1,0-2.3.8-4.1,2.4-5.4,1.5-1.2,3.4-1.9,5.7-1.9s2.1.2,3,.5h5.3c1.3,0,1.9.6,1.9,1.9s-.6,1.9-1.9,1.9h-1.5c.6.8.9,1.8.9,3.1,0,2.2-.8,3.9-2.3,5.1-1.4,1.2-3.2,1.7-5.5,1.7s-1.7-.2-2.6-.5c-.6.5-.9,1-.9,1.7s.2,1,.7,1.2c.5.3,1.3.4,2.5.4h3.4c5,0,7.5,1.7,7.5,5s-1,3.8-2.9,5.1c-2,1.4-4.7,2-8,2v.4h0ZM227.5,37.4c1.5,0,2.7-.3,3.7-.9.9-.6,1.4-1.2,1.4-2.1s-.3-1.2-.9-1.4c-.5-.2-1.3-.4-2.5-.4h-2.4c-1.1,0-2,0-2.8-.3-.9.7-1.3,1.5-1.3,2.3s.4,1.5,1.3,2,2,.7,3.5.7h0ZM227,22.4c.9,0,1.7-.3,2.2-1,.6-.7.9-1.6.9-2.7s-.3-2.1-.9-2.7-1.3-1-2.2-1-1.7.3-2.3,1c-.6.7-.9,1.6-.9,2.7s.3,2.1.9,2.7,1.3,1,2.2,1h0Z"/>
          <path class="cls-3" d="M241.8,23.6c-1.2,0-1.9-.6-1.9-1.9s.6-1.9,1.9-1.9h6.1c1.2,0,1.9.6,1.9,1.9s-.6,1.9-1.9,1.9h-6.1Z"/>
          <path class="cls-4" d="M257.2,32c-1.6,0-2.4-.8-2.4-2.4V7.7c0-.7.2-1.3.6-1.7s1-.6,1.7-.6h1.7c.6,0,1.1.2,1.5.5.5.3.8.7.9,1.3l3.9,10.7c.3.8.6,1.9,1.1,3.5.2.7.4,1.3.5,1.6h.2c.2-.5.4-1.3.8-2.4.4-1.2.6-2.2.9-2.8l3.8-10.7c.2-.5.5-.9.9-1.3.5-.3,1-.5,1.5-.5h2.7c.4,0,.7,0,1,.4s.4.6.4,1v22.8c0,1.6-.8,2.4-2.4,2.4s-2.4-.8-2.4-2.4v-8.7c0-1.5.2-4.2.6-8.1v-.6h-.1l-2.2,6.3-3.6,9.7c-.2.4-.4.8-.8,1-.4.3-.8.4-1.3.4h-.1c-.9,0-1.6-.4-1.9-1.3l-3.6-9.8-2.1-6.3h-.1c0,.3,0,.7.1,1.3.4,3.6.5,6.1.5,7.5v8.7c0,1.6-.8,2.4-2.4,2.4h0Z"/>
          <path class="cls-3" d="M290,32.5c-1.8,0-3.2-.6-4.3-1.7-1.1-1.1-1.7-2.6-1.7-4.3s.9-3.8,2.7-5,4.8-2,8.8-2.4c0-2.3-1.2-3.5-3.4-3.5s-2.3.3-3.6.9c-1.3.6-2.2.4-2.9-.8-.6-1.1-.4-2,.7-2.6,2.3-1.2,4.5-1.8,6.8-1.8s4.5.7,5.8,2.2,2,3.7,2,6.6v9.6c0,1.4-.8,2.2-2.3,2.2s-2.1-.6-2.4-1.9v-.3h-.1c-2.1,1.8-4.1,2.7-6.1,2.7h0ZM291.7,28.4c1.3,0,2.6-.7,3.9-2v-4.1c-2.3.3-4,.8-5.1,1.4-1,.6-1.4,1.4-1.4,2.3,0,1.5.9,2.3,2.7,2.3h-.1Z"/>
          <path class="cls-3" d="M308.9,32c-1.7,0-2.6-.9-2.6-2.6v-15.3c0-1.4.8-2.2,2.3-2.2s2.1.6,2.3,1.9v.7h.3c2.2-2.1,4.3-3.2,6.5-3.2,4.1,0,6.2,2.7,6.2,8.1v9.9c0,1.7-.9,2.6-2.6,2.6s-2.7-.9-2.7-2.6v-9.3c0-1.5-.2-2.6-.7-3.3-.4-.6-1.2-1-2.2-1s-1.5.2-2.2.6c-.5.3-1.2.9-2,1.7v11.2c0,1.7-.9,2.6-2.6,2.6v.2h0Z"/>
          <path class="cls-3" d="M336.4,32.5c-2.5,0-4.5-.9-6-2.8s-2.2-4.4-2.2-7.7.9-5.8,2.6-7.8c1.6-1.9,3.6-2.8,5.9-2.8s2,.2,2.9.6c.7.3,1.4.8,2.2,1.6l-.2-3.2v-4.5c0-1.7.9-2.6,2.7-2.6s2.6.9,2.6,2.6v23.9c0,.7-.2,1.2-.6,1.6s-1,.5-1.7.5c-1.3,0-2.1-.6-2.3-1.8v-.3h-.2c-1.8,1.7-3.6,2.6-5.6,2.6h0ZM337.8,28.1c1.4,0,2.7-.7,3.7-2.1v-8.8c-1.1-1-2.3-1.5-3.7-1.5s-2.2.5-2.9,1.6c-.8,1.1-1.2,2.7-1.2,4.6s.4,3.6,1.1,4.7,1.7,1.6,3.1,1.6h-.1Z"/>
          <path class="cls-3" d="M357.4,32.5c-1.8,0-3.2-.6-4.3-1.7-1.1-1.1-1.7-2.6-1.7-4.3s.9-3.8,2.7-5c1.8-1.2,4.8-2,8.8-2.4,0-2.3-1.2-3.5-3.4-3.5s-2.3.3-3.6.9-2.2.4-2.9-.8c-.6-1.1-.4-2,.7-2.6,2.3-1.2,4.5-1.8,6.8-1.8s4.5.7,5.8,2.2,2,3.7,2,6.6v9.6c0,1.4-.8,2.2-2.3,2.2s-2.1-.6-2.4-1.9v-.3h0c-2.1,1.8-4.1,2.7-6.1,2.7h0ZM359.2,28.4c1.3,0,2.6-.7,3.9-2v-4.1c-2.3.3-4,.8-5.1,1.4-1,.6-1.4,1.4-1.4,2.3,0,1.5.9,2.3,2.7,2.3h-.1Z"/>
          <path class="cls-3" d="M376.4,32c-1.7,0-2.6-.9-2.6-2.6v-15.3c0-1.4.7-2.2,2.2-2.2s2.2.7,2.3,2v1.6h.3c.7-1.3,1.6-2.3,2.6-3s2-1,3.1-1h.5c.6,0,1.1.5,1.3,1s.3,1.1,0,1.8c-.3,1.5-1.2,2.2-2.5,1.9h0c-.9,0-1.7.3-2.5.9-.9.7-1.6,1.7-2.2,3.1v9.4c0,1.7-.9,2.6-2.6,2.6v-.2h.1Z"/>
          <path class="cls-3" d="M392.1,8.6c-.9,0-1.7-.3-2.3-.8s-.9-1.2-.9-2.1.3-1.6.9-2.1c.6-.5,1.4-.8,2.3-.8s1.7.3,2.2.8c.6.5.9,1.2.9,2.1s-.3,1.5-.9,2.1c-.6.6-1.3.8-2.2.8ZM392,32c-1.7,0-2.6-.9-2.6-2.6v-14.9c0-1.7.9-2.6,2.6-2.6s2.6.9,2.6,2.6v14.9c0,1.7-.9,2.6-2.6,2.6Z"/>
          <path class="cls-3" d="M402.9,32c-1.7,0-2.6-.9-2.6-2.6v-15.3c0-1.4.8-2.2,2.3-2.2s2.1.6,2.3,1.9v.7h.3c2.2-2.1,4.3-3.2,6.5-3.2,4.1,0,6.2,2.7,6.2,8.1v9.9c0,1.7-.9,2.6-2.6,2.6s-2.7-.9-2.7-2.6v-9.3c0-1.5-.2-2.6-.7-3.3-.4-.6-1.2-1-2.2-1s-1.5.2-2.2.6c-.5.3-1.2.9-2,1.7v11.2c0,1.7-.9,2.6-2.6,2.6v.2h0Z"/>
        </g>
        <g>
          <g>
            <path class="cls-4" d="M12.3,32.2c-2.9,0-5.5-.8-7.9-2.4-1.2-1-1.3-2.1-.3-3.2,1.1-1.3,2.3-1.4,3.7-.4,1.6.9,3.2,1.4,4.7,1.4s2.4-.3,3.1-.8c.7-.5,1.1-1.3,1.1-2.2s-.3-1.6-1-2.1c-.4-.3-1.3-.8-2.7-1.4h-.3l-3.6-1.5c-3.6-1.5-5.4-3.9-5.4-7.2s.9-4,2.6-5.5c1.7-1.5,3.9-2.2,6.6-2.2s4.8.7,6.8,2.1c1,.9,1.1,1.8.2,2.9-1,1.2-2,1.3-3.2.5-1.2-.6-2.4-.9-3.8-.9s-2.1.3-2.8.8-1,1.2-1,2,.4,1.5,1.2,2.1c.5.4,1.4.8,2.8,1.3h.3l3.5,1.5c1.7.7,3,1.6,3.9,2.7,1,1.2,1.5,2.7,1.5,4.6s-.9,4.1-2.6,5.6c-1.8,1.6-4.2,2.4-7.2,2.4h-.2Z"/>
            <path class="cls-2" d="M12.3,34.8c-3.4,0-6.5-1-9.4-2.8l-.2-.2c-1.4-1.2-1.8-2.5-1.9-3.3,0-.9,0-2.2,1.3-3.6,1.9-2.3,4.6-2.6,7.1-.9,1.2.7,2.2,1,3.2,1s1.4-.2,1.6-.3h0s-.5-.5-2.1-1.2h-.3l-3.5-1.5C2.3,19.6,1.1,15.5,1.1,12.4s1.2-5.5,3.5-7.5c2.2-1.9,5-2.8,8.3-2.8s5.8.9,8.3,2.6l.2.2c2.1,1.8,2.3,4.4.5,6.5-1.8,2.2-4.3,2.6-6.6,1.1-.8-.4-1.6-.6-2.5-.6s-.9,0-1.1.2c.2,0,.7.4,2.1,1,.2,0,.3,0,.4.2l3.4,1.4c2.1.9,3.8,2,4.9,3.4,1.4,1.7,2.1,3.8,2.1,6.2s-1.2,5.6-3.5,7.6-5.3,3.1-8.9,3.1h0v-.2h0ZM5.9,28.1h0ZM6.6,10.7c-.2.5-.3,1-.3,1.6,0,1.5.4,3.4,3.8,4.7l3.7,1.6c1.7.7,2.7,1.2,3.4,1.7,1.4,1.1,2.1,2.5,2.1,4.2s0,1.1-.2,1.6c.3-.6.4-1.3.4-2,0-1.2-.3-2.2-.9-2.9-.6-.7-1.5-1.3-2.8-1.9l-3.7-1.6c-1.6-.6-2.7-1.2-3.4-1.7-1.4-1-2.2-2.5-2.2-4.1s0-.9.2-1.3h-.1ZM18.4,8h0Z"/>
          </g>
          <g>
            <path class="cls-3" d="M29,31.7c-1.7,0-2.6-.9-2.6-2.6v-15.3c0-1.4.8-2.2,2.3-2.2s2.1.6,2.3,1.9v.8h.3c1-1,1.9-1.8,2.7-2.3,1.1-.6,2.3-.9,3.5-.9,2.7,0,4.5,1.2,5.5,3.5,1.1-1.1,2-2,2.9-2.5,1.1-.7,2.3-1,3.5-1,2.1,0,3.7.7,4.7,2.2,1,1.4,1.5,3.3,1.5,5.9v9.9c0,1.7-.9,2.6-2.6,2.6s-2.7-.9-2.7-2.6v-9.3c0-1.5-.2-2.6-.7-3.3-.4-.6-1.1-.9-2.1-.9s-2.4.8-3.9,2.3v11.2c0,1.7-.9,2.6-2.6,2.6s-2.7-.9-2.7-2.6v-9.3c0-1.5-.2-2.6-.7-3.3-.4-.6-1.1-.9-2.1-.9s-2.4.8-3.9,2.3v11.2c0,1.7-.9,2.6-2.6,2.6h0Z"/>
            <path class="cls-2" d="M52.9,34.3c-3.2,0-5.3-2.1-5.3-5.2v-9.3c0-.8,0-1.3-.2-1.6h0s-.4,0-1.3.8v10.1c0,3.2-2.1,5.2-5.2,5.2s-5.3-2.1-5.3-5.2v-9.3c0-.8,0-1.3-.2-1.6h0s-.4,0-1.3.8v10.1c0,3.2-2.1,5.2-5.2,5.2s-5.2-2.1-5.2-5.2v-15.3c0-2.9,1.9-4.8,4.9-4.8s2.5.4,3.4,1.2c.2,0,.4-.3.6-.4,1.6-.9,3.1-1.3,4.8-1.3s4.4.8,5.9,2.2c.4-.3.8-.6,1.2-.8,1.5-.9,3.1-1.4,4.8-1.4,3.7,0,5.7,1.7,6.8,3.2,1.4,1.8,2,4.4,2,7.5v9.9c0,3.2-2.1,5.2-5.2,5.2h0ZM52.9,29.4h0ZM52.9,29.1h0v-9.9c0-2-.3-3.5-1-4.4-.3-.4-.7-.7-1.4-1,.6.4,1,.9,1.2,1.2.8,1.1,1.2,2.7,1.2,4.8v9.3h0ZM40.9,29.1h0v-12.3l-.5-1.1c-.5-1-1.1-1.6-2-1.8.6.4,1,.9,1.3,1.2.8,1.1,1.1,2.7,1.1,4.8v9.3h0ZM29,29.1h0v-12.2,12.2h0Z"/>
          </g>
          <g>
            <path class="cls-3" d="M66,32.2c-1.8,0-3.2-.6-4.3-1.7s-1.7-2.6-1.7-4.3.9-3.8,2.7-5,4.8-2,8.8-2.4c0-2.3-1.2-3.5-3.4-3.5s-2.3.3-3.6.9-2.2.4-2.9-.8c-.6-1.1-.4-2,.7-2.6,2.3-1.2,4.5-1.8,6.8-1.8s4.5.7,5.8,2.2,2,3.7,2,6.6v9.6c0,1.4-.8,2.2-2.3,2.2s-2.1-.6-2.4-1.9v-.3h-.1c-2.1,1.8-4.1,2.7-6.1,2.7h0ZM67.7,28.1c1.3,0,2.6-.7,3.9-2v-4.1c-2.3.3-4,.8-5.1,1.4-1,.6-1.4,1.4-1.4,2.3,0,1.5.9,2.3,2.7,2.3h0Z"/>
            <path class="cls-2" d="M66,34.8c-2.5,0-4.6-.8-6.2-2.5-1.6-1.6-2.4-3.7-2.4-6.1s1.4-5.5,3.9-7.2c0,0,.2,0,.3-.2-.9-.4-1.7-1.1-2.3-2.2-1.3-2.4-.6-4.8,1.7-6.1,2.7-1.4,5.4-2.1,8.1-2.1s5.9,1.1,7.7,3.1c1.7,2,2.6,4.8,2.6,8.4v9.6c0,2.9-1.9,4.8-4.9,4.8s-2.4-.4-3.2-1c-1.8,1-3.6,1.5-5.3,1.5h0ZM74.2,26.9h0v-5.8h0v5.8ZM74.2,18.7v1.1-1.1Z"/>
          </g>
          <g>
            <path class="cls-3" d="M84.9,31.7c-1.7,0-2.6-.9-2.6-2.6v-15.3c0-1.4.7-2.2,2.2-2.2s2.2.7,2.3,2v1.6h.3c.7-1.3,1.6-2.3,2.6-3s2-1,3.1-1h.5c.6,0,1.1.5,1.3,1s.3,1.1.1,1.8c-.3,1.5-1.2,2.2-2.5,1.9h0c-.9,0-1.7.3-2.5.9-.9.7-1.6,1.7-2.2,3.1v9.4c0,1.7-.9,2.6-2.6,2.6v-.2h0Z"/>
            <path class="cls-2" d="M84.9,34.3c-3.2,0-5.2-2.1-5.2-5.2v-15.3c0-2.9,1.9-4.8,4.8-4.8s2.6.4,3.4,1.2c0,0,.2,0,.3-.2,1.5-1,3-1.5,4.6-1.5h1c1.4.4,2.5,1.2,3.1,2.5.5,1,.6,2.2.3,3.4-.6,2.8-2.6,4.3-5.2,4-.2,0-.5,0-.8.3-.5.3-.8.8-1.2,1.5v8.9c0,3.2-2.1,5.2-5.2,5.2h.1ZM84.9,29.1h0v-9.9l.2-.5c.1-.3.3-.7.4-1h-.6v11.3h0ZM92.1,13h0Z"/>
          </g>
          <g>
            <path class="cls-3" d="M105.3,32.2c-4.4,0-6.6-2.5-6.6-7.5v-8.9h-.9c-1.3,0-1.9-.7-1.9-2s.6-2,1.8-2h1.3l.4-3.5c.1-1.4.9-2,2.3-2s2.3.7,2.3,2.2v3.2h2.9c1.4,0,2.1.7,2.1,2.1s-.7,2.1-2.1,2.1h-2.9v8.9c0,2.3.9,3.4,2.7,3.4h0c1.2-.3,2,.2,2.3,1.5.3,1.2-.1,2-1.2,2.3-.9.2-1.8.3-2.7.3h.2Z"/>
            <path class="cls-2" d="M105.3,34.8c-5.9,0-9.2-3.7-9.2-10.2v-6.6c-1.7-.6-2.8-2.2-2.8-4.4s1.3-4,3.4-4.5l.2-1.3c.3-2.7,2.2-4.4,4.9-4.4s4.9,1.9,4.9,4.8v.6h.3c2.9,0,4.7,1.8,4.7,4.7s-1.8,4.7-4.7,4.7h-.3v7c2.4-.3,4.4,1,5,3.6.6,2.7-.6,4.8-3,5.4s-2.3.4-3.4.4v.2ZM101.3,13.9v10.8c0,2.5.6,3.7,1.4,4.3-.8-1-1.4-2.4-1.4-4.3v-11.2s0,.4,0,.4Z"/>
          </g>
          <g>
            <path class="cls-4" d="M120.7,31.7c-1.8,0-2.7-.9-2.7-2.7V9.5h-5.3c-1.5,0-2.2-.7-2.2-2.2s.7-2.2,2.2-2.2h16c1.5,0,2.2.7,2.2,2.2s-.7,2.2-2.2,2.2h-5.4v19.5c0,1.8-.9,2.7-2.7,2.7h.1Z"/>
            <path class="cls-2" d="M120.7,34.3c-3.2,0-5.3-2.1-5.3-5.3V12.1h-2.7c-2.9,0-4.8-1.9-4.8-4.8s1.9-4.8,4.8-4.8h16c2.9,0,4.8,1.9,4.8,4.8s-1.9,4.8-4.8,4.8h-2.7v16.9c0,3.2-2.1,5.3-5.3,5.3ZM120.7,29.1h0V7.8h0v21.3h0Z"/>
          </g>
          <g>
            <path class="cls-3" d="M137.1,32.2c-1.8,0-3.2-.6-4.3-1.7-1.1-1.1-1.7-2.6-1.7-4.3s.9-3.8,2.7-5,4.8-2,8.8-2.4c0-2.3-1.2-3.5-3.4-3.5s-2.3.3-3.6.9c-1.3.6-2.2.4-2.9-.8-.6-1.1-.4-2,.7-2.6,2.3-1.2,4.5-1.8,6.8-1.8s4.5.7,5.8,2.2,2,3.7,2,6.6v9.6c0,1.4-.8,2.2-2.3,2.2s-2.1-.6-2.4-1.9v-.3h-.1c-2.1,1.8-4.1,2.7-6.1,2.7h0ZM138.8,28.1c1.3,0,2.6-.7,3.9-2v-4.1c-2.3.3-4,.8-5.1,1.4-1,.6-1.4,1.4-1.4,2.3,0,1.5.9,2.3,2.7,2.3h-.1Z"/>
            <path class="cls-2" d="M137.1,34.8c-2.5,0-4.6-.9-6.2-2.5s-2.4-3.7-2.4-6.1,1.4-5.5,3.9-7.2c0,0,.2,0,.3-.2-.9-.4-1.7-1.1-2.3-2.2-1.3-2.4-.6-4.8,1.7-6.1,2.7-1.4,5.4-2.1,8.1-2.1s5.9,1.1,7.7,3.1c1.7,2,2.6,4.8,2.6,8.4v9.6c0,2.9-1.9,4.8-4.9,4.8s-2.4-.4-3.2-1c-1.8,1-3.6,1.5-5.3,1.5h0ZM145.3,26.9h0v-5.8h0v5.8ZM145.3,18.8v1.1-1.1Z"/>
          </g>
          <g>
            <path class="cls-3" d="M158.3,32.2c-3.3,0-5-2-5-6.1V5.7c0-1.7.9-2.6,2.6-2.6s2.6.9,2.6,2.6v20.7c0,1.1.4,1.6,1.1,1.6h0c.2,0,.4,0,.5.3.1.2.2.4.3.7.1.7.1,1.3,0,1.9-.2.7-.5,1.2-1,1.3h-1.3.2,0Z"/>
            <path class="cls-2" d="M158.3,34.8c-2.3,0-7.6-.9-7.6-8.8V5.6c0-3.2,2.1-5.2,5.2-5.2s5.2,2.1,5.2,5.2v20c.5.2.9.6,1.2,1.1.4.6.6,1.1.7,1.7.2,1.1.2,2.1,0,3-.5,2.4-2,3.1-2.9,3.3h-.4c-.6,0-1.1.2-1.5.2h0ZM156,5.6h0v20.4c0,2.1.4,2.9,1,3.3-.6-.7-1-1.7-1-3V5.6h0ZM155.9,5.3h0Z"/>
          </g>
          <g>
            <path class="cls-3" d="M167.3,31.7c-1.7,0-2.6-.8-2.6-2.6V5.5c0-1.7.9-2.6,2.6-2.6s2.6.8,2.6,2.6v14.7h.1l6.1-7.6c.6-.7,1.4-1.1,2.3-1.1h3c.4,0,.7,0,.7.3s0,.4-.3.7l-6.1,7.2,5.9,9.3c.5.8.7,1.4.4,1.9-.3.5-.9.7-1.8.7h-1c-.5,0-.9,0-1.4-.4-.4-.3-.8-.6-1.1-1l-4.1-6.9-2.9,3.3v2.5c0,1.7-.9,2.6-2.6,2.6h.2,0Z"/>
            <path class="cls-2" d="M180.2,34.3h-1c-1,0-1.9-.3-2.7-.8-.8-.5-1.4-1.1-1.9-1.8h0l-2.1-3.7v1.1c0,3.1-2,5.2-5.2,5.2s-5.2-2-5.2-5.2V5.5c0-3.1,2-5.2,5.2-5.2s5.2,2,5.2,5.2v7.4l1.6-2c1.1-1.4,2.6-2.1,4.3-2.1h3c2.1,0,2.9,1.2,3.1,1.8.2.5.7,2-.6,3.5l-4.9,5.7,4.9,7.6c1.4,2.1.9,3.8.5,4.6-.5.9-1.7,2.1-4.1,2.1v.2h0ZM167.2,29.4h0ZM167.5,29.1h0ZM167.3,22.9v2.7l2.4-2.7h-2.4ZM167.5,5.7h0ZM167.2,5.3h0Z"/>
          </g>
          <g>
            <path class="cls-3" d="M189.1,8.3c-.9,0-1.7-.3-2.3-.8-.6-.5-.9-1.2-.9-2.1s.3-1.6.9-2.1,1.4-.8,2.3-.8,1.7.3,2.2.8c.6.5.9,1.2.9,2.1s-.3,1.5-.9,2.1-1.3.8-2.2.8ZM189,31.7c-1.7,0-2.6-.9-2.6-2.6v-14.9c0-1.7.9-2.6,2.6-2.6s2.6.9,2.6,2.6v14.9c0,1.7-.9,2.6-2.6,2.6Z"/>
            <path class="cls-2" d="M189,34.3c-3.2,0-5.2-2.1-5.2-5.2v-14.9c0-1.8.7-3.3,1.9-4.2-.2-.2-.4-.3-.6-.5-1.2-1-1.8-2.4-1.8-4s.6-3,1.8-4.1c1.1-.9,2.5-1.4,4-1.4s2.9.5,4,1.5,1.8,2.4,1.8,4-.6,2.9-1.7,4c-.2.2-.5.4-.7.6,1.2.9,1.9,2.4,1.9,4.2v14.9c0,3.2-2.1,5.2-5.2,5.2h-.2,0ZM189.1,29.4h0ZM189,29.1h0v-14.9h0v14.9h0ZM188.5,5.4h0v.2h1v-.3h-1ZM188.5,5.3h0Z"/>
          </g>
          <g>
            <path class="cls-3" d="M200,31.7c-1.7,0-2.6-.9-2.6-2.6v-15.3c0-1.4.8-2.2,2.3-2.2s2.1.6,2.3,1.9v.7h.3c2.2-2.1,4.3-3.2,6.5-3.2,4.1,0,6.2,2.7,6.2,8.1v9.9c0,1.7-.9,2.6-2.6,2.6s-2.7-.9-2.7-2.6v-9.3c0-1.5-.2-2.6-.7-3.3-.4-.6-1.2-1-2.2-1s-1.5.2-2.2.6c-.5.3-1.2.9-2,1.7v11.2c0,1.7-.9,2.6-2.6,2.6v.2h0Z"/>
            <path class="cls-2" d="M212.3,34.3c-3.2,0-5.3-2.1-5.3-5.2v-9.3c0-.9,0-1.3-.1-1.6h0c-.3,0-.6,0-.9.2,0,0-.3.2-.7.6v10.1c0,3.2-2.1,5.2-5.2,5.2s-5.2-2.1-5.2-5.2v-15.3c0-2.9,1.9-4.8,4.9-4.8s2.6.4,3.4,1.2c1.8-1.2,3.7-1.7,5.7-1.7s8.8,1,8.8,10.7v9.9c0,3.2-2.1,5.2-5.2,5.2h-.2,0ZM212.2,29.1h0v-9.9c0-4.2-1.3-5.2-2.6-5.4.7.4,1.1.9,1.4,1.3.8,1.1,1.1,2.6,1.1,4.8v9.3h.1ZM200,29.1h0v-12.2,12.2h0Z"/>
          </g>
          <g>
            <path class="cls-3" d="M227.5,40.4c-2.5,0-4.5-.4-6-1.3-1.6-.9-2.4-2.2-2.4-3.9s1-3.1,2.9-4.2v-.2c-1.2-.8-1.8-1.9-1.8-3.4s.2-1.4.7-2.1c.4-.6.9-1.2,1.5-1.7h0c-.7-.7-1.4-1.4-1.8-2.3-.6-1-.8-2-.8-3.1,0-2.3.8-4.1,2.4-5.4,1.5-1.2,3.4-1.9,5.7-1.9s2.1.2,3,.5h5.3c1.3,0,1.9.6,1.9,1.9s-.6,1.9-1.9,1.9h-1.5c.6.8.9,1.8.9,3.1,0,2.2-.8,3.9-2.3,5.1-1.4,1.2-3.2,1.7-5.5,1.7s-1.7-.2-2.6-.5c-.6.5-.9,1-.9,1.7s.2,1,.7,1.2c.5.3,1.3.4,2.5.4h3.4c5,0,7.5,1.7,7.5,5s-1,3.8-2.9,5.1c-2,1.4-4.7,2-8,2v.4h0ZM228.2,37.1c1.5,0,2.7-.3,3.7-.9.9-.6,1.4-1.2,1.4-2.1s-.3-1.2-.9-1.4c-.5-.2-1.3-.4-2.5-.4h-2.4c-1.1,0-2,0-2.8-.3-.9.7-1.3,1.5-1.3,2.3s.4,1.5,1.3,2,2,.7,3.5.7h0ZM227.8,22.1c.9,0,1.7-.3,2.2-1,.6-.7.9-1.6.9-2.7s-.3-2.1-.9-2.7-1.3-1-2.2-1-1.7.3-2.3,1c-.6.7-.9,1.6-.9,2.7s.3,2.1.9,2.7,1.3,1,2.2,1h0Z"/>
            <path class="cls-2" d="M227.5,43.1c-2.9,0-5.4-.5-7.3-1.6-2.4-1.4-3.8-3.6-3.8-6.2s.4-3,1.8-4.6c-.5-.9-.7-2-.7-3.2s.4-2.4,1.1-3.5c0,0,.1-.2.2-.3-.2-.3-.4-.6-.6-.9-.8-1.4-1.2-2.9-1.2-4.4,0-3,1.2-5.6,3.4-7.4,2-1.6,4.5-2.5,7.3-2.5s2.3.2,3.4.5h4.9c2.7,0,4.6,1.8,4.6,4.6s-1,3.5-2.6,4.2v.8c0,3-1.1,5.4-3.2,7.1-.1,0-.3.2-.4.3,5.8,1.2,6.5,5.4,6.5,7.3s-.7,5-4.1,7.3c-2.5,1.7-5.6,2.5-9.5,2.5h.2ZM235.5,32.1c0,.2.2.3.2.5,0-.2-.1-.3-.2-.5ZM227.8,17.3h-.3c-.2.2-.2.7-.2,1s0,.7.2,1h.6c.2-.2.2-.7.2-1s0-.8-.2-1h-.3Z"/>
          </g>
          <g>
            <path class="cls-3" d="M242.6,23.3c-1.2,0-1.9-.6-1.9-1.9s.6-1.9,1.9-1.9h6.1c1.2,0,1.9.6,1.9,1.9s-.6,1.9-1.9,1.9h-6.1Z"/>
            <path class="cls-2" d="M248.7,25.9h-6.1c-2.7,0-4.5-1.8-4.5-4.5s1.8-4.5,4.5-4.5h6.1c2.7,0,4.5,1.8,4.5,4.5s-1.8,4.5-4.5,4.5Z"/>
          </g>
          <g>
            <path class="cls-4" d="M258,31.7c-1.6,0-2.4-.8-2.4-2.4V7.4c0-.7.2-1.3.6-1.7s1-.6,1.7-.6h1.7c.6,0,1.1.2,1.5.5.5.3.8.7.9,1.3l3.9,10.7c.3.8.6,1.9,1.1,3.5.2.7.4,1.3.5,1.6h.2c.2-.5.4-1.3.8-2.4.4-1.2.6-2.2.9-2.8l3.8-10.7c.2-.5.5-.9.9-1.3.5-.3,1-.5,1.5-.5h2.7c.4,0,.7,0,1,.4s.4.6.4,1v22.8c0,1.6-.8,2.4-2.4,2.4s-2.4-.8-2.4-2.4v-8.7c0-1.5.2-4.2.6-8.1v-.6h-.1l-2.2,6.3-3.6,9.7c-.2.4-.4.8-.8,1-.4.3-.8.4-1.3.4h-.1c-.9,0-1.6-.4-1.9-1.3l-3.6-9.8-2.1-6.3h-.1c0,.3,0,.7.1,1.3.4,3.6.5,6.1.5,7.5v8.7c0,1.6-.8,2.4-2.4,2.4h0Z"/>
            <path class="cls-2" d="M277.3,34.3c-3.1,0-5.1-2-5.1-5v-.9.4c-.5,1-1.1,1.7-1.9,2.3-.8.6-1.8.9-2.7.9h-.1c-2,0-3.6-1.1-4.4-3v-.4c-.1,0-.1.8-.1.8,0,3-2,5-5,5s-5-2-5-5V7.5c0-1.4.5-2.6,1.4-3.5s2.2-1.4,3.5-1.4h1.7c1.1,0,2.1.3,3,.9s1.6,1.5,1.9,2.6l3.1,8.6,3.1-8.6c.3-1,1-1.9,1.9-2.5s1.9-.9,3-.9h2.7c1.1,0,2.1.4,2.8,1.1.7.7,1.1,1.7,1.1,2.8v22.8c0,3.1-2,5-5,5h.1ZM277.5,29.5h0ZM267.4,25.3l.2.6.2-.6h-.4ZM275.1,9.2h2v-1.5h-1.4l-.5,1.5h-.1ZM258.2,9.2h2l-.6-1.5h-1.4v1.5Z"/>
          </g>
          <g>
            <path class="cls-3" d="M290.8,32.2c-1.8,0-3.2-.6-4.3-1.7-1.1-1.1-1.7-2.6-1.7-4.3s.9-3.8,2.7-5,4.8-2,8.8-2.4c0-2.3-1.2-3.5-3.4-3.5s-2.3.3-3.6.9c-1.3.6-2.2.4-2.9-.8-.6-1.1-.4-2,.7-2.6,2.3-1.2,4.5-1.8,6.8-1.8s4.5.7,5.8,2.2,2,3.7,2,6.6v9.6c0,1.4-.8,2.2-2.3,2.2s-2.1-.6-2.4-1.9v-.3h-.1c-2.1,1.8-4.1,2.7-6.1,2.7h0ZM292.5,28.1c1.3,0,2.6-.7,3.9-2v-4.1c-2.3.3-4,.8-5.1,1.4-1,.6-1.4,1.4-1.4,2.3,0,1.5.9,2.3,2.7,2.3h-.1Z"/>
            <path class="cls-2" d="M290.8,34.8c-2.5,0-4.6-.9-6.2-2.5s-2.4-3.7-2.4-6.1,1.4-5.5,3.9-7.2c0,0,.2,0,.3-.2-.9-.4-1.7-1.1-2.3-2.2-1.3-2.4-.6-4.8,1.7-6.1,2.7-1.4,5.4-2.1,8.1-2.1s5.9,1.1,7.7,3.1c1.7,2,2.6,4.8,2.6,8.4v9.6c0,2.9-1.9,4.8-4.9,4.8s-2.4-.4-3.2-1c-1.8,1-3.6,1.5-5.3,1.5h0ZM299,26.9h0v-5.8h0v5.8ZM299,18.8v1.1-1.1Z"/>
          </g>
          <g>
            <path class="cls-3" d="M309.7,31.7c-1.7,0-2.6-.9-2.6-2.6v-15.3c0-1.4.8-2.2,2.3-2.2s2.1.6,2.3,1.9v.7h.3c2.2-2.1,4.3-3.2,6.5-3.2,4.1,0,6.2,2.7,6.2,8.1v9.9c0,1.7-.9,2.6-2.6,2.6s-2.7-.9-2.7-2.6v-9.3c0-1.5-.2-2.6-.7-3.3-.4-.6-1.2-1-2.2-1s-1.5.2-2.2.6c-.5.3-1.2.9-2,1.7v11.2c0,1.7-.9,2.6-2.6,2.6v.2h0Z"/>
            <path class="cls-2" d="M322,34.3c-3.2,0-5.3-2.1-5.3-5.2v-9.3c0-.9,0-1.3-.1-1.6-.3,0-.6,0-.9.2,0,0-.3.2-.7.6v10.1c0,3.2-2.1,5.2-5.2,5.2s-5.2-2.1-5.2-5.2v-15.3c0-2.9,1.9-4.8,4.9-4.8s2.6.4,3.4,1.2c1.8-1.2,3.7-1.7,5.7-1.7s8.8,1,8.8,10.7v9.9c0,3.2-2.1,5.2-5.2,5.2h-.2,0ZM309.7,29.4h0ZM322,29.1h0v-9.9c0-4.2-1.3-5.2-2.5-5.4.6.4,1,.9,1.4,1.3.8,1.1,1.1,2.6,1.1,4.8v9.3h0ZM309.7,29.1h0v-12.2,12.2h0Z"/>
          </g>
          <g>
            <path class="cls-3" d="M337.2,32.2c-2.5,0-4.5-.9-6-2.8s-2.2-4.4-2.2-7.7.9-5.8,2.6-7.8c1.6-1.9,3.6-2.8,5.9-2.8s2,.2,2.9.6c.7.3,1.4.8,2.2,1.6l-.2-3.2v-4.5c0-1.7.9-2.6,2.7-2.6s2.6.9,2.6,2.6v23.9c0,.7-.2,1.2-.6,1.6s-1,.5-1.7.5c-1.3,0-2.1-.6-2.3-1.8v-.3h-.2c-1.8,1.7-3.6,2.6-5.6,2.6h0ZM338.6,27.9c1.4,0,2.7-.7,3.7-2.1v-8.8c-1.1-1-2.3-1.5-3.7-1.5s-2.2.5-2.9,1.6c-.8,1.1-1.2,2.7-1.2,4.6s.4,3.6,1.1,4.7,1.7,1.6,3.1,1.6h-.1Z"/>
            <path class="cls-2" d="M337.2,34.8c-3.3,0-6.1-1.3-8.1-3.8-1.9-2.3-2.8-5.5-2.8-9.3s1.1-7,3.2-9.5,4.8-3.8,7.8-3.8,1.5,0,2.3.3v-3.1c0-3.2,2.1-5.2,5.3-5.2s5.2,2.1,5.2,5.2v23.9c0,1.8-.8,2.9-1.5,3.5-.6.5-1.7,1.2-3.4,1.2s-2.3-.3-3.1-.9c-1.6,1-3.3,1.4-5,1.4h.1ZM332.7,16.8c-.8,1.3-1.2,3-1.2,4.9s.6,4.7,1.7,6.1c.1.2.3.3.4.5-.1-.2-.3-.3-.4-.5-1-1.5-1.5-3.5-1.5-6.1s.3-3.5,1-4.9ZM344.7,27h.3v.2-8h0v7.5l-.3.3ZM338.6,18c-.3,0-.5,0-.8.5-.5.7-.7,1.7-.7,3.1,0,2,.4,2.9.6,3.2.2.2.3.4.9.4s.6,0,1.1-.5v-6.5c-.4-.2-.7-.2-1.1-.2ZM344.9,10v.7-5h0v4.4h0Z"/>
          </g>
          <g>
            <path class="cls-3" d="M358.2,32.2c-1.8,0-3.2-.6-4.3-1.7s-1.7-2.6-1.7-4.3.9-3.8,2.7-5,4.8-2,8.8-2.4c0-2.3-1.2-3.5-3.4-3.5s-2.3.3-3.6.9-2.2.4-2.9-.8c-.6-1.1-.4-2,.7-2.6,2.3-1.2,4.5-1.8,6.8-1.8s4.5.7,5.8,2.2,2,3.7,2,6.6v9.6c0,1.4-.8,2.2-2.3,2.2s-2.1-.6-2.4-1.9v-.3h0c-2.1,1.8-4.1,2.7-6.1,2.7h0ZM359.9,28.1c1.3,0,2.6-.7,3.9-2v-4.1c-2.3.3-4,.8-5.1,1.4-1,.6-1.4,1.4-1.4,2.3,0,1.5.9,2.3,2.7,2.3h-.1Z"/>
            <path class="cls-2" d="M358.2,34.8c-2.5,0-4.6-.8-6.2-2.5-1.6-1.6-2.4-3.7-2.4-6.1s1.4-5.5,3.9-7.2c0,0,.2,0,.3-.2-.9-.4-1.7-1.1-2.3-2.2-1.3-2.4-.6-4.8,1.7-6.1,2.7-1.4,5.4-2.1,8.1-2.1s5.9,1.1,7.7,3.1c1.7,2,2.6,4.8,2.6,8.4v9.6c0,2.9-1.9,4.8-4.9,4.8s-2.4-.4-3.2-1c-1.8,1-3.6,1.5-5.3,1.5h0ZM366.4,26.9h0v-5.8h0v5.8ZM366.4,18.7v1.1-1.1Z"/>
          </g>
          <g>
            <path class="cls-3" d="M377.1,31.7c-1.7,0-2.6-.9-2.6-2.6v-15.3c0-1.4.7-2.2,2.2-2.2s2.2.7,2.3,2v1.6h.3c.7-1.3,1.6-2.3,2.6-3s2-1,3.1-1h.5c.6,0,1.1.5,1.3,1s.3,1.1,0,1.8c-.3,1.5-1.2,2.2-2.5,1.9h0c-.9,0-1.7.3-2.5.9-.9.7-1.6,1.7-2.2,3.1v9.4c0,1.7-.9,2.6-2.6,2.6v-.2h.1Z"/>
            <path class="cls-2" d="M377.1,34.3c-3.2,0-5.2-2.1-5.2-5.2v-15.3c0-2.9,1.9-4.8,4.8-4.8s2.6.4,3.4,1.2c0,0,.2,0,.3-.2,1.5-1,3-1.5,4.6-1.5h1c1.4.4,2.5,1.2,3.1,2.5.5,1.1.6,2.2.3,3.4-.6,2.8-2.6,4.3-5.2,4-.2,0-.5,0-.8.3-.5.3-.8.8-1.2,1.5v8.9c0,3.2-2.1,5.2-5.2,5.2h.1ZM377.1,29.4h0ZM377.1,29.1h0v-9.9l.2-.5c0-.3.3-.7.4-1h-.6v11.3h0Z"/>
          </g>
          <g>
            <path class="cls-3" d="M392.8,8.3c-.9,0-1.7-.3-2.3-.8s-.9-1.2-.9-2.1.3-1.6.9-2.1c.6-.5,1.4-.8,2.3-.8s1.7.3,2.2.8c.6.5.9,1.2.9,2.1s-.3,1.5-.9,2.1c-.6.6-1.3.8-2.2.8ZM392.8,31.7c-1.7,0-2.6-.9-2.6-2.6v-14.9c0-1.7.9-2.6,2.6-2.6s2.6.9,2.6,2.6v14.9c0,1.7-.9,2.6-2.6,2.6Z"/>
            <path class="cls-2" d="M392.8,34.3c-3.2,0-5.2-2.1-5.2-5.2v-14.9c0-1.8.7-3.3,1.9-4.2-.2,0-.4-.3-.6-.5-1.2-1-1.8-2.4-1.8-4s.6-3,1.8-4.1c1.1-.9,2.5-1.4,4-1.4s2.9.5,4,1.5,1.8,2.4,1.8,4-.6,2.9-1.7,4c-.2.2-.5.4-.7.6,1.2.9,1.9,2.4,1.9,4.2v14.9c0,3.2-2.1,5.2-5.2,5.2h-.2ZM392.8,29.1h0v-14.9h0v14.9h0ZM392.3,5.3h0v.2s.2.2.5.2h.5v-.3h-1Z"/>
          </g>
          <g>
            <path class="cls-3" d="M403.7,31.7c-1.7,0-2.6-.9-2.6-2.6v-15.3c0-1.4.8-2.2,2.3-2.2s2.1.6,2.3,1.9v.7h.3c2.2-2.1,4.3-3.2,6.5-3.2,4.1,0,6.2,2.7,6.2,8.1v9.9c0,1.7-.9,2.6-2.6,2.6s-2.7-.9-2.7-2.6v-9.3c0-1.5-.2-2.6-.7-3.3-.4-.6-1.2-1-2.2-1s-1.5.2-2.2.6c-.5.3-1.2.9-2,1.7v11.2c0,1.7-.9,2.6-2.6,2.6v.2h0Z"/>
            <path class="cls-2" d="M416.1,34.3c-3.2,0-5.3-2.1-5.3-5.2v-10.9c-.3,0-.6,0-.9.2,0,0-.3.2-.7.6v10.1c0,3.2-2.1,5.2-5.2,5.2s-5.2-2.1-5.2-5.2v-15.3c0-2.9,1.9-4.8,4.9-4.8s2.6.4,3.4,1.2c1.8-1.2,3.7-1.7,5.7-1.7s8.8,1,8.8,10.7v9.9c0,3.2-2.1,5.2-5.2,5.2h-.3ZM403.7,29.4h0ZM416,29.1h0v-9.9c0-4.2-1.3-5.2-2.5-5.4.6.4,1,.9,1.4,1.3.8,1.1,1.1,2.6,1.1,4.8v9.3h0ZM403.7,29.1h0v-12.2,12.2h0Z"/>
          </g>
        </g>
        <g>
          <path class="cls-4" d="M12.3,32.2c-2.9,0-5.5-.8-7.9-2.4-1.2-1-1.3-2.1-.3-3.2,1.1-1.3,2.3-1.4,3.7-.4,1.6.9,3.2,1.4,4.7,1.4s2.4-.3,3.1-.8c.7-.5,1.1-1.3,1.1-2.2s-.3-1.6-1-2.1c-.4-.3-1.3-.8-2.7-1.4h-.3l-3.6-1.5c-3.6-1.5-5.4-3.9-5.4-7.2s.9-4,2.6-5.5c1.7-1.5,3.9-2.2,6.6-2.2s4.8.7,6.8,2.1c1,.9,1.1,1.8.2,2.9-1,1.2-2,1.3-3.2.5-1.2-.6-2.4-.9-3.8-.9s-2.1.3-2.8.8-1,1.2-1,2,.4,1.5,1.2,2.1c.5.4,1.4.8,2.8,1.3h.3l3.5,1.5c1.7.7,3,1.6,3.9,2.7,1,1.2,1.5,2.7,1.5,4.6s-.9,4.1-2.6,5.6c-1.8,1.6-4.2,2.4-7.2,2.4h-.2Z"/>
          <path class="cls-3" d="M29,31.7c-1.7,0-2.6-.9-2.6-2.6v-15.3c0-1.4.8-2.2,2.3-2.2s2.1.6,2.3,1.9v.8h.3c1-1,1.9-1.8,2.7-2.3,1.1-.6,2.3-.9,3.5-.9,2.7,0,4.5,1.2,5.5,3.5,1.1-1.1,2-2,2.9-2.5,1.1-.7,2.3-1,3.5-1,2.1,0,3.7.7,4.7,2.2,1,1.4,1.5,3.3,1.5,5.9v9.9c0,1.7-.9,2.6-2.6,2.6s-2.7-.9-2.7-2.6v-9.3c0-1.5-.2-2.6-.7-3.3-.4-.6-1.1-.9-2.1-.9s-2.4.8-3.9,2.3v11.2c0,1.7-.9,2.6-2.6,2.6s-2.7-.9-2.7-2.6v-9.3c0-1.5-.2-2.6-.7-3.3-.4-.6-1.1-.9-2.1-.9s-2.4.8-3.9,2.3v11.2c0,1.7-.9,2.6-2.6,2.6h0Z"/>
          <path class="cls-3" d="M66,32.2c-1.8,0-3.2-.6-4.3-1.7s-1.7-2.6-1.7-4.3.9-3.8,2.7-5,4.8-2,8.8-2.4c0-2.3-1.2-3.5-3.4-3.5s-2.3.3-3.6.9-2.2.4-2.9-.8c-.6-1.1-.4-2,.7-2.6,2.3-1.2,4.5-1.8,6.8-1.8s4.5.7,5.8,2.2,2,3.7,2,6.6v9.6c0,1.4-.8,2.2-2.3,2.2s-2.1-.6-2.4-1.9v-.3h-.1c-2.1,1.8-4.1,2.7-6.1,2.7h0ZM67.7,28.1c1.3,0,2.6-.7,3.9-2v-4.1c-2.3.3-4,.8-5.1,1.4-1,.6-1.4,1.4-1.4,2.3,0,1.5.9,2.3,2.7,2.3h0Z"/>
          <path class="cls-3" d="M84.9,31.7c-1.7,0-2.6-.9-2.6-2.6v-15.3c0-1.4.7-2.2,2.2-2.2s2.2.7,2.3,2v1.6h.3c.7-1.3,1.6-2.3,2.6-3s2-1,3.1-1h.5c.6,0,1.1.5,1.3,1s.3,1.1.1,1.8c-.3,1.5-1.2,2.2-2.5,1.9h0c-.9,0-1.7.3-2.5.9-.9.7-1.6,1.7-2.2,3.1v9.4c0,1.7-.9,2.6-2.6,2.6v-.2h0Z"/>
          <path class="cls-3" d="M105.3,32.2c-4.4,0-6.6-2.5-6.6-7.5v-8.9h-.9c-1.3,0-1.9-.7-1.9-2s.6-2,1.8-2h1.3l.4-3.5c.1-1.4.9-2,2.3-2s2.3.7,2.3,2.2v3.2h2.9c1.4,0,2.1.7,2.1,2.1s-.7,2.1-2.1,2.1h-2.9v8.9c0,2.3.9,3.4,2.7,3.4h0c1.2-.3,2,.2,2.3,1.5.3,1.2-.1,2-1.2,2.3-.9.2-1.8.3-2.7.3h.2Z"/>
          <path class="cls-4" d="M120.7,31.7c-1.8,0-2.7-.9-2.7-2.7V9.5h-5.3c-1.5,0-2.2-.7-2.2-2.2s.7-2.2,2.2-2.2h16c1.5,0,2.2.7,2.2,2.2s-.7,2.2-2.2,2.2h-5.4v19.5c0,1.8-.9,2.7-2.7,2.7h.1Z"/>
          <path class="cls-3" d="M137.1,32.2c-1.8,0-3.2-.6-4.3-1.7-1.1-1.1-1.7-2.6-1.7-4.3s.9-3.8,2.7-5,4.8-2,8.8-2.4c0-2.3-1.2-3.5-3.4-3.5s-2.3.3-3.6.9c-1.3.6-2.2.4-2.9-.8-.6-1.1-.4-2,.7-2.6,2.3-1.2,4.5-1.8,6.8-1.8s4.5.7,5.8,2.2,2,3.7,2,6.6v9.6c0,1.4-.8,2.2-2.3,2.2s-2.1-.6-2.4-1.9v-.3h-.1c-2.1,1.8-4.1,2.7-6.1,2.7h0ZM138.8,28.1c1.3,0,2.6-.7,3.9-2v-4.1c-2.3.3-4,.8-5.1,1.4-1,.6-1.4,1.4-1.4,2.3,0,1.5.9,2.3,2.7,2.3h-.1Z"/>
          <path class="cls-3" d="M158.3,32.2c-3.3,0-5-2-5-6.1V5.7c0-1.7.9-2.6,2.6-2.6s2.6.9,2.6,2.6v20.7c0,1.1.4,1.6,1.1,1.6h0c.2,0,.4,0,.5.3.1.2.2.4.3.7.1.7.1,1.3,0,1.9-.2.7-.5,1.2-1,1.3h-1.3.2,0Z"/>
          <path class="cls-3" d="M167.3,31.7c-1.7,0-2.6-.8-2.6-2.6V5.5c0-1.7.9-2.6,2.6-2.6s2.6.8,2.6,2.6v14.7h.1l6.1-7.6c.6-.7,1.4-1.1,2.3-1.1h3c.4,0,.7,0,.7.3s0,.4-.3.7l-6.1,7.2,5.9,9.3c.5.8.7,1.4.4,1.9-.3.5-.9.7-1.8.7h-1c-.5,0-.9,0-1.4-.4-.4-.3-.8-.6-1.1-1l-4.1-6.9-2.9,3.3v2.5c0,1.7-.9,2.6-2.6,2.6h.2,0Z"/>
          <path class="cls-3" d="M189.1,8.3c-.9,0-1.7-.3-2.3-.8-.6-.5-.9-1.2-.9-2.1s.3-1.6.9-2.1,1.4-.8,2.3-.8,1.7.3,2.2.8c.6.5.9,1.2.9,2.1s-.3,1.5-.9,2.1-1.3.8-2.2.8ZM189,31.7c-1.7,0-2.6-.9-2.6-2.6v-14.9c0-1.7.9-2.6,2.6-2.6s2.6.9,2.6,2.6v14.9c0,1.7-.9,2.6-2.6,2.6Z"/>
          <path class="cls-3" d="M200,31.7c-1.7,0-2.6-.9-2.6-2.6v-15.3c0-1.4.8-2.2,2.3-2.2s2.1.6,2.3,1.9v.7h.3c2.2-2.1,4.3-3.2,6.5-3.2,4.1,0,6.2,2.7,6.2,8.1v9.9c0,1.7-.9,2.6-2.6,2.6s-2.7-.9-2.7-2.6v-9.3c0-1.5-.2-2.6-.7-3.3-.4-.6-1.2-1-2.2-1s-1.5.2-2.2.6c-.5.3-1.2.9-2,1.7v11.2c0,1.7-.9,2.6-2.6,2.6v.2h0Z"/>
          <path class="cls-3" d="M227.5,40.4c-2.5,0-4.5-.4-6-1.3-1.6-.9-2.4-2.2-2.4-3.9s1-3.1,2.9-4.2v-.2c-1.2-.8-1.8-1.9-1.8-3.4s.2-1.4.7-2.1c.4-.6.9-1.2,1.5-1.7h0c-.7-.7-1.4-1.4-1.8-2.3-.6-1-.8-2-.8-3.1,0-2.3.8-4.1,2.4-5.4,1.5-1.2,3.4-1.9,5.7-1.9s2.1.2,3,.5h5.3c1.3,0,1.9.6,1.9,1.9s-.6,1.9-1.9,1.9h-1.5c.6.8.9,1.8.9,3.1,0,2.2-.8,3.9-2.3,5.1-1.4,1.2-3.2,1.7-5.5,1.7s-1.7-.2-2.6-.5c-.6.5-.9,1-.9,1.7s.2,1,.7,1.2c.5.3,1.3.4,2.5.4h3.4c5,0,7.5,1.7,7.5,5s-1,3.8-2.9,5.1c-2,1.4-4.7,2-8,2v.4h0ZM228.2,37.1c1.5,0,2.7-.3,3.7-.9.9-.6,1.4-1.2,1.4-2.1s-.3-1.2-.9-1.4c-.5-.2-1.3-.4-2.5-.4h-2.4c-1.1,0-2,0-2.8-.3-.9.7-1.3,1.5-1.3,2.3s.4,1.5,1.3,2,2,.7,3.5.7h0ZM227.8,22.1c.9,0,1.7-.3,2.2-1,.6-.7.9-1.6.9-2.7s-.3-2.1-.9-2.7-1.3-1-2.2-1-1.7.3-2.3,1c-.6.7-.9,1.6-.9,2.7s.3,2.1.9,2.7,1.3,1,2.2,1h0Z"/>
          <path class="cls-3" d="M242.6,23.3c-1.2,0-1.9-.6-1.9-1.9s.6-1.9,1.9-1.9h6.1c1.2,0,1.9.6,1.9,1.9s-.6,1.9-1.9,1.9h-6.1Z"/>
          <path class="cls-4" d="M258,31.7c-1.6,0-2.4-.8-2.4-2.4V7.4c0-.7.2-1.3.6-1.7s1-.6,1.7-.6h1.7c.6,0,1.1.2,1.5.5.5.3.8.7.9,1.3l3.9,10.7c.3.8.6,1.9,1.1,3.5.2.7.4,1.3.5,1.6h.2c.2-.5.4-1.3.8-2.4.4-1.2.6-2.2.9-2.8l3.8-10.7c.2-.5.5-.9.9-1.3.5-.3,1-.5,1.5-.5h2.7c.4,0,.7,0,1,.4s.4.6.4,1v22.8c0,1.6-.8,2.4-2.4,2.4s-2.4-.8-2.4-2.4v-8.7c0-1.5.2-4.2.6-8.1v-.6h-.1l-2.2,6.3-3.6,9.7c-.2.4-.4.8-.8,1-.4.3-.8.4-1.3.4h-.1c-.9,0-1.6-.4-1.9-1.3l-3.6-9.8-2.1-6.3h-.1c0,.3,0,.7.1,1.3.4,3.6.5,6.1.5,7.5v8.7c0,1.6-.8,2.4-2.4,2.4h0Z"/>
          <path class="cls-3" d="M290.8,32.2c-1.8,0-3.2-.6-4.3-1.7-1.1-1.1-1.7-2.6-1.7-4.3s.9-3.8,2.7-5,4.8-2,8.8-2.4c0-2.3-1.2-3.5-3.4-3.5s-2.3.3-3.6.9c-1.3.6-2.2.4-2.9-.8-.6-1.1-.4-2,.7-2.6,2.3-1.2,4.5-1.8,6.8-1.8s4.5.7,5.8,2.2,2,3.7,2,6.6v9.6c0,1.4-.8,2.2-2.3,2.2s-2.1-.6-2.4-1.9v-.3h-.1c-2.1,1.8-4.1,2.7-6.1,2.7h0ZM292.5,28.1c1.3,0,2.6-.7,3.9-2v-4.1c-2.3.3-4,.8-5.1,1.4-1,.6-1.4,1.4-1.4,2.3,0,1.5.9,2.3,2.7,2.3h-.1Z"/>
          <path class="cls-3" d="M309.7,31.7c-1.7,0-2.6-.9-2.6-2.6v-15.3c0-1.4.8-2.2,2.3-2.2s2.1.6,2.3,1.9v.7h.3c2.2-2.1,4.3-3.2,6.5-3.2,4.1,0,6.2,2.7,6.2,8.1v9.9c0,1.7-.9,2.6-2.6,2.6s-2.7-.9-2.7-2.6v-9.3c0-1.5-.2-2.6-.7-3.3-.4-.6-1.2-1-2.2-1s-1.5.2-2.2.6c-.5.3-1.2.9-2,1.7v11.2c0,1.7-.9,2.6-2.6,2.6v.2h0Z"/>
          <path class="cls-3" d="M337.2,32.2c-2.5,0-4.5-.9-6-2.8s-2.2-4.4-2.2-7.7.9-5.8,2.6-7.8c1.6-1.9,3.6-2.8,5.9-2.8s2,.2,2.9.6c.7.3,1.4.8,2.2,1.6l-.2-3.2v-4.5c0-1.7.9-2.6,2.7-2.6s2.6.9,2.6,2.6v23.9c0,.7-.2,1.2-.6,1.6s-1,.5-1.7.5c-1.3,0-2.1-.6-2.3-1.8v-.3h-.2c-1.8,1.7-3.6,2.6-5.6,2.6h0ZM338.6,27.9c1.4,0,2.7-.7,3.7-2.1v-8.8c-1.1-1-2.3-1.5-3.7-1.5s-2.2.5-2.9,1.6c-.8,1.1-1.2,2.7-1.2,4.6s.4,3.6,1.1,4.7,1.7,1.6,3.1,1.6h-.1Z"/>
          <path class="cls-3" d="M358.2,32.2c-1.8,0-3.2-.6-4.3-1.7s-1.7-2.6-1.7-4.3.9-3.8,2.7-5,4.8-2,8.8-2.4c0-2.3-1.2-3.5-3.4-3.5s-2.3.3-3.6.9-2.2.4-2.9-.8c-.6-1.1-.4-2,.7-2.6,2.3-1.2,4.5-1.8,6.8-1.8s4.5.7,5.8,2.2,2,3.7,2,6.6v9.6c0,1.4-.8,2.2-2.3,2.2s-2.1-.6-2.4-1.9v-.3h0c-2.1,1.8-4.1,2.7-6.1,2.7h0ZM359.9,28.1c1.3,0,2.6-.7,3.9-2v-4.1c-2.3.3-4,.8-5.1,1.4-1,.6-1.4,1.4-1.4,2.3,0,1.5.9,2.3,2.7,2.3h-.1Z"/>
          <path class="cls-3" d="M377.1,31.7c-1.7,0-2.6-.9-2.6-2.6v-15.3c0-1.4.7-2.2,2.2-2.2s2.2.7,2.3,2v1.6h.3c.7-1.3,1.6-2.3,2.6-3s2-1,3.1-1h.5c.6,0,1.1.5,1.3,1s.3,1.1,0,1.8c-.3,1.5-1.2,2.2-2.5,1.9h0c-.9,0-1.7.3-2.5.9-.9.7-1.6,1.7-2.2,3.1v9.4c0,1.7-.9,2.6-2.6,2.6v-.2h.1Z"/>
          <path class="cls-3" d="M392.8,8.3c-.9,0-1.7-.3-2.3-.8s-.9-1.2-.9-2.1.3-1.6.9-2.1c.6-.5,1.4-.8,2.3-.8s1.7.3,2.2.8c.6.5.9,1.2.9,2.1s-.3,1.5-.9,2.1c-.6.6-1.3.8-2.2.8ZM392.8,31.7c-1.7,0-2.6-.9-2.6-2.6v-14.9c0-1.7.9-2.6,2.6-2.6s2.6.9,2.6,2.6v14.9c0,1.7-.9,2.6-2.6,2.6Z"/>
          <path class="cls-3" d="M403.7,31.7c-1.7,0-2.6-.9-2.6-2.6v-15.3c0-1.4.8-2.2,2.3-2.2s2.1.6,2.3,1.9v.7h.3c2.2-2.1,4.3-3.2,6.5-3.2,4.1,0,6.2,2.7,6.2,8.1v9.9c0,1.7-.9,2.6-2.6,2.6s-2.7-.9-2.7-2.6v-9.3c0-1.5-.2-2.6-.7-3.3-.4-.6-1.2-1-2.2-1s-1.5.2-2.2.6c-.5.3-1.2.9-2,1.7v11.2c0,1.7-.9,2.6-2.6,2.6v.2h0Z"/>
        </g>
      </g>
    </g>
  </g>
</svg>