<?xml version="1.0" encoding="UTF-8"?>
<svg xmlns="http://www.w3.org/2000/svg" version="1.1" viewBox="0 0 680.3 143.5">
  <defs>
    <style>
      .cls-1 {
        fill: none;
        stroke: #fff;
        stroke-miterlimit: 10;
        stroke-width: 5.2px;
      }

      .cls-2 {
        fill: #24345d;
      }

      .cls-3 {
        fill: #fff;
      }

      .cls-4 {
        fill: #aeb3b8;
      }

      .cls-5 {
        fill: #314675;
      }

      .cls-6 {
        fill: #4dbcbc;
      }

      .cls-7 {
        fill: #e2e3e3;
      }
    </style>
  </defs>
  <!-- Generator: Adobe Illustrator 28.7.7, SVG Export Plug-In . SVG Version: 1.2.0 Build 194)  -->
  <g>
    <g id="_圖層_1" data-name="圖層_1">
      <g>
        <g>
          <path class="cls-5" d="M12.2,92.3c-1.9-.7-3.7-1.8-5.2-3.1-3.4-3-5.4-7.4-5.2-12.1.1-4.7,2.4-9,6.1-11.9,1-.8,2.2-1.5,3.4-2,10.1,14.8.8,29.1.8,29.1h0Z"/>
          <path class="cls-2" d="M12.2,92.3c-1.9-.7-3.7-1.8-5.2-3.1.3-3.6.6-7.4.8-11.4.2-4.4.2-8.6,0-12.5,1-.8,2.2-1.5,3.4-2,.3,9.7.6,19.4.8,29.1h.2,0Z"/>
        </g>
        <g>
          <path class="cls-4" d="M72.8,51.2c-2.9,0-5.5,1.2-7.7,3.8h0c-1,1.1-1.9,2.5-2.6,4.2-2.2,4.7-3.5,11.5-3.5,20.8s.8,13.7,2.1,21.7c3,19.1,8.5,39.5,11.8,39.5s9.1-20.8,11.9-40.1c1.2-7.8,1.9-15.3,1.9-21.1,0-20.1-6.2-28.8-13.8-28.8h-.1Z"/>
          <path class="cls-4" d="M133.5,78c0,13.9-4.8,27.6-16.6,33.6-11.1,6.7-30.4,6-45.1,6s-34,.6-45.1-6c-11.8-6-15.3-19.4-13.9-33-1.5-13.7,2.1-27,13.9-33,11.1-6.7,30.4-6,45.1-6s34-.6,45.1,6c11.8,6,16.9,18.1,16.6,32.4Z"/>
        </g>
        <path class="cls-7" d="M69.8,48.2c-2.9,0-5.5,1.2-7.7,3.8h0c-1,1.1-1.9,2.5-2.6,4.2h0c-2.2,4.7-3.5,11.5-3.5,20.8s.8,13.7,2.1,21.7c3,19.1,8.5,39.5,11.8,39.5s9.1-20.8,11.9-40.1c1.2-7.8,1.9-15.3,1.9-21.1,0-20.1-6.2-28.8-13.8-28.8h0ZM70.2,107.2c-.8,0-1.4-1.6-1.4-3.6s.6-3.6,1.4-3.6,1.4,1.6,1.4,3.6-.6,3.6-1.4,3.6ZM79.6,92.3c-2.2,2.4-6.4,2.4-9.8,2.4s-7.6,0-9.8-2.4-3.1-17-2.1-21.9,6.7-8.2,11.9-8.2,10.9,3.3,11.9,8.2,0,19.5-2.1,21.9Z"/>
        <path class="cls-7" d="M127.9,75.7c.3,14.3-2.1,27-13.9,33.1-11.1,6.7-30.4,6-45.1,6s-34,.6-45.1-6c-11.8-6-14-19-13.9-33,0-15.1,2.1-27,13.9-33,11.1-6.7,30.4-6,45.1-6s34-.6,45.1,6c11.8,6,13.6,17.9,13.9,33h0Z"/>
        <path class="cls-5" d="M114.2,76.1c0,16.9-10.4,30.7-23.3,30.7h-42.2c-12.9,0-23.3-13.7-23.3-30.7h0c0-16.9,10.4-30.7,23.3-30.7h42.2c12.9,0,23.3,13.7,23.3,30.7h0Z"/>
        <path class="cls-6" d="M78.1,86.7c0,4.7-3.8,8.5-8.5,8.5s-8.5-3.8-8.5-8.5h17Z"/>
        <g>
          <g>
            <path class="cls-5" d="M55.8,25h-.3c-4.1-2.2-6.7-6.5-6.7-11.2s2.3-8.5,6.1-10.8c.4-.2.8,0,1,.3.2.4,0,.8-.3,1-3.4,2-5.4,5.6-5.4,9.5s2.3,7.9,5.9,9.8c.4.2.5.6.3,1,0,.2-.4.4-.7.4h.1Z"/>
            <path class="cls-5" d="M57,20.7c-.2,0-.4,0-.5-.2-2-1.8-3.1-4.1-3.1-6.5s1.1-4.8,3.2-6.6c.3-.3.8-.2,1.1,0,.3.3.2.8,0,1-1.7,1.5-2.7,3.4-2.7,5.4s.9,3.9,2.6,5.4c.3.3.3.7,0,1,0,.2-.3.2-.6.2v.3Z"/>
          </g>
          <g>
            <path class="cls-5" d="M82.5,25h.3c4.1-2.2,6.7-6.5,6.7-11.2s-2.3-8.5-6.1-10.8c-.4-.2-.8,0-1,.3-.2.4,0,.8.3,1,3.4,2,5.4,5.6,5.4,9.5s-2.3,7.9-5.9,9.8c-.4.2-.5.6-.3,1,0,.2.4.4.7.4h0Z"/>
            <path class="cls-5" d="M81.4,20.7c.2,0,.4,0,.5-.2,2-1.8,3.1-4.1,3.1-6.5s-1.1-4.8-3.2-6.6c-.3-.3-.8-.2-1,0-.3.3-.2.8,0,1,1.7,1.5,2.7,3.4,2.7,5.4s-.9,3.9-2.6,5.4c-.3.3-.3.7,0,1,0,.2.3.2.6.2v.3h0Z"/>
          </g>
          <path class="cls-5" d="M72.7,36.3c0,1.8-1.4,3.2-3.2,3.2h0c-1.8,0-3.2-1.4-3.2-3.2l2-16.9c0-1.8-.6-3.2,1.2-3.2h0c1.8,0,1.2,1.4,1.2,3.2l2,16.9Z"/>
          <path class="cls-5" d="M69.1,7h.9c3.6,0,6.5,2.9,6.5,6.5v.9c0,3.6-2.9,6.5-6.5,6.5h-.9c-3.6,0-6.5-2.9-6.5-6.5v-.9c0-3.6,2.9-6.5,6.5-6.5Z"/>
        </g>
        <path class="cls-6" d="M57,72.6c0,1.9-1.5,3.4-3.4,3.4h0c-1.9,0-3.4-1.5-3.4-3.4v-8.7c0-1.9,1.5-3.4,3.4-3.4h0c1.9,0,3.4,1.5,3.4,3.4v8.7Z"/>
        <path class="cls-6" d="M87.2,72.6c0,1.9-1.5,3.4-3.4,3.4h0c-1.9,0-3.4-1.5-3.4-3.4v-8.7c0-1.9,1.5-3.4,3.4-3.4h0c1.9,0,3.4,1.5,3.4,3.4v8.7Z"/>
        <g>
          <path class="cls-5" d="M134.2,68.1c-.3,3.6-.6,7.4-.8,11.4-.2,4.4-.2,8.6-.1,12.5,3.7-2.9,6-7.2,6.1-11.9.1-4.6-1.9-9-5.2-12.1h0Z"/>
          <path class="cls-2" d="M134.2,68.1c-.8-.7-1.1-1-2-1.6-.8-.5-5.2,12.5-.5,26.6,1.2-.5.6-.3,1.7-1.1,0-4,0-8.2.1-12.5.2-4,.4-7.8.8-11.4h-.1Z"/>
        </g>
      </g>
      <g>
        <g>
          <path class="cls-2" d="M135,67.8c-.7-.6-1.1-1-1.8-1.4-1.7-7.5-5.3-13.8-11.1-18.3-1.9-2.3-4.2-4.2-7.3-5.8-11.1-6.7-30.4-6-45.1-6s-34-.6-45.1,6c-8.4,4.3-11.8,11.6-13.1,21-1,.5-1.9,1-2.7,1.7-3.7,2.9-6,7.2-6.1,11.9,0,4.6,1.9,9,5.2,12.1,1.3,1.2,2.8,2.1,4.4,2.8,1.3,5.1,3.5,9.6,7.1,13,2.1,2.7,4.7,5,8,6.7,8.7,5.2,22.5,5.9,35.1,6,2.7,11.6,5.9,20.5,8,20.5s.3,0,.4,0c.9,2,1.8,3.1,2.6,3.1,2.6,0,6.1-10.5,8.9-23.5,12.6,0,26.4-.8,35.2-6,7.6-3.9,12.2-10.9,14.6-19.1,0,.2.1.4.2.6,1.2-.5.6-.3,1.7-1.1,3.7-2.9,6-7.2,6.1-11.9.1-4.6-1.9-9-5.2-12.1v-.2h0Z"/>
          <path class="cls-3" d="M73.5,143.5c-1.9,0-3.2-1.5-4.2-3.1-1.9-.6-4.8-3.8-8.9-20.4-12.8-.2-25.7-1.2-34.3-6.3-3.4-1.8-6.3-4.2-8.7-7.2-3.4-3.3-5.9-7.6-7.4-12.9-1.5-.7-2.8-1.7-3.9-2.7-4-3.7-6.1-8.8-6.1-14.1.2-5.4,2.8-10.5,7.1-13.9.6-.5,1.2-.9,1.9-1.3,1.8-10.6,6.3-17.5,14.3-21.6,10.8-6.4,28.4-6.4,42.5-6.4h7.8c14.1,0,31.7,0,42.5,6.3,3.1,1.6,5.7,3.7,7.8,6.2,5.8,4.5,9.7,10.7,11.6,18.6.4.3.8.7,1.3,1.1,4,3.6,6.3,8.8,6.1,14.1-.2,5.4-2.8,10.5-7.1,13.9-.2.2-.3.3-.4.4-.4.4-.7.6-1.2.8-3,8.6-8.2,15-15.3,18.7-8.7,5.1-21.5,6.2-34.3,6.3-5.3,23.5-9.2,23.5-11,23.5h-.1ZM72.2,134.5l1.1,2.2c0,.2.2.5.3.6,1.4-2.5,3.8-9,6.3-20.4l.4-2h2.1c12.8,0,25.8-.8,33.8-5.7h.2c8-4.2,11.7-11.9,13.3-17.6l2.4-8.3,1.7,5.2c2.3-2.4,3.7-5.5,3.8-8.7.1-3.8-1.5-7.4-4.4-10h0c-.7-.6-.9-.8-1.5-1.2l-.9-.6-.2-1.1c-1.6-7.2-5-12.8-10.1-16.8l-.3-.2-.2-.2c-1.7-2.1-3.8-3.8-6.4-5.1h-.2c-9.5-5.8-26.4-5.8-39.9-5.7h-7.8c-13.5,0-30.4,0-39.9,5.7h-.2c-6.8,3.6-10.4,9.4-11.7,19.1l-.2,1.4-1.2.6c-.9.5-1.6.9-2.3,1.4-3.1,2.4-5,6-5.1,9.9,0,3.8,1.5,7.4,4.4,10,1.1,1,2.3,1.7,3.7,2.4l1.2.5.3,1.3c1.3,5,3.3,8.9,6.4,11.8l.3.3c1.9,2.5,4.3,4.5,7.1,5.9h.2c8,4.9,21,5.6,33.8,5.7h2.1l.5,2c2.7,11.3,4.8,16.4,5.9,18.2l1.2-.5h0Z"/>
        </g>
        <g>
          <path class="cls-5" d="M13,92c-1.9-.7-3.7-1.8-5.2-3.1-3.4-3-5.4-7.4-5.2-12.1,0-4.7,2.4-9,6.1-11.9,1-.8,2.2-1.5,3.4-2,10.1,14.8.8,29.1.8,29.1h0Z"/>
          <path class="cls-2" d="M13,92c-1.9-.7-3.7-1.8-5.2-3.1.3-3.6.6-7.4.8-11.4.2-4.4.2-8.6.1-12.5,1-.8,2.2-1.5,3.4-2,.3,9.7.6,19.4.8,29.1h0Z"/>
        </g>
        <g>
          <path class="cls-4" d="M73.5,50.9c-2.9,0-5.5,1.2-7.7,3.8h0c-1,1.1-1.9,2.5-2.6,4.2-2.2,4.7-3.5,11.5-3.5,20.8s.8,13.7,2.1,21.7c3,19.1,8.5,39.5,11.8,39.5s9.1-20.8,11.9-40.1c1.2-7.8,1.9-15.3,1.9-21.1,0-20.1-6.2-28.8-13.8-28.8h-.1Z"/>
          <path class="cls-4" d="M134.2,77.8c0,13.9-4.8,27.6-16.6,33.6-11.1,6.7-30.4,6-45.1,6s-34,.6-45.1-6c-11.8-6-15.3-19.4-13.9-33-1.5-13.7,2.1-27,13.9-33,11.1-6.7,30.4-6,45.1-6s34-.6,45.1,6c11.8,6,16.9,18.1,16.6,32.4Z"/>
        </g>
        <path class="cls-7" d="M70.6,47.9c-2.9,0-5.5,1.2-7.7,3.8h0c-1,1.1-1.9,2.5-2.6,4.2h0c-2.2,4.7-3.5,11.5-3.5,20.8s.8,13.7,2.1,21.7c3,19.1,8.5,39.5,11.8,39.5s9.1-20.8,11.9-40.1c1.2-7.8,1.9-15.3,1.9-21.1,0-20.1-6.2-28.8-13.8-28.8h0ZM71,107c-.8,0-1.4-1.6-1.4-3.6s.6-3.6,1.4-3.6,1.4,1.6,1.4,3.6-.6,3.6-1.4,3.6ZM80.3,92c-2.2,2.4-6.4,2.4-9.8,2.4s-7.6,0-9.8-2.4-3.1-17-2.1-21.9,6.7-8.2,11.9-8.2,10.9,3.3,11.9,8.2,0,19.5-2.1,21.9Z"/>
        <path class="cls-7" d="M128.7,75.4c.3,14.3-2.1,27-13.9,33.1-11.1,6.7-30.4,6-45.1,6s-34,.6-45.1-6c-11.8-6-14-19-13.9-33,0-15.1,2.1-27,13.9-33,11.1-6.7,30.4-6,45.1-6s34-.6,45.1,6c11.8,6,13.6,17.9,13.9,33h0Z"/>
        <path class="cls-5" d="M115,75.8c0,16.9-10.4,30.7-23.3,30.7h-42.2c-12.9,0-23.3-13.7-23.3-30.7h0c0-16.9,10.4-30.7,23.3-30.7h42.2c12.9,0,23.3,13.7,23.3,30.7h0Z"/>
        <path class="cls-6" d="M78.9,86.4c0,4.7-3.8,8.5-8.5,8.5s-8.5-3.8-8.5-8.5h17Z"/>
        <g>
          <g>
            <g>
              <path class="cls-5" d="M56.6,24.7h-.3c-4.1-2.2-6.7-6.5-6.7-11.2s2.3-8.5,6.1-10.8c.4-.2.8,0,1,.3.2.4,0,.8-.3,1-3.4,2-5.4,5.6-5.4,9.5s2.3,7.9,5.9,9.8c.4.2.5.6.3,1,0,.2-.4.4-.7.4h.1Z"/>
              <path class="cls-3" d="M56.6,27.4c-.6,0-1.1-.1-1.6-.4-5-2.7-8.1-7.8-8.1-13.5s2.7-10.3,7.4-13c1.6-1,3.7-.4,4.6,1.1,1,1.6.5,3.7-1.1,4.6-2.6,1.6-4.1,4.3-4.1,7.3s1.7,6,4.5,7.5c1.6.9,2.3,2.9,1.4,4.5-.6,1.1-1.7,1.8-3,1.8h0ZM57.5,22.3h0Z"/>
            </g>
            <g>
              <path class="cls-5" d="M57.7,20.4c-.2,0-.4,0-.5-.2-2-1.8-3.1-4.1-3.1-6.5s1.1-4.8,3.2-6.6c.3-.3.8-.2,1.1,0,.3.3.2.8,0,1-1.7,1.5-2.7,3.4-2.7,5.4s.9,3.9,2.6,5.4c.3.3.3.7,0,1,0,.2-.3.2-.6.2v.3Z"/>
              <path class="cls-3" d="M57.7,23c-.8,0-1.6-.3-2.3-.9-2.6-2.3-4-5.3-4-8.4s1.4-6.2,4.1-8.5c1.4-1.2,3.5-1.1,4.7.3.6.7.9,1.5.8,2.4,0,.9-.5,1.7-1.1,2.3-1.2,1-1.8,2.2-1.8,3.5s.6,2.4,1.7,3.4c.7.6,1.1,1.4,1.1,2.3s-.3,1.8-.8,2.4c-.6.7-1.5,1.1-2.5,1.1h0ZM59,18.2h0Z"/>
            </g>
          </g>
          <g>
            <g>
              <path class="cls-5" d="M83.3,24.7h.3c4.1-2.2,6.7-6.5,6.7-11.2s-2.3-8.5-6.1-10.8c-.4-.2-.8,0-1,.3-.2.4,0,.8.3,1,3.4,2,5.4,5.6,5.4,9.5s-2.3,7.9-5.9,9.8c-.4.2-.5.6-.3,1,0,.2.4.4.7.4h0Z"/>
              <path class="cls-3" d="M83.3,27.4c-1.2,0-2.4-.7-3-1.8-.4-.8-.5-1.7-.3-2.6.3-.9.8-1.6,1.6-2,2.8-1.5,4.5-4.4,4.5-7.5s-1.5-5.7-4.1-7.3c-.8-.5-1.3-1.2-1.5-2.1s0-1.8.4-2.5C81.9,0,83.9-.5,85.5.5c4.6,2.8,7.4,7.7,7.4,13.1s-3.1,10.8-8.1,13.5c-.5.3-1,.4-1.6.4h0ZM82.4,22.3h0ZM84.8,1.7h0Z"/>
            </g>
            <g>
              <path class="cls-5" d="M82.1,20.4c.2,0,.4,0,.5-.2,2-1.8,3.1-4.1,3.1-6.5s-1.1-4.8-3.2-6.6c-.3-.3-.8-.2-1,0-.3.3-.2.8,0,1,1.7,1.5,2.7,3.4,2.7,5.4s-.9,3.9-2.6,5.4c-.3.3-.3.7,0,1,0,.2.3.2.6.2v.3h0Z"/>
              <path class="cls-3" d="M82.1,23c-1,0-1.9-.4-2.5-1.1-1.2-1.4-1.1-3.5.3-4.7,1.1-1,1.8-2.2,1.8-3.4s-.6-2.5-1.8-3.5c-.7-.6-1.1-1.4-1.1-2.3s.2-1.8.8-2.4c.6-.7,1.4-1.1,2.3-1.1s1.8.2,2.4.8c2.6,2.3,4.1,5.3,4.1,8.5s-1.4,6.2-4,8.5c-.6.5-1.4.9-2.2.9v-.2h-.1ZM80.9,18.2h0ZM83.3,6.3h0Z"/>
            </g>
          </g>
          <g>
            <path class="cls-5" d="M70.8,6.7h-.9c-3.6,0-6.5,2.9-6.5,6.5v.9c0,3.3,2.5,6,5.6,6.4l-1.8,15.4c0,1.8,1.4,3.2,3.2,3.2s3.2-1.4,3.2-3.2l-1.8-15.4c3.2-.4,5.6-3.1,5.6-6.4v-.9c0-3.6-2.9-6.5-6.5-6.5h0Z"/>
            <path class="cls-3" d="M70.3,41.8c-3.2,0-5.8-2.6-5.8-5.8v-.3l1.6-13.2c-3.2-1.4-5.4-4.7-5.4-8.3v-.9c0-5,4.1-9.1,9.1-9.1h.9c5,0,9.1,4.1,9.1,9.1v.9c0,3.7-2.2,6.9-5.4,8.3l1.6,13.5c0,3.2-2.6,5.8-5.8,5.8h.1ZM69.8,36.1c0,.3.3.5.6.5s.5-.2.6-.5l-.6-4.7-.6,4.7ZM69.9,9.3c-2.1,0-3.9,1.7-3.9,3.9v.9c0,1.9,1.5,3.6,3.4,3.9h1c0,.1,1,0,1,0,1.9-.3,3.4-1.9,3.4-3.9v-.9c0-2.1-1.7-3.9-3.9-3.9,0,0-1,0-1,0Z"/>
          </g>
          <g>
            <g>
              <path class="cls-5" d="M56.6,24.7h-.3c-4.1-2.2-6.7-6.5-6.7-11.2s2.3-8.5,6.1-10.8c.4-.2.8,0,1,.3.2.4,0,.8-.3,1-3.4,2-5.4,5.6-5.4,9.5s2.3,7.9,5.9,9.8c.4.2.5.6.3,1,0,.2-.4.4-.7.4h.1Z"/>
              <path class="cls-5" d="M57.7,20.4c-.2,0-.4,0-.5-.2-2-1.8-3.1-4.1-3.1-6.5s1.1-4.8,3.2-6.6c.3-.3.8-.2,1.1,0,.3.3.2.8,0,1-1.7,1.5-2.7,3.4-2.7,5.4s.9,3.9,2.6,5.4c.3.3.3.7,0,1,0,.2-.3.2-.6.2v.3Z"/>
            </g>
            <g>
              <path class="cls-5" d="M83.3,24.7h.3c4.1-2.2,6.7-6.5,6.7-11.2s-2.3-8.5-6.1-10.8c-.4-.2-.8,0-1,.3-.2.4,0,.8.3,1,3.4,2,5.4,5.6,5.4,9.5s-2.3,7.9-5.9,9.8c-.4.2-.5.6-.3,1,0,.2.4.4.7.4h0Z"/>
              <path class="cls-5" d="M82.1,20.4c.2,0,.4,0,.5-.2,2-1.8,3.1-4.1,3.1-6.5s-1.1-4.8-3.2-6.6c-.3-.3-.8-.2-1,0-.3.3-.2.8,0,1,1.7,1.5,2.7,3.4,2.7,5.4s-.9,3.9-2.6,5.4c-.3.3-.3.7,0,1,0,.2.3.2.6.2v.3h0Z"/>
            </g>
            <path class="cls-5" d="M73.5,36c0,1.8-1.4,3.2-3.2,3.2h0c-1.8,0-3.2-1.4-3.2-3.2l2-16.9c0-1.8-.6-3.2,1.2-3.2h0c1.8,0,1.2,1.4,1.2,3.2l2,16.9Z"/>
            <path class="cls-5" d="M69.9,6.7h.9c3.6,0,6.5,2.9,6.5,6.5v.9c0,3.6-2.9,6.5-6.5,6.5h-.9c-3.6,0-6.5-2.9-6.5-6.5v-.9c0-3.6,2.9-6.5,6.5-6.5Z"/>
          </g>
        </g>
        <path class="cls-6" d="M57.8,72.3c0,1.9-1.5,3.4-3.4,3.4h0c-1.9,0-3.4-1.5-3.4-3.4v-8.7c0-1.9,1.5-3.4,3.4-3.4h0c1.9,0,3.4,1.5,3.4,3.4v8.7Z"/>
        <path class="cls-6" d="M87.9,72.3c0,1.9-1.5,3.4-3.4,3.4h0c-1.9,0-3.4-1.5-3.4-3.4v-8.7c0-1.9,1.5-3.4,3.4-3.4h0c1.9,0,3.4,1.5,3.4,3.4v8.7Z"/>
        <g>
          <path class="cls-5" d="M135,67.8c-.3,3.6-.6,7.4-.8,11.4-.2,4.4-.2,8.6-.1,12.5,3.7-2.9,6-7.2,6.1-11.9.1-4.6-1.9-9-5.2-12.1h0Z"/>
          <path class="cls-2" d="M135,67.8c-.8-.7-1.1-1-2-1.6-.8-.5-5.2,12.5-.5,26.6,1.2-.5.6-.3,1.7-1.1,0-4,0-8.2.1-12.5.2-4,.4-7.8.8-11.4h-.1Z"/>
        </g>
      </g>
      <g>
        <g>
          <g>
            <path class="cls-6" d="M161.2,96.6c-3.7,0-7-1-10-3-1.5-1.3-1.6-2.7-.4-4.1,1.4-1.6,2.9-1.8,4.7-.5,2,1.1,4.1,1.8,5.9,1.8s3-.4,3.9-1c.9-.6,1.4-1.6,1.4-2.8s-.4-2-1.3-2.7c-.5-.4-1.6-1-3.4-1.8h-.4l-4.6-1.9c-4.6-1.9-6.8-4.9-6.8-9.1s1.1-5.1,3.3-7c2.2-1.9,4.9-2.8,8.4-2.8s6.1.9,8.6,2.7c1.3,1.1,1.4,2.3.3,3.7-1.3,1.5-2.5,1.6-4.1.6-1.5-.8-3-1.1-4.8-1.1s-2.7.4-3.5,1-1.3,1.5-1.3,2.5.5,1.9,1.5,2.7c.6.5,1.8,1,3.5,1.6h.4l4.4,1.9c2.2.9,3.8,2,4.9,3.4,1.3,1.5,1.9,3.4,1.9,5.8s-1.1,5.2-3.3,7.1c-2.3,2-5.3,3-9.1,3h-.3Z"/>
            <path class="cls-1" d="M161.2,96.6c-3.7,0-7-1-10-3-1.5-1.3-1.6-2.7-.4-4.1,1.4-1.6,2.9-1.8,4.7-.5,2,1.1,4.1,1.8,5.9,1.8s3-.4,3.9-1c.9-.6,1.4-1.6,1.4-2.8s-.4-2-1.3-2.7c-.5-.4-1.6-1-3.4-1.8h-.4l-4.6-1.9c-4.6-1.9-6.8-4.9-6.8-9.1s1.1-5.1,3.3-7c2.2-1.9,4.9-2.8,8.4-2.8s6.1.9,8.6,2.7c1.3,1.1,1.4,2.3.3,3.7-1.3,1.5-2.5,1.6-4.1.6-1.5-.8-3-1.1-4.8-1.1s-2.7.4-3.5,1-1.3,1.5-1.3,2.5.5,1.9,1.5,2.7c.6.5,1.8,1,3.5,1.6h.4l4.4,1.9c2.2.9,3.8,2,4.9,3.4,1.3,1.5,1.9,3.4,1.9,5.8s-1.1,5.2-3.3,7.1c-2.3,2-5.3,3-9.1,3h-.3Z"/>
          </g>
          <g>
            <path class="cls-5" d="M182.4,96c-2.2,0-3.3-1.1-3.3-3.3v-19.4c0-1.8,1-2.8,2.9-2.8s2.7.8,2.9,2.4v1h.4c1.3-1.3,2.4-2.3,3.4-2.9,1.4-.8,2.9-1.1,4.4-1.1,3.4,0,5.7,1.5,7,4.4,1.4-1.4,2.5-2.5,3.7-3.2,1.4-.9,2.9-1.3,4.4-1.3,2.7,0,4.7.9,5.9,2.8,1.3,1.8,1.9,4.2,1.9,7.5v12.5c0,2.2-1.1,3.3-3.3,3.3s-3.4-1.1-3.4-3.3v-11.8c0-1.9-.3-3.3-.9-4.2-.5-.8-1.4-1.1-2.7-1.1s-3,1-4.9,2.9v14.2c0,2.2-1.1,3.3-3.3,3.3s-3.4-1.1-3.4-3.3v-11.8c0-1.9-.3-3.3-.9-4.2-.5-.8-1.4-1.1-2.7-1.1s-3,1-4.9,2.9v14.2c0,2.2-1.1,3.3-3.3,3.3h0Z"/>
            <path class="cls-1" d="M182.4,96c-2.2,0-3.3-1.1-3.3-3.3v-19.4c0-1.8,1-2.8,2.9-2.8s2.7.8,2.9,2.4v1h.4c1.3-1.3,2.4-2.3,3.4-2.9,1.4-.8,2.9-1.1,4.4-1.1,3.4,0,5.7,1.5,7,4.4,1.4-1.4,2.5-2.5,3.7-3.2,1.4-.9,2.9-1.3,4.4-1.3,2.7,0,4.7.9,5.9,2.8,1.3,1.8,1.9,4.2,1.9,7.5v12.5c0,2.2-1.1,3.3-3.3,3.3s-3.4-1.1-3.4-3.3v-11.8c0-1.9-.3-3.3-.9-4.2-.5-.8-1.4-1.1-2.7-1.1s-3,1-4.9,2.9v14.2c0,2.2-1.1,3.3-3.3,3.3s-3.4-1.1-3.4-3.3v-11.8c0-1.9-.3-3.3-.9-4.2-.5-.8-1.4-1.1-2.7-1.1s-3,1-4.9,2.9v14.2c0,2.2-1.1,3.3-3.3,3.3h0Z"/>
          </g>
          <g>
            <path class="cls-5" d="M229.2,96.6c-2.3,0-4.1-.8-5.4-2.2s-2.2-3.3-2.2-5.4,1.1-4.8,3.4-6.3,6.1-2.5,11.1-3c0-2.9-1.5-4.4-4.3-4.4s-2.9.4-4.6,1.1-2.8.5-3.7-1c-.8-1.4-.5-2.5.9-3.3,2.9-1.5,5.7-2.3,8.6-2.3s5.7.9,7.3,2.8c1.6,1.9,2.5,4.7,2.5,8.4v12.2c0,1.8-1,2.8-2.9,2.8s-2.7-.8-3-2.4v-.4h-.1c-2.7,2.3-5.2,3.4-7.7,3.4h0ZM231.3,91.4c1.6,0,3.3-.9,4.9-2.5v-5.2c-2.9.4-5.1,1-6.5,1.8-1.3.8-1.8,1.8-1.8,2.9,0,1.9,1.1,2.9,3.4,2.9h-.1Z"/>
            <path class="cls-1" d="M229.2,96.6c-2.3,0-4.1-.8-5.4-2.2s-2.2-3.3-2.2-5.4,1.1-4.8,3.4-6.3,6.1-2.5,11.1-3c0-2.9-1.5-4.4-4.3-4.4s-2.9.4-4.6,1.1-2.8.5-3.7-1c-.8-1.4-.5-2.5.9-3.3,2.9-1.5,5.7-2.3,8.6-2.3s5.7.9,7.3,2.8c1.6,1.9,2.5,4.7,2.5,8.4v12.2c0,1.8-1,2.8-2.9,2.8s-2.7-.8-3-2.4v-.4h-.1c-2.7,2.3-5.2,3.4-7.7,3.4h0ZM231.3,91.4c1.6,0,3.3-.9,4.9-2.5v-5.2c-2.9.4-5.1,1-6.5,1.8-1.3.8-1.8,1.8-1.8,2.9,0,1.9,1.1,2.9,3.4,2.9h-.1Z"/>
          </g>
          <g>
            <path class="cls-5" d="M253.1,96c-2.2,0-3.3-1.1-3.3-3.3v-19.4c0-1.8.9-2.8,2.8-2.8s2.8.9,2.9,2.5v2h.4c.9-1.6,2-2.9,3.3-3.8s2.5-1.3,3.9-1.3h.6c.8,0,1.4.6,1.6,1.3s.4,1.4.1,2.3c-.4,1.9-1.5,2.8-3.2,2.4h0c-1.1,0-2.2.4-3.2,1.1-1.1.9-2,2.2-2.8,3.9v11.9c0,2.2-1.1,3.3-3.3,3.3v-.3h0Z"/>
            <path class="cls-1" d="M253.1,96c-2.2,0-3.3-1.1-3.3-3.3v-19.4c0-1.8.9-2.8,2.8-2.8s2.8.9,2.9,2.5v2h.4c.9-1.6,2-2.9,3.3-3.8s2.5-1.3,3.9-1.3h.6c.8,0,1.4.6,1.6,1.3s.4,1.4.1,2.3c-.4,1.9-1.5,2.8-3.2,2.4h0c-1.1,0-2.2.4-3.2,1.1-1.1.9-2,2.2-2.8,3.9v11.9c0,2.2-1.1,3.3-3.3,3.3v-.3h0Z"/>
          </g>
          <g>
            <path class="cls-5" d="M278.9,96.6c-5.6,0-8.4-3.2-8.4-9.5v-11.3h-1.1c-1.6,0-2.4-.9-2.4-2.5s.8-2.5,2.3-2.5h1.6l.5-4.4c.1-1.8,1.1-2.5,2.9-2.5s2.9.9,2.9,2.8v4.1h3.7c1.8,0,2.7.9,2.7,2.7s-.9,2.7-2.7,2.7h-3.7v11.3c0,2.9,1.1,4.3,3.4,4.3h0c1.5-.4,2.5.3,2.9,1.9.4,1.5-.1,2.5-1.5,2.9-1.1.3-2.3.4-3.4.4h.3Z"/>
            <path class="cls-1" d="M278.9,96.6c-5.6,0-8.4-3.2-8.4-9.5v-11.3h-1.1c-1.6,0-2.4-.9-2.4-2.5s.8-2.5,2.3-2.5h1.6l.5-4.4c.1-1.8,1.1-2.5,2.9-2.5s2.9.9,2.9,2.8v4.1h3.7c1.8,0,2.7.9,2.7,2.7s-.9,2.7-2.7,2.7h-3.7v11.3c0,2.9,1.1,4.3,3.4,4.3h0c1.5-.4,2.5.3,2.9,1.9.4,1.5-.1,2.5-1.5,2.9-1.1.3-2.3.4-3.4.4h.3Z"/>
          </g>
          <g>
            <path class="cls-6" d="M298.4,96c-2.3,0-3.4-1.1-3.4-3.4v-24.7h-6.7c-1.9,0-2.8-.9-2.8-2.8s.9-2.8,2.8-2.8h20.3c1.9,0,2.8.9,2.8,2.8s-.9,2.8-2.8,2.8h-6.8v24.7c0,2.3-1.1,3.4-3.4,3.4h.1Z"/>
            <path class="cls-1" d="M298.4,96c-2.3,0-3.4-1.1-3.4-3.4v-24.7h-6.7c-1.9,0-2.8-.9-2.8-2.8s.9-2.8,2.8-2.8h20.3c1.9,0,2.8.9,2.8,2.8s-.9,2.8-2.8,2.8h-6.8v24.7c0,2.3-1.1,3.4-3.4,3.4h.1Z"/>
          </g>
          <g>
            <path class="cls-5" d="M319.2,96.6c-2.3,0-4.1-.8-5.4-2.2-1.4-1.4-2.2-3.3-2.2-5.4s1.1-4.8,3.4-6.3,6.1-2.5,11.1-3c0-2.9-1.5-4.4-4.3-4.4s-2.9.4-4.6,1.1c-1.6.8-2.8.5-3.7-1-.8-1.4-.5-2.5.9-3.3,2.9-1.5,5.7-2.3,8.6-2.3s5.7.9,7.3,2.8,2.5,4.7,2.5,8.4v12.2c0,1.8-1,2.8-2.9,2.8s-2.7-.8-3-2.4v-.4h-.1c-2.7,2.3-5.2,3.4-7.7,3.4h0ZM321.3,91.4c1.6,0,3.3-.9,4.9-2.5v-5.2c-2.9.4-5.1,1-6.5,1.8-1.3.8-1.8,1.8-1.8,2.9,0,1.9,1.1,2.9,3.4,2.9h-.1Z"/>
            <path class="cls-1" d="M319.2,96.6c-2.3,0-4.1-.8-5.4-2.2-1.4-1.4-2.2-3.3-2.2-5.4s1.1-4.8,3.4-6.3,6.1-2.5,11.1-3c0-2.9-1.5-4.4-4.3-4.4s-2.9.4-4.6,1.1c-1.6.8-2.8.5-3.7-1-.8-1.4-.5-2.5.9-3.3,2.9-1.5,5.7-2.3,8.6-2.3s5.7.9,7.3,2.8,2.5,4.7,2.5,8.4v12.2c0,1.8-1,2.8-2.9,2.8s-2.7-.8-3-2.4v-.4h-.1c-2.7,2.3-5.2,3.4-7.7,3.4h0ZM321.3,91.4c1.6,0,3.3-.9,4.9-2.5v-5.2c-2.9.4-5.1,1-6.5,1.8-1.3.8-1.8,1.8-1.8,2.9,0,1.9,1.1,2.9,3.4,2.9h-.1Z"/>
          </g>
          <g>
            <path class="cls-5" d="M346,96.6c-4.2,0-6.3-2.5-6.3-7.7v-25.8c0-2.2,1.1-3.3,3.3-3.3s3.3,1.1,3.3,3.3v26.2c0,1.4.5,2,1.4,2h0c.3,0,.5,0,.6.4.1.3.3.5.4.9.1.9.1,1.6,0,2.4-.3.9-.6,1.5-1.3,1.6h-1.6.3,0Z"/>
            <path class="cls-1" d="M346,96.6c-4.2,0-6.3-2.5-6.3-7.7v-25.8c0-2.2,1.1-3.3,3.3-3.3s3.3,1.1,3.3,3.3v26.2c0,1.4.5,2,1.4,2h0c.3,0,.5,0,.6.4.1.3.3.5.4.9.1.9.1,1.6,0,2.4-.3.9-.6,1.5-1.3,1.6h-1.6.3,0Z"/>
          </g>
          <g>
            <path class="cls-5" d="M357.4,96c-2.2,0-3.3-1-3.3-3.3v-29.9c0-2.2,1.1-3.3,3.3-3.3s3.3,1,3.3,3.3v18.6h.1l7.7-9.6c.8-.9,1.8-1.4,2.9-1.4h3.8c.5,0,.9,0,.9.4s0,.5-.4.9l-7.7,9.1,7.5,11.8c.6,1,.9,1.8.5,2.4-.4.6-1.1.9-2.3.9h-1.3c-.6,0-1.1,0-1.8-.5-.5-.4-1-.8-1.4-1.3l-5.2-8.7-3.7,4.2v3.2c0,2.2-1.1,3.3-3.3,3.3h.3,0Z"/>
            <path class="cls-1" d="M357.4,96c-2.2,0-3.3-1-3.3-3.3v-29.9c0-2.2,1.1-3.3,3.3-3.3s3.3,1,3.3,3.3v18.6h.1l7.7-9.6c.8-.9,1.8-1.4,2.9-1.4h3.8c.5,0,.9,0,.9.4s0,.5-.4.9l-7.7,9.1,7.5,11.8c.6,1,.9,1.8.5,2.4-.4.6-1.1.9-2.3.9h-1.3c-.6,0-1.1,0-1.8-.5-.5-.4-1-.8-1.4-1.3l-5.2-8.7-3.7,4.2v3.2c0,2.2-1.1,3.3-3.3,3.3h.3,0Z"/>
          </g>
          <g>
            <path class="cls-5" d="M385,66.4c-1.1,0-2.2-.4-2.9-1-.8-.6-1.1-1.5-1.1-2.7s.4-2,1.1-2.7,1.8-1,2.9-1,2.2.4,2.8,1c.8.6,1.1,1.5,1.1,2.7s-.4,1.9-1.1,2.7-1.6,1-2.8,1ZM385,96c-2.2,0-3.3-1.1-3.3-3.3v-18.9c0-2.2,1.1-3.3,3.3-3.3s3.3,1.1,3.3,3.3v18.9c0,2.2-1.1,3.3-3.3,3.3Z"/>
            <path class="cls-1" d="M385,66.4c-1.1,0-2.2-.4-2.9-1-.8-.6-1.1-1.5-1.1-2.7s.4-2,1.1-2.7,1.8-1,2.9-1,2.2.4,2.8,1c.8.6,1.1,1.5,1.1,2.7s-.4,1.9-1.1,2.7-1.6,1-2.8,1ZM385,96c-2.2,0-3.3-1.1-3.3-3.3v-18.9c0-2.2,1.1-3.3,3.3-3.3s3.3,1.1,3.3,3.3v18.9c0,2.2-1.1,3.3-3.3,3.3Z"/>
          </g>
          <g>
            <path class="cls-5" d="M398.8,96c-2.2,0-3.3-1.1-3.3-3.3v-19.4c0-1.8,1-2.8,2.9-2.8s2.7.8,2.9,2.4v.9h.4c2.8-2.7,5.4-4.1,8.2-4.1,5.2,0,7.8,3.4,7.8,10.3v12.5c0,2.2-1.1,3.3-3.3,3.3s-3.4-1.1-3.4-3.3v-11.8c0-1.9-.3-3.3-.9-4.2-.5-.8-1.5-1.3-2.8-1.3s-1.9.3-2.8.8c-.6.4-1.5,1.1-2.5,2.2v14.2c0,2.2-1.1,3.3-3.3,3.3v.3h0Z"/>
            <path class="cls-1" d="M398.8,96c-2.2,0-3.3-1.1-3.3-3.3v-19.4c0-1.8,1-2.8,2.9-2.8s2.7.8,2.9,2.4v.9h.4c2.8-2.7,5.4-4.1,8.2-4.1,5.2,0,7.8,3.4,7.8,10.3v12.5c0,2.2-1.1,3.3-3.3,3.3s-3.4-1.1-3.4-3.3v-11.8c0-1.9-.3-3.3-.9-4.2-.5-.8-1.5-1.3-2.8-1.3s-1.9.3-2.8.8c-.6.4-1.5,1.1-2.5,2.2v14.2c0,2.2-1.1,3.3-3.3,3.3v.3h0Z"/>
          </g>
          <g>
            <path class="cls-5" d="M433.6,107c-3.2,0-5.7-.5-7.6-1.6-2-1.1-3-2.8-3-4.9s1.3-3.9,3.7-5.3v-.3c-1.5-1-2.3-2.4-2.3-4.3s.3-1.8.9-2.7c.5-.8,1.1-1.5,1.9-2.2h0c-.9-.9-1.8-1.8-2.3-2.9-.8-1.3-1-2.5-1-3.9,0-2.9,1-5.2,3-6.8,1.9-1.5,4.3-2.4,7.2-2.4s2.7.3,3.8.6h6.7c1.6,0,2.4.8,2.4,2.4s-.8,2.4-2.4,2.4h-1.9c.8,1,1.1,2.3,1.1,3.9,0,2.8-1,4.9-2.9,6.5-1.8,1.5-4.1,2.2-7,2.2s-2.2-.3-3.3-.6c-.8.6-1.1,1.3-1.1,2.2s.3,1.3.9,1.5c.6.4,1.6.5,3.2.5h4.3c6.3,0,9.5,2.2,9.5,6.3s-1.3,4.8-3.7,6.5c-2.5,1.8-5.9,2.5-10.1,2.5v.5h0ZM434.6,102.8c1.9,0,3.4-.4,4.7-1.1,1.1-.8,1.8-1.5,1.8-2.7s-.4-1.5-1.1-1.8c-.6-.3-1.6-.5-3.2-.5h-3c-1.4,0-2.5,0-3.5-.4-1.1.9-1.6,1.9-1.6,2.9s.5,1.9,1.6,2.5,2.5.9,4.4.9h0ZM434,83.8c1.1,0,2.2-.4,2.8-1.3.8-.9,1.1-2,1.1-3.4s-.4-2.7-1.1-3.4-1.6-1.3-2.8-1.3-2.2.4-2.9,1.3c-.8.9-1.1,2-1.1,3.4s.4,2.7,1.1,3.4,1.6,1.3,2.8,1.3h.1Z"/>
            <path class="cls-1" d="M433.6,107c-3.2,0-5.7-.5-7.6-1.6-2-1.1-3-2.8-3-4.9s1.3-3.9,3.7-5.3v-.3c-1.5-1-2.3-2.4-2.3-4.3s.3-1.8.9-2.7c.5-.8,1.1-1.5,1.9-2.2h0c-.9-.9-1.8-1.8-2.3-2.9-.8-1.3-1-2.5-1-3.9,0-2.9,1-5.2,3-6.8,1.9-1.5,4.3-2.4,7.2-2.4s2.7.3,3.8.6h6.7c1.6,0,2.4.8,2.4,2.4s-.8,2.4-2.4,2.4h-1.9c.8,1,1.1,2.3,1.1,3.9,0,2.8-1,4.9-2.9,6.5-1.8,1.5-4.1,2.2-7,2.2s-2.2-.3-3.3-.6c-.8.6-1.1,1.3-1.1,2.2s.3,1.3.9,1.5c.6.4,1.6.5,3.2.5h4.3c6.3,0,9.5,2.2,9.5,6.3s-1.3,4.8-3.7,6.5c-2.5,1.8-5.9,2.5-10.1,2.5v.5h0ZM434.6,102.8c1.9,0,3.4-.4,4.7-1.1,1.1-.8,1.8-1.5,1.8-2.7s-.4-1.5-1.1-1.8c-.6-.3-1.6-.5-3.2-.5h-3c-1.4,0-2.5,0-3.5-.4-1.1.9-1.6,1.9-1.6,2.9s.5,1.9,1.6,2.5,2.5.9,4.4.9h0ZM434,83.8c1.1,0,2.2-.4,2.8-1.3.8-.9,1.1-2,1.1-3.4s-.4-2.7-1.1-3.4-1.6-1.3-2.8-1.3-2.2.4-2.9,1.3c-.8.9-1.1,2-1.1,3.4s.4,2.7,1.1,3.4,1.6,1.3,2.8,1.3h.1Z"/>
          </g>
          <g>
            <path class="cls-5" d="M452.7,85.4c-1.5,0-2.4-.8-2.4-2.4s.8-2.4,2.4-2.4h7.7c1.5,0,2.4.8,2.4,2.4s-.8,2.4-2.4,2.4h-7.7Z"/>
            <path class="cls-1" d="M452.7,85.4c-1.5,0-2.4-.8-2.4-2.4s.8-2.4,2.4-2.4h7.7c1.5,0,2.4.8,2.4,2.4s-.8,2.4-2.4,2.4h-7.7Z"/>
          </g>
          <g>
            <path class="cls-6" d="M472.2,96c-2,0-3-1-3-3v-27.7c0-.9.3-1.6.8-2.2s1.3-.8,2.2-.8h2.2c.8,0,1.4.3,1.9.6.6.4,1,.9,1.1,1.6l4.9,13.5c.4,1,.8,2.4,1.4,4.4.3.9.5,1.6.6,2h.3c.3-.6.5-1.6,1-3,.5-1.5.8-2.8,1.1-3.5l4.8-13.5c.3-.6.6-1.1,1.1-1.6.6-.4,1.3-.6,1.9-.6h3.4c.5,0,.9,0,1.3.5s.5.8.5,1.3v28.9c0,2-1,3-3,3s-3-1-3-3v-11c0-1.9.3-5.3.8-10.3v-.8h-.1l-2.8,8-4.6,12.3c-.3.5-.5,1-1,1.3-.5.4-1,.5-1.6.5h-.1c-1.1,0-2-.5-2.4-1.6l-4.6-12.4-2.7-8h-.1c0,.4,0,.9.1,1.6.5,4.6.6,7.7.6,9.5v11c0,2-1,3-3,3h.1Z"/>
            <path class="cls-1" d="M472.2,96c-2,0-3-1-3-3v-27.7c0-.9.3-1.6.8-2.2s1.3-.8,2.2-.8h2.2c.8,0,1.4.3,1.9.6.6.4,1,.9,1.1,1.6l4.9,13.5c.4,1,.8,2.4,1.4,4.4.3.9.5,1.6.6,2h.3c.3-.6.5-1.6,1-3,.5-1.5.8-2.8,1.1-3.5l4.8-13.5c.3-.6.6-1.1,1.1-1.6.6-.4,1.3-.6,1.9-.6h3.4c.5,0,.9,0,1.3.5s.5.8.5,1.3v28.9c0,2-1,3-3,3s-3-1-3-3v-11c0-1.9.3-5.3.8-10.3v-.8h-.1l-2.8,8-4.6,12.3c-.3.5-.5,1-1,1.3-.5.4-1,.5-1.6.5h-.1c-1.1,0-2-.5-2.4-1.6l-4.6-12.4-2.7-8h-.1c0,.4,0,.9.1,1.6.5,4.6.6,7.7.6,9.5v11c0,2-1,3-3,3h.1Z"/>
          </g>
          <g>
            <path class="cls-5" d="M513.7,96.6c-2.3,0-4.1-.8-5.4-2.2-1.4-1.4-2.2-3.3-2.2-5.4s1.1-4.8,3.4-6.3,6.1-2.5,11.1-3c0-2.9-1.5-4.4-4.3-4.4s-2.9.4-4.6,1.1c-1.6.8-2.8.5-3.7-1-.8-1.4-.5-2.5.9-3.3,2.9-1.5,5.7-2.3,8.6-2.3s5.7.9,7.3,2.8,2.5,4.7,2.5,8.4v12.2c0,1.8-1,2.8-2.9,2.8s-2.7-.8-3-2.4v-.4h-.1c-2.7,2.3-5.2,3.4-7.7,3.4h0ZM515.9,91.4c1.6,0,3.3-.9,4.9-2.5v-5.2c-2.9.4-5.1,1-6.5,1.8-1.3.8-1.8,1.8-1.8,2.9,0,1.9,1.1,2.9,3.4,2.9h-.1Z"/>
            <path class="cls-1" d="M513.7,96.6c-2.3,0-4.1-.8-5.4-2.2-1.4-1.4-2.2-3.3-2.2-5.4s1.1-4.8,3.4-6.3,6.1-2.5,11.1-3c0-2.9-1.5-4.4-4.3-4.4s-2.9.4-4.6,1.1c-1.6.8-2.8.5-3.7-1-.8-1.4-.5-2.5.9-3.3,2.9-1.5,5.7-2.3,8.6-2.3s5.7.9,7.3,2.8,2.5,4.7,2.5,8.4v12.2c0,1.8-1,2.8-2.9,2.8s-2.7-.8-3-2.4v-.4h-.1c-2.7,2.3-5.2,3.4-7.7,3.4h0ZM515.9,91.4c1.6,0,3.3-.9,4.9-2.5v-5.2c-2.9.4-5.1,1-6.5,1.8-1.3.8-1.8,1.8-1.8,2.9,0,1.9,1.1,2.9,3.4,2.9h-.1Z"/>
          </g>
          <g>
            <path class="cls-5" d="M537.7,96c-2.2,0-3.3-1.1-3.3-3.3v-19.4c0-1.8,1-2.8,2.9-2.8s2.7.8,2.9,2.4v.9h.4c2.8-2.7,5.4-4.1,8.2-4.1,5.2,0,7.8,3.4,7.8,10.3v12.5c0,2.2-1.1,3.3-3.3,3.3s-3.4-1.1-3.4-3.3v-11.8c0-1.9-.3-3.3-.9-4.2-.5-.8-1.5-1.3-2.8-1.3s-1.9.3-2.8.8c-.6.4-1.5,1.1-2.5,2.2v14.2c0,2.2-1.1,3.3-3.3,3.3v.3h0Z"/>
            <path class="cls-1" d="M537.7,96c-2.2,0-3.3-1.1-3.3-3.3v-19.4c0-1.8,1-2.8,2.9-2.8s2.7.8,2.9,2.4v.9h.4c2.8-2.7,5.4-4.1,8.2-4.1,5.2,0,7.8,3.4,7.8,10.3v12.5c0,2.2-1.1,3.3-3.3,3.3s-3.4-1.1-3.4-3.3v-11.8c0-1.9-.3-3.3-.9-4.2-.5-.8-1.5-1.3-2.8-1.3s-1.9.3-2.8.8c-.6.4-1.5,1.1-2.5,2.2v14.2c0,2.2-1.1,3.3-3.3,3.3v.3h0Z"/>
          </g>
          <g>
            <path class="cls-5" d="M572.5,96.6c-3.2,0-5.7-1.1-7.6-3.5s-2.8-5.6-2.8-9.7,1.1-7.3,3.3-9.9c2-2.4,4.6-3.5,7.5-3.5s2.5.3,3.7.8c.9.4,1.8,1,2.8,2l-.3-4.1v-5.7c0-2.2,1.1-3.3,3.4-3.3s3.3,1.1,3.3,3.3v30.3c0,.9-.3,1.5-.8,2s-1.3.6-2.2.6c-1.6,0-2.7-.8-2.9-2.3v-.4h-.3c-2.3,2.2-4.6,3.3-7.1,3.3h-.1ZM574.2,91c1.8,0,3.4-.9,4.7-2.7v-11.1c-1.4-1.3-2.9-1.9-4.7-1.9s-2.8.6-3.7,2c-1,1.4-1.5,3.4-1.5,5.8s.5,4.6,1.4,5.9,2.2,2,3.9,2h-.1Z"/>
            <path class="cls-1" d="M572.5,96.6c-3.2,0-5.7-1.1-7.6-3.5s-2.8-5.6-2.8-9.7,1.1-7.3,3.3-9.9c2-2.4,4.6-3.5,7.5-3.5s2.5.3,3.7.8c.9.4,1.8,1,2.8,2l-.3-4.1v-5.7c0-2.2,1.1-3.3,3.4-3.3s3.3,1.1,3.3,3.3v30.3c0,.9-.3,1.5-.8,2s-1.3.6-2.2.6c-1.6,0-2.7-.8-2.9-2.3v-.4h-.3c-2.3,2.2-4.6,3.3-7.1,3.3h-.1ZM574.2,91c1.8,0,3.4-.9,4.7-2.7v-11.1c-1.4-1.3-2.9-1.9-4.7-1.9s-2.8.6-3.7,2c-1,1.4-1.5,3.4-1.5,5.8s.5,4.6,1.4,5.9,2.2,2,3.9,2h-.1Z"/>
          </g>
          <g>
            <path class="cls-5" d="M599.1,96.6c-2.3,0-4.1-.8-5.4-2.2-1.4-1.4-2.2-3.3-2.2-5.4s1.1-4.8,3.4-6.3c2.3-1.5,6.1-2.5,11.1-3,0-2.9-1.5-4.4-4.3-4.4s-2.9.4-4.6,1.1-2.8.5-3.7-1c-.8-1.4-.5-2.5.9-3.3,2.9-1.5,5.7-2.3,8.6-2.3s5.7.9,7.3,2.8,2.5,4.7,2.5,8.4v12.2c0,1.8-1,2.8-2.9,2.8s-2.7-.8-3-2.4v-.4h0c-2.7,2.3-5.2,3.4-7.7,3.4h-.1ZM601.3,91.4c1.6,0,3.3-.9,4.9-2.5v-5.2c-2.9.4-5.1,1-6.5,1.8-1.3.8-1.8,1.8-1.8,2.9,0,1.9,1.1,2.9,3.4,2.9h-.1Z"/>
            <path class="cls-1" d="M599.1,96.6c-2.3,0-4.1-.8-5.4-2.2-1.4-1.4-2.2-3.3-2.2-5.4s1.1-4.8,3.4-6.3c2.3-1.5,6.1-2.5,11.1-3,0-2.9-1.5-4.4-4.3-4.4s-2.9.4-4.6,1.1-2.8.5-3.7-1c-.8-1.4-.5-2.5.9-3.3,2.9-1.5,5.7-2.3,8.6-2.3s5.7.9,7.3,2.8,2.5,4.7,2.5,8.4v12.2c0,1.8-1,2.8-2.9,2.8s-2.7-.8-3-2.4v-.4h0c-2.7,2.3-5.2,3.4-7.7,3.4h-.1ZM601.3,91.4c1.6,0,3.3-.9,4.9-2.5v-5.2c-2.9.4-5.1,1-6.5,1.8-1.3.8-1.8,1.8-1.8,2.9,0,1.9,1.1,2.9,3.4,2.9h-.1Z"/>
          </g>
          <g>
            <path class="cls-5" d="M623.1,96c-2.2,0-3.3-1.1-3.3-3.3v-19.4c0-1.8.9-2.8,2.8-2.8s2.8.9,2.9,2.5v2h.4c.9-1.6,2-2.9,3.3-3.8s2.5-1.3,3.9-1.3h.6c.8,0,1.4.6,1.6,1.3s.4,1.4,0,2.3c-.4,1.9-1.5,2.8-3.2,2.4h0c-1.1,0-2.2.4-3.2,1.1-1.1.9-2,2.2-2.8,3.9v11.9c0,2.2-1.1,3.3-3.3,3.3v-.3h.1Z"/>
            <path class="cls-1" d="M623.1,96c-2.2,0-3.3-1.1-3.3-3.3v-19.4c0-1.8.9-2.8,2.8-2.8s2.8.9,2.9,2.5v2h.4c.9-1.6,2-2.9,3.3-3.8s2.5-1.3,3.9-1.3h.6c.8,0,1.4.6,1.6,1.3s.4,1.4,0,2.3c-.4,1.9-1.5,2.8-3.2,2.4h0c-1.1,0-2.2.4-3.2,1.1-1.1.9-2,2.2-2.8,3.9v11.9c0,2.2-1.1,3.3-3.3,3.3v-.3h.1Z"/>
          </g>
          <g>
            <path class="cls-5" d="M643,66.4c-1.1,0-2.2-.4-2.9-1s-1.1-1.5-1.1-2.7.4-2,1.1-2.7c.8-.6,1.8-1,2.9-1s2.2.4,2.8,1c.8.6,1.1,1.5,1.1,2.7s-.4,1.9-1.1,2.7c-.8.8-1.6,1-2.8,1ZM642.8,96c-2.2,0-3.3-1.1-3.3-3.3v-18.9c0-2.2,1.1-3.3,3.3-3.3s3.3,1.1,3.3,3.3v18.9c0,2.2-1.1,3.3-3.3,3.3Z"/>
            <path class="cls-1" d="M643,66.4c-1.1,0-2.2-.4-2.9-1s-1.1-1.5-1.1-2.7.4-2,1.1-2.7c.8-.6,1.8-1,2.9-1s2.2.4,2.8,1c.8.6,1.1,1.5,1.1,2.7s-.4,1.9-1.1,2.7c-.8.8-1.6,1-2.8,1ZM642.8,96c-2.2,0-3.3-1.1-3.3-3.3v-18.9c0-2.2,1.1-3.3,3.3-3.3s3.3,1.1,3.3,3.3v18.9c0,2.2-1.1,3.3-3.3,3.3Z"/>
          </g>
          <g>
            <path class="cls-5" d="M656.6,96c-2.2,0-3.3-1.1-3.3-3.3v-19.4c0-1.8,1-2.8,2.9-2.8s2.7.8,2.9,2.4v.9h.4c2.8-2.7,5.4-4.1,8.2-4.1,5.2,0,7.8,3.4,7.8,10.3v12.5c0,2.2-1.1,3.3-3.3,3.3s-3.4-1.1-3.4-3.3v-11.8c0-1.9-.3-3.3-.9-4.2-.5-.8-1.5-1.3-2.8-1.3s-1.9.3-2.8.8c-.6.4-1.5,1.1-2.5,2.2v14.2c0,2.2-1.1,3.3-3.3,3.3v.3h0Z"/>
            <path class="cls-1" d="M656.6,96c-2.2,0-3.3-1.1-3.3-3.3v-19.4c0-1.8,1-2.8,2.9-2.8s2.7.8,2.9,2.4v.9h.4c2.8-2.7,5.4-4.1,8.2-4.1,5.2,0,7.8,3.4,7.8,10.3v12.5c0,2.2-1.1,3.3-3.3,3.3s-3.4-1.1-3.4-3.3v-11.8c0-1.9-.3-3.3-.9-4.2-.5-.8-1.5-1.3-2.8-1.3s-1.9.3-2.8.8c-.6.4-1.5,1.1-2.5,2.2v14.2c0,2.2-1.1,3.3-3.3,3.3v.3h0Z"/>
          </g>
        </g>
        <g>
          <path class="cls-6" d="M161.2,96.6c-3.7,0-7-1-10-3-1.5-1.3-1.6-2.7-.4-4.1,1.4-1.6,2.9-1.8,4.7-.5,2,1.1,4.1,1.8,5.9,1.8s3-.4,3.9-1c.9-.6,1.4-1.6,1.4-2.8s-.4-2-1.3-2.7c-.5-.4-1.6-1-3.4-1.8h-.4l-4.6-1.9c-4.6-1.9-6.8-4.9-6.8-9.1s1.1-5.1,3.3-7c2.2-1.9,4.9-2.8,8.4-2.8s6.1.9,8.6,2.7c1.3,1.1,1.4,2.3.3,3.7-1.3,1.5-2.5,1.6-4.1.6-1.5-.8-3-1.1-4.8-1.1s-2.7.4-3.5,1-1.3,1.5-1.3,2.5.5,1.9,1.5,2.7c.6.5,1.8,1,3.5,1.6h.4l4.4,1.9c2.2.9,3.8,2,4.9,3.4,1.3,1.5,1.9,3.4,1.9,5.8s-1.1,5.2-3.3,7.1c-2.3,2-5.3,3-9.1,3h-.3Z"/>
          <path class="cls-5" d="M182.4,96c-2.2,0-3.3-1.1-3.3-3.3v-19.4c0-1.8,1-2.8,2.9-2.8s2.7.8,2.9,2.4v1h.4c1.3-1.3,2.4-2.3,3.4-2.9,1.4-.8,2.9-1.1,4.4-1.1,3.4,0,5.7,1.5,7,4.4,1.4-1.4,2.5-2.5,3.7-3.2,1.4-.9,2.9-1.3,4.4-1.3,2.7,0,4.7.9,5.9,2.8,1.3,1.8,1.9,4.2,1.9,7.5v12.5c0,2.2-1.1,3.3-3.3,3.3s-3.4-1.1-3.4-3.3v-11.8c0-1.9-.3-3.3-.9-4.2-.5-.8-1.4-1.1-2.7-1.1s-3,1-4.9,2.9v14.2c0,2.2-1.1,3.3-3.3,3.3s-3.4-1.1-3.4-3.3v-11.8c0-1.9-.3-3.3-.9-4.2-.5-.8-1.4-1.1-2.7-1.1s-3,1-4.9,2.9v14.2c0,2.2-1.1,3.3-3.3,3.3h0Z"/>
          <path class="cls-5" d="M229.2,96.6c-2.3,0-4.1-.8-5.4-2.2s-2.2-3.3-2.2-5.4,1.1-4.8,3.4-6.3,6.1-2.5,11.1-3c0-2.9-1.5-4.4-4.3-4.4s-2.9.4-4.6,1.1-2.8.5-3.7-1c-.8-1.4-.5-2.5.9-3.3,2.9-1.5,5.7-2.3,8.6-2.3s5.7.9,7.3,2.8c1.6,1.9,2.5,4.7,2.5,8.4v12.2c0,1.8-1,2.8-2.9,2.8s-2.7-.8-3-2.4v-.4h-.1c-2.7,2.3-5.2,3.4-7.7,3.4h0ZM231.3,91.4c1.6,0,3.3-.9,4.9-2.5v-5.2c-2.9.4-5.1,1-6.5,1.8-1.3.8-1.8,1.8-1.8,2.9,0,1.9,1.1,2.9,3.4,2.9h-.1Z"/>
          <path class="cls-5" d="M253.1,96c-2.2,0-3.3-1.1-3.3-3.3v-19.4c0-1.8.9-2.8,2.8-2.8s2.8.9,2.9,2.5v2h.4c.9-1.6,2-2.9,3.3-3.8s2.5-1.3,3.9-1.3h.6c.8,0,1.4.6,1.6,1.3s.4,1.4.1,2.3c-.4,1.9-1.5,2.8-3.2,2.4h0c-1.1,0-2.2.4-3.2,1.1-1.1.9-2,2.2-2.8,3.9v11.9c0,2.2-1.1,3.3-3.3,3.3v-.3h0Z"/>
          <path class="cls-5" d="M278.9,96.6c-5.6,0-8.4-3.2-8.4-9.5v-11.3h-1.1c-1.6,0-2.4-.9-2.4-2.5s.8-2.5,2.3-2.5h1.6l.5-4.4c.1-1.8,1.1-2.5,2.9-2.5s2.9.9,2.9,2.8v4.1h3.7c1.8,0,2.7.9,2.7,2.7s-.9,2.7-2.7,2.7h-3.7v11.3c0,2.9,1.1,4.3,3.4,4.3h0c1.5-.4,2.5.3,2.9,1.9.4,1.5-.1,2.5-1.5,2.9-1.1.3-2.3.4-3.4.4h.3Z"/>
          <path class="cls-6" d="M298.4,96c-2.3,0-3.4-1.1-3.4-3.4v-24.7h-6.7c-1.9,0-2.8-.9-2.8-2.8s.9-2.8,2.8-2.8h20.3c1.9,0,2.8.9,2.8,2.8s-.9,2.8-2.8,2.8h-6.8v24.7c0,2.3-1.1,3.4-3.4,3.4h.1Z"/>
          <path class="cls-5" d="M319.2,96.6c-2.3,0-4.1-.8-5.4-2.2-1.4-1.4-2.2-3.3-2.2-5.4s1.1-4.8,3.4-6.3,6.1-2.5,11.1-3c0-2.9-1.5-4.4-4.3-4.4s-2.9.4-4.6,1.1c-1.6.8-2.8.5-3.7-1-.8-1.4-.5-2.5.9-3.3,2.9-1.5,5.7-2.3,8.6-2.3s5.7.9,7.3,2.8,2.5,4.7,2.5,8.4v12.2c0,1.8-1,2.8-2.9,2.8s-2.7-.8-3-2.4v-.4h-.1c-2.7,2.3-5.2,3.4-7.7,3.4h0ZM321.3,91.4c1.6,0,3.3-.9,4.9-2.5v-5.2c-2.9.4-5.1,1-6.5,1.8-1.3.8-1.8,1.8-1.8,2.9,0,1.9,1.1,2.9,3.4,2.9h-.1Z"/>
          <path class="cls-5" d="M346,96.6c-4.2,0-6.3-2.5-6.3-7.7v-25.8c0-2.2,1.1-3.3,3.3-3.3s3.3,1.1,3.3,3.3v26.2c0,1.4.5,2,1.4,2h0c.3,0,.5,0,.6.4.1.3.3.5.4.9.1.9.1,1.6,0,2.4-.3.9-.6,1.5-1.3,1.6h-1.6.3,0Z"/>
          <path class="cls-5" d="M357.4,96c-2.2,0-3.3-1-3.3-3.3v-29.9c0-2.2,1.1-3.3,3.3-3.3s3.3,1,3.3,3.3v18.6h.1l7.7-9.6c.8-.9,1.8-1.4,2.9-1.4h3.8c.5,0,.9,0,.9.4s0,.5-.4.9l-7.7,9.1,7.5,11.8c.6,1,.9,1.8.5,2.4-.4.6-1.1.9-2.3.9h-1.3c-.6,0-1.1,0-1.8-.5-.5-.4-1-.8-1.4-1.3l-5.2-8.7-3.7,4.2v3.2c0,2.2-1.1,3.3-3.3,3.3h.3,0Z"/>
          <path class="cls-5" d="M385,66.4c-1.1,0-2.2-.4-2.9-1-.8-.6-1.1-1.5-1.1-2.7s.4-2,1.1-2.7,1.8-1,2.9-1,2.2.4,2.8,1c.8.6,1.1,1.5,1.1,2.7s-.4,1.9-1.1,2.7-1.6,1-2.8,1ZM385,96c-2.2,0-3.3-1.1-3.3-3.3v-18.9c0-2.2,1.1-3.3,3.3-3.3s3.3,1.1,3.3,3.3v18.9c0,2.2-1.1,3.3-3.3,3.3Z"/>
          <path class="cls-5" d="M398.8,96c-2.2,0-3.3-1.1-3.3-3.3v-19.4c0-1.8,1-2.8,2.9-2.8s2.7.8,2.9,2.4v.9h.4c2.8-2.7,5.4-4.1,8.2-4.1,5.2,0,7.8,3.4,7.8,10.3v12.5c0,2.2-1.1,3.3-3.3,3.3s-3.4-1.1-3.4-3.3v-11.8c0-1.9-.3-3.3-.9-4.2-.5-.8-1.5-1.3-2.8-1.3s-1.9.3-2.8.8c-.6.4-1.5,1.1-2.5,2.2v14.2c0,2.2-1.1,3.3-3.3,3.3v.3h0Z"/>
          <path class="cls-5" d="M433.6,107c-3.2,0-5.7-.5-7.6-1.6-2-1.1-3-2.8-3-4.9s1.3-3.9,3.7-5.3v-.3c-1.5-1-2.3-2.4-2.3-4.3s.3-1.8.9-2.7c.5-.8,1.1-1.5,1.9-2.2h0c-.9-.9-1.8-1.8-2.3-2.9-.8-1.3-1-2.5-1-3.9,0-2.9,1-5.2,3-6.8,1.9-1.5,4.3-2.4,7.2-2.4s2.7.3,3.8.6h6.7c1.6,0,2.4.8,2.4,2.4s-.8,2.4-2.4,2.4h-1.9c.8,1,1.1,2.3,1.1,3.9,0,2.8-1,4.9-2.9,6.5-1.8,1.5-4.1,2.2-7,2.2s-2.2-.3-3.3-.6c-.8.6-1.1,1.3-1.1,2.2s.3,1.3.9,1.5c.6.4,1.6.5,3.2.5h4.3c6.3,0,9.5,2.2,9.5,6.3s-1.3,4.8-3.7,6.5c-2.5,1.8-5.9,2.5-10.1,2.5v.5h0ZM434.6,102.8c1.9,0,3.4-.4,4.7-1.1,1.1-.8,1.8-1.5,1.8-2.7s-.4-1.5-1.1-1.8c-.6-.3-1.6-.5-3.2-.5h-3c-1.4,0-2.5,0-3.5-.4-1.1.9-1.6,1.9-1.6,2.9s.5,1.9,1.6,2.5,2.5.9,4.4.9h0ZM434,83.8c1.1,0,2.2-.4,2.8-1.3.8-.9,1.1-2,1.1-3.4s-.4-2.7-1.1-3.4-1.6-1.3-2.8-1.3-2.2.4-2.9,1.3c-.8.9-1.1,2-1.1,3.4s.4,2.7,1.1,3.4,1.6,1.3,2.8,1.3h.1Z"/>
          <path class="cls-5" d="M452.7,85.4c-1.5,0-2.4-.8-2.4-2.4s.8-2.4,2.4-2.4h7.7c1.5,0,2.4.8,2.4,2.4s-.8,2.4-2.4,2.4h-7.7Z"/>
          <path class="cls-6" d="M472.2,96c-2,0-3-1-3-3v-27.7c0-.9.3-1.6.8-2.2s1.3-.8,2.2-.8h2.2c.8,0,1.4.3,1.9.6.6.4,1,.9,1.1,1.6l4.9,13.5c.4,1,.8,2.4,1.4,4.4.3.9.5,1.6.6,2h.3c.3-.6.5-1.6,1-3,.5-1.5.8-2.8,1.1-3.5l4.8-13.5c.3-.6.6-1.1,1.1-1.6.6-.4,1.3-.6,1.9-.6h3.4c.5,0,.9,0,1.3.5s.5.8.5,1.3v28.9c0,2-1,3-3,3s-3-1-3-3v-11c0-1.9.3-5.3.8-10.3v-.8h-.1l-2.8,8-4.6,12.3c-.3.5-.5,1-1,1.3-.5.4-1,.5-1.6.5h-.1c-1.1,0-2-.5-2.4-1.6l-4.6-12.4-2.7-8h-.1c0,.4,0,.9.1,1.6.5,4.6.6,7.7.6,9.5v11c0,2-1,3-3,3h.1Z"/>
          <path class="cls-5" d="M513.7,96.6c-2.3,0-4.1-.8-5.4-2.2-1.4-1.4-2.2-3.3-2.2-5.4s1.1-4.8,3.4-6.3,6.1-2.5,11.1-3c0-2.9-1.5-4.4-4.3-4.4s-2.9.4-4.6,1.1c-1.6.8-2.8.5-3.7-1-.8-1.4-.5-2.5.9-3.3,2.9-1.5,5.7-2.3,8.6-2.3s5.7.9,7.3,2.8,2.5,4.7,2.5,8.4v12.2c0,1.8-1,2.8-2.9,2.8s-2.7-.8-3-2.4v-.4h-.1c-2.7,2.3-5.2,3.4-7.7,3.4h0ZM515.9,91.4c1.6,0,3.3-.9,4.9-2.5v-5.2c-2.9.4-5.1,1-6.5,1.8-1.3.8-1.8,1.8-1.8,2.9,0,1.9,1.1,2.9,3.4,2.9h-.1Z"/>
          <path class="cls-5" d="M537.7,96c-2.2,0-3.3-1.1-3.3-3.3v-19.4c0-1.8,1-2.8,2.9-2.8s2.7.8,2.9,2.4v.9h.4c2.8-2.7,5.4-4.1,8.2-4.1,5.2,0,7.8,3.4,7.8,10.3v12.5c0,2.2-1.1,3.3-3.3,3.3s-3.4-1.1-3.4-3.3v-11.8c0-1.9-.3-3.3-.9-4.2-.5-.8-1.5-1.3-2.8-1.3s-1.9.3-2.8.8c-.6.4-1.5,1.1-2.5,2.2v14.2c0,2.2-1.1,3.3-3.3,3.3v.3h0Z"/>
          <path class="cls-5" d="M572.5,96.6c-3.2,0-5.7-1.1-7.6-3.5s-2.8-5.6-2.8-9.7,1.1-7.3,3.3-9.9c2-2.4,4.6-3.5,7.5-3.5s2.5.3,3.7.8c.9.4,1.8,1,2.8,2l-.3-4.1v-5.7c0-2.2,1.1-3.3,3.4-3.3s3.3,1.1,3.3,3.3v30.3c0,.9-.3,1.5-.8,2s-1.3.6-2.2.6c-1.6,0-2.7-.8-2.9-2.3v-.4h-.3c-2.3,2.2-4.6,3.3-7.1,3.3h-.1ZM574.2,91c1.8,0,3.4-.9,4.7-2.7v-11.1c-1.4-1.3-2.9-1.9-4.7-1.9s-2.8.6-3.7,2c-1,1.4-1.5,3.4-1.5,5.8s.5,4.6,1.4,5.9,2.2,2,3.9,2h-.1Z"/>
          <path class="cls-5" d="M599.1,96.6c-2.3,0-4.1-.8-5.4-2.2-1.4-1.4-2.2-3.3-2.2-5.4s1.1-4.8,3.4-6.3c2.3-1.5,6.1-2.5,11.1-3,0-2.9-1.5-4.4-4.3-4.4s-2.9.4-4.6,1.1-2.8.5-3.7-1c-.8-1.4-.5-2.5.9-3.3,2.9-1.5,5.7-2.3,8.6-2.3s5.7.9,7.3,2.8,2.5,4.7,2.5,8.4v12.2c0,1.8-1,2.8-2.9,2.8s-2.7-.8-3-2.4v-.4h0c-2.7,2.3-5.2,3.4-7.7,3.4h-.1ZM601.3,91.4c1.6,0,3.3-.9,4.9-2.5v-5.2c-2.9.4-5.1,1-6.5,1.8-1.3.8-1.8,1.8-1.8,2.9,0,1.9,1.1,2.9,3.4,2.9h-.1Z"/>
          <path class="cls-5" d="M623.1,96c-2.2,0-3.3-1.1-3.3-3.3v-19.4c0-1.8.9-2.8,2.8-2.8s2.8.9,2.9,2.5v2h.4c.9-1.6,2-2.9,3.3-3.8s2.5-1.3,3.9-1.3h.6c.8,0,1.4.6,1.6,1.3s.4,1.4,0,2.3c-.4,1.9-1.5,2.8-3.2,2.4h0c-1.1,0-2.2.4-3.2,1.1-1.1.9-2,2.2-2.8,3.9v11.9c0,2.2-1.1,3.3-3.3,3.3v-.3h.1Z"/>
          <path class="cls-5" d="M643,66.4c-1.1,0-2.2-.4-2.9-1s-1.1-1.5-1.1-2.7.4-2,1.1-2.7c.8-.6,1.8-1,2.9-1s2.2.4,2.8,1c.8.6,1.1,1.5,1.1,2.7s-.4,1.9-1.1,2.7c-.8.8-1.6,1-2.8,1ZM642.8,96c-2.2,0-3.3-1.1-3.3-3.3v-18.9c0-2.2,1.1-3.3,3.3-3.3s3.3,1.1,3.3,3.3v18.9c0,2.2-1.1,3.3-3.3,3.3Z"/>
          <path class="cls-5" d="M656.6,96c-2.2,0-3.3-1.1-3.3-3.3v-19.4c0-1.8,1-2.8,2.9-2.8s2.7.8,2.9,2.4v.9h.4c2.8-2.7,5.4-4.1,8.2-4.1,5.2,0,7.8,3.4,7.8,10.3v12.5c0,2.2-1.1,3.3-3.3,3.3s-3.4-1.1-3.4-3.3v-11.8c0-1.9-.3-3.3-.9-4.2-.5-.8-1.5-1.3-2.8-1.3s-1.9.3-2.8.8c-.6.4-1.5,1.1-2.5,2.2v14.2c0,2.2-1.1,3.3-3.3,3.3v.3h0Z"/>
        </g>
        <g>
          <g>
            <path class="cls-6" d="M162.2,96.2c-3.7,0-7-1-10-3-1.5-1.3-1.6-2.7-.4-4.1,1.4-1.6,2.9-1.8,4.7-.5,2,1.1,4.1,1.8,5.9,1.8s3-.4,3.9-1c.9-.6,1.4-1.6,1.4-2.8s-.4-2-1.3-2.7c-.5-.4-1.6-1-3.4-1.8h-.4l-4.6-1.9c-4.6-1.9-6.8-4.9-6.8-9.1s1.1-5.1,3.3-7c2.2-1.9,4.9-2.8,8.4-2.8s6.1.9,8.6,2.7c1.3,1.1,1.4,2.3.3,3.7-1.3,1.5-2.5,1.6-4.1.6-1.5-.8-3-1.1-4.8-1.1s-2.7.4-3.5,1-1.3,1.5-1.3,2.5.5,1.9,1.5,2.7c.6.5,1.8,1,3.5,1.6h.4l4.4,1.9c2.2.9,3.8,2,4.9,3.4,1.3,1.5,1.9,3.4,1.9,5.8s-1.1,5.2-3.3,7.1c-2.3,2-5.3,3-9.1,3h-.3Z"/>
            <path class="cls-3" d="M162.2,99.5c-4.3,0-8.2-1.3-11.9-3.5l-.3-.3c-1.8-1.5-2.3-3.2-2.4-4.2,0-1.1,0-2.8,1.6-4.6,2.4-2.9,5.8-3.3,9-1.1,1.5.9,2.8,1.3,4.1,1.3s1.8-.3,2-.4h0s-.6-.6-2.7-1.5h-.4l-4.4-1.9c-7.3-3-8.9-8.2-8.9-12.2s1.5-7,4.4-9.5c2.8-2.4,6.3-3.5,10.5-3.5s7.3,1.1,10.5,3.3l.3.3c2.7,2.3,2.9,5.6.6,8.2-2.3,2.8-5.4,3.3-8.4,1.4-1-.5-2-.8-3.2-.8s-1.1,0-1.4.3c.3,0,.9.5,2.7,1.3.3,0,.4,0,.5.3l4.3,1.8c2.7,1.1,4.8,2.5,6.2,4.3,1.8,2.2,2.7,4.8,2.7,7.8s-1.5,7.1-4.4,9.6-6.7,3.9-11.3,3.9h0v-.3h.1ZM154.1,91h0ZM155,69c-.3.6-.4,1.3-.4,2,0,1.9.5,4.3,4.8,5.9l4.7,2c2.2.9,3.4,1.5,4.3,2.2,1.8,1.4,2.7,3.2,2.7,5.3s0,1.4-.3,2c.4-.8.5-1.6.5-2.5,0-1.5-.4-2.8-1.1-3.7-.8-.9-1.9-1.6-3.5-2.4l-4.7-2c-2-.8-3.4-1.5-4.3-2.2-1.8-1.3-2.8-3.2-2.8-5.2s0-1.1.3-1.6h-.1ZM170,65.6h0Z"/>
          </g>
          <g>
            <path class="cls-5" d="M183.4,95.6c-2.2,0-3.3-1.1-3.3-3.3v-19.4c0-1.8,1-2.8,2.9-2.8s2.7.8,2.9,2.4v1h.4c1.3-1.3,2.4-2.3,3.4-2.9,1.4-.8,2.9-1.1,4.4-1.1,3.4,0,5.7,1.5,7,4.4,1.4-1.4,2.5-2.5,3.7-3.2,1.4-.9,2.9-1.3,4.4-1.3,2.7,0,4.7.9,5.9,2.8,1.3,1.8,1.9,4.2,1.9,7.5v12.5c0,2.2-1.1,3.3-3.3,3.3s-3.4-1.1-3.4-3.3v-11.8c0-1.9-.3-3.3-.9-4.2-.5-.8-1.4-1.1-2.7-1.1s-3,1-4.9,2.9v14.2c0,2.2-1.1,3.3-3.3,3.3s-3.4-1.1-3.4-3.3v-11.8c0-1.9-.3-3.3-.9-4.2-.5-.8-1.4-1.1-2.7-1.1s-3,1-4.9,2.9v14.2c0,2.2-1.1,3.3-3.3,3.3h0Z"/>
            <path class="cls-3" d="M213.6,98.9c-4.1,0-6.7-2.7-6.7-6.6v-11.8c0-1,0-1.6-.3-2h0s-.5,0-1.6,1v12.8c0,4.1-2.7,6.6-6.6,6.6s-6.7-2.7-6.7-6.6v-11.8c0-1,0-1.6-.3-2h0s-.5,0-1.6,1v12.8c0,4.1-2.7,6.6-6.6,6.6s-6.6-2.7-6.6-6.6v-19.4c0-3.7,2.4-6.1,6.2-6.1s3.2.5,4.3,1.5c.3,0,.5-.4.8-.5,2-1.1,3.9-1.6,6.1-1.6s5.6,1,7.5,2.8c.5-.4,1-.8,1.5-1,1.9-1.1,3.9-1.8,6.1-1.8,4.7,0,7.2,2.2,8.6,4.1,1.8,2.3,2.5,5.6,2.5,9.5v12.5c0,4.1-2.7,6.6-6.6,6.6h0ZM213.6,92.7h0ZM213.6,92.3h0v-12.5c0-2.5-.4-4.4-1.3-5.6-.4-.5-.9-.9-1.8-1.3.8.5,1.3,1.1,1.5,1.5,1,1.4,1.5,3.4,1.5,6.1v11.8h0ZM198.4,92.3h0v-15.6l-.6-1.4c-.6-1.3-1.4-2-2.5-2.3.8.5,1.3,1.1,1.6,1.5,1,1.4,1.4,3.4,1.4,6.1v11.8h.1ZM183.4,92.3h0v-15.4,15.4h0Z"/>
          </g>
          <g>
            <path class="cls-5" d="M230.2,96.2c-2.3,0-4.1-.8-5.4-2.2s-2.2-3.3-2.2-5.4,1.1-4.8,3.4-6.3,6.1-2.5,11.1-3c0-2.9-1.5-4.4-4.3-4.4s-2.9.4-4.6,1.1-2.8.5-3.7-1c-.8-1.4-.5-2.5.9-3.3,2.9-1.5,5.7-2.3,8.6-2.3s5.7.9,7.3,2.8,2.5,4.7,2.5,8.4v12.2c0,1.8-1,2.8-2.9,2.8s-2.7-.8-3-2.4v-.4h-.1c-2.7,2.3-5.2,3.4-7.7,3.4h0ZM232.4,91c1.6,0,3.3-.9,4.9-2.5v-5.2c-2.9.4-5.1,1-6.5,1.8-1.3.8-1.8,1.8-1.8,2.9,0,1.9,1.1,2.9,3.4,2.9h-.1Z"/>
            <path class="cls-3" d="M230.2,99.5c-3.2,0-5.8-1-7.8-3.2-2-2-3-4.7-3-7.7s1.8-7,4.9-9.1c0,0,.3,0,.4-.3-1.1-.5-2.2-1.4-2.9-2.8-1.6-3-.8-6.1,2.2-7.7,3.4-1.8,6.8-2.7,10.3-2.7s7.5,1.4,9.7,3.9c2.2,2.5,3.3,6.1,3.3,10.6v12.2c0,3.7-2.4,6.1-6.2,6.1s-3-.5-4.1-1.3c-2.3,1.3-4.6,1.9-6.7,1.9h0ZM240.6,89.5h0v-7.3h0v7.3ZM240.6,79.1v1.4-1.4Z"/>
          </g>
          <g>
            <path class="cls-5" d="M254.1,95.6c-2.2,0-3.3-1.1-3.3-3.3v-19.4c0-1.8.9-2.8,2.8-2.8s2.8.9,2.9,2.5v2h.4c.9-1.6,2-2.9,3.3-3.8s2.5-1.3,3.9-1.3h.6c.8,0,1.4.6,1.6,1.3s.4,1.4.1,2.3c-.4,1.9-1.5,2.8-3.2,2.4h0c-1.1,0-2.2.4-3.2,1.1-1.1.9-2,2.2-2.8,3.9v11.9c0,2.2-1.1,3.3-3.3,3.3v-.3h0Z"/>
            <path class="cls-3" d="M254.1,98.9c-4.1,0-6.6-2.7-6.6-6.6v-19.4c0-3.7,2.4-6.1,6.1-6.1s3.3.5,4.3,1.5c0,0,.3,0,.4-.3,1.9-1.3,3.8-1.9,5.8-1.9h1.3c1.8.5,3.2,1.5,3.9,3.2.6,1.3.8,2.8.4,4.3-.8,3.5-3.3,5.4-6.6,5.1-.3,0-.6,0-1,.4-.6.4-1,1-1.5,1.9v11.3c0,4.1-2.7,6.6-6.6,6.6h.1ZM254.1,92.3h0v-12.5l.3-.6c.1-.4.4-.9.5-1.3h-.8v14.3h0ZM263.2,71.9h0Z"/>
          </g>
          <g>
            <path class="cls-5" d="M280,96.2c-5.6,0-8.4-3.2-8.4-9.5v-11.3h-1.1c-1.6,0-2.4-.9-2.4-2.5s.8-2.5,2.3-2.5h1.6l.5-4.4c.1-1.8,1.1-2.5,2.9-2.5s2.9.9,2.9,2.8v4.1h3.7c1.8,0,2.7.9,2.7,2.7s-.9,2.7-2.7,2.7h-3.7v11.3c0,2.9,1.1,4.3,3.4,4.3h0c1.5-.4,2.5.3,2.9,1.9.4,1.5-.1,2.5-1.5,2.9-1.1.3-2.3.4-3.4.4h.3Z"/>
            <path class="cls-3" d="M280,99.5c-7.5,0-11.6-4.7-11.6-12.9v-8.4c-2.2-.8-3.5-2.8-3.5-5.6s1.6-5.1,4.3-5.7l.3-1.6c.4-3.4,2.8-5.6,6.2-5.6s6.2,2.4,6.2,6.1v.8h.4c3.7,0,5.9,2.3,5.9,5.9s-2.3,5.9-5.9,5.9h-.4v8.9c3-.4,5.6,1.3,6.3,4.6.8,3.4-.8,6.1-3.8,6.8-3,.8-2.9.5-4.3.5v.3ZM274.9,73.1v13.7c0,3.2.8,4.7,1.8,5.4-1-1.3-1.8-3-1.8-5.4v-14.2s0,.5,0,.5Z"/>
          </g>
          <g>
            <path class="cls-6" d="M299.4,95.6c-2.3,0-3.4-1.1-3.4-3.4v-24.7h-6.7c-1.9,0-2.8-.9-2.8-2.8s.9-2.8,2.8-2.8h20.3c1.9,0,2.8.9,2.8,2.8s-.9,2.8-2.8,2.8h-6.8v24.7c0,2.3-1.1,3.4-3.4,3.4h.1Z"/>
            <path class="cls-3" d="M299.4,98.9c-4.1,0-6.7-2.7-6.7-6.7v-21.4h-3.4c-3.7,0-6.1-2.4-6.1-6.1s2.4-6.1,6.1-6.1h20.3c3.7,0,6.1,2.4,6.1,6.1s-2.4,6.1-6.1,6.1h-3.4v21.4c0,4.1-2.7,6.7-6.7,6.7ZM299.4,92.3h0v-27h0v27h0Z"/>
          </g>
          <g>
            <path class="cls-5" d="M320.2,96.2c-2.3,0-4.1-.8-5.4-2.2-1.4-1.4-2.2-3.3-2.2-5.4s1.1-4.8,3.4-6.3,6.1-2.5,11.1-3c0-2.9-1.5-4.4-4.3-4.4s-2.9.4-4.6,1.1c-1.6.8-2.8.5-3.7-1-.8-1.4-.5-2.5.9-3.3,2.9-1.5,5.7-2.3,8.6-2.3s5.7.9,7.3,2.8,2.5,4.7,2.5,8.4v12.2c0,1.8-1,2.8-2.9,2.8s-2.7-.8-3-2.4v-.4h-.1c-2.7,2.3-5.2,3.4-7.7,3.4h0ZM322.4,91c1.6,0,3.3-.9,4.9-2.5v-5.2c-2.9.4-5.1,1-6.5,1.8-1.3.8-1.8,1.8-1.8,2.9,0,1.9,1.1,2.9,3.4,2.9h-.1Z"/>
            <path class="cls-3" d="M320.2,99.5c-3.2,0-5.8-1.1-7.8-3.2s-3-4.7-3-7.7,1.8-7,4.9-9.1c0,0,.3,0,.4-.3-1.1-.5-2.2-1.4-2.9-2.8-1.6-3-.8-6.1,2.2-7.7,3.4-1.8,6.8-2.7,10.3-2.7s7.5,1.4,9.7,3.9c2.2,2.5,3.3,6.1,3.3,10.6v12.2c0,3.7-2.4,6.1-6.2,6.1s-3-.5-4.1-1.3c-2.3,1.3-4.6,1.9-6.7,1.9h0ZM330.6,89.5h0v-7.3h0v7.3ZM330.6,79.3v1.4-1.4Z"/>
          </g>
          <g>
            <path class="cls-5" d="M347,96.2c-4.2,0-6.3-2.5-6.3-7.7v-25.8c0-2.2,1.1-3.3,3.3-3.3s3.3,1.1,3.3,3.3v26.2c0,1.4.5,2,1.4,2h0c.3,0,.5,0,.6.4.1.3.3.5.4.9.1.9.1,1.6,0,2.4-.3.9-.6,1.5-1.3,1.6h-1.6.3,0Z"/>
            <path class="cls-3" d="M347,99.5c-2.9,0-9.6-1.1-9.6-11.1v-25.8c0-4.1,2.7-6.6,6.6-6.6s6.6,2.7,6.6,6.6v25.3c.6.3,1.1.8,1.5,1.4.5.8.8,1.4.9,2.2.3,1.4.3,2.7,0,3.8-.6,3-2.5,3.9-3.7,4.2h-.5c-.8,0-1.4.3-1.9.3h.1ZM344.1,62.6h0v25.8c0,2.7.5,3.7,1.3,4.2-.8-.9-1.3-2.2-1.3-3.8v-26.2h0ZM344,62.2h0Z"/>
          </g>
          <g>
            <path class="cls-5" d="M358.4,95.6c-2.2,0-3.3-1-3.3-3.3v-29.9c0-2.2,1.1-3.3,3.3-3.3s3.3,1,3.3,3.3v18.6h.1l7.7-9.6c.8-.9,1.8-1.4,2.9-1.4h3.8c.5,0,.9,0,.9.4s0,.5-.4.9l-7.7,9.1,7.5,11.8c.6,1,.9,1.8.5,2.4-.4.6-1.1.9-2.3.9h-1.3c-.6,0-1.1,0-1.8-.5-.5-.4-1-.8-1.4-1.3l-5.2-8.7-3.7,4.2v3.2c0,2.2-1.1,3.3-3.3,3.3h.3,0Z"/>
            <path class="cls-3" d="M374.8,98.9h-1.3c-1.3,0-2.4-.4-3.4-1-1-.6-1.8-1.4-2.4-2.3h0l-2.7-4.7v1.4c0,3.9-2.5,6.6-6.6,6.6s-6.6-2.5-6.6-6.6v-29.9c0-3.9,2.5-6.6,6.6-6.6s6.6,2.5,6.6,6.6v9.4l2-2.5c1.4-1.8,3.3-2.7,5.4-2.7h3.8c2.7,0,3.7,1.5,3.9,2.3.3.6.9,2.5-.8,4.4l-6.2,7.2,6.2,9.6c1.8,2.7,1.1,4.8.6,5.8-.6,1.1-2.2,2.7-5.2,2.7v.3h-.1ZM358.3,92.7h0ZM358.7,92.3h0ZM358.4,84.5v3.4l3-3.4h-3ZM358.7,62.7h0ZM358.3,62.2h0Z"/>
          </g>
          <g>
            <path class="cls-5" d="M386,66c-1.1,0-2.2-.4-2.9-1-.8-.6-1.1-1.5-1.1-2.7s.4-2,1.1-2.7,1.8-1,2.9-1,2.2.4,2.8,1c.8.6,1.1,1.5,1.1,2.7s-.4,1.9-1.1,2.7-1.6,1-2.8,1ZM385.9,95.6c-2.2,0-3.3-1.1-3.3-3.3v-18.9c0-2.2,1.1-3.3,3.3-3.3s3.3,1.1,3.3,3.3v18.9c0,2.2-1.1,3.3-3.3,3.3Z"/>
            <path class="cls-3" d="M385.9,98.9c-4.1,0-6.6-2.7-6.6-6.6v-18.9c0-2.3.9-4.2,2.4-5.3-.3-.3-.5-.4-.8-.6-1.5-1.3-2.3-3-2.3-5.1s.8-3.8,2.3-5.2c1.4-1.1,3.2-1.8,5.1-1.8s3.7.6,5.1,1.9,2.3,3,2.3,5.1-.8,3.7-2.2,5.1c-.3.3-.6.5-.9.8,1.5,1.1,2.4,3,2.4,5.3v18.9c0,4.1-2.7,6.6-6.6,6.6h-.3,0ZM386,92.7h0ZM385.9,92.3h0v-18.9h0v18.9h0ZM385.3,62.3h0v.3h1.3v-.4h-1.3ZM385.3,62.2h0Z"/>
          </g>
          <g>
            <path class="cls-5" d="M399.8,95.6c-2.2,0-3.3-1.1-3.3-3.3v-19.4c0-1.8,1-2.8,2.9-2.8s2.7.8,2.9,2.4v.9h.4c2.8-2.7,5.4-4.1,8.2-4.1,5.2,0,7.8,3.4,7.8,10.3v12.5c0,2.2-1.1,3.3-3.3,3.3s-3.4-1.1-3.4-3.3v-11.8c0-1.9-.3-3.3-.9-4.2-.5-.8-1.5-1.3-2.8-1.3s-1.9.3-2.8.8c-.6.4-1.5,1.1-2.5,2.2v14.2c0,2.2-1.1,3.3-3.3,3.3v.3h0Z"/>
            <path class="cls-3" d="M415.4,98.9c-4.1,0-6.7-2.7-6.7-6.6v-11.8c0-1.1,0-1.6-.1-2h0c-.4,0-.8,0-1.1.3,0,0-.4.3-.9.8v12.8c0,4.1-2.7,6.6-6.6,6.6s-6.6-2.7-6.6-6.6v-19.4c0-3.7,2.4-6.1,6.2-6.1s3.3.5,4.3,1.5c2.3-1.5,4.7-2.2,7.2-2.2s11.1,1.3,11.1,13.5v12.5c0,4.1-2.7,6.6-6.6,6.6h-.3,0ZM415.3,92.3h0v-12.5c0-5.3-1.6-6.6-3.3-6.8.9.5,1.4,1.1,1.8,1.6,1,1.4,1.4,3.3,1.4,6.1v11.8h.1ZM399.8,92.3h0v-15.4,15.4h0Z"/>
          </g>
          <g>
            <path class="cls-5" d="M434.6,106.6c-3.2,0-5.7-.5-7.6-1.6-2-1.1-3-2.8-3-4.9s1.3-3.9,3.7-5.3v-.3c-1.5-1-2.3-2.4-2.3-4.3s.3-1.8.9-2.7c.5-.8,1.1-1.5,1.9-2.2h0c-.9-.9-1.8-1.8-2.3-2.9-.8-1.3-1-2.5-1-3.9,0-2.9,1-5.2,3-6.8,1.9-1.5,4.3-2.4,7.2-2.4s2.7.3,3.8.6h6.7c1.6,0,2.4.8,2.4,2.4s-.8,2.4-2.4,2.4h-1.9c.8,1,1.1,2.3,1.1,3.9,0,2.8-1,4.9-2.9,6.5-1.8,1.5-4.1,2.2-7,2.2s-2.2-.3-3.3-.6c-.8.6-1.1,1.3-1.1,2.2s.3,1.3.9,1.5c.6.4,1.6.5,3.2.5h4.3c6.3,0,9.5,2.2,9.5,6.3s-1.3,4.8-3.7,6.5c-2.5,1.8-5.9,2.5-10.1,2.5v.5h0ZM435.5,102.4c1.9,0,3.4-.4,4.7-1.1,1.1-.8,1.8-1.5,1.8-2.7s-.4-1.5-1.1-1.8c-.6-.3-1.6-.5-3.2-.5h-3c-1.4,0-2.5,0-3.5-.4-1.1.9-1.6,1.9-1.6,2.9s.5,1.9,1.6,2.5,2.5.9,4.4.9h0ZM435,83.5c1.1,0,2.2-.4,2.8-1.3.8-.9,1.1-2,1.1-3.4s-.4-2.7-1.1-3.4-1.6-1.3-2.8-1.3-2.2.4-2.9,1.3c-.8.9-1.1,2-1.1,3.4s.4,2.7,1.1,3.4,1.6,1.3,2.8,1.3h.1Z"/>
            <path class="cls-3" d="M434.6,110c-3.7,0-6.8-.6-9.2-2-3-1.8-4.8-4.6-4.8-7.8s.5-3.8,2.3-5.8c-.6-1.1-.9-2.5-.9-4.1s.5-3,1.4-4.4c0,0,.1-.3.3-.4-.3-.4-.5-.8-.8-1.1-1-1.8-1.5-3.7-1.5-5.6,0-3.8,1.5-7.1,4.3-9.4,2.5-2,5.7-3.2,9.2-3.2s2.9.3,4.3.6h6.2c3.4,0,5.8,2.3,5.8,5.8s-1.3,4.4-3.3,5.3v1c0,3.8-1.4,6.8-4.1,9-.1,0-.4.3-.5.4,7.3,1.5,8.2,6.8,8.2,9.2s-.9,6.3-5.2,9.2c-3.2,2.2-7.1,3.2-12,3.2h.3ZM444.8,96.1c0,.3.3.4.3.6,0-.3-.1-.4-.3-.6ZM435,77.4h-.4c-.3.3-.3.9-.3,1.3s0,.9.3,1.3h.8c.3-.3.3-.9.3-1.3s0-1-.3-1.3h-.4Z"/>
          </g>
          <g>
            <path class="cls-5" d="M453.7,85c-1.5,0-2.4-.8-2.4-2.4s.8-2.4,2.4-2.4h7.7c1.5,0,2.4.8,2.4,2.4s-.8,2.4-2.4,2.4h-7.7Z"/>
            <path class="cls-3" d="M461.5,88.3h-7.7c-3.4,0-5.7-2.3-5.7-5.7s2.3-5.7,5.7-5.7h7.7c3.4,0,5.7,2.3,5.7,5.7s-2.3,5.7-5.7,5.7Z"/>
          </g>
          <g>
            <path class="cls-6" d="M473.2,95.6c-2,0-3-1-3-3v-27.7c0-.9.3-1.6.8-2.2s1.3-.8,2.2-.8h2.2c.8,0,1.4.3,1.9.6.6.4,1,.9,1.1,1.6l4.9,13.5c.4,1,.8,2.4,1.4,4.4.3.9.5,1.6.6,2h.3c.3-.6.5-1.6,1-3,.5-1.5.8-2.8,1.1-3.5l4.8-13.5c.3-.6.6-1.1,1.1-1.6.6-.4,1.3-.6,1.9-.6h3.4c.5,0,.9,0,1.3.5s.5.8.5,1.3v28.9c0,2-1,3-3,3s-3-1-3-3v-11c0-1.9.3-5.3.8-10.3v-.8h-.1l-2.8,8-4.6,12.3c-.3.5-.5,1-1,1.3-.5.4-1,.5-1.6.5h-.1c-1.1,0-2-.5-2.4-1.6l-4.6-12.4-2.7-8h-.1c0,.4,0,.9.1,1.6.5,4.6.6,7.7.6,9.5v11c0,2-1,3-3,3h.1Z"/>
            <path class="cls-3" d="M497.7,98.9c-3.9,0-6.5-2.5-6.5-6.3v-1.1.5c-.6,1.3-1.4,2.2-2.4,2.9-1,.8-2.3,1.1-3.4,1.1h-.1c-2.5,0-4.6-1.4-5.6-3.8v-.5c-.1,0-.1,1-.1,1,0,3.8-2.5,6.3-6.3,6.3s-6.3-2.5-6.3-6.3v-27.7c0-1.8.6-3.3,1.8-4.4s2.8-1.8,4.4-1.8h2.2c1.4,0,2.7.4,3.8,1.1s2,1.9,2.4,3.3l3.9,10.9,3.9-10.9c.4-1.3,1.3-2.4,2.4-3.2s2.4-1.1,3.8-1.1h3.4c1.4,0,2.7.5,3.5,1.4.9.9,1.4,2.2,1.4,3.5v28.9c0,3.9-2.5,6.3-6.3,6.3h.1ZM497.9,92.8h0ZM485.1,87.5l.3.8.3-.8h-.5ZM494.9,67.1h2.5v-1.9h-1.8l-.6,1.9h-.1ZM473.5,67.1h2.5l-.8-1.9h-1.8v1.9Z"/>
          </g>
          <g>
            <path class="cls-5" d="M514.8,96.2c-2.3,0-4.1-.8-5.4-2.2-1.4-1.4-2.2-3.3-2.2-5.4s1.1-4.8,3.4-6.3c2.3-1.5,6.1-2.5,11.1-3,0-2.9-1.5-4.4-4.3-4.4s-2.9.4-4.6,1.1c-1.6.8-2.8.5-3.7-1-.8-1.4-.5-2.5.9-3.3,2.9-1.5,5.7-2.3,8.6-2.3s5.7.9,7.3,2.8,2.5,4.7,2.5,8.4v12.2c0,1.8-1,2.8-2.9,2.8s-2.7-.8-3-2.4v-.4h-.1c-2.7,2.3-5.2,3.4-7.7,3.4h0ZM516.9,91c1.6,0,3.3-.9,4.9-2.5v-5.2c-2.9.4-5.1,1-6.5,1.8-1.3.8-1.8,1.8-1.8,2.9,0,1.9,1.1,2.9,3.4,2.9h-.1Z"/>
            <path class="cls-3" d="M514.8,99.5c-3.2,0-5.8-1.1-7.8-3.2s-3-4.7-3-7.7,1.8-7,4.9-9.1c0,0,.3,0,.4-.3-1.1-.5-2.2-1.4-2.9-2.8-1.6-3-.8-6.1,2.2-7.7,3.4-1.8,6.8-2.7,10.3-2.7s7.5,1.4,9.7,3.9c2.2,2.5,3.3,6.1,3.3,10.6v12.2c0,3.7-2.4,6.1-6.2,6.1s-3-.5-4.1-1.3c-2.3,1.3-4.6,1.9-6.7,1.9h0ZM525.1,89.5h0v-7.3h0v7.3ZM525.1,79.3v1.4-1.4Z"/>
          </g>
          <g>
            <path class="cls-5" d="M538.7,95.6c-2.2,0-3.3-1.1-3.3-3.3v-19.4c0-1.8,1-2.8,2.9-2.8s2.7.8,2.9,2.4v.9h.4c2.8-2.7,5.4-4.1,8.2-4.1,5.2,0,7.8,3.4,7.8,10.3v12.5c0,2.2-1.1,3.3-3.3,3.3s-3.4-1.1-3.4-3.3v-11.8c0-1.9-.3-3.3-.9-4.2-.5-.8-1.5-1.3-2.8-1.3s-1.9.3-2.8.8c-.6.4-1.5,1.1-2.5,2.2v14.2c0,2.2-1.1,3.3-3.3,3.3v.3h0Z"/>
            <path class="cls-3" d="M554.2,98.9c-4.1,0-6.7-2.7-6.7-6.6v-11.8c0-1.1,0-1.6-.1-2-.4,0-.8,0-1.1.3,0,0-.4.3-.9.8v12.8c0,4.1-2.7,6.6-6.6,6.6s-6.6-2.7-6.6-6.6v-19.4c0-3.7,2.4-6.1,6.2-6.1s3.3.5,4.3,1.5c2.3-1.5,4.7-2.2,7.2-2.2s11.1,1.3,11.1,13.5v12.5c0,4.1-2.7,6.6-6.6,6.6h-.3,0ZM538.7,92.7h0ZM554.2,92.3h0v-12.5c0-5.3-1.6-6.6-3.2-6.8.8.5,1.3,1.1,1.8,1.6,1,1.4,1.4,3.3,1.4,6.1v11.8h0ZM538.7,92.3h0v-15.4,15.4h0Z"/>
          </g>
          <g>
            <path class="cls-5" d="M573.5,96.2c-3.2,0-5.7-1.1-7.6-3.5-1.9-2.4-2.8-5.6-2.8-9.7s1.1-7.3,3.3-9.9c2-2.4,4.6-3.5,7.5-3.5s2.5.3,3.7.8c.9.4,1.8,1,2.8,2l-.3-4.1v-5.7c0-2.2,1.1-3.3,3.4-3.3s3.3,1.1,3.3,3.3v30.3c0,.9-.3,1.5-.8,2s-1.3.6-2.2.6c-1.6,0-2.7-.8-2.9-2.3v-.4h-.3c-2.3,2.2-4.6,3.3-7.1,3.3h-.1ZM575.3,90.8c1.8,0,3.4-.9,4.7-2.7v-11.1c-1.4-1.3-2.9-1.9-4.7-1.9s-2.8.6-3.7,2c-1,1.4-1.5,3.4-1.5,5.8s.5,4.6,1.4,5.9,2.2,2,3.9,2h-.1Z"/>
            <path class="cls-3" d="M573.5,99.5c-4.2,0-7.7-1.6-10.3-4.8-2.4-2.9-3.5-7-3.5-11.8s1.4-8.9,4.1-12c2.7-3.2,6.1-4.8,9.9-4.8s1.9,0,2.9.4v-3.9c0-4.1,2.7-6.6,6.7-6.6s6.6,2.7,6.6,6.6v30.3c0,2.3-1,3.7-1.9,4.4-.8.6-2.2,1.5-4.3,1.5s-2.9-.4-3.9-1.1c-2,1.3-4.2,1.8-6.3,1.8h.1ZM567.8,76.7c-1,1.6-1.5,3.8-1.5,6.2s.8,5.9,2.2,7.7c.1.3.4.4.5.6-.1-.3-.4-.4-.5-.6-1.3-1.9-1.9-4.4-1.9-7.7s.4-4.4,1.3-6.2ZM583,89.7h.4v.3-10.1h0v9.5l-.4.4ZM575.3,78.3c-.4,0-.6,0-1,.6-.6.9-.9,2.2-.9,3.9,0,2.5.5,3.7.8,4.1.3.3.4.5,1.1.5s.8,0,1.4-.6v-8.2c-.5-.3-.9-.3-1.4-.3ZM583.2,68.1v.9-6.3h0v5.6h0Z"/>
          </g>
          <g>
            <path class="cls-5" d="M600.1,96.2c-2.3,0-4.1-.8-5.4-2.2-1.4-1.4-2.2-3.3-2.2-5.4s1.1-4.8,3.4-6.3,6.1-2.5,11.1-3c0-2.9-1.5-4.4-4.3-4.4s-2.9.4-4.6,1.1-2.8.5-3.7-1c-.8-1.4-.5-2.5.9-3.3,2.9-1.5,5.7-2.3,8.6-2.3s5.7.9,7.3,2.8c1.6,1.9,2.5,4.7,2.5,8.4v12.2c0,1.8-1,2.8-2.9,2.8s-2.7-.8-3-2.4v-.4h0c-2.7,2.3-5.2,3.4-7.7,3.4h-.1ZM602.2,91c1.6,0,3.3-.9,4.9-2.5v-5.2c-2.9.4-5.1,1-6.5,1.8-1.3.8-1.8,1.8-1.8,2.9,0,1.9,1.1,2.9,3.4,2.9h-.1Z"/>
            <path class="cls-3" d="M600.1,99.5c-3.2,0-5.8-1-7.8-3.2-2-2-3-4.7-3-7.7s1.8-7,4.9-9.1c0,0,.3,0,.4-.3-1.1-.5-2.2-1.4-2.9-2.8-1.6-3-.8-6.1,2.2-7.7,3.4-1.8,6.8-2.7,10.3-2.7s7.5,1.4,9.7,3.9c2.2,2.5,3.3,6.1,3.3,10.6v12.2c0,3.7-2.4,6.1-6.2,6.1s-3-.5-4.1-1.3c-2.3,1.3-4.6,1.9-6.7,1.9h0ZM610.4,89.5h0v-7.3h0v7.3ZM610.4,79.1v1.4-1.4Z"/>
          </g>
          <g>
            <path class="cls-5" d="M624,95.6c-2.2,0-3.3-1.1-3.3-3.3v-19.4c0-1.8.9-2.8,2.8-2.8s2.8.9,2.9,2.5v2h.4c.9-1.6,2-2.9,3.3-3.8s2.5-1.3,3.9-1.3h.6c.8,0,1.4.6,1.6,1.3s.4,1.4,0,2.3c-.4,1.9-1.5,2.8-3.2,2.4h0c-1.1,0-2.2.4-3.2,1.1-1.1.9-2,2.2-2.8,3.9v11.9c0,2.2-1.1,3.3-3.3,3.3v-.3h.1Z"/>
            <path class="cls-3" d="M624,98.9c-4.1,0-6.6-2.7-6.6-6.6v-19.4c0-3.7,2.4-6.1,6.1-6.1s3.3.5,4.3,1.5c0,0,.3,0,.4-.3,1.9-1.3,3.8-1.9,5.8-1.9h1.3c1.8.5,3.2,1.5,3.9,3.2.6,1.4.8,2.8.4,4.3-.8,3.5-3.3,5.4-6.6,5.1-.3,0-.6,0-1,.4-.6.4-1,1-1.5,1.9v11.3c0,4.1-2.7,6.6-6.6,6.6h.1ZM624,92.7h0ZM624,92.3h0v-12.5l.3-.6c0-.4.4-.9.5-1.3h-.8v14.3h0Z"/>
          </g>
          <g>
            <path class="cls-5" d="M643.9,66c-1.1,0-2.2-.4-2.9-1s-1.1-1.5-1.1-2.7.4-2,1.1-2.7c.8-.6,1.8-1,2.9-1s2.2.4,2.8,1c.8.6,1.1,1.5,1.1,2.7s-.4,1.9-1.1,2.7c-.8.8-1.6,1-2.8,1ZM643.9,95.6c-2.2,0-3.3-1.1-3.3-3.3v-18.9c0-2.2,1.1-3.3,3.3-3.3s3.3,1.1,3.3,3.3v18.9c0,2.2-1.1,3.3-3.3,3.3Z"/>
            <path class="cls-3" d="M643.9,98.9c-4.1,0-6.6-2.7-6.6-6.6v-18.9c0-2.3.9-4.2,2.4-5.3-.3,0-.5-.4-.8-.6-1.5-1.3-2.3-3-2.3-5.1s.8-3.8,2.3-5.2c1.4-1.1,3.2-1.8,5.1-1.8s3.7.6,5.1,1.9c1.4,1.3,2.3,3,2.3,5.1s-.8,3.7-2.2,5.1c-.3.3-.6.5-.9.8,1.5,1.1,2.4,3,2.4,5.3v18.9c0,4.1-2.7,6.6-6.6,6.6h-.3ZM643.9,92.3h0v-18.9h0v18.9h0ZM643.2,62.2h0v.3s.3.3.6.3h.6v-.4h-1.3Z"/>
          </g>
          <g>
            <path class="cls-5" d="M657.7,95.6c-2.2,0-3.3-1.1-3.3-3.3v-19.4c0-1.8,1-2.8,2.9-2.8s2.7.8,2.9,2.4v.9h.4c2.8-2.7,5.4-4.1,8.2-4.1,5.2,0,7.8,3.4,7.8,10.3v12.5c0,2.2-1.1,3.3-3.3,3.3s-3.4-1.1-3.4-3.3v-11.8c0-1.9-.3-3.3-.9-4.2-.5-.8-1.5-1.3-2.8-1.3s-1.9.3-2.8.8c-.6.4-1.5,1.1-2.5,2.2v14.2c0,2.2-1.1,3.3-3.3,3.3v.3h0Z"/>
            <path class="cls-3" d="M673.4,98.9c-4.1,0-6.7-2.7-6.7-6.6v-13.8c-.4,0-.8,0-1.1.3,0,0-.4.3-.9.8v12.8c0,4.1-2.7,6.6-6.6,6.6s-6.6-2.7-6.6-6.6v-19.4c0-3.7,2.4-6.1,6.2-6.1s3.3.5,4.3,1.5c2.3-1.5,4.7-2.2,7.2-2.2s11.1,1.3,11.1,13.5v12.5c0,4.1-2.7,6.6-6.6,6.6h-.4ZM657.7,92.7h0ZM673.2,92.3h0v-12.5c0-5.3-1.6-6.6-3.2-6.8.8.5,1.3,1.1,1.8,1.6,1,1.4,1.4,3.3,1.4,6.1v11.8h0ZM657.7,92.3h0v-15.4,15.4h0Z"/>
          </g>
        </g>
        <g>
          <path class="cls-6" d="M162.2,96.2c-3.7,0-7-1-10-3-1.5-1.3-1.6-2.7-.4-4.1,1.4-1.6,2.9-1.8,4.7-.5,2,1.1,4.1,1.8,5.9,1.8s3-.4,3.9-1c.9-.6,1.4-1.6,1.4-2.8s-.4-2-1.3-2.7c-.5-.4-1.6-1-3.4-1.8h-.4l-4.6-1.9c-4.6-1.9-6.8-4.9-6.8-9.1s1.1-5.1,3.3-7c2.2-1.9,4.9-2.8,8.4-2.8s6.1.9,8.6,2.7c1.3,1.1,1.4,2.3.3,3.7-1.3,1.5-2.5,1.6-4.1.6-1.5-.8-3-1.1-4.8-1.1s-2.7.4-3.5,1-1.3,1.5-1.3,2.5.5,1.9,1.5,2.7c.6.5,1.8,1,3.5,1.6h.4l4.4,1.9c2.2.9,3.8,2,4.9,3.4,1.3,1.5,1.9,3.4,1.9,5.8s-1.1,5.2-3.3,7.1c-2.3,2-5.3,3-9.1,3h-.3Z"/>
          <path class="cls-5" d="M183.4,95.6c-2.2,0-3.3-1.1-3.3-3.3v-19.4c0-1.8,1-2.8,2.9-2.8s2.7.8,2.9,2.4v1h.4c1.3-1.3,2.4-2.3,3.4-2.9,1.4-.8,2.9-1.1,4.4-1.1,3.4,0,5.7,1.5,7,4.4,1.4-1.4,2.5-2.5,3.7-3.2,1.4-.9,2.9-1.3,4.4-1.3,2.7,0,4.7.9,5.9,2.8,1.3,1.8,1.9,4.2,1.9,7.5v12.5c0,2.2-1.1,3.3-3.3,3.3s-3.4-1.1-3.4-3.3v-11.8c0-1.9-.3-3.3-.9-4.2-.5-.8-1.4-1.1-2.7-1.1s-3,1-4.9,2.9v14.2c0,2.2-1.1,3.3-3.3,3.3s-3.4-1.1-3.4-3.3v-11.8c0-1.9-.3-3.3-.9-4.2-.5-.8-1.4-1.1-2.7-1.1s-3,1-4.9,2.9v14.2c0,2.2-1.1,3.3-3.3,3.3h0Z"/>
          <path class="cls-5" d="M230.2,96.2c-2.3,0-4.1-.8-5.4-2.2s-2.2-3.3-2.2-5.4,1.1-4.8,3.4-6.3,6.1-2.5,11.1-3c0-2.9-1.5-4.4-4.3-4.4s-2.9.4-4.6,1.1-2.8.5-3.7-1c-.8-1.4-.5-2.5.9-3.3,2.9-1.5,5.7-2.3,8.6-2.3s5.7.9,7.3,2.8,2.5,4.7,2.5,8.4v12.2c0,1.8-1,2.8-2.9,2.8s-2.7-.8-3-2.4v-.4h-.1c-2.7,2.3-5.2,3.4-7.7,3.4h0ZM232.4,91c1.6,0,3.3-.9,4.9-2.5v-5.2c-2.9.4-5.1,1-6.5,1.8-1.3.8-1.8,1.8-1.8,2.9,0,1.9,1.1,2.9,3.4,2.9h-.1Z"/>
          <path class="cls-5" d="M254.1,95.6c-2.2,0-3.3-1.1-3.3-3.3v-19.4c0-1.8.9-2.8,2.8-2.8s2.8.9,2.9,2.5v2h.4c.9-1.6,2-2.9,3.3-3.8s2.5-1.3,3.9-1.3h.6c.8,0,1.4.6,1.6,1.3s.4,1.4.1,2.3c-.4,1.9-1.5,2.8-3.2,2.4h0c-1.1,0-2.2.4-3.2,1.1-1.1.9-2,2.2-2.8,3.9v11.9c0,2.2-1.1,3.3-3.3,3.3v-.3h0Z"/>
          <path class="cls-5" d="M280,96.2c-5.6,0-8.4-3.2-8.4-9.5v-11.3h-1.1c-1.6,0-2.4-.9-2.4-2.5s.8-2.5,2.3-2.5h1.6l.5-4.4c.1-1.8,1.1-2.5,2.9-2.5s2.9.9,2.9,2.8v4.1h3.7c1.8,0,2.7.9,2.7,2.7s-.9,2.7-2.7,2.7h-3.7v11.3c0,2.9,1.1,4.3,3.4,4.3h0c1.5-.4,2.5.3,2.9,1.9.4,1.5-.1,2.5-1.5,2.9-1.1.3-2.3.4-3.4.4h.3Z"/>
          <path class="cls-6" d="M299.4,95.6c-2.3,0-3.4-1.1-3.4-3.4v-24.7h-6.7c-1.9,0-2.8-.9-2.8-2.8s.9-2.8,2.8-2.8h20.3c1.9,0,2.8.9,2.8,2.8s-.9,2.8-2.8,2.8h-6.8v24.7c0,2.3-1.1,3.4-3.4,3.4h.1Z"/>
          <path class="cls-5" d="M320.2,96.2c-2.3,0-4.1-.8-5.4-2.2-1.4-1.4-2.2-3.3-2.2-5.4s1.1-4.8,3.4-6.3,6.1-2.5,11.1-3c0-2.9-1.5-4.4-4.3-4.4s-2.9.4-4.6,1.1c-1.6.8-2.8.5-3.7-1-.8-1.4-.5-2.5.9-3.3,2.9-1.5,5.7-2.3,8.6-2.3s5.7.9,7.3,2.8,2.5,4.7,2.5,8.4v12.2c0,1.8-1,2.8-2.9,2.8s-2.7-.8-3-2.4v-.4h-.1c-2.7,2.3-5.2,3.4-7.7,3.4h0ZM322.4,91c1.6,0,3.3-.9,4.9-2.5v-5.2c-2.9.4-5.1,1-6.5,1.8-1.3.8-1.8,1.8-1.8,2.9,0,1.9,1.1,2.9,3.4,2.9h-.1Z"/>
          <path class="cls-5" d="M347,96.2c-4.2,0-6.3-2.5-6.3-7.7v-25.8c0-2.2,1.1-3.3,3.3-3.3s3.3,1.1,3.3,3.3v26.2c0,1.4.5,2,1.4,2h0c.3,0,.5,0,.6.4.1.3.3.5.4.9.1.9.1,1.6,0,2.4-.3.9-.6,1.5-1.3,1.6h-1.6.3,0Z"/>
          <path class="cls-5" d="M358.4,95.6c-2.2,0-3.3-1-3.3-3.3v-29.9c0-2.2,1.1-3.3,3.3-3.3s3.3,1,3.3,3.3v18.6h.1l7.7-9.6c.8-.9,1.8-1.4,2.9-1.4h3.8c.5,0,.9,0,.9.4s0,.5-.4.9l-7.7,9.1,7.5,11.8c.6,1,.9,1.8.5,2.4-.4.6-1.1.9-2.3.9h-1.3c-.6,0-1.1,0-1.8-.5-.5-.4-1-.8-1.4-1.3l-5.2-8.7-3.7,4.2v3.2c0,2.2-1.1,3.3-3.3,3.3h.3,0Z"/>
          <path class="cls-5" d="M386,66c-1.1,0-2.2-.4-2.9-1-.8-.6-1.1-1.5-1.1-2.7s.4-2,1.1-2.7,1.8-1,2.9-1,2.2.4,2.8,1c.8.6,1.1,1.5,1.1,2.7s-.4,1.9-1.1,2.7-1.6,1-2.8,1ZM385.9,95.6c-2.2,0-3.3-1.1-3.3-3.3v-18.9c0-2.2,1.1-3.3,3.3-3.3s3.3,1.1,3.3,3.3v18.9c0,2.2-1.1,3.3-3.3,3.3Z"/>
          <path class="cls-5" d="M399.8,95.6c-2.2,0-3.3-1.1-3.3-3.3v-19.4c0-1.8,1-2.8,2.9-2.8s2.7.8,2.9,2.4v.9h.4c2.8-2.7,5.4-4.1,8.2-4.1,5.2,0,7.8,3.4,7.8,10.3v12.5c0,2.2-1.1,3.3-3.3,3.3s-3.4-1.1-3.4-3.3v-11.8c0-1.9-.3-3.3-.9-4.2-.5-.8-1.5-1.3-2.8-1.3s-1.9.3-2.8.8c-.6.4-1.5,1.1-2.5,2.2v14.2c0,2.2-1.1,3.3-3.3,3.3v.3h0Z"/>
          <path class="cls-5" d="M434.6,106.6c-3.2,0-5.7-.5-7.6-1.6-2-1.1-3-2.8-3-4.9s1.3-3.9,3.7-5.3v-.3c-1.5-1-2.3-2.4-2.3-4.3s.3-1.8.9-2.7c.5-.8,1.1-1.5,1.9-2.2h0c-.9-.9-1.8-1.8-2.3-2.9-.8-1.3-1-2.5-1-3.9,0-2.9,1-5.2,3-6.8,1.9-1.5,4.3-2.4,7.2-2.4s2.7.3,3.8.6h6.7c1.6,0,2.4.8,2.4,2.4s-.8,2.4-2.4,2.4h-1.9c.8,1,1.1,2.3,1.1,3.9,0,2.8-1,4.9-2.9,6.5-1.8,1.5-4.1,2.2-7,2.2s-2.2-.3-3.3-.6c-.8.6-1.1,1.3-1.1,2.2s.3,1.3.9,1.5c.6.4,1.6.5,3.2.5h4.3c6.3,0,9.5,2.2,9.5,6.3s-1.3,4.8-3.7,6.5c-2.5,1.8-5.9,2.5-10.1,2.5v.5h0ZM435.5,102.4c1.9,0,3.4-.4,4.7-1.1,1.1-.8,1.8-1.5,1.8-2.7s-.4-1.5-1.1-1.8c-.6-.3-1.6-.5-3.2-.5h-3c-1.4,0-2.5,0-3.5-.4-1.1.9-1.6,1.9-1.6,2.9s.5,1.9,1.6,2.5,2.5.9,4.4.9h0ZM435,83.5c1.1,0,2.2-.4,2.8-1.3.8-.9,1.1-2,1.1-3.4s-.4-2.7-1.1-3.4-1.6-1.3-2.8-1.3-2.2.4-2.9,1.3c-.8.9-1.1,2-1.1,3.4s.4,2.7,1.1,3.4,1.6,1.3,2.8,1.3h.1Z"/>
          <path class="cls-5" d="M453.7,85c-1.5,0-2.4-.8-2.4-2.4s.8-2.4,2.4-2.4h7.7c1.5,0,2.4.8,2.4,2.4s-.8,2.4-2.4,2.4h-7.7Z"/>
          <path class="cls-6" d="M473.2,95.6c-2,0-3-1-3-3v-27.7c0-.9.3-1.6.8-2.2s1.3-.8,2.2-.8h2.2c.8,0,1.4.3,1.9.6.6.4,1,.9,1.1,1.6l4.9,13.5c.4,1,.8,2.4,1.4,4.4.3.9.5,1.6.6,2h.3c.3-.6.5-1.6,1-3,.5-1.5.8-2.8,1.1-3.5l4.8-13.5c.3-.6.6-1.1,1.1-1.6.6-.4,1.3-.6,1.9-.6h3.4c.5,0,.9,0,1.3.5s.5.8.5,1.3v28.9c0,2-1,3-3,3s-3-1-3-3v-11c0-1.9.3-5.3.8-10.3v-.8h-.1l-2.8,8-4.6,12.3c-.3.5-.5,1-1,1.3-.5.4-1,.5-1.6.5h-.1c-1.1,0-2-.5-2.4-1.6l-4.6-12.4-2.7-8h-.1c0,.4,0,.9.1,1.6.5,4.6.6,7.7.6,9.5v11c0,2-1,3-3,3h.1Z"/>
          <path class="cls-5" d="M514.8,96.2c-2.3,0-4.1-.8-5.4-2.2-1.4-1.4-2.2-3.3-2.2-5.4s1.1-4.8,3.4-6.3c2.3-1.5,6.1-2.5,11.1-3,0-2.9-1.5-4.4-4.3-4.4s-2.9.4-4.6,1.1c-1.6.8-2.8.5-3.7-1-.8-1.4-.5-2.5.9-3.3,2.9-1.5,5.7-2.3,8.6-2.3s5.7.9,7.3,2.8,2.5,4.7,2.5,8.4v12.2c0,1.8-1,2.8-2.9,2.8s-2.7-.8-3-2.4v-.4h-.1c-2.7,2.3-5.2,3.4-7.7,3.4h0ZM516.9,91c1.6,0,3.3-.9,4.9-2.5v-5.2c-2.9.4-5.1,1-6.5,1.8-1.3.8-1.8,1.8-1.8,2.9,0,1.9,1.1,2.9,3.4,2.9h-.1Z"/>
          <path class="cls-5" d="M538.7,95.6c-2.2,0-3.3-1.1-3.3-3.3v-19.4c0-1.8,1-2.8,2.9-2.8s2.7.8,2.9,2.4v.9h.4c2.8-2.7,5.4-4.1,8.2-4.1,5.2,0,7.8,3.4,7.8,10.3v12.5c0,2.2-1.1,3.3-3.3,3.3s-3.4-1.1-3.4-3.3v-11.8c0-1.9-.3-3.3-.9-4.2-.5-.8-1.5-1.3-2.8-1.3s-1.9.3-2.8.8c-.6.4-1.5,1.1-2.5,2.2v14.2c0,2.2-1.1,3.3-3.3,3.3v.3h0Z"/>
          <path class="cls-5" d="M573.5,96.2c-3.2,0-5.7-1.1-7.6-3.5-1.9-2.4-2.8-5.6-2.8-9.7s1.1-7.3,3.3-9.9c2-2.4,4.6-3.5,7.5-3.5s2.5.3,3.7.8c.9.4,1.8,1,2.8,2l-.3-4.1v-5.7c0-2.2,1.1-3.3,3.4-3.3s3.3,1.1,3.3,3.3v30.3c0,.9-.3,1.5-.8,2s-1.3.6-2.2.6c-1.6,0-2.7-.8-2.9-2.3v-.4h-.3c-2.3,2.2-4.6,3.3-7.1,3.3h-.1ZM575.3,90.8c1.8,0,3.4-.9,4.7-2.7v-11.1c-1.4-1.3-2.9-1.9-4.7-1.9s-2.8.6-3.7,2c-1,1.4-1.5,3.4-1.5,5.8s.5,4.6,1.4,5.9,2.2,2,3.9,2h-.1Z"/>
          <path class="cls-5" d="M600.1,96.2c-2.3,0-4.1-.8-5.4-2.2-1.4-1.4-2.2-3.3-2.2-5.4s1.1-4.8,3.4-6.3,6.1-2.5,11.1-3c0-2.9-1.5-4.4-4.3-4.4s-2.9.4-4.6,1.1-2.8.5-3.7-1c-.8-1.4-.5-2.5.9-3.3,2.9-1.5,5.7-2.3,8.6-2.3s5.7.9,7.3,2.8c1.6,1.9,2.5,4.7,2.5,8.4v12.2c0,1.8-1,2.8-2.9,2.8s-2.7-.8-3-2.4v-.4h0c-2.7,2.3-5.2,3.4-7.7,3.4h-.1ZM602.2,91c1.6,0,3.3-.9,4.9-2.5v-5.2c-2.9.4-5.1,1-6.5,1.8-1.3.8-1.8,1.8-1.8,2.9,0,1.9,1.1,2.9,3.4,2.9h-.1Z"/>
          <path class="cls-5" d="M624,95.6c-2.2,0-3.3-1.1-3.3-3.3v-19.4c0-1.8.9-2.8,2.8-2.8s2.8.9,2.9,2.5v2h.4c.9-1.6,2-2.9,3.3-3.8s2.5-1.3,3.9-1.3h.6c.8,0,1.4.6,1.6,1.3s.4,1.4,0,2.3c-.4,1.9-1.5,2.8-3.2,2.4h0c-1.1,0-2.2.4-3.2,1.1-1.1.9-2,2.2-2.8,3.9v11.9c0,2.2-1.1,3.3-3.3,3.3v-.3h.1Z"/>
          <path class="cls-5" d="M643.9,66c-1.1,0-2.2-.4-2.9-1s-1.1-1.5-1.1-2.7.4-2,1.1-2.7c.8-.6,1.8-1,2.9-1s2.2.4,2.8,1c.8.6,1.1,1.5,1.1,2.7s-.4,1.9-1.1,2.7c-.8.8-1.6,1-2.8,1ZM643.9,95.6c-2.2,0-3.3-1.1-3.3-3.3v-18.9c0-2.2,1.1-3.3,3.3-3.3s3.3,1.1,3.3,3.3v18.9c0,2.2-1.1,3.3-3.3,3.3Z"/>
          <path class="cls-5" d="M657.7,95.6c-2.2,0-3.3-1.1-3.3-3.3v-19.4c0-1.8,1-2.8,2.9-2.8s2.7.8,2.9,2.4v.9h.4c2.8-2.7,5.4-4.1,8.2-4.1,5.2,0,7.8,3.4,7.8,10.3v12.5c0,2.2-1.1,3.3-3.3,3.3s-3.4-1.1-3.4-3.3v-11.8c0-1.9-.3-3.3-.9-4.2-.5-.8-1.5-1.3-2.8-1.3s-1.9.3-2.8.8c-.6.4-1.5,1.1-2.5,2.2v14.2c0,2.2-1.1,3.3-3.3,3.3v.3h0Z"/>
        </g>
      </g>
    </g>
  </g>
</svg>