<?xml version="1.0" encoding="UTF-8"?>
<svg xmlns="http://www.w3.org/2000/svg" version="1.1" viewBox="0 0 286.3 182.2">
  <defs>
    <style>
      .cls-1 {
        fill: none;
        stroke: #fff;
        stroke-miterlimit: 10;
        stroke-width: 5.2px;
      }

      .cls-2 {
        fill: #24345d;
      }

      .cls-3 {
        fill: #fff;
      }

      .cls-4 {
        fill: #aeb3b8;
      }

      .cls-5 {
        fill: #314675;
      }

      .cls-6 {
        fill: #4dbcbc;
      }

      .cls-7 {
        fill: #e2e3e3;
      }
    </style>
  </defs>
  <!-- Generator: Adobe Illustrator 28.7.7, SVG Export Plug-In . SVG Version: 1.2.0 Build 194)  -->
  <g>
    <g id="_圖層_1" data-name="圖層_1">
      <g>
        <g>
          <g>
            <path class="cls-2" d="M206.7,67.8c-.7-.6-1.1-1-1.8-1.4-1.7-7.5-5.3-13.8-11.1-18.3-1.9-2.3-4.2-4.2-7.3-5.8-11.1-6.7-30.4-6-45.1-6s-34-.6-45.1,6c-8.4,4.3-11.8,11.6-13.1,21-1,.5-1.9,1-2.7,1.7-3.7,2.9-6,7.2-6.1,11.9,0,4.6,1.9,9,5.2,12.1,1.3,1.2,2.8,2.1,4.4,2.8,1.3,5.1,3.5,9.6,7.1,13,2.1,2.7,4.7,5,8,6.7,8.7,5.2,22.5,5.9,35.1,6,2.7,11.6,5.9,20.5,8,20.5s.3,0,.4,0c.9,2,1.8,3.1,2.6,3.1,2.6,0,6.1-10.5,8.9-23.5,12.6,0,26.4-.8,35.2-6,7.6-3.9,12.2-10.9,14.6-19.1,0,.2.1.4.2.6,1.2-.5.6-.3,1.7-1.1,3.7-2.9,6-7.2,6.1-11.9.1-4.6-1.9-9-5.2-12.1v-.2h0Z"/>
            <path class="cls-3" d="M145.2,143.5c-1.9,0-3.2-1.5-4.2-3.1-1.9-.6-4.8-3.8-8.9-20.4-12.8-.2-25.7-1.2-34.3-6.3-3.4-1.8-6.3-4.2-8.7-7.2-3.4-3.3-5.9-7.6-7.4-12.9-1.5-.7-2.8-1.7-3.9-2.7-4-3.7-6.1-8.8-6.1-14.1.2-5.4,2.8-10.5,7.1-13.9.6-.5,1.2-.9,1.9-1.3,1.8-10.6,6.3-17.5,14.3-21.6,10.8-6.4,28.4-6.4,42.5-6.4h7.8c14.1,0,31.7,0,42.5,6.3,3.1,1.6,5.7,3.7,7.8,6.2,5.8,4.5,9.7,10.7,11.6,18.6.4.3.8.7,1.3,1.1,4,3.6,6.3,8.8,6.1,14.1-.2,5.4-2.8,10.5-7.1,13.9-.2.2-.3.3-.4.4-.4.4-.7.6-1.2.8-3,8.6-8.2,15-15.3,18.7-8.7,5.1-21.5,6.2-34.3,6.3-5.3,23.5-9.2,23.5-11,23.5h-.1ZM143.9,134.5l1.1,2.2c0,.2.2.5.3.6,1.4-2.5,3.8-9,6.3-20.4l.4-2h2.1c12.8,0,25.8-.8,33.8-5.7h.2c8-4.2,11.7-11.9,13.3-17.6l2.4-8.3,1.7,5.2c2.3-2.4,3.7-5.5,3.8-8.7.1-3.8-1.5-7.4-4.4-10h0c-.7-.6-.9-.8-1.5-1.2l-.9-.6-.2-1.1c-1.6-7.2-5-12.8-10.1-16.8l-.3-.2-.2-.2c-1.7-2.1-3.8-3.8-6.4-5.1h-.2c-9.5-5.8-26.4-5.8-39.9-5.7h-7.8c-13.5,0-30.4,0-39.9,5.7h-.2c-6.8,3.6-10.4,9.4-11.7,19.1l-.2,1.4-1.2.6c-.9.5-1.6.9-2.3,1.4-3.1,2.4-5,6-5.1,9.9,0,3.8,1.5,7.4,4.4,10,1.1,1,2.3,1.7,3.7,2.4l1.2.5.3,1.3c1.3,5,3.3,8.9,6.4,11.8l.3.3c1.9,2.5,4.3,4.5,7.1,5.9h.2c8,4.9,21,5.6,33.8,5.7h2.1l.5,2c2.7,11.3,4.8,16.4,5.9,18.2l1.2-.5h0Z"/>
          </g>
          <g>
            <path class="cls-5" d="M84.7,92c-1.9-.7-3.7-1.8-5.2-3.1-3.4-3-5.4-7.4-5.2-12.1,0-4.7,2.4-9,6.1-11.9,1-.8,2.2-1.5,3.4-2,10.1,14.8.8,29.1.8,29.1h0Z"/>
            <path class="cls-2" d="M84.7,92c-1.9-.7-3.7-1.8-5.2-3.1.3-3.6.6-7.4.8-11.4.2-4.4.2-8.6,0-12.5,1-.8,2.2-1.5,3.4-2,.3,9.7.6,19.4.8,29.1h0Z"/>
          </g>
          <g>
            <path class="cls-4" d="M145.2,50.9c-2.9,0-5.5,1.2-7.7,3.8h0c-1,1.1-1.9,2.5-2.6,4.2-2.2,4.7-3.5,11.5-3.5,20.8s.8,13.7,2.1,21.7c3,19.1,8.5,39.5,11.8,39.5s9.1-20.8,11.9-40.1c1.2-7.8,1.9-15.3,1.9-21.1,0-20.1-6.2-28.8-13.8-28.8h-.1Z"/>
            <path class="cls-4" d="M205.9,77.8c0,13.9-4.8,27.6-16.6,33.6-11.1,6.7-30.4,6-45.1,6s-34,.6-45.1-6c-11.8-6-15.3-19.4-13.9-33-1.5-13.7,2.1-27,13.9-33,11.1-6.7,30.4-6,45.1-6s34-.6,45.1,6c11.8,6,16.9,18.1,16.6,32.4Z"/>
          </g>
          <path class="cls-7" d="M142.3,47.9c-2.9,0-5.5,1.2-7.7,3.8h0c-1,1.1-1.9,2.5-2.6,4.2h0c-2.2,4.7-3.5,11.5-3.5,20.8s.8,13.7,2.1,21.7c3,19.1,8.5,39.5,11.8,39.5s9.1-20.8,11.9-40.1c1.2-7.8,1.9-15.3,1.9-21.1,0-20.1-6.2-28.8-13.8-28.8h0ZM142.7,107c-.8,0-1.4-1.6-1.4-3.6s.6-3.6,1.4-3.6,1.4,1.6,1.4,3.6-.6,3.6-1.4,3.6ZM152,92c-2.2,2.4-6.4,2.4-9.8,2.4s-7.6,0-9.8-2.4-3.1-17-2.1-21.9,6.7-8.2,11.9-8.2,10.9,3.3,11.9,8.2,0,19.5-2.1,21.9Z"/>
          <path class="cls-7" d="M200.4,75.4c.3,14.3-2.1,27-13.9,33.1-11.1,6.7-30.4,6-45.1,6s-34,.6-45.1-6c-11.8-6-14-19-13.9-33,0-15.1,2.1-27,13.9-33,11.1-6.7,30.4-6,45.1-6s34-.6,45.1,6c11.8,6,13.6,17.9,13.9,33h0Z"/>
          <path class="cls-5" d="M186.7,75.8c0,16.9-10.4,30.7-23.3,30.7h-42.2c-12.9,0-23.3-13.7-23.3-30.7h0c0-16.9,10.4-30.7,23.3-30.7h42.2c12.9,0,23.3,13.7,23.3,30.7h0Z"/>
          <path class="cls-6" d="M150.6,86.4c0,4.7-3.8,8.5-8.5,8.5s-8.5-3.8-8.5-8.5h17Z"/>
          <g>
            <g>
              <g>
                <path class="cls-5" d="M128.3,24.7h-.3c-4.1-2.2-6.7-6.5-6.7-11.2s2.3-8.5,6.1-10.8c.4-.2.8,0,1,.3.2.4,0,.8-.3,1-3.4,2-5.4,5.6-5.4,9.5s2.3,7.9,5.9,9.8c.4.2.5.6.3,1,0,.2-.4.4-.7.4h.1Z"/>
                <path class="cls-3" d="M128.3,27.4c-.6,0-1.1-.1-1.6-.4-5-2.7-8.1-7.8-8.1-13.5s2.7-10.3,7.4-13c1.6-1,3.7-.4,4.6,1.1,1,1.6.5,3.7-1.1,4.6-2.6,1.6-4.1,4.3-4.1,7.3s1.7,6,4.5,7.5c1.6.9,2.3,2.9,1.4,4.5-.6,1.1-1.7,1.8-3,1.8h0ZM129.2,22.3h0Z"/>
              </g>
              <g>
                <path class="cls-5" d="M129.4,20.4c-.2,0-.4,0-.5-.2-2-1.8-3.1-4.1-3.1-6.5s1.1-4.8,3.2-6.6c.3-.3.8-.2,1.1,0,.3.3.2.8,0,1-1.7,1.5-2.7,3.4-2.7,5.4s.9,3.9,2.6,5.4c.3.3.3.7,0,1,0,.2-.3.2-.6.2v.3Z"/>
                <path class="cls-3" d="M129.4,23c-.8,0-1.6-.3-2.3-.9-2.6-2.3-4-5.3-4-8.4s1.4-6.2,4.1-8.5c1.4-1.2,3.5-1.1,4.7.3.6.7.9,1.5.8,2.4,0,.9-.5,1.7-1.1,2.3-1.2,1-1.8,2.2-1.8,3.5s.6,2.4,1.7,3.4c.7.6,1.1,1.4,1.1,2.3s-.3,1.8-.8,2.4c-.6.7-1.5,1.1-2.5,1.1h0ZM130.7,18.2h0Z"/>
              </g>
            </g>
            <g>
              <g>
                <path class="cls-5" d="M155,24.7h.3c4.1-2.2,6.7-6.5,6.7-11.2s-2.3-8.5-6.1-10.8c-.4-.2-.8,0-1,.3-.2.4,0,.8.3,1,3.4,2,5.4,5.6,5.4,9.5s-2.3,7.9-5.9,9.8c-.4.2-.5.6-.3,1,0,.2.4.4.7.4h0Z"/>
                <path class="cls-3" d="M155,27.4c-1.2,0-2.4-.7-3-1.8-.4-.8-.5-1.7-.3-2.6.3-.9.8-1.6,1.6-2,2.8-1.5,4.5-4.4,4.5-7.5s-1.5-5.7-4.1-7.3c-.8-.5-1.3-1.2-1.5-2.1s0-1.8.4-2.5c1-1.6,3-2.1,4.6-1.1,4.6,2.8,7.4,7.7,7.4,13.1s-3.1,10.8-8.1,13.5c-.5.3-1,.4-1.6.4h0ZM154.1,22.3h0ZM156.5,1.7h0Z"/>
              </g>
              <g>
                <path class="cls-5" d="M153.8,20.4c.2,0,.4,0,.5-.2,2-1.8,3.1-4.1,3.1-6.5s-1.1-4.8-3.2-6.6c-.3-.3-.8-.2-1,0-.3.3-.2.8,0,1,1.7,1.5,2.7,3.4,2.7,5.4s-.9,3.9-2.6,5.4c-.3.3-.3.7,0,1,0,.2.3.2.6.2v.3h0Z"/>
                <path class="cls-3" d="M153.8,23c-1,0-1.9-.4-2.5-1.1-1.2-1.4-1.1-3.5.3-4.7,1.1-1,1.8-2.2,1.8-3.4s-.6-2.5-1.8-3.5c-.7-.6-1.1-1.4-1.1-2.3s.2-1.8.8-2.4c.6-.7,1.4-1.1,2.3-1.1s1.8.2,2.4.8c2.6,2.3,4.1,5.3,4.1,8.5s-1.4,6.2-4,8.5c-.6.5-1.4.9-2.2.9v-.2h-.1ZM152.6,18.2h0ZM155,6.3h0Z"/>
              </g>
            </g>
            <g>
              <path class="cls-5" d="M142.5,6.7h-.9c-3.6,0-6.5,2.9-6.5,6.5v.9c0,3.3,2.5,6,5.6,6.4l-1.8,15.4c0,1.8,1.4,3.2,3.2,3.2s3.2-1.4,3.2-3.2l-1.8-15.4c3.2-.4,5.6-3.1,5.6-6.4v-.9c0-3.6-2.9-6.5-6.5-6.5h0Z"/>
              <path class="cls-3" d="M142,41.8c-3.2,0-5.8-2.6-5.8-5.8v-.3l1.6-13.2c-3.2-1.4-5.4-4.7-5.4-8.3v-.9c0-5,4.1-9.1,9.1-9.1h.9c5,0,9.1,4.1,9.1,9.1v.9c0,3.7-2.2,6.9-5.4,8.3l1.6,13.5c0,3.2-2.6,5.8-5.8,5.8h.1ZM141.5,36.1c0,.3.3.5.6.5s.5-.2.6-.5l-.6-4.7-.6,4.7ZM141.6,9.3c-2.1,0-3.9,1.7-3.9,3.9v.9c0,1.9,1.5,3.6,3.4,3.9h1c0,.1,1,0,1,0,1.9-.3,3.4-1.9,3.4-3.9v-.9c0-2.1-1.7-3.9-3.9-3.9,0,0-1,0-1,0Z"/>
            </g>
            <g>
              <g>
                <path class="cls-5" d="M128.3,24.7h-.3c-4.1-2.2-6.7-6.5-6.7-11.2s2.3-8.5,6.1-10.8c.4-.2.8,0,1,.3.2.4,0,.8-.3,1-3.4,2-5.4,5.6-5.4,9.5s2.3,7.9,5.9,9.8c.4.2.5.6.3,1,0,.2-.4.4-.7.4h.1Z"/>
                <path class="cls-5" d="M129.4,20.4c-.2,0-.4,0-.5-.2-2-1.8-3.1-4.1-3.1-6.5s1.1-4.8,3.2-6.6c.3-.3.8-.2,1.1,0,.3.3.2.8,0,1-1.7,1.5-2.7,3.4-2.7,5.4s.9,3.9,2.6,5.4c.3.3.3.7,0,1,0,.2-.3.2-.6.2v.3Z"/>
              </g>
              <g>
                <path class="cls-5" d="M155,24.7h.3c4.1-2.2,6.7-6.5,6.7-11.2s-2.3-8.5-6.1-10.8c-.4-.2-.8,0-1,.3-.2.4,0,.8.3,1,3.4,2,5.4,5.6,5.4,9.5s-2.3,7.9-5.9,9.8c-.4.2-.5.6-.3,1,0,.2.4.4.7.4h0Z"/>
                <path class="cls-5" d="M153.8,20.4c.2,0,.4,0,.5-.2,2-1.8,3.1-4.1,3.1-6.5s-1.1-4.8-3.2-6.6c-.3-.3-.8-.2-1,0-.3.3-.2.8,0,1,1.7,1.5,2.7,3.4,2.7,5.4s-.9,3.9-2.6,5.4c-.3.3-.3.7,0,1,0,.2.3.2.6.2v.3h0Z"/>
              </g>
              <path class="cls-5" d="M145.2,36c0,1.8-1.4,3.2-3.2,3.2h0c-1.8,0-3.2-1.4-3.2-3.2l2-16.9c0-1.8-.6-3.2,1.2-3.2h0c1.8,0,1.2,1.4,1.2,3.2l2,16.9Z"/>
              <path class="cls-5" d="M141.6,6.7h.9c3.6,0,6.5,2.9,6.5,6.5v.9c0,3.6-2.9,6.5-6.5,6.5h-.9c-3.6,0-6.5-2.9-6.5-6.5v-.9c0-3.6,2.9-6.5,6.5-6.5Z"/>
            </g>
          </g>
          <path class="cls-6" d="M129.5,72.3c0,1.9-1.5,3.4-3.4,3.4h0c-1.9,0-3.4-1.5-3.4-3.4v-8.7c0-1.9,1.5-3.4,3.4-3.4h0c1.9,0,3.4,1.5,3.4,3.4v8.7Z"/>
          <path class="cls-6" d="M159.6,72.3c0,1.9-1.5,3.4-3.4,3.4h0c-1.9,0-3.4-1.5-3.4-3.4v-8.7c0-1.9,1.5-3.4,3.4-3.4h0c1.9,0,3.4,1.5,3.4,3.4v8.7Z"/>
          <g>
            <path class="cls-5" d="M206.7,67.8c-.3,3.6-.6,7.4-.8,11.4-.2,4.4-.2,8.6-.1,12.5,3.7-2.9,6-7.2,6.1-11.9.1-4.6-1.9-9-5.2-12.1h0Z"/>
            <path class="cls-2" d="M206.7,67.8c-.8-.7-1.1-1-2-1.6-.8-.5-5.2,12.5-.5,26.6,1.2-.5.6-.3,1.7-1.1,0-4,0-8.2.1-12.5.2-4,.4-7.8.8-11.4h-.1Z"/>
          </g>
        </g>
        <g>
          <g>
            <g>
              <path class="cls-6" d="M8.6,174.1c-2,0-3.7-.5-5.3-1.6-.8-.7-.9-1.4-.2-2.2.7-.9,1.6-.9,2.5-.3,1.1.6,2.2.9,3.2.9s1.6-.2,2.1-.5c.5-.3.7-.9.7-1.5s-.2-1.1-.7-1.4c-.3-.2-.9-.5-1.8-.9h-.2l-2.4-1c-2.4-1-3.7-2.6-3.7-4.8s.6-2.7,1.8-3.7c1.2-1,2.6-1.5,4.5-1.5s3.2.5,4.6,1.4c.7.6.7,1.2.1,2-.7.8-1.4.9-2.2.3-.8-.4-1.6-.6-2.6-.6s-1.4.2-1.9.5-.7.8-.7,1.3.3,1,.8,1.4c.3.3.9.5,1.9.9h.2l2.4,1c1.2.5,2,1.1,2.6,1.8.7.8,1,1.8,1,3.1s-.6,2.8-1.8,3.8c-1.2,1.1-2.8,1.6-4.9,1.6h-.1Z"/>
              <path class="cls-1" d="M8.6,174.1c-2,0-3.7-.5-5.3-1.6-.8-.7-.9-1.4-.2-2.2.7-.9,1.6-.9,2.5-.3,1.1.6,2.2.9,3.2.9s1.6-.2,2.1-.5c.5-.3.7-.9.7-1.5s-.2-1.1-.7-1.4c-.3-.2-.9-.5-1.8-.9h-.2l-2.4-1c-2.4-1-3.7-2.6-3.7-4.8s.6-2.7,1.8-3.7c1.2-1,2.6-1.5,4.5-1.5s3.2.5,4.6,1.4c.7.6.7,1.2.1,2-.7.8-1.4.9-2.2.3-.8-.4-1.6-.6-2.6-.6s-1.4.2-1.9.5-.7.8-.7,1.3.3,1,.8,1.4c.3.3.9.5,1.9.9h.2l2.4,1c1.2.5,2,1.1,2.6,1.8.7.8,1,1.8,1,3.1s-.6,2.8-1.8,3.8c-1.2,1.1-2.8,1.6-4.9,1.6h-.1Z"/>
            </g>
            <g>
              <path class="cls-5" d="M19.9,173.7c-1.2,0-1.8-.6-1.8-1.8v-10.3c0-.9.5-1.5,1.6-1.5s1.4.4,1.6,1.3v.5h.2c.7-.7,1.3-1.2,1.8-1.5.7-.4,1.6-.6,2.4-.6,1.8,0,3,.8,3.7,2.4.7-.7,1.4-1.3,2-1.7.7-.5,1.6-.7,2.4-.7,1.4,0,2.5.5,3.2,1.5.7.9,1,2.2,1,4v6.7c0,1.1-.6,1.8-1.8,1.8s-1.8-.6-1.8-1.8v-6.3c0-1-.1-1.8-.5-2.2-.3-.4-.7-.6-1.4-.6s-1.6.5-2.6,1.5v7.5c0,1.1-.6,1.8-1.8,1.8s-1.8-.6-1.8-1.8v-6.3c0-1-.1-1.8-.5-2.2-.3-.4-.7-.6-1.4-.6s-1.6.5-2.6,1.5v7.5c0,1.1-.6,1.8-1.8,1.8h0Z"/>
              <path class="cls-1" d="M19.9,173.7c-1.2,0-1.8-.6-1.8-1.8v-10.3c0-.9.5-1.5,1.6-1.5s1.4.4,1.6,1.3v.5h.2c.7-.7,1.3-1.2,1.8-1.5.7-.4,1.6-.6,2.4-.6,1.8,0,3,.8,3.7,2.4.7-.7,1.4-1.3,2-1.7.7-.5,1.6-.7,2.4-.7,1.4,0,2.5.5,3.2,1.5.7.9,1,2.2,1,4v6.7c0,1.1-.6,1.8-1.8,1.8s-1.8-.6-1.8-1.8v-6.3c0-1-.1-1.8-.5-2.2-.3-.4-.7-.6-1.4-.6s-1.6.5-2.6,1.5v7.5c0,1.1-.6,1.8-1.8,1.8s-1.8-.6-1.8-1.8v-6.3c0-1-.1-1.8-.5-2.2-.3-.4-.7-.6-1.4-.6s-1.6.5-2.6,1.5v7.5c0,1.1-.6,1.8-1.8,1.8h0Z"/>
            </g>
            <g>
              <path class="cls-5" d="M45,174.1c-1.2,0-2.2-.4-2.9-1.1s-1.2-1.8-1.2-2.9.6-2.6,1.8-3.4,3.2-1.3,6-1.6c0-1.5-.8-2.4-2.3-2.4s-1.6.2-2.4.6-1.5.3-2-.5c-.4-.7-.3-1.3.5-1.8,1.6-.8,3-1.2,4.6-1.2s3,.5,3.9,1.5,1.4,2.5,1.4,4.4v6.5c0,.9-.5,1.5-1.6,1.5s-1.4-.4-1.6-1.3v-.2h0c-1.4,1.2-2.8,1.8-4.1,1.8h0ZM46.1,171.3c.9,0,1.8-.5,2.6-1.3v-2.8c-1.6.2-2.7.5-3.5.9-.7.4-.9.9-.9,1.5,0,1,.6,1.5,1.8,1.5h0Z"/>
              <path class="cls-1" d="M45,174.1c-1.2,0-2.2-.4-2.9-1.1s-1.2-1.8-1.2-2.9.6-2.6,1.8-3.4,3.2-1.3,6-1.6c0-1.5-.8-2.4-2.3-2.4s-1.6.2-2.4.6-1.5.3-2-.5c-.4-.7-.3-1.3.5-1.8,1.6-.8,3-1.2,4.6-1.2s3,.5,3.9,1.5,1.4,2.5,1.4,4.4v6.5c0,.9-.5,1.5-1.6,1.5s-1.4-.4-1.6-1.3v-.2h0c-1.4,1.2-2.8,1.8-4.1,1.8h0ZM46.1,171.3c.9,0,1.8-.5,2.6-1.3v-2.8c-1.6.2-2.7.5-3.5.9-.7.4-.9.9-.9,1.5,0,1,.6,1.5,1.8,1.5h0Z"/>
            </g>
            <g>
              <path class="cls-5" d="M57.7,173.7c-1.2,0-1.8-.6-1.8-1.8v-10.3c0-.9.5-1.5,1.5-1.5s1.5.5,1.6,1.3v1.1h.2c.5-.9,1.1-1.5,1.8-2s1.4-.7,2.1-.7h.3c.4,0,.7.3.9.7s.2.7,0,1.2c-.2,1-.8,1.5-1.7,1.3h0c-.6,0-1.2.2-1.7.6-.6.5-1.1,1.1-1.5,2.1v6.3c0,1.1-.6,1.8-1.8,1.8h0q0-.1,0-.1Z"/>
              <path class="cls-1" d="M57.7,173.7c-1.2,0-1.8-.6-1.8-1.8v-10.3c0-.9.5-1.5,1.5-1.5s1.5.5,1.6,1.3v1.1h.2c.5-.9,1.1-1.5,1.8-2s1.4-.7,2.1-.7h.3c.4,0,.7.3.9.7s.2.7,0,1.2c-.2,1-.8,1.5-1.7,1.3h0c-.6,0-1.2.2-1.7.6-.6.5-1.1,1.1-1.5,2.1v6.3c0,1.1-.6,1.8-1.8,1.8h0q0-.1,0-.1Z"/>
            </g>
            <g>
              <path class="cls-5" d="M71.6,174.1c-3,0-4.5-1.7-4.5-5v-6h-.6c-.9,0-1.3-.5-1.3-1.3s.4-1.3,1.2-1.3h.9l.3-2.4c0-.9.6-1.3,1.6-1.3s1.6.5,1.6,1.5v2.2h2c.9,0,1.4.5,1.4,1.4s-.5,1.4-1.4,1.4h-2v6c0,1.5.6,2.3,1.8,2.3h0c.8-.2,1.4.1,1.6,1,.2.8,0,1.3-.8,1.5-.6.1-1.2.2-1.8.2h.1Z"/>
              <path class="cls-1" d="M71.6,174.1c-3,0-4.5-1.7-4.5-5v-6h-.6c-.9,0-1.3-.5-1.3-1.3s.4-1.3,1.2-1.3h.9l.3-2.4c0-.9.6-1.3,1.6-1.3s1.6.5,1.6,1.5v2.2h2c.9,0,1.4.5,1.4,1.4s-.5,1.4-1.4,1.4h-2v6c0,1.5.6,2.3,1.8,2.3h0c.8-.2,1.4.1,1.6,1,.2.8,0,1.3-.8,1.5-.6.1-1.2.2-1.8.2h.1Z"/>
            </g>
            <g>
              <path class="cls-6" d="M82,173.7c-1.2,0-1.8-.6-1.8-1.8v-13.1h-3.6c-1,0-1.5-.5-1.5-1.5s.5-1.5,1.5-1.5h10.8c1,0,1.5.5,1.5,1.5s-.5,1.5-1.5,1.5h-3.7v13.1c0,1.2-.6,1.8-1.8,1.8h0Z"/>
              <path class="cls-1" d="M82,173.7c-1.2,0-1.8-.6-1.8-1.8v-13.1h-3.6c-1,0-1.5-.5-1.5-1.5s.5-1.5,1.5-1.5h10.8c1,0,1.5.5,1.5,1.5s-.5,1.5-1.5,1.5h-3.7v13.1c0,1.2-.6,1.8-1.8,1.8h0Z"/>
            </g>
            <g>
              <path class="cls-5" d="M93.1,174.1c-1.2,0-2.2-.4-2.9-1.1-.7-.7-1.2-1.8-1.2-2.9s.6-2.6,1.8-3.4,3.2-1.3,6-1.6c0-1.5-.8-2.4-2.3-2.4s-1.6.2-2.4.6c-.9.4-1.5.3-2-.5-.4-.7-.3-1.3.5-1.8,1.6-.8,3-1.2,4.6-1.2s3,.5,3.9,1.5,1.4,2.5,1.4,4.4v6.5c0,.9-.5,1.5-1.6,1.5s-1.4-.4-1.6-1.3v-.2h0c-1.4,1.2-2.8,1.8-4.1,1.8h0ZM94.2,171.3c.9,0,1.8-.5,2.6-1.3v-2.8c-1.6.2-2.7.5-3.5.9-.7.4-.9.9-.9,1.5,0,1,.6,1.5,1.8,1.5h0Z"/>
              <path class="cls-1" d="M93.1,174.1c-1.2,0-2.2-.4-2.9-1.1-.7-.7-1.2-1.8-1.2-2.9s.6-2.6,1.8-3.4,3.2-1.3,6-1.6c0-1.5-.8-2.4-2.3-2.4s-1.6.2-2.4.6c-.9.4-1.5.3-2-.5-.4-.7-.3-1.3.5-1.8,1.6-.8,3-1.2,4.6-1.2s3,.5,3.9,1.5,1.4,2.5,1.4,4.4v6.5c0,.9-.5,1.5-1.6,1.5s-1.4-.4-1.6-1.3v-.2h0c-1.4,1.2-2.8,1.8-4.1,1.8h0ZM94.2,171.3c.9,0,1.8-.5,2.6-1.3v-2.8c-1.6.2-2.7.5-3.5.9-.7.4-.9.9-.9,1.5,0,1,.6,1.5,1.8,1.5h0Z"/>
            </g>
            <g>
              <path class="cls-5" d="M107.4,174.1c-2.2,0-3.4-1.3-3.4-4.1v-13.7c0-1.1.6-1.8,1.8-1.8s1.8.6,1.8,1.8v13.9c0,.7.3,1.1.7,1.1h0c.1,0,.3,0,.3.2,0,.1.1.3.2.5,0,.5,0,.9,0,1.3-.1.5-.3.8-.7.9h-.9.1,0Z"/>
              <path class="cls-1" d="M107.4,174.1c-2.2,0-3.4-1.3-3.4-4.1v-13.7c0-1.1.6-1.8,1.8-1.8s1.8.6,1.8,1.8v13.9c0,.7.3,1.1.7,1.1h0c.1,0,.3,0,.3.2,0,.1.1.3.2.5,0,.5,0,.9,0,1.3-.1.5-.3.8-.7.9h-.9.1,0Z"/>
            </g>
            <g>
              <path class="cls-5" d="M113.5,173.7c-1.2,0-1.8-.5-1.8-1.8v-15.9c0-1.1.6-1.8,1.8-1.8s1.8.5,1.8,1.8v9.9h0l4.1-5.1c.4-.5.9-.7,1.6-.7h2c.3,0,.5,0,.5.2s0,.3-.2.5l-4.1,4.8,4,6.3c.3.5.5.9.3,1.3-.2.3-.6.5-1.2.5h-.7c-.3,0-.6,0-.9-.3-.3-.2-.5-.4-.7-.7l-2.8-4.6-2,2.2v1.7c0,1.1-.6,1.8-1.8,1.8h.1,0Z"/>
              <path class="cls-1" d="M113.5,173.7c-1.2,0-1.8-.5-1.8-1.8v-15.9c0-1.1.6-1.8,1.8-1.8s1.8.5,1.8,1.8v9.9h0l4.1-5.1c.4-.5.9-.7,1.6-.7h2c.3,0,.5,0,.5.2s0,.3-.2.5l-4.1,4.8,4,6.3c.3.5.5.9.3,1.3-.2.3-.6.5-1.2.5h-.7c-.3,0-.6,0-.9-.3-.3-.2-.5-.4-.7-.7l-2.8-4.6-2,2.2v1.7c0,1.1-.6,1.8-1.8,1.8h.1,0Z"/>
            </g>
            <g>
              <path class="cls-5" d="M128.3,158c-.6,0-1.2-.2-1.6-.5-.4-.3-.6-.8-.6-1.4s.2-1.1.6-1.4.9-.5,1.6-.5,1.2.2,1.5.5c.4.3.6.8.6,1.4s-.2,1-.6,1.4-.9.5-1.5.5ZM128.3,173.7c-1.2,0-1.8-.6-1.8-1.8v-10c0-1.1.6-1.8,1.8-1.8s1.8.6,1.8,1.8v10c0,1.1-.6,1.8-1.8,1.8Z"/>
              <path class="cls-1" d="M128.3,158c-.6,0-1.2-.2-1.6-.5-.4-.3-.6-.8-.6-1.4s.2-1.1.6-1.4.9-.5,1.6-.5,1.2.2,1.5.5c.4.3.6.8.6,1.4s-.2,1-.6,1.4-.9.5-1.5.5ZM128.3,173.7c-1.2,0-1.8-.6-1.8-1.8v-10c0-1.1.6-1.8,1.8-1.8s1.8.6,1.8,1.8v10c0,1.1-.6,1.8-1.8,1.8Z"/>
            </g>
            <g>
              <path class="cls-5" d="M135.6,173.7c-1.2,0-1.8-.6-1.8-1.8v-10.3c0-.9.5-1.5,1.6-1.5s1.4.4,1.6,1.3v.5h.2c1.5-1.4,2.9-2.2,4.4-2.2,2.8,0,4.2,1.8,4.2,5.5v6.7c0,1.1-.6,1.8-1.8,1.8s-1.8-.6-1.8-1.8v-6.3c0-1-.1-1.8-.5-2.2-.3-.4-.8-.7-1.5-.7s-1,.1-1.5.4c-.3.2-.8.6-1.4,1.1v7.5c0,1.1-.6,1.8-1.8,1.8h0q0,.1,0,.1Z"/>
              <path class="cls-1" d="M135.6,173.7c-1.2,0-1.8-.6-1.8-1.8v-10.3c0-.9.5-1.5,1.6-1.5s1.4.4,1.6,1.3v.5h.2c1.5-1.4,2.9-2.2,4.4-2.2,2.8,0,4.2,1.8,4.2,5.5v6.7c0,1.1-.6,1.8-1.8,1.8s-1.8-.6-1.8-1.8v-6.3c0-1-.1-1.8-.5-2.2-.3-.4-.8-.7-1.5-.7s-1,.1-1.5.4c-.3.2-.8.6-1.4,1.1v7.5c0,1.1-.6,1.8-1.8,1.8h0q0,.1,0,.1Z"/>
            </g>
            <g>
              <path class="cls-5" d="M154.3,179.6c-1.7,0-3-.3-4.1-.9-1.1-.6-1.6-1.5-1.6-2.6s.7-2.1,2-2.8h0c-.8-.7-1.2-1.4-1.2-2.4s.1-.9.5-1.4c.3-.4.6-.8,1-1.1h0c-.5-.5-.9-.9-1.2-1.5-.4-.7-.5-1.3-.5-2.1,0-1.5.5-2.8,1.6-3.6,1-.8,2.3-1.3,3.9-1.3s1.4.1,2,.3h3.6c.9,0,1.3.4,1.3,1.3s-.4,1.3-1.3,1.3h-1c.4.5.6,1.2.6,2.1,0,1.5-.5,2.6-1.6,3.4-.9.8-2.2,1.1-3.7,1.1s-1.2-.1-1.8-.3c-.4.3-.6.7-.6,1.1s.1.7.5.8c.3.2.9.3,1.7.3h2.3c3.4,0,5.1,1.1,5.1,3.4s-.7,2.6-2,3.4c-1.4.9-3.2,1.3-5.4,1.3v.3h0ZM154.8,177.4c1,0,1.8-.2,2.5-.6.6-.4.9-.8.9-1.4s-.2-.8-.6-.9c-.3-.1-.9-.3-1.7-.3h-1.6c-.7,0-1.4,0-1.9-.2-.6.5-.9,1-.9,1.5s.3,1,.9,1.3,1.4.5,2.4.5h0ZM154.5,167.3c.6,0,1.2-.2,1.5-.7.4-.5.6-1.1.6-1.8s-.2-1.4-.6-1.8-.9-.7-1.5-.7-1.2.2-1.6.7c-.4.5-.6,1.1-.6,1.8s.2,1.4.6,1.8.9.7,1.5.7h0Z"/>
              <path class="cls-1" d="M154.3,179.6c-1.7,0-3-.3-4.1-.9-1.1-.6-1.6-1.5-1.6-2.6s.7-2.1,2-2.8h0c-.8-.7-1.2-1.4-1.2-2.4s.1-.9.5-1.4c.3-.4.6-.8,1-1.1h0c-.5-.5-.9-.9-1.2-1.5-.4-.7-.5-1.3-.5-2.1,0-1.5.5-2.8,1.6-3.6,1-.8,2.3-1.3,3.9-1.3s1.4.1,2,.3h3.6c.9,0,1.3.4,1.3,1.3s-.4,1.3-1.3,1.3h-1c.4.5.6,1.2.6,2.1,0,1.5-.5,2.6-1.6,3.4-.9.8-2.2,1.1-3.7,1.1s-1.2-.1-1.8-.3c-.4.3-.6.7-.6,1.1s.1.7.5.8c.3.2.9.3,1.7.3h2.3c3.4,0,5.1,1.1,5.1,3.4s-.7,2.6-2,3.4c-1.4.9-3.2,1.3-5.4,1.3v.3h0ZM154.8,177.4c1,0,1.8-.2,2.5-.6.6-.4.9-.8.9-1.4s-.2-.8-.6-.9c-.3-.1-.9-.3-1.7-.3h-1.6c-.7,0-1.4,0-1.9-.2-.6.5-.9,1-.9,1.5s.3,1,.9,1.3,1.4.5,2.4.5h0ZM154.5,167.3c.6,0,1.2-.2,1.5-.7.4-.5.6-1.1.6-1.8s-.2-1.4-.6-1.8-.9-.7-1.5-.7-1.2.2-1.6.7c-.4.5-.6,1.1-.6,1.8s.2,1.4.6,1.8.9.7,1.5.7h0Z"/>
            </g>
            <g>
              <path class="cls-5" d="M164.5,168.1c-.8,0-1.3-.4-1.3-1.3s.4-1.3,1.3-1.3h4.1c.8,0,1.3.4,1.3,1.3s-.4,1.3-1.3,1.3h-4.1Z"/>
              <path class="cls-1" d="M164.5,168.1c-.8,0-1.3-.4-1.3-1.3s.4-1.3,1.3-1.3h4.1c.8,0,1.3.4,1.3,1.3s-.4,1.3-1.3,1.3h-4.1Z"/>
            </g>
            <g>
              <path class="cls-6" d="M174.9,173.7c-1.1,0-1.6-.5-1.6-1.6v-14.7c0-.5.1-.9.4-1.1s.7-.4,1.2-.4h1.2c.4,0,.7.1,1,.3.3.2.5.5.6.9l2.6,7.2c.2.5.4,1.3.7,2.4.1.5.3.9.3,1.1h.1c.1-.3.3-.9.5-1.6.3-.8.4-1.5.6-1.9l2.6-7.2c.1-.3.3-.6.6-.9.3-.2.7-.3,1-.3h1.8c.3,0,.5,0,.7.3s.3.4.3.7v15.4c0,1.1-.5,1.6-1.6,1.6s-1.6-.5-1.6-1.6v-5.9c0-1,.1-2.8.4-5.5v-.4h0l-1.5,4.2-2.4,6.5c-.1.3-.3.5-.5.7-.3.2-.5.3-.9.3h0c-.6,0-1.1-.3-1.3-.9l-2.4-6.6-1.4-4.2h0c0,.2,0,.5,0,.9.3,2.4.3,4.1.3,5v5.9c0,1.1-.5,1.6-1.6,1.6h0Z"/>
              <path class="cls-1" d="M174.9,173.7c-1.1,0-1.6-.5-1.6-1.6v-14.7c0-.5.1-.9.4-1.1s.7-.4,1.2-.4h1.2c.4,0,.7.1,1,.3.3.2.5.5.6.9l2.6,7.2c.2.5.4,1.3.7,2.4.1.5.3.9.3,1.1h.1c.1-.3.3-.9.5-1.6.3-.8.4-1.5.6-1.9l2.6-7.2c.1-.3.3-.6.6-.9.3-.2.7-.3,1-.3h1.8c.3,0,.5,0,.7.3s.3.4.3.7v15.4c0,1.1-.5,1.6-1.6,1.6s-1.6-.5-1.6-1.6v-5.9c0-1,.1-2.8.4-5.5v-.4h0l-1.5,4.2-2.4,6.5c-.1.3-.3.5-.5.7-.3.2-.5.3-.9.3h0c-.6,0-1.1-.3-1.3-.9l-2.4-6.6-1.4-4.2h0c0,.2,0,.5,0,.9.3,2.4.3,4.1.3,5v5.9c0,1.1-.5,1.6-1.6,1.6h0Z"/>
            </g>
            <g>
              <path class="cls-5" d="M197.1,174.1c-1.2,0-2.2-.4-2.9-1.1-.7-.7-1.2-1.8-1.2-2.9s.6-2.6,1.8-3.4,3.2-1.3,6-1.6c0-1.5-.8-2.4-2.3-2.4s-1.6.2-2.4.6c-.9.4-1.5.3-2-.5-.4-.7-.3-1.3.5-1.8,1.6-.8,3-1.2,4.6-1.2s3,.5,3.9,1.5,1.4,2.5,1.4,4.4v6.5c0,.9-.5,1.5-1.6,1.5s-1.4-.4-1.6-1.3v-.2h0c-1.4,1.2-2.8,1.8-4.1,1.8h0ZM198.3,171.3c.9,0,1.8-.5,2.6-1.3v-2.8c-1.6.2-2.7.5-3.5.9-.7.4-.9.9-.9,1.5,0,1,.6,1.5,1.8,1.5h0Z"/>
              <path class="cls-1" d="M197.1,174.1c-1.2,0-2.2-.4-2.9-1.1-.7-.7-1.2-1.8-1.2-2.9s.6-2.6,1.8-3.4,3.2-1.3,6-1.6c0-1.5-.8-2.4-2.3-2.4s-1.6.2-2.4.6c-.9.4-1.5.3-2-.5-.4-.7-.3-1.3.5-1.8,1.6-.8,3-1.2,4.6-1.2s3,.5,3.9,1.5,1.4,2.5,1.4,4.4v6.5c0,.9-.5,1.5-1.6,1.5s-1.4-.4-1.6-1.3v-.2h0c-1.4,1.2-2.8,1.8-4.1,1.8h0ZM198.3,171.3c.9,0,1.8-.5,2.6-1.3v-2.8c-1.6.2-2.7.5-3.5.9-.7.4-.9.9-.9,1.5,0,1,.6,1.5,1.8,1.5h0Z"/>
            </g>
            <g>
              <path class="cls-5" d="M209.9,173.7c-1.2,0-1.8-.6-1.8-1.8v-10.3c0-.9.5-1.5,1.6-1.5s1.4.4,1.6,1.3v.5h.2c1.5-1.4,2.9-2.2,4.4-2.2,2.8,0,4.2,1.8,4.2,5.5v6.7c0,1.1-.6,1.8-1.8,1.8s-1.8-.6-1.8-1.8v-6.3c0-1-.1-1.8-.5-2.2-.3-.4-.8-.7-1.5-.7s-1,.1-1.5.4c-.3.2-.8.6-1.4,1.1v7.5c0,1.1-.6,1.8-1.8,1.8h0q0,.1,0,.1Z"/>
              <path class="cls-1" d="M209.9,173.7c-1.2,0-1.8-.6-1.8-1.8v-10.3c0-.9.5-1.5,1.6-1.5s1.4.4,1.6,1.3v.5h.2c1.5-1.4,2.9-2.2,4.4-2.2,2.8,0,4.2,1.8,4.2,5.5v6.7c0,1.1-.6,1.8-1.8,1.8s-1.8-.6-1.8-1.8v-6.3c0-1-.1-1.8-.5-2.2-.3-.4-.8-.7-1.5-.7s-1,.1-1.5.4c-.3.2-.8.6-1.4,1.1v7.5c0,1.1-.6,1.8-1.8,1.8h0q0,.1,0,.1Z"/>
            </g>
            <g>
              <path class="cls-5" d="M228.5,174.1c-1.7,0-3-.6-4.1-1.9s-1.5-3-1.5-5.2.6-3.9,1.8-5.3c1.1-1.3,2.4-1.9,4-1.9s1.4.1,2,.4c.5.2.9.5,1.5,1.1v-2.2c-.1,0-.1-3-.1-3,0-1.1.6-1.8,1.8-1.8s1.8.6,1.8,1.8v16.1c0,.5-.1.8-.4,1.1s-.7.3-1.2.3c-.9,0-1.4-.4-1.6-1.2v-.2h-.1c-1.2,1.1-2.4,1.8-3.8,1.8h0ZM229.5,171.1c.9,0,1.8-.5,2.5-1.4v-5.9c-.7-.7-1.6-1-2.5-1s-1.5.3-2,1.1c-.5.7-.8,1.8-.8,3.1s.3,2.4.7,3.2,1.2,1.1,2.1,1.1h0Z"/>
              <path class="cls-1" d="M228.5,174.1c-1.7,0-3-.6-4.1-1.9s-1.5-3-1.5-5.2.6-3.9,1.8-5.3c1.1-1.3,2.4-1.9,4-1.9s1.4.1,2,.4c.5.2.9.5,1.5,1.1v-2.2c-.1,0-.1-3-.1-3,0-1.1.6-1.8,1.8-1.8s1.8.6,1.8,1.8v16.1c0,.5-.1.8-.4,1.1s-.7.3-1.2.3c-.9,0-1.4-.4-1.6-1.2v-.2h-.1c-1.2,1.1-2.4,1.8-3.8,1.8h0ZM229.5,171.1c.9,0,1.8-.5,2.5-1.4v-5.9c-.7-.7-1.6-1-2.5-1s-1.5.3-2,1.1c-.5.7-.8,1.8-.8,3.1s.3,2.4.7,3.2,1.2,1.1,2.1,1.1h0Z"/>
            </g>
            <g>
              <path class="cls-5" d="M242.7,174.1c-1.2,0-2.2-.4-2.9-1.1-.7-.7-1.2-1.8-1.2-2.9s.6-2.6,1.8-3.4c1.2-.8,3.2-1.3,6-1.6,0-1.5-.8-2.4-2.3-2.4s-1.6.2-2.4.6-1.5.3-2-.5c-.4-.7-.3-1.3.5-1.8,1.6-.8,3-1.2,4.6-1.2s3,.5,3.9,1.5,1.4,2.5,1.4,4.4v6.5c0,.9-.5,1.5-1.6,1.5s-1.4-.4-1.6-1.3v-.2h0c-1.4,1.2-2.8,1.8-4.1,1.8h0ZM243.9,171.3c.9,0,1.8-.5,2.6-1.3v-2.8c-1.6.2-2.7.5-3.5.9-.7.4-.9.9-.9,1.5,0,1,.6,1.5,1.8,1.5h0Z"/>
              <path class="cls-1" d="M242.7,174.1c-1.2,0-2.2-.4-2.9-1.1-.7-.7-1.2-1.8-1.2-2.9s.6-2.6,1.8-3.4c1.2-.8,3.2-1.3,6-1.6,0-1.5-.8-2.4-2.3-2.4s-1.6.2-2.4.6-1.5.3-2-.5c-.4-.7-.3-1.3.5-1.8,1.6-.8,3-1.2,4.6-1.2s3,.5,3.9,1.5,1.4,2.5,1.4,4.4v6.5c0,.9-.5,1.5-1.6,1.5s-1.4-.4-1.6-1.3v-.2h0c-1.4,1.2-2.8,1.8-4.1,1.8h0ZM243.9,171.3c.9,0,1.8-.5,2.6-1.3v-2.8c-1.6.2-2.7.5-3.5.9-.7.4-.9.9-.9,1.5,0,1,.6,1.5,1.8,1.5h0Z"/>
            </g>
            <g>
              <path class="cls-5" d="M255.6,173.7c-1.2,0-1.8-.6-1.8-1.8v-10.3c0-.9.5-1.5,1.5-1.5s1.5.5,1.6,1.3v1.1h.2c.5-.9,1.1-1.5,1.8-2s1.4-.7,2.1-.7h.3c.4,0,.7.3.9.7s.2.7,0,1.2c-.2,1-.8,1.5-1.7,1.3h0c-.6,0-1.2.2-1.7.6-.6.5-1.1,1.1-1.5,2.1v6.3c0,1.1-.6,1.8-1.8,1.8h0c0-.1,0-.1,0-.1h0Z"/>
              <path class="cls-1" d="M255.6,173.7c-1.2,0-1.8-.6-1.8-1.8v-10.3c0-.9.5-1.5,1.5-1.5s1.5.5,1.6,1.3v1.1h.2c.5-.9,1.1-1.5,1.8-2s1.4-.7,2.1-.7h.3c.4,0,.7.3.9.7s.2.7,0,1.2c-.2,1-.8,1.5-1.7,1.3h0c-.6,0-1.2.2-1.7.6-.6.5-1.1,1.1-1.5,2.1v6.3c0,1.1-.6,1.8-1.8,1.8h0c0-.1,0-.1,0-.1h0Z"/>
            </g>
            <g>
              <path class="cls-5" d="M266.2,158c-.6,0-1.2-.2-1.6-.5s-.6-.8-.6-1.4.2-1.1.6-1.4c.4-.3.9-.5,1.6-.5s1.2.2,1.5.5c.4.3.6.8.6,1.4s-.2,1-.6,1.4c-.4.4-.9.5-1.5.5ZM266.1,173.7c-1.2,0-1.8-.6-1.8-1.8v-10c0-1.1.6-1.8,1.8-1.8s1.8.6,1.8,1.8v10c0,1.1-.6,1.8-1.8,1.8Z"/>
              <path class="cls-1" d="M266.2,158c-.6,0-1.2-.2-1.6-.5s-.6-.8-.6-1.4.2-1.1.6-1.4c.4-.3.9-.5,1.6-.5s1.2.2,1.5.5c.4.3.6.8.6,1.4s-.2,1-.6,1.4c-.4.4-.9.5-1.5.5ZM266.1,173.7c-1.2,0-1.8-.6-1.8-1.8v-10c0-1.1.6-1.8,1.8-1.8s1.8.6,1.8,1.8v10c0,1.1-.6,1.8-1.8,1.8Z"/>
            </g>
            <g>
              <path class="cls-5" d="M273.5,173.7c-1.2,0-1.8-.6-1.8-1.8v-10.3c0-.9.5-1.5,1.6-1.5s1.4.4,1.6,1.3v.5h.2c1.5-1.4,2.9-2.2,4.4-2.2,2.8,0,4.2,1.8,4.2,5.5v6.7c0,1.1-.6,1.8-1.8,1.8s-1.8-.6-1.8-1.8v-6.3c0-1-.1-1.8-.5-2.2-.3-.4-.8-.7-1.5-.7s-1,.1-1.5.4c-.3.2-.8.6-1.4,1.1v7.5c0,1.1-.6,1.8-1.8,1.8h0Z"/>
              <path class="cls-1" d="M273.5,173.7c-1.2,0-1.8-.6-1.8-1.8v-10.3c0-.9.5-1.5,1.6-1.5s1.4.4,1.6,1.3v.5h.2c1.5-1.4,2.9-2.2,4.4-2.2,2.8,0,4.2,1.8,4.2,5.5v6.7c0,1.1-.6,1.8-1.8,1.8s-1.8-.6-1.8-1.8v-6.3c0-1-.1-1.8-.5-2.2-.3-.4-.8-.7-1.5-.7s-1,.1-1.5.4c-.3.2-.8.6-1.4,1.1v7.5c0,1.1-.6,1.8-1.8,1.8h0Z"/>
            </g>
          </g>
          <g>
            <path class="cls-6" d="M8.6,174.1c-2,0-3.7-.5-5.3-1.6-.8-.7-.9-1.4-.2-2.2.7-.9,1.6-.9,2.5-.3,1.1.6,2.2.9,3.2.9s1.6-.2,2.1-.5c.5-.3.7-.9.7-1.5s-.2-1.1-.7-1.4c-.3-.2-.9-.5-1.8-.9h-.2l-2.4-1c-2.4-1-3.7-2.6-3.7-4.8s.6-2.7,1.8-3.7c1.2-1,2.6-1.5,4.5-1.5s3.2.5,4.6,1.4c.7.6.7,1.2.1,2-.7.8-1.4.9-2.2.3-.8-.4-1.6-.6-2.6-.6s-1.4.2-1.9.5-.7.8-.7,1.3.3,1,.8,1.4c.3.3.9.5,1.9.9h.2l2.4,1c1.2.5,2,1.1,2.6,1.8.7.8,1,1.8,1,3.1s-.6,2.8-1.8,3.8c-1.2,1.1-2.8,1.6-4.9,1.6h-.1Z"/>
            <path class="cls-5" d="M19.9,173.7c-1.2,0-1.8-.6-1.8-1.8v-10.3c0-.9.5-1.5,1.6-1.5s1.4.4,1.6,1.3v.5h.2c.7-.7,1.3-1.2,1.8-1.5.7-.4,1.6-.6,2.4-.6,1.8,0,3,.8,3.7,2.4.7-.7,1.4-1.3,2-1.7.7-.5,1.6-.7,2.4-.7,1.4,0,2.5.5,3.2,1.5.7.9,1,2.2,1,4v6.7c0,1.1-.6,1.8-1.8,1.8s-1.8-.6-1.8-1.8v-6.3c0-1-.1-1.8-.5-2.2-.3-.4-.7-.6-1.4-.6s-1.6.5-2.6,1.5v7.5c0,1.1-.6,1.8-1.8,1.8s-1.8-.6-1.8-1.8v-6.3c0-1-.1-1.8-.5-2.2-.3-.4-.7-.6-1.4-.6s-1.6.5-2.6,1.5v7.5c0,1.1-.6,1.8-1.8,1.8h0Z"/>
            <path class="cls-5" d="M45,174.1c-1.2,0-2.2-.4-2.9-1.1s-1.2-1.8-1.2-2.9.6-2.6,1.8-3.4,3.2-1.3,6-1.6c0-1.5-.8-2.4-2.3-2.4s-1.6.2-2.4.6-1.5.3-2-.5c-.4-.7-.3-1.3.5-1.8,1.6-.8,3-1.2,4.6-1.2s3,.5,3.9,1.5,1.4,2.5,1.4,4.4v6.5c0,.9-.5,1.5-1.6,1.5s-1.4-.4-1.6-1.3v-.2h0c-1.4,1.2-2.8,1.8-4.1,1.8h0ZM46.1,171.3c.9,0,1.8-.5,2.6-1.3v-2.8c-1.6.2-2.7.5-3.5.9-.7.4-.9.9-.9,1.5,0,1,.6,1.5,1.8,1.5h0Z"/>
            <path class="cls-5" d="M57.7,173.7c-1.2,0-1.8-.6-1.8-1.8v-10.3c0-.9.5-1.5,1.5-1.5s1.5.5,1.6,1.3v1.1h.2c.5-.9,1.1-1.5,1.8-2s1.4-.7,2.1-.7h.3c.4,0,.7.3.9.7s.2.7,0,1.2c-.2,1-.8,1.5-1.7,1.3h0c-.6,0-1.2.2-1.7.6-.6.5-1.1,1.1-1.5,2.1v6.3c0,1.1-.6,1.8-1.8,1.8h0q0-.1,0-.1Z"/>
            <path class="cls-5" d="M71.6,174.1c-3,0-4.5-1.7-4.5-5v-6h-.6c-.9,0-1.3-.5-1.3-1.3s.4-1.3,1.2-1.3h.9l.3-2.4c0-.9.6-1.3,1.6-1.3s1.6.5,1.6,1.5v2.2h2c.9,0,1.4.5,1.4,1.4s-.5,1.4-1.4,1.4h-2v6c0,1.5.6,2.3,1.8,2.3h0c.8-.2,1.4.1,1.6,1,.2.8,0,1.3-.8,1.5-.6.1-1.2.2-1.8.2h.1Z"/>
            <path class="cls-6" d="M82,173.7c-1.2,0-1.8-.6-1.8-1.8v-13.1h-3.6c-1,0-1.5-.5-1.5-1.5s.5-1.5,1.5-1.5h10.8c1,0,1.5.5,1.5,1.5s-.5,1.5-1.5,1.5h-3.7v13.1c0,1.2-.6,1.8-1.8,1.8h0Z"/>
            <path class="cls-5" d="M93.1,174.1c-1.2,0-2.2-.4-2.9-1.1-.7-.7-1.2-1.8-1.2-2.9s.6-2.6,1.8-3.4,3.2-1.3,6-1.6c0-1.5-.8-2.4-2.3-2.4s-1.6.2-2.4.6c-.9.4-1.5.3-2-.5-.4-.7-.3-1.3.5-1.8,1.6-.8,3-1.2,4.6-1.2s3,.5,3.9,1.5,1.4,2.5,1.4,4.4v6.5c0,.9-.5,1.5-1.6,1.5s-1.4-.4-1.6-1.3v-.2h0c-1.4,1.2-2.8,1.8-4.1,1.8h0ZM94.2,171.3c.9,0,1.8-.5,2.6-1.3v-2.8c-1.6.2-2.7.5-3.5.9-.7.4-.9.9-.9,1.5,0,1,.6,1.5,1.8,1.5h0Z"/>
            <path class="cls-5" d="M107.4,174.1c-2.2,0-3.4-1.3-3.4-4.1v-13.7c0-1.1.6-1.8,1.8-1.8s1.8.6,1.8,1.8v13.9c0,.7.3,1.1.7,1.1h0c.1,0,.3,0,.3.2,0,.1.1.3.2.5,0,.5,0,.9,0,1.3-.1.5-.3.8-.7.9h-.9.1,0Z"/>
            <path class="cls-5" d="M113.5,173.7c-1.2,0-1.8-.5-1.8-1.8v-15.9c0-1.1.6-1.8,1.8-1.8s1.8.5,1.8,1.8v9.9h0l4.1-5.1c.4-.5.9-.7,1.6-.7h2c.3,0,.5,0,.5.2s0,.3-.2.5l-4.1,4.8,4,6.3c.3.5.5.9.3,1.3-.2.3-.6.5-1.2.5h-.7c-.3,0-.6,0-.9-.3-.3-.2-.5-.4-.7-.7l-2.8-4.6-2,2.2v1.7c0,1.1-.6,1.8-1.8,1.8h.1,0Z"/>
            <path class="cls-5" d="M128.3,158c-.6,0-1.2-.2-1.6-.5-.4-.3-.6-.8-.6-1.4s.2-1.1.6-1.4.9-.5,1.6-.5,1.2.2,1.5.5c.4.3.6.8.6,1.4s-.2,1-.6,1.4-.9.5-1.5.5ZM128.3,173.7c-1.2,0-1.8-.6-1.8-1.8v-10c0-1.1.6-1.8,1.8-1.8s1.8.6,1.8,1.8v10c0,1.1-.6,1.8-1.8,1.8Z"/>
            <path class="cls-5" d="M135.6,173.7c-1.2,0-1.8-.6-1.8-1.8v-10.3c0-.9.5-1.5,1.6-1.5s1.4.4,1.6,1.3v.5h.2c1.5-1.4,2.9-2.2,4.4-2.2,2.8,0,4.2,1.8,4.2,5.5v6.7c0,1.1-.6,1.8-1.8,1.8s-1.8-.6-1.8-1.8v-6.3c0-1-.1-1.8-.5-2.2-.3-.4-.8-.7-1.5-.7s-1,.1-1.5.4c-.3.2-.8.6-1.4,1.1v7.5c0,1.1-.6,1.8-1.8,1.8h0q0,.1,0,.1Z"/>
            <path class="cls-5" d="M154.3,179.6c-1.7,0-3-.3-4.1-.9-1.1-.6-1.6-1.5-1.6-2.6s.7-2.1,2-2.8h0c-.8-.7-1.2-1.4-1.2-2.4s.1-.9.5-1.4c.3-.4.6-.8,1-1.1h0c-.5-.5-.9-.9-1.2-1.5-.4-.7-.5-1.3-.5-2.1,0-1.5.5-2.8,1.6-3.6,1-.8,2.3-1.3,3.9-1.3s1.4.1,2,.3h3.6c.9,0,1.3.4,1.3,1.3s-.4,1.3-1.3,1.3h-1c.4.5.6,1.2.6,2.1,0,1.5-.5,2.6-1.6,3.4-.9.8-2.2,1.1-3.7,1.1s-1.2-.1-1.8-.3c-.4.3-.6.7-.6,1.1s.1.7.5.8c.3.2.9.3,1.7.3h2.3c3.4,0,5.1,1.1,5.1,3.4s-.7,2.6-2,3.4c-1.4.9-3.2,1.3-5.4,1.3v.3h0ZM154.8,177.4c1,0,1.8-.2,2.5-.6.6-.4.9-.8.9-1.4s-.2-.8-.6-.9c-.3-.1-.9-.3-1.7-.3h-1.6c-.7,0-1.4,0-1.9-.2-.6.5-.9,1-.9,1.5s.3,1,.9,1.3,1.4.5,2.4.5h0ZM154.5,167.3c.6,0,1.2-.2,1.5-.7.4-.5.6-1.1.6-1.8s-.2-1.4-.6-1.8-.9-.7-1.5-.7-1.2.2-1.6.7c-.4.5-.6,1.1-.6,1.8s.2,1.4.6,1.8.9.7,1.5.7h0Z"/>
            <path class="cls-5" d="M164.5,168.1c-.8,0-1.3-.4-1.3-1.3s.4-1.3,1.3-1.3h4.1c.8,0,1.3.4,1.3,1.3s-.4,1.3-1.3,1.3h-4.1Z"/>
            <path class="cls-6" d="M174.9,173.7c-1.1,0-1.6-.5-1.6-1.6v-14.7c0-.5.1-.9.4-1.1s.7-.4,1.2-.4h1.2c.4,0,.7.1,1,.3.3.2.5.5.6.9l2.6,7.2c.2.5.4,1.3.7,2.4.1.5.3.9.3,1.1h.1c.1-.3.3-.9.5-1.6.3-.8.4-1.5.6-1.9l2.6-7.2c.1-.3.3-.6.6-.9.3-.2.7-.3,1-.3h1.8c.3,0,.5,0,.7.3s.3.4.3.7v15.4c0,1.1-.5,1.6-1.6,1.6s-1.6-.5-1.6-1.6v-5.9c0-1,.1-2.8.4-5.5v-.4h0l-1.5,4.2-2.4,6.5c-.1.3-.3.5-.5.7-.3.2-.5.3-.9.3h0c-.6,0-1.1-.3-1.3-.9l-2.4-6.6-1.4-4.2h0c0,.2,0,.5,0,.9.3,2.4.3,4.1.3,5v5.9c0,1.1-.5,1.6-1.6,1.6h0Z"/>
            <path class="cls-5" d="M197.1,174.1c-1.2,0-2.2-.4-2.9-1.1-.7-.7-1.2-1.8-1.2-2.9s.6-2.6,1.8-3.4,3.2-1.3,6-1.6c0-1.5-.8-2.4-2.3-2.4s-1.6.2-2.4.6c-.9.4-1.5.3-2-.5-.4-.7-.3-1.3.5-1.8,1.6-.8,3-1.2,4.6-1.2s3,.5,3.9,1.5,1.4,2.5,1.4,4.4v6.5c0,.9-.5,1.5-1.6,1.5s-1.4-.4-1.6-1.3v-.2h0c-1.4,1.2-2.8,1.8-4.1,1.8h0ZM198.3,171.3c.9,0,1.8-.5,2.6-1.3v-2.8c-1.6.2-2.7.5-3.5.9-.7.4-.9.9-.9,1.5,0,1,.6,1.5,1.8,1.5h0Z"/>
            <path class="cls-5" d="M209.9,173.7c-1.2,0-1.8-.6-1.8-1.8v-10.3c0-.9.5-1.5,1.6-1.5s1.4.4,1.6,1.3v.5h.2c1.5-1.4,2.9-2.2,4.4-2.2,2.8,0,4.2,1.8,4.2,5.5v6.7c0,1.1-.6,1.8-1.8,1.8s-1.8-.6-1.8-1.8v-6.3c0-1-.1-1.8-.5-2.2-.3-.4-.8-.7-1.5-.7s-1,.1-1.5.4c-.3.2-.8.6-1.4,1.1v7.5c0,1.1-.6,1.8-1.8,1.8h0q0,.1,0,.1Z"/>
            <path class="cls-5" d="M228.5,174.1c-1.7,0-3-.6-4.1-1.9s-1.5-3-1.5-5.2.6-3.9,1.8-5.3c1.1-1.3,2.4-1.9,4-1.9s1.4.1,2,.4c.5.2.9.5,1.5,1.1v-2.2c-.1,0-.1-3-.1-3,0-1.1.6-1.8,1.8-1.8s1.8.6,1.8,1.8v16.1c0,.5-.1.8-.4,1.1s-.7.3-1.2.3c-.9,0-1.4-.4-1.6-1.2v-.2h-.1c-1.2,1.1-2.4,1.8-3.8,1.8h0ZM229.5,171.1c.9,0,1.8-.5,2.5-1.4v-5.9c-.7-.7-1.6-1-2.5-1s-1.5.3-2,1.1c-.5.7-.8,1.8-.8,3.1s.3,2.4.7,3.2,1.2,1.1,2.1,1.1h0Z"/>
            <path class="cls-5" d="M242.7,174.1c-1.2,0-2.2-.4-2.9-1.1-.7-.7-1.2-1.8-1.2-2.9s.6-2.6,1.8-3.4c1.2-.8,3.2-1.3,6-1.6,0-1.5-.8-2.4-2.3-2.4s-1.6.2-2.4.6-1.5.3-2-.5c-.4-.7-.3-1.3.5-1.8,1.6-.8,3-1.2,4.6-1.2s3,.5,3.9,1.5,1.4,2.5,1.4,4.4v6.5c0,.9-.5,1.5-1.6,1.5s-1.4-.4-1.6-1.3v-.2h0c-1.4,1.2-2.8,1.8-4.1,1.8h0ZM243.9,171.3c.9,0,1.8-.5,2.6-1.3v-2.8c-1.6.2-2.7.5-3.5.9-.7.4-.9.9-.9,1.5,0,1,.6,1.5,1.8,1.5h0Z"/>
            <path class="cls-5" d="M255.6,173.7c-1.2,0-1.8-.6-1.8-1.8v-10.3c0-.9.5-1.5,1.5-1.5s1.5.5,1.6,1.3v1.1h.2c.5-.9,1.1-1.5,1.8-2s1.4-.7,2.1-.7h.3c.4,0,.7.3.9.7s.2.7,0,1.2c-.2,1-.8,1.5-1.7,1.3h0c-.6,0-1.2.2-1.7.6-.6.5-1.1,1.1-1.5,2.1v6.3c0,1.1-.6,1.8-1.8,1.8h0c0-.1,0-.1,0-.1h0Z"/>
            <path class="cls-5" d="M266.2,158c-.6,0-1.2-.2-1.6-.5s-.6-.8-.6-1.4.2-1.1.6-1.4c.4-.3.9-.5,1.6-.5s1.2.2,1.5.5c.4.3.6.8.6,1.4s-.2,1-.6,1.4c-.4.4-.9.5-1.5.5ZM266.1,173.7c-1.2,0-1.8-.6-1.8-1.8v-10c0-1.1.6-1.8,1.8-1.8s1.8.6,1.8,1.8v10c0,1.1-.6,1.8-1.8,1.8Z"/>
            <path class="cls-5" d="M273.5,173.7c-1.2,0-1.8-.6-1.8-1.8v-10.3c0-.9.5-1.5,1.6-1.5s1.4.4,1.6,1.3v.5h.2c1.5-1.4,2.9-2.2,4.4-2.2,2.8,0,4.2,1.8,4.2,5.5v6.7c0,1.1-.6,1.8-1.8,1.8s-1.8-.6-1.8-1.8v-6.3c0-1-.1-1.8-.5-2.2-.3-.4-.8-.7-1.5-.7s-1,.1-1.5.4c-.3.2-.8.6-1.4,1.1v7.5c0,1.1-.6,1.8-1.8,1.8h0Z"/>
          </g>
          <g>
            <g>
              <path class="cls-6" d="M9.2,173.9c-2,0-3.7-.5-5.3-1.6-.8-.7-.9-1.4-.2-2.2.7-.9,1.6-.9,2.5-.3,1.1.6,2.2.9,3.2.9s1.6-.2,2.1-.5c.5-.3.7-.9.7-1.5s-.2-1.1-.7-1.4c-.3-.2-.9-.5-1.8-.9h-.2l-2.4-1c-2.4-1-3.7-2.6-3.7-4.8s.6-2.7,1.8-3.7c1.2-1,2.6-1.5,4.5-1.5s3.2.5,4.6,1.4c.7.6.7,1.2.1,2-.7.8-1.4.9-2.2.3-.8-.4-1.6-.6-2.6-.6s-1.4.2-1.9.5-.7.8-.7,1.3.3,1,.8,1.4c.3.3.9.5,1.9.9h.2l2.4,1c1.2.5,2,1.1,2.6,1.8.7.8,1,1.8,1,3.1s-.6,2.8-1.8,3.8c-1.2,1.1-2.8,1.6-4.9,1.6h-.1Z"/>
              <path class="cls-3" d="M9.2,175.6c-2.3,0-4.4-.7-6.4-1.9h-.1c-.9-.9-1.2-1.8-1.3-2.4,0-.6,0-1.5.9-2.4,1.3-1.5,3.1-1.8,4.8-.6.8.5,1.5.7,2.2.7s.9-.1,1.1-.2h0s-.3-.3-1.4-.8h-.2l-2.4-1c-3.9-1.6-4.7-4.4-4.7-6.5s.8-3.7,2.4-5c1.5-1.3,3.4-1.9,5.6-1.9s3.9.6,5.6,1.8h.1c1.4,1.3,1.6,3.1.3,4.5-1.2,1.5-2.9,1.8-4.5.7-.5-.3-1.1-.4-1.7-.4s-.6,0-.7.1c.1,0,.5.3,1.4.7.1,0,.2,0,.3.1l2.3.9c1.4.6,2.6,1.3,3.3,2.3.9,1.1,1.4,2.6,1.4,4.2s-.8,3.8-2.4,5.1-3.6,2.1-6,2.1h0c0-.1,0-.1,0-.1ZM4.8,171.1h0ZM5.3,159.4c-.1.3-.2.7-.2,1.1,0,1,.3,2.3,2.6,3.2l2.5,1.1c1.2.5,1.8.8,2.3,1.1.9.7,1.4,1.7,1.4,2.8s0,.7-.1,1.1c.2-.4.3-.9.3-1.3,0-.8-.2-1.5-.6-2-.4-.5-1-.9-1.9-1.3l-2.5-1.1c-1.1-.4-1.8-.8-2.3-1.1-.9-.7-1.5-1.7-1.5-2.8s0-.6.1-.9h0ZM13.3,157.6h0Z"/>
            </g>
            <g>
              <path class="cls-5" d="M20.5,173.5c-1.2,0-1.8-.6-1.8-1.8v-10.3c0-.9.5-1.5,1.6-1.5s1.4.4,1.6,1.3v.5h.2c.7-.7,1.3-1.2,1.8-1.5.7-.4,1.6-.6,2.4-.6,1.8,0,3,.8,3.7,2.4.7-.7,1.4-1.3,2-1.7.7-.5,1.6-.7,2.4-.7,1.4,0,2.5.5,3.2,1.5.7.9,1,2.2,1,4v6.7c0,1.1-.6,1.8-1.8,1.8s-1.8-.6-1.8-1.8v-6.3c0-1-.1-1.8-.5-2.2-.3-.4-.7-.6-1.4-.6s-1.6.5-2.6,1.5v7.5c0,1.1-.6,1.8-1.8,1.8s-1.8-.6-1.8-1.8v-6.3c0-1-.1-1.8-.5-2.2-.3-.4-.7-.6-1.4-.6s-1.6.5-2.6,1.5v7.5c0,1.1-.6,1.8-1.8,1.8h0Z"/>
              <path class="cls-3" d="M36.6,175.3c-2.2,0-3.6-1.4-3.6-3.5v-6.3c0-.5,0-.9-.1-1.1h0s-.3,0-.9.5v6.8c0,2.2-1.4,3.5-3.5,3.5s-3.6-1.4-3.6-3.5v-6.3c0-.5,0-.9-.1-1.1h0s-.3,0-.9.5v6.8c0,2.2-1.4,3.5-3.5,3.5s-3.5-1.4-3.5-3.5v-10.3c0-2,1.3-3.2,3.3-3.2s1.7.3,2.3.8c.1,0,.3-.2.4-.3,1.1-.6,2.1-.9,3.2-.9s3,.5,4,1.5c.3-.2.5-.4.8-.5,1-.6,2.1-.9,3.2-.9,2.5,0,3.9,1.1,4.6,2.2.9,1.2,1.4,3,1.4,5v6.7c0,2.2-1.4,3.5-3.5,3.5h0ZM36.6,172h0ZM36.6,171.8h0v-6.7c0-1.3-.2-2.4-.7-3-.2-.3-.5-.5-.9-.7.4.3.7.6.8.8.5.7.8,1.8.8,3.2v6.3h0ZM28.5,171.8h0v-8.3l-.3-.7c-.3-.7-.7-1.1-1.4-1.2.4.3.7.6.9.8.5.7.7,1.8.7,3.2v6.3h0ZM20.5,171.8h0v-8.2,8.2h0Z"/>
            </g>
            <g>
              <path class="cls-5" d="M45.5,173.9c-1.2,0-2.2-.4-2.9-1.1s-1.2-1.8-1.2-2.9.6-2.6,1.8-3.4,3.2-1.3,6-1.6c0-1.5-.8-2.4-2.3-2.4s-1.6.2-2.4.6-1.5.3-2-.5c-.4-.7-.3-1.3.5-1.8,1.6-.8,3-1.2,4.6-1.2s3,.5,3.9,1.5,1.4,2.5,1.4,4.4v6.5c0,.9-.5,1.5-1.6,1.5s-1.4-.4-1.6-1.3v-.2h0c-1.4,1.2-2.8,1.8-4.1,1.8h0ZM46.6,171.1c.9,0,1.8-.5,2.6-1.3v-2.8c-1.6.2-2.7.5-3.5.9-.7.4-.9.9-.9,1.5,0,1,.6,1.5,1.8,1.5h0Z"/>
              <path class="cls-3" d="M45.5,175.6c-1.7,0-3.1-.5-4.2-1.7-1.1-1.1-1.6-2.5-1.6-4.1s.9-3.7,2.6-4.8c0,0,.1,0,.2-.1-.6-.3-1.2-.7-1.6-1.5-.9-1.6-.4-3.2,1.2-4.1,1.8-.9,3.7-1.4,5.5-1.4s4,.7,5.2,2.1c1.2,1.3,1.8,3.2,1.8,5.7v6.5c0,2-1.3,3.2-3.3,3.2s-1.6-.3-2.2-.7c-1.2.7-2.4,1-3.6,1h0ZM51,170.3h0v-3.9h0v3.9ZM51,164.8v.7-.7Z"/>
            </g>
            <g>
              <path class="cls-5" d="M58.3,173.5c-1.2,0-1.8-.6-1.8-1.8v-10.3c0-.9.5-1.5,1.5-1.5s1.5.5,1.6,1.3v1.1h.2c.5-.9,1.1-1.5,1.8-2s1.4-.7,2.1-.7h.3c.4,0,.7.3.9.7s.2.7,0,1.2c-.2,1-.8,1.5-1.7,1.3h0c-.6,0-1.2.2-1.7.6-.6.5-1.1,1.1-1.5,2.1v6.3c0,1.1-.6,1.8-1.8,1.8h0q0-.1,0-.1Z"/>
              <path class="cls-3" d="M58.3,175.3c-2.2,0-3.5-1.4-3.5-3.5v-10.3c0-2,1.3-3.2,3.2-3.2s1.8.3,2.3.8c0,0,.1,0,.2-.1,1-.7,2-1,3.1-1h.7c.9.3,1.7.8,2.1,1.7.3.7.4,1.5.2,2.3-.4,1.9-1.8,2.9-3.5,2.7-.1,0-.3,0-.5.2-.3.2-.5.5-.8,1v6c0,2.2-1.4,3.5-3.5,3.5h0ZM58.3,171.8h0v-7c.2-.2.3-.5.4-.7h-.4v7.6h0ZM63.2,160.9h0Z"/>
            </g>
            <g>
              <path class="cls-5" d="M72.1,173.9c-3,0-4.5-1.7-4.5-5v-6h-.6c-.9,0-1.3-.5-1.3-1.3s.4-1.3,1.2-1.3h.9l.3-2.4c0-.9.6-1.3,1.6-1.3s1.6.5,1.6,1.5v2.2h2c.9,0,1.4.5,1.4,1.4s-.5,1.4-1.4,1.4h-2v6c0,1.5.6,2.3,1.8,2.3h0c.8-.2,1.4.1,1.6,1,.2.8,0,1.3-.8,1.5-.6.1-1.2.2-1.8.2h.1Z"/>
              <path class="cls-3" d="M72.1,175.6c-4,0-6.2-2.5-6.2-6.9v-4.4c-1.2-.4-1.9-1.5-1.9-3s.9-2.7,2.3-3v-.9c.3-1.8,1.6-3,3.5-3s3.3,1.3,3.3,3.2v.4h.2c2,0,3.2,1.2,3.2,3.2s-1.2,3.2-3.2,3.2h-.2v4.7c1.6-.2,3,.7,3.4,2.4.4,1.8-.4,3.2-2,3.6s-1.6.3-2.3.3h0ZM69.4,161.6v7.3c0,1.7.4,2.5.9,2.9-.5-.7-.9-1.6-.9-2.9v-7.5s0,.3,0,.3Z"/>
            </g>
            <g>
              <path class="cls-6" d="M82.5,173.5c-1.2,0-1.8-.6-1.8-1.8v-13.1h-3.6c-1,0-1.5-.5-1.5-1.5s.5-1.5,1.5-1.5h10.8c1,0,1.5.5,1.5,1.5s-.5,1.5-1.5,1.5h-3.7v13.1c0,1.2-.6,1.8-1.8,1.8h0Z"/>
              <path class="cls-3" d="M82.5,175.3c-2.2,0-3.6-1.4-3.6-3.6v-11.4h-1.8c-2,0-3.2-1.3-3.2-3.2s1.3-3.2,3.2-3.2h10.8c2,0,3.2,1.3,3.2,3.2s-1.3,3.2-3.2,3.2h-1.8v11.4c0,2.2-1.4,3.6-3.6,3.6ZM82.5,171.8h0v-14.3h0v14.3h0Z"/>
            </g>
            <g>
              <path class="cls-5" d="M93.6,173.9c-1.2,0-2.2-.4-2.9-1.1-.7-.7-1.2-1.8-1.2-2.9s.6-2.6,1.8-3.4,3.2-1.3,6-1.6c0-1.5-.8-2.4-2.3-2.4s-1.6.2-2.4.6c-.9.4-1.5.3-2-.5-.4-.7-.3-1.3.5-1.8,1.6-.8,3-1.2,4.6-1.2s3,.5,3.9,1.5,1.4,2.5,1.4,4.4v6.5c0,.9-.5,1.5-1.6,1.5s-1.4-.4-1.6-1.3v-.2h0c-1.4,1.2-2.8,1.8-4.1,1.8h0ZM94.8,171.1c.9,0,1.8-.5,2.6-1.3v-2.8c-1.6.2-2.7.5-3.5.9-.7.4-.9.9-.9,1.5,0,1,.6,1.5,1.8,1.5h0Z"/>
              <path class="cls-3" d="M93.6,175.6c-1.7,0-3.1-.6-4.2-1.7s-1.6-2.5-1.6-4.1.9-3.7,2.6-4.8c0,0,.1,0,.2-.1-.6-.3-1.2-.7-1.6-1.5-.9-1.6-.4-3.2,1.2-4.1,1.8-.9,3.7-1.4,5.5-1.4s4,.7,5.2,2.1c1.2,1.3,1.8,3.2,1.8,5.7v6.5c0,2-1.3,3.2-3.3,3.2s-1.6-.3-2.2-.7c-1.2.7-2.4,1-3.6,1h0ZM99.2,170.3h0v-3.9h0v3.9ZM99.2,164.9v.7-.7Z"/>
            </g>
            <g>
              <path class="cls-5" d="M108,173.9c-2.2,0-3.4-1.3-3.4-4.1v-13.7c0-1.1.6-1.8,1.8-1.8s1.8.6,1.8,1.8v13.9c0,.7.3,1.1.7,1.1h0c.1,0,.3,0,.3.2,0,.1.1.3.2.5,0,.5,0,.9,0,1.3-.1.5-.3.8-.7.9h-.9.1,0Z"/>
              <path class="cls-3" d="M108,175.6c-1.6,0-5.1-.6-5.1-5.9v-13.7c0-2.2,1.4-3.5,3.5-3.5s3.5,1.4,3.5,3.5v13.5c.3.1.6.4.8.7.3.4.4.7.5,1.1.1.7.1,1.4,0,2-.3,1.6-1.4,2.1-2,2.2h-.3c-.4,0-.7.1-1,.1h0ZM106.4,156h0v13.7c0,1.4.3,2,.7,2.2-.4-.5-.7-1.1-.7-2v-13.9h0ZM106.3,155.8h0Z"/>
            </g>
            <g>
              <path class="cls-5" d="M114.1,173.5c-1.2,0-1.8-.5-1.8-1.8v-15.9c0-1.1.6-1.8,1.8-1.8s1.8.5,1.8,1.8v9.9h0l4.1-5.1c.4-.5.9-.7,1.6-.7h2c.3,0,.5,0,.5.2s0,.3-.2.5l-4.1,4.8,4,6.3c.3.5.5.9.3,1.3-.2.3-.6.5-1.2.5h-.7c-.3,0-.6,0-.9-.3-.3-.2-.5-.4-.7-.7l-2.8-4.6-2,2.2v1.7c0,1.1-.6,1.8-1.8,1.8h.1,0Z"/>
              <path class="cls-3" d="M122.8,175.3h-.7c-.7,0-1.3-.2-1.8-.5-.5-.3-.9-.7-1.3-1.2h0l-1.4-2.5v.7c0,2.1-1.4,3.5-3.5,3.5s-3.5-1.3-3.5-3.5v-15.9c0-2.1,1.4-3.5,3.5-3.5s3.5,1.3,3.5,3.5v5l1.1-1.3c.7-.9,1.8-1.4,2.9-1.4h2c1.4,0,2,.8,2.1,1.2.1.3.5,1.3-.4,2.4l-3.3,3.8,3.3,5.1c.9,1.4.6,2.6.3,3.1-.3.6-1.2,1.4-2.8,1.4h0c0,.1,0,.1,0,.1ZM114,172h0ZM114.2,171.8h0ZM114.1,167.6v1.8l1.6-1.8h-1.6ZM114.2,156h0ZM114,155.8h0Z"/>
            </g>
            <g>
              <path class="cls-5" d="M128.8,157.8c-.6,0-1.2-.2-1.6-.5-.4-.3-.6-.8-.6-1.4s.2-1.1.6-1.4.9-.5,1.6-.5,1.2.2,1.5.5c.4.3.6.8.6,1.4s-.2,1-.6,1.4-.9.5-1.5.5ZM128.7,173.5c-1.2,0-1.8-.6-1.8-1.8v-10c0-1.1.6-1.8,1.8-1.8s1.8.6,1.8,1.8v10c0,1.1-.6,1.8-1.8,1.8Z"/>
              <path class="cls-3" d="M128.7,175.3c-2.2,0-3.5-1.4-3.5-3.5v-10c0-1.2.5-2.2,1.3-2.8-.1-.1-.3-.2-.4-.3-.8-.7-1.2-1.6-1.2-2.7s.4-2,1.2-2.8c.7-.6,1.7-.9,2.7-.9s2,.3,2.7,1,1.2,1.6,1.2,2.7-.4,2-1.2,2.7c-.1.1-.3.3-.5.4.8.6,1.3,1.6,1.3,2.8v10c0,2.2-1.4,3.5-3.5,3.5h-.1,0ZM128.8,172h0ZM128.7,171.8h0v-10h0v10h0ZM128.4,155.8h0c0,.1.7.1.7.1v-.2h-.7ZM128.4,155.8h0Z"/>
            </g>
            <g>
              <path class="cls-5" d="M136.2,173.5c-1.2,0-1.8-.6-1.8-1.8v-10.3c0-.9.5-1.5,1.6-1.5s1.4.4,1.6,1.3v.5h.2c1.5-1.4,2.9-2.2,4.4-2.2,2.8,0,4.2,1.8,4.2,5.5v6.7c0,1.1-.6,1.8-1.8,1.8s-1.8-.6-1.8-1.8v-6.3c0-1-.1-1.8-.5-2.2-.3-.4-.8-.7-1.5-.7s-1,.1-1.5.4c-.3.2-.8.6-1.4,1.1v7.5c0,1.1-.6,1.8-1.8,1.8h0q0,.1,0,.1Z"/>
              <path class="cls-3" d="M144.5,175.3c-2.2,0-3.6-1.4-3.6-3.5v-6.3c0-.6,0-.9,0-1.1h0c-.2,0-.4,0-.6.1,0,0-.2.1-.5.4v6.8c0,2.2-1.4,3.5-3.5,3.5s-3.5-1.4-3.5-3.5v-10.3c0-2,1.3-3.2,3.3-3.2s1.8.3,2.3.8c1.2-.8,2.5-1.1,3.9-1.1s6,.7,6,7.2v6.7c0,2.2-1.4,3.5-3.5,3.5h-.1,0ZM144.4,171.8h0v-6.7c0-2.8-.9-3.5-1.8-3.6.5.3.7.6.9.9.5.7.7,1.8.7,3.2v6.3h0ZM136.2,171.8h0v-8.2,8.2h0Z"/>
            </g>
            <g>
              <path class="cls-5" d="M154.8,179.4c-1.7,0-3-.3-4.1-.9-1.1-.6-1.6-1.5-1.6-2.6s.7-2.1,2-2.8h0c-.8-.7-1.2-1.4-1.2-2.4s.1-.9.5-1.4c.3-.4.6-.8,1-1.1h0c-.5-.5-.9-.9-1.2-1.5-.4-.7-.5-1.3-.5-2.1,0-1.5.5-2.8,1.6-3.6,1-.8,2.3-1.3,3.9-1.3s1.4.1,2,.3h3.6c.9,0,1.3.4,1.3,1.3s-.4,1.3-1.3,1.3h-1c.4.5.6,1.2.6,2.1,0,1.5-.5,2.6-1.6,3.4-.9.8-2.2,1.1-3.7,1.1s-1.2-.1-1.8-.3c-.4.3-.6.7-.6,1.1s.1.7.5.8c.3.2.9.3,1.7.3h2.3c3.4,0,5.1,1.1,5.1,3.4s-.7,2.6-2,3.4c-1.4.9-3.2,1.3-5.4,1.3v.3h0ZM155.3,177.2c1,0,1.8-.2,2.5-.6.6-.4.9-.8.9-1.4s-.2-.8-.6-.9c-.3-.1-.9-.3-1.7-.3h-1.6c-.7,0-1.4,0-1.9-.2-.6.5-.9,1-.9,1.5s.3,1,.9,1.3,1.4.5,2.4.5h0ZM155,167.1c.6,0,1.2-.2,1.5-.7.4-.5.6-1.1.6-1.8s-.2-1.4-.6-1.8-.9-.7-1.5-.7-1.2.2-1.6.7c-.4.5-.6,1.1-.6,1.8s.2,1.4.6,1.8.9.7,1.5.7h0Z"/>
              <path class="cls-3" d="M154.8,181.2c-2,0-3.7-.3-4.9-1.1-1.6-.9-2.6-2.4-2.6-4.2s.3-2,1.2-3.1c-.3-.6-.5-1.3-.5-2.2s.3-1.6.7-2.4c0,0,0-.1.1-.2-.1-.2-.3-.4-.4-.6-.5-.9-.8-2-.8-3,0-2,.8-3.8,2.3-5,1.4-1.1,3-1.7,4.9-1.7s1.6.1,2.3.3h3.3c1.8,0,3.1,1.2,3.1,3.1s-.7,2.4-1.8,2.8v.5c0,2-.7,3.6-2.2,4.8,0,0-.2.1-.3.2,3.9.8,4.4,3.6,4.4,4.9s-.5,3.4-2.8,4.9c-1.7,1.1-3.8,1.7-6.4,1.7h.1ZM160.2,173.8c0,.1.1.2.1.3,0-.1,0-.2-.1-.3ZM155,163.8h-.2c-.1.1-.1.5-.1.7s0,.5.1.7h.4c.1-.1.1-.5.1-.7s0-.5-.1-.7h-.2Z"/>
            </g>
            <g>
              <path class="cls-5" d="M165,167.9c-.8,0-1.3-.4-1.3-1.3s.4-1.3,1.3-1.3h4.1c.8,0,1.3.4,1.3,1.3s-.4,1.3-1.3,1.3h-4.1Z"/>
              <path class="cls-3" d="M169.1,169.6h-4.1c-1.8,0-3-1.2-3-3s1.2-3,3-3h4.1c1.8,0,3,1.2,3,3s-1.2,3-3,3Z"/>
            </g>
            <g>
              <path class="cls-6" d="M175.4,173.5c-1.1,0-1.6-.5-1.6-1.6v-14.7c0-.5.1-.9.4-1.1s.7-.4,1.2-.4h1.2c.4,0,.7.1,1,.3.3.2.5.5.6.9l2.6,7.2c.2.5.4,1.3.7,2.4.1.5.3.9.3,1.1h.1c.1-.3.3-.9.5-1.6.3-.8.4-1.5.6-1.9l2.6-7.2c.1-.3.3-.6.6-.9.3-.2.7-.3,1-.3h1.8c.3,0,.5,0,.7.3s.3.4.3.7v15.4c0,1.1-.5,1.6-1.6,1.6s-1.6-.5-1.6-1.6v-5.9c0-1,.1-2.8.4-5.5v-.4h0l-1.5,4.2-2.4,6.5c-.1.3-.3.5-.5.7-.3.2-.5.3-.9.3h0c-.6,0-1.1-.3-1.3-.9l-2.4-6.6-1.4-4.2h0c0,.2,0,.5,0,.9.3,2.4.3,4.1.3,5v5.9c0,1.1-.5,1.6-1.6,1.6h0Z"/>
              <path class="cls-3" d="M188.5,175.3c-2.1,0-3.5-1.3-3.5-3.4v-.6.3c-.3.7-.7,1.1-1.3,1.5-.5.4-1.2.6-1.8.6h0c-1.4,0-2.4-.7-3-2v-.3c0,0,0,.5,0,.5,0,2-1.4,3.4-3.4,3.4s-3.4-1.3-3.4-3.4v-14.7c0-.9.3-1.8.9-2.4s1.5-.9,2.4-.9h1.2c.7,0,1.4.2,2,.6s1.1,1,1.3,1.8l2.1,5.8,2.1-5.8c.2-.7.7-1.3,1.3-1.7s1.3-.6,2-.6h1.8c.7,0,1.4.3,1.9.7.5.5.7,1.1.7,1.9v15.4c0,2.1-1.4,3.4-3.4,3.4h0ZM188.6,172.1h0ZM181.8,169.2v.4c.1,0,.3-.4.3-.4h-.3ZM187,158.4h1.4v-1h-.9l-.3,1h0ZM175.6,158.4h1.4l-.4-1h-.9v1Z"/>
            </g>
            <g>
              <path class="cls-5" d="M197.6,173.9c-1.2,0-2.2-.4-2.9-1.1-.7-.7-1.2-1.8-1.2-2.9s.6-2.6,1.8-3.4,3.2-1.3,6-1.6c0-1.5-.8-2.4-2.3-2.4s-1.6.2-2.4.6c-.9.4-1.5.3-2-.5-.4-.7-.3-1.3.5-1.8,1.6-.8,3-1.2,4.6-1.2s3,.5,3.9,1.5,1.4,2.5,1.4,4.4v6.5c0,.9-.5,1.5-1.6,1.5s-1.4-.4-1.6-1.3v-.2h0c-1.4,1.2-2.8,1.8-4.1,1.8h0ZM198.8,171.1c.9,0,1.8-.5,2.6-1.3v-2.8c-1.6.2-2.7.5-3.5.9-.7.4-.9.9-.9,1.5,0,1,.6,1.5,1.8,1.5h0Z"/>
              <path class="cls-3" d="M197.6,175.6c-1.7,0-3.1-.6-4.2-1.7s-1.6-2.5-1.6-4.1.9-3.7,2.6-4.8c0,0,.1,0,.2-.1-.6-.3-1.2-.7-1.6-1.5-.9-1.6-.4-3.2,1.2-4.1,1.8-.9,3.7-1.4,5.5-1.4s4,.7,5.2,2.1c1.2,1.3,1.8,3.2,1.8,5.7v6.5c0,2-1.3,3.2-3.3,3.2s-1.6-.3-2.2-.7c-1.2.7-2.4,1-3.6,1h0ZM203.2,170.3h0v-3.9h0v3.9ZM203.2,164.9v.7-.7Z"/>
            </g>
            <g>
              <path class="cls-5" d="M210.4,173.5c-1.2,0-1.8-.6-1.8-1.8v-10.3c0-.9.5-1.5,1.6-1.5s1.4.4,1.6,1.3v.5h.2c1.5-1.4,2.9-2.2,4.4-2.2,2.8,0,4.2,1.8,4.2,5.5v6.7c0,1.1-.6,1.8-1.8,1.8s-1.8-.6-1.8-1.8v-6.3c0-1-.1-1.8-.5-2.2-.3-.4-.8-.7-1.5-.7s-1,.1-1.5.4c-.3.2-.8.6-1.4,1.1v7.5c0,1.1-.6,1.8-1.8,1.8h0q0,.1,0,.1Z"/>
              <path class="cls-3" d="M218.8,175.3c-2.2,0-3.6-1.4-3.6-3.5v-6.3c0-.6,0-.9,0-1.1-.2,0-.4,0-.6.1,0,0-.2.1-.5.4v6.8c0,2.2-1.4,3.5-3.5,3.5s-3.5-1.4-3.5-3.5v-10.3c0-2,1.3-3.2,3.3-3.2s1.8.3,2.3.8c1.2-.8,2.5-1.1,3.9-1.1s6,.7,6,7.2v6.7c0,2.2-1.4,3.5-3.5,3.5h-.1,0ZM210.4,172h0ZM218.8,171.8h0v-6.7c0-2.8-.9-3.5-1.7-3.6.4.3.7.6.9.9.5.7.7,1.8.7,3.2v6.3h0ZM210.4,171.8h0v-8.2,8.2h0Z"/>
            </g>
            <g>
              <path class="cls-5" d="M229,173.9c-1.7,0-3-.6-4.1-1.9s-1.5-3-1.5-5.2.6-3.9,1.8-5.3c1.1-1.3,2.4-1.9,4-1.9s1.4.1,2,.4c.5.2.9.5,1.5,1.1v-2.2c-.1,0-.1-3-.1-3,0-1.1.6-1.8,1.8-1.8s1.8.6,1.8,1.8v16.1c0,.5-.1.8-.4,1.1s-.7.3-1.2.3c-.9,0-1.4-.4-1.6-1.2v-.2h-.1c-1.2,1.1-2.4,1.8-3.8,1.8h0ZM230,171c.9,0,1.8-.5,2.5-1.4v-5.9c-.7-.7-1.6-1-2.5-1s-1.5.3-2,1.1c-.5.7-.8,1.8-.8,3.1s.3,2.4.7,3.2,1.2,1.1,2.1,1.1h0Z"/>
              <path class="cls-3" d="M229,175.6c-2.2,0-4.1-.9-5.5-2.6-1.3-1.5-1.9-3.7-1.9-6.3s.7-4.7,2.2-6.4,3.2-2.6,5.3-2.6,1,0,1.6.2v-2.1c0-2.2,1.4-3.5,3.6-3.5s3.5,1.4,3.5,3.5v16.1c0,1.2-.5,2-1,2.4-.4.3-1.2.8-2.3.8s-1.6-.2-2.1-.6c-1.1.7-2.2.9-3.4.9h0ZM226,163.5c-.5.9-.8,2-.8,3.3s.4,3.2,1.2,4.1c0,.1.2.2.3.3,0-.1-.2-.2-.3-.3-.7-1-1-2.4-1-4.1s.2-2.4.7-3.3ZM234.1,170.4h.2c0,.1,0-5.3,0-5.3h0v5l-.2.2ZM230,164.3c-.2,0-.3,0-.5.3-.3.5-.5,1.1-.5,2.1,0,1.3.3,2,.4,2.2.1.1.2.3.6.3s.4,0,.7-.3v-4.4c-.3-.1-.5-.1-.7-.1ZM234.3,158.9v.5-3.4h0v3h0Z"/>
            </g>
            <g>
              <path class="cls-5" d="M243.3,173.9c-1.2,0-2.2-.4-2.9-1.1s-1.2-1.8-1.2-2.9.6-2.6,1.8-3.4,3.2-1.3,6-1.6c0-1.5-.8-2.4-2.3-2.4s-1.6.2-2.4.6-1.5.3-2-.5c-.4-.7-.3-1.3.5-1.8,1.6-.8,3-1.2,4.6-1.2s3,.5,3.9,1.5,1.4,2.5,1.4,4.4v6.5c0,.9-.5,1.5-1.6,1.5s-1.4-.4-1.6-1.3v-.2h0c-1.4,1.2-2.8,1.8-4.1,1.8h0ZM244.4,171.1c.9,0,1.8-.5,2.6-1.3v-2.8c-1.6.2-2.7.5-3.5.9-.7.4-.9.9-.9,1.5,0,1,.6,1.5,1.8,1.5h0Z"/>
              <path class="cls-3" d="M243.3,175.6c-1.7,0-3.1-.5-4.2-1.7-1.1-1.1-1.6-2.5-1.6-4.1s.9-3.7,2.6-4.8c0,0,.1,0,.2-.1-.6-.3-1.2-.7-1.6-1.5-.9-1.6-.4-3.2,1.2-4.1,1.8-.9,3.7-1.4,5.5-1.4s4,.7,5.2,2.1c1.2,1.3,1.8,3.2,1.8,5.7v6.5c0,2-1.3,3.2-3.3,3.2s-1.6-.3-2.2-.7c-1.2.7-2.4,1-3.6,1h0ZM248.8,170.3h0v-3.9h0v3.9ZM248.8,164.8v.7-.7Z"/>
            </g>
            <g>
              <path class="cls-5" d="M256,173.5c-1.2,0-1.8-.6-1.8-1.8v-10.3c0-.9.5-1.5,1.5-1.5s1.5.5,1.6,1.3v1.1h.2c.5-.9,1.1-1.5,1.8-2s1.4-.7,2.1-.7h.3c.4,0,.7.3.9.7s.2.7,0,1.2c-.2,1-.8,1.5-1.7,1.3h0c-.6,0-1.2.2-1.7.6-.6.5-1.1,1.1-1.5,2.1v6.3c0,1.1-.6,1.8-1.8,1.8h0c0-.1,0-.1,0-.1h0Z"/>
              <path class="cls-3" d="M256,175.3c-2.2,0-3.5-1.4-3.5-3.5v-10.3c0-2,1.3-3.2,3.2-3.2s1.8.3,2.3.8c0,0,.1,0,.2-.1,1-.7,2-1,3.1-1h.7c.9.3,1.7.8,2.1,1.7.3.7.4,1.5.2,2.3-.4,1.9-1.8,2.9-3.5,2.7-.1,0-.3,0-.5.2-.3.2-.5.5-.8,1v6c0,2.2-1.4,3.5-3.5,3.5h0ZM256,172h0ZM256,171.8h0v-7c.1-.2.3-.5.4-.7h-.4v7.6h0Z"/>
            </g>
            <g>
              <path class="cls-5" d="M266.7,157.8c-.6,0-1.2-.2-1.6-.5s-.6-.8-.6-1.4.2-1.1.6-1.4c.4-.3.9-.5,1.6-.5s1.2.2,1.5.5c.4.3.6.8.6,1.4s-.2,1-.6,1.4c-.4.4-.9.5-1.5.5ZM266.7,173.5c-1.2,0-1.8-.6-1.8-1.8v-10c0-1.1.6-1.8,1.8-1.8s1.8.6,1.8,1.8v10c0,1.1-.6,1.8-1.8,1.8Z"/>
              <path class="cls-3" d="M266.7,175.3c-2.2,0-3.5-1.4-3.5-3.5v-10c0-1.2.5-2.2,1.3-2.8-.1,0-.3-.2-.4-.3-.8-.7-1.2-1.6-1.2-2.7s.4-2,1.2-2.8c.7-.6,1.7-.9,2.7-.9s2,.3,2.7,1,1.2,1.6,1.2,2.7-.4,2-1.2,2.7c-.1.1-.3.3-.5.4.8.6,1.3,1.6,1.3,2.8v10c0,2.2-1.4,3.5-3.5,3.5h-.1ZM266.7,171.8h0v-10h0v10h0ZM266.3,155.8h0c0,.1.1.3.3.3h.3v-.2h-.7Z"/>
            </g>
            <g>
              <path class="cls-5" d="M274.1,173.5c-1.2,0-1.8-.6-1.8-1.8v-10.3c0-.9.5-1.5,1.6-1.5s1.4.4,1.6,1.3v.5h.2c1.5-1.4,2.9-2.2,4.4-2.2,2.8,0,4.2,1.8,4.2,5.5v6.7c0,1.1-.6,1.8-1.8,1.8s-1.8-.6-1.8-1.8v-6.3c0-1-.1-1.8-.5-2.2-.3-.4-.8-.7-1.5-.7s-1,.1-1.5.4c-.3.2-.8.6-1.4,1.1v7.5c0,1.1-.6,1.8-1.8,1.8h0Z"/>
              <path class="cls-3" d="M282.4,175.3c-2.2,0-3.6-1.4-3.6-3.5v-7.3c-.2,0-.4,0-.6.1,0,0-.2.1-.5.4v6.8c0,2.2-1.4,3.5-3.5,3.5s-3.5-1.4-3.5-3.5v-10.3c0-2,1.3-3.2,3.3-3.2s1.8.3,2.3.8c1.2-.8,2.5-1.1,3.9-1.1s6,.7,6,7.2v6.7c0,2.2-1.4,3.5-3.5,3.5h-.2ZM274.1,172h0ZM282.4,171.8h0v-6.7c0-2.8-.9-3.5-1.7-3.6.4.3.7.6.9.9.5.7.7,1.8.7,3.2v6.3h0ZM274.1,171.8h0v-8.2,8.2h0Z"/>
            </g>
          </g>
          <g>
            <path class="cls-6" d="M9.2,173.9c-2,0-3.7-.5-5.3-1.6-.8-.7-.9-1.4-.2-2.2.7-.9,1.6-.9,2.5-.3,1.1.6,2.2.9,3.2.9s1.6-.2,2.1-.5c.5-.3.7-.9.7-1.5s-.2-1.1-.7-1.4c-.3-.2-.9-.5-1.8-.9h-.2l-2.4-1c-2.4-1-3.7-2.6-3.7-4.8s.6-2.7,1.8-3.7c1.2-1,2.6-1.5,4.5-1.5s3.2.5,4.6,1.4c.7.6.7,1.2.1,2-.7.8-1.4.9-2.2.3-.8-.4-1.6-.6-2.6-.6s-1.4.2-1.9.5-.7.8-.7,1.3.3,1,.8,1.4c.3.3.9.5,1.9.9h.2l2.4,1c1.2.5,2,1.1,2.6,1.8.7.8,1,1.8,1,3.1s-.6,2.8-1.8,3.8c-1.2,1.1-2.8,1.6-4.9,1.6h-.1Z"/>
            <path class="cls-5" d="M20.5,173.5c-1.2,0-1.8-.6-1.8-1.8v-10.3c0-.9.5-1.5,1.6-1.5s1.4.4,1.6,1.3v.5h.2c.7-.7,1.3-1.2,1.8-1.5.7-.4,1.6-.6,2.4-.6,1.8,0,3,.8,3.7,2.4.7-.7,1.4-1.3,2-1.7.7-.5,1.6-.7,2.4-.7,1.4,0,2.5.5,3.2,1.5.7.9,1,2.2,1,4v6.7c0,1.1-.6,1.8-1.8,1.8s-1.8-.6-1.8-1.8v-6.3c0-1-.1-1.8-.5-2.2-.3-.4-.7-.6-1.4-.6s-1.6.5-2.6,1.5v7.5c0,1.1-.6,1.8-1.8,1.8s-1.8-.6-1.8-1.8v-6.3c0-1-.1-1.8-.5-2.2-.3-.4-.7-.6-1.4-.6s-1.6.5-2.6,1.5v7.5c0,1.1-.6,1.8-1.8,1.8h0Z"/>
            <path class="cls-5" d="M45.5,173.9c-1.2,0-2.2-.4-2.9-1.1s-1.2-1.8-1.2-2.9.6-2.6,1.8-3.4,3.2-1.3,6-1.6c0-1.5-.8-2.4-2.3-2.4s-1.6.2-2.4.6-1.5.3-2-.5c-.4-.7-.3-1.3.5-1.8,1.6-.8,3-1.2,4.6-1.2s3,.5,3.9,1.5,1.4,2.5,1.4,4.4v6.5c0,.9-.5,1.5-1.6,1.5s-1.4-.4-1.6-1.3v-.2h0c-1.4,1.2-2.8,1.8-4.1,1.8h0ZM46.6,171.1c.9,0,1.8-.5,2.6-1.3v-2.8c-1.6.2-2.7.5-3.5.9-.7.4-.9.9-.9,1.5,0,1,.6,1.5,1.8,1.5h0Z"/>
            <path class="cls-5" d="M58.3,173.5c-1.2,0-1.8-.6-1.8-1.8v-10.3c0-.9.5-1.5,1.5-1.5s1.5.5,1.6,1.3v1.1h.2c.5-.9,1.1-1.5,1.8-2s1.4-.7,2.1-.7h.3c.4,0,.7.3.9.7s.2.7,0,1.2c-.2,1-.8,1.5-1.7,1.3h0c-.6,0-1.2.2-1.7.6-.6.5-1.1,1.1-1.5,2.1v6.3c0,1.1-.6,1.8-1.8,1.8h0q0-.1,0-.1Z"/>
            <path class="cls-5" d="M72.1,173.9c-3,0-4.5-1.7-4.5-5v-6h-.6c-.9,0-1.3-.5-1.3-1.3s.4-1.3,1.2-1.3h.9l.3-2.4c0-.9.6-1.3,1.6-1.3s1.6.5,1.6,1.5v2.2h2c.9,0,1.4.5,1.4,1.4s-.5,1.4-1.4,1.4h-2v6c0,1.5.6,2.3,1.8,2.3h0c.8-.2,1.4.1,1.6,1,.2.8,0,1.3-.8,1.5-.6.1-1.2.2-1.8.2h.1Z"/>
            <path class="cls-6" d="M82.5,173.5c-1.2,0-1.8-.6-1.8-1.8v-13.1h-3.6c-1,0-1.5-.5-1.5-1.5s.5-1.5,1.5-1.5h10.8c1,0,1.5.5,1.5,1.5s-.5,1.5-1.5,1.5h-3.7v13.1c0,1.2-.6,1.8-1.8,1.8h0Z"/>
            <path class="cls-5" d="M93.6,173.9c-1.2,0-2.2-.4-2.9-1.1-.7-.7-1.2-1.8-1.2-2.9s.6-2.6,1.8-3.4,3.2-1.3,6-1.6c0-1.5-.8-2.4-2.3-2.4s-1.6.2-2.4.6c-.9.4-1.5.3-2-.5-.4-.7-.3-1.3.5-1.8,1.6-.8,3-1.2,4.6-1.2s3,.5,3.9,1.5,1.4,2.5,1.4,4.4v6.5c0,.9-.5,1.5-1.6,1.5s-1.4-.4-1.6-1.3v-.2h0c-1.4,1.2-2.8,1.8-4.1,1.8h0ZM94.8,171.1c.9,0,1.8-.5,2.6-1.3v-2.8c-1.6.2-2.7.5-3.5.9-.7.4-.9.9-.9,1.5,0,1,.6,1.5,1.8,1.5h0Z"/>
            <path class="cls-5" d="M108,173.9c-2.2,0-3.4-1.3-3.4-4.1v-13.7c0-1.1.6-1.8,1.8-1.8s1.8.6,1.8,1.8v13.9c0,.7.3,1.1.7,1.1h0c.1,0,.3,0,.3.2,0,.1.1.3.2.5,0,.5,0,.9,0,1.3-.1.5-.3.8-.7.9h-.9.1,0Z"/>
            <path class="cls-5" d="M114.1,173.5c-1.2,0-1.8-.5-1.8-1.8v-15.9c0-1.1.6-1.8,1.8-1.8s1.8.5,1.8,1.8v9.9h0l4.1-5.1c.4-.5.9-.7,1.6-.7h2c.3,0,.5,0,.5.2s0,.3-.2.5l-4.1,4.8,4,6.3c.3.5.5.9.3,1.3-.2.3-.6.5-1.2.5h-.7c-.3,0-.6,0-.9-.3-.3-.2-.5-.4-.7-.7l-2.8-4.6-2,2.2v1.7c0,1.1-.6,1.8-1.8,1.8h.1,0Z"/>
            <path class="cls-5" d="M128.8,157.8c-.6,0-1.2-.2-1.6-.5-.4-.3-.6-.8-.6-1.4s.2-1.1.6-1.4.9-.5,1.6-.5,1.2.2,1.5.5c.4.3.6.8.6,1.4s-.2,1-.6,1.4-.9.5-1.5.5ZM128.7,173.5c-1.2,0-1.8-.6-1.8-1.8v-10c0-1.1.6-1.8,1.8-1.8s1.8.6,1.8,1.8v10c0,1.1-.6,1.8-1.8,1.8Z"/>
            <path class="cls-5" d="M136.2,173.5c-1.2,0-1.8-.6-1.8-1.8v-10.3c0-.9.5-1.5,1.6-1.5s1.4.4,1.6,1.3v.5h.2c1.5-1.4,2.9-2.2,4.4-2.2,2.8,0,4.2,1.8,4.2,5.5v6.7c0,1.1-.6,1.8-1.8,1.8s-1.8-.6-1.8-1.8v-6.3c0-1-.1-1.8-.5-2.2-.3-.4-.8-.7-1.5-.7s-1,.1-1.5.4c-.3.2-.8.6-1.4,1.1v7.5c0,1.1-.6,1.8-1.8,1.8h0q0,.1,0,.1Z"/>
            <path class="cls-5" d="M154.8,179.4c-1.7,0-3-.3-4.1-.9-1.1-.6-1.6-1.5-1.6-2.6s.7-2.1,2-2.8h0c-.8-.7-1.2-1.4-1.2-2.4s.1-.9.5-1.4c.3-.4.6-.8,1-1.1h0c-.5-.5-.9-.9-1.2-1.5-.4-.7-.5-1.3-.5-2.1,0-1.5.5-2.8,1.6-3.6,1-.8,2.3-1.3,3.9-1.3s1.4.1,2,.3h3.6c.9,0,1.3.4,1.3,1.3s-.4,1.3-1.3,1.3h-1c.4.5.6,1.2.6,2.1,0,1.5-.5,2.6-1.6,3.4-.9.8-2.2,1.1-3.7,1.1s-1.2-.1-1.8-.3c-.4.3-.6.7-.6,1.1s.1.7.5.8c.3.2.9.3,1.7.3h2.3c3.4,0,5.1,1.1,5.1,3.4s-.7,2.6-2,3.4c-1.4.9-3.2,1.3-5.4,1.3v.3h0ZM155.3,177.2c1,0,1.8-.2,2.5-.6.6-.4.9-.8.9-1.4s-.2-.8-.6-.9c-.3-.1-.9-.3-1.7-.3h-1.6c-.7,0-1.4,0-1.9-.2-.6.5-.9,1-.9,1.5s.3,1,.9,1.3,1.4.5,2.4.5h0ZM155,167.1c.6,0,1.2-.2,1.5-.7.4-.5.6-1.1.6-1.8s-.2-1.4-.6-1.8-.9-.7-1.5-.7-1.2.2-1.6.7c-.4.5-.6,1.1-.6,1.8s.2,1.4.6,1.8.9.7,1.5.7h0Z"/>
            <path class="cls-5" d="M165,167.9c-.8,0-1.3-.4-1.3-1.3s.4-1.3,1.3-1.3h4.1c.8,0,1.3.4,1.3,1.3s-.4,1.3-1.3,1.3h-4.1Z"/>
            <path class="cls-6" d="M175.4,173.5c-1.1,0-1.6-.5-1.6-1.6v-14.7c0-.5.1-.9.4-1.1s.7-.4,1.2-.4h1.2c.4,0,.7.1,1,.3.3.2.5.5.6.9l2.6,7.2c.2.5.4,1.3.7,2.4.1.5.3.9.3,1.1h.1c.1-.3.3-.9.5-1.6.3-.8.4-1.5.6-1.9l2.6-7.2c.1-.3.3-.6.6-.9.3-.2.7-.3,1-.3h1.8c.3,0,.5,0,.7.3s.3.4.3.7v15.4c0,1.1-.5,1.6-1.6,1.6s-1.6-.5-1.6-1.6v-5.9c0-1,.1-2.8.4-5.5v-.4h0l-1.5,4.2-2.4,6.5c-.1.3-.3.5-.5.7-.3.2-.5.3-.9.3h0c-.6,0-1.1-.3-1.3-.9l-2.4-6.6-1.4-4.2h0c0,.2,0,.5,0,.9.3,2.4.3,4.1.3,5v5.9c0,1.1-.5,1.6-1.6,1.6h0Z"/>
            <path class="cls-5" d="M197.6,173.9c-1.2,0-2.2-.4-2.9-1.1-.7-.7-1.2-1.8-1.2-2.9s.6-2.6,1.8-3.4,3.2-1.3,6-1.6c0-1.5-.8-2.4-2.3-2.4s-1.6.2-2.4.6c-.9.4-1.5.3-2-.5-.4-.7-.3-1.3.5-1.8,1.6-.8,3-1.2,4.6-1.2s3,.5,3.9,1.5,1.4,2.5,1.4,4.4v6.5c0,.9-.5,1.5-1.6,1.5s-1.4-.4-1.6-1.3v-.2h0c-1.4,1.2-2.8,1.8-4.1,1.8h0ZM198.8,171.1c.9,0,1.8-.5,2.6-1.3v-2.8c-1.6.2-2.7.5-3.5.9-.7.4-.9.9-.9,1.5,0,1,.6,1.5,1.8,1.5h0Z"/>
            <path class="cls-5" d="M210.4,173.5c-1.2,0-1.8-.6-1.8-1.8v-10.3c0-.9.5-1.5,1.6-1.5s1.4.4,1.6,1.3v.5h.2c1.5-1.4,2.9-2.2,4.4-2.2,2.8,0,4.2,1.8,4.2,5.5v6.7c0,1.1-.6,1.8-1.8,1.8s-1.8-.6-1.8-1.8v-6.3c0-1-.1-1.8-.5-2.2-.3-.4-.8-.7-1.5-.7s-1,.1-1.5.4c-.3.2-.8.6-1.4,1.1v7.5c0,1.1-.6,1.8-1.8,1.8h0q0,.1,0,.1Z"/>
            <path class="cls-5" d="M229,173.9c-1.7,0-3-.6-4.1-1.9s-1.5-3-1.5-5.2.6-3.9,1.8-5.3c1.1-1.3,2.4-1.9,4-1.9s1.4.1,2,.4c.5.2.9.5,1.5,1.1v-2.2c-.1,0-.1-3-.1-3,0-1.1.6-1.8,1.8-1.8s1.8.6,1.8,1.8v16.1c0,.5-.1.8-.4,1.1s-.7.3-1.2.3c-.9,0-1.4-.4-1.6-1.2v-.2h-.1c-1.2,1.1-2.4,1.8-3.8,1.8h0ZM230,171c.9,0,1.8-.5,2.5-1.4v-5.9c-.7-.7-1.6-1-2.5-1s-1.5.3-2,1.1c-.5.7-.8,1.8-.8,3.1s.3,2.4.7,3.2,1.2,1.1,2.1,1.1h0Z"/>
            <path class="cls-5" d="M243.3,173.9c-1.2,0-2.2-.4-2.9-1.1s-1.2-1.8-1.2-2.9.6-2.6,1.8-3.4,3.2-1.3,6-1.6c0-1.5-.8-2.4-2.3-2.4s-1.6.2-2.4.6-1.5.3-2-.5c-.4-.7-.3-1.3.5-1.8,1.6-.8,3-1.2,4.6-1.2s3,.5,3.9,1.5,1.4,2.5,1.4,4.4v6.5c0,.9-.5,1.5-1.6,1.5s-1.4-.4-1.6-1.3v-.2h0c-1.4,1.2-2.8,1.8-4.1,1.8h0ZM244.4,171.1c.9,0,1.8-.5,2.6-1.3v-2.8c-1.6.2-2.7.5-3.5.9-.7.4-.9.9-.9,1.5,0,1,.6,1.5,1.8,1.5h0Z"/>
            <path class="cls-5" d="M256,173.5c-1.2,0-1.8-.6-1.8-1.8v-10.3c0-.9.5-1.5,1.5-1.5s1.5.5,1.6,1.3v1.1h.2c.5-.9,1.1-1.5,1.8-2s1.4-.7,2.1-.7h.3c.4,0,.7.3.9.7s.2.7,0,1.2c-.2,1-.8,1.5-1.7,1.3h0c-.6,0-1.2.2-1.7.6-.6.5-1.1,1.1-1.5,2.1v6.3c0,1.1-.6,1.8-1.8,1.8h0c0-.1,0-.1,0-.1h0Z"/>
            <path class="cls-5" d="M266.7,157.8c-.6,0-1.2-.2-1.6-.5s-.6-.8-.6-1.4.2-1.1.6-1.4c.4-.3.9-.5,1.6-.5s1.2.2,1.5.5c.4.3.6.8.6,1.4s-.2,1-.6,1.4c-.4.4-.9.5-1.5.5ZM266.7,173.5c-1.2,0-1.8-.6-1.8-1.8v-10c0-1.1.6-1.8,1.8-1.8s1.8.6,1.8,1.8v10c0,1.1-.6,1.8-1.8,1.8Z"/>
            <path class="cls-5" d="M274.1,173.5c-1.2,0-1.8-.6-1.8-1.8v-10.3c0-.9.5-1.5,1.6-1.5s1.4.4,1.6,1.3v.5h.2c1.5-1.4,2.9-2.2,4.4-2.2,2.8,0,4.2,1.8,4.2,5.5v6.7c0,1.1-.6,1.8-1.8,1.8s-1.8-.6-1.8-1.8v-6.3c0-1-.1-1.8-.5-2.2-.3-.4-.8-.7-1.5-.7s-1,.1-1.5.4c-.3.2-.8.6-1.4,1.1v7.5c0,1.1-.6,1.8-1.8,1.8h0Z"/>
          </g>
        </g>
      </g>
    </g>
  </g>
</svg>