<?xml version="1.0" encoding="UTF-8"?>
<svg xmlns="http://www.w3.org/2000/svg" version="1.1" viewBox="0 0 142.9 143.5">
  <defs>
    <style>
      .cls-1 {
        fill: #24345d;
      }

      .cls-2 {
        fill: #fff;
      }

      .cls-3 {
        fill: #aeb3b8;
      }

      .cls-4 {
        fill: #314675;
      }

      .cls-5 {
        fill: #4dbcbc;
      }

      .cls-6 {
        fill: #e2e3e3;
      }
    </style>
  </defs>
  <!-- Generator: Adobe Illustrator 28.7.7, SVG Export Plug-In . SVG Version: 1.2.0 Build 194)  -->
  <g>
    <g id="_圖層_1" data-name="圖層_1">
      <g>
        <g>
          <path class="cls-1" d="M135,67.8c-.7-.6-1.1-1-1.8-1.4-1.7-7.5-5.3-13.8-11.1-18.3-1.9-2.3-4.2-4.2-7.3-5.8-11.1-6.7-30.4-6-45.1-6s-34-.6-45.1,6c-8.4,4.3-11.8,11.6-13.1,21-1,.5-1.9,1-2.7,1.7-3.7,2.9-6,7.2-6.1,11.9,0,4.6,1.9,9,5.2,12.1,1.3,1.2,2.8,2.1,4.4,2.8,1.3,5.1,3.5,9.6,7.1,13,2.1,2.7,4.7,5,8,6.7,8.7,5.2,22.5,5.9,35.1,6,2.7,11.6,5.9,20.5,8,20.5s.3,0,.4,0c.9,2,1.8,3.1,2.6,3.1,2.6,0,6.1-10.5,8.9-23.5,12.6,0,26.4-.8,35.2-6,7.6-3.9,12.2-10.9,14.6-19.1,0,.2.1.4.2.6,1.2-.5.6-.3,1.7-1.1,3.7-2.9,6-7.2,6.1-11.9.1-4.6-1.9-9-5.2-12.1v-.2h0Z"/>
          <path class="cls-2" d="M73.5,143.5c-1.9,0-3.2-1.5-4.2-3.1-1.9-.6-4.8-3.8-8.9-20.4-12.8-.2-25.7-1.2-34.3-6.3-3.4-1.8-6.3-4.2-8.7-7.2-3.4-3.3-5.9-7.6-7.4-12.9-1.5-.7-2.8-1.7-3.9-2.7-4-3.7-6.1-8.8-6.1-14.1.2-5.4,2.8-10.5,7.1-13.9.6-.5,1.2-.9,1.9-1.3,1.8-10.6,6.3-17.5,14.3-21.6,10.8-6.4,28.4-6.4,42.5-6.4h7.8c14.1,0,31.7,0,42.5,6.3,3.1,1.6,5.7,3.7,7.8,6.2,5.8,4.5,9.7,10.7,11.6,18.6.4.3.8.7,1.3,1.1,4,3.6,6.3,8.8,6.1,14.1-.2,5.4-2.8,10.5-7.1,13.9-.2.2-.3.3-.4.4-.4.4-.7.6-1.2.8-3,8.6-8.2,15-15.3,18.7-8.7,5.1-21.5,6.2-34.3,6.3-5.3,23.5-9.2,23.5-11,23.5h-.1ZM72.2,134.5l1.1,2.2c0,.2.2.5.3.6,1.4-2.5,3.8-9,6.3-20.4l.4-2h2.1c12.8,0,25.8-.8,33.8-5.7h.2c8-4.2,11.7-11.9,13.3-17.6l2.4-8.3,1.7,5.2c2.3-2.4,3.7-5.5,3.8-8.7.1-3.8-1.5-7.4-4.4-10h0c-.7-.6-.9-.8-1.5-1.2l-.9-.6-.2-1.1c-1.6-7.2-5-12.8-10.1-16.8l-.3-.2-.2-.2c-1.7-2.1-3.8-3.8-6.4-5.1h-.2c-9.5-5.8-26.4-5.8-39.9-5.7h-7.8c-13.5,0-30.4,0-39.9,5.7h-.2c-6.8,3.6-10.4,9.4-11.7,19.1l-.2,1.4-1.2.6c-.9.5-1.6.9-2.3,1.4-3.1,2.4-5,6-5.1,9.9,0,3.8,1.5,7.4,4.4,10,1.1,1,2.3,1.7,3.7,2.4l1.2.5.3,1.3c1.3,5,3.3,8.9,6.4,11.8l.3.3c1.9,2.5,4.3,4.5,7.1,5.9h.2c8,4.9,21,5.6,33.8,5.7h2.1l.5,2c2.7,11.3,4.8,16.4,5.9,18.2l1.2-.5h0Z"/>
        </g>
        <g>
          <path class="cls-4" d="M13,92c-1.9-.7-3.7-1.8-5.2-3.1-3.4-3-5.4-7.4-5.2-12.1,0-4.7,2.4-9,6.1-11.9,1-.8,2.2-1.5,3.4-2,10.1,14.8.8,29.1.8,29.1h0Z"/>
          <path class="cls-1" d="M13,92c-1.9-.7-3.7-1.8-5.2-3.1.3-3.6.6-7.4.8-11.4.2-4.4.2-8.6,0-12.5,1-.8,2.2-1.5,3.4-2,.3,9.7.6,19.4.8,29.1h.2,0Z"/>
        </g>
        <g>
          <path class="cls-3" d="M73.5,50.9c-2.9,0-5.5,1.2-7.7,3.8h0c-1,1.1-1.9,2.5-2.6,4.2-2.2,4.7-3.5,11.5-3.5,20.8s.8,13.7,2.1,21.7c3,19.1,8.5,39.5,11.8,39.5s9.1-20.8,11.9-40.1c1.2-7.8,1.9-15.3,1.9-21.1,0-20.1-6.2-28.8-13.8-28.8h-.1,0Z"/>
          <path class="cls-3" d="M134.2,77.8c0,13.9-4.8,27.6-16.6,33.6-11.1,6.7-30.4,6-45.1,6s-34,.6-45.1-6c-11.8-6-15.3-19.4-13.9-33-1.5-13.7,2.1-27,13.9-33,11.1-6.7,30.4-6,45.1-6s34-.6,45.1,6c11.8,6,16.9,18.1,16.6,32.4Z"/>
        </g>
        <path class="cls-6" d="M70.6,47.9c-2.9,0-5.5,1.2-7.7,3.8h0c-1,1.1-1.9,2.5-2.6,4.2h0c-2.2,4.7-3.5,11.5-3.5,20.8s.8,13.7,2.1,21.7c3,19.1,8.5,39.5,11.8,39.5s9.1-20.8,11.9-40.1c1.2-7.8,1.9-15.3,1.9-21.1,0-20.1-6.2-28.8-13.8-28.8h0ZM71,107c-.8,0-1.4-1.6-1.4-3.6s.6-3.6,1.4-3.6,1.4,1.6,1.4,3.6-.6,3.6-1.4,3.6ZM80.3,92c-2.2,2.4-6.4,2.4-9.8,2.4s-7.6,0-9.8-2.4-3.1-17-2.1-21.9,6.7-8.2,11.9-8.2,10.9,3.3,11.9,8.2,0,19.5-2.1,21.9h0Z"/>
        <path class="cls-6" d="M128.7,75.4c.3,14.3-2.1,27-13.9,33.1-11.1,6.7-30.4,6-45.1,6s-34,.6-45.1-6c-11.8-6-14-19-13.9-33,0-15.1,2.1-27,13.9-33,11.1-6.7,30.4-6,45.1-6s34-.6,45.1,6c11.8,6,13.6,17.9,13.9,33h0Z"/>
        <path class="cls-4" d="M115,75.8c0,16.9-10.4,30.7-23.3,30.7h-42.2c-12.9,0-23.3-13.7-23.3-30.7h0c0-16.9,10.4-30.7,23.3-30.7h42.2c12.9,0,23.3,13.7,23.3,30.7h0Z"/>
        <path class="cls-5" d="M78.9,86.4c0,4.7-3.8,8.5-8.5,8.5s-8.5-3.8-8.5-8.5h17Z"/>
        <g>
          <g>
            <g>
              <path class="cls-4" d="M56.6,24.7h-.3c-4.1-2.2-6.7-6.5-6.7-11.2s2.3-8.5,6.1-10.8c.4-.2.8,0,1,.3.2.4,0,.8-.3,1-3.4,2-5.4,5.6-5.4,9.5s2.3,7.9,5.9,9.8c.4.2.5.6.3,1,0,.2-.4.4-.7.4h.1Z"/>
              <path class="cls-2" d="M56.6,27.4c-.6,0-1.1-.1-1.6-.4-5-2.7-8.1-7.8-8.1-13.5s2.7-10.3,7.4-13c1.6-1,3.7-.4,4.6,1.1,1,1.6.5,3.7-1.1,4.6-2.6,1.6-4.1,4.3-4.1,7.3s1.7,6,4.5,7.5c1.6.9,2.3,2.9,1.4,4.5-.6,1.1-1.7,1.8-3,1.8h0ZM57.5,22.3h0Z"/>
            </g>
            <g>
              <path class="cls-4" d="M57.7,20.4c-.2,0-.4,0-.5-.2-2-1.8-3.1-4.1-3.1-6.5s1.1-4.8,3.2-6.6c.3-.3.8-.2,1.1,0,.3.3.2.8,0,1-1.7,1.5-2.7,3.4-2.7,5.4s.9,3.9,2.6,5.4c.3.3.3.7,0,1,0,.2-.3.2-.6.2v.3h0Z"/>
              <path class="cls-2" d="M57.7,23c-.8,0-1.6-.3-2.3-.9-2.6-2.3-4-5.3-4-8.4s1.4-6.2,4.1-8.5c1.4-1.2,3.5-1.1,4.7.3.6.7.9,1.5.8,2.4,0,.9-.5,1.7-1.1,2.3-1.2,1-1.8,2.2-1.8,3.5s.6,2.4,1.7,3.4c.7.6,1.1,1.4,1.1,2.3s-.3,1.8-.8,2.4c-.6.7-1.5,1.1-2.5,1.1h.1ZM59,18.2h0Z"/>
            </g>
          </g>
          <g>
            <g>
              <path class="cls-4" d="M83.3,24.7h.3c4.1-2.2,6.7-6.5,6.7-11.2s-2.3-8.5-6.1-10.8c-.4-.2-.8,0-1,.3-.2.4,0,.8.3,1,3.4,2,5.4,5.6,5.4,9.5s-2.3,7.9-5.9,9.8c-.4.2-.5.6-.3,1,0,.2.4.4.7.4h0Z"/>
              <path class="cls-2" d="M83.3,27.4c-1.2,0-2.4-.7-3-1.8-.4-.8-.5-1.7-.3-2.6.3-.9.8-1.6,1.6-2,2.8-1.5,4.5-4.4,4.5-7.5s-1.5-5.7-4.1-7.3c-.8-.5-1.3-1.2-1.5-2.1s0-1.8.4-2.5c1-1.6,3-2.1,4.6-1.1,4.6,2.8,7.4,7.7,7.4,13.1s-3.1,10.8-8.1,13.5c-.5.3-1,.4-1.6.4h.1ZM82.4,22.3h0ZM84.8,1.7h0Z"/>
            </g>
            <g>
              <path class="cls-4" d="M82.1,20.4c.2,0,.4,0,.5-.2,2-1.8,3.1-4.1,3.1-6.5s-1.1-4.8-3.2-6.6c-.3-.3-.8-.2-1,0-.3.3-.2.8,0,1,1.7,1.5,2.7,3.4,2.7,5.4s-.9,3.9-2.6,5.4c-.3.3-.3.7,0,1,0,.2.3.2.6.2v.3s-.1,0-.1,0Z"/>
              <path class="cls-2" d="M82.1,23c-1,0-1.9-.4-2.5-1.1-1.2-1.4-1.1-3.5.3-4.7,1.1-1,1.8-2.2,1.8-3.4s-.6-2.5-1.8-3.5c-.7-.6-1.1-1.4-1.1-2.3s.2-1.8.8-2.4c.6-.7,1.4-1.1,2.3-1.1s1.8.2,2.4.8c2.6,2.3,4.1,5.3,4.1,8.5s-1.4,6.2-4,8.5c-.6.5-1.4.9-2.2.9v-.2h-.1ZM80.9,18.2h0ZM83.3,6.3h0Z"/>
            </g>
          </g>
          <g>
            <path class="cls-4" d="M70.8,6.7h-.9c-3.6,0-6.5,2.9-6.5,6.5v.9c0,3.3,2.5,6,5.6,6.4l-1.8,15.4c0,1.8,1.4,3.2,3.2,3.2s3.2-1.4,3.2-3.2l-1.8-15.4c3.2-.4,5.6-3.1,5.6-6.4v-.9c0-3.6-2.9-6.5-6.5-6.5,0,0-.1,0-.1,0Z"/>
            <path class="cls-2" d="M70.3,41.8c-3.2,0-5.8-2.6-5.8-5.8v-.3l1.6-13.2c-3.2-1.4-5.4-4.7-5.4-8.3v-.9c0-5,4.1-9.1,9.1-9.1h.9c5,0,9.1,4.1,9.1,9.1v.9c0,3.7-2.2,6.9-5.4,8.3l1.6,13.5c0,3.2-2.6,5.8-5.8,5.8h.1,0ZM69.8,36.1c0,.3.3.5.6.5s.5-.2.6-.5l-.6-4.7-.6,4.7ZM69.9,9.3c-2.1,0-3.9,1.7-3.9,3.9v.9c0,1.9,1.5,3.6,3.4,3.9h1c0,.1,1,0,1,0,1.9-.3,3.4-1.9,3.4-3.9v-.9c0-2.1-1.7-3.9-3.9-3.9,0,0-1,0-1,0Z"/>
          </g>
          <g>
            <g>
              <path class="cls-4" d="M56.6,24.7h-.3c-4.1-2.2-6.7-6.5-6.7-11.2s2.3-8.5,6.1-10.8c.4-.2.8,0,1,.3.2.4,0,.8-.3,1-3.4,2-5.4,5.6-5.4,9.5s2.3,7.9,5.9,9.8c.4.2.5.6.3,1,0,.2-.4.4-.7.4h.1Z"/>
              <path class="cls-4" d="M57.7,20.4c-.2,0-.4,0-.5-.2-2-1.8-3.1-4.1-3.1-6.5s1.1-4.8,3.2-6.6c.3-.3.8-.2,1.1,0,.3.3.2.8,0,1-1.7,1.5-2.7,3.4-2.7,5.4s.9,3.9,2.6,5.4c.3.3.3.7,0,1,0,.2-.3.2-.6.2v.3h0Z"/>
            </g>
            <g>
              <path class="cls-4" d="M83.3,24.7h.3c4.1-2.2,6.7-6.5,6.7-11.2s-2.3-8.5-6.1-10.8c-.4-.2-.8,0-1,.3-.2.4,0,.8.3,1,3.4,2,5.4,5.6,5.4,9.5s-2.3,7.9-5.9,9.8c-.4.2-.5.6-.3,1,0,.2.4.4.7.4h0Z"/>
              <path class="cls-4" d="M82.1,20.4c.2,0,.4,0,.5-.2,2-1.8,3.1-4.1,3.1-6.5s-1.1-4.8-3.2-6.6c-.3-.3-.8-.2-1,0-.3.3-.2.8,0,1,1.7,1.5,2.7,3.4,2.7,5.4s-.9,3.9-2.6,5.4c-.3.3-.3.7,0,1,0,.2.3.2.6.2v.3s-.1,0-.1,0Z"/>
            </g>
            <path class="cls-4" d="M73.5,36c0,1.8-1.4,3.2-3.2,3.2h0c-1.8,0-3.2-1.4-3.2-3.2l2-16.9c0-1.8-.6-3.2,1.2-3.2h0c1.8,0,1.2,1.4,1.2,3.2l2,16.9Z"/>
            <path class="cls-4" d="M69.9,6.7h.9c3.6,0,6.5,2.9,6.5,6.5v.9c0,3.6-2.9,6.5-6.5,6.5h-.9c-3.6,0-6.5-2.9-6.5-6.5v-.9c0-3.6,2.9-6.5,6.5-6.5Z"/>
          </g>
        </g>
        <path class="cls-5" d="M57.8,72.3c0,1.9-1.5,3.4-3.4,3.4h0c-1.9,0-3.4-1.5-3.4-3.4v-8.7c0-1.9,1.5-3.4,3.4-3.4h0c1.9,0,3.4,1.5,3.4,3.4v8.7Z"/>
        <path class="cls-5" d="M87.9,72.3c0,1.9-1.5,3.4-3.4,3.4h0c-1.9,0-3.4-1.5-3.4-3.4v-8.7c0-1.9,1.5-3.4,3.4-3.4h0c1.9,0,3.4,1.5,3.4,3.4v8.7Z"/>
        <g>
          <path class="cls-4" d="M135,67.8c-.3,3.6-.6,7.4-.8,11.4-.2,4.4-.2,8.6-.1,12.5,3.7-2.9,6-7.2,6.1-11.9.1-4.6-1.9-9-5.2-12.1h0Z"/>
          <path class="cls-1" d="M135,67.8c-.8-.7-1.1-1-2-1.6-.8-.5-5.2,12.5-.5,26.6,1.2-.5.6-.3,1.7-1.1,0-4,0-8.2.1-12.5.2-4,.4-7.8.8-11.4h-.1Z"/>
        </g>
      </g>
    </g>
  </g>
</svg>