<?xml version="1.0" encoding="UTF-8"?>
<svg xmlns="http://www.w3.org/2000/svg" version="1.1" viewBox="0 0 340.2 182.2">
  <defs>
    <style>
      .cls-1 {
        fill: #24345d;
      }

      .cls-2 {
        fill: #fff;
      }

      .cls-3 {
        fill: #aeb3b8;
      }

      .cls-4 {
        fill: #314675;
      }

      .cls-5 {
        fill: #4dbcbc;
      }

      .cls-6 {
        fill: #e2e3e3;
      }
    </style>
  </defs>
  <!-- Generator: Adobe Illustrator 28.7.7, SVG Export Plug-In . SVG Version: 1.2.0 Build 194)  -->
  <g>
    <g id="_圖層_1" data-name="圖層_1">
      <g>
        <g>
          <g>
            <path class="cls-1" d="M233.6,67.8c-.7-.6-1.1-1-1.8-1.4-1.7-7.5-5.3-13.8-11.1-18.3-1.9-2.3-4.2-4.2-7.3-5.8-11.1-6.7-30.4-6-45.1-6s-34-.6-45.1,6c-8.4,4.3-11.8,11.6-13.1,21-1,.5-1.9,1-2.7,1.7-3.7,2.9-6,7.2-6.1,11.9,0,4.6,1.9,9,5.2,12.1,1.3,1.2,2.8,2.1,4.4,2.8,1.3,5.1,3.5,9.6,7.1,13,2.1,2.7,4.7,5,8,6.7,8.7,5.2,22.5,5.9,35.1,6,2.7,11.6,5.9,20.5,8,20.5s.3,0,.4,0c.9,2,1.8,3.1,2.6,3.1,2.6,0,6.1-10.5,8.9-23.5,12.6,0,26.4-.8,35.2-6,7.6-3.9,12.2-10.9,14.6-19.1,0,.2.1.4.2.6,1.2-.5.6-.3,1.7-1.1,3.7-2.9,6-7.2,6.1-11.9.1-4.6-1.9-9-5.2-12.1v-.2h0Z"/>
            <path class="cls-2" d="M172.1,143.5c-1.9,0-3.2-1.5-4.2-3.1-1.9-.6-4.8-3.8-8.9-20.4-12.8-.2-25.7-1.2-34.3-6.3-3.4-1.8-6.3-4.2-8.7-7.2-3.4-3.3-5.9-7.6-7.4-12.9-1.5-.7-2.8-1.7-3.9-2.7-4-3.7-6.1-8.8-6.1-14.1.2-5.4,2.8-10.5,7.1-13.9.6-.5,1.2-.9,1.9-1.3,1.8-10.6,6.3-17.5,14.3-21.6,10.8-6.4,28.4-6.4,42.5-6.4h7.8c14.1,0,31.7,0,42.5,6.3,3.1,1.6,5.7,3.7,7.8,6.2,5.8,4.5,9.7,10.7,11.6,18.6.4.3.8.7,1.3,1.1,4,3.6,6.3,8.8,6.1,14.1-.2,5.4-2.8,10.5-7.1,13.9-.2.2-.3.3-.4.4-.4.4-.7.6-1.2.8-3,8.6-8.2,15-15.3,18.7-8.7,5.1-21.5,6.2-34.3,6.3-5.3,23.5-9.2,23.5-11,23.5h-.1ZM170.8,134.5l1.1,2.2c0,.2.2.5.3.6,1.4-2.5,3.8-9,6.3-20.4l.4-2h2.1c12.8,0,25.8-.8,33.8-5.7h.2c8-4.2,11.7-11.9,13.3-17.6l2.4-8.3,1.7,5.2c2.3-2.4,3.7-5.5,3.8-8.7.1-3.8-1.5-7.4-4.4-10h0c-.7-.6-.9-.8-1.5-1.2l-.9-.6-.2-1.1c-1.6-7.2-5-12.8-10.1-16.8l-.3-.2-.2-.2c-1.7-2.1-3.8-3.8-6.4-5.1h-.2c-9.5-5.8-26.4-5.8-39.9-5.7h-7.8c-13.5,0-30.4,0-39.9,5.7h-.2c-6.8,3.6-10.4,9.4-11.7,19.1l-.2,1.4-1.2.6c-.9.5-1.6.9-2.3,1.4-3.1,2.4-5,6-5.1,9.9,0,3.8,1.5,7.4,4.4,10,1.1,1,2.3,1.7,3.7,2.4l1.2.5.3,1.3c1.3,5,3.3,8.9,6.4,11.8l.3.3c1.9,2.5,4.3,4.5,7.1,5.9h.2c8,4.9,21,5.6,33.8,5.7h2.1l.5,2c2.7,11.3,4.8,16.4,5.9,18.2l1.2-.5h0Z"/>
          </g>
          <g>
            <path class="cls-4" d="M111.6,92c-1.9-.7-3.7-1.8-5.2-3.1-3.4-3-5.4-7.4-5.2-12.1,0-4.7,2.4-9,6.1-11.9,1-.8,2.2-1.5,3.4-2,10.1,14.8.8,29.1.8,29.1h0Z"/>
            <path class="cls-1" d="M111.6,92c-1.9-.7-3.7-1.8-5.2-3.1.3-3.6.6-7.4.8-11.4.2-4.4.2-8.6,0-12.5,1-.8,2.2-1.5,3.4-2,.3,9.7.6,19.4.8,29.1h.2,0Z"/>
          </g>
          <g>
            <path class="cls-3" d="M172.1,50.9c-2.9,0-5.5,1.2-7.7,3.8h0c-1,1.1-1.9,2.5-2.6,4.2-2.2,4.7-3.5,11.5-3.5,20.8s.8,13.7,2.1,21.7c3,19.1,8.5,39.5,11.8,39.5s9.1-20.8,11.9-40.1c1.2-7.8,1.9-15.3,1.9-21.1,0-20.1-6.2-28.8-13.8-28.8h-.1,0Z"/>
            <path class="cls-3" d="M232.8,77.8c0,13.9-4.8,27.6-16.6,33.6-11.1,6.7-30.4,6-45.1,6s-34,.6-45.1-6c-11.8-6-15.3-19.4-13.9-33-1.5-13.7,2.1-27,13.9-33,11.1-6.7,30.4-6,45.1-6s34-.6,45.1,6c11.8,6,16.9,18.1,16.6,32.4Z"/>
          </g>
          <path class="cls-6" d="M169.2,47.9c-2.9,0-5.5,1.2-7.7,3.8h0c-1,1.1-1.9,2.5-2.6,4.2h0c-2.2,4.7-3.5,11.5-3.5,20.8s.8,13.7,2.1,21.7c3,19.1,8.5,39.5,11.8,39.5s9.1-20.8,11.9-40.1c1.2-7.8,1.9-15.3,1.9-21.1,0-20.1-6.2-28.8-13.8-28.8h0ZM169.6,107c-.8,0-1.4-1.6-1.4-3.6s.6-3.6,1.4-3.6,1.4,1.6,1.4,3.6-.6,3.6-1.4,3.6ZM178.9,92c-2.2,2.4-6.4,2.4-9.8,2.4s-7.6,0-9.8-2.4-3.1-17-2.1-21.9,6.7-8.2,11.9-8.2,10.9,3.3,11.9,8.2,0,19.5-2.1,21.9h0Z"/>
          <path class="cls-6" d="M227.3,75.4c.3,14.3-2.1,27-13.9,33.1-11.1,6.7-30.4,6-45.1,6s-34,.6-45.1-6c-11.8-6-14-19-13.9-33,0-15.1,2.1-27,13.9-33,11.1-6.7,30.4-6,45.1-6s34-.6,45.1,6c11.8,6,13.6,17.9,13.9,33h0Z"/>
          <path class="cls-4" d="M213.6,75.8c0,16.9-10.4,30.7-23.3,30.7h-42.2c-12.9,0-23.3-13.7-23.3-30.7h0c0-16.9,10.4-30.7,23.3-30.7h42.2c12.9,0,23.3,13.7,23.3,30.7h0Z"/>
          <path class="cls-5" d="M177.5,86.4c0,4.7-3.8,8.5-8.5,8.5s-8.5-3.8-8.5-8.5h17Z"/>
          <g>
            <g>
              <g>
                <path class="cls-4" d="M155.2,24.7h-.3c-4.1-2.2-6.7-6.5-6.7-11.2s2.3-8.5,6.1-10.8c.4-.2.8,0,1,.3.2.4,0,.8-.3,1-3.4,2-5.4,5.6-5.4,9.5s2.3,7.9,5.9,9.8c.4.2.5.6.3,1,0,.2-.4.4-.7.4h.1Z"/>
                <path class="cls-2" d="M155.2,27.4c-.6,0-1.1-.1-1.6-.4-5-2.7-8.1-7.8-8.1-13.5s2.7-10.3,7.4-13c1.6-1,3.7-.4,4.6,1.1,1,1.6.5,3.7-1.1,4.6-2.6,1.6-4.1,4.3-4.1,7.3s1.7,6,4.5,7.5c1.6.9,2.3,2.9,1.4,4.5-.6,1.1-1.7,1.8-3,1.8h0ZM156.1,22.3h0Z"/>
              </g>
              <g>
                <path class="cls-4" d="M156.3,20.4c-.2,0-.4,0-.5-.2-2-1.8-3.1-4.1-3.1-6.5s1.1-4.8,3.2-6.6c.3-.3.8-.2,1.1,0,.3.3.2.8,0,1-1.7,1.5-2.7,3.4-2.7,5.4s.9,3.9,2.6,5.4c.3.3.3.7,0,1,0,.2-.3.2-.6.2v.3h0Z"/>
                <path class="cls-2" d="M156.3,23c-.8,0-1.6-.3-2.3-.9-2.6-2.3-4-5.3-4-8.4s1.4-6.2,4.1-8.5c1.4-1.2,3.5-1.1,4.7.3.6.7.9,1.5.8,2.4,0,.9-.5,1.7-1.1,2.3-1.2,1-1.8,2.2-1.8,3.5s.6,2.4,1.7,3.4c.7.6,1.1,1.4,1.1,2.3s-.3,1.8-.8,2.4c-.6.7-1.5,1.1-2.5,1.1h.1ZM157.6,18.2h0Z"/>
              </g>
            </g>
            <g>
              <g>
                <path class="cls-4" d="M181.9,24.7h.3c4.1-2.2,6.7-6.5,6.7-11.2s-2.3-8.5-6.1-10.8c-.4-.2-.8,0-1,.3-.2.4,0,.8.3,1,3.4,2,5.4,5.6,5.4,9.5s-2.3,7.9-5.9,9.8c-.4.2-.5.6-.3,1,0,.2.4.4.7.4h0Z"/>
                <path class="cls-2" d="M181.9,27.4c-1.2,0-2.4-.7-3-1.8-.4-.8-.5-1.7-.3-2.6.3-.9.8-1.6,1.6-2,2.8-1.5,4.5-4.4,4.5-7.5s-1.5-5.7-4.1-7.3c-.8-.5-1.3-1.2-1.5-2.1s0-1.8.4-2.5c1-1.6,3-2.1,4.6-1.1,4.6,2.8,7.4,7.7,7.4,13.1s-3.1,10.8-8.1,13.5c-.5.3-1,.4-1.6.4h.1ZM181,22.3h0ZM183.4,1.7h0Z"/>
              </g>
              <g>
                <path class="cls-4" d="M180.7,20.4c.2,0,.4,0,.5-.2,2-1.8,3.1-4.1,3.1-6.5s-1.1-4.8-3.2-6.6c-.3-.3-.8-.2-1,0-.3.3-.2.8,0,1,1.7,1.5,2.7,3.4,2.7,5.4s-.9,3.9-2.6,5.4c-.3.3-.3.7,0,1,0,.2.3.2.6.2v.3s-.1,0-.1,0Z"/>
                <path class="cls-2" d="M180.7,23c-1,0-1.9-.4-2.5-1.1-1.2-1.4-1.1-3.5.3-4.7,1.1-1,1.8-2.2,1.8-3.4s-.6-2.5-1.8-3.5c-.7-.6-1.1-1.4-1.1-2.3s.2-1.8.8-2.4c.6-.7,1.4-1.1,2.3-1.1s1.8.2,2.4.8c2.6,2.3,4.1,5.3,4.1,8.5s-1.4,6.2-4,8.5c-.6.5-1.4.9-2.2.9v-.2h-.1ZM179.5,18.2h0ZM181.9,6.3h0Z"/>
              </g>
            </g>
            <g>
              <path class="cls-4" d="M169.4,6.7h-.9c-3.6,0-6.5,2.9-6.5,6.5v.9c0,3.3,2.5,6,5.6,6.4l-1.8,15.4c0,1.8,1.4,3.2,3.2,3.2s3.2-1.4,3.2-3.2l-1.8-15.4c3.2-.4,5.6-3.1,5.6-6.4v-.9c0-3.6-2.9-6.5-6.5-6.5,0,0-.1,0-.1,0Z"/>
              <path class="cls-2" d="M168.9,41.8c-3.2,0-5.8-2.6-5.8-5.8v-.3l1.6-13.2c-3.2-1.4-5.4-4.7-5.4-8.3v-.9c0-5,4.1-9.1,9.1-9.1h.9c5,0,9.1,4.1,9.1,9.1v.9c0,3.7-2.2,6.9-5.4,8.3l1.6,13.5c0,3.2-2.6,5.8-5.8,5.8h.1,0ZM168.4,36.1c0,.3.3.5.6.5s.5-.2.6-.5l-.6-4.7-.6,4.7ZM168.5,9.3c-2.1,0-3.9,1.7-3.9,3.9v.9c0,1.9,1.5,3.6,3.4,3.9h1c0,.1,1,0,1,0,1.9-.3,3.4-1.9,3.4-3.9v-.9c0-2.1-1.7-3.9-3.9-3.9,0,0-1,0-1,0Z"/>
            </g>
            <g>
              <g>
                <path class="cls-4" d="M155.2,24.7h-.3c-4.1-2.2-6.7-6.5-6.7-11.2s2.3-8.5,6.1-10.8c.4-.2.8,0,1,.3.2.4,0,.8-.3,1-3.4,2-5.4,5.6-5.4,9.5s2.3,7.9,5.9,9.8c.4.2.5.6.3,1,0,.2-.4.4-.7.4h.1Z"/>
                <path class="cls-4" d="M156.3,20.4c-.2,0-.4,0-.5-.2-2-1.8-3.1-4.1-3.1-6.5s1.1-4.8,3.2-6.6c.3-.3.8-.2,1.1,0,.3.3.2.8,0,1-1.7,1.5-2.7,3.4-2.7,5.4s.9,3.9,2.6,5.4c.3.3.3.7,0,1,0,.2-.3.2-.6.2v.3h0Z"/>
              </g>
              <g>
                <path class="cls-4" d="M181.9,24.7h.3c4.1-2.2,6.7-6.5,6.7-11.2s-2.3-8.5-6.1-10.8c-.4-.2-.8,0-1,.3-.2.4,0,.8.3,1,3.4,2,5.4,5.6,5.4,9.5s-2.3,7.9-5.9,9.8c-.4.2-.5.6-.3,1,0,.2.4.4.7.4h0Z"/>
                <path class="cls-4" d="M180.7,20.4c.2,0,.4,0,.5-.2,2-1.8,3.1-4.1,3.1-6.5s-1.1-4.8-3.2-6.6c-.3-.3-.8-.2-1,0-.3.3-.2.8,0,1,1.7,1.5,2.7,3.4,2.7,5.4s-.9,3.9-2.6,5.4c-.3.3-.3.7,0,1,0,.2.3.2.6.2v.3s-.1,0-.1,0Z"/>
              </g>
              <path class="cls-4" d="M172.1,36c0,1.8-1.4,3.2-3.2,3.2h0c-1.8,0-3.2-1.4-3.2-3.2l2-16.9c0-1.8-.6-3.2,1.2-3.2h0c1.8,0,1.2,1.4,1.2,3.2l2,16.9Z"/>
              <path class="cls-4" d="M168.5,6.7h.9c3.6,0,6.5,2.9,6.5,6.5v.9c0,3.6-2.9,6.5-6.5,6.5h-.9c-3.6,0-6.5-2.9-6.5-6.5v-.9c0-3.6,2.9-6.5,6.5-6.5Z"/>
            </g>
          </g>
          <path class="cls-5" d="M156.4,72.3c0,1.9-1.5,3.4-3.4,3.4h0c-1.9,0-3.4-1.5-3.4-3.4v-8.7c0-1.9,1.5-3.4,3.4-3.4h0c1.9,0,3.4,1.5,3.4,3.4v8.7Z"/>
          <path class="cls-5" d="M186.5,72.3c0,1.9-1.5,3.4-3.4,3.4h0c-1.9,0-3.4-1.5-3.4-3.4v-8.7c0-1.9,1.5-3.4,3.4-3.4h0c1.9,0,3.4,1.5,3.4,3.4v8.7Z"/>
          <g>
            <path class="cls-4" d="M233.6,67.8c-.3,3.6-.6,7.4-.8,11.4-.2,4.4-.2,8.6-.1,12.5,3.7-2.9,6-7.2,6.1-11.9.1-4.6-1.9-9-5.2-12.1h0Z"/>
            <path class="cls-1" d="M233.6,67.8c-.8-.7-1.1-1-2-1.6-.8-.5-5.2,12.5-.5,26.6,1.2-.5.6-.3,1.7-1.1,0-4,0-8.2.1-12.5.2-4,.4-7.8.8-11.4h-.1Z"/>
          </g>
        </g>
        <g>
          <g>
            <g>
              <path class="cls-5" d="M9.3,173.4c-2.4,0-4.4-.6-6.4-1.9-1-.8-1.1-1.7-.2-2.6.8-1.1,1.9-1.2,3-.4,1.3.7,2.6,1.2,3.8,1.2s1.9-.2,2.5-.6.8-1.1.8-1.8-.2-1.3-.8-1.7c-.4-.2-1.1-.6-2.1-1.2h-.2l-2.9-1.2c-2.9-1.2-4.4-3.2-4.4-5.8s.7-3.2,2.1-4.4,3.2-1.8,5.3-1.8,3.9.6,5.5,1.7c.8.7.8,1.4.1,2.4-.8,1-1.7,1.1-2.6.4-1-.5-1.9-.7-3.1-.7s-1.7.2-2.3.6-.8,1-.8,1.7.4,1.2,1,1.7c.4.4,1.2.6,2.3,1.1h.2l2.9,1.2c1.4.6,2.4,1.3,3.2,2.1.8,1,1.2,2.1,1.2,3.7s-.7,3.3-2.1,4.5c-1.4,1.3-3.4,1.9-5.8,1.9h-.1.1Z"/>
              <path class="cls-2" d="M9.3,175.6c-2.7,0-5.2-.8-7.6-2.3h-.1c-1.2-1.2-1.4-2.1-1.5-2.9,0-.7,0-1.8,1.1-2.9,1.5-1.9,3.7-2.1,5.7-.7,1,.6,1.8.8,2.6.8s1.2-.1,1.3-.2h0s-.4-.4-1.7-1h-.2l-2.9-1.2c-4.6-1.9-5.7-5.2-5.7-7.7s1-4.4,2.9-6.1c1.8-1.5,4-2.3,6.7-2.3s4.6.7,6.7,2.1h.1c1.7,1.7,1.9,3.7.4,5.5-1.4,1.8-3.4,2.1-5.3.8-.6-.4-1.3-.5-2-.5s-.7,0-.8.1c.1,0,.6.4,1.7.8.1,0,.2,0,.4.1l2.7,1.2c1.7.7,3.1,1.7,3.9,2.7,1.2,1.4,1.7,3.1,1.7,5s-1,4.5-2.9,6.2-4.3,2.5-7.2,2.5h0c0-.1.4-.4.4-.4ZM4.2,170.1h0ZM4.8,156.1c-.1.4-.2.8-.2,1.3,0,1.2.4,2.7,3.1,3.8l3,1.3c1.4.6,2.1,1,2.7,1.4,1.2.8,1.7,2,1.7,3.4s0,.8-.1,1.3c.2-.5.4-1.1.4-1.7,0-1-.2-1.8-.7-2.4-.5-.6-1.2-1.1-2.3-1.5l-3-1.3c-1.3-.5-2.1-1-2.7-1.4-1.2-.8-1.8-2-1.8-3.3s0-.7.1-1.1h-.1ZM14.3,153.8h0Z"/>
            </g>
            <g>
              <path class="cls-4" d="M22.8,172.9c-1.4,0-2.1-.7-2.1-2.1v-12.4c0-1.2.6-1.8,1.9-1.8s1.7.5,1.9,1.5v.6h.2c.8-.8,1.5-1.4,2.1-1.9.8-.5,1.9-.7,2.9-.7,2.1,0,3.7,1,4.4,2.9.8-.8,1.7-1.7,2.4-2,.8-.6,1.9-.8,2.9-.8,1.7,0,3,.6,3.8,1.8s1.2,2.6,1.2,4.8v8c0,1.4-.7,2.1-2.1,2.1s-2.1-.7-2.1-2.1v-7.5c0-1.2-.1-2.1-.6-2.6-.4-.5-.8-.7-1.7-.7s-1.9.6-3.2,1.9v9c0,1.4-.7,2.1-2.1,2.1s-2.1-.7-2.1-2.1v-7.5c0-1.2-.1-2.1-.6-2.6-.4-.5-.8-.7-1.7-.7s-1.9.6-3.2,1.9v9c0,1.4-.7,2.1-2.1,2.1h.1Z"/>
              <path class="cls-2" d="M42.2,175.1c-2.6,0-4.3-1.7-4.3-4.2v-7.5c0-.6,0-1.1-.1-1.3h0s-.4,0-1.1.6v8.2c0,2.6-1.7,4.2-4.2,4.2s-4.3-1.7-4.3-4.2v-7.5c0-.6,0-1.1-.1-1.3h0s-.4,0-1.1.6v8.2c0,2.6-1.7,4.2-4.2,4.2s-4.2-1.7-4.2-4.2v-12.4c0-2.4,1.5-3.9,3.9-3.9s2,.4,2.7,1c.1,0,.4-.2.5-.4,1.3-.7,2.5-1.1,3.9-1.1s3.6.6,4.8,1.8c.4-.2.6-.5,1-.6,1.2-.7,2.5-1.2,3.9-1.2,3,0,4.6,1.4,5.5,2.6,1.2,1.4,1.7,3.6,1.7,6.1v8c0,2.6-1.7,4.2-4.2,4.2h-.2ZM42.2,171.2h0ZM42.2,170.9h0v-8c0-1.7-.2-2.9-.8-3.6-.2-.4-.6-.6-1.2-.8.5.4.8.7,1,1,.6.8,1,2.1,1,3.9v7.5h.1ZM32.4,170.9h0v-10l-.4-.8c-.4-.8-.8-1.3-1.7-1.4.5.4.8.7,1.1,1,.6.8.8,2.1.8,3.9v7.5h.1ZM22.8,170.9h0v-9.9,9.9h0Z"/>
            </g>
            <g>
              <path class="cls-4" d="M52.8,173.4c-1.4,0-2.6-.5-3.4-1.4s-1.4-2.1-1.4-3.4.7-3.1,2.1-4,3.9-1.7,7.1-1.9c0-1.9-1-2.9-2.7-2.9s-1.9.2-2.9.7-1.8.4-2.4-.6c-.5-.8-.4-1.7.6-2.1,1.9-1,3.7-1.4,5.5-1.4s3.7.6,4.6,1.8,1.7,3,1.7,5.3v7.7c0,1.2-.6,1.8-1.9,1.8s-1.7-.5-1.9-1.5v-.2h0c-1.7,1.4-3.3,2.1-4.9,2.1h-.1ZM54.1,170.1c1.1,0,2.1-.6,3.2-1.7v-3.3c-1.9.2-3.2.6-4.2,1.2-.8.5-1.2,1.2-1.2,1.9,0,1.2.7,1.9,2.1,1.9h0Z"/>
              <path class="cls-2" d="M52.8,175.6c-2,0-3.7-.6-5-2-1.3-1.3-1.9-3-1.9-4.9s1.2-4.4,3.2-5.8c0,0,.1,0,.2-.1-.7-.4-1.4-.8-1.9-1.8-1.1-1.9-.5-3.9,1.4-4.9,2.1-1.2,4.4-1.7,6.5-1.7s4.8.8,6.2,2.5c1.4,1.7,2.1,3.9,2.1,6.8v7.7c0,2.4-1.5,3.9-3.9,3.9s-1.9-.4-2.6-.8c-1.4.8-2.9,1.2-4.3,1.2h-.1ZM59.3,169.1h0v-4.6h0v4.6ZM59.3,162.5v.8-.8Z"/>
            </g>
            <g>
              <path class="cls-4" d="M68,172.9c-1.4,0-2.1-.7-2.1-2.1v-12.4c0-1.2.6-1.8,1.8-1.8s1.8.6,1.9,1.7v1.3h.2c.6-1.1,1.3-1.9,2.1-2.4s1.7-.8,2.5-.8h.4c.5,0,.8.4,1.1.8s.2.8,0,1.4c-.2,1.2-1,1.8-2,1.5h0c-.7,0-1.4.2-2,.7-.7.6-1.3,1.4-1.8,2.5v7.6c0,1.4-.7,2.1-2.1,2.1h0c0,0,0-.1,0-.1h.1Z"/>
              <path class="cls-2" d="M68,175.1c-2.6,0-4.2-1.7-4.2-4.2v-12.4c0-2.4,1.5-3.9,3.9-3.9s2.1.4,2.7,1c0,0,.1,0,.2-.1,1.2-.8,2.4-1.2,3.7-1.2h.8c1.2.4,2,1,2.5,2,.4.8.5,1.8.2,2.7-.5,2.3-2.1,3.4-4.2,3.2-.1,0-.4,0-.6.2-.4.2-.6.6-1,1.2v7.2c0,2.6-1.7,4.2-4.2,4.2h-.1ZM68,170.9h0v-8.4c.2-.2.4-.6.5-.8h-.5v9.1h0ZM73.8,157.9h0Z"/>
            </g>
            <g>
              <path class="cls-4" d="M84.5,173.4c-3.6,0-5.3-2-5.3-6.1v-7.2h-.7c-1.1,0-1.5-.6-1.5-1.7s.5-1.7,1.4-1.7h1.1l.4-2.9c0-1.2.7-1.7,1.9-1.7s1.9.6,1.9,1.8v2.6h2.4c1.2,0,1.7.6,1.7,1.7s-.6,1.7-1.7,1.7h-2.4v7.2c0,1.9.7,2.7,2.1,2.7h0c1-.2,1.7.1,1.9,1.2.2,1,0,1.7-1,1.9-.7.1-1.4.2-2.1.2h.1-.1Z"/>
              <path class="cls-2" d="M84.5,175.6c-4.8,0-7.5-3-7.5-8.2v-5.3c-1.4-.5-2.3-1.8-2.3-3.6s1.1-3.2,2.7-3.7v-1.1c.4-2.1,1.9-3.6,4.2-3.6s3.9,1.5,3.9,3.9v.5h.2c2.4,0,3.8,1.4,3.8,3.8s-1.4,3.8-3.8,3.8h-.2v5.7c1.9-.2,3.6.8,4,2.9.5,2.1-.5,3.9-2.4,4.4s-1.9.4-2.7.4h0ZM81.3,158.6v8.7c0,2,.5,3,1.2,3.4-.6-.8-1.2-1.9-1.2-3.4v-9,.4Z"/>
            </g>
            <g>
              <path class="cls-5" d="M97,172.9c-1.4,0-2.1-.7-2.1-2.1v-15.8h-4.3c-1.2,0-1.8-.6-1.8-1.8s.6-1.8,1.8-1.8h13c1.2,0,1.8.6,1.8,1.8s-.6,1.8-1.8,1.8h-4.4v15.8c0,1.4-.7,2.1-2.1,2.1h0Z"/>
              <path class="cls-2" d="M97,175.1c-2.6,0-4.3-1.7-4.3-4.3v-13.7h-2.1c-2.4,0-3.9-1.5-3.9-3.9s1.5-3.9,3.9-3.9h13c2.4,0,3.9,1.5,3.9,3.9s-1.5,3.9-3.9,3.9h-2.1v13.7c0,2.6-1.7,4.3-4.3,4.3h-.1ZM97,170.9h0v-17.2h0v17.2h0Z"/>
            </g>
            <g>
              <path class="cls-4" d="M110.1,173.4c-1.4,0-2.6-.5-3.4-1.4-.8-.8-1.4-2.1-1.4-3.4s.7-3.1,2.1-4,3.9-1.7,7.1-1.9c0-1.9-1-2.9-2.7-2.9s-1.9.2-2.9.7c-1.1.5-1.8.4-2.4-.6-.5-.8-.4-1.7.6-2.1,1.9-1,3.7-1.4,5.5-1.4s3.7.6,4.6,1.8,1.7,3,1.7,5.3v7.7c0,1.2-.6,1.8-1.9,1.8s-1.7-.5-1.9-1.5v-.2h0c-1.7,1.4-3.3,2.1-4.9,2.1h-.1ZM111.6,170.1c1.1,0,2.1-.6,3.2-1.7v-3.3c-1.9.2-3.2.6-4.2,1.2-.8.5-1.2,1.2-1.2,1.9,0,1.2.7,1.9,2.1,1.9h0Z"/>
              <path class="cls-2" d="M110.1,175.6c-2,0-3.7-.7-5-2s-1.9-3-1.9-4.9,1.2-4.4,3.2-5.8c0,0,.1,0,.2-.1-.7-.4-1.4-.8-1.9-1.8-1.1-1.9-.5-3.9,1.4-4.9,2.1-1.2,4.4-1.7,6.5-1.7s4.8.8,6.2,2.5c1.4,1.7,2.1,3.9,2.1,6.8v7.7c0,2.4-1.5,3.9-3.9,3.9s-1.9-.4-2.6-.8c-1.4.8-2.9,1.2-4.3,1.2h-.1ZM116.8,169.1h0v-4.6h0v4.6ZM116.8,162.6v.8-.8Z"/>
            </g>
            <g>
              <path class="cls-4" d="M127.4,173.4c-2.6,0-4-1.7-4-4.9v-16.5c0-1.4.7-2.1,2.1-2.1s2.1.7,2.1,2.1v16.8c0,.8.4,1.3.8,1.3h0c.1,0,.4,0,.4.2s.1.4.2.6v1.5c-.1.6-.4,1-.8,1.1h-1.1.2Z"/>
              <path class="cls-2" d="M127.4,175.6c-1.9,0-6.2-.7-6.2-7.1v-16.5c0-2.6,1.7-4.2,4.2-4.2s4.2,1.7,4.2,4.2v16.2c.4.1.7.5,1,.8.4.5.5.8.6,1.4.1.8.1,1.7,0,2.4-.4,1.9-1.7,2.5-2.4,2.6h-.4c-.5,0-.8.1-1.2.1h.2ZM125.5,151.9h0v16.5c0,1.7.4,2.4.8,2.6-.5-.6-.8-1.4-.8-2.4v-16.8h0ZM125.3,151.7h0Z"/>
            </g>
            <g>
              <path class="cls-4" d="M134.6,172.9c-1.4,0-2.1-.6-2.1-2.1v-19.1c0-1.4.7-2.1,2.1-2.1s2.1.6,2.1,2.1v11.9h0l4.9-6.2c.5-.6,1.2-.8,1.9-.8h2.4c.4,0,.6,0,.6.2s0,.4-.2.6l-4.9,5.8,4.8,7.5c.4.6.6,1.2.4,1.5s-.7.6-1.4.6h-.8c-.4,0-.7,0-1.2-.4-.4-.2-.6-.5-.8-.8l-3.3-5.6-2.4,2.6v2c0,1.4-.7,2.1-2.1,2.1h.2Z"/>
              <path class="cls-2" d="M145.1,175.1h-.8c-.8,0-1.5-.2-2.1-.6s-1.2-.8-1.5-1.4h0l-1.7-3v.8c0,2.5-1.7,4.2-4.2,4.2s-4.2-1.7-4.2-4.2v-19.1c0-2.5,1.7-4.2,4.2-4.2s4.2,1.7,4.2,4.2v5.9l1.3-1.7c.8-1.2,2.1-1.7,3.4-1.7h2.4c1.7,0,2.4,1,2.5,1.4.1.4.6,1.7-.5,2.9l-3.9,4.6,3.9,6.2c1.2,1.7.7,3.1.4,3.7-.4.7-1.4,1.7-3.3,1.7h0c0,.1,0,.2,0,.2ZM134.5,171.2h0ZM134.7,170.9h0ZM134.6,165.9v2.1l1.9-2.1h-1.9ZM134.7,152h0ZM134.5,151.7h0Z"/>
            </g>
            <g>
              <path class="cls-4" d="M152.2,154.1c-.7,0-1.4-.2-1.9-.6s-.7-1-.7-1.7.2-1.3.7-1.7,1.2-.6,1.9-.6,1.4.2,1.8.6c.5.4.7,1,.7,1.7s-.2,1.2-.7,1.7-1.1.6-1.8.6ZM152.1,172.9c-1.4,0-2.1-.7-2.1-2.1v-12c0-1.4.7-2.1,2.1-2.1s2.1.7,2.1,2.1v12c0,1.4-.7,2.1-2.1,2.1Z"/>
              <path class="cls-2" d="M152.1,175.1c-2.6,0-4.2-1.7-4.2-4.2v-12c0-1.4.6-2.6,1.5-3.4-.1-.1-.4-.2-.5-.4-1-.8-1.4-1.9-1.4-3.2s.5-2.4,1.4-3.3c.8-.7,2-1.2,3.2-1.2s2.4.4,3.2,1.2,1.4,1.9,1.4,3.2-.5,2.4-1.4,3.2c-.1.1-.4.4-.6.5,1,.7,1.5,1.9,1.5,3.4v12c0,2.6-1.7,4.2-4.2,4.2h-.1ZM152.2,171.2h0ZM152.1,170.9h0v-12h0v12h0ZM151.7,151.8h0c0,.1.8.1.8.1v-.2h-.8ZM151.7,151.7h0Z"/>
            </g>
            <g>
              <path class="cls-4" d="M161,172.9c-1.4,0-2.1-.7-2.1-2.1v-12.4c0-1.2.6-1.8,1.9-1.8s1.7.5,1.9,1.5v.6h.2c1.8-1.7,3.4-2.6,5.2-2.6,3.3,0,5,2.1,5,6.5v8c0,1.4-.7,2.1-2.1,2.1s-2.1-.7-2.1-2.1v-7.5c0-1.2-.1-2.1-.6-2.6-.4-.5-1-.8-1.8-.8s-1.2.1-1.8.5c-.4.2-1,.7-1.7,1.4v9c0,1.4-.7,2.1-2.1,2.1h0c0,.1.1.1.1.1Z"/>
              <path class="cls-2" d="M171,175.1c-2.6,0-4.3-1.7-4.3-4.2v-8.8h0c-.2,0-.5,0-.7.1,0,0-.2.1-.6.5v8.2c0,2.6-1.7,4.2-4.2,4.2s-4.2-1.7-4.2-4.2v-12.4c0-2.4,1.5-3.9,3.9-3.9s2.1.4,2.7,1c1.4-1,3-1.4,4.6-1.4s7.1.8,7.1,8.7v8c0,2.6-1.7,4.2-4.2,4.2h-.4ZM170.9,170.9h0v-8c0-3.4-1.1-4.2-2.1-4.4.6.4.8.7,1.2,1.1.6.8.8,2.1.8,3.9v7.5h.1ZM161,170.9h0v-9.9,9.9h0Z"/>
            </g>
            <g>
              <path class="cls-4" d="M183.2,180.1c-2,0-3.7-.4-4.9-1.1-1.3-.7-1.9-1.8-1.9-3.2s.8-2.5,2.4-3.4h0c-1-.8-1.4-1.7-1.4-2.9s.1-1.2.6-1.7c.4-.5.7-1,1.2-1.4h0c-.6-.6-1.2-1.2-1.4-1.9-.5-.8-.6-1.7-.6-2.5,0-1.9.6-3.3,1.9-4.4,1.2-1,2.7-1.5,4.6-1.5s1.7.1,2.4.4h4.3c1.1,0,1.5.5,1.5,1.5s-.5,1.5-1.5,1.5h-1.2c.5.6.7,1.4.7,2.5,0,1.8-.6,3.2-1.9,4.2-1.2,1-2.6,1.4-4.4,1.4s-1.4-.1-2.1-.4c-.5.4-.7.8-.7,1.4s.1.8.6,1c.4.2,1.1.4,2,.4h2.7c4,0,6.1,1.4,6.1,4s-.8,3.1-2.4,4.2c-1.7,1.2-3.8,1.7-6.4,1.7v.4h-.1ZM183.8,177.3c1.2,0,2.1-.2,3-.7.7-.5,1.2-1,1.2-1.7s-.2-1-.7-1.2c-.4-.1-1.1-.4-2-.4h-1.9c-.8,0-1.7,0-2.3-.2-.7.6-1.1,1.2-1.1,1.9s.4,1.2,1.1,1.7,1.7.6,2.9.6h-.1ZM183.4,165.2c.7,0,1.4-.2,1.8-.8.5-.6.7-1.3.7-2.1s-.2-1.7-.7-2.1-1.1-.8-1.8-.8-1.4.2-1.9.8c-.5.6-.7,1.3-.7,2.1s.2,1.7.7,2.1,1.1.8,1.8.8h.1Z"/>
              <path class="cls-2" d="M183.2,182.2c-2.4,0-4.4-.4-5.9-1.3-1.9-1.2-3.1-2.9-3.1-5s.4-2.4,1.4-3.7c-.4-.7-.6-1.7-.6-2.6s.4-1.9.8-2.9c0,0,0-.1.1-.2-.1-.2-.4-.5-.5-.7-.6-1.2-1-2.4-1-3.6,0-2.4,1-4.5,2.7-5.9,1.7-1.3,3.7-2,5.9-2s1.9.1,2.7.4h3.9c2.1,0,3.7,1.4,3.7,3.7s-.8,2.9-2.1,3.4v.6c0,2.4-.8,4.4-2.6,5.7,0,0-.2.1-.4.2,4.6,1,5.2,4.4,5.2,5.9s-.6,4-3.3,5.9c-2,1.4-4.5,2-7.7,2h.6ZM189.7,173.3c0,.1.1.2.1.4,0-.1,0-.2-.1-.4ZM183.4,161.3h-.2c-.1.1-.1.6-.1.8s0,.6.1.8h.5c.1-.1.1-.6.1-.8s0-.6-.1-.8h-.2Z"/>
            </g>
            <g>
              <path class="cls-4" d="M195.4,166.2c-1,0-1.5-.5-1.5-1.5s.5-1.5,1.5-1.5h4.9c1,0,1.5.5,1.5,1.5s-.5,1.5-1.5,1.5h-4.9Z"/>
              <path class="cls-2" d="M200.4,168.3h-4.9c-2.1,0-3.7-1.4-3.7-3.7s1.4-3.7,3.7-3.7h4.9c2.1,0,3.7,1.4,3.7,3.7s-1.4,3.7-3.7,3.7Z"/>
            </g>
            <g>
              <path class="cls-5" d="M207.9,172.9c-1.3,0-1.9-.6-1.9-1.9v-17.7c0-.6.1-1.1.5-1.4s.8-.5,1.4-.5h1.4c.5,0,.8.1,1.2.4s.6.6.7,1.1l3.2,8.7c.2.6.5,1.5.8,2.9.1.6.4,1.1.4,1.3h.1c.1-.4.4-1.1.6-1.9.4-1,.5-1.8.7-2.3l3.1-8.7c.1-.4.4-.7.7-1.1.4-.2.8-.4,1.2-.4h2.1c.4,0,.6,0,.8.4s.4.5.4.8v18.4c0,1.3-.6,1.9-1.9,1.9s-1.9-.6-1.9-1.9v-7c0-1.2.1-3.4.5-6.5v-.5h0l-1.8,5.1-2.9,7.8c-.1.4-.4.6-.6.8-.4.2-.6.4-1.1.4h0c-.7,0-1.3-.4-1.5-1.1l-2.9-8-1.7-5.1h0v1.1c.4,2.9.4,4.9.4,6.1v7c0,1.3-.6,1.9-1.9,1.9h-.2Z"/>
              <path class="cls-2" d="M223.5,175.1c-2.5,0-4.2-1.7-4.2-4v-.7.4c-.4.8-.8,1.4-1.5,1.9-.6.5-1.4.7-2.1.7h0c-1.7,0-2.9-.8-3.6-2.4v-.4.6c0,2.4-1.7,4-4,4s-4-1.7-4-4v-17.7c0-1.2.4-2.1,1.2-2.9s1.8-1.2,2.9-1.2h1.4c.8,0,1.7.2,2.4.7s1.3,1.2,1.5,2.1l2.5,7,2.5-7c.2-.8.8-1.5,1.5-2s1.5-.7,2.4-.7h2.1c.8,0,1.7.4,2.3.8.6.6.8,1.4.8,2.3v18.4c0,2.5-1.7,4-4,4h0ZM223.7,171.2h0ZM215.5,167.8v.5c.1,0,.4-.5.4-.5h-.4ZM221.7,154.8h1.7v-1.2h-1.2l-.4,1.2h-.1ZM208,154.8h1.7l-.5-1.2h-1.2v1.2Z"/>
            </g>
            <g>
              <path class="cls-4" d="M234.4,173.4c-1.4,0-2.6-.5-3.4-1.4-.8-.8-1.4-2.1-1.4-3.4s.7-3.1,2.1-4,3.9-1.7,7.1-1.9c0-1.9-1-2.9-2.7-2.9s-1.9.2-2.9.7c-1.1.5-1.8.4-2.4-.6-.5-.8-.4-1.7.6-2.1,1.9-1,3.7-1.4,5.5-1.4s3.7.6,4.6,1.8,1.7,3,1.7,5.3v7.7c0,1.2-.6,1.8-1.9,1.8s-1.7-.5-1.9-1.5v-.2h0c-1.7,1.4-3.3,2.1-4.9,2.1h-.1ZM235.8,170.1c1.1,0,2.1-.6,3.2-1.7v-3.3c-1.9.2-3.2.6-4.2,1.2-.8.5-1.2,1.2-1.2,1.9,0,1.2.7,1.9,2.1,1.9h0Z"/>
              <path class="cls-2" d="M234.4,175.6c-2,0-3.7-.7-5-2s-1.9-3-1.9-4.9,1.2-4.4,3.2-5.8c0,0,.1,0,.2-.1-.7-.4-1.4-.8-1.9-1.8-1.1-1.9-.5-3.9,1.4-4.9,2.1-1.2,4.4-1.7,6.5-1.7s4.8.8,6.2,2.5c1.4,1.7,2.1,3.9,2.1,6.8v7.7c0,2.4-1.5,3.9-3.9,3.9s-1.9-.4-2.6-.8c-1.4.8-2.9,1.2-4.3,1.2h-.1ZM241.1,169.1h0v-4.6h0v4.6ZM241.1,162.6v.8-.8Z"/>
            </g>
            <g>
              <path class="cls-4" d="M249.7,172.9c-1.4,0-2.1-.7-2.1-2.1v-12.4c0-1.2.6-1.8,1.9-1.8s1.7.5,1.9,1.5v.6h.2c1.8-1.7,3.4-2.6,5.2-2.6,3.3,0,5,2.1,5,6.5v8c0,1.4-.7,2.1-2.1,2.1s-2.1-.7-2.1-2.1v-7.5c0-1.2-.1-2.1-.6-2.6-.4-.5-1-.8-1.8-.8s-1.2.1-1.8.5c-.4.2-1,.7-1.7,1.4v9c0,1.4-.7,2.1-2.1,2.1h0c0,.1.1.1.1.1Z"/>
              <path class="cls-2" d="M259.6,175.1c-2.6,0-4.3-1.7-4.3-4.2v-8.8c-.2,0-.5,0-.7.1,0,0-.2.1-.6.5v8.2c0,2.6-1.7,4.2-4.2,4.2s-4.2-1.7-4.2-4.2v-12.4c0-2.4,1.5-3.9,3.9-3.9s2.1.4,2.7,1c1.4-1,3-1.4,4.6-1.4s7.1.8,7.1,8.7v8c0,2.6-1.7,4.2-4.2,4.2h-.4ZM249.7,171.2h0ZM259.6,170.9h0v-8c0-3.4-1.1-4.2-2-4.4.5.4.8.7,1.2,1.1.6.8.8,2.1.8,3.9v7.5h0ZM249.7,170.9h0v-9.9,9.9h0Z"/>
            </g>
            <g>
              <path class="cls-4" d="M272,173.4c-2,0-3.7-.7-4.9-2.3s-1.8-3.6-1.8-6.2.7-4.6,2.1-6.3c1.3-1.5,2.9-2.3,4.8-2.3s1.7.1,2.4.5c.6.2,1.2.6,1.8,1.3v-2.6c-.1,0-.1-3.7-.1-3.7,0-1.4.7-2.1,2.1-2.1s2.1.7,2.1,2.1v19.4c0,.6-.1,1-.5,1.3s-.8.4-1.4.4c-1.1,0-1.7-.5-1.9-1.4v-.2h-.1c-1.4,1.4-2.9,2.1-4.5,2.1h-.1ZM273,170c1.2,0,2.1-.6,3-1.7v-7.1c-.8-.8-1.9-1.2-3-1.2s-1.8.4-2.4,1.3c-.6.8-1,2.1-1,3.7s.4,2.9.8,3.8,1.4,1.3,2.5,1.3h0Z"/>
              <path class="cls-2" d="M272,175.6c-2.6,0-4.9-1.1-6.5-3.1-1.5-1.9-2.3-4.4-2.3-7.5s.8-5.7,2.6-7.7,3.9-3.1,6.3-3.1,1.2,0,1.9.2v-2.5c0-2.6,1.7-4.2,4.3-4.2s4.2,1.7,4.2,4.2v19.4c0,1.4-.6,2.4-1.2,2.9-.5.4-1.4,1-2.7,1s-1.9-.2-2.5-.7c-1.3.8-2.6,1.2-4,1.2h0ZM268.3,160.9c-.6,1.1-1,2.4-1,3.9s.5,3.8,1.4,4.9c0,.1.2.2.4.4,0-.1-.2-.2-.4-.4-.8-1.2-1.2-2.9-1.2-4.9s.2-2.9.8-3.9h-.1ZM278,169.1h.2c0,.1,0-6.3,0-6.3h0v6.1l-.2.2ZM273,161.9c-.2,0-.4,0-.6.4-.4.6-.6,1.4-.6,2.5,0,1.7.4,2.4.5,2.6.1.1.2.4.7.4s.5,0,.8-.4v-5.2c-.4-.1-.6-.1-.8-.1h0ZM278.1,155.5v.6-4h0v3.6h0Z"/>
            </g>
            <g>
              <path class="cls-4" d="M288.9,173.4c-1.4,0-2.6-.5-3.4-1.4s-1.4-2.1-1.4-3.4.7-3.1,2.1-4,3.9-1.7,7.1-1.9c0-1.9-1-2.9-2.7-2.9s-1.9.2-2.9.7-1.8.4-2.4-.6c-.5-.8-.4-1.7.6-2.1,1.9-1,3.7-1.4,5.5-1.4s3.7.6,4.6,1.8,1.7,3,1.7,5.3v7.7c0,1.2-.6,1.8-1.9,1.8s-1.7-.5-1.9-1.5v-.2h0c-1.7,1.4-3.3,2.1-4.9,2.1h-.1ZM290.3,170.1c1.1,0,2.1-.6,3.2-1.7v-3.3c-1.9.2-3.2.6-4.2,1.2-.8.5-1.2,1.2-1.2,1.9,0,1.2.7,1.9,2.1,1.9h0Z"/>
              <path class="cls-2" d="M288.9,175.6c-2,0-3.7-.6-5-2-1.3-1.3-1.9-3-1.9-4.9s1.2-4.4,3.2-5.8c0,0,.1,0,.2-.1-.7-.4-1.4-.8-1.9-1.8-1.1-1.9-.5-3.9,1.4-4.9,2.1-1.2,4.4-1.7,6.5-1.7s4.8.8,6.2,2.5c1.4,1.7,2.1,3.9,2.1,6.8v7.7c0,2.4-1.5,3.9-3.9,3.9s-1.9-.4-2.6-.8c-1.4.8-2.9,1.2-4.3,1.2h-.1ZM295.5,169.1h0v-4.6h0v4.6ZM295.5,162.5v.8-.8Z"/>
            </g>
            <g>
              <path class="cls-4" d="M304.2,172.9c-1.4,0-2.1-.7-2.1-2.1v-12.4c0-1.2.6-1.8,1.8-1.8s1.8.6,1.9,1.7v1.3h.2c.6-1.1,1.3-1.9,2.1-2.4s1.7-.8,2.5-.8h.4c.5,0,.8.4,1.1.8s.2.8,0,1.4c-.2,1.2-1,1.8-2,1.5h0c-.7,0-1.4.2-2,.7-.7.6-1.3,1.4-1.8,2.5v7.6c0,1.4-.7,2.1-2.1,2.1h0c0-.1.1-.2.1-.2Z"/>
              <path class="cls-2" d="M304.2,175.1c-2.6,0-4.2-1.7-4.2-4.2v-12.4c0-2.4,1.5-3.9,3.9-3.9s2.1.4,2.7,1c0,0,.1,0,.2-.1,1.2-.8,2.4-1.2,3.7-1.2h.8c1.2.4,2,1,2.5,2,.4.8.5,1.8.2,2.7-.5,2.3-2.1,3.4-4.2,3.2-.1,0-.4,0-.6.2-.4.2-.6.6-1,1.2v7.2c0,2.6-1.7,4.2-4.2,4.2h-.1ZM304.2,171.2h0ZM304.2,170.9h0v-8.4c.1-.2.4-.6.5-.8h-.5v9.1h0Z"/>
            </g>
            <g>
              <path class="cls-4" d="M316.9,154.1c-.7,0-1.4-.2-1.9-.6s-.7-1-.7-1.7.2-1.3.7-1.7c.5-.4,1.2-.6,1.9-.6s1.4.2,1.8.6c.5.4.7,1,.7,1.7s-.2,1.2-.7,1.7-1.1.6-1.8.6ZM316.9,172.9c-1.4,0-2.1-.7-2.1-2.1v-12c0-1.4.7-2.1,2.1-2.1s2.1.7,2.1,2.1v12c0,1.4-.7,2.1-2.1,2.1Z"/>
              <path class="cls-2" d="M316.9,175.1c-2.6,0-4.2-1.7-4.2-4.2v-12c0-1.4.6-2.6,1.5-3.4-.1,0-.4-.2-.5-.4-1-.8-1.4-1.9-1.4-3.2s.5-2.4,1.4-3.3c.8-.7,2-1.2,3.2-1.2s2.4.4,3.2,1.2,1.4,1.9,1.4,3.2-.5,2.4-1.4,3.2c-.1.1-.4.4-.6.5,1,.7,1.5,1.9,1.5,3.4v12c0,2.6-1.7,4.2-4.2,4.2h-.1ZM316.9,170.9h0v-12h0v12h0ZM316.5,151.7h0c0,.1.1.4.4.4h.4v-.2h-.8.1Z"/>
            </g>
            <g>
              <path class="cls-4" d="M325.7,172.9c-1.4,0-2.1-.7-2.1-2.1v-12.4c0-1.2.6-1.8,1.9-1.8s1.7.5,1.9,1.5v.6h.2c1.8-1.7,3.4-2.6,5.2-2.6,3.3,0,5,2.1,5,6.5v8c0,1.4-.7,2.1-2.1,2.1s-2.1-.7-2.1-2.1v-7.5c0-1.2-.1-2.1-.6-2.6-.4-.5-1-.8-1.8-.8s-1.2.1-1.8.5c-.4.2-1,.7-1.7,1.4v9c0,1.4-.7,2.1-2.1,2.1h.1Z"/>
              <path class="cls-2" d="M335.6,175.1c-2.6,0-4.3-1.7-4.3-4.2v-8.8c-.2,0-.5,0-.7.1,0,0-.2.1-.6.5v8.2c0,2.6-1.7,4.2-4.2,4.2s-4.2-1.7-4.2-4.2v-12.4c0-2.4,1.5-3.9,3.9-3.9s2.1.4,2.7,1c1.4-1,3-1.4,4.6-1.4s7.1.8,7.1,8.7v8c0,2.6-1.7,4.2-4.2,4.2h-.4ZM325.7,171.2h0ZM335.6,170.9h0v-8c0-3.4-1.1-4.2-2-4.4.5.4.8.7,1.2,1.1.6.8.8,2.1.8,3.9v7.5h0ZM325.7,170.9h0v-9.9,9.9h0Z"/>
            </g>
          </g>
          <g>
            <path class="cls-5" d="M9.4,173.5c-2.4,0-4.4-.6-6.4-1.9-1-.8-1.1-1.7-.2-2.6.8-1.1,1.9-1.2,3-.4,1.3.7,2.6,1.2,3.8,1.2s1.9-.2,2.5-.6.8-1.1.8-1.8-.2-1.3-.8-1.7c-.4-.2-1.1-.6-2.1-1.2h-.2l-2.9-1.2c-2.9-1.2-4.4-3.2-4.4-5.8s.7-3.2,2.1-4.4,3.2-1.8,5.3-1.8,3.9.6,5.5,1.7c.8.7.8,1.4.1,2.4-.8,1-1.7,1.1-2.6.4-1-.5-1.9-.7-3.1-.7s-1.7.2-2.3.6-.8,1-.8,1.7.4,1.2,1,1.7c.4.4,1.2.6,2.3,1.1h.2l2.9,1.2c1.4.6,2.4,1.3,3.2,2.1.8,1,1.2,2.1,1.2,3.7s-.7,3.3-2.1,4.5c-1.4,1.3-3.4,1.9-5.8,1.9h-.1.1Z"/>
            <path class="cls-4" d="M22.9,173.1c-1.4,0-2.1-.7-2.1-2.1v-12.4c0-1.2.6-1.8,1.9-1.8s1.7.5,1.9,1.5v.6h.2c.8-.8,1.5-1.4,2.1-1.9.8-.5,1.9-.7,2.9-.7,2.1,0,3.7,1,4.4,2.9.8-.8,1.7-1.7,2.4-2,.8-.6,1.9-.8,2.9-.8,1.7,0,3,.6,3.8,1.8s1.2,2.6,1.2,4.8v8c0,1.4-.7,2.1-2.1,2.1s-2.1-.7-2.1-2.1v-7.5c0-1.2-.1-2.1-.6-2.6-.4-.5-.8-.7-1.7-.7s-1.9.6-3.2,1.9v9c0,1.4-.7,2.1-2.1,2.1s-2.1-.7-2.1-2.1v-7.5c0-1.2-.1-2.1-.6-2.6-.4-.5-.8-.7-1.7-.7s-1.9.6-3.2,1.9v9c0,1.4-.7,2.1-2.1,2.1h.1Z"/>
            <path class="cls-4" d="M52.9,173.5c-1.4,0-2.6-.5-3.4-1.4s-1.4-2.1-1.4-3.4.7-3.1,2.1-4,3.9-1.7,7.1-1.9c0-1.9-1-2.9-2.7-2.9s-1.9.2-2.9.7-1.8.4-2.4-.6c-.5-.8-.4-1.7.6-2.1,1.9-1,3.7-1.4,5.5-1.4s3.7.6,4.6,1.8,1.7,3,1.7,5.3v7.7c0,1.2-.6,1.8-1.9,1.8s-1.7-.5-1.9-1.5v-.2h0c-1.7,1.4-3.3,2.1-4.9,2.1h-.1ZM54.2,170.2c1.1,0,2.1-.6,3.2-1.7v-3.3c-1.9.2-3.2.6-4.2,1.2-.8.5-1.2,1.2-1.2,1.9,0,1.2.7,1.9,2.1,1.9h0Z"/>
            <path class="cls-4" d="M68.1,173.1c-1.4,0-2.1-.7-2.1-2.1v-12.4c0-1.2.6-1.8,1.8-1.8s1.8.6,1.9,1.7v1.3h.2c.6-1.1,1.3-1.9,2.1-2.4s1.7-.8,2.5-.8h.4c.5,0,.8.4,1.1.8s.2.8,0,1.4c-.2,1.2-1,1.8-2,1.5h0c-.7,0-1.4.2-2,.7-.7.6-1.3,1.4-1.8,2.5v7.6c0,1.4-.7,2.1-2.1,2.1h0c0-.1.1-.2.1-.2Z"/>
            <path class="cls-4" d="M84.6,173.5c-3.6,0-5.3-2-5.3-6.1v-7.2h-.7c-1.1,0-1.5-.6-1.5-1.7s.5-1.7,1.4-1.7h1.1l.4-2.9c0-1.2.7-1.7,1.9-1.7s1.9.6,1.9,1.8v2.6h2.4c1.2,0,1.7.6,1.7,1.7s-.6,1.7-1.7,1.7h-2.4v7.2c0,1.9.7,2.7,2.1,2.7h0c1-.2,1.7.1,1.9,1.2.2,1,0,1.7-1,1.9-.7.1-1.4.2-2.1.2h.1-.1Z"/>
            <path class="cls-5" d="M97.1,173.1c-1.4,0-2.1-.7-2.1-2.1v-15.8h-4.3c-1.2,0-1.8-.6-1.8-1.8s.6-1.8,1.8-1.8h13c1.2,0,1.8.6,1.8,1.8s-.6,1.8-1.8,1.8h-4.4v15.8c0,1.4-.7,2.1-2.1,2.1h0Z"/>
            <path class="cls-4" d="M110.3,173.5c-1.4,0-2.6-.5-3.4-1.4-.8-.8-1.4-2.1-1.4-3.4s.7-3.1,2.1-4,3.9-1.7,7.1-1.9c0-1.9-1-2.9-2.7-2.9s-1.9.2-2.9.7c-1.1.5-1.8.4-2.4-.6-.5-.8-.4-1.7.6-2.1,1.9-1,3.7-1.4,5.5-1.4s3.7.6,4.6,1.8,1.7,3,1.7,5.3v7.7c0,1.2-.6,1.8-1.9,1.8s-1.7-.5-1.9-1.5v-.2h0c-1.7,1.4-3.3,2.1-4.9,2.1h-.1ZM111.7,170.2c1.1,0,2.1-.6,3.2-1.7v-3.3c-1.9.2-3.2.6-4.2,1.2-.8.5-1.2,1.2-1.2,1.9,0,1.2.7,1.9,2.1,1.9h0Z"/>
            <path class="cls-4" d="M127.5,173.5c-2.6,0-4-1.7-4-4.9v-16.5c0-1.4.7-2.1,2.1-2.1s2.1.7,2.1,2.1v16.8c0,.8.4,1.3.8,1.3h0c.1,0,.4,0,.4.2s.1.4.2.6v1.5c-.1.6-.4,1-.8,1.1h-1.1.2Z"/>
            <path class="cls-4" d="M134.7,173.1c-1.4,0-2.1-.6-2.1-2.1v-19.1c0-1.4.7-2.1,2.1-2.1s2.1.6,2.1,2.1v11.9h0l4.9-6.2c.5-.6,1.2-.8,1.9-.8h2.4c.4,0,.6,0,.6.2s0,.4-.2.6l-4.9,5.8,4.8,7.5c.4.6.6,1.2.4,1.5s-.7.6-1.4.6h-.8c-.4,0-.7,0-1.2-.4-.4-.2-.6-.5-.8-.8l-3.3-5.6-2.4,2.6v2c0,1.4-.7,2.1-2.1,2.1h.2Z"/>
            <path class="cls-4" d="M152.3,154.2c-.7,0-1.4-.2-1.9-.6s-.7-1-.7-1.7.2-1.3.7-1.7,1.2-.6,1.9-.6,1.4.2,1.8.6c.5.4.7,1,.7,1.7s-.2,1.2-.7,1.7-1.1.6-1.8.6ZM152.2,173.1c-1.4,0-2.1-.7-2.1-2.1v-12c0-1.4.7-2.1,2.1-2.1s2.1.7,2.1,2.1v12c0,1.4-.7,2.1-2.1,2.1Z"/>
            <path class="cls-4" d="M161.1,173.1c-1.4,0-2.1-.7-2.1-2.1v-12.4c0-1.2.6-1.8,1.9-1.8s1.7.5,1.9,1.5v.6h.2c1.8-1.7,3.4-2.6,5.2-2.6,3.3,0,5,2.1,5,6.5v8c0,1.4-.7,2.1-2.1,2.1s-2.1-.7-2.1-2.1v-7.5c0-1.2-.1-2.1-.6-2.6-.4-.5-1-.8-1.8-.8s-1.2.1-1.8.5c-.4.2-1,.7-1.7,1.4v9c0,1.4-.7,2.1-2.1,2.1h0c0,.1.1.1.1.1Z"/>
            <path class="cls-4" d="M183.3,180.1c-2,0-3.7-.4-4.9-1.1-1.3-.7-1.9-1.8-1.9-3.2s.8-2.5,2.4-3.4h0c-1-.8-1.4-1.7-1.4-2.9s.1-1.2.6-1.7c.4-.5.7-1,1.2-1.4h0c-.6-.6-1.2-1.2-1.4-1.9-.5-.8-.6-1.7-.6-2.5,0-1.9.6-3.3,1.9-4.4,1.2-1,2.7-1.5,4.6-1.5s1.7.1,2.4.4h4.3c1.1,0,1.5.5,1.5,1.5s-.5,1.5-1.5,1.5h-1.2c.5.6.7,1.4.7,2.5,0,1.8-.6,3.2-1.9,4.2-1.2,1-2.6,1.4-4.4,1.4s-1.4-.1-2.1-.4c-.5.4-.7.8-.7,1.4s.1.8.6,1c.4.2,1.1.4,2,.4h2.7c4,0,6.1,1.4,6.1,4s-.8,3.1-2.4,4.2c-1.7,1.2-3.8,1.7-6.4,1.7v.4h-.1ZM183.9,177.5c1.2,0,2.1-.2,3-.7.7-.5,1.2-1,1.2-1.7s-.2-1-.7-1.2c-.4-.1-1.1-.4-2-.4h-1.9c-.8,0-1.7,0-2.3-.2-.7.6-1.1,1.2-1.1,1.9s.4,1.2,1.1,1.7,1.7.6,2.9.6h-.1ZM183.6,165.3c.7,0,1.4-.2,1.8-.8.5-.6.7-1.3.7-2.1s-.2-1.7-.7-2.1-1.1-.8-1.8-.8-1.4.2-1.9.8c-.5.6-.7,1.3-.7,2.1s.2,1.7.7,2.1,1.1.8,1.8.8h.1Z"/>
            <path class="cls-4" d="M195.6,166.3c-1,0-1.5-.5-1.5-1.5s.5-1.5,1.5-1.5h4.9c1,0,1.5.5,1.5,1.5s-.5,1.5-1.5,1.5h-4.9Z"/>
            <path class="cls-5" d="M208,173.1c-1.3,0-1.9-.6-1.9-1.9v-17.7c0-.6.1-1.1.5-1.4s.8-.5,1.4-.5h1.4c.5,0,.8.1,1.2.4s.6.6.7,1.1l3.2,8.7c.2.6.5,1.5.8,2.9.1.6.4,1.1.4,1.3h.1c.1-.4.4-1.1.6-1.9.4-1,.5-1.8.7-2.3l3.1-8.7c.1-.4.4-.7.7-1.1.4-.2.8-.4,1.2-.4h2.1c.4,0,.6,0,.8.4s.4.5.4.8v18.4c0,1.3-.6,1.9-1.9,1.9s-1.9-.6-1.9-1.9v-7c0-1.2.1-3.4.5-6.5v-.5h0l-1.8,5.1-2.9,7.8c-.1.4-.4.6-.6.8-.4.2-.6.4-1.1.4h0c-.7,0-1.3-.4-1.5-1.1l-2.9-8-1.7-5.1h0v1.1c.4,2.9.4,4.9.4,6.1v7c0,1.3-.6,1.9-1.9,1.9h-.2Z"/>
            <path class="cls-4" d="M234.5,173.5c-1.4,0-2.6-.5-3.4-1.4-.8-.8-1.4-2.1-1.4-3.4s.7-3.1,2.1-4,3.9-1.7,7.1-1.9c0-1.9-1-2.9-2.7-2.9s-1.9.2-2.9.7c-1.1.5-1.8.4-2.4-.6-.5-.8-.4-1.7.6-2.1,1.9-1,3.7-1.4,5.5-1.4s3.7.6,4.6,1.8,1.7,3,1.7,5.3v7.7c0,1.2-.6,1.8-1.9,1.8s-1.7-.5-1.9-1.5v-.2h0c-1.7,1.4-3.3,2.1-4.9,2.1h-.1ZM236,170.2c1.1,0,2.1-.6,3.2-1.7v-3.3c-1.9.2-3.2.6-4.2,1.2-.8.5-1.2,1.2-1.2,1.9,0,1.2.7,1.9,2.1,1.9h0Z"/>
            <path class="cls-4" d="M249.9,173.1c-1.4,0-2.1-.7-2.1-2.1v-12.4c0-1.2.6-1.8,1.9-1.8s1.7.5,1.9,1.5v.6h.2c1.8-1.7,3.4-2.6,5.2-2.6,3.3,0,5,2.1,5,6.5v8c0,1.4-.7,2.1-2.1,2.1s-2.1-.7-2.1-2.1v-7.5c0-1.2-.1-2.1-.6-2.6-.4-.5-1-.8-1.8-.8s-1.2.1-1.8.5c-.4.2-1,.7-1.7,1.4v9c0,1.4-.7,2.1-2.1,2.1h0c0,.1.1.1.1.1Z"/>
            <path class="cls-4" d="M272.1,173.5c-2,0-3.7-.7-4.9-2.3s-1.8-3.6-1.8-6.2.7-4.6,2.1-6.3c1.3-1.5,2.9-2.3,4.8-2.3s1.7.1,2.4.5c.6.2,1.2.6,1.8,1.3v-2.6c-.1,0-.1-3.7-.1-3.7,0-1.4.7-2.1,2.1-2.1s2.1.7,2.1,2.1v19.4c0,.6-.1,1-.5,1.3s-.8.4-1.4.4c-1.1,0-1.7-.5-1.9-1.4v-.2h-.1c-1.4,1.4-2.9,2.1-4.5,2.1h-.1ZM273.1,170c1.2,0,2.1-.6,3-1.7v-7.1c-.8-.8-1.9-1.2-3-1.2s-1.8.4-2.4,1.3c-.6.8-1,2.1-1,3.7s.4,2.9.8,3.8,1.4,1.3,2.5,1.3h0Z"/>
            <path class="cls-4" d="M288.9,173.5c-1.4,0-2.6-.5-3.4-1.4s-1.4-2.1-1.4-3.4.7-3.1,2.1-4,3.9-1.7,7.1-1.9c0-1.9-1-2.9-2.7-2.9s-1.9.2-2.9.7-1.8.4-2.4-.6c-.5-.8-.4-1.7.6-2.1,1.9-1,3.7-1.4,5.5-1.4s3.7.6,4.6,1.8,1.7,3,1.7,5.3v7.7c0,1.2-.6,1.8-1.9,1.8s-1.7-.5-1.9-1.5v-.2h0c-1.7,1.4-3.3,2.1-4.9,2.1h-.1ZM290.4,170.2c1.1,0,2.1-.6,3.2-1.7v-3.3c-1.9.2-3.2.6-4.2,1.2-.8.5-1.2,1.2-1.2,1.9,0,1.2.7,1.9,2.1,1.9h0Z"/>
            <path class="cls-4" d="M304.3,173.1c-1.4,0-2.1-.7-2.1-2.1v-12.4c0-1.2.6-1.8,1.8-1.8s1.8.6,1.9,1.7v1.3h.2c.6-1.1,1.3-1.9,2.1-2.4s1.7-.8,2.5-.8h.4c.5,0,.8.4,1.1.8s.2.8,0,1.4c-.2,1.2-1,1.8-2,1.5h0c-.7,0-1.4.2-2,.7-.7.6-1.3,1.4-1.8,2.5v7.6c0,1.4-.7,2.1-2.1,2.1h0c0-.1.1-.2.1-.2Z"/>
            <path class="cls-4" d="M317,154.2c-.7,0-1.4-.2-1.9-.6s-.7-1-.7-1.7.2-1.3.7-1.7c.5-.4,1.2-.6,1.9-.6s1.4.2,1.8.6c.5.4.7,1,.7,1.7s-.2,1.2-.7,1.7-1.1.6-1.8.6ZM317,173.1c-1.4,0-2.1-.7-2.1-2.1v-12c0-1.4.7-2.1,2.1-2.1s2.1.7,2.1,2.1v12c0,1.4-.7,2.1-2.1,2.1Z"/>
            <path class="cls-4" d="M325.8,173.1c-1.4,0-2.1-.7-2.1-2.1v-12.4c0-1.2.6-1.8,1.9-1.8s1.7.5,1.9,1.5v.6h.2c1.8-1.7,3.4-2.6,5.2-2.6,3.3,0,5,2.1,5,6.5v8c0,1.4-.7,2.1-2.1,2.1s-2.1-.7-2.1-2.1v-7.5c0-1.2-.1-2.1-.6-2.6-.4-.5-1-.8-1.8-.8s-1.2.1-1.8.5c-.4.2-1,.7-1.7,1.4v9c0,1.4-.7,2.1-2.1,2.1h.1Z"/>
          </g>
        </g>
      </g>
    </g>
  </g>
</svg>