<svg xmlns="http://www.w3.org/2000/svg" xmlns:xlink="http://www.w3.org/1999/xlink" viewBox="0 0 198.4 117.26"><defs><style>.cls-1{fill:#f8bc00;}.cls-2{fill:#fcd776;}.cls-3{fill:#fde5a7;}.cls-4{fill:#fff3d6;}.cls-5{fill:#eb5e00;}.cls-6{fill:url(#新增漸層色票_1);}.cls-7{fill:url(#新增漸層色票_1-2);}.cls-8{fill:url(#新增漸層色票_1-3);}.cls-9{font-size:15.5px;fill:#231815;font-family:jf-openhuninn-1.1;letter-spacing:0.6em;}.cls-10{font-family:DFHeiMedium-V20-UNI-H, DFHeiMedium-UN;}</style><radialGradient id="新增漸層色票_1" cx="89.27" cy="-11.77" r="65.27" gradientUnits="userSpaceOnUse"><stop offset="0" stop-color="#00afec"/><stop offset="1" stop-color="#00428d"/></radialGradient><radialGradient id="新增漸層色票_1-2" cx="89.38" cy="-12.41" r="65.92" xlink:href="#新增漸層色票_1"/><radialGradient id="新增漸層色票_1-3" cx="89.27" cy="-11.78" r="65.27" xlink:href="#新增漸層色票_1"/></defs><g id="圖層_2" data-name="圖層 2"><g id="圖層_1-2" data-name="圖層 1"><path class="cls-1" d="M89.82,32.87a44.45,44.45,0,0,1,7.83-1.46V8.27a27.17,27.17,0,0,0-7.83-1.45Z"/><path class="cls-2" d="M100.5,31.22a47.51,47.51,0,0,1,8.06.42V14.17a42,42,0,0,0-8.06-4.78Z"/><path class="cls-3" d="M111.46,32.13a52.3,52.3,0,0,1,8.05,2.31V24.59a73.55,73.55,0,0,0-8.05-8.11Z"/><path class="cls-4" d="M122.37,28.1v7.5a59.26,59.26,0,0,1,7.82,4.19v-.24A119.93,119.93,0,0,0,122.37,28.1Z"/><path class="cls-5" d="M114.84,41.48c-13.7,5.36-28.7,13.11-41,23.28C90.42,51.9,111.9,43.87,128.49,40.65c-5.23-2-10.94-4.65-16.83-5.07C112.73,37,113.79,39.91,114.84,41.48Z"/><path class="cls-6" d="M82,24.1V2a17.27,17.27,0,0,0-15.3-.35v24A23.28,23.28,0,0,1,82,24.1Z"/><path class="cls-7" d="M86.06,51.36s0,0,0,.06S86.08,51.38,86.06,51.36Z"/><path class="cls-8" d="M86.94,33.93V5.74a22.15,22.15,0,0,0-3.88-2.92v23A23.21,23.21,0,0,0,65,27.57V2.72A21.08,21.08,0,0,0,61.73,5V33.82a22.85,22.85,0,0,1,5.12-2.49c-.26,2.59-2,16.72-4.71,19.12A10.17,10.17,0,0,1,67.72,53a19.17,19.17,0,0,1,6.14,10.2V51a3.06,3.06,0,1,1,1,0V63.57C77,55,85.58,51.09,86.06,51.36c-2.29-6-3.91-17-4.23-20A23,23,0,0,1,86.94,33.93Z"/><path class="cls-5" d="M5.37,84.89c.26.09.52.2.79.32s.55.24.84.35a8.57,8.57,0,0,0,.9.28,4.74,4.74,0,0,0,1,.11,5.57,5.57,0,0,0,1.27-.15,6,6,0,0,0,1.25-.44,7.3,7.3,0,0,0,1.16-.7,5.9,5.9,0,0,0,1-1,10.92,10.92,0,0,0,.85-1c.23-.32.42-.6.56-.84a3.86,3.86,0,0,0,.3-.64,1.48,1.48,0,0,0,.09-.46.71.71,0,0,0-.19-.5,1.53,1.53,0,0,0-.52-.35,3.61,3.61,0,0,0-.74-.2,5.77,5.77,0,0,0-.85-.06l-.62,0-.71,0-.71,0h-.59a4.21,4.21,0,0,1-.78-.08,3.46,3.46,0,0,1-.8-.28,3.17,3.17,0,0,1-.72-.53A2.54,2.54,0,0,1,7.65,78a2.25,2.25,0,0,1-.13-.37,1.78,1.78,0,0,1,0-.47,4.28,4.28,0,0,1,0-.52c0-.16.06-.32.1-.47A4.77,4.77,0,0,1,8.13,75,8.28,8.28,0,0,1,9,73.83a14.57,14.57,0,0,1,1.13-1.08c.41-.35.82-.68,1.25-1s.85-.59,1.27-.84.8-.45,1.16-.63a6.78,6.78,0,0,1,1.53-.53,7.39,7.39,0,0,1,1.54-.16,3,3,0,0,1,.87.12,2.17,2.17,0,0,1,.72.34,1.61,1.61,0,0,1,.5.57,1.59,1.59,0,0,1,.18.77,1.33,1.33,0,0,1-.06.42.74.74,0,0,1-.14.28.65.65,0,0,1-.2.15.64.64,0,0,1-.23,0,2,2,0,0,1-.56-.07l-.5-.16c-.16,0-.31-.11-.48-.15a1.72,1.72,0,0,0-.52-.08,4.61,4.61,0,0,0-1.71.34,9.64,9.64,0,0,0-1.7.85,12.62,12.62,0,0,0-1.56,1.16c-.49.43-.93.84-1.32,1.24a2.09,2.09,0,0,0-.45.64,1.38,1.38,0,0,0-.14.6.77.77,0,0,0,.36.67,1.57,1.57,0,0,0,.89.23h.7l.79,0,.78,0,.68,0a4.71,4.71,0,0,1,1.36.2,3.68,3.68,0,0,1,1.15.59,3,3,0,0,1,.8,1,2.86,2.86,0,0,1,.31,1.32,3.32,3.32,0,0,1-.14.92,5,5,0,0,1-.38.94,9.88,9.88,0,0,1-.54.94c-.21.31-.43.61-.65.9a11.55,11.55,0,0,1-1.38,1.51A10,10,0,0,1,12.72,87a8,8,0,0,1-1.81.83A6.12,6.12,0,0,1,9,88.14a5.45,5.45,0,0,1-.89-.08,5,5,0,0,1-.9-.24,4.58,4.58,0,0,1-.84-.38,3.71,3.71,0,0,1-.69-.53,2.49,2.49,0,0,1-.47-.66A1.72,1.72,0,0,1,5,85.47a1,1,0,0,1,.07-.39C5.1,85,5.2,84.89,5.37,84.89Z"/><path class="cls-5" d="M18.54,85.87c.15-.58.29-1.12.43-1.62l.41-1.44c.13-.46.25-.9.38-1.33l.36-1.32a2.23,2.23,0,0,0,.07-.5,3,3,0,0,1,.07-.5.42.42,0,0,1,.11-.16.81.81,0,0,1,.18-.12.7.7,0,0,1,.2-.08l.2,0a.89.89,0,0,1,.35,0,.54.54,0,0,1,.22.13.39.39,0,0,1,.12.19,1,1,0,0,1,0,.26,1.51,1.51,0,0,1-.08.51c-.05.17-.12.35-.2.56.23-.18.47-.36.72-.52a5.7,5.7,0,0,1,.76-.43,4.43,4.43,0,0,1,.79-.3,3.48,3.48,0,0,1,.85-.11,1.39,1.39,0,0,1,.4.06,1,1,0,0,1,.36.2,1,1,0,0,1,.27.35,1.33,1.33,0,0,1,.12.52l.66-.43a5.38,5.38,0,0,1,.7-.39,5.18,5.18,0,0,1,.7-.29,2.45,2.45,0,0,1,.69-.1,2.17,2.17,0,0,1,.82.13,1.26,1.26,0,0,1,.51.35A1.16,1.16,0,0,1,30,80a2.51,2.51,0,0,1,.08.62,4.86,4.86,0,0,1-.07.74c-.05.25-.09.49-.15.72-.14.57-.3,1.11-.48,1.63s-.37,1-.58,1.55c0,.12-.1.26-.16.4a1.93,1.93,0,0,1-.19.38,1.16,1.16,0,0,1-.25.29.55.55,0,0,1-.34.11.9.9,0,0,1-.6-.15.52.52,0,0,1-.16-.42,1,1,0,0,1,0-.17.58.58,0,0,1,0-.19,2.22,2.22,0,0,1,.14-.32l.22-.46.24-.49a4.08,4.08,0,0,0,.18-.43l.23-.74c.09-.28.17-.56.25-.85s.14-.55.2-.81a3.24,3.24,0,0,0,.07-.62,1.64,1.64,0,0,0,0-.22.49.49,0,0,0-.23-.33.67.67,0,0,0-.26,0,1.32,1.32,0,0,0-.53.13,3.55,3.55,0,0,0-.64.33,5.41,5.41,0,0,0-.64.46,4.46,4.46,0,0,0-.54.51,4,4,0,0,1-.29.29,1.75,1.75,0,0,1-.28.17,1.72,1.72,0,0,0-.08.19l-.14.4c-.05.16-.11.33-.17.51l-.17.5c-.05.16-.09.29-.13.4s0,.16,0,.17l-.09.43c0,.14-.05.28-.07.42s0,.27-.05.43a1.44,1.44,0,0,1-.11.42.75.75,0,0,1-.23.32.69.69,0,0,1-.45.13.5.5,0,0,1-.27-.08.64.64,0,0,1-.21-.19.85.85,0,0,1-.2-.55q.17-.68.33-1.2c.11-.36.22-.7.33-1s.21-.65.31-1,.2-.69.3-1.09a1.27,1.27,0,0,0,.06-.28,1.06,1.06,0,0,0,0-.24.52.52,0,0,0-.07-.29.29.29,0,0,0-.26-.12,1.41,1.41,0,0,0-.6.13,3.06,3.06,0,0,0-.66.38,7.86,7.86,0,0,0-.77.66c-.29.27-.61.59-1,1a3.66,3.66,0,0,0-.15.41c-.06.21-.13.42-.2.65s-.12.44-.18.63-.09.33-.1.39a2.79,2.79,0,0,0-.11.53c0,.14,0,.27-.06.38s0,.16,0,.29a2.17,2.17,0,0,1-.11.42,1,1,0,0,1-.22.36.46.46,0,0,1-.37.16.86.86,0,0,1-.56-.18.59.59,0,0,1-.22-.47.31.31,0,0,1,0-.1A.29.29,0,0,1,18.54,85.87Z"/><path class="cls-5" d="M35.2,86a3.61,3.61,0,0,1,0-.52,3.92,3.92,0,0,0,.06-.75c-.17.12-.35.26-.55.43s-.4.32-.61.47a6.15,6.15,0,0,1-.64.37,1.36,1.36,0,0,1-.59.15,1.42,1.42,0,0,1-.42-.06,1.36,1.36,0,0,1-.34-.18,2.32,2.32,0,0,1-.57-.63,1.4,1.4,0,0,1-.17-.72,2.56,2.56,0,0,1,0-.39,3.53,3.53,0,0,1,.1-.46,6.43,6.43,0,0,1,1-2.17,6.58,6.58,0,0,1,1.7-1.71,2.11,2.11,0,0,1,.79-.35,4.13,4.13,0,0,1,.78-.08l.38,0,.38.05.28-.05.23,0a1,1,0,0,1,.37.06.72.72,0,0,1,.24.16.76.76,0,0,1,.13.23,1.26,1.26,0,0,1,0,.27,1.15,1.15,0,0,1-.06.37l-.12.35-1,3.92c0,.21,0,.41,0,.58a3.44,3.44,0,0,1-.09.5,1.07,1.07,0,0,0-.06.17.52.52,0,0,1-.11.19.56.56,0,0,1-.18.16.52.52,0,0,1-.29.07,1.83,1.83,0,0,1-.37,0,.51.51,0,0,1-.21-.09.31.31,0,0,1-.1-.13A.9.9,0,0,1,35.2,86ZM32.74,83.8c0,.06,0,.16-.07.29a2.56,2.56,0,0,0,0,.39,1,1,0,0,0,.06.36A.26.26,0,0,0,33,85a1.27,1.27,0,0,0,.58-.14,2.78,2.78,0,0,0,.51-.33c.21-.17.43-.37.65-.58s.43-.45.62-.68a5.76,5.76,0,0,0,.52-.73,2.73,2.73,0,0,0,.33-.75,2.94,2.94,0,0,0,.1-.5,3.24,3.24,0,0,0,0-.5.41.41,0,0,0,0-.19.18.18,0,0,0-.17-.09,1.89,1.89,0,0,0-.73.14,3.05,3.05,0,0,0-.71.38,3.39,3.39,0,0,0-.65.56A5.44,5.44,0,0,0,33,83,3.6,3.6,0,0,0,32.74,83.8Z"/><path class="cls-5" d="M39.12,85.59c.06-.35.13-.73.22-1.14s.17-.84.26-1.26.17-.85.26-1.26.15-.79.21-1.13c0,0,0-.09,0-.13v-.12a3.55,3.55,0,0,1,0-.46,2.59,2.59,0,0,1,.09-.42.88.88,0,0,1,.18-.39.45.45,0,0,1,.32-.1.61.61,0,0,1,.35.09.7.7,0,0,1,.2.22,1.15,1.15,0,0,1,.1.33c0,.12,0,.24,0,.37a1.85,1.85,0,0,1,0,.23c0,.09,0,.15,0,.2l.45-.44a3.8,3.8,0,0,1,.49-.41,3,3,0,0,1,.56-.3,1.62,1.62,0,0,1,.61-.12,1,1,0,0,1,.25,0,1.14,1.14,0,0,1,.25.06,1.39,1.39,0,0,1,.31.1,1.59,1.59,0,0,1,.31.17,1.65,1.65,0,0,1,.41.46,1.14,1.14,0,0,1,.17.57.69.69,0,0,1,0,.24.9.9,0,0,1-.12.24.77.77,0,0,1-.18.18.39.39,0,0,1-.23.07,1,1,0,0,1-.31-.06.87.87,0,0,1-.3-.17.5.5,0,0,1-.11-.13.86.86,0,0,1-.1-.16.6.6,0,0,1-.09-.15.25.25,0,0,0-.07-.09l-.08,0h-.08a1.55,1.55,0,0,0-.72.19,3.24,3.24,0,0,0-.64.48,4.29,4.29,0,0,0-.54.59c-.17.21-.31.4-.44.57-.1.4-.21.83-.33,1.28s-.24.92-.36,1.42v.18c0,.15,0,.31,0,.46a1.3,1.3,0,0,1-.09.41.81.81,0,0,1-.24.19.78.78,0,0,1-.35.07.58.58,0,0,1-.47-.2.81.81,0,0,1-.15-.48A.82.82,0,0,1,39.12,85.59Z"/><path class="cls-5" d="M46.5,84.05a6.62,6.62,0,0,1,.14-1.3q.15-.68.3-1.29a1.32,1.32,0,0,1-.39-.06,1.35,1.35,0,0,1-.37-.14.71.71,0,0,1-.26-.22.44.44,0,0,1-.11-.3.67.67,0,0,1,0-.17.72.72,0,0,1,.09-.2.39.39,0,0,1,.14-.17.31.31,0,0,1,.2-.07h1a.19.19,0,0,0,.19-.13,2.25,2.25,0,0,0,.08-.24l.18-.74.15-.54c0-.14.07-.26.09-.35a1.22,1.22,0,0,0,0-.22v-.19a1.63,1.63,0,0,1,0-.24V77.4a.86.86,0,0,1,0-.15,1.6,1.6,0,0,1,.07-.28.77.77,0,0,1,.16-.27.48.48,0,0,1,.35-.12.68.68,0,0,1,.34.08.61.61,0,0,1,.23.22.7.7,0,0,1,.14.3,1.32,1.32,0,0,1,0,.34,1.61,1.61,0,0,1,0,.33l-.55,2.08.72-.12.62-.12.59-.13.43-.1.3-.07.2,0,.24,0a.71.71,0,0,1,.22.06.37.37,0,0,1,.15.13.33.33,0,0,1,.06.21.66.66,0,0,1-.07.32,1.08,1.08,0,0,1-.18.24,1.32,1.32,0,0,1-.25.16,1.61,1.61,0,0,1-.29.09l-.3.07-.42.1-.47.11-.48.11-.58.15-.41.09-.28,0h-.17c-.1.28-.18.56-.25.83s-.13.53-.17.76-.09.45-.11.64a4.22,4.22,0,0,0,0,.43,1.58,1.58,0,0,0,0,.38.82.82,0,0,0,.12.32.61.61,0,0,0,.24.21.87.87,0,0,0,.39.08,1.48,1.48,0,0,0,.77-.22,3.56,3.56,0,0,0,.72-.54,7.76,7.76,0,0,0,.66-.73c.2-.26.39-.51.56-.75a.27.27,0,0,1,.23-.13h.11l.12,0a.32.32,0,0,1,.1.1.23.23,0,0,1,0,.14V83a4,4,0,0,1-.37.93l-.51.93a2.13,2.13,0,0,1-.23.32c-.1.1-.2.2-.32.3a2.42,2.42,0,0,1-.36.27l-.34.24a1.74,1.74,0,0,1-.62.24,2.94,2.94,0,0,1-.65.07,1.93,1.93,0,0,1-.85-.18,1.74,1.74,0,0,1-.63-.47,1.86,1.86,0,0,1-.39-.7A2.72,2.72,0,0,1,46.5,84.05Z"/><path class="cls-5" d="M55.33,82.42A21.92,21.92,0,0,1,56,80.25c.27-.75.55-1.52.85-2.3s.59-1.58.88-2.39.53-1.61.74-2.42c0-.2.1-.38.13-.55s.08-.34.12-.53a1.07,1.07,0,0,1,.37-.46.83.83,0,0,1,.5-.16,1.51,1.51,0,0,1,.48.08,1,1,0,0,1,.39.26,1.3,1.3,0,0,1,.26.45,2.08,2.08,0,0,1,.09.65,4.23,4.23,0,0,1-.12.93c-.3.76-.6,1.51-.9,2.24s-.6,1.44-.88,2.14-.55,1.39-.8,2.07-.45,1.36-.62,2c0,.06,0,.17-.09.35s-.1.39-.15.64-.09.52-.13.81a5.87,5.87,0,0,0-.06.82,4.07,4.07,0,0,0,0,.52,1.58,1.58,0,0,0,.11.43.71.71,0,0,0,.22.28.53.53,0,0,0,.34.11,2,2,0,0,0,1.06-.45,9.6,9.6,0,0,0,1.36-1.23c.48-.52,1-1.12,1.5-1.81s1-1.43,1.49-2.22.94-1.61,1.36-2.44a22.38,22.38,0,0,0,1.06-2.47.5.5,0,0,1,.25-.28.88.88,0,0,1,.39-.07,1.1,1.1,0,0,1,.75.27.89.89,0,0,1,.3.69.58.58,0,0,1,0,.19,1.23,1.23,0,0,1-.06.22l-.16.47c-.12.35-.24.68-.35,1s-.2.59-.27.85-.18.73-.24,1-.11.61-.14.88-.06.55-.07.82,0,.53,0,.81c0,.11,0,.26,0,.46s0,.44.09.68.09.5.15.76a6.38,6.38,0,0,0,.23.7,2,2,0,0,0,.31.52.53.53,0,0,0,.4.19,1.27,1.27,0,0,0,.75-.28,5,5,0,0,0,.79-.8,12.86,12.86,0,0,0,.81-1.19c.26-.46.53-1,.78-1.47s.5-1.07.73-1.63.45-1.12.64-1.67.36-1.09.51-1.6.27-1,.36-1.41.16-.79.22-1.17l.18-1.14c.06-.38.13-.76.2-1.15s.16-.77.27-1.18a1.73,1.73,0,0,1,.17-.44,1.92,1.92,0,0,1,.28-.42A2.11,2.11,0,0,1,74.2,70a.72.72,0,0,1,.39-.11.76.76,0,0,1,.7.28,1.74,1.74,0,0,1,.18.92,10,10,0,0,1-.08,1.12c-.06.43-.13.87-.22,1.34s-.18.94-.29,1.42-.21.93-.32,1.36A23.48,23.48,0,0,1,73.72,79q-.52,1.39-1.17,2.73c-.43.88-.89,1.71-1.37,2.5a15.89,15.89,0,0,1-1.45,2,8.28,8.28,0,0,1-.59.61,6.84,6.84,0,0,1-.74.56,5.5,5.5,0,0,1-.8.41,2.07,2.07,0,0,1-.78.17,2,2,0,0,1-1.31-.46,3.33,3.33,0,0,1-.87-1.23,7.75,7.75,0,0,1-.51-1.76,18.75,18.75,0,0,1-.26-2c-.43.63-.81,1.19-1.17,1.68a15.56,15.56,0,0,1-1.08,1.37c-.27.31-.58.65-.92,1a10.34,10.34,0,0,1-1.09,1,6.06,6.06,0,0,1-1.18.76,2.51,2.51,0,0,1-1.18.31,2.35,2.35,0,0,1-1.12-.24,1.89,1.89,0,0,1-.73-.64,2.82,2.82,0,0,1-.39-1,5.7,5.7,0,0,1-.12-1.21A10.52,10.52,0,0,1,55,84C55.1,83.48,55.2,83,55.33,82.42Z"/><path class="cls-5" d="M74.06,85.59c.07-.35.14-.73.23-1.14s.17-.84.25-1.26.18-.85.26-1.26.16-.79.22-1.13a.62.62,0,0,1,0-.13v-.12a3.55,3.55,0,0,1,0-.46c0-.15,0-.29.08-.42a1,1,0,0,1,.19-.39.45.45,0,0,1,.32-.1.57.57,0,0,1,.34.09.63.63,0,0,1,.21.22.9.9,0,0,1,.09.33,2.22,2.22,0,0,1,0,.37c0,.07,0,.15,0,.23a1.64,1.64,0,0,0,0,.2l.44-.44a4.72,4.72,0,0,1,.5-.41,3,3,0,0,1,.56-.3,1.58,1.58,0,0,1,.61-.12,1.07,1.07,0,0,1,.25,0l.25.06a1.39,1.39,0,0,1,.31.1,1.28,1.28,0,0,1,.3.17,1.69,1.69,0,0,1,.42.46,1.12,1.12,0,0,1,.16.57A.67.67,0,0,1,80,81a.9.9,0,0,1-.12.24,1.07,1.07,0,0,1-.19.18.35.35,0,0,1-.23.07,1,1,0,0,1-.3-.06.72.72,0,0,1-.3-.17.5.5,0,0,1-.11-.13L78.68,81l-.09-.15a.17.17,0,0,0-.06-.09l-.08,0h-.08a1.55,1.55,0,0,0-.72.19,3.24,3.24,0,0,0-.64.48,5.12,5.12,0,0,0-.55.59c-.16.21-.31.4-.43.57-.1.4-.21.83-.33,1.28s-.24.92-.36,1.42v.18c0,.15,0,.31,0,.46a1.66,1.66,0,0,1-.08.41,1,1,0,0,1-.24.19.78.78,0,0,1-.35.07.58.58,0,0,1-.47-.2.81.81,0,0,1-.16-.48A1.27,1.27,0,0,1,74.06,85.59Z"/><path class="cls-5" d="M80.37,85c.08-.29.17-.62.27-1s.21-.78.33-1.21.23-.86.35-1.3l.34-1.3a.29.29,0,0,1,0-.1.53.53,0,0,1,.12-.14,1.07,1.07,0,0,1,.21-.13.94.94,0,0,1,.3,0,.93.93,0,0,1,.24,0,.83.83,0,0,1,.22.08A.47.47,0,0,1,83,80a.46.46,0,0,1,0,.2v0a.09.09,0,0,1,0,0l-.2.78c-.24.88-.47,1.77-.71,2.65s-.48,1.78-.71,2.67a.3.3,0,0,1,0,.11.57.57,0,0,1-.08.13.49.49,0,0,1-.13.12.34.34,0,0,1-.18,0,.66.66,0,0,1-.34-.08.79.79,0,0,1-.25-.19,1,1,0,0,1-.16-.26,1,1,0,0,1,0-.27v-.07a.14.14,0,0,1,0-.06Zm1.94-7.69a2.45,2.45,0,0,1,.13-.38,1.08,1.08,0,0,1,.35-.4,1.7,1.7,0,0,1,.29-.12.72.72,0,0,1,.24,0,.23.23,0,0,1,.15,0l.14.11a1.07,1.07,0,0,1,.14.16.27.27,0,0,1,.24.13.65.65,0,0,1,.06.29,1.25,1.25,0,0,1,0,.21l0,.16a.68.68,0,0,1-.17.28,1.28,1.28,0,0,1-.29.23,1.43,1.43,0,0,1-.34.14,1,1,0,0,1-.32,0,.6.6,0,0,1-.26,0,1.28,1.28,0,0,1-.23-.26.45.45,0,0,1-.1-.17s0-.08,0-.11,0-.1,0-.14Z"/><path class="cls-5" d="M85.29,84.05a6,6,0,0,1,.15-1.3c.09-.45.19-.88.29-1.29a1.32,1.32,0,0,1-.39-.06,1.29,1.29,0,0,1-.36-.14.84.84,0,0,1-.27-.22.44.44,0,0,1-.1-.3.59.59,0,0,1,0-.17.72.72,0,0,1,.09-.2.47.47,0,0,1,.14-.17.31.31,0,0,1,.21-.07h1a.18.18,0,0,0,.19-.13.75.75,0,0,0,.08-.24c.07-.29.13-.53.19-.74s.1-.39.14-.54.07-.26.09-.35a.79.79,0,0,0,0-.22c0-.07,0-.13,0-.19s0-.14,0-.24V77.4s0-.09,0-.15a1.6,1.6,0,0,1,.07-.28A.81.81,0,0,1,87,76.7a.46.46,0,0,1,.35-.12.74.74,0,0,1,.34.08.69.69,0,0,1,.23.22.83.83,0,0,1,.13.3,1.33,1.33,0,0,1,.05.34,1.57,1.57,0,0,1,0,.33l-.54,2.08.71-.12.62-.12.59-.13.43-.1.3-.07.21,0,.24,0a.65.65,0,0,1,.21.06.32.32,0,0,1,.15.13.33.33,0,0,1,.06.21.66.66,0,0,1-.07.32.69.69,0,0,1-.18.24,1.07,1.07,0,0,1-.25.16,1.52,1.52,0,0,1-.28.09l-.31.07-.42.1-.47.11-.47.11-.59.15-.41.09-.28,0h-.17c-.1.28-.18.56-.25.83s-.12.53-.17.76a6.36,6.36,0,0,0-.1.64,2.72,2.72,0,0,0,0,.43,1.58,1.58,0,0,0,0,.38.83.83,0,0,0,.13.32.61.61,0,0,0,.24.21.86.86,0,0,0,.38.08,1.48,1.48,0,0,0,.77-.22,3.62,3.62,0,0,0,.73-.54,7.67,7.67,0,0,0,.65-.73l.57-.75a.26.26,0,0,1,.23-.13h.1l.13,0a.47.47,0,0,1,.1.1.33.33,0,0,1,0,.14.22.22,0,0,1,0,.09,4,4,0,0,1-.37.93q-.24.47-.51.93a1.6,1.6,0,0,1-.23.32c-.1.1-.2.2-.32.3a3,3,0,0,1-.35.27l-.35.24a1.67,1.67,0,0,1-.62.24,2.91,2.91,0,0,1-.64.07,2,2,0,0,1-.86-.18,1.74,1.74,0,0,1-.63-.47,2.18,2.18,0,0,1-.39-.7A2.72,2.72,0,0,1,85.29,84.05Z"/><path class="cls-5" d="M92.24,85c.08-.29.17-.62.27-1s.22-.78.33-1.21.24-.86.35-1.3l.34-1.3a.29.29,0,0,1,0-.1.43.43,0,0,1,.13-.14.69.69,0,0,1,.21-.13.84.84,0,0,1,.29,0,1,1,0,0,1,.25,0,.66.66,0,0,1,.21.08.47.47,0,0,1,.15.13.46.46,0,0,1,.05.2v.1l-.21.78c-.24.88-.47,1.77-.71,2.65s-.48,1.78-.7,2.67l0,.11a.35.35,0,0,1-.08.13.46.46,0,0,1-.12.12.34.34,0,0,1-.18,0,.67.67,0,0,1-.35-.08.79.79,0,0,1-.25-.19.76.76,0,0,1-.15-.26A.74.74,0,0,1,92,86v-.07a.14.14,0,0,1,0-.06Zm1.94-7.69a2.67,2.67,0,0,1,.14-.38,1,1,0,0,1,.34-.4l.29-.12a.72.72,0,0,1,.24,0,.23.23,0,0,1,.15,0,.53.53,0,0,1,.14.11,1.07,1.07,0,0,1,.14.16.26.26,0,0,1,.24.13.65.65,0,0,1,.06.29,1.25,1.25,0,0,1,0,.21c0,.07,0,.12,0,.16a.68.68,0,0,1-.17.28,1.09,1.09,0,0,1-.29.23,1.43,1.43,0,0,1-.34.14,1,1,0,0,1-.31,0,.62.62,0,0,1-.27,0,1.28,1.28,0,0,1-.23-.26.31.31,0,0,1-.09-.17.49.49,0,0,1,0-.11.61.61,0,0,1,0-.14A.51.51,0,0,1,94.18,77.31Z"/><path class="cls-5" d="M101.38,80.26a1.49,1.49,0,0,0-.56.12,3.77,3.77,0,0,0-.62.33c-.21.14-.43.3-.65.47l-.65.55-.31.26a1.81,1.81,0,0,1-.29.17,2.36,2.36,0,0,0-.22.45c-.08.19-.16.39-.23.61l-.21.67c-.07.24-.12.45-.17.65l-.06.3c0,.1,0,.21,0,.32s0,.23-.07.36-.06.27-.1.43a.57.57,0,0,1-.12.22.52.52,0,0,1-.17.13l-.17.06H96.6a.74.74,0,0,1-.46-.13.63.63,0,0,1-.18-.52c0-.07,0-.15,0-.22a1.47,1.47,0,0,1,0-.26c.1-.47.21-.89.31-1.27s.21-.72.31-1,.21-.63.32-.91.21-.58.32-.87l.35-.89.39-1a.37.37,0,0,1,.23-.21,1,1,0,0,1,.41-.09.74.74,0,0,1,.46.13.39.39,0,0,1,.19.36.45.45,0,0,1,0,.08s0,.08,0,.13l-.33.77c.21-.16.42-.33.65-.49a7.28,7.28,0,0,1,.69-.44,4.54,4.54,0,0,1,.72-.32,2.25,2.25,0,0,1,.71-.12,1.51,1.51,0,0,1,1.11.38,1.55,1.55,0,0,1,.4,1.18,3.89,3.89,0,0,1-.16,1c-.1.39-.24.81-.4,1.26s-.33.92-.52,1.41-.35,1-.51,1.5a2.53,2.53,0,0,1-.14.35.69.69,0,0,1-.17.23.48.48,0,0,1-.22.12,1,1,0,0,1-.32,0,.58.58,0,0,1-.4-.11.48.48,0,0,1-.11-.34,2.67,2.67,0,0,1,.06-.51,5.55,5.55,0,0,1,.18-.66c.08-.24.17-.5.27-.77s.21-.55.33-.83.18-.46.28-.69.17-.44.24-.66.13-.41.18-.61a2.61,2.61,0,0,0,.06-.53.8.8,0,0,0-.1-.41A.39.39,0,0,0,101.38,80.26Z"/><path class="cls-5" d="M104.92,89.79l-.14,0-.13-.08a.76.76,0,0,1-.11-.14.46.46,0,0,1-.05-.21.55.55,0,0,1,0-.17,4,4,0,0,1,.12-.4.69.69,0,0,1,.2-.25,1,1,0,0,1,.34-.18l.56-.14.42-.1a1.06,1.06,0,0,0,.32-.14,4.17,4.17,0,0,0,.65-.69,4.65,4.65,0,0,0,.44-.74,6.67,6.67,0,0,0,.31-.78c.08-.27.16-.54.23-.82a2.45,2.45,0,0,0,.08-.29c0-.1,0-.22.08-.35-.18.17-.38.33-.58.49a5.12,5.12,0,0,1-.63.44,3.56,3.56,0,0,1-.65.32,1.91,1.91,0,0,1-.65.12,1,1,0,0,1-.44-.12,1.9,1.9,0,0,1-.45-.31,1.78,1.78,0,0,1-.37-.45,1,1,0,0,1-.15-.54,1.73,1.73,0,0,1,.05-.38c0-.14.06-.27.08-.38a4.37,4.37,0,0,1,.35-1,6.52,6.52,0,0,1,.53-.87,8.47,8.47,0,0,1,.67-.79,10,10,0,0,1,.76-.7,3.6,3.6,0,0,1,1-.58,3,3,0,0,1,1-.17,3.17,3.17,0,0,1,.44,0,1.3,1.3,0,0,1,.4.09,1.13,1.13,0,0,1,.35.21,1.37,1.37,0,0,1,.3.36.43.43,0,0,1,0,.12.74.74,0,0,1,0,.12,1.85,1.85,0,0,1,0,.3c0,.15,0,.35-.08.58s-.09.48-.14.77-.1.57-.16.86-.11.57-.16.85l-.16.76c-.08.39-.19.79-.31,1.21a11.27,11.27,0,0,1-.46,1.22,8.29,8.29,0,0,1-.64,1.12,4.34,4.34,0,0,1-.84.92,3.83,3.83,0,0,1-1.09.63A3.75,3.75,0,0,1,104.92,89.79Zm.73-6.15c0,.06,0,.12,0,.18a1.1,1.1,0,0,0,0,.18.58.58,0,0,0,.06.28.22.22,0,0,0,.22.12,1.34,1.34,0,0,0,.57-.17,5,5,0,0,0,.66-.44,7,7,0,0,0,.63-.58,3.71,3.71,0,0,0,.46-.6c0-.07.12-.18.2-.32s.16-.29.24-.45a3.41,3.41,0,0,0,.22-.48,1.49,1.49,0,0,0,.12-.43.64.64,0,0,0,0-.24,1.86,1.86,0,0,1-.09-.3h-.07a.86.86,0,0,0-.4.12,3.81,3.81,0,0,0-.49.3,6,6,0,0,0-.52.42c-.17.15-.33.31-.49.47l-.42.47a4.75,4.75,0,0,0-.29.4c-.1.16-.2.33-.28.49A2.8,2.8,0,0,0,105.65,83.64Z"/><path class="cls-5" d="M120.26,79c.51,0,.77.28.77.84a1.67,1.67,0,0,1-.26,1,.88.88,0,0,1-.74.36,44.7,44.7,0,0,0-4.72.22,11.56,11.56,0,0,1-1.54.13q-.75,0-.75-1.11a.92.92,0,0,1,.3-.66,1.38,1.38,0,0,1,.73-.4,24.54,24.54,0,0,1,2.58-.23C118.05,79.06,119.26,79,120.26,79Z"/><path class="cls-5" d="M122.23,86.52c.15-.58.35-1.22.61-1.93s.55-1.44.89-2.21.71-1.54,1.12-2.33.83-1.56,1.26-2.31.89-1.46,1.35-2.12a21.93,21.93,0,0,1,1.36-1.79l.48-.53c.2-.21.41-.43.65-.66s.49-.46.76-.68a7.16,7.16,0,0,1,.79-.6,4.7,4.7,0,0,1,.77-.44,1.76,1.76,0,0,1,.7-.16,2.22,2.22,0,0,1,.79.14,1.69,1.69,0,0,1,.62.43,2,2,0,0,1,.4.65,2.58,2.58,0,0,1,.11,1.23,3.14,3.14,0,0,1-.08.4L133.55,80q.16-.27.48-.72l.69-1,.81-1.15.83-1.16.75-1,.55-.74.21-.27c.14-.17.3-.38.5-.61s.42-.48.66-.74.49-.51.75-.76a8.12,8.12,0,0,1,.81-.68,5,5,0,0,1,.81-.48,1.75,1.75,0,0,1,.77-.19.79.79,0,0,1,.45.12,1.1,1.1,0,0,1,.3.34,1.73,1.73,0,0,1,.16.5,3.81,3.81,0,0,1,0,.59,5.36,5.36,0,0,1-.08,1,8.71,8.71,0,0,1-.18.89c0,.21-.09.52-.15.91s-.14.85-.23,1.36-.18,1.07-.28,1.67-.2,1.2-.3,1.81-.21,1.23-.31,1.83-.2,1.16-.28,1.68l-.24,1.39c-.08.41-.13.73-.18,1s-.06.25-.11.43a2.11,2.11,0,0,1-.22.54,1.5,1.5,0,0,1-.37.46.88.88,0,0,1-.58.19.54.54,0,0,1-.34-.12,1.42,1.42,0,0,1-.3-.3,1.47,1.47,0,0,1-.21-.39,1.59,1.59,0,0,1-.08-.39l2.37-11.26c0-.1,0-.2.06-.28a2.12,2.12,0,0,0,0-.24.85.85,0,0,0,0-.23,1.8,1.8,0,0,1,0-.19c0-.07-.05-.13-.07-.19a10.31,10.31,0,0,0-1.1,1,17.64,17.64,0,0,0-1.18,1.33q-.6.74-1.2,1.56c-.4.56-.78,1.11-1.13,1.66l-.91,1.37-1,1.44-.95,1.45c-.31.48-.58.94-.83,1.39a4.94,4.94,0,0,0-.38.82c-.13.33-.27.66-.43,1a4.58,4.58,0,0,1-.5.82.76.76,0,0,1-.61.34,1.15,1.15,0,0,1-.44-.08.67.67,0,0,1-.28-.21.81.81,0,0,1-.15-.31,1.58,1.58,0,0,1,0-.38,3.17,3.17,0,0,1,0-.53c0-.17.07-.34.11-.5.16-.67.33-1.33.5-2s.35-1.34.54-2,.38-1.41.58-2.15l.6-2.36c.05-.24.12-.5.18-.8s.14-.59.2-.88.11-.6.15-.88a7.24,7.24,0,0,0,.05-.75,2,2,0,0,0,0-.47c0-.12-.09-.18-.17-.18a1.65,1.65,0,0,0-.89.31,5.42,5.42,0,0,0-.95.83,12,12,0,0,0-.95,1.17c-.31.45-.6.9-.88,1.37s-.55.93-.79,1.38l-.63,1.23-.16.32c-.08.13-.17.31-.29.55s-.26.55-.43.92-.37.85-.61,1.41-.5,1.25-.8,2-.64,1.71-1,2.78a1,1,0,0,1-.89.61,1.09,1.09,0,0,1-.87-.32,1.12,1.12,0,0,1-.28-.78A2,2,0,0,1,122.23,86.52Z"/><path class="cls-5" d="M146.55,86a3.61,3.61,0,0,1,0-.52,3.92,3.92,0,0,0,.06-.75c-.17.12-.35.26-.55.43s-.4.32-.61.47a6.15,6.15,0,0,1-.64.37,1.36,1.36,0,0,1-.59.15,1.42,1.42,0,0,1-.42-.06,1.36,1.36,0,0,1-.34-.18,2.32,2.32,0,0,1-.57-.63,1.4,1.4,0,0,1-.18-.72,2.58,2.58,0,0,1,0-.39,3.53,3.53,0,0,1,.1-.46,6.43,6.43,0,0,1,1-2.17,6.58,6.58,0,0,1,1.7-1.71,2.11,2.11,0,0,1,.79-.35,4.13,4.13,0,0,1,.78-.08l.38,0,.38.05.28-.05.23,0a1,1,0,0,1,.37.06.72.72,0,0,1,.24.16.76.76,0,0,1,.13.23,1.26,1.26,0,0,1,0,.27,1.15,1.15,0,0,1-.06.37l-.12.35-1,3.92c0,.21,0,.41-.05.58a3.44,3.44,0,0,1-.09.5,1.07,1.07,0,0,0-.06.17.52.52,0,0,1-.11.19.69.69,0,0,1-.18.16.52.52,0,0,1-.29.07,1.83,1.83,0,0,1-.37,0,.51.51,0,0,1-.21-.09.31.31,0,0,1-.1-.13A.9.9,0,0,1,146.55,86Zm-2.46-2.24c0,.06,0,.16-.07.29a2.56,2.56,0,0,0,0,.39,1,1,0,0,0,.06.36.26.26,0,0,0,.26.16,1.27,1.27,0,0,0,.58-.14,2.78,2.78,0,0,0,.51-.33c.21-.17.43-.37.65-.58s.43-.45.62-.68a5.76,5.76,0,0,0,.52-.73,2.73,2.73,0,0,0,.33-.75,2.94,2.94,0,0,0,.1-.5,3.24,3.24,0,0,0,0-.5.41.41,0,0,0,0-.19.18.18,0,0,0-.17-.09,1.89,1.89,0,0,0-.73.14A3.05,3.05,0,0,0,146,81a3.72,3.72,0,0,0-.65.56,5.44,5.44,0,0,0-1,1.44A3.6,3.6,0,0,0,144.09,83.8Z"/><path class="cls-5" d="M155.59,80.26a1.49,1.49,0,0,0-.56.12,3.77,3.77,0,0,0-.62.33c-.21.14-.43.3-.65.47l-.65.55-.31.26a1.81,1.81,0,0,1-.29.17,2.36,2.36,0,0,0-.22.45c-.08.19-.16.39-.23.61l-.21.67c-.07.24-.12.45-.17.65l-.06.3c0,.1,0,.21-.05.32s0,.23-.07.36-.06.27-.1.43a.57.57,0,0,1-.12.22.52.52,0,0,1-.17.13l-.17.06h-.13a.74.74,0,0,1-.46-.13.63.63,0,0,1-.18-.52c0-.07,0-.15,0-.22a1.47,1.47,0,0,1,0-.26c.11-.47.21-.89.31-1.27s.21-.72.31-1,.21-.63.32-.91.21-.58.32-.87l.35-.89.39-1a.37.37,0,0,1,.23-.21,1,1,0,0,1,.41-.09.74.74,0,0,1,.46.13.39.39,0,0,1,.19.36.45.45,0,0,1,0,.08.93.93,0,0,1,0,.13l-.33.77c.21-.16.42-.33.65-.49a7.28,7.28,0,0,1,.69-.44,4.54,4.54,0,0,1,.72-.32,2.25,2.25,0,0,1,.71-.12,1.51,1.51,0,0,1,1.11.38,1.55,1.55,0,0,1,.4,1.18,3.89,3.89,0,0,1-.16,1c-.1.39-.24.81-.4,1.26s-.33.92-.52,1.41-.35,1-.51,1.5a2.53,2.53,0,0,1-.14.35.69.69,0,0,1-.17.23.48.48,0,0,1-.22.12,1,1,0,0,1-.32,0,.58.58,0,0,1-.4-.11.48.48,0,0,1-.11-.34,2.67,2.67,0,0,1,.06-.51,5.55,5.55,0,0,1,.18-.66c.08-.24.17-.5.27-.77s.21-.55.33-.83.18-.46.28-.69.17-.44.24-.66.13-.41.18-.61a2.61,2.61,0,0,0,.06-.53.8.8,0,0,0-.1-.41A.39.39,0,0,0,155.59,80.26Z"/><path class="cls-5" d="M158.63,83.81a5.74,5.74,0,0,1,.26-.8,5.36,5.36,0,0,1,.39-.8,5.65,5.65,0,0,1,.57-.77,5.79,5.79,0,0,1,.76-.71,7.17,7.17,0,0,1,.63-.45,4.91,4.91,0,0,1,.67-.37,4.78,4.78,0,0,1,.69-.25,2.71,2.71,0,0,1,.68-.09,1.85,1.85,0,0,1,.43,0l.36.11.4-1.39c.22-.76.48-1.81.79-3.16a.93.93,0,0,1,.23-.34.52.52,0,0,1,.36-.13l.29,0a.71.71,0,0,1,.25.11.63.63,0,0,1,.18.21.88.88,0,0,1,.06.35l-1.49,6c0,.17-.08.4-.12.68s-.08.59-.12.9-.06.63-.08.94,0,.58,0,.8a3.75,3.75,0,0,1-.09.82,1.89,1.89,0,0,1-.1.31.53.53,0,0,1-.13.2.55.55,0,0,1-.2.11,1.3,1.3,0,0,1-.31,0,1,1,0,0,1-.33,0,.35.35,0,0,1-.18-.13.36.36,0,0,1-.07-.17c0-.07,0-.14,0-.22a1.93,1.93,0,0,0,0-.24.86.86,0,0,0-.06-.23l-.25.15-.31.2-.31.19-.2.12-.39.2a3.19,3.19,0,0,1-.46.2,4.48,4.48,0,0,1-.52.16,2.56,2.56,0,0,1-.55,0,1.81,1.81,0,0,1-.65-.11,1.41,1.41,0,0,1-.56-.34,1.62,1.62,0,0,1-.4-.58,2.12,2.12,0,0,1-.15-.83c0-.11,0-.22,0-.34A3.35,3.35,0,0,1,158.63,83.81Zm1.29-.06a1.65,1.65,0,0,0-.06.43,2.5,2.5,0,0,0,0,.4.94.94,0,0,0,.14.34.84.84,0,0,0,.27.22.89.89,0,0,0,.43.09,1,1,0,0,0,.32-.06,2,2,0,0,0,.34-.12l.31-.17.25-.15c.19-.12.36-.25.52-.36a3.31,3.31,0,0,0,.44-.39,2.61,2.61,0,0,0,.34-.46,2.9,2.9,0,0,0,.23-.59c.05-.2.09-.38.13-.55s.07-.32.1-.48.06-.31.08-.47.05-.35.08-.55a.39.39,0,0,0-.1-.08.36.36,0,0,0-.19,0,2.35,2.35,0,0,0-.66.1,3.89,3.89,0,0,0-.73.28,5.22,5.22,0,0,0-.73.46,4.17,4.17,0,0,0-.67.59,3.83,3.83,0,0,0-.54.73A3.13,3.13,0,0,0,159.92,83.75Z"/><path class="cls-5" d="M170.62,86a3.61,3.61,0,0,1,0-.52,4,4,0,0,0,.05-.75c-.16.12-.34.26-.54.43s-.4.32-.61.47a6.15,6.15,0,0,1-.64.37,1.36,1.36,0,0,1-.59.15,1.42,1.42,0,0,1-.42-.06,1.36,1.36,0,0,1-.34-.18,2.32,2.32,0,0,1-.57-.63,1.4,1.4,0,0,1-.18-.72,2.58,2.58,0,0,1,0-.39,3.53,3.53,0,0,1,.1-.46,6.43,6.43,0,0,1,1-2.17,6.58,6.58,0,0,1,1.7-1.71,2.11,2.11,0,0,1,.79-.35,4.13,4.13,0,0,1,.78-.08l.38,0,.38.05.28-.05.23,0a1,1,0,0,1,.37.06.72.72,0,0,1,.24.16.76.76,0,0,1,.13.23,1.26,1.26,0,0,1,0,.27,1.15,1.15,0,0,1-.06.37l-.12.35-1,3.92c0,.21,0,.41,0,.58a3.44,3.44,0,0,1-.09.5,1.07,1.07,0,0,0-.06.17.52.52,0,0,1-.11.19.56.56,0,0,1-.18.16.52.52,0,0,1-.29.07,1.83,1.83,0,0,1-.37,0,.51.51,0,0,1-.21-.09.31.31,0,0,1-.1-.13A.9.9,0,0,1,170.62,86Zm-2.46-2.24c0,.06,0,.16-.07.29a2.56,2.56,0,0,0,0,.39,1,1,0,0,0,.06.36.26.26,0,0,0,.26.16,1.27,1.27,0,0,0,.58-.14,2.78,2.78,0,0,0,.51-.33c.21-.17.43-.37.65-.58s.43-.45.62-.68a5.76,5.76,0,0,0,.52-.73,2.73,2.73,0,0,0,.33-.75,2.94,2.94,0,0,0,.1-.5,3.24,3.24,0,0,0,.05-.5.41.41,0,0,0-.05-.19.18.18,0,0,0-.17-.09,1.89,1.89,0,0,0-.73.14,3.05,3.05,0,0,0-.71.38,3.72,3.72,0,0,0-.65.56,4.69,4.69,0,0,0-.56.69,5.66,5.66,0,0,0-.44.75A4.17,4.17,0,0,0,168.16,83.8Z"/><path class="cls-5" d="M174.53,85.59c.07-.35.14-.73.23-1.14s.17-.84.26-1.26.17-.85.26-1.26.15-.79.21-1.13v-.25a3.54,3.54,0,0,1,0-.46,2.59,2.59,0,0,1,.09-.42.88.88,0,0,1,.18-.39.45.45,0,0,1,.32-.1.63.63,0,0,1,.35.09.7.7,0,0,1,.2.22,1.15,1.15,0,0,1,.1.33c0,.12,0,.24,0,.37a1.85,1.85,0,0,1,0,.23c0,.09,0,.15,0,.2l.45-.44a3.8,3.8,0,0,1,.49-.41,3,3,0,0,1,.56-.3,1.62,1.62,0,0,1,.61-.12,1,1,0,0,1,.25,0,1.14,1.14,0,0,1,.25.06,1.39,1.39,0,0,1,.31.1,1.59,1.59,0,0,1,.31.17,1.65,1.65,0,0,1,.41.46,1.14,1.14,0,0,1,.17.57.69.69,0,0,1-.05.24.9.9,0,0,1-.12.24.77.77,0,0,1-.18.18.39.39,0,0,1-.23.07,1,1,0,0,1-.31-.06.87.87,0,0,1-.3-.17.5.5,0,0,1-.11-.13.86.86,0,0,1-.1-.16.6.6,0,0,1-.09-.15.25.25,0,0,0-.07-.09l-.08,0h-.08a1.55,1.55,0,0,0-.72.19,3.24,3.24,0,0,0-.64.48,4.29,4.29,0,0,0-.54.59c-.17.21-.31.4-.44.57-.1.4-.21.83-.33,1.28s-.24.92-.36,1.42v.18c0,.15,0,.31,0,.46a1.3,1.3,0,0,1-.09.41.81.81,0,0,1-.24.19.78.78,0,0,1-.35.07.58.58,0,0,1-.47-.2.81.81,0,0,1-.15-.48A1.22,1.22,0,0,1,174.53,85.59Z"/><path class="cls-5" d="M180.85,85c.07-.29.16-.62.26-1s.22-.78.33-1.21.24-.86.36-1.3.23-.88.33-1.3a.29.29,0,0,1,.05-.1.43.43,0,0,1,.13-.14.69.69,0,0,1,.21-.13.84.84,0,0,1,.29,0,1,1,0,0,1,.25,0,.66.66,0,0,1,.21.08.47.47,0,0,1,.15.13.35.35,0,0,1,.05.2v.1l-.21.78c-.24.88-.47,1.77-.71,2.65s-.47,1.78-.7,2.67l0,.11a.35.35,0,0,1-.08.13.37.37,0,0,1-.13.12.31.31,0,0,1-.17,0,.61.61,0,0,1-.34-.08.83.83,0,0,1-.26-.19.76.76,0,0,1-.15-.26.71.71,0,0,1,0-.27v-.07a.13.13,0,0,1,0-.06Zm1.93-7.69a2.67,2.67,0,0,1,.14-.38,1,1,0,0,1,.34-.4l.29-.12a.72.72,0,0,1,.24,0,.23.23,0,0,1,.15,0,.53.53,0,0,1,.14.11,1.07,1.07,0,0,1,.14.16.26.26,0,0,1,.24.13.65.65,0,0,1,.06.29,1.25,1.25,0,0,1,0,.21c0,.07,0,.12,0,.16a.68.68,0,0,1-.17.28A1.09,1.09,0,0,1,184,78a1.43,1.43,0,0,1-.34.14,1,1,0,0,1-.31,0,.65.65,0,0,1-.27,0,1.28,1.28,0,0,1-.23-.26.31.31,0,0,1-.09-.17.49.49,0,0,1,0-.11.61.61,0,0,1,0-.14A.51.51,0,0,1,182.78,77.31Z"/><path class="cls-5" d="M190,80.26a1.49,1.49,0,0,0-.56.12,3.77,3.77,0,0,0-.62.33c-.21.14-.43.3-.64.47s-.44.36-.66.55l-.31.26a1.46,1.46,0,0,1-.29.17,2.36,2.36,0,0,0-.22.45c-.08.19-.15.39-.23.61l-.21.67c-.07.24-.12.45-.17.65l-.06.3c0,.1,0,.21,0,.32s0,.23-.07.36-.06.27-.1.43a.4.4,0,0,1-.12.22.52.52,0,0,1-.17.13l-.17.06h-.13a.74.74,0,0,1-.46-.13.63.63,0,0,1-.18-.52c0-.07,0-.15,0-.22a1.47,1.47,0,0,1,.05-.26c.11-.47.21-.89.31-1.27s.21-.72.31-1,.21-.63.32-.91.21-.58.32-.87l.35-.89.39-1a.37.37,0,0,1,.24-.21.9.9,0,0,1,.4-.09.74.74,0,0,1,.46.13.41.41,0,0,1,.19.36.45.45,0,0,1,0,.08.93.93,0,0,1,0,.13l-.33.77c.21-.16.42-.33.65-.49a7.28,7.28,0,0,1,.69-.44,4.54,4.54,0,0,1,.72-.32,2.25,2.25,0,0,1,.71-.12,1.51,1.51,0,0,1,1.11.38,1.55,1.55,0,0,1,.4,1.18,3.89,3.89,0,0,1-.16,1c-.1.39-.24.81-.4,1.26s-.33.92-.52,1.41-.35,1-.51,1.5a2.53,2.53,0,0,1-.14.35.69.69,0,0,1-.17.23.48.48,0,0,1-.22.12,1,1,0,0,1-.32,0,.58.58,0,0,1-.4-.11.48.48,0,0,1-.11-.34,2.67,2.67,0,0,1,.06-.51,5.55,5.55,0,0,1,.18-.66c.08-.24.17-.5.27-.77s.21-.55.33-.83.18-.46.28-.69.17-.44.24-.66.13-.41.18-.61a2.61,2.61,0,0,0,.06-.53.8.8,0,0,0-.1-.41A.39.39,0,0,0,190,80.26Z"/><text class="cls-9" transform="translate(0 111.36)">中文智慧写作系<tspan class="cls-10" x="173.6" y="0">统</tspan></text></g></g></svg>