<svg xmlns="http://www.w3.org/2000/svg" xmlns:xlink="http://www.w3.org/1999/xlink" viewBox="0 0 258.15 64.76"><defs><style>.cls-1{fill:#f8bc00;}.cls-2{fill:#fcd776;}.cls-3{fill:#fde5a7;}.cls-4{fill:#fff3d6;}.cls-5{fill:#eb5e00;}.cls-6{fill:url(#新增漸層色票_1);}.cls-7{fill:url(#新增漸層色票_1-2);}.cls-8{fill:url(#新增漸層色票_1-3);}</style><radialGradient id="新增漸層色票_1" cx="27.54" cy="-11.77" r="65.27" gradientUnits="userSpaceOnUse"><stop offset="0" stop-color="#00afec"/><stop offset="1" stop-color="#00428d"/></radialGradient><radialGradient id="新增漸層色票_1-2" cx="27.64" cy="-12.31" r="65.82" xlink:href="#新增漸層色票_1"/><radialGradient id="新增漸層色票_1-3" cx="27.54" cy="-11.78" r="65.27" xlink:href="#新增漸層色票_1"/></defs><g id="圖層_2" data-name="圖層 2"><g id="圖層_1-2" data-name="圖層 1"><path class="cls-1" d="M28.09,32.87a44.45,44.45,0,0,1,7.83-1.46V8.27a27.17,27.17,0,0,0-7.83-1.45Z"/><path class="cls-2" d="M38.77,31.22a47.51,47.51,0,0,1,8.06.42V14.17a42,42,0,0,0-8.06-4.78Z"/><path class="cls-3" d="M49.73,32.13a52.3,52.3,0,0,1,8.05,2.31V24.59a73.55,73.55,0,0,0-8.05-8.11Z"/><path class="cls-4" d="M60.63,28.1v7.5a58.75,58.75,0,0,1,7.83,4.19v-.24A119.36,119.36,0,0,0,60.63,28.1Z"/><path class="cls-5" d="M53.11,41.48c-13.7,5.36-28.7,13.11-41,23.28C28.69,51.9,50.17,43.87,66.76,40.65c-5.23-2-10.94-4.65-16.83-5.07C51,37,52.06,39.91,53.11,41.48Z"/><path class="cls-6" d="M20.26,24.1V2A17.27,17.27,0,0,0,5,1.62v24A23.28,23.28,0,0,1,20.26,24.1Z"/><path class="cls-7" d="M24.33,51.36l0,.06S24.35,51.38,24.33,51.36Z"/><path class="cls-8" d="M25.21,33.93V5.74a22.15,22.15,0,0,0-3.88-2.92v23A23.24,23.24,0,0,0,3.21,27.57V2.72A21.5,21.5,0,0,0,0,5V33.82a22.85,22.85,0,0,1,5.12-2.49C4.86,33.92,3.07,48.05.41,50.45A10.17,10.17,0,0,1,6,53a19.1,19.1,0,0,1,6.13,10.2V51a3.07,3.07,0,1,1,1,0V63.57C15.28,55,23.85,51.09,24.33,51.36c-2.29-6-3.91-17-4.23-20A23.19,23.19,0,0,1,25.21,33.93Z"/><path class="cls-5" d="M71.72,35.6c.26.09.52.2.79.32s.55.24.84.35a8.57,8.57,0,0,0,.9.28,4.17,4.17,0,0,0,1,.11,6.17,6.17,0,0,0,1.27-.14,6.65,6.65,0,0,0,1.25-.44,7.36,7.36,0,0,0,1.16-.71,6.24,6.24,0,0,0,1-1,12.3,12.3,0,0,0,.85-1.06,8.13,8.13,0,0,0,.56-.84,3.86,3.86,0,0,0,.3-.64,1.48,1.48,0,0,0,.09-.46.73.73,0,0,0-.19-.5,1.52,1.52,0,0,0-.52-.34,3.07,3.07,0,0,0-.74-.2,4.72,4.72,0,0,0-.85-.07l-.62,0-.72,0-.7,0-.6,0A3.6,3.6,0,0,1,75.26,30a2.75,2.75,0,0,1-.72-.52,2.66,2.66,0,0,1-.54-.82,2.8,2.8,0,0,1-.13-.38,1.78,1.78,0,0,1-.05-.47,4.41,4.41,0,0,1,0-.52c0-.16.06-.32.1-.47a4.77,4.77,0,0,1,.53-1.16,7.66,7.66,0,0,1,.89-1.14,14.57,14.57,0,0,1,1.13-1.08c.41-.35.82-.68,1.25-1s.85-.58,1.27-.83.8-.46,1.15-.64a6.51,6.51,0,0,1,1.54-.52,7.41,7.41,0,0,1,1.54-.17,3.1,3.1,0,0,1,.87.12,2.41,2.41,0,0,1,.72.35,1.67,1.67,0,0,1,.5.56,1.59,1.59,0,0,1,.18.77,1.25,1.25,0,0,1-.06.42.92.92,0,0,1-.14.28.94.94,0,0,1-.2.16.93.93,0,0,1-.23,0,2,2,0,0,1-.56-.07,4.13,4.13,0,0,1-.5-.15l-.48-.16a1.72,1.72,0,0,0-.52-.07,4.8,4.8,0,0,0-1.71.33,9.69,9.69,0,0,0-1.7.86,12.54,12.54,0,0,0-1.56,1.15c-.49.43-.93.84-1.32,1.24a2.21,2.21,0,0,0-.45.64,1.45,1.45,0,0,0-.14.61.75.75,0,0,0,.36.66,1.58,1.58,0,0,0,.89.24h.7l.79,0,.78,0h.68a4.39,4.39,0,0,1,1.36.2,3.66,3.66,0,0,1,1.15.58,2.91,2.91,0,0,1,.8,1,2.78,2.78,0,0,1,.3,1.31,3.31,3.31,0,0,1-.13.93,5.61,5.61,0,0,1-.38.94q-.24.47-.54.93c-.21.31-.43.61-.65.91a12.14,12.14,0,0,1-1.38,1.5,10,10,0,0,1-1.61,1.23,8,8,0,0,1-1.81.83,6.12,6.12,0,0,1-2,.31,5.45,5.45,0,0,1-.89-.08,6,6,0,0,1-.9-.23,4,4,0,0,1-.84-.39,3.71,3.71,0,0,1-.69-.53,2.45,2.45,0,0,1-.47-.65,1.73,1.73,0,0,1-.18-.79,1.07,1.07,0,0,1,.07-.39A.29.29,0,0,1,71.72,35.6Z"/><path class="cls-5" d="M84.89,36.58c.15-.58.29-1.12.43-1.62s.27-1,.41-1.44.25-.9.38-1.33.24-.87.35-1.31a1.86,1.86,0,0,0,.08-.5,3.27,3.27,0,0,1,.07-.51.39.39,0,0,1,.11-.15.83.83,0,0,1,.18-.13l.2-.08.2,0a1.13,1.13,0,0,1,.35.05.54.54,0,0,1,.22.13.37.37,0,0,1,.12.2,1,1,0,0,1,0,.25,1.51,1.51,0,0,1-.08.51c0,.17-.12.36-.2.56.23-.18.47-.36.72-.52a6.29,6.29,0,0,1,.75-.43,6,6,0,0,1,.8-.3,3.48,3.48,0,0,1,.85-.11,1.12,1.12,0,0,1,.4.07,1,1,0,0,1,.36.19,1.06,1.06,0,0,1,.27.35A1.34,1.34,0,0,1,92,31l.66-.44c.23-.14.46-.27.7-.39a4.09,4.09,0,0,1,.7-.28,2.48,2.48,0,0,1,.69-.11,2.17,2.17,0,0,1,.82.13,1.36,1.36,0,0,1,.51.35,1.26,1.26,0,0,1,.27.51,2.43,2.43,0,0,1,.08.61,4.74,4.74,0,0,1-.07.74c-.05.25-.09.49-.15.72-.14.57-.3,1.12-.48,1.63s-.37,1-.58,1.56l-.16.39a1.93,1.93,0,0,1-.19.38,1,1,0,0,1-.25.29.51.51,0,0,1-.34.11.91.91,0,0,1-.6-.14.54.54,0,0,1-.16-.43,1.09,1.09,0,0,1,0-.17.57.57,0,0,1,0-.18,2.22,2.22,0,0,1,.14-.33l.22-.45.24-.5a3.36,3.36,0,0,0,.18-.43c.07-.21.14-.46.23-.74s.17-.56.25-.85.14-.55.2-.8a3.42,3.42,0,0,0,.07-.63,1.8,1.8,0,0,0,0-.22.41.41,0,0,0-.08-.19.38.38,0,0,0-.15-.13.53.53,0,0,0-.26-.06A1.51,1.51,0,0,0,94,31a4.34,4.34,0,0,0-.64.33,6.86,6.86,0,0,0-.64.46,4.46,4.46,0,0,0-.54.51,2,2,0,0,1-.29.29,1.46,1.46,0,0,1-.29.17l-.07.2c0,.11-.09.24-.14.4l-.17.5-.17.51c-.05.15-.09.28-.13.39l0,.18-.09.42c0,.15,0,.29-.07.42s0,.28,0,.43a1.44,1.44,0,0,1-.11.42.75.75,0,0,1-.23.32.69.69,0,0,1-.45.13.5.5,0,0,1-.27-.07,1,1,0,0,1-.22-.19,2.15,2.15,0,0,1-.14-.26,1.59,1.59,0,0,1-.06-.3c.12-.44.23-.84.34-1.2l.32-1c.11-.33.22-.66.32-1s.2-.69.3-1.08a1.57,1.57,0,0,0,.06-.28,1.06,1.06,0,0,0,0-.24.56.56,0,0,0-.07-.3.3.3,0,0,0-.26-.11,1.66,1.66,0,0,0-.61.12,3.28,3.28,0,0,0-.65.38c-.23.18-.49.4-.77.66s-.61.59-1,1a3.32,3.32,0,0,0-.15.42c-.07.2-.13.42-.2.64s-.12.44-.18.64-.09.32-.1.39a2.56,2.56,0,0,0-.11.52c0,.14,0,.27-.06.38s0,.16,0,.3a2.28,2.28,0,0,1-.11.41,1.07,1.07,0,0,1-.22.37.48.48,0,0,1-.37.15.86.86,0,0,1-.56-.18.57.57,0,0,1-.22-.47.38.38,0,0,1,0-.1A.37.37,0,0,1,84.89,36.58Z"/><path class="cls-5" d="M101.55,36.75a3.75,3.75,0,0,1,0-.52,3.88,3.88,0,0,0,.06-.74l-.55.42c-.2.16-.4.32-.61.47a4.76,4.76,0,0,1-.64.37,1.23,1.23,0,0,1-.59.15,1.42,1.42,0,0,1-.42-.06,1,1,0,0,1-.34-.18,2.45,2.45,0,0,1-.57-.62,1.44,1.44,0,0,1-.18-.73,2.87,2.87,0,0,1,0-.39,3.92,3.92,0,0,1,.1-.46,6.52,6.52,0,0,1,1-2.17,6.7,6.7,0,0,1,1.7-1.7,2,2,0,0,1,.79-.35,3.44,3.44,0,0,1,.78-.08,2.62,2.62,0,0,1,.38,0l.38,0,.28,0h.23a1,1,0,0,1,.37.06.6.6,0,0,1,.24.16.58.58,0,0,1,.13.23,1,1,0,0,1,0,.63l-.12.36-1,3.91c0,.21,0,.41,0,.59a3.56,3.56,0,0,1-.09.49,1.62,1.62,0,0,0-.06.17.52.52,0,0,1-.11.19.55.55,0,0,1-.18.16.52.52,0,0,1-.29.07,1.83,1.83,0,0,1-.37,0,.71.71,0,0,1-.21-.08.33.33,0,0,1-.1-.14A.9.9,0,0,1,101.55,36.75Zm-2.46-2.24c0,.07,0,.17-.07.3a2.34,2.34,0,0,0,0,.38,1,1,0,0,0,.06.36.25.25,0,0,0,.26.16,1.27,1.27,0,0,0,.58-.14,2.78,2.78,0,0,0,.51-.33,8.25,8.25,0,0,0,.65-.58,7.93,7.93,0,0,0,.62-.68,5.76,5.76,0,0,0,.52-.73,3.07,3.07,0,0,0,.33-.75,3,3,0,0,0,.1-.49,3.25,3.25,0,0,0,0-.51.43.43,0,0,0,0-.19.18.18,0,0,0-.17-.09,2.1,2.1,0,0,0-.73.14,3.05,3.05,0,0,0-.71.38,3.78,3.78,0,0,0-.65.56,4.69,4.69,0,0,0-.56.69,5.25,5.25,0,0,0-.43.76A3.52,3.52,0,0,0,99.09,34.51Z"/><path class="cls-5" d="M105.46,36.3c.07-.34.14-.72.23-1.14s.17-.84.26-1.26.17-.84.26-1.26.15-.78.21-1.13c0,0,0-.09,0-.12v-.13a3.67,3.67,0,0,1,0-.46,2.59,2.59,0,0,1,.09-.42.78.78,0,0,1,.18-.38.41.41,0,0,1,.32-.1.63.63,0,0,1,.35.08.64.64,0,0,1,.2.23,1,1,0,0,1,.1.32c0,.12,0,.25,0,.38a1.93,1.93,0,0,1,0,.23c0,.08,0,.15,0,.2.14-.15.29-.29.45-.44a3.13,3.13,0,0,1,.49-.41,3,3,0,0,1,.56-.3,1.62,1.62,0,0,1,.61-.12,1,1,0,0,1,.25,0,1.14,1.14,0,0,1,.25.06,2.22,2.22,0,0,1,.31.1,1.59,1.59,0,0,1,.31.17,1.7,1.7,0,0,1,.41.47,1.08,1.08,0,0,1,.17.57.79.79,0,0,1,0,.24,1,1,0,0,1-.12.23.52.52,0,0,1-.18.18.39.39,0,0,1-.23.07,1,1,0,0,1-.31-.06.87.87,0,0,1-.3-.17.65.65,0,0,1-.11-.12l-.1-.17a.6.6,0,0,1-.09-.15s0-.08-.07-.09h-.16a1.45,1.45,0,0,0-.72.2,3.19,3.19,0,0,0-.64.47,4.29,4.29,0,0,0-.54.59c-.17.21-.32.4-.44.57-.1.4-.21.83-.33,1.28s-.24.93-.36,1.42v.19c0,.15,0,.3,0,.45a1.24,1.24,0,0,1-.09.41.75.75,0,0,1-.59.27.55.55,0,0,1-.47-.21.76.76,0,0,1-.15-.48A1.22,1.22,0,0,1,105.46,36.3Z"/><path class="cls-5" d="M112.85,34.76a6.62,6.62,0,0,1,.14-1.3c.1-.44.2-.87.3-1.28a2.63,2.63,0,0,1-.39-.06,1.78,1.78,0,0,1-.37-.14.82.82,0,0,1-.26-.22.48.48,0,0,1-.11-.3.55.55,0,0,1,0-.17,1,1,0,0,1,.09-.21.46.46,0,0,1,.14-.17.31.31,0,0,1,.2-.07h1a.2.2,0,0,0,.19-.12,2.25,2.25,0,0,0,.08-.24l.18-.75.15-.54c0-.14.07-.26.09-.35a1.12,1.12,0,0,0,0-.22v-.19a1.56,1.56,0,0,1,0-.24v-.08a.86.86,0,0,1,0-.15,1.86,1.86,0,0,1,.07-.28.66.66,0,0,1,.16-.26.45.45,0,0,1,.35-.13.68.68,0,0,1,.34.08.69.69,0,0,1,.23.22,1,1,0,0,1,.14.3,1.37,1.37,0,0,1,0,.34,1.72,1.72,0,0,1,0,.34l-.55,2.08.72-.13.62-.12.59-.12.43-.11.3-.06.2,0,.24,0a1.16,1.16,0,0,1,.22.06.47.47,0,0,1,.15.13.35.35,0,0,1,.06.21.66.66,0,0,1-.07.32,1.08,1.08,0,0,1-.18.24,1,1,0,0,1-.25.16,1.66,1.66,0,0,1-.29.1l-.3.06-.42.1-.47.11-.48.12-.58.15-.41.09-.28,0-.18,0c-.09.28-.17.56-.24.83s-.13.52-.18.76-.08.44-.1.63a4.22,4.22,0,0,0,0,.43,1.67,1.67,0,0,0,0,.39.77.77,0,0,0,.12.31.61.61,0,0,0,.24.21.75.75,0,0,0,.39.08,1.6,1.6,0,0,0,.77-.21,4,4,0,0,0,.72-.55,6.4,6.4,0,0,0,.65-.72l.57-.75a.28.28,0,0,1,.23-.14l.11,0a.31.31,0,0,1,.12.05.24.24,0,0,1,.1.1.21.21,0,0,1,0,.14v.09a4.66,4.66,0,0,1-.37.92l-.51.93a1.72,1.72,0,0,1-.23.32,2.27,2.27,0,0,1-.32.3,3.44,3.44,0,0,1-.36.28l-.34.23a1.74,1.74,0,0,1-.62.24,2.94,2.94,0,0,1-.65.07,2.08,2.08,0,0,1-.85-.17,1.93,1.93,0,0,1-.64-.48,1.9,1.9,0,0,1-.38-.7A2.67,2.67,0,0,1,112.85,34.76Z"/><path class="cls-5" d="M121.68,33.13a21.77,21.77,0,0,1,.66-2.16c.27-.76.55-1.52.85-2.31s.59-1.58.88-2.38.53-1.62.74-2.43c0-.2.1-.38.13-.54s.08-.35.12-.54a1.07,1.07,0,0,1,.37-.46.9.9,0,0,1,.5-.16,1.28,1.28,0,0,1,.48.09.87.87,0,0,1,.38.25,1.26,1.26,0,0,1,.27.45,2.08,2.08,0,0,1,.09.65,4.16,4.16,0,0,1-.12.93c-.3.77-.6,1.51-.9,2.24s-.6,1.44-.88,2.14-.55,1.39-.8,2.08-.45,1.36-.62,2c0,.06,0,.17-.09.35s-.1.4-.15.65-.09.52-.13.8a5.9,5.9,0,0,0-.06.83,4.38,4.38,0,0,0,0,.52,1.61,1.61,0,0,0,.11.42.82.82,0,0,0,.22.29.53.53,0,0,0,.34.1,2,2,0,0,0,1.06-.45,9.6,9.6,0,0,0,1.36-1.23,21.87,21.87,0,0,0,1.5-1.81c.51-.69,1-1.43,1.49-2.22s.94-1.6,1.36-2.44a21.6,21.6,0,0,0,1.06-2.47.5.5,0,0,1,.25-.28,1.07,1.07,0,0,1,.39-.06,1.09,1.09,0,0,1,.75.26.89.89,0,0,1,.3.69.64.64,0,0,1,0,.2,1.15,1.15,0,0,1-.06.21l-.16.47c-.13.36-.24.69-.35,1s-.2.58-.27.85-.18.72-.24,1-.11.61-.14.89a7.82,7.82,0,0,0-.07.81c0,.27,0,.54,0,.81,0,.11,0,.26,0,.47s.05.43.09.68.09.5.15.75a5.75,5.75,0,0,0,.23.7,1.84,1.84,0,0,0,.31.52.54.54,0,0,0,.4.2,1.29,1.29,0,0,0,.75-.29,4.61,4.61,0,0,0,.79-.8,10.22,10.22,0,0,0,.8-1.19c.27-.46.54-.95.79-1.47s.5-1.07.73-1.63.44-1.12.64-1.67.36-1.08.51-1.6.27-1,.36-1.4.16-.8.22-1.18l.18-1.14c.06-.38.13-.76.2-1.14s.16-.78.27-1.18a2.06,2.06,0,0,1,.45-.86,1.49,1.49,0,0,1,.36-.31.71.71,0,0,1,.39-.12.76.76,0,0,1,.7.28,1.76,1.76,0,0,1,.18.93,9.63,9.63,0,0,1-.08,1.11c-.06.43-.13.88-.22,1.34s-.19.94-.29,1.42-.21.93-.32,1.36a22.88,22.88,0,0,1-.84,2.69c-.35.94-.74,1.84-1.17,2.73s-.89,1.72-1.37,2.5a16,16,0,0,1-1.45,2,6.62,6.62,0,0,1-.59.6,5.75,5.75,0,0,1-.74.56,5.57,5.57,0,0,1-.8.42,2.05,2.05,0,0,1-.78.16,1.91,1.91,0,0,1-1.31-.46A3.33,3.33,0,0,1,131,37a7.14,7.14,0,0,1-.51-1.76,18.43,18.43,0,0,1-.26-2c-.43.63-.81,1.19-1.17,1.69A15.37,15.37,0,0,1,128,36.25c-.27.32-.58.65-.92,1a9.36,9.36,0,0,1-1.09,1,6.12,6.12,0,0,1-1.18.77,2.61,2.61,0,0,1-1.18.3,2.48,2.48,0,0,1-1.12-.23,1.84,1.84,0,0,1-.73-.65,2.77,2.77,0,0,1-.39-1,5.84,5.84,0,0,1-.12-1.21,10.31,10.31,0,0,1,.12-1.55C121.45,34.19,121.55,33.66,121.68,33.13Z"/><path class="cls-5" d="M140.41,36.3c.07-.34.14-.72.22-1.14s.18-.84.26-1.26.18-.84.26-1.26.16-.78.22-1.13a.53.53,0,0,1,0-.12v-.13a3.67,3.67,0,0,1,0-.46c0-.15.05-.29.08-.42a.88.88,0,0,1,.19-.38.41.41,0,0,1,.32-.1.57.57,0,0,1,.34.08.58.58,0,0,1,.21.23.8.8,0,0,1,.09.32,2.34,2.34,0,0,1,0,.38c0,.07,0,.14,0,.23a1.56,1.56,0,0,0,0,.2l.44-.44a3.74,3.74,0,0,1,.5-.41,3,3,0,0,1,.56-.3,1.58,1.58,0,0,1,.61-.12,1.06,1.06,0,0,1,.25,0l.25.06a2.22,2.22,0,0,1,.31.1,1.52,1.52,0,0,1,.3.17,1.73,1.73,0,0,1,.42.47,1.07,1.07,0,0,1,.16.57.75.75,0,0,1,0,.24,1,1,0,0,1-.12.23.64.64,0,0,1-.19.18.37.37,0,0,1-.23.07,1,1,0,0,1-.3-.06.72.72,0,0,1-.3-.17.43.43,0,0,1-.11-.12l-.11-.17-.09-.15a.23.23,0,0,0-.06-.09h-.16a1.45,1.45,0,0,0-.72.2,3.19,3.19,0,0,0-.64.47,5.12,5.12,0,0,0-.55.59c-.16.21-.31.4-.43.57-.1.4-.21.83-.33,1.28s-.24.93-.36,1.42v.19c0,.15,0,.3,0,.45a1.24,1.24,0,0,1-.09.41.63.63,0,0,1-.23.19.78.78,0,0,1-.35.08.54.54,0,0,1-.47-.21.77.77,0,0,1-.16-.48A1.27,1.27,0,0,1,140.41,36.3Z"/><path class="cls-5" d="M146.72,35.71l.27-1c.1-.38.21-.79.33-1.21s.23-.86.35-1.31l.34-1.3a.29.29,0,0,1,.05-.1.75.75,0,0,1,.12-.14.72.72,0,0,1,.21-.12.73.73,0,0,1,.3-.05l.24,0,.22.08a.38.38,0,0,1,.14.14.31.31,0,0,1,.06.19V31a.07.07,0,0,1,0,.05l-.2.79c-.24.88-.47,1.76-.71,2.65s-.48,1.77-.71,2.66l0,.12-.08.13a.69.69,0,0,1-.13.11.34.34,0,0,1-.18,0,.77.77,0,0,1-.34-.07.82.82,0,0,1-.25-.2,1,1,0,0,1-.16-.26.86.86,0,0,1,0-.27v-.06a.19.19,0,0,1,0-.07ZM148.66,28a2.14,2.14,0,0,1,.13-.38,1,1,0,0,1,.35-.4,1.22,1.22,0,0,1,.28-.13l.25-.05a.23.23,0,0,1,.15.05l.14.11a.79.79,0,0,1,.14.17.25.25,0,0,1,.24.13.61.61,0,0,1,.06.28.78.78,0,0,1,0,.22q0,.09,0,.15a.72.72,0,0,1-.17.29,1.58,1.58,0,0,1-.29.22,1.43,1.43,0,0,1-.34.14,1,1,0,0,1-.32.06.48.48,0,0,1-.26-.06,1,1,0,0,1-.23-.26.45.45,0,0,1-.1-.17s0-.08,0-.11,0-.1,0-.14Z"/><path class="cls-5" d="M151.64,34.76a6,6,0,0,1,.15-1.3c.09-.44.19-.87.29-1.28a2.63,2.63,0,0,1-.39-.06,1.69,1.69,0,0,1-.36-.14,1,1,0,0,1-.27-.22.47.47,0,0,1-.1-.3.52.52,0,0,1,0-.17,1,1,0,0,1,.09-.21.58.58,0,0,1,.14-.17.31.31,0,0,1,.2-.07h1a.19.19,0,0,0,.19-.12,1.13,1.13,0,0,0,.08-.24c.07-.29.13-.54.19-.75s.1-.39.14-.54.07-.26.09-.35a.73.73,0,0,0,0-.22c0-.06,0-.13,0-.19a1.56,1.56,0,0,1,0-.24v-.08s0-.09,0-.15a1.86,1.86,0,0,1,.07-.28.69.69,0,0,1,.17-.26.43.43,0,0,1,.35-.13.74.74,0,0,1,.34.08.8.8,0,0,1,.23.22,1,1,0,0,1,.13.3,1.4,1.4,0,0,1,.05.34,1.67,1.67,0,0,1,0,.34l-.54,2.08.71-.13.62-.12.59-.12.43-.11.3-.06.21,0,.24,0a1.05,1.05,0,0,1,.21.06.47.47,0,0,1,.15.13.35.35,0,0,1,.06.21.66.66,0,0,1-.07.32.69.69,0,0,1-.18.24.82.82,0,0,1-.25.16,1.57,1.57,0,0,1-.28.1l-.31.06-.42.1-.47.11-.47.12-.59.15L154,32l-.28,0-.17,0c-.1.28-.18.56-.25.83s-.12.52-.17.76a5.8,5.8,0,0,0-.1.63,2.72,2.72,0,0,0,0,.43,1.67,1.67,0,0,0,0,.39.79.79,0,0,0,.13.31.5.5,0,0,0,.24.21.72.72,0,0,0,.38.08,1.57,1.57,0,0,0,.77-.21,4.5,4.5,0,0,0,.73-.55,9.17,9.17,0,0,0,.65-.72l.57-.75a.25.25,0,0,1,.23-.14l.1,0a.29.29,0,0,1,.13.05.32.32,0,0,1,.1.1.29.29,0,0,1,0,.14s0,.07,0,.09a4.12,4.12,0,0,1-.37.92q-.24.46-.51.93a1.36,1.36,0,0,1-.23.32,2.27,2.27,0,0,1-.32.3c-.11.1-.23.19-.35.28l-.35.23a1.67,1.67,0,0,1-.62.24,2.91,2.91,0,0,1-.64.07,2.09,2.09,0,0,1-.86-.17,1.89,1.89,0,0,1-.63-.48,2.08,2.08,0,0,1-.39-.7A2.67,2.67,0,0,1,151.64,34.76Z"/><path class="cls-5" d="M158.59,35.71l.27-1c.11-.38.22-.79.33-1.21s.24-.86.35-1.31l.34-1.3a.29.29,0,0,1,.05-.1.55.55,0,0,1,.13-.14.56.56,0,0,1,.2-.12.73.73,0,0,1,.3-.05l.25,0a1,1,0,0,1,.21.08.5.5,0,0,1,.15.14.38.38,0,0,1,.05.19V31a.07.07,0,0,1,0,.05l-.2.79c-.24.88-.47,1.76-.71,2.65s-.48,1.77-.7,2.66l0,.12-.08.13a.47.47,0,0,1-.13.11.31.31,0,0,1-.17,0,.78.78,0,0,1-.35-.07.82.82,0,0,1-.25-.2.76.76,0,0,1-.15-.26.66.66,0,0,1-.06-.27v-.06a.19.19,0,0,1,0-.07ZM160.53,28a3.46,3.46,0,0,1,.13-.38,1,1,0,0,1,.35-.4,1.32,1.32,0,0,1,.29-.13,1.13,1.13,0,0,1,.24-.05.23.23,0,0,1,.15.05.53.53,0,0,1,.14.11.79.79,0,0,1,.14.17.23.23,0,0,1,.24.13.61.61,0,0,1,.06.28,1.5,1.5,0,0,1,0,.22c0,.06,0,.11,0,.15a.72.72,0,0,1-.17.29,1.3,1.3,0,0,1-.29.22,1.43,1.43,0,0,1-.34.14,1,1,0,0,1-.31.06.49.49,0,0,1-.27-.06,1,1,0,0,1-.23-.26.31.31,0,0,1-.09-.17.45.45,0,0,1,0-.11.61.61,0,0,1,0-.14A.5.5,0,0,1,160.53,28Z"/><path class="cls-5" d="M167.73,31a1.34,1.34,0,0,0-.56.13,3.77,3.77,0,0,0-.62.33c-.21.14-.43.29-.65.47s-.43.36-.65.54a3.56,3.56,0,0,1-.31.26,1.28,1.28,0,0,1-.29.17,3.16,3.16,0,0,0-.22.45c-.08.19-.16.39-.23.61s-.15.45-.21.68-.12.44-.17.64,0,.21-.06.3,0,.21,0,.32,0,.23-.07.36-.06.27-.1.43a.71.71,0,0,1-.12.23.7.7,0,0,1-.17.13.41.41,0,0,1-.17,0H163a.74.74,0,0,1-.46-.13.61.61,0,0,1-.18-.52c0-.07,0-.14,0-.22a1.38,1.38,0,0,1,.05-.25c.1-.47.21-.9.31-1.27s.21-.73.31-1,.21-.63.31-.91l.33-.86L164,31c.12-.31.25-.65.39-1a.44.44,0,0,1,.23-.21,1,1,0,0,1,.41-.08.81.81,0,0,1,.46.12.43.43,0,0,1,.19.37l0,.08s0,.08,0,.12l-.33.77.65-.49a6.2,6.2,0,0,1,.69-.44,5.67,5.67,0,0,1,.72-.32,2.25,2.25,0,0,1,.71-.12,1.37,1.37,0,0,1,1.51,1.57,3.88,3.88,0,0,1-.16,1c-.1.39-.24.81-.4,1.26s-.33.92-.52,1.41-.35,1-.51,1.51c-.05.13-.09.25-.14.35a.65.65,0,0,1-.17.22.58.58,0,0,1-.23.13,1.35,1.35,0,0,1-.31,0,.53.53,0,0,1-.4-.11.42.42,0,0,1-.11-.34,2.67,2.67,0,0,1,.06-.51,5.55,5.55,0,0,1,.18-.66c.08-.24.16-.5.27-.77s.21-.55.33-.83.18-.46.28-.68.17-.45.24-.66.13-.42.17-.61a2.11,2.11,0,0,0,.07-.54.74.74,0,0,0-.1-.4A.38.38,0,0,0,167.73,31Z"/><path class="cls-5" d="M171.27,40.5l-.14,0a.26.26,0,0,1-.13-.08.53.53,0,0,1-.11-.14.42.42,0,0,1,0-.2.47.47,0,0,1,0-.17,2.85,2.85,0,0,1,.12-.4.73.73,0,0,1,.2-.26.83.83,0,0,1,.34-.17,4.75,4.75,0,0,1,.56-.15l.42-.1a.86.86,0,0,0,.32-.14,4.56,4.56,0,0,0,.65-.68,5.15,5.15,0,0,0,.44-.74,7.61,7.61,0,0,0,.31-.79c.08-.26.16-.54.23-.81,0-.1.06-.2.08-.3s.05-.21.08-.34l-.58.49a6.5,6.5,0,0,1-.63.44,4.29,4.29,0,0,1-.65.31,1.91,1.91,0,0,1-.65.12,1,1,0,0,1-.44-.12,1.9,1.9,0,0,1-.45-.31,1.78,1.78,0,0,1-.37-.45,1,1,0,0,1-.15-.53,1.89,1.89,0,0,1,.05-.39c0-.14.05-.26.08-.37a4.18,4.18,0,0,1,.35-.95,6,6,0,0,1,.53-.88,8.47,8.47,0,0,1,.67-.79,8.16,8.16,0,0,1,.76-.69,3.24,3.24,0,0,1,1-.58,3,3,0,0,1,1-.18l.44,0a1.8,1.8,0,0,1,.4.1.94.94,0,0,1,.35.2,1.37,1.37,0,0,1,.3.36.61.61,0,0,1,0,.12.69.69,0,0,1,0,.13,1.93,1.93,0,0,1,0,.29c0,.16-.05.35-.09.58s-.08.49-.13.77-.1.57-.16.86-.11.58-.16.86-.11.53-.16.75c-.08.39-.19.8-.31,1.21a10.53,10.53,0,0,1-.46,1.22,7.23,7.23,0,0,1-.64,1.12,4.34,4.34,0,0,1-.84.92,3.75,3.75,0,0,1-1.1.63A3.66,3.66,0,0,1,171.27,40.5Zm.73-6.15c0,.06,0,.12,0,.18a1.23,1.23,0,0,0,0,.19A.64.64,0,0,0,172,35a.22.22,0,0,0,.22.12,1.24,1.24,0,0,0,.57-.18,4.21,4.21,0,0,0,.66-.44,6.87,6.87,0,0,0,.63-.58,4.17,4.17,0,0,0,.46-.59l.2-.33q.12-.21.24-.45a3.41,3.41,0,0,0,.22-.48,1.41,1.41,0,0,0,.12-.43.59.59,0,0,0,0-.23,1.86,1.86,0,0,1-.09-.3h-.07a1,1,0,0,0-.4.11,3.81,3.81,0,0,0-.49.3l-.52.42-.49.48c-.15.16-.29.31-.42.47a4.8,4.8,0,0,0-.29.39c-.1.17-.2.33-.29.5A3.11,3.11,0,0,0,172,34.35Z"/><path class="cls-5" d="M186.61,29.73c.51,0,.77.28.77.84a1.65,1.65,0,0,1-.26,1,.88.88,0,0,1-.74.36,44.51,44.51,0,0,0-4.72.23,13.14,13.14,0,0,1-1.54.12c-.5,0-.75-.37-.75-1.1a.92.92,0,0,1,.3-.67,1.45,1.45,0,0,1,.73-.4c.29-.06,1.15-.14,2.58-.23S185.61,29.73,186.61,29.73Z"/><path class="cls-5" d="M188.58,37.23c.15-.57.35-1.22.61-1.92s.55-1.45.89-2.21.71-1.55,1.12-2.34.83-1.56,1.26-2.31.89-1.45,1.35-2.12a21.69,21.69,0,0,1,1.36-1.78l.48-.54c.2-.21.41-.43.65-.66s.49-.45.76-.68a8.66,8.66,0,0,1,.79-.6,4.61,4.61,0,0,1,.77-.43,1.79,1.79,0,0,1,.7-.17,2,2,0,0,1,.79.15,1.89,1.89,0,0,1,.62.42,1.81,1.81,0,0,1,.39.66,2.23,2.23,0,0,1,.15.83,2.56,2.56,0,0,1,0,.39,3.14,3.14,0,0,1-.08.4l-1.26,6.36c.11-.17.27-.41.48-.71s.43-.64.69-1l.81-1.16c.28-.4.56-.78.83-1.15s.52-.72.75-1l.55-.75.21-.26.5-.62.65-.74.76-.76a9.74,9.74,0,0,1,.81-.68,7.13,7.13,0,0,1,.81-.48,1.89,1.89,0,0,1,.77-.19.73.73,0,0,1,.45.13,1,1,0,0,1,.3.33,1.73,1.73,0,0,1,.16.5,3.81,3.81,0,0,1,0,.59,5.36,5.36,0,0,1-.08,1,8.19,8.19,0,0,1-.18.89c0,.21-.09.52-.15.91s-.14.85-.23,1.36-.18,1.07-.28,1.67-.2,1.2-.3,1.82-.21,1.22-.31,1.82-.2,1.16-.28,1.68l-.24,1.4c-.08.41-.13.73-.18,1s-.06.26-.11.44a2.2,2.2,0,0,1-.22.53,1.5,1.5,0,0,1-.37.46.88.88,0,0,1-.58.19.54.54,0,0,1-.34-.12,1.22,1.22,0,0,1-.3-.3,1.47,1.47,0,0,1-.21-.39,1.52,1.52,0,0,1-.08-.38l2.37-11.26c0-.11,0-.2.06-.29a1.94,1.94,0,0,0,0-.24.85.85,0,0,0,0-.23,1.8,1.8,0,0,1,0-.19,1.71,1.71,0,0,0-.07-.18,11.31,11.31,0,0,0-1.1,1c-.39.4-.79.85-1.19,1.34s-.79,1-1.19,1.56-.78,1.1-1.14,1.66l-.9,1.37-1,1.44c-.32.48-.64,1-1,1.44s-.59,1-.84,1.39a6.65,6.65,0,0,0-.37.82c-.13.33-.27.66-.43,1a4.25,4.25,0,0,1-.5.82.76.76,0,0,1-.61.34,1.15,1.15,0,0,1-.44-.08.67.67,0,0,1-.28-.21.81.81,0,0,1-.15-.31,1.48,1.48,0,0,1,0-.38,3.05,3.05,0,0,1,.05-.52c0-.18.07-.34.11-.5.16-.67.33-1.34.5-2s.35-1.34.54-2,.38-1.41.58-2.15l.6-2.36c.05-.24.11-.5.18-.79s.14-.59.2-.89.11-.59.14-.87a5.38,5.38,0,0,0,.06-.76,2.05,2.05,0,0,0,0-.47q0-.18-.18-.18a1.59,1.59,0,0,0-.88.32,5.34,5.34,0,0,0-1,.82,13.55,13.55,0,0,0-.95,1.18c-.31.44-.6.89-.89,1.36s-.54.93-.78,1.38-.45.87-.63,1.24l-.16.31c-.08.13-.17.32-.29.56s-.26.54-.43.92-.37.84-.61,1.41-.5,1.25-.8,2-.64,1.72-1,2.78a1,1,0,0,1-.89.62,1.13,1.13,0,0,1-.88-.32,1.2,1.2,0,0,1-.27-.79A2,2,0,0,1,188.58,37.23Z"/><path class="cls-5" d="M212.9,36.75a3.75,3.75,0,0,1,0-.52,4,4,0,0,0,.05-.74l-.54.42c-.2.16-.4.32-.61.47a4.76,4.76,0,0,1-.64.37,1.26,1.26,0,0,1-.59.15,1.42,1.42,0,0,1-.42-.06,1.1,1.1,0,0,1-.34-.18,2.28,2.28,0,0,1-.57-.62,1.44,1.44,0,0,1-.18-.73,2.87,2.87,0,0,1,0-.39,3.92,3.92,0,0,1,.1-.46,6.59,6.59,0,0,1,2.67-3.87,2,2,0,0,1,.79-.35,3.44,3.44,0,0,1,.78-.08,2.62,2.62,0,0,1,.38,0l.38,0,.28,0h.23a1,1,0,0,1,.37.06.6.6,0,0,1,.24.16.58.58,0,0,1,.13.23,1,1,0,0,1,0,.63l-.12.36-1,3.91c0,.21,0,.41,0,.59a3.56,3.56,0,0,1-.09.49,1.62,1.62,0,0,0-.06.17.52.52,0,0,1-.11.19.55.55,0,0,1-.18.16.52.52,0,0,1-.29.07,1.83,1.83,0,0,1-.37,0,.71.71,0,0,1-.21-.08.33.33,0,0,1-.1-.14A.9.9,0,0,1,212.9,36.75Zm-2.46-2.24c0,.07,0,.17-.07.3a2.34,2.34,0,0,0,0,.38,1,1,0,0,0,.06.36.25.25,0,0,0,.26.16,1.27,1.27,0,0,0,.58-.14,2.78,2.78,0,0,0,.51-.33,8.25,8.25,0,0,0,.65-.58A7.93,7.93,0,0,0,213,34a5.76,5.76,0,0,0,.52-.73,3.07,3.07,0,0,0,.33-.75A3,3,0,0,0,214,32a3.25,3.25,0,0,0,0-.51.43.43,0,0,0,0-.19.18.18,0,0,0-.17-.09,2.1,2.1,0,0,0-.73.14,3.05,3.05,0,0,0-.71.38,3.78,3.78,0,0,0-.65.56,4.69,4.69,0,0,0-.56.69,6.49,6.49,0,0,0-.44.76A4.08,4.08,0,0,0,210.44,34.51Z"/><path class="cls-5" d="M221.94,31a1.34,1.34,0,0,0-.56.13,3.77,3.77,0,0,0-.62.33c-.21.14-.43.29-.65.47s-.43.36-.65.54a3.56,3.56,0,0,1-.31.26,1.28,1.28,0,0,1-.29.17,3.16,3.16,0,0,0-.22.45c-.08.19-.16.39-.23.61s-.14.45-.21.68-.12.44-.17.64,0,.21-.06.3,0,.21-.05.32,0,.23-.07.36-.06.27-.1.43a.71.71,0,0,1-.12.23.7.7,0,0,1-.17.13.41.41,0,0,1-.17,0h-.13a.74.74,0,0,1-.46-.13.61.61,0,0,1-.18-.52c0-.07,0-.14,0-.22a1.38,1.38,0,0,1,.05-.25c.11-.47.21-.9.31-1.27s.21-.73.31-1,.21-.63.31-.91l.33-.86.35-.9c.12-.31.25-.65.39-1a.44.44,0,0,1,.23-.21,1,1,0,0,1,.41-.08.81.81,0,0,1,.46.12.43.43,0,0,1,.19.37l0,.08a.56.56,0,0,1,0,.12l-.33.77.65-.49a6.2,6.2,0,0,1,.69-.44,5.67,5.67,0,0,1,.72-.32,2.25,2.25,0,0,1,.71-.12,1.37,1.37,0,0,1,1.51,1.57,3.88,3.88,0,0,1-.16,1c-.1.39-.24.81-.4,1.26s-.33.92-.52,1.41-.35,1-.51,1.51c0,.13-.09.25-.14.35a.65.65,0,0,1-.17.22.61.61,0,0,1-.22.13,1.51,1.51,0,0,1-.32,0,.53.53,0,0,1-.4-.11.42.42,0,0,1-.11-.34,2.67,2.67,0,0,1,.06-.51,5.55,5.55,0,0,1,.18-.66c.08-.24.16-.5.27-.77s.21-.55.33-.83.18-.46.28-.68.17-.45.24-.66.13-.42.17-.61a2.11,2.11,0,0,0,.07-.54.74.74,0,0,0-.1-.4A.38.38,0,0,0,221.94,31Z"/><path class="cls-5" d="M225,34.52a5,5,0,0,1,.26-.8,5.26,5.26,0,0,1,.39-.79,5.1,5.1,0,0,1,.57-.77,5.84,5.84,0,0,1,.76-.72,7.17,7.17,0,0,1,.63-.45,6.29,6.29,0,0,1,.67-.37,4.72,4.72,0,0,1,.69-.24,2.33,2.33,0,0,1,.68-.1,2.63,2.63,0,0,1,.43,0,1.9,1.9,0,0,1,.36.12l.4-1.4c.22-.75.48-1.81.79-3.16a.86.86,0,0,1,.23-.33.52.52,0,0,1,.36-.14,1.43,1.43,0,0,1,.29,0,.77.77,0,0,1,.25.1.63.63,0,0,1,.18.21.88.88,0,0,1,.06.35l-1.49,6c0,.16-.08.39-.12.67s-.08.59-.12.91-.06.63-.08.93,0,.58,0,.8a3.84,3.84,0,0,1-.09.83,1.5,1.5,0,0,1-.1.3.46.46,0,0,1-.13.2.43.43,0,0,1-.2.11,1.3,1.3,0,0,1-.31,0,1,1,0,0,1-.33,0,.41.41,0,0,1-.18-.12.45.45,0,0,1-.07-.18c0-.07,0-.14,0-.22a1.85,1.85,0,0,0,0-.23.94.94,0,0,0-.06-.24l-.25.16-.31.19-.31.19-.2.12-.39.21-.46.2a4.44,4.44,0,0,1-.52.15,2.57,2.57,0,0,1-.55.06A2.06,2.06,0,0,1,226,37a1.68,1.68,0,0,1-.56-.34,1.67,1.67,0,0,1-.4-.59,2.07,2.07,0,0,1-.15-.82c0-.12,0-.23,0-.34A3.48,3.48,0,0,1,225,34.52Zm1.28-.06a2.18,2.18,0,0,0,0,.43,2.63,2.63,0,0,0,0,.41,1,1,0,0,0,.14.33.73.73,0,0,0,.27.22.89.89,0,0,0,.43.09,1.25,1.25,0,0,0,.32,0l.34-.13a3.07,3.07,0,0,0,.31-.17l.25-.15c.19-.12.36-.24.52-.36a3.31,3.31,0,0,0,.44-.39,1.92,1.92,0,0,0,.33-.46,2.43,2.43,0,0,0,.24-.59l.13-.54c0-.17.07-.33.1-.48s.06-.32.08-.48.05-.34.07-.54l-.09-.09a.5.5,0,0,0-.2,0,2.34,2.34,0,0,0-.65.1,4,4,0,0,0-.73.29,4.36,4.36,0,0,0-.73.45,4.78,4.78,0,0,0-.67.6,3.76,3.76,0,0,0-.54.72A3.16,3.16,0,0,0,226.26,34.46Z"/><path class="cls-5" d="M237,36.75a3.75,3.75,0,0,1,.05-.52,4,4,0,0,0,0-.74l-.54.42c-.2.16-.4.32-.61.47a4.76,4.76,0,0,1-.64.37,1.26,1.26,0,0,1-.59.15,1.42,1.42,0,0,1-.42-.06,1,1,0,0,1-.34-.18,2.28,2.28,0,0,1-.57-.62,1.44,1.44,0,0,1-.18-.73,2.87,2.87,0,0,1,0-.39,3.92,3.92,0,0,1,.1-.46,6.52,6.52,0,0,1,1-2.17,6.7,6.7,0,0,1,1.7-1.7,2,2,0,0,1,.79-.35,3.44,3.44,0,0,1,.78-.08,2.62,2.62,0,0,1,.38,0l.38,0,.28,0h.23a1,1,0,0,1,.37.06.6.6,0,0,1,.24.16.58.58,0,0,1,.13.23,1,1,0,0,1,0,.63l-.12.36-1,3.91c0,.21,0,.41,0,.59a3.56,3.56,0,0,1-.09.49,1.62,1.62,0,0,0-.06.17.52.52,0,0,1-.11.19.55.55,0,0,1-.18.16.52.52,0,0,1-.29.07,1.83,1.83,0,0,1-.37,0,.71.71,0,0,1-.21-.08.33.33,0,0,1-.1-.14A.9.9,0,0,1,237,36.75Zm-2.46-2.24a2.28,2.28,0,0,0-.07.3,2.34,2.34,0,0,0,0,.38,1,1,0,0,0,.06.36.24.24,0,0,0,.26.16,1.27,1.27,0,0,0,.58-.14,2.78,2.78,0,0,0,.51-.33,8.25,8.25,0,0,0,.65-.58,7.93,7.93,0,0,0,.62-.68,5.76,5.76,0,0,0,.52-.73,3.07,3.07,0,0,0,.33-.75A3,3,0,0,0,238,32a3.25,3.25,0,0,0,0-.51.43.43,0,0,0,0-.19.18.18,0,0,0-.17-.09,2.1,2.1,0,0,0-.73.14,3.05,3.05,0,0,0-.71.38,4.2,4.2,0,0,0-.65.56,4.69,4.69,0,0,0-.56.69,6.49,6.49,0,0,0-.44.76A4.08,4.08,0,0,0,234.51,34.51Z"/><path class="cls-5" d="M240.88,36.3c.07-.34.14-.72.23-1.14s.17-.84.26-1.26.17-.84.26-1.26.15-.78.21-1.13c0,0,0-.09,0-.12v-.13a3.67,3.67,0,0,1,0-.46,2.59,2.59,0,0,1,.09-.42.78.78,0,0,1,.18-.38.41.41,0,0,1,.32-.1.63.63,0,0,1,.35.08.64.64,0,0,1,.2.23,1,1,0,0,1,.1.32c0,.12,0,.25,0,.38a1.93,1.93,0,0,1,0,.23c0,.08,0,.15,0,.2.14-.15.29-.29.45-.44a3.13,3.13,0,0,1,.49-.41,3,3,0,0,1,.56-.3,1.58,1.58,0,0,1,.61-.12,1,1,0,0,1,.25,0,1.14,1.14,0,0,1,.25.06,2.22,2.22,0,0,1,.31.1,1.59,1.59,0,0,1,.31.17,1.7,1.7,0,0,1,.41.47,1.08,1.08,0,0,1,.17.57.79.79,0,0,1,0,.24,1,1,0,0,1-.12.23.52.52,0,0,1-.18.18.39.39,0,0,1-.23.07,1,1,0,0,1-.31-.06.87.87,0,0,1-.3-.17.65.65,0,0,1-.11-.12l-.11-.17a1.09,1.09,0,0,1-.08-.15s0-.08-.07-.09h-.16a1.45,1.45,0,0,0-.72.2,3.19,3.19,0,0,0-.64.47,4.29,4.29,0,0,0-.54.59c-.17.21-.31.4-.44.57-.1.4-.21.83-.33,1.28s-.24.93-.36,1.42v.19c0,.15,0,.3,0,.45a1.24,1.24,0,0,1-.09.41.75.75,0,0,1-.59.27A.55.55,0,0,1,241,37a.76.76,0,0,1-.15-.48A1.22,1.22,0,0,1,240.88,36.3Z"/><path class="cls-5" d="M247.2,35.71c.07-.29.16-.62.26-1s.22-.79.33-1.21.24-.86.36-1.31.22-.88.33-1.3a.29.29,0,0,1,.05-.1.55.55,0,0,1,.13-.14.53.53,0,0,1,.21-.12.65.65,0,0,1,.29-.05l.25,0a1,1,0,0,1,.21.08.5.5,0,0,1,.15.14.38.38,0,0,1,0,.19V31l-.21.79c-.24.88-.47,1.76-.71,2.65s-.48,1.77-.7,2.66l0,.12a.66.66,0,0,1-.08.13.47.47,0,0,1-.13.11.31.31,0,0,1-.17,0,.78.78,0,0,1-.35-.07,1,1,0,0,1-.25-.2A.76.76,0,0,1,247,37a.66.66,0,0,1-.06-.27v-.06a.19.19,0,0,1,0-.07ZM249.13,28a2.29,2.29,0,0,1,.14-.38.91.91,0,0,1,.34-.4,1.32,1.32,0,0,1,.29-.13,1.13,1.13,0,0,1,.24-.05.23.23,0,0,1,.15.05.53.53,0,0,1,.14.11.79.79,0,0,1,.14.17.23.23,0,0,1,.24.13.61.61,0,0,1,.06.28,1.5,1.5,0,0,1,0,.22c0,.06,0,.11,0,.15a.72.72,0,0,1-.17.29,1.3,1.3,0,0,1-.29.22,1.43,1.43,0,0,1-.34.14,1,1,0,0,1-.31.06.51.51,0,0,1-.27-.06,1,1,0,0,1-.23-.26.31.31,0,0,1-.09-.17.52.52,0,0,1,0-.11.59.59,0,0,1,0-.14A.5.5,0,0,1,249.13,28Z"/><path class="cls-5" d="M256.33,31a1.34,1.34,0,0,0-.56.13,3.77,3.77,0,0,0-.62.33c-.21.14-.43.29-.65.47s-.43.36-.65.54a3.56,3.56,0,0,1-.31.26,1.28,1.28,0,0,1-.29.17,3.16,3.16,0,0,0-.22.45c-.08.19-.16.39-.23.61l-.21.68c-.07.23-.12.44-.17.64l-.06.3c0,.1,0,.21-.05.32s0,.23-.07.36-.06.27-.1.43a.46.46,0,0,1-.12.23.7.7,0,0,1-.17.13.41.41,0,0,1-.17,0h-.13a.74.74,0,0,1-.46-.13.61.61,0,0,1-.18-.52c0-.07,0-.14,0-.22A1.38,1.38,0,0,1,251,36c.11-.47.21-.9.31-1.27s.21-.73.31-1,.21-.63.32-.91.21-.57.32-.86l.35-.9c.12-.31.25-.65.39-1a.43.43,0,0,1,.24-.21.9.9,0,0,1,.4-.08.81.81,0,0,1,.46.12.42.42,0,0,1,.18.37.32.32,0,0,1,0,.08.56.56,0,0,1,0,.12l-.33.77.65-.49a7.28,7.28,0,0,1,.69-.44,5.67,5.67,0,0,1,.72-.32,2.25,2.25,0,0,1,.71-.12,1.37,1.37,0,0,1,1.51,1.57,3.88,3.88,0,0,1-.16,1c-.1.39-.24.81-.4,1.26s-.33.92-.52,1.41-.35,1-.51,1.51c-.05.13-.09.25-.14.35a.65.65,0,0,1-.17.22.61.61,0,0,1-.22.13,1.51,1.51,0,0,1-.32,0,.53.53,0,0,1-.4-.11.46.46,0,0,1-.11-.34,2.67,2.67,0,0,1,.06-.51,5.55,5.55,0,0,1,.18-.66c.08-.24.17-.5.27-.77s.21-.55.33-.83.18-.46.28-.68.17-.45.24-.66.13-.42.18-.61a2.62,2.62,0,0,0,.06-.54.74.74,0,0,0-.1-.4A.39.39,0,0,0,256.33,31Z"/></g></g></svg>