<svg xmlns="http://www.w3.org/2000/svg" xmlns:xlink="http://www.w3.org/1999/xlink" viewBox="0 0 186.81 89.79"><defs><style>.cls-1{fill:#f8bc00;}.cls-2{fill:#fcd776;}.cls-3{fill:#fde5a7;}.cls-4{fill:#fff3d6;}.cls-5{fill:#eb5e00;}.cls-6{fill:url(#新增漸層色票_1);}.cls-7{fill:url(#新增漸層色票_1-2);}.cls-8{fill:url(#新增漸層色票_1-3);}</style><radialGradient id="新增漸層色票_1" cx="84.28" cy="-11.77" r="65.27" gradientUnits="userSpaceOnUse"><stop offset="0" stop-color="#00afec"/><stop offset="1" stop-color="#00428d"/></radialGradient><radialGradient id="新增漸層色票_1-2" cx="84.39" cy="-12.29" r="65.81" xlink:href="#新增漸層色票_1"/><radialGradient id="新增漸層色票_1-3" cx="84.28" cy="-11.78" r="65.27" xlink:href="#新增漸層色票_1"/></defs><g id="圖層_2" data-name="圖層 2"><g id="圖層_1-2" data-name="圖層 1"><path class="cls-1" d="M84.83,32.87a44.34,44.34,0,0,1,7.82-1.46V8.27a27.1,27.1,0,0,0-7.82-1.45Z"/><path class="cls-2" d="M95.51,31.22a47.34,47.34,0,0,1,8,.42V14.17a41.61,41.61,0,0,0-8-4.78Z"/><path class="cls-3" d="M106.46,32.13a52.1,52.1,0,0,1,8.06,2.31V24.59a72.73,72.73,0,0,0-8.06-8.11Z"/><path class="cls-4" d="M117.37,28.1v7.5a58.75,58.75,0,0,1,7.83,4.19v-.24A119.36,119.36,0,0,0,117.37,28.1Z"/><path class="cls-5" d="M109.85,41.48c-13.7,5.36-28.7,13.11-41,23.28C85.43,51.9,106.91,43.87,123.5,40.65c-5.23-2-10.94-4.65-16.83-5.07C107.73,37,108.79,39.91,109.85,41.48Z"/><path class="cls-6" d="M77,24.1V2a17.26,17.26,0,0,0-15.3-.35v24A23.3,23.3,0,0,1,77,24.1Z"/><path class="cls-7" d="M81.07,51.36l0,.06S81.09,51.38,81.07,51.36Z"/><path class="cls-8" d="M82,33.93V5.74a22.15,22.15,0,0,0-3.88-2.92v23A23.24,23.24,0,0,0,60,27.57V2.72A21.5,21.5,0,0,0,56.74,5V33.82a22.85,22.85,0,0,1,5.12-2.49c-.26,2.59-2,16.72-4.72,19.12A10.16,10.16,0,0,1,62.73,53a19.17,19.17,0,0,1,6.13,10.2V51a3.07,3.07,0,1,1,1,0V63.57C72,55,80.59,51.09,81.07,51.36c-2.3-6-3.91-17-4.24-20A23,23,0,0,1,82,33.93Z"/><path class="cls-5" d="M.37,84.89c.26.09.53.2.8.32s.55.24.84.35a7.89,7.89,0,0,0,.9.28,4.67,4.67,0,0,0,1,.11,5.57,5.57,0,0,0,1.27-.15,5.74,5.74,0,0,0,1.24-.44,7,7,0,0,0,1.17-.7,6.28,6.28,0,0,0,1-1,12.7,12.7,0,0,0,.85-1c.23-.32.41-.6.55-.84a4,4,0,0,0,.31-.64,1.48,1.48,0,0,0,.09-.46.72.72,0,0,0-.2-.5,1.44,1.44,0,0,0-.52-.35,3.51,3.51,0,0,0-.73-.2,5.9,5.9,0,0,0-.86-.06l-.61,0-.72,0-.7,0h-.6a4.3,4.3,0,0,1-.78-.08,3.39,3.39,0,0,1-.79-.28,2.79,2.79,0,0,1-.72-.53A2.74,2.74,0,0,1,2.65,78c0-.1-.08-.23-.12-.37a1.78,1.78,0,0,1-.06-.47,4.22,4.22,0,0,1,0-.52c0-.16.06-.32.1-.47A4.12,4.12,0,0,1,3.14,75,8.28,8.28,0,0,1,4,73.83a13,13,0,0,1,1.13-1.08,14.55,14.55,0,0,1,1.25-1c.43-.31.85-.59,1.27-.84s.79-.45,1.15-.63a6.69,6.69,0,0,1,1.54-.53,7.32,7.32,0,0,1,1.54-.16,3.15,3.15,0,0,1,.87.12,2.17,2.17,0,0,1,.72.34,1.59,1.59,0,0,1,.49.57,1.49,1.49,0,0,1,.19.77,1.33,1.33,0,0,1-.06.42.92.92,0,0,1-.15.28.55.55,0,0,1-.2.15.54.54,0,0,1-.22,0,2,2,0,0,1-.56-.07l-.5-.16c-.16,0-.32-.11-.48-.15a1.72,1.72,0,0,0-.52-.08,4.66,4.66,0,0,0-1.72.34,10,10,0,0,0-1.7.85A12.62,12.62,0,0,0,6.51,74.2c-.49.43-.93.84-1.31,1.24a2.09,2.09,0,0,0-.45.64,1.4,1.4,0,0,0-.15.6.76.76,0,0,0,.37.67,1.57,1.57,0,0,0,.89.23h.69l.79,0,.79,0,.68,0a4.76,4.76,0,0,1,1.36.2,3.79,3.79,0,0,1,1.15.59,3,3,0,0,1,.8,1,2.85,2.85,0,0,1,.3,1.32,3.3,3.3,0,0,1-.13.92,5.78,5.78,0,0,1-.38.94,8.21,8.21,0,0,1-.55.94c-.2.31-.42.61-.65.9a12.21,12.21,0,0,1-1.37,1.51A10.41,10.41,0,0,1,7.73,87a8.22,8.22,0,0,1-1.81.83,6.18,6.18,0,0,1-2,.31,5.43,5.43,0,0,1-.88-.08,4.59,4.59,0,0,1-.9-.24,4.58,4.58,0,0,1-.84-.38,3.71,3.71,0,0,1-.69-.53,2.28,2.28,0,0,1-.47-.66A1.72,1.72,0,0,1,0,85.47a1.23,1.23,0,0,1,.06-.39A.29.29,0,0,1,.37,84.89Z"/><path class="cls-5" d="M13.55,85.87c.15-.58.29-1.12.43-1.62l.4-1.44c.13-.46.26-.9.39-1.33s.24-.87.35-1.32a2.26,2.26,0,0,0,.08-.5,3,3,0,0,1,.07-.5.42.42,0,0,1,.11-.16,1,1,0,0,1,.17-.12.76.76,0,0,1,.21-.08l.2,0a.92.92,0,0,1,.35,0,.54.54,0,0,1,.22.13.39.39,0,0,1,.12.19,1,1,0,0,1,0,.26,1.81,1.81,0,0,1-.08.51c-.06.17-.12.35-.2.56.23-.18.47-.36.72-.52a5.59,5.59,0,0,1,.75-.43,4.84,4.84,0,0,1,.8-.3,3.35,3.35,0,0,1,.85-.11,1.39,1.39,0,0,1,.4.06,1.07,1.07,0,0,1,.36.2,1.25,1.25,0,0,1,.27.35,1.33,1.33,0,0,1,.12.52l.66-.43a6,6,0,0,1,.69-.39,5.3,5.3,0,0,1,.71-.29,2.35,2.35,0,0,1,.69-.1,2.17,2.17,0,0,1,.82.13A1.22,1.22,0,0,1,25,80a2.11,2.11,0,0,1,.08.62,4.81,4.81,0,0,1-.06.74q-.08.38-.15.72c-.15.57-.31,1.11-.49,1.63s-.37,1-.57,1.55c-.05.12-.11.26-.16.4a2.69,2.69,0,0,1-.19.38,1.41,1.41,0,0,1-.25.29.58.58,0,0,1-.34.11.9.9,0,0,1-.6-.15.52.52,0,0,1-.16-.42v-.17a1.06,1.06,0,0,1,0-.19,1.93,1.93,0,0,1,.13-.32c.07-.14.15-.29.23-.46l.24-.49a4.08,4.08,0,0,0,.18-.43c.06-.22.14-.46.23-.74s.17-.56.25-.85.14-.55.19-.81a3.38,3.38,0,0,0,.08-.62,1.64,1.64,0,0,0,0-.22.54.54,0,0,0-.08-.19.44.44,0,0,0-.16-.14.58.58,0,0,0-.25,0,1.32,1.32,0,0,0-.53.13,3.55,3.55,0,0,0-.64.33,4.7,4.7,0,0,0-.64.46,4.46,4.46,0,0,0-.54.51,2.69,2.69,0,0,1-.3.29,1.17,1.17,0,0,1-.28.17l-.07.19-.14.4c-.06.16-.11.33-.17.51l-.17.5c-.05.16-.1.29-.13.4a.67.67,0,0,0-.05.17,3,3,0,0,0-.09.43c0,.14-.05.28-.07.42s0,.27-.05.43a1.85,1.85,0,0,1-.11.42.7.7,0,0,1-.24.32.65.65,0,0,1-.45.13.56.56,0,0,1-.27-.08.76.76,0,0,1-.21-.19.92.92,0,0,1-.14-.26,1.36,1.36,0,0,1-.06-.29c.12-.45.23-.85.34-1.2s.21-.7.32-1,.22-.65.32-1,.2-.69.3-1.09l.06-.28a2.32,2.32,0,0,0,0-.24.52.52,0,0,0-.07-.29.29.29,0,0,0-.26-.12,1.46,1.46,0,0,0-.61.13,3,3,0,0,0-.65.38,7.86,7.86,0,0,0-.77.66q-.43.41-1,1a2.34,2.34,0,0,0-.15.41c-.07.21-.13.42-.2.65s-.13.44-.18.63-.09.33-.11.39c0,.21-.09.39-.11.53s0,.27-.05.38,0,.16,0,.29a2.17,2.17,0,0,1-.11.42,1.2,1.2,0,0,1-.22.36.47.47,0,0,1-.37.16.84.84,0,0,1-.56-.18.59.59,0,0,1-.22-.47.31.31,0,0,1,0-.1A.29.29,0,0,1,13.55,85.87Z"/><path class="cls-5" d="M30.21,86a3.61,3.61,0,0,1,.05-.52,5.11,5.11,0,0,0,0-.75c-.16.12-.34.26-.54.43s-.4.32-.62.47a5.16,5.16,0,0,1-.63.37,1.39,1.39,0,0,1-.59.15,1.23,1.23,0,0,1-.77-.24,2.12,2.12,0,0,1-.56-.63,1.4,1.4,0,0,1-.18-.72,1.72,1.72,0,0,1,0-.39,3.53,3.53,0,0,1,.1-.46,6.41,6.41,0,0,1,1-2.17,6.62,6.62,0,0,1,1.71-1.71,2,2,0,0,1,.79-.35,4.11,4.11,0,0,1,.77-.08l.39,0,.38.05a2.11,2.11,0,0,1,.28-.05l.22,0a1,1,0,0,1,.38.06.67.67,0,0,1,.23.16.59.59,0,0,1,.13.23.84.84,0,0,1,0,.27,1.15,1.15,0,0,1-.06.37,3.58,3.58,0,0,1-.11.35l-1,3.92c0,.21,0,.41-.06.58a1.93,1.93,0,0,1-.09.5l-.05.17a.52.52,0,0,1-.11.19.69.69,0,0,1-.18.16.54.54,0,0,1-.29.07,1.77,1.77,0,0,1-.37,0,.51.51,0,0,1-.21-.09.31.31,0,0,1-.1-.13A.9.9,0,0,1,30.21,86ZM27.74,83.8a2,2,0,0,0-.06.29,2.56,2.56,0,0,0,0,.39,1,1,0,0,0,.06.36A.25.25,0,0,0,28,85a1.3,1.3,0,0,0,.58-.14,2.78,2.78,0,0,0,.51-.33c.21-.17.43-.37.65-.58s.43-.45.62-.68a5.76,5.76,0,0,0,.52-.73,3.07,3.07,0,0,0,.33-.75,4.4,4.4,0,0,0,.1-.5,3.13,3.13,0,0,0,0-.5.41.41,0,0,0,0-.19.18.18,0,0,0-.17-.09,1.86,1.86,0,0,0-.73.14,2.86,2.86,0,0,0-.71.38,3.39,3.39,0,0,0-.65.56,4.12,4.12,0,0,0-.56.69A4.74,4.74,0,0,0,28,83,5.14,5.14,0,0,0,27.74,83.8Z"/><path class="cls-5" d="M34.12,85.59c.07-.35.14-.73.22-1.14s.17-.84.26-1.26.18-.85.26-1.26.16-.79.22-1.13a.62.62,0,0,1,0-.13v-.12a3.55,3.55,0,0,1,0-.46c0-.15,0-.29.08-.42a1,1,0,0,1,.19-.39.45.45,0,0,1,.32-.1.57.57,0,0,1,.34.09.63.63,0,0,1,.21.22.9.9,0,0,1,.09.33,2.22,2.22,0,0,1,0,.37c0,.07,0,.15,0,.23a1.64,1.64,0,0,0,0,.2l.44-.44a3.89,3.89,0,0,1,.5-.41,3,3,0,0,1,.56-.3,1.58,1.58,0,0,1,.61-.12,1.07,1.07,0,0,1,.25,0l.25.06a1.39,1.39,0,0,1,.31.1,1.52,1.52,0,0,1,.3.17,1.69,1.69,0,0,1,.42.46,1.12,1.12,0,0,1,.16.57.67.67,0,0,1,0,.24.9.9,0,0,1-.12.24,1.07,1.07,0,0,1-.19.18.37.37,0,0,1-.23.07,1,1,0,0,1-.3-.06.72.72,0,0,1-.3-.17.36.36,0,0,1-.11-.13.91.91,0,0,1-.11-.16l-.09-.15a.17.17,0,0,0-.06-.09l-.08,0h-.08a1.52,1.52,0,0,0-.72.19,3.24,3.24,0,0,0-.64.48,5.12,5.12,0,0,0-.55.59c-.16.21-.31.4-.43.57-.1.4-.21.83-.33,1.28s-.24.92-.36,1.42v.18c0,.15,0,.31,0,.46a1.3,1.3,0,0,1-.09.41.75.75,0,0,1-.23.19.78.78,0,0,1-.35.07.56.56,0,0,1-.47-.2.81.81,0,0,1-.16-.48A1.27,1.27,0,0,1,34.12,85.59Z"/><path class="cls-5" d="M41.51,84.05a6.62,6.62,0,0,1,.14-1.3q.14-.68.3-1.29a1.44,1.44,0,0,1-.4-.06,1.42,1.42,0,0,1-.36-.14.84.84,0,0,1-.27-.22.44.44,0,0,1-.1-.3.67.67,0,0,1,0-.17,1.19,1.19,0,0,1,.08-.2.5.5,0,0,1,.15-.17.29.29,0,0,1,.2-.07h1a.2.2,0,0,0,.2-.13,2.25,2.25,0,0,0,.08-.24c.06-.29.12-.53.18-.74s.1-.39.14-.54.08-.26.1-.35a1.22,1.22,0,0,0,0-.22,1.15,1.15,0,0,0,0-.19V77.4a.86.86,0,0,1,0-.15,1,1,0,0,1,.07-.28.77.77,0,0,1,.16-.27.48.48,0,0,1,.35-.12.71.71,0,0,1,.34.08.61.61,0,0,1,.23.22.83.83,0,0,1,.14.3,2,2,0,0,1,0,.34,1.11,1.11,0,0,1,0,.33l-.54,2.08.71-.12.63-.12.59-.13.42-.1.31-.07.2,0,.24,0a.79.79,0,0,1,.22.06.37.37,0,0,1,.15.13.33.33,0,0,1,.06.21.79.79,0,0,1-.07.32.88.88,0,0,1-.19.24.89.89,0,0,1-.25.16,1.52,1.52,0,0,1-.28.09l-.31.07-.41.1-.48.11-.47.11-.58.15-.41.09-.28,0h-.18c-.09.28-.17.56-.24.83s-.13.53-.18.76-.08.45-.1.64a4.22,4.22,0,0,0,0,.43,2.34,2.34,0,0,0,0,.38,1,1,0,0,0,.13.32.61.61,0,0,0,.24.21.86.86,0,0,0,.38.08,1.48,1.48,0,0,0,.77-.22,3.36,3.36,0,0,0,.73-.54,6.51,6.51,0,0,0,.65-.73q.31-.39.57-.75a.27.27,0,0,1,.23-.13h.11l.12,0a.47.47,0,0,1,.1.1.23.23,0,0,1,0,.14.22.22,0,0,1,0,.09,4.46,4.46,0,0,1-.36.93l-.51.93a1.67,1.67,0,0,1-.24.32c-.09.1-.2.2-.31.3a3.07,3.07,0,0,1-.36.27l-.35.24a1.69,1.69,0,0,1-.61.24,3,3,0,0,1-.65.07,2,2,0,0,1-.86-.18,1.74,1.74,0,0,1-.63-.47,2.18,2.18,0,0,1-.39-.7A2.71,2.71,0,0,1,41.51,84.05Z"/><path class="cls-5" d="M50.34,82.42A21.92,21.92,0,0,1,51,80.25c.27-.75.55-1.52.85-2.3s.58-1.58.87-2.39a24.82,24.82,0,0,0,.74-2.42c.06-.2.1-.38.14-.55s.08-.34.11-.53a1.14,1.14,0,0,1,.37-.46.88.88,0,0,1,.51-.16,1.4,1.4,0,0,1,.47.08.93.93,0,0,1,.39.26,1.16,1.16,0,0,1,.26.45,1.81,1.81,0,0,1,.1.65,4.23,4.23,0,0,1-.12.93c-.3.76-.6,1.51-.9,2.24s-.6,1.44-.89,2.14-.55,1.39-.79,2.07-.45,1.36-.63,2c0,.06,0,.17-.09.35s-.09.39-.14.64-.09.52-.13.81a5.87,5.87,0,0,0-.06.82,2.82,2.82,0,0,0,0,.52,1.58,1.58,0,0,0,.11.43.57.57,0,0,0,.22.28.53.53,0,0,0,.34.11,2,2,0,0,0,1.06-.45,9.06,9.06,0,0,0,1.35-1.23,19.77,19.77,0,0,0,1.5-1.81q.78-1,1.5-2.22c.49-.79.94-1.61,1.36-2.44a22.38,22.38,0,0,0,1.06-2.47.5.5,0,0,1,.25-.28.88.88,0,0,1,.39-.07,1.07,1.07,0,0,1,.74.27.9.9,0,0,1,.31.69.58.58,0,0,1,0,.19,1.36,1.36,0,0,1-.07.22l-.16.47c-.12.35-.23.68-.34,1s-.2.59-.27.85-.18.73-.24,1-.11.61-.14.88a7.78,7.78,0,0,0-.07.82c0,.26,0,.53,0,.81,0,.11,0,.26,0,.46s.05.44.09.68a5.37,5.37,0,0,0,.15.76,4.78,4.78,0,0,0,.23.7,2,2,0,0,0,.3.52.54.54,0,0,0,.41.19,1.32,1.32,0,0,0,.75-.28,5,5,0,0,0,.79-.8,12.89,12.89,0,0,0,.8-1.19c.27-.46.53-1,.79-1.47s.5-1.07.73-1.63.44-1.12.64-1.67.36-1.09.51-1.6.27-1,.36-1.41.15-.79.21-1.17.13-.76.19-1.14.12-.76.19-1.15.17-.77.27-1.18a3,3,0,0,1,.17-.44,2.36,2.36,0,0,1,.28-.42A2.11,2.11,0,0,1,69.2,70a.73.73,0,0,1,.4-.11.77.77,0,0,1,.7.28,1.74,1.74,0,0,1,.18.92,8.21,8.21,0,0,1-.09,1.12c0,.43-.13.87-.21,1.34s-.19.94-.29,1.42-.22.93-.32,1.36A25.79,25.79,0,0,1,68.72,79c-.35.93-.74,1.84-1.16,2.73s-.89,1.71-1.37,2.5a15,15,0,0,1-1.46,2,5.53,5.53,0,0,1-.59.61,6.72,6.72,0,0,1-.73.56,6.06,6.06,0,0,1-.8.41,2.07,2.07,0,0,1-.78.17,2,2,0,0,1-1.32-.46,3.43,3.43,0,0,1-.86-1.23,7.75,7.75,0,0,1-.52-1.76c-.11-.66-.2-1.33-.25-2q-.65.95-1.17,1.68a15.56,15.56,0,0,1-1.08,1.37c-.27.31-.58.65-.92,1a11.43,11.43,0,0,1-1.09,1,6.37,6.37,0,0,1-1.18.76,2.54,2.54,0,0,1-1.18.31,2.39,2.39,0,0,1-1.13-.24,1.86,1.86,0,0,1-.72-.64,2.82,2.82,0,0,1-.39-1,5.7,5.7,0,0,1-.12-1.21A10.52,10.52,0,0,1,50,84C50.11,83.48,50.21,83,50.34,82.42Z"/><path class="cls-5" d="M69.07,85.59c.06-.35.14-.73.22-1.14s.17-.84.26-1.26.18-.85.26-1.26.16-.79.22-1.13a.62.62,0,0,1,0-.13v-.12a3.55,3.55,0,0,1,0-.46c0-.15,0-.29.08-.42a1.19,1.19,0,0,1,.18-.39.5.5,0,0,1,.33-.1.59.59,0,0,1,.34.09.63.63,0,0,1,.21.22,1.15,1.15,0,0,1,.09.33,2.23,2.23,0,0,1,0,.37v.23a1.64,1.64,0,0,0,0,.2c.14-.14.28-.29.44-.44a3.89,3.89,0,0,1,.5-.41,2.94,2.94,0,0,1,.55-.3,1.63,1.63,0,0,1,.62-.12l.25,0a1.05,1.05,0,0,1,.24.06,1.24,1.24,0,0,1,.31.1,1.34,1.34,0,0,1,.31.17,1.65,1.65,0,0,1,.41.46,1.14,1.14,0,0,1,.17.57.67.67,0,0,1,0,.24.92.92,0,0,1-.13.24.77.77,0,0,1-.18.18.39.39,0,0,1-.23.07,1,1,0,0,1-.31-.06.87.87,0,0,1-.3-.17.81.81,0,0,1-.11-.13s-.07-.1-.1-.16l-.09-.15-.06-.09-.08,0h-.09a1.55,1.55,0,0,0-.72.19,3.18,3.18,0,0,0-.63.48,5.12,5.12,0,0,0-.55.59c-.17.21-.31.4-.43.57-.1.4-.21.83-.33,1.28s-.25.92-.36,1.42v.18c0,.15,0,.31,0,.46a1.3,1.3,0,0,1-.09.41.75.75,0,0,1-.23.19.78.78,0,0,1-.35.07.56.56,0,0,1-.47-.2.75.75,0,0,1-.16-.48A.82.82,0,0,1,69.07,85.59Z"/><path class="cls-5" d="M75.38,85c.07-.29.16-.62.27-1s.21-.78.33-1.21.23-.86.35-1.3.23-.88.33-1.3l.06-.1a.53.53,0,0,1,.12-.14,1.07,1.07,0,0,1,.21-.13.85.85,0,0,1,.3,0,1,1,0,0,1,.24,0,.66.66,0,0,1,.21.08A.32.32,0,0,1,78,80a.36.36,0,0,1,.06.2v0s0,0,0,0l-.21.78c-.23.88-.47,1.77-.71,2.65s-.47,1.78-.7,2.67a.76.76,0,0,1,0,.11.57.57,0,0,1-.08.13.49.49,0,0,1-.13.12.34.34,0,0,1-.18,0,.63.63,0,0,1-.34-.08.79.79,0,0,1-.25-.19,1,1,0,0,1-.16-.26,1,1,0,0,1,0-.27v-.07a.13.13,0,0,1,0-.06Zm1.94-7.69a2.45,2.45,0,0,1,.13-.38,1.14,1.14,0,0,1,.34-.4l.29-.12a.81.81,0,0,1,.25,0,.23.23,0,0,1,.15,0l.14.11.14.16a.29.29,0,0,1,.24.13.65.65,0,0,1,0,.29.68.68,0,0,1,0,.21c0,.07,0,.12,0,.16a.61.61,0,0,1-.18.28,1.23,1.23,0,0,1-.28.23,1.51,1.51,0,0,1-.35.14.91.91,0,0,1-.31,0,.6.6,0,0,1-.26,0,1.63,1.63,0,0,1-.24-.26.56.56,0,0,1-.09-.17.49.49,0,0,1,0-.11.61.61,0,0,1,0-.14Z"/><path class="cls-5" d="M80.3,84.05a6.62,6.62,0,0,1,.14-1.3q.15-.68.3-1.29a1.32,1.32,0,0,1-.39-.06,1.35,1.35,0,0,1-.37-.14.8.8,0,0,1-.26-.22.44.44,0,0,1-.11-.3.67.67,0,0,1,0-.17.72.72,0,0,1,.09-.2.39.39,0,0,1,.14-.17.31.31,0,0,1,.2-.07h1a.18.18,0,0,0,.19-.13,2.25,2.25,0,0,0,.08-.24l.18-.74.15-.54c0-.14.07-.26.09-.35a1.22,1.22,0,0,0,0-.22v-.19a1.63,1.63,0,0,1,0-.24V77.4a.86.86,0,0,1,0-.15,1.6,1.6,0,0,1,.07-.28A1,1,0,0,1,82,76.7a.48.48,0,0,1,.35-.12.68.68,0,0,1,.34.08.64.64,0,0,1,.24.22,1,1,0,0,1,.13.3,1.32,1.32,0,0,1,0,.34,1.61,1.61,0,0,1,0,.33l-.55,2.08.72-.12.62-.12.59-.13.43-.1.3-.07.2,0,.24,0a.64.64,0,0,1,.22.06.37.37,0,0,1,.15.13.33.33,0,0,1,.06.21.66.66,0,0,1-.07.32.84.84,0,0,1-.43.4,1.61,1.61,0,0,1-.29.09l-.3.07-.42.1-.47.11-.48.11-.58.15-.41.09-.28,0h-.17c-.1.28-.18.56-.25.83s-.13.53-.17.76-.09.45-.11.64a4.22,4.22,0,0,0,0,.43,1.58,1.58,0,0,0,0,.38.82.82,0,0,0,.12.32.61.61,0,0,0,.24.21.87.87,0,0,0,.39.08,1.48,1.48,0,0,0,.77-.22,3.56,3.56,0,0,0,.72-.54,6.51,6.51,0,0,0,.65-.73q.31-.39.57-.75a.27.27,0,0,1,.23-.13h.11l.12,0a.32.32,0,0,1,.1.1.23.23,0,0,1,0,.14V83a4,4,0,0,1-.37.93l-.51.93a2.13,2.13,0,0,1-.23.32c-.1.1-.2.2-.32.3a2.42,2.42,0,0,1-.36.27l-.34.24a1.74,1.74,0,0,1-.62.24,2.94,2.94,0,0,1-.65.07,1.93,1.93,0,0,1-.85-.18,1.74,1.74,0,0,1-.63-.47,1.86,1.86,0,0,1-.39-.7A2.72,2.72,0,0,1,80.3,84.05Z"/><path class="cls-5" d="M87.25,85c.08-.29.17-.62.27-1s.21-.78.33-1.21.23-.86.35-1.3l.34-1.3a.29.29,0,0,1,0-.1.53.53,0,0,1,.12-.14,1.07,1.07,0,0,1,.21-.13.94.94,0,0,1,.3,0,1,1,0,0,1,.24,0,.83.83,0,0,1,.22.08.35.35,0,0,1,.14.13.36.36,0,0,1,.06.2v0a.09.09,0,0,1,0,0l-.2.78c-.24.88-.47,1.77-.71,2.65s-.48,1.78-.71,2.67a.76.76,0,0,1,0,.11.57.57,0,0,1-.08.13.49.49,0,0,1-.13.12.34.34,0,0,1-.18,0,.63.63,0,0,1-.34-.08.79.79,0,0,1-.25-.19,1,1,0,0,1-.16-.26A1,1,0,0,1,87,86v-.07a.14.14,0,0,1,0-.06Zm1.94-7.69a2.45,2.45,0,0,1,.13-.38,1.08,1.08,0,0,1,.35-.4,2,2,0,0,1,.28-.12.81.81,0,0,1,.25,0,.23.23,0,0,1,.15,0l.14.11.14.16a.29.29,0,0,1,.24.13.65.65,0,0,1,.06.29.66.66,0,0,1,0,.21,1.57,1.57,0,0,1,0,.16.68.68,0,0,1-.17.28,1.28,1.28,0,0,1-.29.23,1.63,1.63,0,0,1-.34.14,1,1,0,0,1-.32,0,.6.6,0,0,1-.26,0,1.28,1.28,0,0,1-.23-.26.45.45,0,0,1-.1-.17s0-.08,0-.11,0-.1,0-.14Z"/><path class="cls-5" d="M96.38,80.26a1.44,1.44,0,0,0-.55.12,3.41,3.41,0,0,0-.62.33c-.21.14-.43.3-.65.47s-.44.36-.65.55L93.6,82a1.52,1.52,0,0,1-.3.17,3.16,3.16,0,0,0-.22.45c-.07.19-.15.39-.22.61s-.15.44-.21.67-.13.45-.17.65a1.59,1.59,0,0,0-.06.3c0,.1,0,.21,0,.32s-.05.23-.07.36-.06.27-.1.43a.57.57,0,0,1-.12.22.64.64,0,0,1-.17.13l-.17.06h-.13a.74.74,0,0,1-.46-.13.63.63,0,0,1-.18-.52,1.62,1.62,0,0,1,0-.22,1.38,1.38,0,0,1,0-.26c.11-.47.22-.89.32-1.27s.2-.72.31-1,.21-.63.31-.91l.33-.87.35-.89.39-1a.35.35,0,0,1,.23-.21,1,1,0,0,1,.41-.09.76.76,0,0,1,.46.13.4.4,0,0,1,.18.36.28.28,0,0,1,0,.08,1.12,1.12,0,0,1,0,.13l-.32.77c.2-.16.42-.33.65-.49a6.2,6.2,0,0,1,.69-.44,4.54,4.54,0,0,1,.72-.32A2.21,2.21,0,0,1,96.7,79a1.53,1.53,0,0,1,1.11.38,1.55,1.55,0,0,1,.4,1.18,3.89,3.89,0,0,1-.16,1c-.11.39-.24.81-.4,1.26s-.33.92-.52,1.41-.36,1-.52,1.5a2.65,2.65,0,0,1-.13.35.86.86,0,0,1-.17.23.46.46,0,0,1-.23.12.93.93,0,0,1-.31,0,.56.56,0,0,1-.4-.11.44.44,0,0,1-.12-.34,2.79,2.79,0,0,1,.07-.51,5.55,5.55,0,0,1,.18-.66c.07-.24.16-.5.26-.77s.21-.55.33-.83.19-.46.28-.69.18-.44.25-.66a5.1,5.1,0,0,0,.17-.61,2.09,2.09,0,0,0,.07-.53.8.8,0,0,0-.1-.41A.41.41,0,0,0,96.38,80.26Z"/><path class="cls-5" d="M99.92,89.79l-.13,0-.14-.08a.71.71,0,0,1-.1-.14.46.46,0,0,1,0-.21,1.11,1.11,0,0,1,0-.17,3.79,3.79,0,0,1,.13-.4.67.67,0,0,1,.19-.25,1.2,1.2,0,0,1,.34-.18l.57-.14.42-.1a1.06,1.06,0,0,0,.32-.14,4.49,4.49,0,0,0,1.09-1.43,5.24,5.24,0,0,0,.3-.78l.24-.82c0-.09,0-.19.08-.29s0-.22.08-.35c-.19.17-.38.33-.59.49a5,5,0,0,1-.62.44,3.56,3.56,0,0,1-.65.32,1.92,1.92,0,0,1-.66.12,1,1,0,0,1-.43-.12,2.19,2.19,0,0,1-.46-.31,2,2,0,0,1-.36-.45,1,1,0,0,1-.15-.54,1.28,1.28,0,0,1,0-.38c0-.14,0-.27.08-.38a4.37,4.37,0,0,1,.35-1,6.52,6.52,0,0,1,.53-.87,7.18,7.18,0,0,1,.67-.79,8.4,8.4,0,0,1,.76-.7,3.46,3.46,0,0,1,1-.58,3,3,0,0,1,1-.17,3.17,3.17,0,0,1,.44,0,1.37,1.37,0,0,1,.4.09,1.41,1.41,0,0,1,.35.21,1.37,1.37,0,0,1,.3.36l0,.12a.57.57,0,0,1,0,.12s0,.14,0,.3,0,.35-.09.58l-.13.77c-.05.28-.11.57-.16.86s-.11.57-.16.85l-.16.76c-.09.39-.19.79-.32,1.21a9.51,9.51,0,0,1-.46,1.22,8.23,8.23,0,0,1-.63,1.12,4.39,4.39,0,0,1-.85.92,3.58,3.58,0,0,1-1.09.63A3.68,3.68,0,0,1,99.92,89.79Zm.74-6.15c0,.06,0,.12,0,.18a1.1,1.1,0,0,0,0,.18.58.58,0,0,0,.06.28.21.21,0,0,0,.21.12,1.34,1.34,0,0,0,.58-.17,5,5,0,0,0,.66-.44c.22-.18.43-.38.63-.58a3.71,3.71,0,0,0,.46-.6c0-.07.11-.18.2-.32s.16-.29.24-.45a5.11,5.11,0,0,0,.22-.48,2.63,2.63,0,0,0,.12-.43.64.64,0,0,0,0-.24.89.89,0,0,1-.09-.3h-.07a.93.93,0,0,0-.41.12,4.57,4.57,0,0,0-.48.3,4.79,4.79,0,0,0-.52.42c-.17.15-.34.31-.49.47l-.42.47a3.21,3.21,0,0,0-.29.4c-.11.16-.2.33-.29.49A2.81,2.81,0,0,0,100.66,83.64Z"/><path class="cls-5" d="M115.27,79c.51,0,.77.28.77.84a1.61,1.61,0,0,1-.27,1,.86.86,0,0,1-.73.36,44.7,44.7,0,0,0-4.72.22,11.69,11.69,0,0,1-1.54.13q-.75,0-.75-1.11a1,1,0,0,1,.29-.66,1.45,1.45,0,0,1,.74-.4,24.53,24.53,0,0,1,2.57-.23C113.06,79.06,114.27,79,115.27,79Z"/><path class="cls-5" d="M117.24,86.52a17.87,17.87,0,0,1,.6-1.93c.26-.7.56-1.44.9-2.21s.71-1.54,1.11-2.33.83-1.56,1.27-2.31.88-1.46,1.34-2.12a21.93,21.93,0,0,1,1.37-1.79l.48-.53c.19-.21.41-.43.65-.66s.49-.46.75-.68a9.71,9.71,0,0,1,.79-.6,5.23,5.23,0,0,1,.78-.44,1.72,1.72,0,0,1,.7-.16,2.26,2.26,0,0,1,.79.14,1.65,1.65,0,0,1,.61.43,1.87,1.87,0,0,1,.4.65,2.32,2.32,0,0,1,.14.84,2.55,2.55,0,0,1,0,.39c0,.13-.05.26-.08.4L128.56,80q.16-.27.48-.72l.69-1,.81-1.15.83-1.16.74-1,.56-.74.21-.27c.13-.17.3-.38.5-.61s.41-.48.65-.74.49-.51.76-.76a8.12,8.12,0,0,1,.81-.68,4.3,4.3,0,0,1,.81-.48,1.71,1.71,0,0,1,.76-.19.83.83,0,0,1,.46.12,1,1,0,0,1,.29.34,1.47,1.47,0,0,1,.16.5,3.81,3.81,0,0,1,0,.59,6.45,6.45,0,0,1-.08,1,8.71,8.71,0,0,1-.18.89c0,.21-.09.52-.16.91s-.14.85-.22,1.36-.18,1.07-.28,1.67-.2,1.2-.3,1.81-.21,1.23-.31,1.83-.2,1.16-.29,1.68-.16,1-.24,1.39-.13.73-.17,1-.06.25-.11.43a2.11,2.11,0,0,1-.22.54,1.5,1.5,0,0,1-.37.46.88.88,0,0,1-.58.19.59.59,0,0,1-.35-.12,1.18,1.18,0,0,1-.29-.3,1.47,1.47,0,0,1-.21-.39,1.65,1.65,0,0,1-.09-.39l2.38-11.26c0-.1,0-.2.05-.28a1.05,1.05,0,0,0,0-.24.85.85,0,0,0,0-.23,1.8,1.8,0,0,1-.05-.19c0-.07-.05-.13-.07-.19a10.31,10.31,0,0,0-1.1,1c-.39.4-.79.84-1.19,1.33s-.79,1-1.19,1.56-.78,1.11-1.14,1.66-.58.89-.9,1.37l-1,1.44-1,1.45c-.31.48-.59.94-.84,1.39a6,6,0,0,0-.37.82c-.13.33-.28.66-.43,1a5.24,5.24,0,0,1-.5.82.77.77,0,0,1-.61.34,1.12,1.12,0,0,1-.44-.08.67.67,0,0,1-.28-.21.81.81,0,0,1-.15-.31,1.58,1.58,0,0,1,0-.38,2.38,2.38,0,0,1,.05-.53c0-.17.07-.34.11-.5.15-.67.32-1.33.5-2s.35-1.34.54-2,.38-1.41.57-2.15.4-1.53.61-2.36c0-.24.11-.5.18-.8s.13-.59.19-.88.11-.6.15-.88a5.36,5.36,0,0,0,.06-.75,1.92,1.92,0,0,0,0-.47c0-.12-.08-.18-.17-.18a1.68,1.68,0,0,0-.89.31,5.77,5.77,0,0,0-.94.83,10.69,10.69,0,0,0-1,1.17c-.31.45-.61.9-.89,1.37s-.54.93-.78,1.38-.46.87-.63,1.23c0,.08-.09.18-.17.32l-.28.55c-.12.24-.26.55-.43.92s-.38.85-.61,1.41-.5,1.25-.8,2-.65,1.71-1,2.78a.91.91,0,0,1-.36.44.88.88,0,0,1-.53.17,1.12,1.12,0,0,1-.87-.32,1.16,1.16,0,0,1-.28-.78A2,2,0,0,1,117.24,86.52Z"/><path class="cls-5" d="M141.56,86a3.61,3.61,0,0,1,.05-.52,5.11,5.11,0,0,0,0-.75c-.16.12-.34.26-.54.43s-.4.32-.62.47a5.16,5.16,0,0,1-.63.37,1.39,1.39,0,0,1-.59.15,1.23,1.23,0,0,1-.77-.24,2.12,2.12,0,0,1-.56-.63,1.4,1.4,0,0,1-.18-.72,2.56,2.56,0,0,1,0-.39c0-.13.06-.29.11-.46a6.41,6.41,0,0,1,1-2.17,6.62,6.62,0,0,1,1.71-1.71,2,2,0,0,1,.79-.35,4.11,4.11,0,0,1,.77-.08l.39,0,.38.05a2.11,2.11,0,0,1,.28-.05l.23,0a1,1,0,0,1,.37.06.79.79,0,0,1,.23.16.59.59,0,0,1,.13.23.84.84,0,0,1,0,.27,1.15,1.15,0,0,1-.06.37c0,.12-.07.24-.11.35l-1,3.92c0,.21,0,.41-.06.58a1.93,1.93,0,0,1-.09.5l0,.17a.52.52,0,0,1-.11.19.69.69,0,0,1-.18.16.54.54,0,0,1-.29.07,1.77,1.77,0,0,1-.37,0,.51.51,0,0,1-.21-.09.31.31,0,0,1-.1-.13A.9.9,0,0,1,141.56,86Zm-2.47-2.24a2,2,0,0,0-.06.29,2.56,2.56,0,0,0,0,.39,1,1,0,0,0,.06.36.25.25,0,0,0,.26.16,1.3,1.3,0,0,0,.58-.14,2.78,2.78,0,0,0,.51-.33c.21-.17.43-.37.65-.58s.43-.45.62-.68a5.76,5.76,0,0,0,.52-.73,3.07,3.07,0,0,0,.33-.75,4.4,4.4,0,0,0,.1-.5,3.13,3.13,0,0,0,0-.5.41.41,0,0,0,0-.19.18.18,0,0,0-.17-.09,1.86,1.86,0,0,0-.73.14A2.86,2.86,0,0,0,141,81a3.39,3.39,0,0,0-.65.56,4.12,4.12,0,0,0-.56.69,4.74,4.74,0,0,0-.44.75A5.14,5.14,0,0,0,139.09,83.8Z"/><path class="cls-5" d="M150.59,80.26a1.44,1.44,0,0,0-.55.12,3.41,3.41,0,0,0-.62.33c-.21.14-.43.3-.65.47s-.44.36-.65.55l-.31.26a1.52,1.52,0,0,1-.3.17,3.16,3.16,0,0,0-.22.45c-.07.19-.15.39-.22.61s-.15.44-.21.67-.13.45-.17.65a1.59,1.59,0,0,0-.06.3c0,.1,0,.21,0,.32s-.05.23-.07.36-.06.27-.1.43a.57.57,0,0,1-.12.22.64.64,0,0,1-.17.13l-.17.06h-.13a.74.74,0,0,1-.46-.13.63.63,0,0,1-.18-.52,1.62,1.62,0,0,1,0-.22,1.38,1.38,0,0,1,0-.26c.11-.47.22-.89.32-1.27s.2-.72.31-1,.21-.63.31-.91l.33-.87.35-.89.39-1a.35.35,0,0,1,.23-.21,1,1,0,0,1,.41-.09.76.76,0,0,1,.46.13.4.4,0,0,1,.18.36.28.28,0,0,1,0,.08,1.12,1.12,0,0,1,0,.13l-.32.77c.2-.16.42-.33.65-.49a6.2,6.2,0,0,1,.69-.44,4.54,4.54,0,0,1,.72-.32,2.21,2.21,0,0,1,.71-.12,1.53,1.53,0,0,1,1.11.38,1.55,1.55,0,0,1,.4,1.18,3.89,3.89,0,0,1-.16,1c-.11.39-.24.81-.4,1.26s-.33.92-.52,1.41-.36,1-.52,1.5a2.65,2.65,0,0,1-.13.35.86.86,0,0,1-.17.23.46.46,0,0,1-.23.12.93.93,0,0,1-.31,0,.56.56,0,0,1-.4-.11.44.44,0,0,1-.12-.34,2.79,2.79,0,0,1,.07-.51,5.55,5.55,0,0,1,.18-.66c.07-.24.16-.5.26-.77s.21-.55.33-.83.19-.46.28-.69.18-.44.25-.66a5.1,5.1,0,0,0,.17-.61,2.09,2.09,0,0,0,.07-.53.8.8,0,0,0-.1-.41A.41.41,0,0,0,150.59,80.26Z"/><path class="cls-5" d="M153.64,83.81a5.7,5.7,0,0,1,.25-.8,5.43,5.43,0,0,1,.4-.8,5.65,5.65,0,0,1,.57-.77,5.22,5.22,0,0,1,.76-.71,7.17,7.17,0,0,1,.63-.45,4.91,4.91,0,0,1,.67-.37,4.78,4.78,0,0,1,.69-.25,2.65,2.65,0,0,1,.68-.09,1.91,1.91,0,0,1,.43,0l.36.11.4-1.39c.21-.76.48-1.81.79-3.16a.82.82,0,0,1,.23-.34.51.51,0,0,1,.35-.13l.29,0a.76.76,0,0,1,.26.11.63.63,0,0,1,.18.21.88.88,0,0,1,.06.35l-1.49,6A5.18,5.18,0,0,0,160,82c0,.28-.07.59-.11.9s-.06.63-.08.94,0,.58,0,.8a3.23,3.23,0,0,1-.1.82c0,.12-.06.22-.09.31a.53.53,0,0,1-.13.2.55.55,0,0,1-.2.11,1.35,1.35,0,0,1-.31,0,1.05,1.05,0,0,1-.34,0,.33.33,0,0,1-.17-.13.28.28,0,0,1-.07-.17,1.5,1.5,0,0,1,0-.22c0-.08,0-.16,0-.24a.62.62,0,0,0-.07-.23l-.24.15-.32.2-.3.19-.21.12-.38.2a3.32,3.32,0,0,1-.47.2,3.53,3.53,0,0,1-.52.16,2.47,2.47,0,0,1-.54,0,1.81,1.81,0,0,1-.65-.11,1.52,1.52,0,0,1-.57-.34,1.74,1.74,0,0,1-.39-.58,2.12,2.12,0,0,1-.15-.83,2,2,0,0,1,0-.34A2,2,0,0,1,153.64,83.81Zm1.28-.06a1.65,1.65,0,0,0-.06.43,1.7,1.7,0,0,0,0,.4.79.79,0,0,0,.14.34.71.71,0,0,0,.26.22,1,1,0,0,0,.44.09,1,1,0,0,0,.32-.06,2.3,2.3,0,0,0,.34-.12l.31-.17.25-.15.52-.36a2.7,2.7,0,0,0,.43-.39,2.19,2.19,0,0,0,.34-.46,2.43,2.43,0,0,0,.24-.59c0-.2.09-.38.13-.55s.07-.32.1-.48.05-.31.08-.47,0-.35.07-.55a.27.27,0,0,0-.1-.08.32.32,0,0,0-.19,0,2.29,2.29,0,0,0-.65.1,3.89,3.89,0,0,0-.73.28,5.31,5.31,0,0,0-.74.46,4.64,4.64,0,0,0-.67.59,4.25,4.25,0,0,0-.53.73A2.85,2.85,0,0,0,154.92,83.75Z"/><path class="cls-5" d="M165.63,86a3.61,3.61,0,0,1,.05-.52,5.11,5.11,0,0,0,0-.75c-.16.12-.34.26-.54.43s-.4.32-.62.47a5.16,5.16,0,0,1-.63.37,1.39,1.39,0,0,1-.59.15,1.23,1.23,0,0,1-.77-.24,2.12,2.12,0,0,1-.56-.63,1.4,1.4,0,0,1-.18-.72,2.56,2.56,0,0,1,0-.39c0-.13.06-.29.11-.46a6.41,6.41,0,0,1,1-2.17,6.62,6.62,0,0,1,1.71-1.71,2,2,0,0,1,.79-.35,4.11,4.11,0,0,1,.77-.08l.39,0,.38.05a2.11,2.11,0,0,1,.28-.05l.22,0a1,1,0,0,1,.38.06.67.67,0,0,1,.23.16.59.59,0,0,1,.13.23.84.84,0,0,1,0,.27,1.5,1.5,0,0,1,0,.37c0,.12-.09.24-.12.35l-1,3.92c0,.21,0,.41-.06.58a1.93,1.93,0,0,1-.09.5l-.05.17a.52.52,0,0,1-.11.19.69.69,0,0,1-.18.16.52.52,0,0,1-.29.07,1.77,1.77,0,0,1-.37,0,.51.51,0,0,1-.21-.09.31.31,0,0,1-.1-.13A.9.9,0,0,1,165.63,86Zm-2.47-2.24a2,2,0,0,0-.06.29,2.56,2.56,0,0,0,0,.39,1,1,0,0,0,.06.36.25.25,0,0,0,.26.16,1.3,1.3,0,0,0,.58-.14,2.78,2.78,0,0,0,.51-.33c.21-.17.43-.37.65-.58s.42-.45.62-.68a5.76,5.76,0,0,0,.52-.73,3.07,3.07,0,0,0,.33-.75,4.4,4.4,0,0,0,.1-.5,3.13,3.13,0,0,0,0-.5.41.41,0,0,0,0-.19.18.18,0,0,0-.17-.09,1.86,1.86,0,0,0-.73.14,2.86,2.86,0,0,0-.71.38,3.39,3.39,0,0,0-.65.56,4.12,4.12,0,0,0-.56.69,4.74,4.74,0,0,0-.44.75A5.14,5.14,0,0,0,163.16,83.8Z"/><path class="cls-5" d="M169.54,85.59c.07-.35.14-.73.22-1.14s.17-.84.26-1.26.18-.85.26-1.26.16-.79.22-1.13a.62.62,0,0,1,0-.13v-.12a3.55,3.55,0,0,1,0-.46c0-.15,0-.29.08-.42a1.19,1.19,0,0,1,.18-.39.5.5,0,0,1,.33-.1.57.57,0,0,1,.34.09.63.63,0,0,1,.21.22.9.9,0,0,1,.09.33,2.22,2.22,0,0,1,0,.37c0,.07,0,.15,0,.23a1.64,1.64,0,0,0,0,.2l.44-.44a4.72,4.72,0,0,1,.5-.41,3,3,0,0,1,.56-.3,1.58,1.58,0,0,1,.61-.12,1.07,1.07,0,0,1,.25,0l.25.06a1.18,1.18,0,0,1,.3.1,1.34,1.34,0,0,1,.31.17,1.69,1.69,0,0,1,.42.46,1.12,1.12,0,0,1,.16.57.67.67,0,0,1,0,.24.9.9,0,0,1-.12.24,1.07,1.07,0,0,1-.19.18.37.37,0,0,1-.23.07,1.1,1.1,0,0,1-.31-.06.87.87,0,0,1-.3-.17.49.49,0,0,1-.1-.13l-.11-.16-.09-.15a.17.17,0,0,0-.06-.09l-.08,0h-.08a1.49,1.49,0,0,0-.72.19,3.24,3.24,0,0,0-.64.48,5.12,5.12,0,0,0-.55.59c-.16.21-.31.4-.43.57-.1.4-.21.83-.33,1.28s-.24.92-.36,1.42v.18c0,.15,0,.31,0,.46a1.3,1.3,0,0,1-.09.41.75.75,0,0,1-.23.19.78.78,0,0,1-.35.07.56.56,0,0,1-.47-.2.81.81,0,0,1-.16-.48A1.27,1.27,0,0,1,169.54,85.59Z"/><path class="cls-5" d="M175.85,85c.08-.29.16-.62.27-1s.21-.78.33-1.21.23-.86.35-1.3l.34-1.3a.29.29,0,0,1,.05-.1.53.53,0,0,1,.12-.14,1.07,1.07,0,0,1,.21-.13.94.94,0,0,1,.3,0,.93.93,0,0,1,.24,0,.83.83,0,0,1,.22.08.35.35,0,0,1,.14.13.36.36,0,0,1,.06.2v0a.09.09,0,0,1,0,0l-.21.78c-.23.88-.46,1.77-.7,2.65s-.48,1.78-.71,2.67a.76.76,0,0,1,0,.11.57.57,0,0,1-.08.13.49.49,0,0,1-.13.12.34.34,0,0,1-.18,0,.63.63,0,0,1-.34-.08.79.79,0,0,1-.25-.19,1,1,0,0,1-.16-.26,1,1,0,0,1,0-.27v-.07a.14.14,0,0,1,0-.06Zm1.94-7.69a2.45,2.45,0,0,1,.13-.38,1.14,1.14,0,0,1,.34-.4l.29-.12a.81.81,0,0,1,.25,0,.23.23,0,0,1,.15,0l.14.11a1.07,1.07,0,0,1,.14.16.29.29,0,0,1,.24.13.65.65,0,0,1,.06.29.66.66,0,0,1,0,.21,1.57,1.57,0,0,1,0,.16.68.68,0,0,1-.17.28A1.28,1.28,0,0,1,179,78a1.43,1.43,0,0,1-.34.14,1,1,0,0,1-.32,0,.6.6,0,0,1-.26,0,1.28,1.28,0,0,1-.23-.26.45.45,0,0,1-.1-.17s0-.08,0-.11,0-.1,0-.14Z"/><path class="cls-5" d="M185,80.26a1.44,1.44,0,0,0-.55.12,3.41,3.41,0,0,0-.62.33c-.21.14-.43.3-.65.47s-.44.36-.65.55l-.31.26a1.52,1.52,0,0,1-.3.17,3.16,3.16,0,0,0-.22.45c-.07.19-.15.39-.22.61s-.15.44-.21.67-.13.45-.17.65a1.59,1.59,0,0,0-.06.3c0,.1,0,.21-.05.32s-.05.23-.07.36-.06.27-.1.43a.57.57,0,0,1-.12.22.64.64,0,0,1-.17.13l-.17.06h-.13a.74.74,0,0,1-.46-.13.63.63,0,0,1-.18-.52,1.62,1.62,0,0,1,0-.22,1.38,1.38,0,0,1,0-.26c.11-.47.22-.89.32-1.27s.2-.72.31-1,.21-.63.31-.91l.33-.87.35-.89.39-1a.37.37,0,0,1,.23-.21,1,1,0,0,1,.41-.09.76.76,0,0,1,.46.13.4.4,0,0,1,.18.36.28.28,0,0,1,0,.08,1.12,1.12,0,0,1-.05.13l-.32.77c.2-.16.42-.33.65-.49a6.2,6.2,0,0,1,.69-.44,4.54,4.54,0,0,1,.72-.32,2.21,2.21,0,0,1,.71-.12,1.53,1.53,0,0,1,1.11.38,1.55,1.55,0,0,1,.4,1.18,3.89,3.89,0,0,1-.16,1c-.11.39-.24.81-.4,1.26s-.33.92-.52,1.41-.36,1-.52,1.5a2.65,2.65,0,0,1-.13.35.86.86,0,0,1-.17.23.51.51,0,0,1-.23.12.93.93,0,0,1-.31,0,.56.56,0,0,1-.4-.11.44.44,0,0,1-.11-.34,2.67,2.67,0,0,1,.06-.51,5.55,5.55,0,0,1,.18-.66c.07-.24.16-.5.26-.77s.22-.55.34-.83l.27-.69c.09-.22.18-.44.25-.66a5.1,5.1,0,0,0,.17-.61,2.09,2.09,0,0,0,.07-.53.8.8,0,0,0-.1-.41A.41.41,0,0,0,185,80.26Z"/></g></g></svg>