<svg xmlns="http://www.w3.org/2000/svg" viewBox="0 0 186.81 20.18"><defs><style>.cls-1{fill:#eb5e00;}</style></defs><g id="圖層_2" data-name="圖層 2"><g id="圖層_1-2" data-name="圖層 1"><path class="cls-1" d="M.37,15.29c.26.09.53.19.8.31s.55.24.84.35a7.89,7.89,0,0,0,.9.28,4.12,4.12,0,0,0,1,.11,6.17,6.17,0,0,0,1.27-.14,6.32,6.32,0,0,0,1.24-.44,7,7,0,0,0,1.17-.71,6.66,6.66,0,0,0,1-1c.34-.39.62-.74.85-1.06a7.88,7.88,0,0,0,.55-.84,4,4,0,0,0,.31-.64,1.48,1.48,0,0,0,.09-.46.7.7,0,0,0-.2-.49,1.32,1.32,0,0,0-.52-.35,3,3,0,0,0-.73-.2A5.87,5.87,0,0,0,8.12,10l-.61,0-.72,0-.7,0-.6,0A3.59,3.59,0,0,1,4.71,10a3.39,3.39,0,0,1-.79-.28,2.75,2.75,0,0,1-.72-.52,2.87,2.87,0,0,1-.55-.82c0-.11-.08-.24-.12-.38a1.73,1.73,0,0,1-.06-.47,4.06,4.06,0,0,1,0-.51c0-.17.06-.33.1-.48a4.07,4.07,0,0,1,.53-1.15A7.25,7.25,0,0,1,4,4.23,13,13,0,0,1,5.16,3.15c.4-.35.82-.68,1.25-1s.85-.58,1.27-.83A12.4,12.4,0,0,1,8.83.7,6.25,6.25,0,0,1,10.37.17,7.34,7.34,0,0,1,11.91,0a3.15,3.15,0,0,1,.87.12,2.41,2.41,0,0,1,.72.35A1.64,1.64,0,0,1,14,1a1.52,1.52,0,0,1,.19.77,1.25,1.25,0,0,1-.06.42A.82.82,0,0,1,14,2.5a.74.74,0,0,1-.2.16.54.54,0,0,1-.22,0A2,2,0,0,1,13,2.63a4.13,4.13,0,0,1-.5-.15L12,2.32a1.72,1.72,0,0,0-.52-.07,4.85,4.85,0,0,0-1.72.33,10.05,10.05,0,0,0-1.7.86A12.54,12.54,0,0,0,6.51,4.59,17.76,17.76,0,0,0,5.2,5.84a2.06,2.06,0,0,0-.45.63,1.47,1.47,0,0,0-.15.61A.74.74,0,0,0,5,7.74,1.58,1.58,0,0,0,5.86,8h.69l.79,0,.79,0h.68a4.44,4.44,0,0,1,1.36.2,3.77,3.77,0,0,1,1.15.58,2.91,2.91,0,0,1,.8,1,2.78,2.78,0,0,1,.3,1.31,3.31,3.31,0,0,1-.13.93,6.61,6.61,0,0,1-.38.94,9,9,0,0,1-.55.93c-.2.31-.42.61-.65.91a12.89,12.89,0,0,1-1.37,1.5,10.41,10.41,0,0,1-1.61,1.23,8.22,8.22,0,0,1-1.81.83,6.18,6.18,0,0,1-2,.31,4.5,4.5,0,0,1-.88-.08,5.4,5.4,0,0,1-.9-.23,4,4,0,0,1-.84-.39,3.32,3.32,0,0,1-.69-.53,2.12,2.12,0,0,1-.47-.65A1.72,1.72,0,0,1,0,15.87a1.34,1.34,0,0,1,.06-.4A.29.29,0,0,1,.37,15.29Z"/><path class="cls-1" d="M13.55,16.26c.15-.58.29-1.12.43-1.62l.4-1.44c.13-.45.26-.9.39-1.33s.24-.87.35-1.31a2.36,2.36,0,0,0,.08-.5,3.27,3.27,0,0,1,.07-.51.39.39,0,0,1,.11-.15,1.09,1.09,0,0,1,.17-.13,1.31,1.31,0,0,1,.21-.08l.2,0a1.18,1.18,0,0,1,.35.05.67.67,0,0,1,.22.13.37.37,0,0,1,.12.2,1,1,0,0,1,0,.25,1.81,1.81,0,0,1-.08.51c-.06.17-.12.36-.2.56.23-.18.47-.35.72-.52a6.93,6.93,0,0,1,.75-.43,4.8,4.8,0,0,1,.8-.29,3,3,0,0,1,.85-.12,1.4,1.4,0,0,1,.4.07,1,1,0,0,1,.36.19,1.41,1.41,0,0,1,.27.35,1.38,1.38,0,0,1,.12.53l.66-.44L22,9.81a5.22,5.22,0,0,1,.71-.28,2.37,2.37,0,0,1,.69-.11,2.17,2.17,0,0,1,.82.13,1.49,1.49,0,0,1,.51.35,1.37,1.37,0,0,1,.26.51,2.07,2.07,0,0,1,.08.62,4.68,4.68,0,0,1-.06.73l-.15.72c-.15.57-.31,1.12-.49,1.63s-.37,1-.57,1.56c-.05.12-.11.25-.16.39a1.93,1.93,0,0,1-.19.38,1.19,1.19,0,0,1-.25.29.52.52,0,0,1-.34.12.9.9,0,0,1-.6-.15.54.54,0,0,1-.16-.42V16.1a1.16,1.16,0,0,1,0-.18,1.64,1.64,0,0,1,.13-.32l.23-.46.24-.5a3.36,3.36,0,0,0,.18-.43c.06-.21.14-.46.23-.74s.17-.56.25-.85.14-.55.19-.8a3.49,3.49,0,0,0,.08-.62,1.79,1.79,0,0,0,0-.23.64.64,0,0,0-.08-.19.42.42,0,0,0-.16-.13.47.47,0,0,0-.25-.05,1.47,1.47,0,0,0-.53.12,4.34,4.34,0,0,0-.64.33,5.75,5.75,0,0,0-.64.46,4.46,4.46,0,0,0-.54.51,1.61,1.61,0,0,1-.3.29,1.17,1.17,0,0,1-.28.17l-.07.2c0,.11-.09.24-.14.4s-.11.32-.17.5l-.17.51-.13.39a.81.81,0,0,0-.05.18,2.84,2.84,0,0,0-.09.42c0,.15-.05.29-.07.42s0,.28-.05.43a1.85,1.85,0,0,1-.11.42.78.78,0,0,1-.24.33.71.71,0,0,1-.45.12.54.54,0,0,1-.27-.07.76.76,0,0,1-.21-.19,1.08,1.08,0,0,1-.14-.26,1.59,1.59,0,0,1-.06-.3c.12-.44.23-.84.34-1.2s.21-.7.32-1,.22-.66.32-1,.2-.69.3-1.08l.06-.28a2.32,2.32,0,0,0,0-.24.56.56,0,0,0-.07-.3.3.3,0,0,0-.26-.11,1.62,1.62,0,0,0-.61.12,3,3,0,0,0-.65.38c-.23.18-.49.4-.77.66s-.62.59-1,1a2.23,2.23,0,0,0-.15.42c-.07.2-.13.42-.2.64s-.13.44-.18.64-.09.32-.11.39-.09.38-.11.52,0,.27-.05.38,0,.16,0,.3a2.28,2.28,0,0,1-.11.41,1.25,1.25,0,0,1-.22.37.51.51,0,0,1-.37.16.84.84,0,0,1-.56-.19.57.57,0,0,1-.22-.47.28.28,0,0,1,0-.09A.36.36,0,0,1,13.55,16.26Z"/><path class="cls-1" d="M30.21,16.43a3.89,3.89,0,0,1,.05-.52,5.06,5.06,0,0,0,0-.74l-.54.42a7.21,7.21,0,0,1-.62.47,4.13,4.13,0,0,1-.63.37,1.28,1.28,0,0,1-.59.16,1.42,1.42,0,0,1-.42-.07,1.15,1.15,0,0,1-.35-.18,2.09,2.09,0,0,1-.56-.62,1.44,1.44,0,0,1-.18-.73,1.84,1.84,0,0,1,0-.39,3.92,3.92,0,0,1,.1-.46,6.49,6.49,0,0,1,1-2.17,6.74,6.74,0,0,1,1.71-1.7A2,2,0,0,1,30,9.92a3.42,3.42,0,0,1,.77-.08l.39,0,.38,0,.28-.05h.22a1,1,0,0,1,.38.06.56.56,0,0,1,.23.16.48.48,0,0,1,.13.23.77.77,0,0,1,0,.27,1.15,1.15,0,0,1-.06.37c0,.11-.07.23-.11.35l-1,3.91c0,.21,0,.41-.06.59a2.1,2.1,0,0,1-.09.5l-.05.16a.52.52,0,0,1-.11.19.56.56,0,0,1-.47.23,1.77,1.77,0,0,1-.37,0,.71.71,0,0,1-.21-.08.33.33,0,0,1-.1-.14A.9.9,0,0,1,30.21,16.43Zm-2.47-2.24a2.6,2.6,0,0,0-.06.3,2.43,2.43,0,0,0,0,.38,1,1,0,0,0,.06.36.24.24,0,0,0,.26.16,1.18,1.18,0,0,0,.58-.14,2.78,2.78,0,0,0,.51-.33,8.25,8.25,0,0,0,.65-.58,7.93,7.93,0,0,0,.62-.68,5.76,5.76,0,0,0,.52-.73,3.07,3.07,0,0,0,.33-.75,4.19,4.19,0,0,0,.1-.49,3.25,3.25,0,0,0,0-.51.43.43,0,0,0,0-.19.18.18,0,0,0-.17-.09,2.06,2.06,0,0,0-.73.14,2.86,2.86,0,0,0-.71.38A3.78,3.78,0,0,0,29,12a5.13,5.13,0,0,0-.56.69,5.33,5.33,0,0,0-.44.76A5,5,0,0,0,27.74,14.19Z"/><path class="cls-1" d="M34.12,16c.07-.34.14-.72.22-1.14s.17-.83.26-1.26.18-.84.26-1.26.16-.78.22-1.12a.66.66,0,0,1,0-.13v-.13a3.67,3.67,0,0,1,0-.46c0-.15,0-.29.08-.42a.88.88,0,0,1,.19-.38.41.41,0,0,1,.32-.1.66.66,0,0,1,.34.08.58.58,0,0,1,.21.23.8.8,0,0,1,.09.32,2.34,2.34,0,0,1,0,.38c0,.07,0,.14,0,.23a1.56,1.56,0,0,0,0,.2l.44-.44a3.89,3.89,0,0,1,.5-.41,3,3,0,0,1,.56-.3,1.58,1.58,0,0,1,.61-.12l.25,0,.25.06.31.1a1.19,1.19,0,0,1,.3.18,1.55,1.55,0,0,1,.42.46,1.07,1.07,0,0,1,.16.57.75.75,0,0,1,0,.24,1.34,1.34,0,0,1-.12.24.75.75,0,0,1-.19.17.38.38,0,0,1-.23.08,1.05,1.05,0,0,1-.3-.07.72.72,0,0,1-.3-.17.32.32,0,0,1-.11-.12l-.11-.16-.09-.16a.35.35,0,0,0-.06-.09h-.16a1.42,1.42,0,0,0-.72.2,3.19,3.19,0,0,0-.64.47,6.1,6.1,0,0,0-.55.59c-.16.21-.31.4-.43.57-.1.4-.21.83-.33,1.28s-.24.93-.36,1.42v.19c0,.15,0,.3,0,.45a1.24,1.24,0,0,1-.09.41.63.63,0,0,1-.23.19.78.78,0,0,1-.35.08.54.54,0,0,1-.47-.21.77.77,0,0,1-.16-.48A1.27,1.27,0,0,1,34.12,16Z"/><path class="cls-1" d="M41.51,14.44a6.7,6.7,0,0,1,.14-1.3c.09-.44.19-.87.3-1.28l-.4-.06a1.92,1.92,0,0,1-.36-.14,1,1,0,0,1-.27-.22.47.47,0,0,1-.1-.3.61.61,0,0,1,0-.17,1.8,1.8,0,0,1,.08-.21.8.8,0,0,1,.15-.17.29.29,0,0,1,.2-.07h1a.2.2,0,0,0,.2-.12,2.25,2.25,0,0,0,.08-.24q.09-.44.18-.75c.06-.21.1-.39.14-.53s.08-.27.1-.36a1,1,0,0,0,0-.22,1.09,1.09,0,0,0,0-.18V7.79a.92.92,0,0,1,0-.15,1,1,0,0,1,.07-.27.63.63,0,0,1,.16-.27A.45.45,0,0,1,43.58,7a.71.71,0,0,1,.34.08.69.69,0,0,1,.23.22,1,1,0,0,1,.14.3,2.09,2.09,0,0,1,0,.34,1.18,1.18,0,0,1,0,.34l-.54,2.08.71-.13.63-.12.59-.12.42-.1.31-.07.2,0,.24,0a.81.81,0,0,1,.22.07.44.44,0,0,1,.15.12.38.38,0,0,1,.06.22.78.78,0,0,1-.07.31.88.88,0,0,1-.19.24.72.72,0,0,1-.25.16,1,1,0,0,1-.28.1l-.31.06-.41.1-.48.11-.47.12-.58.15-.41.09-.28,0-.18,0c-.09.28-.17.56-.24.83S43,13,43,13.28s-.08.44-.1.63,0,.33,0,.43a2.38,2.38,0,0,0,0,.39A1,1,0,0,0,43,15a.61.61,0,0,0,.24.21.74.74,0,0,0,.38.08,1.57,1.57,0,0,0,.77-.21,3.78,3.78,0,0,0,.73-.55,6.4,6.4,0,0,0,.65-.72l.57-.75a.28.28,0,0,1,.23-.14l.11,0,.12,0a.32.32,0,0,1,.1.1.21.21,0,0,1,0,.14.22.22,0,0,1,0,.09,4.6,4.6,0,0,1-.36.92l-.51.93a1.41,1.41,0,0,1-.24.32,2.2,2.2,0,0,1-.31.3c-.12.1-.23.19-.36.28s-.24.16-.35.23a1.92,1.92,0,0,1-.61.25,3.74,3.74,0,0,1-.65.06,2,2,0,0,1-.86-.17A1.89,1.89,0,0,1,42,16a2.08,2.08,0,0,1-.39-.7A2.63,2.63,0,0,1,41.51,14.44Z"/><path class="cls-1" d="M50.34,12.81A21.77,21.77,0,0,1,51,10.65c.27-.76.55-1.52.85-2.31s.58-1.57.87-2.38a25,25,0,0,0,.74-2.43c.06-.19.1-.38.14-.54s.08-.35.11-.54A1.14,1.14,0,0,1,54.08,2a1,1,0,0,1,.51-.15,1.19,1.19,0,0,1,.47.08.9.9,0,0,1,.39.25,1.24,1.24,0,0,1,.26.45,1.81,1.81,0,0,1,.1.65,4.16,4.16,0,0,1-.12.93c-.3.77-.6,1.51-.9,2.24s-.6,1.44-.89,2.14-.55,1.39-.79,2.08-.45,1.36-.63,2c0,.05,0,.17-.09.34s-.09.4-.14.65-.09.52-.13.8a6,6,0,0,0-.06.83,3,3,0,0,0,0,.52,1.61,1.61,0,0,0,.11.42.59.59,0,0,0,.22.29.53.53,0,0,0,.34.1,2,2,0,0,0,1.06-.45A9.06,9.06,0,0,0,55.18,15a17.38,17.38,0,0,0,1.5-1.81q.78-1,1.5-2.22c.49-.79.94-1.6,1.36-2.44A21.6,21.6,0,0,0,60.6,6a.54.54,0,0,1,.25-.28A1.19,1.19,0,0,1,62,6a.86.86,0,0,1,.31.68.64.64,0,0,1,0,.2,1.28,1.28,0,0,1-.07.21L62,7.51c-.12.36-.23.69-.34,1s-.2.58-.27.85-.18.72-.24,1-.11.61-.14.89a7.82,7.82,0,0,0-.07.81c0,.27,0,.54,0,.81,0,.11,0,.26,0,.47s.05.43.09.68a5.24,5.24,0,0,0,.15.75,4.42,4.42,0,0,0,.23.7,1.83,1.83,0,0,0,.3.52.56.56,0,0,0,.41.2,1.34,1.34,0,0,0,.75-.29,4.61,4.61,0,0,0,.79-.8,11.66,11.66,0,0,0,.8-1.19c.27-.46.53-.95.79-1.47s.5-1.07.73-1.63.44-1.12.64-1.67.36-1.08.51-1.6.27-1,.36-1.4.15-.8.21-1.18.13-.76.19-1.14.12-.76.19-1.14.17-.78.27-1.18a2.75,2.75,0,0,1,.17-.45,2,2,0,0,1,.28-.41A1.49,1.49,0,0,1,69.2.36a.75.75,0,0,1,.4-.12.77.77,0,0,1,.7.28,1.79,1.79,0,0,1,.18.93,8,8,0,0,1-.09,1.11c0,.43-.13.88-.21,1.34s-.19.95-.29,1.42-.22.93-.32,1.36a25.2,25.2,0,0,1-.85,2.7c-.35.93-.74,1.83-1.16,2.72s-.89,1.72-1.37,2.5a15.1,15.1,0,0,1-1.46,2,4.73,4.73,0,0,1-.59.6,5.65,5.65,0,0,1-.73.56,5.13,5.13,0,0,1-.8.42,2.05,2.05,0,0,1-.78.16,1.93,1.93,0,0,1-1.32-.46,3.43,3.43,0,0,1-.86-1.23,7.6,7.6,0,0,1-.52-1.76c-.11-.65-.2-1.33-.25-2l-1.17,1.69a15.37,15.37,0,0,1-1.08,1.36c-.27.32-.58.65-.92,1a11.54,11.54,0,0,1-1.09,1,6.93,6.93,0,0,1-1.18.76,2.65,2.65,0,0,1-1.18.3,2.52,2.52,0,0,1-1.13-.23,1.88,1.88,0,0,1-.72-.65,2.77,2.77,0,0,1-.39-1A5.84,5.84,0,0,1,49.9,16,10.31,10.31,0,0,1,50,14.41C50.11,13.88,50.21,13.34,50.34,12.81Z"/><path class="cls-1" d="M69.07,16c.06-.34.14-.72.22-1.14s.17-.83.26-1.26.18-.84.26-1.26.16-.78.22-1.12a.66.66,0,0,1,0-.13v-.13a3.67,3.67,0,0,1,0-.46c0-.15,0-.29.08-.42a1,1,0,0,1,.18-.38.45.45,0,0,1,.33-.1.68.68,0,0,1,.34.08.58.58,0,0,1,.21.23,1,1,0,0,1,.09.32,2.36,2.36,0,0,1,0,.38v.23a1.56,1.56,0,0,0,0,.2c.14-.14.28-.29.44-.44a3.89,3.89,0,0,1,.5-.41,2.94,2.94,0,0,1,.55-.3,1.63,1.63,0,0,1,.62-.12l.25,0,.24.06.31.1a1.09,1.09,0,0,1,.31.18,1.52,1.52,0,0,1,.41.46,1.08,1.08,0,0,1,.17.57.75.75,0,0,1,0,.24,1.41,1.41,0,0,1-.13.24.58.58,0,0,1-.18.17.4.4,0,0,1-.23.08,1.11,1.11,0,0,1-.31-.07.87.87,0,0,1-.3-.17.68.68,0,0,1-.11-.12c0-.06-.07-.11-.1-.16l-.09-.16-.06-.09h-.17a1.45,1.45,0,0,0-.72.2,3.13,3.13,0,0,0-.63.47,6.1,6.1,0,0,0-.55.59c-.17.21-.31.4-.43.57-.1.4-.21.83-.33,1.28s-.25.93-.36,1.42v.19c0,.15,0,.3,0,.45a1.24,1.24,0,0,1-.09.41.63.63,0,0,1-.23.19.78.78,0,0,1-.35.08.54.54,0,0,1-.47-.21.71.71,0,0,1-.16-.48A.82.82,0,0,1,69.07,16Z"/><path class="cls-1" d="M75.38,15.39c.07-.29.16-.62.27-1s.21-.78.33-1.21.23-.86.35-1.31.23-.88.33-1.3l.06-.1.12-.14a1.05,1.05,0,0,1,.21-.12.67.67,0,0,1,.3-.05l.24,0a1,1,0,0,1,.21.08.34.34,0,0,1,.15.14.32.32,0,0,1,.06.2v0a.43.43,0,0,1,0,0l-.21.79c-.23.88-.47,1.76-.71,2.65s-.47,1.77-.7,2.66l0,.12-.08.13a.69.69,0,0,1-.13.11.35.35,0,0,1-.18.05.74.74,0,0,1-.34-.08.82.82,0,0,1-.25-.2.87.87,0,0,1-.16-.26.86.86,0,0,1,0-.27v-.06a.2.2,0,0,1,0-.07Zm1.94-7.68a2.14,2.14,0,0,1,.13-.38,1.06,1.06,0,0,1,.34-.4,1.57,1.57,0,0,1,.29-.13l.25,0a.3.3,0,0,1,.15,0l.14.11s.09.11.14.17a.27.27,0,0,1,.24.13.61.61,0,0,1,0,.28.78.78,0,0,1,0,.22,1.31,1.31,0,0,0,0,.15.64.64,0,0,1-.18.29,1.51,1.51,0,0,1-.28.22,2.17,2.17,0,0,1-.35.15,1.24,1.24,0,0,1-.31.05.48.48,0,0,1-.26-.06,1.46,1.46,0,0,1-.24-.25.73.73,0,0,1-.09-.18.45.45,0,0,1,0-.11.61.61,0,0,1,0-.14Z"/><path class="cls-1" d="M80.3,14.44a6.7,6.7,0,0,1,.14-1.3c.1-.44.2-.87.3-1.28l-.39-.06a1.78,1.78,0,0,1-.37-.14,1,1,0,0,1-.26-.22.48.48,0,0,1-.11-.3.61.61,0,0,1,0-.17,1,1,0,0,1,.09-.21.55.55,0,0,1,.14-.17.31.31,0,0,1,.2-.07h1a.19.19,0,0,0,.19-.12,2.25,2.25,0,0,0,.08-.24l.18-.75.15-.53.09-.36a1,1,0,0,0,0-.22V8.12a1.78,1.78,0,0,1,0-.25V7.79a.92.92,0,0,1,0-.15,1.54,1.54,0,0,1,.07-.27A.74.74,0,0,1,82,7.1.45.45,0,0,1,82.37,7a.68.68,0,0,1,.34.08.73.73,0,0,1,.24.22,1.15,1.15,0,0,1,.17.64,1.72,1.72,0,0,1,0,.34l-.55,2.08.72-.13.62-.12.59-.12.43-.1.3-.07.2,0,.24,0a.63.63,0,0,1,.22.07A.44.44,0,0,1,86,10a.38.38,0,0,1,.06.22.64.64,0,0,1-.07.31,1.08,1.08,0,0,1-.18.24.82.82,0,0,1-.25.16,1.11,1.11,0,0,1-.29.1l-.3.06-.42.1-.47.11-.48.12-.58.15-.41.09-.28,0-.17,0c-.1.28-.18.56-.25.83s-.13.52-.17.76a6,6,0,0,0-.11.63c0,.19,0,.33,0,.43a1.61,1.61,0,0,0,0,.39.77.77,0,0,0,.12.31.61.61,0,0,0,.24.21.75.75,0,0,0,.39.08,1.57,1.57,0,0,0,.77-.21,4,4,0,0,0,.72-.55,6.4,6.4,0,0,0,.65-.72l.57-.75a.28.28,0,0,1,.23-.14l.11,0,.12,0a.24.24,0,0,1,.1.1.21.21,0,0,1,0,.14v.09a4.12,4.12,0,0,1-.37.92l-.51.93a1.72,1.72,0,0,1-.23.32,2.27,2.27,0,0,1-.32.3,3.44,3.44,0,0,1-.36.28l-.34.23a2,2,0,0,1-.62.25,3.66,3.66,0,0,1-.65.06,1.93,1.93,0,0,1-.85-.17,1.89,1.89,0,0,1-.63-.48,1.79,1.79,0,0,1-.39-.7A2.63,2.63,0,0,1,80.3,14.44Z"/><path class="cls-1" d="M87.25,15.39l.27-1c.1-.38.21-.78.33-1.21s.23-.86.35-1.31.23-.88.34-1.3a.29.29,0,0,1,0-.1l.12-.14a1.05,1.05,0,0,1,.21-.12.73.73,0,0,1,.3-.05l.24,0,.22.08a.38.38,0,0,1,.14.14.32.32,0,0,1,.06.2v0a.07.07,0,0,1,0,0l-.2.79c-.24.88-.47,1.76-.71,2.65s-.48,1.77-.71,2.66c0,0,0,.07,0,.12l-.08.13a.69.69,0,0,1-.13.11.35.35,0,0,1-.18.05.74.74,0,0,1-.34-.08.82.82,0,0,1-.25-.2.87.87,0,0,1-.16-.26.86.86,0,0,1,0-.27v-.06a.25.25,0,0,1,0-.07Zm1.94-7.68a2.14,2.14,0,0,1,.13-.38,1,1,0,0,1,.35-.4A1.22,1.22,0,0,1,90,6.8l.25,0a.3.3,0,0,1,.15,0l.14.11c.05,0,.09.11.14.17a.27.27,0,0,1,.24.13.61.61,0,0,1,.06.28.78.78,0,0,1,0,.22l0,.15a.72.72,0,0,1-.17.29,1.58,1.58,0,0,1-.29.22,2.52,2.52,0,0,1-.34.15,1.39,1.39,0,0,1-.32.05.48.48,0,0,1-.26-.06,1.17,1.17,0,0,1-.23-.25.56.56,0,0,1-.1-.18s0-.08,0-.11,0-.1,0-.14Z"/><path class="cls-1" d="M96.38,10.65a1.46,1.46,0,0,0-.55.13,3.41,3.41,0,0,0-.62.33c-.21.14-.43.29-.65.47s-.44.36-.65.54l-.31.26a.92.92,0,0,1-.3.17,4.78,4.78,0,0,0-.22.45c-.07.19-.15.39-.22.61s-.15.45-.21.68-.13.44-.17.64a2,2,0,0,0-.06.3c0,.1,0,.21,0,.32s-.05.23-.07.36-.06.27-.1.43a.62.62,0,0,1-.12.23,1,1,0,0,1-.17.13.41.41,0,0,1-.17.05h-.13a.74.74,0,0,1-.46-.13.61.61,0,0,1-.18-.52,1.7,1.7,0,0,1,0-.22,1.29,1.29,0,0,1,0-.25c.11-.47.22-.9.32-1.27s.2-.73.31-1,.21-.62.31-.91l.33-.86.35-.9c.12-.31.25-.65.39-1a.4.4,0,0,1,.23-.21.94.94,0,0,1,.41-.08.83.83,0,0,1,.46.12.43.43,0,0,1,.18.37.32.32,0,0,1,0,.08.61.61,0,0,1,0,.12l-.32.77.65-.49a6.2,6.2,0,0,1,.69-.44A5.67,5.67,0,0,1,96,9.54a2.21,2.21,0,0,1,.71-.12,1.57,1.57,0,0,1,1.11.38,1.57,1.57,0,0,1,.4,1.19,4,4,0,0,1-.16,1c-.11.39-.24.81-.4,1.25s-.33.92-.52,1.41-.36,1-.52,1.51a3.32,3.32,0,0,1-.13.35.8.8,0,0,1-.17.22.58.58,0,0,1-.23.13,1.35,1.35,0,0,1-.31,0,.57.57,0,0,1-.4-.1.46.46,0,0,1-.12-.35,2.79,2.79,0,0,1,.07-.51,5.55,5.55,0,0,1,.18-.66c.07-.24.16-.5.26-.77s.21-.55.33-.83.19-.45.28-.68.18-.45.25-.66.13-.42.17-.61a2.11,2.11,0,0,0,.07-.54.77.77,0,0,0-.1-.4A.4.4,0,0,0,96.38,10.65Z"/><path class="cls-1" d="M99.92,20.18l-.13,0a.34.34,0,0,1-.14-.08.39.39,0,0,1-.1-.14.39.39,0,0,1,0-.2,1,1,0,0,1,0-.17,2.69,2.69,0,0,1,.13-.4.7.7,0,0,1,.19-.26,1.2,1.2,0,0,1,.34-.17,5.64,5.64,0,0,1,.57-.15l.42-.1a1.06,1.06,0,0,0,.32-.13,5,5,0,0,0,.64-.69,4.44,4.44,0,0,0,.45-.74,5.82,5.82,0,0,0,.3-.79l.24-.81c0-.1,0-.2.08-.3s0-.21.08-.34l-.59.49a6.37,6.37,0,0,1-.62.44,4.29,4.29,0,0,1-.65.31,1.92,1.92,0,0,1-.66.12.94.94,0,0,1-.43-.11,2.25,2.25,0,0,1-.46-.32,1.78,1.78,0,0,1-.36-.45,1,1,0,0,1-.15-.53,1.39,1.39,0,0,1,0-.39c0-.14,0-.26.08-.37a4.18,4.18,0,0,1,.35-.95,6,6,0,0,1,.53-.88,8.24,8.24,0,0,1,.67-.79,7.06,7.06,0,0,1,.76-.69,3.24,3.24,0,0,1,1-.58,3,3,0,0,1,1-.18l.44,0a1.8,1.8,0,0,1,.4.1,1.13,1.13,0,0,1,.35.2,1.55,1.55,0,0,1,.3.36s0,.08,0,.13a.49.49,0,0,1,0,.12s0,.14,0,.29,0,.35-.09.58-.08.49-.13.77-.11.58-.16.86-.11.58-.16.86-.11.53-.16.75c-.09.39-.19.8-.32,1.21a9,9,0,0,1-.46,1.22,7.18,7.18,0,0,1-.63,1.12,4.39,4.39,0,0,1-.85.92,3.82,3.82,0,0,1-1.09.64A3.9,3.9,0,0,1,99.92,20.18Zm.74-6.15c0,.06,0,.12,0,.18a1.37,1.37,0,0,0,0,.19.61.61,0,0,0,.06.28.21.21,0,0,0,.21.12,1.24,1.24,0,0,0,.58-.18,3.61,3.61,0,0,0,.66-.44,6.87,6.87,0,0,0,.63-.58,3.67,3.67,0,0,0,.46-.59l.2-.33.24-.45a5.11,5.11,0,0,0,.22-.48,2.18,2.18,0,0,0,.12-.43.59.59,0,0,0,0-.23.89.89,0,0,1-.09-.3h-.07a1,1,0,0,0-.41.11,4.57,4.57,0,0,0-.48.3c-.17.13-.35.27-.52.42s-.34.32-.49.48-.29.31-.42.47a3.21,3.21,0,0,0-.29.39c-.11.17-.2.33-.29.5A2.52,2.52,0,0,0,100.66,14Z"/><path class="cls-1" d="M115.27,9.41c.51,0,.77.29.77.85a1.57,1.57,0,0,1-.27,1,.86.86,0,0,1-.73.36,44.51,44.51,0,0,0-4.72.23,13.3,13.3,0,0,1-1.54.12c-.5,0-.75-.37-.75-1.1a1,1,0,0,1,.29-.67,1.53,1.53,0,0,1,.74-.4c.29-.06,1.15-.14,2.57-.23S114.27,9.41,115.27,9.41Z"/><path class="cls-1" d="M117.24,16.91a18.47,18.47,0,0,1,.6-1.92c.26-.71.56-1.45.9-2.21s.71-1.55,1.11-2.34.83-1.56,1.27-2.31S122,6.68,122.46,6a21.69,21.69,0,0,1,1.37-1.78l.48-.54c.19-.21.41-.43.65-.66s.49-.45.75-.68.53-.42.79-.6a5.12,5.12,0,0,1,.78-.43,1.75,1.75,0,0,1,.7-.17,2.06,2.06,0,0,1,.79.15,1.75,1.75,0,0,1,.61.42,1.83,1.83,0,0,1,.4.66,2.23,2.23,0,0,1,.14.83,2.55,2.55,0,0,1,0,.39c0,.13-.05.26-.08.4l-1.26,6.36c.11-.17.27-.41.48-.71s.43-.63.69-1l.81-1.16.83-1.15c.27-.37.51-.72.74-1l.56-.75.21-.26c.13-.18.3-.38.5-.62s.41-.48.65-.74.49-.51.76-.76a8,8,0,0,1,.81-.67,5,5,0,0,1,.81-.49,1.85,1.85,0,0,1,.76-.19.76.76,0,0,1,.46.13.85.85,0,0,1,.29.33,1.55,1.55,0,0,1,.16.5,3.81,3.81,0,0,1,0,.59,6.35,6.35,0,0,1-.08,1,8.19,8.19,0,0,1-.18.89c0,.21-.09.52-.16.91s-.14.85-.22,1.37-.18,1.06-.28,1.66-.2,1.2-.3,1.82-.21,1.22-.31,1.82-.2,1.16-.29,1.68-.16,1-.24,1.4-.13.73-.17,1-.06.25-.11.43a2.2,2.2,0,0,1-.22.53,1.5,1.5,0,0,1-.37.46.88.88,0,0,1-.58.19.58.58,0,0,1-.35-.11,1.23,1.23,0,0,1-.29-.31,1.47,1.47,0,0,1-.21-.39,1.59,1.59,0,0,1-.09-.38L136.06,5c0-.11,0-.2.05-.29a1,1,0,0,0,0-.24.85.85,0,0,0,0-.23,1.8,1.8,0,0,1-.05-.19L136,3.9a11.31,11.31,0,0,0-1.1,1c-.39.4-.79.85-1.19,1.34s-.79,1-1.19,1.56-.78,1.1-1.14,1.66l-.9,1.37-1,1.44c-.32.48-.64,1-1,1.45s-.59.94-.84,1.38a6.65,6.65,0,0,0-.37.82c-.13.33-.28.66-.43,1a4.81,4.81,0,0,1-.5.82.77.77,0,0,1-.61.34,1,1,0,0,1-.44-.08.67.67,0,0,1-.28-.21.85.85,0,0,1-.15-.3,1.61,1.61,0,0,1,0-.39,2.29,2.29,0,0,1,.05-.52c0-.18.07-.34.11-.5.15-.67.32-1.34.5-2s.35-1.34.54-2,.38-1.4.57-2.14.4-1.53.61-2.37c0-.23.11-.5.18-.79s.13-.59.19-.89.11-.59.15-.87a5.36,5.36,0,0,0,.06-.75,2,2,0,0,0,0-.48c0-.12-.08-.18-.17-.18a1.62,1.62,0,0,0-.89.32,5.33,5.33,0,0,0-.94.83,10.69,10.69,0,0,0-1,1.17c-.31.44-.61.89-.89,1.36s-.54.93-.78,1.39-.46.86-.63,1.23c0,.07-.09.18-.17.31s-.16.32-.28.56-.26.54-.43.92-.38.84-.61,1.41-.5,1.25-.8,2-.65,1.72-1,2.78a.91.91,0,0,1-.36.44.89.89,0,0,1-.53.18,1.12,1.12,0,0,1-.87-.32,1.21,1.21,0,0,1-.28-.79A2,2,0,0,1,117.24,16.91Z"/><path class="cls-1" d="M141.56,16.43a3.89,3.89,0,0,1,.05-.52,5.06,5.06,0,0,0,0-.74l-.54.42a7.21,7.21,0,0,1-.62.47,4.13,4.13,0,0,1-.63.37,1.28,1.28,0,0,1-.59.16,1.42,1.42,0,0,1-.42-.07,1.15,1.15,0,0,1-.35-.18,2.09,2.09,0,0,1-.56-.62,1.44,1.44,0,0,1-.18-.73,2.77,2.77,0,0,1,0-.39c0-.13.06-.28.11-.46a6.49,6.49,0,0,1,1-2.17,6.74,6.74,0,0,1,1.71-1.7,2,2,0,0,1,.79-.35,3.42,3.42,0,0,1,.77-.08l.39,0,.38,0,.28-.05h.23a1,1,0,0,1,.37.06.63.63,0,0,1,.23.16.48.48,0,0,1,.13.23.77.77,0,0,1,0,.27,1.15,1.15,0,0,1-.06.37c0,.11-.07.23-.11.35l-1,3.91c0,.21,0,.41-.06.59a2.1,2.1,0,0,1-.09.5l0,.16a.52.52,0,0,1-.11.19.56.56,0,0,1-.47.23,1.77,1.77,0,0,1-.37,0,.71.71,0,0,1-.21-.08.33.33,0,0,1-.1-.14A.9.9,0,0,1,141.56,16.43Zm-2.47-2.24a2.6,2.6,0,0,0-.06.3,2.43,2.43,0,0,0,0,.38,1,1,0,0,0,.06.36.24.24,0,0,0,.26.16,1.18,1.18,0,0,0,.58-.14,2.78,2.78,0,0,0,.51-.33,8.25,8.25,0,0,0,.65-.58,7.93,7.93,0,0,0,.62-.68,5.76,5.76,0,0,0,.52-.73,3.07,3.07,0,0,0,.33-.75,4.19,4.19,0,0,0,.1-.49,3.25,3.25,0,0,0,0-.51.43.43,0,0,0,0-.19.18.18,0,0,0-.17-.09,2.06,2.06,0,0,0-.73.14,2.86,2.86,0,0,0-.71.38,3.78,3.78,0,0,0-.65.56,5.13,5.13,0,0,0-.56.69,5.33,5.33,0,0,0-.44.76A5,5,0,0,0,139.09,14.19Z"/><path class="cls-1" d="M150.59,10.65a1.46,1.46,0,0,0-.55.13,3.41,3.41,0,0,0-.62.33c-.21.14-.43.29-.65.47s-.44.36-.65.54l-.31.26a.92.92,0,0,1-.3.17,4.78,4.78,0,0,0-.22.45c-.07.19-.15.39-.22.61s-.15.45-.21.68-.13.44-.17.64a2,2,0,0,0-.06.3c0,.1,0,.21,0,.32s-.05.23-.07.36-.06.27-.1.43a.62.62,0,0,1-.12.23,1,1,0,0,1-.17.13.41.41,0,0,1-.17.05h-.13a.74.74,0,0,1-.46-.13.61.61,0,0,1-.18-.52,1.7,1.7,0,0,1,0-.22,1.29,1.29,0,0,1,0-.25c.11-.47.22-.9.32-1.27s.2-.73.31-1,.21-.62.31-.91l.33-.86.35-.9c.12-.31.25-.65.39-1a.4.4,0,0,1,.23-.21.94.94,0,0,1,.41-.08.83.83,0,0,1,.46.12.43.43,0,0,1,.18.37.32.32,0,0,1,0,.08.61.61,0,0,1,0,.12l-.32.77.65-.49a6.2,6.2,0,0,1,.69-.44,5.67,5.67,0,0,1,.72-.32,2.21,2.21,0,0,1,.71-.12A1.57,1.57,0,0,1,152,9.8a1.57,1.57,0,0,1,.4,1.19,4,4,0,0,1-.16,1c-.11.39-.24.81-.4,1.25s-.33.92-.52,1.41-.36,1-.52,1.51a3.32,3.32,0,0,1-.13.35.8.8,0,0,1-.17.22.58.58,0,0,1-.23.13,1.35,1.35,0,0,1-.31,0,.57.57,0,0,1-.4-.1.46.46,0,0,1-.12-.35,2.79,2.79,0,0,1,.07-.51,5.55,5.55,0,0,1,.18-.66c.07-.24.16-.5.26-.77s.21-.55.33-.83.19-.45.28-.68.18-.45.25-.66.13-.42.17-.61a2.11,2.11,0,0,0,.07-.54.77.77,0,0,0-.1-.4A.4.4,0,0,0,150.59,10.65Z"/><path class="cls-1" d="M153.64,14.2a6.66,6.66,0,0,1,.25-.8,5.33,5.33,0,0,1,.4-.79,5.65,5.65,0,0,1,.57-.77,5.26,5.26,0,0,1,.76-.72,7.17,7.17,0,0,1,.63-.45,6.29,6.29,0,0,1,.67-.37,4.72,4.72,0,0,1,.69-.24,2.29,2.29,0,0,1,.68-.1,2.74,2.74,0,0,1,.43,0,1.9,1.9,0,0,1,.36.12c0-.17.18-.64.4-1.4s.48-1.81.79-3.16a.86.86,0,0,1,.23-.33.52.52,0,0,1,.35-.14,1.36,1.36,0,0,1,.29,0,.74.74,0,0,1,.26.1.79.79,0,0,1,.18.22.8.8,0,0,1,.06.34l-1.49,6a4.59,4.59,0,0,0-.13.68c0,.28-.07.58-.11.9s-.06.63-.08.94,0,.57,0,.79a3.31,3.31,0,0,1-.1.83,2.82,2.82,0,0,1-.09.3.46.46,0,0,1-.13.2.43.43,0,0,1-.2.11,1.3,1.3,0,0,1-.31,0,1,1,0,0,1-.34-.05.37.37,0,0,1-.17-.12.31.31,0,0,1-.07-.18,1.5,1.5,0,0,1,0-.22c0-.07,0-.15,0-.23a.67.67,0,0,0-.07-.24l-.24.16-.32.2-.3.18-.21.12-.38.21a5.11,5.11,0,0,1-.47.2,3.55,3.55,0,0,1-.52.15,2.48,2.48,0,0,1-.54.06,2.06,2.06,0,0,1-.65-.11,1.84,1.84,0,0,1-.57-.34,1.79,1.79,0,0,1-.39-.59,2.07,2.07,0,0,1-.15-.82,1.88,1.88,0,0,1,0-.34A2.06,2.06,0,0,1,153.64,14.2Zm1.28-.06a1.71,1.71,0,0,0-.06.43,1.78,1.78,0,0,0,0,.41.75.75,0,0,0,.14.33.73.73,0,0,0,.26.23,1.12,1.12,0,0,0,.44.08,1.32,1.32,0,0,0,.32,0,2.37,2.37,0,0,0,.34-.13l.31-.16.25-.16.52-.36a2.7,2.7,0,0,0,.43-.39,2,2,0,0,0,.34-.46,2.43,2.43,0,0,0,.24-.59l.13-.54c0-.16.07-.33.1-.48s.05-.32.08-.48,0-.34.07-.54a.45.45,0,0,0-.1-.09.41.41,0,0,0-.19,0,2.71,2.71,0,0,0-.65.1,4,4,0,0,0-.73.29,4.44,4.44,0,0,0-.74.45,5.42,5.42,0,0,0-.67.6,4.18,4.18,0,0,0-.53.72A2.85,2.85,0,0,0,154.92,14.14Z"/><path class="cls-1" d="M165.63,16.43a3.89,3.89,0,0,1,.05-.52,5.06,5.06,0,0,0,0-.74l-.54.42a7.21,7.21,0,0,1-.62.47,4.13,4.13,0,0,1-.63.37,1.28,1.28,0,0,1-.59.16,1.42,1.42,0,0,1-.42-.07,1.15,1.15,0,0,1-.35-.18,2.09,2.09,0,0,1-.56-.62,1.44,1.44,0,0,1-.18-.73,2.77,2.77,0,0,1,0-.39c0-.13.06-.28.11-.46a6.49,6.49,0,0,1,1-2.17,6.74,6.74,0,0,1,1.71-1.7,2,2,0,0,1,.79-.35,3.42,3.42,0,0,1,.77-.08l.39,0,.38,0,.28-.05h.22a1,1,0,0,1,.38.06.56.56,0,0,1,.23.16.48.48,0,0,1,.13.23.77.77,0,0,1,0,.27,1.5,1.5,0,0,1,0,.37,3.59,3.59,0,0,0-.12.35l-1,3.91c0,.21,0,.41-.06.59a2.1,2.1,0,0,1-.09.5l-.05.16a.52.52,0,0,1-.11.19.55.55,0,0,1-.18.16.52.52,0,0,1-.29.07,1.77,1.77,0,0,1-.37,0,.71.71,0,0,1-.21-.08.33.33,0,0,1-.1-.14A.9.9,0,0,1,165.63,16.43Zm-2.47-2.24a2.6,2.6,0,0,0-.06.3,2.43,2.43,0,0,0,0,.38,1,1,0,0,0,.06.36.24.24,0,0,0,.26.16,1.18,1.18,0,0,0,.58-.14,2.78,2.78,0,0,0,.51-.33,8.25,8.25,0,0,0,.65-.58c.22-.22.42-.44.62-.68a5.76,5.76,0,0,0,.52-.73,3.07,3.07,0,0,0,.33-.75,4.19,4.19,0,0,0,.1-.49,3.25,3.25,0,0,0,0-.51.43.43,0,0,0,0-.19.18.18,0,0,0-.17-.09,2.06,2.06,0,0,0-.73.14,2.86,2.86,0,0,0-.71.38,3.78,3.78,0,0,0-.65.56,5.13,5.13,0,0,0-.56.69,5.33,5.33,0,0,0-.44.76A5,5,0,0,0,163.16,14.19Z"/><path class="cls-1" d="M169.54,16c.07-.34.14-.72.22-1.14s.17-.83.26-1.26.18-.84.26-1.26.16-.78.22-1.12a.66.66,0,0,1,0-.13v-.13a3.67,3.67,0,0,1,0-.46c0-.15,0-.29.08-.42a1,1,0,0,1,.18-.38.45.45,0,0,1,.33-.1.66.66,0,0,1,.34.08.58.58,0,0,1,.21.23.8.8,0,0,1,.09.32,2.34,2.34,0,0,1,0,.38c0,.07,0,.14,0,.23a1.56,1.56,0,0,0,0,.2l.44-.44a4.72,4.72,0,0,1,.5-.41,3,3,0,0,1,.56-.3,1.58,1.58,0,0,1,.61-.12l.25,0,.25.06.3.1a1.09,1.09,0,0,1,.31.18,1.55,1.55,0,0,1,.42.46,1.07,1.07,0,0,1,.16.57.75.75,0,0,1,0,.24,1.34,1.34,0,0,1-.12.24.75.75,0,0,1-.19.17.38.38,0,0,1-.23.08,1.19,1.19,0,0,1-.31-.07.87.87,0,0,1-.3-.17.42.42,0,0,1-.1-.12l-.11-.16-.09-.16a.35.35,0,0,0-.06-.09h-.16a1.39,1.39,0,0,0-.72.2,3.19,3.19,0,0,0-.64.47,6.1,6.1,0,0,0-.55.59c-.16.21-.31.4-.43.57-.1.4-.21.83-.33,1.28s-.24.93-.36,1.42v.19c0,.15,0,.3,0,.45a1.24,1.24,0,0,1-.09.41.63.63,0,0,1-.23.19.78.78,0,0,1-.35.08.54.54,0,0,1-.47-.21.77.77,0,0,1-.16-.48A1.27,1.27,0,0,1,169.54,16Z"/><path class="cls-1" d="M175.85,15.39c.08-.29.16-.62.27-1s.21-.78.33-1.21.23-.86.35-1.31.23-.88.34-1.3a.29.29,0,0,1,.05-.1l.12-.14a1.05,1.05,0,0,1,.21-.12.73.73,0,0,1,.3-.05l.24,0,.22.08a.38.38,0,0,1,.14.14.32.32,0,0,1,.06.2v0a.07.07,0,0,1,0,0l-.21.79c-.23.88-.46,1.76-.7,2.65s-.48,1.77-.71,2.66c0,0,0,.07,0,.12l-.08.13a.69.69,0,0,1-.13.11.35.35,0,0,1-.18.05.74.74,0,0,1-.34-.08.82.82,0,0,1-.25-.2.87.87,0,0,1-.16-.26.86.86,0,0,1,0-.27v-.06a.25.25,0,0,1,0-.07Zm1.94-7.68a2.14,2.14,0,0,1,.13-.38,1.06,1.06,0,0,1,.34-.4,1.57,1.57,0,0,1,.29-.13,1.32,1.32,0,0,1,.25,0,.3.3,0,0,1,.15,0l.14.11a1.15,1.15,0,0,1,.14.17.27.27,0,0,1,.24.13.61.61,0,0,1,.06.28.78.78,0,0,1,0,.22q0,.09,0,.15a.72.72,0,0,1-.17.29,1.58,1.58,0,0,1-.29.22,2.07,2.07,0,0,1-.34.15,1.39,1.39,0,0,1-.32.05.48.48,0,0,1-.26-.06,1.17,1.17,0,0,1-.23-.25.56.56,0,0,1-.1-.18s0-.08,0-.11,0-.1,0-.14Z"/><path class="cls-1" d="M185,10.65a1.46,1.46,0,0,0-.55.13,3.41,3.41,0,0,0-.62.33c-.21.14-.43.29-.65.47s-.44.36-.65.54l-.31.26a.92.92,0,0,1-.3.17,4.78,4.78,0,0,0-.22.45c-.07.19-.15.39-.22.61s-.15.45-.21.68-.13.44-.17.64a2,2,0,0,0-.06.3c0,.1,0,.21-.05.32s-.05.23-.07.36-.06.27-.1.43a.62.62,0,0,1-.12.23,1,1,0,0,1-.17.13.41.41,0,0,1-.17.05h-.13a.74.74,0,0,1-.46-.13.61.61,0,0,1-.18-.52,1.7,1.7,0,0,1,0-.22,1.29,1.29,0,0,1,0-.25c.11-.47.22-.9.32-1.27s.2-.73.31-1,.21-.62.31-.91l.33-.86.35-.9c.12-.31.25-.65.39-1a.44.44,0,0,1,.23-.21.94.94,0,0,1,.41-.08.83.83,0,0,1,.46.12.43.43,0,0,1,.18.37.32.32,0,0,1,0,.08.61.61,0,0,1-.05.12l-.32.77.65-.49a6.2,6.2,0,0,1,.69-.44,5.67,5.67,0,0,1,.72-.32,2.21,2.21,0,0,1,.71-.12,1.57,1.57,0,0,1,1.11.38,1.57,1.57,0,0,1,.4,1.19,4,4,0,0,1-.16,1c-.11.39-.24.81-.4,1.25s-.33.92-.52,1.41-.36,1-.52,1.51a3.32,3.32,0,0,1-.13.35.8.8,0,0,1-.17.22.65.65,0,0,1-.23.13,1.35,1.35,0,0,1-.31,0,.57.57,0,0,1-.4-.1.46.46,0,0,1-.11-.35,2.67,2.67,0,0,1,.06-.51,5.55,5.55,0,0,1,.18-.66c.07-.24.16-.5.26-.77s.22-.55.34-.83L185,13c.09-.23.18-.45.25-.66s.13-.42.17-.61a2.11,2.11,0,0,0,.07-.54.77.77,0,0,0-.1-.4A.4.4,0,0,0,185,10.65Z"/></g></g></svg>