<svg xmlns="http://www.w3.org/2000/svg" xmlns:xlink="http://www.w3.org/1999/xlink" viewBox="0 0 196 112.4"><defs><style>.cls-1{fill:#f8bc00;}.cls-2{fill:#fcd776;}.cls-3{fill:#fde5a7;}.cls-4{fill:#fff3d6;}.cls-5{fill:#eb5e00;}.cls-6{fill:url(#新增漸層色票_1);}.cls-7{fill:url(#新增漸層色票_1-2);}.cls-8{fill:url(#新增漸層色票_1-3);}.cls-9{font-size:14px;fill:#231815;font-family:YenRound-Bold;font-weight:700;letter-spacing:0.75em;}</style><radialGradient id="新增漸層色票_1" cx="88.39" cy="-11.77" r="65.27" gradientUnits="userSpaceOnUse"><stop offset="0" stop-color="#00afec"/><stop offset="1" stop-color="#00428d"/></radialGradient><radialGradient id="新增漸層色票_1-2" cx="88.5" cy="-12.29" r="65.81" xlink:href="#新增漸層色票_1"/><radialGradient id="新增漸層色票_1-3" cx="88.39" cy="-11.78" r="65.27" xlink:href="#新增漸層色票_1"/></defs><g id="圖層_2" data-name="圖層 2"><g id="圖層_1-2" data-name="圖層 1"><path class="cls-1" d="M88.94,32.87a44.28,44.28,0,0,1,7.83-1.46V8.27a27.23,27.23,0,0,0-7.83-1.45Z"/><path class="cls-2" d="M99.62,31.22a47.51,47.51,0,0,1,8.06.42V14.17a42,42,0,0,0-8.06-4.78Z"/><path class="cls-3" d="M110.58,32.13a52.3,52.3,0,0,1,8,2.31V24.59a73.55,73.55,0,0,0-8-8.11Z"/><path class="cls-4" d="M121.48,28.1v7.5a58.75,58.75,0,0,1,7.83,4.19v-.24A119.36,119.36,0,0,0,121.48,28.1Z"/><path class="cls-5" d="M114,41.48c-13.7,5.36-28.7,13.11-41,23.28C89.54,51.9,111,43.87,127.61,40.65c-5.23-2-10.94-4.65-16.83-5.07C111.85,37,112.91,39.91,114,41.48Z"/><path class="cls-6" d="M81.11,24.1V2A17.29,17.29,0,0,0,65.8,1.62v24A23.32,23.32,0,0,1,81.11,24.1Z"/><path class="cls-7" d="M85.18,51.36s0,0,0,.06S85.2,51.38,85.18,51.36Z"/><path class="cls-8" d="M86.06,33.93V5.74a22.15,22.15,0,0,0-3.88-2.92v23a23.24,23.24,0,0,0-18.12,1.78V2.72A21.5,21.5,0,0,0,60.85,5V33.82A22.85,22.85,0,0,1,66,31.33c-.26,2.59-2,16.72-4.71,19.12A10.17,10.17,0,0,1,66.84,53,19.1,19.1,0,0,1,73,63.17V51a3.07,3.07,0,1,1,1,0V63.57C76.13,55,84.7,51.09,85.18,51.36c-2.29-6-3.91-17-4.23-20A23.19,23.19,0,0,1,86.06,33.93Z"/><path class="cls-5" d="M4.49,84.89c.26.09.52.2.79.32s.55.24.84.35a8.57,8.57,0,0,0,.9.28A4.67,4.67,0,0,0,8,86,5.57,5.57,0,0,0,9.3,85.8a6,6,0,0,0,1.25-.44,7.3,7.3,0,0,0,1.16-.7,6.28,6.28,0,0,0,1-1,12.3,12.3,0,0,0,.85-1c.23-.32.42-.6.56-.84a3.86,3.86,0,0,0,.3-.64,1.48,1.48,0,0,0,.09-.46.71.71,0,0,0-.19-.5,1.53,1.53,0,0,0-.52-.35,3.61,3.61,0,0,0-.74-.2,5.87,5.87,0,0,0-.85-.06l-.62,0-.72,0-.7,0H9.6a4.3,4.3,0,0,1-.78-.08A3.39,3.39,0,0,1,8,79.32a2.79,2.79,0,0,1-.72-.53A2.54,2.54,0,0,1,6.77,78a2.25,2.25,0,0,1-.13-.37,1.78,1.78,0,0,1-.06-.47,4.22,4.22,0,0,1,0-.52c0-.16.06-.32.1-.47A4.42,4.42,0,0,1,7.25,75a8.28,8.28,0,0,1,.89-1.15,16.11,16.11,0,0,1,2.38-2.06c.43-.31.85-.59,1.27-.84s.8-.45,1.15-.63a7,7,0,0,1,1.54-.53A7.39,7.39,0,0,1,16,69.61a3.1,3.1,0,0,1,.87.12,2.17,2.17,0,0,1,.72.34,1.61,1.61,0,0,1,.5.57,1.59,1.59,0,0,1,.18.77,1.33,1.33,0,0,1-.06.42.75.75,0,0,1-.15.28.48.48,0,0,1-.2.15.54.54,0,0,1-.22,0,2.45,2.45,0,0,1-.56-.07l-.5-.16-.48-.15a1.46,1.46,0,0,0-.52-.08,4.7,4.7,0,0,0-1.72.34,9.91,9.91,0,0,0-1.69.85,13.52,13.52,0,0,0-1.57,1.16c-.49.43-.92.84-1.31,1.24a2.09,2.09,0,0,0-.45.64,1.38,1.38,0,0,0-.14.6.76.76,0,0,0,.36.67,1.57,1.57,0,0,0,.89.23h.69l.8,0,.78,0,.68,0a4.76,4.76,0,0,1,1.36.2,3.79,3.79,0,0,1,1.15.59,3,3,0,0,1,.8,1,2.85,2.85,0,0,1,.3,1.32,3.3,3.3,0,0,1-.13.92,5.29,5.29,0,0,1-.38.94,8.21,8.21,0,0,1-.55.94c-.2.31-.42.61-.64.9a12.29,12.29,0,0,1-1.38,1.51A10,10,0,0,1,11.84,87a8,8,0,0,1-1.81.83,6.12,6.12,0,0,1-1.95.31,5.45,5.45,0,0,1-.89-.08,4.59,4.59,0,0,1-.9-.24,4.58,4.58,0,0,1-.84-.38,3.71,3.71,0,0,1-.69-.53,2.49,2.49,0,0,1-.47-.66,1.72,1.72,0,0,1-.18-.78,1.23,1.23,0,0,1,.06-.39A.3.3,0,0,1,4.49,84.89Z"/><path class="cls-5" d="M17.66,85.87c.15-.58.29-1.12.43-1.62s.27-1,.41-1.44.25-.9.38-1.33.24-.87.35-1.32a2.26,2.26,0,0,0,.08-.5,3,3,0,0,1,.07-.5.42.42,0,0,1,.11-.16.66.66,0,0,1,.17-.12.9.9,0,0,1,.21-.08l.2,0a.89.89,0,0,1,.35,0,.54.54,0,0,1,.22.13.39.39,0,0,1,.12.19,1,1,0,0,1,0,.26,1.51,1.51,0,0,1-.08.51c-.05.17-.12.35-.2.56a7.3,7.3,0,0,1,.72-.52,5.16,5.16,0,0,1,.75-.43,4.09,4.09,0,0,1,.8-.3,3.41,3.41,0,0,1,.85-.11,1.39,1.39,0,0,1,.4.06,1.07,1.07,0,0,1,.36.2,1,1,0,0,1,.27.35,1.33,1.33,0,0,1,.12.52l.66-.43a6,6,0,0,1,.69-.39,4.54,4.54,0,0,1,.71-.28,2.12,2.12,0,0,1,.69-.11,2.17,2.17,0,0,1,.82.13,1.26,1.26,0,0,1,.51.35,1.16,1.16,0,0,1,.27.5,2.51,2.51,0,0,1,.08.62,4.86,4.86,0,0,1-.07.74q-.08.38-.15.72c-.14.57-.3,1.11-.48,1.63s-.37,1-.58,1.55c-.05.13-.1.26-.16.4a2.69,2.69,0,0,1-.19.38,1.16,1.16,0,0,1-.25.29.58.58,0,0,1-.34.11.9.9,0,0,1-.6-.15.54.54,0,0,1-.16-.42,1,1,0,0,1,0-.17.63.63,0,0,1,0-.19,2.22,2.22,0,0,1,.14-.32l.22-.46.24-.49a4.08,4.08,0,0,0,.18-.43l.23-.74c.09-.28.17-.56.25-.85s.14-.55.19-.81a2.69,2.69,0,0,0,.08-.62,1.64,1.64,0,0,0,0-.22.41.41,0,0,0-.08-.19.5.5,0,0,0-.15-.14.67.67,0,0,0-.26,0,1.32,1.32,0,0,0-.53.13,3.55,3.55,0,0,0-.64.33,5.41,5.41,0,0,0-.64.46,4.46,4.46,0,0,0-.54.51,4,4,0,0,1-.29.29,1.46,1.46,0,0,1-.29.17l-.07.19-.14.4c-.06.16-.11.33-.17.51l-.17.5c0,.16-.09.29-.13.4s-.05.16-.05.17-.06.28-.09.43-.05.28-.07.42,0,.27,0,.42a1.43,1.43,0,0,1-.11.43.66.66,0,0,1-.68.45.5.5,0,0,1-.27-.08.79.79,0,0,1-.22-.19.92.92,0,0,1-.14-.26,1.36,1.36,0,0,1-.06-.29c.12-.44.23-.85.34-1.2l.32-1c.11-.32.22-.65.32-1s.2-.69.3-1.09a1.27,1.27,0,0,0,.06-.28,2.32,2.32,0,0,0,0-.24.52.52,0,0,0-.07-.29.29.29,0,0,0-.26-.12,1.49,1.49,0,0,0-.61.13,3.28,3.28,0,0,0-.65.38,7.86,7.86,0,0,0-.77.66c-.29.27-.61.59-1,1a2.34,2.34,0,0,0-.15.41c-.07.21-.13.42-.2.65s-.13.44-.18.63-.09.33-.1.39a2.79,2.79,0,0,0-.11.53c0,.14,0,.27-.06.38s0,.16,0,.29a2.17,2.17,0,0,1-.11.42,1.2,1.2,0,0,1-.22.36.46.46,0,0,1-.37.16.86.86,0,0,1-.56-.18.59.59,0,0,1-.22-.47.31.31,0,0,1,0-.1A.29.29,0,0,1,17.66,85.87Z"/><path class="cls-5" d="M34.32,86a3.61,3.61,0,0,1,0-.52,4,4,0,0,0,.05-.75c-.16.12-.34.26-.54.43s-.4.32-.61.47a6.15,6.15,0,0,1-.64.37,1.39,1.39,0,0,1-.59.15,1.42,1.42,0,0,1-.42-.06,1.2,1.2,0,0,1-.34-.18,2.17,2.17,0,0,1-.57-.63,1.4,1.4,0,0,1-.18-.72,1.72,1.72,0,0,1,0-.39,3.53,3.53,0,0,1,.1-.46,6.65,6.65,0,0,1,2.67-3.88,2.11,2.11,0,0,1,.79-.35,4.13,4.13,0,0,1,.78-.08l.38,0,.38,0,.28-.05.23,0a1,1,0,0,1,.37.06.72.72,0,0,1,.24.16,1,1,0,0,1,.13.23,1.26,1.26,0,0,1,0,.27,1.15,1.15,0,0,1-.06.37l-.12.35-1,3.92c0,.21,0,.4,0,.58a3.44,3.44,0,0,1-.09.5,1.07,1.07,0,0,0-.06.17.62.62,0,0,1-.11.19.69.69,0,0,1-.18.16.52.52,0,0,1-.29.07,1.83,1.83,0,0,1-.37,0,.51.51,0,0,1-.21-.09.26.26,0,0,1-.1-.13A.9.9,0,0,1,34.32,86Zm-2.46-2.25c0,.07,0,.17-.07.3a2.56,2.56,0,0,0,0,.39,1,1,0,0,0,.06.36.26.26,0,0,0,.26.16,1.27,1.27,0,0,0,.58-.14,2.78,2.78,0,0,0,.51-.33c.21-.17.43-.37.65-.58s.43-.45.62-.68a5.76,5.76,0,0,0,.52-.73,3.07,3.07,0,0,0,.33-.75,2.94,2.94,0,0,0,.1-.5,3.13,3.13,0,0,0,0-.5.41.41,0,0,0,0-.19.18.18,0,0,0-.17-.09,1.89,1.89,0,0,0-.73.14,3.05,3.05,0,0,0-.71.38,3.39,3.39,0,0,0-.65.56,4.69,4.69,0,0,0-.56.69,4.74,4.74,0,0,0-.44.75A4.35,4.35,0,0,0,31.86,83.79Z"/><path class="cls-5" d="M38.23,85.59c.07-.35.14-.73.23-1.14s.17-.84.26-1.26.17-.85.26-1.26.15-.79.21-1.13c0,0,0-.09,0-.13v-.12a3.55,3.55,0,0,1,0-.46,3.94,3.94,0,0,1,.08-.42,1,1,0,0,1,.19-.39.45.45,0,0,1,.32-.1.63.63,0,0,1,.35.09.7.7,0,0,1,.2.22,1.15,1.15,0,0,1,.1.33c0,.12,0,.24,0,.37a1.85,1.85,0,0,1,0,.23c0,.09,0,.15,0,.2l.45-.44a4.83,4.83,0,0,1,.49-.41,3,3,0,0,1,.56-.3,1.62,1.62,0,0,1,.61-.12,1,1,0,0,1,.25,0,1.14,1.14,0,0,1,.25.06,1.39,1.39,0,0,1,.31.1,1.59,1.59,0,0,1,.31.17,1.65,1.65,0,0,1,.41.46,1.12,1.12,0,0,1,.16.57.67.67,0,0,1,0,.24.9.9,0,0,1-.12.24,1,1,0,0,1-.18.18.39.39,0,0,1-.23.07,1,1,0,0,1-.31-.06.87.87,0,0,1-.3-.17.5.5,0,0,1-.11-.13.86.86,0,0,1-.1-.16.6.6,0,0,1-.09-.15.25.25,0,0,0-.07-.09l-.08,0h-.08a1.55,1.55,0,0,0-.72.19,3.24,3.24,0,0,0-.64.48,5.12,5.12,0,0,0-.55.59c-.16.21-.31.4-.43.57-.1.4-.21.83-.33,1.28s-.24.93-.36,1.42v.18c0,.15,0,.3,0,.46a1.3,1.3,0,0,1-.09.41,1,1,0,0,1-.24.19.78.78,0,0,1-.35.07.55.55,0,0,1-.47-.2.81.81,0,0,1-.15-.48A1.22,1.22,0,0,1,38.23,85.59Z"/><path class="cls-5" d="M45.62,84.05a6.62,6.62,0,0,1,.14-1.3q.15-.68.3-1.29a1.32,1.32,0,0,1-.39-.06,1.35,1.35,0,0,1-.37-.14A.71.71,0,0,1,45,81a.4.4,0,0,1-.11-.3.67.67,0,0,1,0-.17.72.72,0,0,1,.09-.2.39.39,0,0,1,.14-.17.31.31,0,0,1,.2-.07h1a.19.19,0,0,0,.19-.13,2.25,2.25,0,0,0,.08-.24c.06-.28.13-.53.18-.74l.15-.54c0-.14.07-.26.09-.35a1.22,1.22,0,0,0,0-.22v-.19a1.63,1.63,0,0,1,0-.24V77.4a.86.86,0,0,1,0-.15,1.6,1.6,0,0,1,.07-.28.77.77,0,0,1,.16-.27.48.48,0,0,1,.35-.12.68.68,0,0,1,.34.08.67.67,0,0,1,.23.21,1.09,1.09,0,0,1,.14.31,1.32,1.32,0,0,1,0,.34,1.61,1.61,0,0,1,0,.33l-.55,2.08.72-.12.62-.12.59-.13.43-.1.3-.06.2,0,.24,0a.71.71,0,0,1,.22.06.37.37,0,0,1,.15.13.33.33,0,0,1,.06.21.66.66,0,0,1-.07.32,1.08,1.08,0,0,1-.18.24,1.13,1.13,0,0,1-.26.16,1.31,1.31,0,0,1-.28.09l-.31.07-.41.1-.47.11-.48.11-.58.15-.41.09-.28,0h-.18c-.09.28-.17.56-.24.83s-.13.53-.18.76-.08.45-.1.64a4.22,4.22,0,0,0,0,.43,2.34,2.34,0,0,0,0,.38,1,1,0,0,0,.13.32.61.61,0,0,0,.24.21.86.86,0,0,0,.38.08,1.51,1.51,0,0,0,.78-.22,3.56,3.56,0,0,0,.72-.54,6.51,6.51,0,0,0,.65-.73q.31-.39.57-.75a.27.27,0,0,1,.23-.13h.11a.34.34,0,0,1,.12.06.28.28,0,0,1,.1.09.23.23,0,0,1,0,.14V83a4.5,4.5,0,0,1-.37.93l-.51.93a2.13,2.13,0,0,1-.23.32l-.32.3a3.38,3.38,0,0,1-.36.27L48.9,86a1.74,1.74,0,0,1-.62.24,2.94,2.94,0,0,1-.65.07,1.93,1.93,0,0,1-.85-.18,1.78,1.78,0,0,1-.64-.47,2.18,2.18,0,0,1-.39-.7A3,3,0,0,1,45.62,84.05Z"/><path class="cls-5" d="M54.45,82.42a21.92,21.92,0,0,1,.66-2.17c.27-.75.55-1.52.85-2.3s.59-1.58.87-2.39.54-1.61.75-2.42c.05-.2.09-.38.13-.55s.08-.34.12-.53a1.07,1.07,0,0,1,.37-.46.83.83,0,0,1,.5-.16,1.51,1.51,0,0,1,.48.08.89.89,0,0,1,.38.26,1.23,1.23,0,0,1,.27.45,2.08,2.08,0,0,1,.09.65,4.23,4.23,0,0,1-.12.93c-.3.76-.6,1.51-.9,2.24s-.6,1.44-.89,2.14-.54,1.39-.79,2.07-.45,1.36-.62,2c0,.06-.05.17-.1.35s-.09.39-.14.64-.09.52-.13.81a5.87,5.87,0,0,0-.06.82,4.07,4.07,0,0,0,0,.52,1.58,1.58,0,0,0,.11.43.63.63,0,0,0,.22.28.53.53,0,0,0,.34.11,2,2,0,0,0,1.06-.45,9.6,9.6,0,0,0,1.36-1.23c.48-.52,1-1.12,1.5-1.81s1-1.43,1.49-2.22.94-1.61,1.36-2.44a21.72,21.72,0,0,0,1.06-2.48.51.51,0,0,1,.25-.27.88.88,0,0,1,.39-.07,1.05,1.05,0,0,1,.74.27.86.86,0,0,1,.31.69.58.58,0,0,1,0,.19,1.23,1.23,0,0,1-.06.22l-.16.47-.35,1c-.11.3-.2.59-.27.85s-.18.73-.24,1-.11.61-.14.88a7.78,7.78,0,0,0-.07.82c0,.27,0,.54,0,.81,0,.1,0,.26,0,.47s0,.43.09.67.09.5.15.76a6.38,6.38,0,0,0,.23.7,2,2,0,0,0,.31.52.53.53,0,0,0,.4.19,1.23,1.23,0,0,0,.75-.29,4.52,4.52,0,0,0,.79-.79,11.15,11.15,0,0,0,.8-1.19c.27-.46.54-1,.79-1.47s.5-1.07.73-1.63.44-1.12.64-1.67.36-1.09.51-1.6.27-1,.36-1.41.16-.79.22-1.17L72,73.46c.06-.38.12-.76.2-1.15s.16-.78.27-1.18a1.73,1.73,0,0,1,.17-.44,1.92,1.92,0,0,1,.28-.42,1.74,1.74,0,0,1,.36-.31.7.7,0,0,1,.39-.11.78.78,0,0,1,.7.27,1.81,1.81,0,0,1,.18.93,10,10,0,0,1-.08,1.12c-.06.43-.13.87-.22,1.34s-.19.94-.29,1.42-.21.93-.32,1.36A23.48,23.48,0,0,1,72.84,79c-.35.93-.74,1.84-1.17,2.72s-.89,1.72-1.37,2.51a15.89,15.89,0,0,1-1.45,2,6.82,6.82,0,0,1-.6.61,5.87,5.87,0,0,1-.73.56,5.5,5.5,0,0,1-.8.41,2.07,2.07,0,0,1-.78.17,2,2,0,0,1-1.32-.46,3.43,3.43,0,0,1-.86-1.23,7.27,7.27,0,0,1-.51-1.76,18.75,18.75,0,0,1-.26-2q-.65.95-1.17,1.68a15.56,15.56,0,0,1-1.08,1.37c-.27.31-.58.65-.92,1a10.34,10.34,0,0,1-1.09,1,6.63,6.63,0,0,1-1.18.77,2.65,2.65,0,0,1-1.18.3,2.32,2.32,0,0,1-1.12-.24,1.82,1.82,0,0,1-.73-.64,2.82,2.82,0,0,1-.39-1A5.7,5.7,0,0,1,54,85.56,10.41,10.41,0,0,1,54.13,84C54.22,83.48,54.32,83,54.45,82.42Z"/><path class="cls-5" d="M73.18,85.59c.07-.35.14-.73.22-1.14s.18-.84.26-1.26.18-.85.26-1.26.16-.79.22-1.13a.62.62,0,0,1,0-.13v-.12a3.55,3.55,0,0,1,0-.46,3.94,3.94,0,0,1,.08-.42,1.19,1.19,0,0,1,.18-.39.5.5,0,0,1,.33-.1.57.57,0,0,1,.34.09.63.63,0,0,1,.21.22.9.9,0,0,1,.09.33,2.22,2.22,0,0,1,0,.37c0,.07,0,.15,0,.23a1.64,1.64,0,0,0,0,.2l.44-.44a5,5,0,0,1,.5-.41,3,3,0,0,1,.56-.3,1.58,1.58,0,0,1,.61-.12,1.07,1.07,0,0,1,.25,0l.25.06a1.39,1.39,0,0,1,.31.1,1.52,1.52,0,0,1,.3.17,1.69,1.69,0,0,1,.42.46,1.12,1.12,0,0,1,.16.57.67.67,0,0,1,0,.24.9.9,0,0,1-.12.24,1.07,1.07,0,0,1-.19.18.37.37,0,0,1-.23.07,1,1,0,0,1-.3-.06.83.83,0,0,1-.31-.17.49.49,0,0,1-.1-.13A.91.91,0,0,1,77.8,81l-.09-.15a.26.26,0,0,0-.06-.09l-.08,0h-.08a1.55,1.55,0,0,0-.72.19,3.24,3.24,0,0,0-.64.48,5.12,5.12,0,0,0-.55.59c-.16.21-.31.4-.43.57-.1.4-.21.83-.33,1.28s-.24.93-.36,1.42v.18c0,.15,0,.3,0,.46a1.3,1.3,0,0,1-.09.41.75.75,0,0,1-.23.19.78.78,0,0,1-.35.07.54.54,0,0,1-.47-.2.81.81,0,0,1-.16-.48A1.27,1.27,0,0,1,73.18,85.59Z"/><path class="cls-5" d="M79.49,85c.08-.29.17-.62.27-1s.21-.78.33-1.21.23-.86.35-1.3l.34-1.3a.29.29,0,0,1,0-.1.53.53,0,0,1,.12-.14,1.07,1.07,0,0,1,.21-.13.9.9,0,0,1,.3,0,1,1,0,0,1,.24,0,.83.83,0,0,1,.22.08.35.35,0,0,1,.14.13.36.36,0,0,1,.06.2v0a.09.09,0,0,1,0,0l-.2.78c-.24.89-.47,1.77-.71,2.65s-.48,1.78-.71,2.67a.76.76,0,0,1,0,.11,1,1,0,0,1-.08.14.69.69,0,0,1-.13.11.34.34,0,0,1-.18,0,.66.66,0,0,1-.34-.08.79.79,0,0,1-.25-.19,1,1,0,0,1-.16-.26,1,1,0,0,1,0-.27v-.07a.14.14,0,0,1,0-.06Zm1.94-7.69a2.45,2.45,0,0,1,.13-.38,1.08,1.08,0,0,1,.35-.4,2,2,0,0,1,.28-.12.81.81,0,0,1,.25,0,.23.23,0,0,1,.15,0l.14.11a1.07,1.07,0,0,1,.14.16.27.27,0,0,1,.24.14.58.58,0,0,1,.06.28.66.66,0,0,1,0,.21,1.57,1.57,0,0,1,0,.16.68.68,0,0,1-.17.28,1.28,1.28,0,0,1-.29.23,1.63,1.63,0,0,1-.34.14,1,1,0,0,1-.32,0,.48.48,0,0,1-.26-.06,1,1,0,0,1-.23-.25.45.45,0,0,1-.1-.17s0-.08,0-.11,0-.1,0-.14Z"/><path class="cls-5" d="M84.41,84.05a6.62,6.62,0,0,1,.14-1.3q.15-.68.3-1.29a1.32,1.32,0,0,1-.39-.06,1.49,1.49,0,0,1-.37-.14.92.92,0,0,1-.26-.22.44.44,0,0,1-.11-.3.67.67,0,0,1,0-.17.72.72,0,0,1,.09-.2A.47.47,0,0,1,84,80.2a.31.31,0,0,1,.2-.07h1a.18.18,0,0,0,.19-.13,1.13,1.13,0,0,0,.08-.24c.07-.28.13-.53.19-.74s.1-.39.14-.54.07-.26.09-.35a.79.79,0,0,0,0-.22c0-.07,0-.13,0-.19a1.63,1.63,0,0,1,0-.24V77.4s0-.09,0-.15A1.6,1.6,0,0,1,86,77a.81.81,0,0,1,.17-.27.46.46,0,0,1,.35-.12.74.74,0,0,1,.34.08.77.77,0,0,1,.23.21,1.07,1.07,0,0,1,.13.31,1.33,1.33,0,0,1,0,.34,1.57,1.57,0,0,1,0,.33l-.54,2.08.71-.12.62-.12.59-.13.43-.1.3-.06.2,0,.25,0a.65.65,0,0,1,.21.06.37.37,0,0,1,.15.13.33.33,0,0,1,.06.21.66.66,0,0,1-.07.32.84.84,0,0,1-.18.24,1.07,1.07,0,0,1-.25.16l-.28.09-.31.07-.42.1-.47.11-.47.11-.59.15-.41.09-.28,0h-.17c-.1.28-.18.56-.25.83s-.12.53-.17.76-.08.45-.11.64a4.22,4.22,0,0,0,0,.43,1.58,1.58,0,0,0,0,.38,1,1,0,0,0,.12.32.58.58,0,0,0,.25.21.82.82,0,0,0,.38.08,1.48,1.48,0,0,0,.77-.22,3.56,3.56,0,0,0,.72-.54,7.76,7.76,0,0,0,.66-.73l.57-.75a.25.25,0,0,1,.23-.13h.1a.31.31,0,0,1,.13.06.28.28,0,0,1,.1.09.33.33,0,0,1,0,.14s0,.07,0,.09a4,4,0,0,1-.37.93q-.24.47-.51.93a1.6,1.6,0,0,1-.23.32c-.1.1-.2.2-.32.3s-.23.19-.35.27l-.35.24a1.74,1.74,0,0,1-.62.24,2.91,2.91,0,0,1-.64.07,1.94,1.94,0,0,1-.86-.18,1.74,1.74,0,0,1-.63-.47,2.18,2.18,0,0,1-.39-.7A2.72,2.72,0,0,1,84.41,84.05Z"/><path class="cls-5" d="M91.36,85c.08-.29.17-.62.27-1s.21-.78.33-1.21.24-.86.35-1.3l.34-1.3a.29.29,0,0,1,0-.1.43.43,0,0,1,.13-.14.77.77,0,0,1,.2-.13.94.94,0,0,1,.3,0,1,1,0,0,1,.25,0,.66.66,0,0,1,.21.08.47.47,0,0,1,.15.13.46.46,0,0,1,0,.2v0a.09.09,0,0,1,0,0l-.2.78c-.24.89-.47,1.77-.71,2.65s-.48,1.78-.7,2.67l-.05.11a1,1,0,0,1-.08.14.47.47,0,0,1-.13.11.33.33,0,0,1-.17,0,.67.67,0,0,1-.35-.08.79.79,0,0,1-.25-.19.76.76,0,0,1-.15-.26.74.74,0,0,1-.06-.27v-.07a.14.14,0,0,1,0-.06Zm1.94-7.69c0-.1.07-.23.13-.38a1.08,1.08,0,0,1,.35-.4l.29-.12a.72.72,0,0,1,.24,0,.23.23,0,0,1,.15,0l.14.11a1.07,1.07,0,0,1,.14.16.25.25,0,0,1,.24.14.58.58,0,0,1,.06.28,1.25,1.25,0,0,1,0,.21c0,.07,0,.12,0,.16a.68.68,0,0,1-.17.28,1.28,1.28,0,0,1-.29.23,1.43,1.43,0,0,1-.34.14,1,1,0,0,1-.31,0,.49.49,0,0,1-.27-.06,1,1,0,0,1-.23-.25.31.31,0,0,1-.09-.17.52.52,0,0,1,0-.11.59.59,0,0,1,0-.14A.51.51,0,0,1,93.3,77.31Z"/><path class="cls-5" d="M100.5,80.26a1.49,1.49,0,0,0-.56.12,3.77,3.77,0,0,0-.62.33c-.21.14-.43.3-.65.47l-.65.55-.31.26a1.52,1.52,0,0,1-.3.17,2.41,2.41,0,0,0-.21.45c-.08.19-.16.39-.23.61s-.15.44-.21.67-.13.45-.17.65l-.06.3c0,.1,0,.2,0,.32s0,.23-.07.36-.06.27-.1.43a.57.57,0,0,1-.12.22.64.64,0,0,1-.17.13l-.17.06h-.13a.74.74,0,0,1-.46-.13.63.63,0,0,1-.18-.52c0-.07,0-.15,0-.22a1.47,1.47,0,0,1,0-.26c.1-.47.21-.89.31-1.27s.21-.72.31-1,.21-.63.31-.91l.33-.87c.11-.29.23-.58.35-.89l.39-1a.37.37,0,0,1,.23-.21,1,1,0,0,1,.41-.09.74.74,0,0,1,.46.13.4.4,0,0,1,.18.36.28.28,0,0,1,0,.08s0,.08,0,.13L98,80.4c.21-.16.42-.33.65-.49a6.2,6.2,0,0,1,.69-.44,4.54,4.54,0,0,1,.72-.32,2.25,2.25,0,0,1,.71-.12,1.53,1.53,0,0,1,1.11.38,1.55,1.55,0,0,1,.4,1.18,3.89,3.89,0,0,1-.16,1c-.1.39-.24.81-.4,1.26s-.33.92-.52,1.41-.36,1-.51,1.5c0,.14-.1.26-.14.35a.69.69,0,0,1-.17.23.46.46,0,0,1-.23.12.93.93,0,0,1-.31,0,.58.58,0,0,1-.4-.11.44.44,0,0,1-.11-.34,2.67,2.67,0,0,1,.06-.51,5.55,5.55,0,0,1,.18-.66c.08-.24.16-.5.27-.77s.21-.55.33-.83.18-.46.28-.69.17-.44.24-.66a5.1,5.1,0,0,0,.17-.61,2.09,2.09,0,0,0,.07-.53.8.8,0,0,0-.1-.41A.4.4,0,0,0,100.5,80.26Z"/><path class="cls-5" d="M104,89.79l-.14,0a.35.35,0,0,1-.13-.08.49.49,0,0,1-.11-.14.46.46,0,0,1,0-.21.55.55,0,0,1,0-.17,4,4,0,0,1,.12-.4.69.69,0,0,1,.2-.25,1,1,0,0,1,.34-.18l.56-.14.42-.1a1.06,1.06,0,0,0,.32-.14,4.17,4.17,0,0,0,.65-.69,4.65,4.65,0,0,0,.44-.74,6.67,6.67,0,0,0,.31-.78c.08-.27.16-.54.23-.82a2.45,2.45,0,0,0,.08-.29c0-.1,0-.22.08-.35-.18.17-.38.33-.58.49a5.12,5.12,0,0,1-.63.44,3.56,3.56,0,0,1-.65.32,1.91,1.91,0,0,1-.65.12,1,1,0,0,1-.44-.12,1.9,1.9,0,0,1-.45-.31,1.78,1.78,0,0,1-.37-.45,1,1,0,0,1-.15-.54,1.81,1.81,0,0,1,0-.38c0-.14,0-.27.08-.37a4.26,4.26,0,0,1,.35-1,6.52,6.52,0,0,1,.53-.87,8.47,8.47,0,0,1,.67-.79,10,10,0,0,1,.76-.7,3.46,3.46,0,0,1,1-.58,3.61,3.61,0,0,1,1.48-.15,1.37,1.37,0,0,1,.4.09,1.25,1.25,0,0,1,.35.21,1.37,1.37,0,0,1,.3.36.33.33,0,0,1,0,.12.74.74,0,0,1,0,.12,2,2,0,0,1,0,.3c0,.15,0,.35-.09.58s-.08.48-.13.77-.1.57-.16.86-.11.57-.16.85-.11.54-.16.76c-.08.39-.19.79-.31,1.21a11.27,11.27,0,0,1-.46,1.22,8.78,8.78,0,0,1-.64,1.12,4.34,4.34,0,0,1-.84.92,3.75,3.75,0,0,1-1.1.63A3.66,3.66,0,0,1,104,89.79Zm.73-6.15c0,.06,0,.12,0,.18a1.1,1.1,0,0,0,0,.18.58.58,0,0,0,.06.28.22.22,0,0,0,.22.12,1.34,1.34,0,0,0,.57-.17,5,5,0,0,0,.66-.44c.22-.18.43-.38.63-.58a3.71,3.71,0,0,0,.46-.6c0-.08.12-.18.2-.32s.16-.29.24-.45a5.11,5.11,0,0,0,.22-.48,1.49,1.49,0,0,0,.12-.43.64.64,0,0,0,0-.24.89.89,0,0,1-.09-.3h-.07a.86.86,0,0,0-.4.12,3.81,3.81,0,0,0-.49.3,6,6,0,0,0-.52.42l-.49.47-.42.47a3.54,3.54,0,0,0-.29.4l-.29.49A3.54,3.54,0,0,0,104.77,83.64Z"/><path class="cls-5" d="M119.38,79c.51,0,.77.28.77.84a1.61,1.61,0,0,1-.27,1,.85.85,0,0,1-.73.36,44.7,44.7,0,0,0-4.72.22,11.56,11.56,0,0,1-1.54.13q-.75,0-.75-1.11a.92.92,0,0,1,.3-.66,1.38,1.38,0,0,1,.73-.4,24.54,24.54,0,0,1,2.58-.23C117.17,79.06,118.38,79,119.38,79Z"/><path class="cls-5" d="M121.35,86.52c.15-.58.35-1.22.61-1.93s.55-1.44.89-2.21.71-1.54,1.12-2.33.82-1.56,1.26-2.31.89-1.46,1.35-2.12a21.93,21.93,0,0,1,1.36-1.79l.48-.53c.2-.21.41-.43.65-.66s.49-.46.76-.68a7.16,7.16,0,0,1,.79-.6,4.7,4.7,0,0,1,.77-.44,1.72,1.72,0,0,1,.7-.16,2.22,2.22,0,0,1,.79.14,1.77,1.77,0,0,1,.62.43,1.85,1.85,0,0,1,.39.65,2.32,2.32,0,0,1,.15.84,2.56,2.56,0,0,1,0,.39c0,.13,0,.26-.08.4L132.67,80c.11-.18.27-.41.48-.72s.43-.63.69-1l.81-1.15.83-1.16.74-1,.56-.74.21-.27c.13-.17.3-.38.5-.61s.42-.48.65-.74.5-.52.76-.77a9.56,9.56,0,0,1,.81-.67,5,5,0,0,1,.81-.48,1.75,1.75,0,0,1,.77-.19.79.79,0,0,1,.45.12,1.1,1.1,0,0,1,.3.34,1.73,1.73,0,0,1,.16.5,3.73,3.73,0,0,1,0,.59,5.36,5.36,0,0,1-.08,1c0,.32-.11.62-.18.89s-.09.51-.15.91-.14.85-.23,1.36-.18,1.07-.28,1.67-.2,1.2-.3,1.81-.21,1.23-.31,1.83-.2,1.16-.29,1.68-.16,1-.23,1.39-.14.73-.18,1-.06.25-.11.43a2.11,2.11,0,0,1-.22.54,1.63,1.63,0,0,1-.37.46.88.88,0,0,1-.58.19.59.59,0,0,1-.35-.12,1.38,1.38,0,0,1-.29-.3,1.47,1.47,0,0,1-.21-.39,1.23,1.23,0,0,1-.08-.39l2.37-11.26c0-.1,0-.2.05-.28a1.05,1.05,0,0,0,0-.24.85.85,0,0,0,0-.23,1.8,1.8,0,0,1-.05-.19c0-.07,0-.13-.07-.19a10.31,10.31,0,0,0-1.1,1c-.39.4-.79.84-1.19,1.33s-.79,1-1.19,1.57-.78,1.1-1.14,1.65-.58.89-.9,1.37l-1,1.44-.95,1.45c-.31.48-.59.94-.84,1.39a6,6,0,0,0-.37.82c-.13.33-.27.66-.43,1a4.25,4.25,0,0,1-.5.82.79.79,0,0,1-.61.34,1.12,1.12,0,0,1-.44-.08.67.67,0,0,1-.28-.21.81.81,0,0,1-.15-.31,1.53,1.53,0,0,1,0-.38,2.38,2.38,0,0,1,0-.53c0-.17.07-.34.11-.5.16-.67.32-1.33.5-2s.35-1.34.54-2,.38-1.41.58-2.15l.6-2.36c0-.24.11-.5.18-.8s.14-.58.2-.88.11-.6.14-.88a5.36,5.36,0,0,0,.06-.75,2,2,0,0,0,0-.47c0-.12-.09-.18-.18-.18a1.65,1.65,0,0,0-.88.31,5.42,5.42,0,0,0-.95.83,11.08,11.08,0,0,0-1,1.18c-.31.44-.6.89-.89,1.36s-.54.93-.78,1.38l-.63,1.23-.16.32c-.08.13-.17.31-.29.55s-.26.55-.43.92-.37.85-.61,1.42-.5,1.25-.8,2-.65,1.71-1,2.78a.84.84,0,0,1-.35.44.92.92,0,0,1-.53.17,1.09,1.09,0,0,1-.88-.32,1.16,1.16,0,0,1-.28-.78A2,2,0,0,1,121.35,86.52Z"/><path class="cls-5" d="M145.67,86a3.61,3.61,0,0,1,.05-.52,4,4,0,0,0,.05-.75c-.16.12-.34.26-.54.43s-.4.32-.61.47A6.15,6.15,0,0,1,144,86a1.39,1.39,0,0,1-.59.15,1.42,1.42,0,0,1-.42-.06,1.2,1.2,0,0,1-.34-.18,2,2,0,0,1-.57-.63,1.4,1.4,0,0,1-.18-.72,2.58,2.58,0,0,1,0-.39,3.53,3.53,0,0,1,.1-.46,6.65,6.65,0,0,1,2.67-3.88,2,2,0,0,1,.79-.35,4.13,4.13,0,0,1,.78-.08l.38,0,.38,0,.28-.05.23,0a1,1,0,0,1,.37.06.72.72,0,0,1,.24.16.57.57,0,0,1,.12.23.86.86,0,0,1,.05.27,1.15,1.15,0,0,1-.06.37l-.12.35-1,3.92c0,.21,0,.4-.05.58a3.44,3.44,0,0,1-.09.5,1.07,1.07,0,0,0-.06.17.62.62,0,0,1-.11.19.69.69,0,0,1-.18.16.52.52,0,0,1-.29.07,1.83,1.83,0,0,1-.37,0,.51.51,0,0,1-.21-.09.26.26,0,0,1-.1-.13A.9.9,0,0,1,145.67,86Zm-2.46-2.25a2.28,2.28,0,0,0-.07.3,2.56,2.56,0,0,0,0,.39,1,1,0,0,0,.06.36.25.25,0,0,0,.26.16,1.27,1.27,0,0,0,.58-.14,2.78,2.78,0,0,0,.51-.33c.21-.17.43-.37.65-.58s.43-.45.62-.68a5.76,5.76,0,0,0,.52-.73,3.07,3.07,0,0,0,.33-.75,2.94,2.94,0,0,0,.1-.5,3.13,3.13,0,0,0,0-.5.41.41,0,0,0,0-.19.18.18,0,0,0-.17-.09,1.89,1.89,0,0,0-.73.14,3.05,3.05,0,0,0-.71.38,3.39,3.39,0,0,0-.65.56,4.69,4.69,0,0,0-.56.69,5.66,5.66,0,0,0-.44.75A4.35,4.35,0,0,0,143.21,83.79Z"/><path class="cls-5" d="M154.71,80.26a1.49,1.49,0,0,0-.56.12,3.77,3.77,0,0,0-.62.33c-.21.14-.43.3-.65.47l-.65.55-.31.26a1.52,1.52,0,0,1-.3.17,3.28,3.28,0,0,0-.21.45c-.08.19-.16.39-.23.61s-.14.44-.21.67-.12.45-.17.65l-.06.3c0,.1,0,.2-.05.32s0,.23-.07.36-.06.27-.1.43a.57.57,0,0,1-.12.22.52.52,0,0,1-.17.13l-.17.06h-.13a.74.74,0,0,1-.46-.13.63.63,0,0,1-.18-.52c0-.07,0-.15,0-.22a1.47,1.47,0,0,1,0-.26c.11-.47.21-.89.31-1.27s.21-.72.31-1,.21-.63.31-.91l.33-.87c.11-.29.23-.58.35-.89l.39-1a.37.37,0,0,1,.23-.21,1,1,0,0,1,.41-.09.74.74,0,0,1,.46.13.4.4,0,0,1,.18.36.28.28,0,0,1,0,.08s0,.08,0,.13l-.33.77c.21-.16.42-.33.65-.49a6.2,6.2,0,0,1,.69-.44,4.54,4.54,0,0,1,.72-.32A2.25,2.25,0,0,1,155,79a1.53,1.53,0,0,1,1.11.38,1.55,1.55,0,0,1,.4,1.18,3.89,3.89,0,0,1-.16,1c-.1.39-.24.81-.4,1.26s-.33.92-.52,1.41-.36,1-.51,1.5a2.53,2.53,0,0,1-.14.35.69.69,0,0,1-.17.23.48.48,0,0,1-.22.12,1,1,0,0,1-.32,0,.58.58,0,0,1-.4-.11.44.44,0,0,1-.11-.34,2.67,2.67,0,0,1,.06-.51,5.55,5.55,0,0,1,.18-.66c.08-.24.16-.5.27-.77s.21-.55.33-.83.18-.46.28-.69.17-.44.24-.66a5.1,5.1,0,0,0,.17-.61,2.09,2.09,0,0,0,.07-.53.8.8,0,0,0-.1-.41A.4.4,0,0,0,154.71,80.26Z"/><path class="cls-5" d="M157.75,83.81A4.67,4.67,0,0,1,158,83a5.88,5.88,0,0,1,.39-.8,5.65,5.65,0,0,1,.57-.77,5.79,5.79,0,0,1,.76-.71,7.17,7.17,0,0,1,.63-.45,4.91,4.91,0,0,1,.67-.37,4.78,4.78,0,0,1,.69-.25,2.65,2.65,0,0,1,.68-.09,1.85,1.85,0,0,1,.43,0,1.9,1.9,0,0,1,.36.12l.4-1.4c.21-.76.48-1.81.79-3.16a.82.82,0,0,1,.23-.34.52.52,0,0,1,.36-.13,1.43,1.43,0,0,1,.29,0,.6.6,0,0,1,.25.1.63.63,0,0,1,.18.21.88.88,0,0,1,.06.35l-1.49,6c0,.17-.09.4-.13.68s-.07.59-.11.9-.06.63-.08.94,0,.58,0,.8a3.75,3.75,0,0,1-.09.82c0,.12-.07.22-.1.31a.53.53,0,0,1-.13.2.55.55,0,0,1-.2.11,1.3,1.3,0,0,1-.31,0,1,1,0,0,1-.33,0,.35.35,0,0,1-.18-.13.28.28,0,0,1-.07-.17c0-.07,0-.14,0-.22a1.93,1.93,0,0,0,0-.24.86.86,0,0,0-.06-.23l-.25.15-.32.2-.3.19-.2.12L161,86a3.19,3.19,0,0,1-.46.2,3.13,3.13,0,0,1-.52.16,3.43,3.43,0,0,1-.55.06,1.82,1.82,0,0,1-.65-.12,1.41,1.41,0,0,1-.56-.34,1.62,1.62,0,0,1-.4-.58,2.12,2.12,0,0,1-.15-.83c0-.11,0-.23,0-.34A3.35,3.35,0,0,1,157.75,83.81Zm1.28-.06a2.18,2.18,0,0,0-.05.43,2.5,2.5,0,0,0,0,.4.94.94,0,0,0,.14.34.84.84,0,0,0,.27.22.89.89,0,0,0,.43.09,1,1,0,0,0,.32-.06,1.58,1.58,0,0,0,.34-.13l.31-.16.25-.15c.19-.12.36-.24.52-.36A3.31,3.31,0,0,0,162,84a2.15,2.15,0,0,0,.33-.46,2.43,2.43,0,0,0,.24-.59c.05-.2.09-.38.13-.55s.07-.32.1-.48.06-.31.08-.47.05-.35.07-.55a.21.21,0,0,0-.1-.08.32.32,0,0,0-.19,0,2.34,2.34,0,0,0-.65.1,3.89,3.89,0,0,0-.73.28,5.22,5.22,0,0,0-.73.46,3.78,3.78,0,0,0-.67.59,3.83,3.83,0,0,0-.54.73A2.85,2.85,0,0,0,159,83.75Z"/><path class="cls-5" d="M169.74,86a3.61,3.61,0,0,1,0-.52,4,4,0,0,0,.05-.75c-.16.12-.34.26-.54.43s-.4.32-.61.47a6.15,6.15,0,0,1-.64.37,1.39,1.39,0,0,1-.59.15,1.42,1.42,0,0,1-.42-.06,1.2,1.2,0,0,1-.34-.18,2.17,2.17,0,0,1-.57-.63,1.4,1.4,0,0,1-.18-.72,2.58,2.58,0,0,1,0-.39,3.53,3.53,0,0,1,.1-.46,6.65,6.65,0,0,1,2.67-3.88,2.11,2.11,0,0,1,.79-.35,4.13,4.13,0,0,1,.78-.08l.38,0,.38,0,.28-.05.23,0a1,1,0,0,1,.37.06.55.55,0,0,1,.36.39.86.86,0,0,1,0,.27,1.15,1.15,0,0,1-.06.37l-.12.35-1,3.92c0,.21,0,.4-.05.58a3.44,3.44,0,0,1-.09.5,1.07,1.07,0,0,0-.06.17.62.62,0,0,1-.11.19.69.69,0,0,1-.18.16.52.52,0,0,1-.29.07,1.83,1.83,0,0,1-.37,0,.51.51,0,0,1-.21-.09.26.26,0,0,1-.1-.13A.9.9,0,0,1,169.74,86Zm-2.46-2.25a2.28,2.28,0,0,0-.07.3,2.56,2.56,0,0,0,0,.39,1,1,0,0,0,.06.36.25.25,0,0,0,.26.16,1.27,1.27,0,0,0,.58-.14,2.78,2.78,0,0,0,.51-.33c.21-.17.43-.37.65-.58s.43-.45.62-.68a5.76,5.76,0,0,0,.52-.73,3.07,3.07,0,0,0,.33-.75,2.94,2.94,0,0,0,.1-.5,3.13,3.13,0,0,0,0-.5.41.41,0,0,0,0-.19.18.18,0,0,0-.17-.09,1.89,1.89,0,0,0-.73.14,3.05,3.05,0,0,0-.71.38,3.39,3.39,0,0,0-.65.56,4.69,4.69,0,0,0-.56.69,5.66,5.66,0,0,0-.44.75A4.35,4.35,0,0,0,167.28,83.79Z"/><path class="cls-5" d="M173.65,85.59c.07-.35.14-.73.23-1.14s.17-.84.26-1.26.17-.85.26-1.26.15-.79.21-1.13c0,0,0-.09,0-.13v-.12a3.55,3.55,0,0,1,0-.46,3.94,3.94,0,0,1,.08-.42,1,1,0,0,1,.19-.39.45.45,0,0,1,.32-.1.63.63,0,0,1,.35.09.7.7,0,0,1,.2.22,1.15,1.15,0,0,1,.1.33c0,.12,0,.24,0,.37a1.85,1.85,0,0,1,0,.23c0,.09,0,.15,0,.2l.45-.44a4.83,4.83,0,0,1,.49-.41,3,3,0,0,1,.56-.3,1.58,1.58,0,0,1,.61-.12,1,1,0,0,1,.25,0,1.14,1.14,0,0,1,.25.06,1.39,1.39,0,0,1,.31.1,1.59,1.59,0,0,1,.31.17,1.65,1.65,0,0,1,.41.46,1.12,1.12,0,0,1,.16.57.67.67,0,0,1,0,.24.9.9,0,0,1-.12.24.77.77,0,0,1-.18.18.39.39,0,0,1-.23.07,1,1,0,0,1-.31-.06.87.87,0,0,1-.3-.17.5.5,0,0,1-.11-.13l-.11-.16a1.09,1.09,0,0,1-.08-.15.25.25,0,0,0-.07-.09l-.08,0H178a1.55,1.55,0,0,0-.72.19,3.24,3.24,0,0,0-.64.48,4.29,4.29,0,0,0-.54.59c-.17.21-.31.4-.44.57-.1.4-.21.83-.33,1.28s-.24.93-.36,1.42v.18c0,.15,0,.3,0,.46a1.3,1.3,0,0,1-.09.41,1,1,0,0,1-.24.19.78.78,0,0,1-.35.07.55.55,0,0,1-.47-.2.81.81,0,0,1-.15-.48A1.22,1.22,0,0,1,173.65,85.59Z"/><path class="cls-5" d="M180,85c.08-.29.17-.62.27-1s.22-.78.33-1.21.23-.86.35-1.3l.34-1.3a.29.29,0,0,1,.05-.1.43.43,0,0,1,.13-.14.77.77,0,0,1,.2-.13.94.94,0,0,1,.3,0,1,1,0,0,1,.25,0,.66.66,0,0,1,.21.08.47.47,0,0,1,.15.13.46.46,0,0,1,.05.2v.1l-.21.78c-.24.89-.47,1.77-.71,2.65s-.48,1.78-.7,2.67l-.05.11a1,1,0,0,1-.08.14.47.47,0,0,1-.13.11.31.31,0,0,1-.17,0,.67.67,0,0,1-.35-.08.92.92,0,0,1-.25-.19.76.76,0,0,1-.15-.26.74.74,0,0,1-.06-.27v-.07a.14.14,0,0,1,0-.06Zm1.94-7.69a2.67,2.67,0,0,1,.14-.38,1,1,0,0,1,.34-.4l.29-.12a.72.72,0,0,1,.24,0,.23.23,0,0,1,.15,0,.53.53,0,0,1,.14.11,1.07,1.07,0,0,1,.14.16.25.25,0,0,1,.24.14.58.58,0,0,1,.06.28,1.25,1.25,0,0,1,0,.21c0,.07,0,.12,0,.16a.68.68,0,0,1-.17.28,1.09,1.09,0,0,1-.29.23,1.43,1.43,0,0,1-.34.14,1,1,0,0,1-.31,0,.49.49,0,0,1-.27-.06,1,1,0,0,1-.23-.25.31.31,0,0,1-.09-.17.52.52,0,0,1,0-.11.59.59,0,0,1,0-.14A.51.51,0,0,1,181.9,77.31Z"/><path class="cls-5" d="M189.1,80.26a1.49,1.49,0,0,0-.56.12,3.77,3.77,0,0,0-.62.33c-.21.14-.43.3-.65.47l-.65.55-.31.26a1.52,1.52,0,0,1-.3.17,3.28,3.28,0,0,0-.21.45c-.08.19-.16.39-.23.61l-.21.67c-.07.23-.12.45-.17.65l-.06.3c0,.1,0,.2,0,.32s0,.23-.07.36-.06.27-.1.43a.57.57,0,0,1-.12.22.52.52,0,0,1-.17.13l-.17.06h-.13a.74.74,0,0,1-.46-.13.63.63,0,0,1-.18-.52c0-.07,0-.15,0-.22a1.47,1.47,0,0,1,.05-.26c.1-.47.21-.89.31-1.27s.21-.72.31-1,.21-.63.31-.91l.33-.87c.11-.29.23-.58.35-.89l.39-1A.37.37,0,0,1,186,79a1,1,0,0,1,.41-.09.74.74,0,0,1,.46.13.4.4,0,0,1,.18.36.28.28,0,0,1,0,.08.93.93,0,0,1,0,.13l-.33.77c.21-.16.42-.33.65-.49a7.28,7.28,0,0,1,.69-.44,4.54,4.54,0,0,1,.72-.32,2.25,2.25,0,0,1,.71-.12,1.53,1.53,0,0,1,1.11.38,1.55,1.55,0,0,1,.4,1.18,3.89,3.89,0,0,1-.16,1c-.1.39-.24.81-.4,1.26s-.33.92-.52,1.41-.35,1-.51,1.5a2.53,2.53,0,0,1-.14.35.69.69,0,0,1-.17.23.48.48,0,0,1-.22.12,1,1,0,0,1-.32,0,.58.58,0,0,1-.4-.11.44.44,0,0,1-.11-.34,2.67,2.67,0,0,1,.06-.51,5.55,5.55,0,0,1,.18-.66c.08-.24.16-.5.27-.77s.21-.55.33-.83l.27-.69a5.92,5.92,0,0,0,.25-.66,5.1,5.1,0,0,0,.17-.61,2.09,2.09,0,0,0,.07-.53.8.8,0,0,0-.1-.41A.4.4,0,0,0,189.1,80.26Z"/><text class="cls-9" transform="translate(0 110.67)">中文智慧寫作系統</text></g></g></svg>