<svg xmlns="http://www.w3.org/2000/svg" xmlns:xlink="http://www.w3.org/1999/xlink" viewBox="0 0 68.46 64.76"><defs><style>.cls-1{fill:#f8bc00;}.cls-2{fill:#fcd776;}.cls-3{fill:#fde5a7;}.cls-4{fill:#fff3d6;}.cls-5{fill:#eb5e00;}.cls-6{fill:url(#新增漸層色票_1);}.cls-7{fill:url(#新增漸層色票_1-2);}.cls-8{fill:url(#新增漸層色票_1-3);}</style><radialGradient id="新增漸層色票_1" cx="27.54" cy="-11.77" r="65.27" gradientUnits="userSpaceOnUse"><stop offset="0" stop-color="#00afec"/><stop offset="1" stop-color="#00428d"/></radialGradient><radialGradient id="新增漸層色票_1-2" cx="27.65" cy="-12.29" r="65.81" xlink:href="#新增漸層色票_1"/><radialGradient id="新增漸層色票_1-3" cx="27.54" cy="-11.78" r="65.27" xlink:href="#新增漸層色票_1"/></defs><g id="圖層_2" data-name="圖層 2"><g id="圖層_1-2" data-name="圖層 1"><path class="cls-1" d="M28.09,32.87a44.45,44.45,0,0,1,7.83-1.46V8.27a27.17,27.17,0,0,0-7.83-1.45Z"/><path class="cls-2" d="M38.77,31.22a47.51,47.51,0,0,1,8.06.42V14.17a42,42,0,0,0-8.06-4.78Z"/><path class="cls-3" d="M49.73,32.13a52.3,52.3,0,0,1,8.05,2.31V24.59a73.55,73.55,0,0,0-8.05-8.11Z"/><path class="cls-4" d="M60.63,28.1v7.5a58.75,58.75,0,0,1,7.83,4.19v-.24A119.36,119.36,0,0,0,60.63,28.1Z"/><path class="cls-5" d="M53.11,41.48c-13.7,5.36-28.7,13.11-41,23.28C28.69,51.9,50.17,43.87,66.76,40.65c-5.23-2-10.94-4.65-16.83-5.07C51,37,52.06,39.91,53.11,41.48Z"/><path class="cls-6" d="M20.26,24.1V2A17.27,17.27,0,0,0,5,1.62v24A23.28,23.28,0,0,1,20.26,24.1Z"/><path class="cls-7" d="M24.33,51.36l0,.06S24.35,51.38,24.33,51.36Z"/><path class="cls-8" d="M25.21,33.93V5.74a22.15,22.15,0,0,0-3.88-2.92v23A23.24,23.24,0,0,0,3.21,27.57V2.72A21.5,21.5,0,0,0,0,5V33.82a22.85,22.85,0,0,1,5.12-2.49C4.86,33.92,3.07,48.05.41,50.45A10.17,10.17,0,0,1,6,53a19.1,19.1,0,0,1,6.13,10.2V51a3.07,3.07,0,1,1,1,0V63.57C15.28,55,23.85,51.09,24.33,51.36c-2.29-6-3.91-17-4.23-20A23.19,23.19,0,0,1,25.21,33.93Z"/></g></g></svg>