<svg xmlns="http://www.w3.org/2000/svg" xmlns:xlink="http://www.w3.org/1999/xlink" viewBox="0 0 175.69 108.91"><defs><style>.cls-1{font-size:14px;fill:#231815;stroke:#231815;stroke-miterlimit:10;stroke-width:0.25px;font-family:MicrosoftJhengHeiRegular, Microsoft JhengHei;letter-spacing:0.2em;}.cls-2{letter-spacing:0.1em;}.cls-3{fill:#007686;}.cls-4{fill:#b5b5b6;opacity:0.75;}.cls-5{fill:#dcdddd;}.cls-6{fill:#898989;}.cls-7{fill:#fff;}.cls-8{fill:url(#linear-gradient);}.cls-9{fill:url(#linear-gradient-2);}</style><linearGradient id="linear-gradient" x1="-754.46" y1="-16321.12" x2="-754.46" y2="-16315.76" gradientTransform="matrix(0, 1, 1, 0, 16431.38, 774.14)" gradientUnits="userSpaceOnUse"><stop offset="0" stop-color="#007686"/><stop offset="0.04" stop-color="#077a88"/><stop offset="0.1" stop-color="#19848e"/><stop offset="0.17" stop-color="#379499"/><stop offset="0.24" stop-color="#61aba7"/><stop offset="0.32" stop-color="#97c8b9"/><stop offset="0.4" stop-color="#d6eace"/><stop offset="0.47" stop-color="#bddcc6"/><stop offset="0.73" stop-color="#58a6a4"/><stop offset="0.91" stop-color="#19838e"/><stop offset="1" stop-color="#007686"/></linearGradient><linearGradient id="linear-gradient-2" x1="-754.46" y1="-17109.77" x2="-754.46" y2="-17104.41" gradientTransform="translate(-17015.94 774.14) rotate(90)" xlink:href="#linear-gradient"/></defs><g id="圖層_2" data-name="圖層 2"><g id="圖層_1-2" data-name="圖層 1"><text class="cls-1" transform="translate(0.13 105.13)">中文智能聽說系統<tspan class="cls-2" x="134.4" y="0">-</tspan><tspan x="141.84" y="0">注音</tspan></text><path class="cls-3" d="M110.37,7c-.35-3.94-3.94-7-8.32-7s-8,3.09-8.33,7h0V25.58h0a8.35,8.35,0,0,0,16.65,0h0Z"/><path class="cls-4" d="M108.47,5.81a6.52,6.52,0,0,0-12.94,0h-.06V26.58a6.54,6.54,0,1,0,13.07,0V5.81Z"/><path class="cls-5" d="M101.48.26a4.33,4.33,0,0,0-4.31,4.36v24a4.31,4.31,0,1,0,8.62,0v-24A4.33,4.33,0,0,0,101.48.26Z"/><path class="cls-6" d="M103.07,9.61a1,1,0,1,1-1-1A1,1,0,0,1,103.07,9.61Z"/><path class="cls-6" d="M103.11,12.83a1,1,0,1,1-1-1A1,1,0,0,1,103.11,12.83Z"/><path class="cls-6" d="M103.11,16a1,1,0,1,1-1-1A1,1,0,0,1,103.11,16Z"/><path class="cls-6" d="M103.11,19a1,1,0,0,1-2,0,1,1,0,1,1,2,0Z"/><path class="cls-6" d="M103.11,22.06a1,1,0,1,1-1-1A1,1,0,0,1,103.11,22.06Z"/><path class="cls-6" d="M103.11,25.29a1,1,0,1,1-1-1A1,1,0,0,1,103.11,25.29Z"/><path class="cls-6" d="M100.48,11.22a1,1,0,1,1-1-1A1,1,0,0,1,100.48,11.22Z"/><path class="cls-6" d="M100.52,14.44a1,1,0,1,1-1-1A1,1,0,0,1,100.52,14.44Z"/><path class="cls-6" d="M100.52,17.58a1,1,0,1,1-1-1A1,1,0,0,1,100.52,17.58Z"/><path class="cls-6" d="M100.52,20.62a1,1,0,1,1-1-1A1,1,0,0,1,100.52,20.62Z"/><path class="cls-6" d="M100.52,23.67a1,1,0,1,1-1-1A1,1,0,0,1,100.52,23.67Z"/><path class="cls-6" d="M105.62,11.22a1,1,0,1,1-1-1A1,1,0,0,1,105.62,11.22Z"/><path class="cls-6" d="M105.66,14.44a1,1,0,1,1-1-1A1,1,0,0,1,105.66,14.44Z"/><path class="cls-6" d="M105.66,17.58a1,1,0,1,1-1-1A1,1,0,0,1,105.66,17.58Z"/><path class="cls-6" d="M105.66,20.62a1,1,0,1,1-1-1A1,1,0,0,1,105.66,20.62Z"/><path class="cls-6" d="M105.66,23.67a1,1,0,1,1-1-1A1,1,0,0,1,105.66,23.67Z"/><path class="cls-6" d="M107.81,9.61c0,.55-.34,1-.75,1s-.75-.45-.75-1,.34-1,.75-1S107.81,9.05,107.81,9.61Z"/><path class="cls-6" d="M107.84,12.83c0,.55-.33,1-.75,1s-.74-.45-.74-1,.33-1,.74-1S107.84,12.28,107.84,12.83Z"/><path class="cls-6" d="M107.84,16c0,.56-.33,1-.75,1s-.74-.45-.74-1,.33-1,.74-1S107.84,15.41,107.84,16Z"/><path class="cls-6" d="M107.84,19c0,.55-.33,1-.75,1s-.74-.44-.74-1,.33-1,.74-1S107.84,18.46,107.84,19Z"/><path class="cls-6" d="M107.84,22.06c0,.56-.33,1-.75,1s-.74-.44-.74-1,.33-1,.74-1S107.84,21.51,107.84,22.06Z"/><path class="cls-6" d="M107.84,25.29c0,.55-.33,1-.75,1s-.74-.45-.74-1,.33-1,.74-1S107.84,24.73,107.84,25.29Z"/><path class="cls-6" d="M98,9.61c0,.55-.33,1-.75,1s-.74-.45-.74-1,.33-1,.74-1S98,9.05,98,9.61Z"/><path class="cls-6" d="M98,12.83c0,.55-.33,1-.74,1s-.75-.45-.75-1,.34-1,.75-1S98,12.28,98,12.83Z"/><path class="cls-6" d="M98,16c0,.56-.33,1-.74,1s-.75-.45-.75-1,.34-1,.75-1S98,15.41,98,16Z"/><path class="cls-6" d="M98,19c0,.55-.33,1-.74,1a.9.9,0,0,1-.75-1c0-.56.34-1,.75-1S98,18.46,98,19Z"/><path class="cls-6" d="M98,22.06c0,.56-.33,1-.74,1s-.75-.44-.75-1,.34-1,.75-1S98,21.51,98,22.06Z"/><path class="cls-6" d="M98,25.29c0,.55-.33,1-.74,1s-.75-.45-.75-1,.34-1,.75-1S98,24.73,98,25.29Z"/><path class="cls-6" d="M109.57,11.35c0,.55-.22,1-.5,1s-.5-.45-.5-1,.22-1,.5-1S109.57,10.79,109.57,11.35Z"/><path class="cls-6" d="M109.59,14.57c0,.55-.22,1-.5,1s-.5-.45-.5-1,.22-1,.5-1S109.59,14,109.59,14.57Z"/><path class="cls-6" d="M109.59,17.71c0,.55-.22,1-.5,1s-.5-.45-.5-1,.22-1,.5-1S109.59,17.15,109.59,17.71Z"/><path class="cls-6" d="M109.59,20.76c0,.55-.22,1-.5,1s-.5-.45-.5-1,.22-1,.5-1S109.59,20.2,109.59,20.76Z"/><path class="cls-6" d="M109.59,23.8c0,.56-.22,1-.5,1s-.5-.45-.5-1,.22-1,.5-1S109.59,23.25,109.59,23.8Z"/><path class="cls-6" d="M95.8,11.39c0,.55-.22,1-.5,1s-.49-.45-.49-1,.22-1,.49-1S95.8,10.84,95.8,11.39Z"/><path class="cls-6" d="M95.83,14.62c0,.55-.23,1-.5,1s-.5-.45-.5-1,.22-1,.5-1S95.83,14.06,95.83,14.62Z"/><path class="cls-6" d="M95.83,17.75c0,.55-.23,1-.5,1s-.5-.45-.5-1,.22-1,.5-1S95.83,17.2,95.83,17.75Z"/><path class="cls-6" d="M95.83,20.8c0,.55-.23,1-.51,1s-.49-.45-.49-1,.22-1,.49-1S95.83,20.25,95.83,20.8Z"/><path class="cls-6" d="M95.83,23.85c0,.55-.23,1-.51,1s-.49-.45-.49-1,.22-1,.49-1S95.83,23.29,95.83,23.85Z"/><path class="cls-6" d="M110.37,9.87c0,.55-.13,1-.3,1s-.29-.45-.29-1,.13-1,.29-1S110.37,9.31,110.37,9.87Z"/><path class="cls-6" d="M110.39,13.09c0,.55-.14,1-.3,1s-.3-.45-.3-1,.13-1,.3-1S110.39,12.54,110.39,13.09Z"/><path class="cls-6" d="M110.39,16.23c0,.55-.14,1-.3,1s-.3-.45-.3-1,.13-1,.3-1S110.39,15.67,110.39,16.23Z"/><path class="cls-6" d="M110.39,19.28c0,.55-.14,1-.3,1s-.3-.45-.3-1,.13-1,.3-1S110.39,18.72,110.39,19.28Z"/><path class="cls-6" d="M110.39,22.33c0,.55-.14,1-.3,1s-.3-.45-.3-1,.13-1,.3-1S110.39,21.77,110.39,22.33Z"/><path class="cls-6" d="M110.39,25.55c0,.55-.14,1-.3,1s-.3-.45-.3-1,.13-1,.3-1S110.39,25,110.39,25.55Z"/><path class="cls-6" d="M94.3,9.7c0,.55-.13,1-.3,1s-.3-.44-.3-1,.14-1,.3-1S94.3,9.14,94.3,9.7Z"/><path class="cls-6" d="M94.31,12.92c0,.55-.13,1-.29,1s-.3-.45-.3-1,.13-1,.3-1S94.31,12.36,94.31,12.92Z"/><path class="cls-6" d="M94.31,16.05c0,.55-.13,1-.29,1s-.3-.45-.3-1,.13-1,.3-1S94.31,15.5,94.31,16.05Z"/><path class="cls-6" d="M94.31,19.1c0,.56-.13,1-.29,1s-.3-.44-.3-1,.13-1,.3-1S94.31,18.55,94.31,19.1Z"/><path class="cls-6" d="M94.31,22.15c0,.55-.13,1-.29,1s-.3-.45-.3-1,.13-1,.3-1S94.31,21.6,94.31,22.15Z"/><path class="cls-6" d="M94.31,25.37c0,.56-.13,1-.29,1s-.3-.44-.3-1,.13-1,.3-1S94.31,24.82,94.31,25.37Z"/><path class="cls-7" d="M102.16,1.46a2.14,2.14,0,0,1-1.26,2.69A2.15,2.15,0,0,1,98,3.62,2.15,2.15,0,0,1,99.23.92,2.15,2.15,0,0,1,102.16,1.46Z"/><path class="cls-7" d="M103.09,9.28a1,1,0,1,1-1-1A1,1,0,0,1,103.09,9.28Z"/><path class="cls-7" d="M103.13,12.5a1,1,0,1,1-1-1A1,1,0,0,1,103.13,12.5Z"/><path class="cls-7" d="M103.13,15.64a1,1,0,1,1-1-1A1,1,0,0,1,103.13,15.64Z"/><path class="cls-7" d="M103.13,18.68a1,1,0,1,1-1-1A1,1,0,0,1,103.13,18.68Z"/><path class="cls-7" d="M103.13,21.73a1,1,0,1,1-1-1A1,1,0,0,1,103.13,21.73Z"/><path class="cls-7" d="M103.13,25a1,1,0,1,1-1-1A1,1,0,0,1,103.13,25Z"/><path class="cls-7" d="M100.5,10.89a1,1,0,1,1-1-1A1,1,0,0,1,100.5,10.89Z"/><path class="cls-7" d="M100.54,14.11a1,1,0,1,1-1-1A1,1,0,0,1,100.54,14.11Z"/><path class="cls-7" d="M100.54,17.25a1,1,0,1,1-1-1A1,1,0,0,1,100.54,17.25Z"/><path class="cls-7" d="M100.54,20.3a1,1,0,1,1-1-1A1,1,0,0,1,100.54,20.3Z"/><path class="cls-7" d="M100.54,23.35a1,1,0,1,1-1-1A1,1,0,0,1,100.54,23.35Z"/><path class="cls-7" d="M105.64,10.89a1,1,0,1,1-1-1A1,1,0,0,1,105.64,10.89Z"/><path class="cls-7" d="M105.68,14.11a1,1,0,1,1-1-1A1,1,0,0,1,105.68,14.11Z"/><path class="cls-7" d="M105.68,17.25a1,1,0,1,1-1-1A1,1,0,0,1,105.68,17.25Z"/><path class="cls-7" d="M105.68,20.3a1,1,0,1,1-1-1A1,1,0,0,1,105.68,20.3Z"/><path class="cls-7" d="M105.68,23.35a1,1,0,1,1-1-1A1,1,0,0,1,105.68,23.35Z"/><path class="cls-7" d="M107.83,9.28c0,.55-.34,1-.75,1s-.74-.45-.74-1,.33-1,.74-1S107.83,8.73,107.83,9.28Z"/><path class="cls-7" d="M107.86,12.5c0,.56-.33,1-.74,1s-.75-.44-.75-1,.33-1,.75-1S107.86,12,107.86,12.5Z"/><path class="cls-7" d="M107.86,15.64c0,.55-.33,1-.74,1s-.75-.45-.75-1,.33-1,.75-1S107.86,15.09,107.86,15.64Z"/><path class="cls-7" d="M107.86,18.68c0,.56-.33,1-.75,1s-.74-.45-.74-1,.33-1,.74-1S107.86,18.13,107.86,18.68Z"/><path class="cls-7" d="M107.86,21.73c0,.56-.33,1-.75,1s-.74-.45-.74-1,.33-1,.74-1S107.86,21.18,107.86,21.73Z"/><path class="cls-7" d="M107.86,25c0,.55-.33,1-.74,1s-.75-.45-.75-1,.33-1,.75-1S107.86,24.41,107.86,25Z"/><path class="cls-7" d="M98,9.28c0,.55-.33,1-.74,1s-.75-.45-.75-1,.34-1,.75-1S98,8.73,98,9.28Z"/><path class="cls-7" d="M98,12.5c0,.56-.34,1-.75,1s-.74-.44-.74-1,.33-1,.74-1S98,12,98,12.5Z"/><path class="cls-7" d="M98,15.64c0,.55-.34,1-.75,1s-.74-.45-.74-1,.33-1,.74-1S98,15.09,98,15.64Z"/><path class="cls-7" d="M98,18.68c0,.56-.34,1-.75,1s-.74-.45-.74-1,.33-1,.74-1A.9.9,0,0,1,98,18.68Z"/><path class="cls-7" d="M98,21.73c0,.56-.34,1-.75,1s-.74-.45-.74-1,.33-1,.74-1S98,21.18,98,21.73Z"/><path class="cls-7" d="M98,25c0,.55-.34,1-.75,1s-.74-.45-.74-1,.33-1,.74-1S98,24.41,98,25Z"/><path class="cls-7" d="M109.59,11c0,.55-.22,1-.5,1s-.5-.45-.5-1,.22-1,.5-1S109.59,10.47,109.59,11Z"/><path class="cls-7" d="M109.61,14.25c0,.55-.22,1-.49,1s-.51-.45-.51-1,.23-1,.51-1S109.61,13.69,109.61,14.25Z"/><path class="cls-7" d="M109.61,17.38c0,.55-.22,1-.49,1s-.51-.45-.51-1,.23-1,.51-1S109.61,16.83,109.61,17.38Z"/><path class="cls-7" d="M109.61,20.43c0,.55-.22,1-.49,1s-.51-.45-.51-1,.23-1,.51-1S109.61,19.88,109.61,20.43Z"/><path class="cls-7" d="M109.61,23.48c0,.55-.22,1-.49,1s-.51-.45-.51-1,.23-1,.51-1S109.61,22.93,109.61,23.48Z"/><path class="cls-7" d="M95.83,11.06c0,.56-.23,1-.5,1s-.5-.45-.5-1,.22-1,.5-1S95.83,10.51,95.83,11.06Z"/><path class="cls-7" d="M95.85,14.29c0,.55-.23,1-.5,1s-.5-.45-.5-1,.22-1,.5-1S95.85,13.73,95.85,14.29Z"/><path class="cls-7" d="M95.85,17.43c0,.55-.23,1-.5,1s-.5-.44-.5-1,.22-1,.5-1S95.85,16.87,95.85,17.43Z"/><path class="cls-7" d="M95.85,20.47c0,.56-.23,1-.5,1s-.5-.44-.5-1,.22-1,.5-1S95.85,19.92,95.85,20.47Z"/><path class="cls-7" d="M95.85,23.52c0,.55-.23,1-.5,1s-.5-.45-.5-1,.22-1,.5-1S95.85,23,95.85,23.52Z"/><path class="cls-7" d="M110.4,9.54c0,.55-.14,1-.3,1s-.3-.45-.3-1,.13-1,.3-1S110.4,9,110.4,9.54Z"/><path class="cls-7" d="M110.41,12.76c0,.56-.13,1-.3,1s-.3-.44-.3-1,.14-1,.3-1S110.41,12.21,110.41,12.76Z"/><path class="cls-7" d="M110.41,15.9c0,.55-.13,1-.3,1s-.3-.45-.3-1,.14-1,.3-1S110.41,15.35,110.41,15.9Z"/><path class="cls-7" d="M110.41,19c0,.55-.13,1-.3,1s-.3-.45-.3-1,.14-1,.3-1S110.41,18.4,110.41,19Z"/><path class="cls-7" d="M110.41,22c0,.55-.13,1-.3,1s-.3-.45-.3-1,.14-1,.3-1S110.41,21.44,110.41,22Z"/><path class="cls-7" d="M110.41,25.22c0,.55-.13,1-.3,1s-.3-.45-.3-1,.14-1,.3-1S110.41,24.66,110.41,25.22Z"/><path class="cls-7" d="M94.32,9.36c0,.56-.13,1-.29,1s-.31-.45-.31-1,.14-1,.31-1S94.32,8.81,94.32,9.36Z"/><path class="cls-7" d="M94.34,12.59c0,.55-.14,1-.3,1s-.3-.45-.3-1,.13-1,.3-1S94.34,12,94.34,12.59Z"/><path class="cls-7" d="M94.34,15.73c0,.55-.14,1-.3,1s-.3-.45-.3-1,.13-1,.3-1S94.34,15.17,94.34,15.73Z"/><path class="cls-7" d="M94.34,18.77c0,.56-.14,1-.3,1s-.3-.45-.3-1,.13-1,.3-1S94.34,18.22,94.34,18.77Z"/><path class="cls-7" d="M94.34,21.82c0,.56-.14,1-.3,1s-.3-.44-.3-1,.13-1,.3-1S94.34,21.27,94.34,21.82Z"/><path class="cls-7" d="M94.34,25c0,.56-.14,1-.3,1s-.3-.45-.3-1,.13-1,.3-1S94.34,24.49,94.34,25Z"/><path class="cls-3" d="M101.31,52.45a1.78,1.78,0,0,1-1.78-2.64l1.43-3.5c.6-1.45,1.57-1.45,2.17,0l1.43,3.5a1.78,1.78,0,0,1-1.77,2.64Z"/><path class="cls-3" d="M91.66,44.68a.79.79,0,1,0,0,1.58h20.77a.79.79,0,1,0,0-1.58Z"/><path class="cls-3" d="M112.16,19V29.45a4.52,4.52,0,0,1-3.44,4.73c-.71,0-9.37.07-13.1,0C92.45,34.13,92,30,92,29.83V20.2H90.38v9.71c.2,2.05,1.55,5.79,5.21,5.86,3.89.07,13.13,0,13.23,0H109a6.14,6.14,0,0,0,4.78-6.43V19Z"/><path class="cls-8" d="M114.24,19.23v2.21h-2.61V19.23a1.31,1.31,0,0,1,2.61,0Z"/><path class="cls-9" d="M89.85,19.23v2.21h2.61V19.23a1.31,1.31,0,0,0-2.61,0Z"/><path class="cls-3" d="M95.73,40.29c0,3,2.83,5.34,6.32,5.34s6.31-2.39,6.31-5.34S105.53,35,102.05,35,95.73,37.34,95.73,40.29Zm1.59,0c0-2.07,2.12-3.76,4.73-3.76s4.73,1.69,4.73,3.76S104.65,44,102.05,44,97.32,42.36,97.32,40.29Z"/><path class="cls-3" d="M81.32.69a37.83,37.83,0,0,1-22.1,0,.79.79,0,0,0-1,.53.8.8,0,0,0,.53,1,39.43,39.43,0,0,0,23,0,.8.8,0,0,0,.53-1A.79.79,0,0,0,81.32.69Z"/><path class="cls-3" d="M87.13,6.1a51.42,51.42,0,0,1-33.72,0,.8.8,0,0,0-1,.47.81.81,0,0,0,.48,1,53.09,53.09,0,0,0,34.8,0,.81.81,0,0,0,.48-1A.8.8,0,0,0,87.13,6.1Z"/><path class="cls-3" d="M64.15,10.79a4.33,4.33,0,0,0-1.35,3.15c0,3,3,5.59,6.66,5.6h1.62c3.61,0,6.66-2.57,6.66-5.6h0a4.29,4.29,0,0,0-1.35-3.15,7.35,7.35,0,0,0-5.33-1.85H69.48A7.35,7.35,0,0,0,64.15,10.79Zm.24,3.15a2.75,2.75,0,0,1,.87-2,5.82,5.82,0,0,1,4.19-1.4h1.64a5.82,5.82,0,0,1,4.19,1.4,2.74,2.74,0,0,1,.87,2h0c0,2.17-2.32,4-5.08,4h-1.6C66.71,18,64.39,16.11,64.39,13.94Z"/><path class="cls-3" d="M69.48,19.42V35.3a.79.79,0,0,0,1.58,0V19.42a.79.79,0,0,0-1.58,0Z"/><path class="cls-3" d="M83.26,16.78v4.38c0,2-2.2,3.69-4.9,3.69-5.3.07-10.88.07-16.17,0-2.71,0-4.91-1.6-4.91-3.55V17.05a.79.79,0,0,0-1.58,0V21.3c0,2.82,2.9,5.13,6.48,5.14,5.29.06,10.89.07,16.19,0,3.57,0,6.48-2.38,6.47-5.28V16.78a.79.79,0,0,0-1.58,0Z"/><path class="cls-3" d="M60,43.1a.79.79,0,1,0,.28,1.56,57.42,57.42,0,0,1,20,0,.79.79,0,0,0,.28-1.56A58.68,58.68,0,0,0,60,43.1Z"/><path class="cls-3" d="M65.82,35.19c-3.56.12-6.57,3-6.57,6.29V47.4c0,3.39,4.18,4.67,4.36,4.73l.23,0H76.7l.23,0c.18-.06,4.36-1.34,4.36-4.73h0V41.48c0-3.29-3-6.17-6.57-6.29C71.77,35.07,68.77,35.07,65.82,35.19Zm-5,12.21V41.48a5.06,5.06,0,0,1,5-4.7c2.91-.12,5.87-.12,8.78,0a5.07,5.07,0,0,1,5,4.7V47.4c0,2-2.65,3-3.13,3.17H64C63.49,50.41,60.84,49.42,60.84,47.4Z"/><path class="cls-3" d="M59.25,34.24v6.93A.79.79,0,0,0,60,42a.79.79,0,0,0,.8-.79V34.24a.8.8,0,0,0-.8-.8A.79.79,0,0,0,59.25,34.24Z"/><path class="cls-3" d="M79.7,34.24v6.93a.8.8,0,0,0,1.59,0V34.24a.8.8,0,1,0-1.59,0Z"/><path class="cls-3" d="M4.81,81.63,3.49,79.48C3,78.74,2.56,78,2.08,77.33a2.38,2.38,0,0,1,1.68-.61A7.57,7.57,0,0,1,5.58,77,8.91,8.91,0,0,1,7.87,78,17.54,17.54,0,0,1,10,79.43a7.69,7.69,0,0,0,1.29.92c.21.07.56.17,1.06.29l.82.09a3.66,3.66,0,0,0,3.25-1.4,4.46,4.46,0,0,0,1-2.38,3.1,3.1,0,0,0-1.51-2.43,16.22,16.22,0,0,0-4.77-2.1l-3.37-1c-.31-.12-.61-.24-.9-.38a7.72,7.72,0,0,1-1.1-.67,5.79,5.79,0,0,1-2.15-2.21,6.51,6.51,0,0,1-.64-3,4.17,4.17,0,0,1,.45-1.94,5.69,5.69,0,0,1,1.29-1.62,5.77,5.77,0,0,1,1.92-1.13,11.49,11.49,0,0,1,2.79-.54l1.12,0a14.41,14.41,0,0,1,1.82.22l1.58.26.67.08c.12,0,.37,0,.77.06l.69,0a4.69,4.69,0,0,0,1.34-.23L20,64.43a3.17,3.17,0,0,1-1.62.43,5.16,5.16,0,0,1-1.63-.33l-.58-.28h-.09l-2.47-1.71a5.68,5.68,0,0,0-3.13-1.16,3,3,0,0,0-.8.11,5.59,5.59,0,0,0-1.16.6,2,2,0,0,0-.78,1.81,2.1,2.1,0,0,0,.73,1.76,6.17,6.17,0,0,0,1.58.89c.58.21,1.16.4,1.76.58l2.53.75a18.93,18.93,0,0,1,4.5,1.83,5.68,5.68,0,0,1,2,2.24,8.32,8.32,0,0,1,.81,2.5,11.14,11.14,0,0,1-.29,2.75,5.88,5.88,0,0,1-1.09,2.1,6.22,6.22,0,0,1-1.66,1.54,8.08,8.08,0,0,1-2,.86,8.8,8.8,0,0,1-2.25.36l-1.92,0a7.48,7.48,0,0,1-1.26-.1c-.42-.07-1.09-.22-2-.45l-.73-.15a9.19,9.19,0,0,0-1.74-.2A4.28,4.28,0,0,0,4.81,81.63Z"/><path class="cls-3" d="M23.11,68.2a5.16,5.16,0,0,0-.64-1,9.59,9.59,0,0,0,2.86-.49c1.06-.32,2-.64,3-1v1.92a5,5,0,0,1,2.36-1.61,7.75,7.75,0,0,1,1.89-.31,3.9,3.9,0,0,1,2.76,1.38l.4.45.73-.66a5.54,5.54,0,0,1,3.25-1.17,11.58,11.58,0,0,1,1.19.11,3.24,3.24,0,0,1,1.67.86,2.29,2.29,0,0,1,.83,1.74V79.09a2.77,2.77,0,0,0,.15.84,3.68,3.68,0,0,0,.49,1l.41.52H37.84a3.92,3.92,0,0,0,.7-2.31V70.27a1.84,1.84,0,0,0-.44-1.13l-.32-.28a1.19,1.19,0,0,0-.64-.19,1,1,0,0,0-1,.47,2.77,2.77,0,0,0-.29.73,3.7,3.7,0,0,0-.06.78V79.2a3.51,3.51,0,0,0,.69,2.25H30.29a3.32,3.32,0,0,0,.54-1,3.44,3.44,0,0,0,.18-1V70a1.21,1.21,0,0,0-.4-.93,1.37,1.37,0,0,0-1-.38,1.2,1.2,0,0,0-.94.45,1.65,1.65,0,0,0-.4,1.15V79.5A3.33,3.33,0,0,0,28.63,81l.29.46H22.53a3.78,3.78,0,0,0,.67-1.07,3.21,3.21,0,0,0,.29-1.22v-10a.85.85,0,0,0,0-.24A4.54,4.54,0,0,0,23.11,68.2Z"/><path class="cls-3" d="M52.31,70.88,53,70.7,52.83,70c-.17-1-.85-1.43-2-1.43a5.25,5.25,0,0,0-1.7.31,9.56,9.56,0,0,0-2.05,1l-.52.32a3.87,3.87,0,0,1,.61-1.69,4.45,4.45,0,0,1,1.25-1.27,7,7,0,0,1,1.27-.74A8.63,8.63,0,0,1,51.15,66a8.3,8.3,0,0,1,1.91-.22A4.45,4.45,0,0,1,56.38,67a6.09,6.09,0,0,1,1.48,3.58l1,8.94a2.58,2.58,0,0,0,.37,1,3,3,0,0,0,.8.9H54.28l-.11-.84c-.2.12-.37.22-.51.32a9.23,9.23,0,0,1-1.22.55,6.41,6.41,0,0,1-2.4.41A4.47,4.47,0,0,1,47.21,81a3.89,3.89,0,0,1-1.47-2,7.72,7.72,0,0,1-.29-1.74A4.18,4.18,0,0,1,46,75.09a7,7,0,0,1,1.18-1.56,8.92,8.92,0,0,1,1.51-1.17,9.9,9.9,0,0,1,1.61-.83A20.52,20.52,0,0,1,52.31,70.88Zm.77.87a5.18,5.18,0,0,0-1.24,1,6.44,6.44,0,0,0-.91,1.57,4.66,4.66,0,0,0-.42,1.8v.67a4,4,0,0,0,.59,2.24,1.85,1.85,0,0,0,1.59.87,1.54,1.54,0,0,0,1.33-.7Z"/><path class="cls-3" d="M60.62,68.18l-.56-.59,1.43-.43,1.45-.46,1.48-.46,1.48-.48v2.73l.44-.61a6.8,6.8,0,0,1,1.44-1.46A2.78,2.78,0,0,1,68.85,66a5.16,5.16,0,0,1,.77-.07,2.49,2.49,0,0,1,1.91.77,2.92,2.92,0,0,1,.71,2,2.49,2.49,0,0,1-.58,1.75,2,2,0,0,1-1.54.63,3.6,3.6,0,0,1-1.43-.33,3.53,3.53,0,0,1-1.25-.86,1.12,1.12,0,0,0-.78.2,7.25,7.25,0,0,0-.76.58v9a1.66,1.66,0,0,0,.44,1.22,3.53,3.53,0,0,0,.7.58h-7l.41-.44a2.66,2.66,0,0,0,.61-1.54v-9.9A2.3,2.3,0,0,0,60.62,68.18Z"/><path class="cls-3" d="M73.28,68.49H71.71a46.6,46.6,0,0,0,4.77-4l1.6-1.6v3.76H80.6v1.88H78.08V78.4c0,.81.47,1.22,1.42,1.22a2.69,2.69,0,0,0,.67-.09l.75-.26.38-.2a3.66,3.66,0,0,1-.76,1.51,4,4,0,0,1-1.29,1,10.34,10.34,0,0,1-1,.43,2,2,0,0,1-.55.07h-.82a3.23,3.23,0,0,1-3.59-2.91V68.49Z"/><path class="cls-3" d="M92.57,81.45H80.49a14.23,14.23,0,0,0,1.61-1.79A25.29,25.29,0,0,0,83.77,77l8.6-14.94-.44,0a4.86,4.86,0,0,0-1.89.34,34.86,34.86,0,0,0-3.31,1.78l-1.36.85a3.48,3.48,0,0,1-.55.24,6.57,6.57,0,0,1-1.79.34c-.36,0-.65,0-.86,0l.29-.66c.53-1.3.89-2.25,1.11-2.85s.36-1.08.46-1.45l.06-.21.06-.37.4.14a5.16,5.16,0,0,0,1.66.23H99.37L88.21,79.8h.91a7.88,7.88,0,0,0,1.41-.12,9,9,0,0,0,1.4-.38l.53-.23h.08l2.18-1.29A12.65,12.65,0,0,1,97,76.66a6,6,0,0,1,1.88-.35h.45a2.75,2.75,0,0,1,.62.12c-.43.67-.9,1.52-1.42,2.55s-1,2-1.45,2.87a8.31,8.31,0,0,0-1.47-.33,20.37,20.37,0,0,0-2-.07Z"/><path class="cls-3" d="M107.27,81.45h-6.88l.38-.43a4.09,4.09,0,0,0,.46-.91,2.45,2.45,0,0,0,.17-.84V62.6a1.76,1.76,0,0,0-.26-.92,2.13,2.13,0,0,0-.69-.74,10.67,10.67,0,0,0,2.8-.38,21.48,21.48,0,0,0,3-1.08v8.08a4.21,4.21,0,0,1,1-.81,5.06,5.06,0,0,1,1.38-.46,6.78,6.78,0,0,1,1.36-.18,4,4,0,0,1,2.72.92,2.91,2.91,0,0,1,1,2.28v9.58a3.3,3.3,0,0,0,1,2.56h-6.6a3.18,3.18,0,0,0,.73-2.22V69.86a1,1,0,0,0-.39-.8,1.47,1.47,0,0,0-1-.33,4.37,4.37,0,0,0-.77.14c-.37.1-.56.43-.56,1V79A3.22,3.22,0,0,0,107.27,81.45Z"/><path class="cls-3" d="M116,67.51l-.39-.29a9.69,9.69,0,0,0,1.47-.12c.51-.08,1-.17,1.54-.29a12,12,0,0,0,1.48-.44,12.26,12.26,0,0,0,1.41-.61V78a1.17,1.17,0,0,0,.43.93,1.47,1.47,0,0,0,1,.38,1.18,1.18,0,0,0,.9-.4,1.34,1.34,0,0,0,.38-.91V68.84a.73.73,0,0,0-.06-.26c0-.1-.14-.28-.29-.56a2.47,2.47,0,0,0-.76-.8,10.3,10.3,0,0,0,2.9-.48c1.07-.32,2.07-.65,3-1V79.27a3,3,0,0,0,.64,1.75l.41.43h-5.84V80.32c-.14.11-.26.22-.37.32a9,9,0,0,1-.76.55,4.63,4.63,0,0,1-1.54.62A7,7,0,0,1,120,82c-2.17,0-3.26-1.35-3.26-4.07V68.78a1.27,1.27,0,0,0-.16-.62A2.53,2.53,0,0,0,116,67.51Z"/><path class="cls-3" d="M130.43,67.65l-.35-.32,1.36-.38,4-1.25c.1.41.16.68.19.8a4.42,4.42,0,0,0,.22.63l.78,1.65,2.88,6.63L141,71.08a6,6,0,0,0,.19-1.45,3.49,3.49,0,0,0-.05-.52c0-.2-.08-.52-.17-1a3.44,3.44,0,0,0-.92-1.54h5.49l-.58,1.19c-.77,1.62-1.24,2.62-1.41,3l-.88,2-4,10.2a7.13,7.13,0,0,1-1.7,2.46,4,4,0,0,1-2.86,1.14,4.45,4.45,0,0,1-1.25-.2,3.62,3.62,0,0,1-1.19-.61,2.21,2.21,0,0,1-.73-.94,2.65,2.65,0,0,1-.2-1,2,2,0,0,1,.59-1.51,2.11,2.11,0,0,1,1.56-.6,3.5,3.5,0,0,1,1.74.5l.26.17.5.35.08.09a.69.69,0,0,0,.32.08,1.25,1.25,0,0,0,.41-.11,1,1,0,0,0,.43-.44,2.74,2.74,0,0,0,.25-.58.74.74,0,0,0,0-.44l-5.49-12.43A4.55,4.55,0,0,0,130.43,67.65Z"/><path class="cls-3" d="M152.39,81.45H145.5L146,81a3,3,0,0,0,.58-1.72V69.05a2,2,0,0,0-1-1.83,10,10,0,0,0,2.85-.48c1.06-.32,2.05-.65,3-1V79.27a2.42,2.42,0,0,0,.37,1.16c.24.45.38.71.43.77A1.45,1.45,0,0,0,152.39,81.45Zm-3.55-16.88a3.17,3.17,0,0,1-2.05-.68,2.15,2.15,0,0,1-.82-1.73,2.69,2.69,0,0,1,.72-1.92,2.73,2.73,0,0,1,2-.75,2.88,2.88,0,0,1,2.07.68,2.54,2.54,0,0,1,.72,1.93,2.35,2.35,0,0,1-.74,1.76A2.67,2.67,0,0,1,148.84,64.57Z"/><path class="cls-3" d="M159.68,81.45H153.2l.5-.41a2.15,2.15,0,0,0,.55-1.42V68.9a1.51,1.51,0,0,0-.16-.64,3.13,3.13,0,0,0-.48-.7l-.35-.31a9.91,9.91,0,0,0,2.85-.49c1-.32,2-.65,2.93-1v1.57l.52-.35a5.6,5.6,0,0,1,2.94-1.13,4.62,4.62,0,0,1,2.95.8,3.54,3.54,0,0,1,1.12,2.57v8.92a4.35,4.35,0,0,0,.17,1.23,11.26,11.26,0,0,0,.64,1.62l.23.46h-6.48l.32-.58a2.58,2.58,0,0,0,.32-1.07V69.45c0-.64-.4-1-1.22-1a2.94,2.94,0,0,0-.71.09.9.9,0,0,0-.58.54,3.43,3.43,0,0,0-.22,1.44V80.67C159,81,159.25,81.24,159.68,81.45Z"/></g></g></svg>