<svg xmlns="http://www.w3.org/2000/svg" xmlns:xlink="http://www.w3.org/1999/xlink" viewBox="0 0 236.69 52.46"><defs><style>.cls-1{fill:#007686;}.cls-2{fill:#b5b5b6;opacity:0.75;}.cls-3{fill:#dcdddd;}.cls-4{fill:#898989;}.cls-5{fill:#fff;}.cls-6{fill:url(#linear-gradient);}.cls-7{fill:url(#linear-gradient-2);}</style><linearGradient id="linear-gradient" x1="-1525.33" y1="-15602.59" x2="-1525.33" y2="-15597.23" gradientTransform="matrix(0, 1, 1, 0, 15660.5, 1545.02)" gradientUnits="userSpaceOnUse"><stop offset="0" stop-color="#007686"/><stop offset="0.04" stop-color="#077a88"/><stop offset="0.1" stop-color="#19848e"/><stop offset="0.17" stop-color="#379499"/><stop offset="0.24" stop-color="#61aba7"/><stop offset="0.32" stop-color="#97c8b9"/><stop offset="0.4" stop-color="#d6eace"/><stop offset="0.47" stop-color="#bddcc6"/><stop offset="0.73" stop-color="#58a6a4"/><stop offset="0.91" stop-color="#19838e"/><stop offset="1" stop-color="#007686"/></linearGradient><linearGradient id="linear-gradient-2" x1="-1525.33" y1="-16148.38" x2="-1525.33" y2="-16143.02" gradientTransform="translate(-16106.9 1545.02) rotate(90)" xlink:href="#linear-gradient"/></defs><g id="圖層_2" data-name="圖層 2"><g id="圖層_1-2" data-name="圖層 1"><path class="cls-1" d="M58,7c-.36-3.94-4-7-8.33-7s-8,3.09-8.33,7h0V25.58h0a8.36,8.36,0,0,0,16.66,0h0Z"/><path class="cls-2" d="M56.13,5.81a6.52,6.52,0,0,0-13,0h-.06V26.58a6.54,6.54,0,1,0,13.07,0V5.81Z"/><path class="cls-3" d="M49.13.26a4.33,4.33,0,0,0-4.31,4.36v24a4.31,4.31,0,1,0,8.62,0v-24A4.33,4.33,0,0,0,49.13.26Z"/><path class="cls-4" d="M50.72,9.61a1,1,0,1,1-1-1A1,1,0,0,1,50.72,9.61Z"/><path class="cls-4" d="M50.77,12.83a1,1,0,1,1-1-1A1,1,0,0,1,50.77,12.83Z"/><path class="cls-4" d="M50.77,16a1,1,0,1,1-1-1A1,1,0,0,1,50.77,16Z"/><path class="cls-4" d="M50.77,19a1,1,0,1,1-1-1A1,1,0,0,1,50.77,19Z"/><path class="cls-4" d="M50.77,22.06a1,1,0,1,1-1-1A1,1,0,0,1,50.77,22.06Z"/><path class="cls-4" d="M50.77,25.29a1,1,0,1,1-1-1A1,1,0,0,1,50.77,25.29Z"/><path class="cls-4" d="M48.13,11.22a1,1,0,1,1-1-1A1,1,0,0,1,48.13,11.22Z"/><path class="cls-4" d="M48.17,14.44a1,1,0,1,1-1-1A1,1,0,0,1,48.17,14.44Z"/><path class="cls-4" d="M48.17,17.58a1,1,0,1,1-1-1A1,1,0,0,1,48.17,17.58Z"/><path class="cls-4" d="M48.17,20.62a1,1,0,1,1-1-1A1,1,0,0,1,48.17,20.62Z"/><path class="cls-4" d="M48.17,23.67a1,1,0,0,1-2,0,1,1,0,0,1,2,0Z"/><path class="cls-4" d="M53.27,11.22a1,1,0,1,1-1-1A1,1,0,0,1,53.27,11.22Z"/><path class="cls-4" d="M53.31,14.44a1,1,0,1,1-1-1A1,1,0,0,1,53.31,14.44Z"/><path class="cls-4" d="M53.31,17.58a1,1,0,1,1-1-1A1,1,0,0,1,53.31,17.58Z"/><path class="cls-4" d="M53.31,20.62a1,1,0,1,1-1-1A1,1,0,0,1,53.31,20.62Z"/><path class="cls-4" d="M53.31,23.67a1,1,0,0,1-2,0,1,1,0,0,1,2,0Z"/><path class="cls-4" d="M55.46,9.61c0,.55-.33,1-.75,1s-.74-.45-.74-1,.33-1,.74-1S55.46,9.05,55.46,9.61Z"/><path class="cls-4" d="M55.49,12.83c0,.55-.33,1-.74,1s-.75-.45-.75-1,.34-1,.75-1S55.49,12.28,55.49,12.83Z"/><path class="cls-4" d="M55.49,16c0,.56-.33,1-.74,1S54,16.52,54,16s.34-1,.75-1S55.49,15.41,55.49,16Z"/><path class="cls-4" d="M55.49,19c0,.55-.33,1-.74,1A.9.9,0,0,1,54,19c0-.56.34-1,.75-1S55.49,18.46,55.49,19Z"/><path class="cls-4" d="M55.49,22.06c0,.56-.33,1-.74,1s-.75-.44-.75-1,.34-1,.75-1S55.49,21.51,55.49,22.06Z"/><path class="cls-4" d="M55.49,25.29c0,.55-.33,1-.74,1s-.75-.45-.75-1,.34-1,.75-1S55.49,24.73,55.49,25.29Z"/><path class="cls-4" d="M45.62,9.61c0,.55-.34,1-.75,1s-.75-.45-.75-1,.34-1,.75-1S45.62,9.05,45.62,9.61Z"/><path class="cls-4" d="M45.65,12.83c0,.55-.34,1-.74,1s-.75-.45-.75-1,.33-1,.75-1S45.65,12.28,45.65,12.83Z"/><path class="cls-4" d="M45.65,16c0,.56-.34,1-.74,1s-.75-.45-.75-1,.33-1,.75-1S45.65,15.41,45.65,16Z"/><path class="cls-4" d="M45.65,19a.9.9,0,0,1-.75,1c-.41,0-.74-.44-.74-1s.33-1,.74-1S45.65,18.46,45.65,19Z"/><path class="cls-4" d="M45.65,22.06c0,.56-.34,1-.75,1s-.74-.44-.74-1,.33-1,.74-1S45.65,21.51,45.65,22.06Z"/><path class="cls-4" d="M45.65,25.29c0,.55-.34,1-.74,1s-.75-.45-.75-1,.33-1,.75-1S45.65,24.73,45.65,25.29Z"/><path class="cls-4" d="M57.22,11.35c0,.55-.22,1-.5,1s-.5-.45-.5-1,.23-1,.5-1S57.22,10.79,57.22,11.35Z"/><path class="cls-4" d="M57.24,14.57c0,.55-.22,1-.5,1s-.5-.45-.5-1,.23-1,.5-1S57.24,14,57.24,14.57Z"/><path class="cls-4" d="M57.24,17.71c0,.55-.22,1-.5,1s-.5-.45-.5-1,.23-1,.5-1S57.24,17.15,57.24,17.71Z"/><path class="cls-4" d="M57.24,20.76c0,.55-.22,1-.5,1s-.5-.45-.5-1,.23-1,.5-1S57.24,20.2,57.24,20.76Z"/><path class="cls-4" d="M57.24,23.8c0,.56-.22,1-.5,1s-.5-.45-.5-1,.23-1,.5-1S57.24,23.25,57.24,23.8Z"/><path class="cls-4" d="M43.46,11.39c0,.55-.23,1-.5,1s-.5-.45-.5-1,.22-1,.5-1S43.46,10.84,43.46,11.39Z"/><path class="cls-4" d="M43.48,14.62c0,.55-.22,1-.5,1s-.5-.45-.5-1,.22-1,.5-1S43.48,14.06,43.48,14.62Z"/><path class="cls-4" d="M43.48,17.75c0,.55-.22,1-.5,1s-.5-.45-.5-1,.22-1,.5-1S43.48,17.2,43.48,17.75Z"/><path class="cls-4" d="M43.48,20.8c0,.55-.22,1-.5,1s-.5-.45-.5-1,.22-1,.5-1S43.48,20.25,43.48,20.8Z"/><path class="cls-4" d="M43.48,23.85c0,.55-.22,1-.5,1s-.5-.45-.5-1,.22-1,.5-1S43.48,23.29,43.48,23.85Z"/><path class="cls-4" d="M58,9.87c0,.55-.14,1-.3,1s-.3-.45-.3-1,.13-1,.3-1S58,9.31,58,9.87Z"/><path class="cls-4" d="M58,13.09c0,.55-.13,1-.3,1s-.3-.45-.3-1,.14-1,.3-1S58,12.54,58,13.09Z"/><path class="cls-4" d="M58,16.23c0,.55-.13,1-.3,1s-.3-.45-.3-1,.14-1,.3-1S58,15.67,58,16.23Z"/><path class="cls-4" d="M58,19.28c0,.55-.13,1-.3,1s-.3-.45-.3-1,.14-1,.3-1S58,18.72,58,19.28Z"/><path class="cls-4" d="M58,22.33c0,.55-.13,1-.3,1s-.3-.45-.3-1,.14-1,.3-1S58,21.77,58,22.33Z"/><path class="cls-4" d="M58,25.55c0,.55-.13,1-.3,1s-.3-.45-.3-1,.14-1,.3-1S58,25,58,25.55Z"/><path class="cls-4" d="M42,9.7c0,.55-.14,1-.3,1s-.3-.44-.3-1,.13-1,.3-1S42,9.14,42,9.7Z"/><path class="cls-4" d="M42,12.92c0,.55-.13,1-.3,1s-.3-.45-.3-1,.13-1,.3-1S42,12.36,42,12.92Z"/><path class="cls-4" d="M42,16.05c0,.55-.13,1-.3,1s-.3-.45-.3-1,.13-1,.3-1S42,15.5,42,16.05Z"/><path class="cls-4" d="M42,19.1c0,.56-.13,1-.3,1s-.3-.44-.3-1,.13-1,.3-1S42,18.55,42,19.1Z"/><path class="cls-4" d="M42,22.15c0,.55-.13,1-.3,1s-.3-.45-.3-1,.13-1,.3-1S42,21.6,42,22.15Z"/><path class="cls-4" d="M42,25.37c0,.56-.13,1-.3,1s-.3-.44-.3-1,.13-1,.3-1S42,24.82,42,25.37Z"/><path class="cls-5" d="M49.81,1.46a2.13,2.13,0,0,1-1.26,2.69,2.14,2.14,0,0,1-2.92-.53A2.14,2.14,0,0,1,46.89.92,2.14,2.14,0,0,1,49.81,1.46Z"/><path class="cls-5" d="M50.75,9.28a1,1,0,1,1-1-1A1,1,0,0,1,50.75,9.28Z"/><path class="cls-5" d="M50.79,12.5a1,1,0,1,1-1-1A1,1,0,0,1,50.79,12.5Z"/><path class="cls-5" d="M50.79,15.64a1,1,0,1,1-1-1A1,1,0,0,1,50.79,15.64Z"/><path class="cls-5" d="M50.79,18.68a1,1,0,1,1-1-1A1,1,0,0,1,50.79,18.68Z"/><path class="cls-5" d="M50.79,21.73a1,1,0,1,1-1-1A1,1,0,0,1,50.79,21.73Z"/><path class="cls-5" d="M50.79,25a1,1,0,1,1-1-1A1,1,0,0,1,50.79,25Z"/><path class="cls-5" d="M48.15,10.89a1,1,0,1,1-1-1A1,1,0,0,1,48.15,10.89Z"/><path class="cls-5" d="M48.2,14.11a1,1,0,1,1-1-1A1,1,0,0,1,48.2,14.11Z"/><path class="cls-5" d="M48.2,17.25a1,1,0,1,1-1-1A1,1,0,0,1,48.2,17.25Z"/><path class="cls-5" d="M48.2,20.3a1,1,0,1,1-1-1A1,1,0,0,1,48.2,20.3Z"/><path class="cls-5" d="M48.2,23.35a1,1,0,1,1-1-1A1,1,0,0,1,48.2,23.35Z"/><path class="cls-5" d="M53.29,10.89a1,1,0,1,1-1-1A1,1,0,0,1,53.29,10.89Z"/><path class="cls-5" d="M53.34,14.11a1,1,0,1,1-1-1A1,1,0,0,1,53.34,14.11Z"/><path class="cls-5" d="M53.34,17.25a1,1,0,1,1-1-1A1,1,0,0,1,53.34,17.25Z"/><path class="cls-5" d="M53.34,20.3a1,1,0,1,1-1-1A1,1,0,0,1,53.34,20.3Z"/><path class="cls-5" d="M53.34,23.35a1,1,0,1,1-1-1A1,1,0,0,1,53.34,23.35Z"/><path class="cls-5" d="M55.48,9.28c0,.55-.33,1-.74,1s-.75-.45-.75-1,.34-1,.75-1S55.48,8.73,55.48,9.28Z"/><path class="cls-5" d="M55.51,12.5c0,.56-.33,1-.74,1s-.75-.44-.75-1,.34-1,.75-1S55.51,12,55.51,12.5Z"/><path class="cls-5" d="M55.51,15.64c0,.55-.33,1-.74,1s-.75-.45-.75-1,.34-1,.75-1S55.51,15.09,55.51,15.64Z"/><path class="cls-5" d="M55.51,18.68c0,.56-.33,1-.74,1s-.75-.45-.75-1a.9.9,0,0,1,.75-1C55.18,17.69,55.51,18.13,55.51,18.68Z"/><path class="cls-5" d="M55.51,21.73c0,.56-.33,1-.74,1s-.75-.45-.75-1,.34-1,.75-1S55.51,21.18,55.51,21.73Z"/><path class="cls-5" d="M55.51,25c0,.55-.33,1-.74,1S54,25.51,54,25s.34-1,.75-1S55.51,24.41,55.51,25Z"/><path class="cls-5" d="M45.64,9.28c0,.55-.34,1-.75,1s-.74-.45-.74-1,.33-1,.74-1S45.64,8.73,45.64,9.28Z"/><path class="cls-5" d="M45.67,12.5c0,.56-.33,1-.75,1s-.74-.44-.74-1,.33-1,.74-1S45.67,12,45.67,12.5Z"/><path class="cls-5" d="M45.67,15.64c0,.55-.33,1-.75,1s-.74-.45-.74-1,.33-1,.74-1S45.67,15.09,45.67,15.64Z"/><path class="cls-5" d="M45.67,18.68c0,.56-.33,1-.75,1s-.74-.45-.74-1,.33-1,.74-1S45.67,18.13,45.67,18.68Z"/><path class="cls-5" d="M45.67,21.73c0,.56-.33,1-.75,1s-.74-.45-.74-1,.33-1,.74-1S45.67,21.18,45.67,21.73Z"/><path class="cls-5" d="M45.67,25c0,.55-.33,1-.75,1s-.74-.45-.74-1,.33-1,.74-1S45.67,24.41,45.67,25Z"/><path class="cls-5" d="M57.24,11c0,.55-.22,1-.5,1s-.5-.45-.5-1,.23-1,.5-1S57.24,10.47,57.24,11Z"/><path class="cls-5" d="M57.27,14.25c0,.55-.23,1-.5,1s-.5-.45-.5-1,.22-1,.5-1S57.27,13.69,57.27,14.25Z"/><path class="cls-5" d="M57.27,17.38c0,.55-.23,1-.5,1s-.5-.45-.5-1,.22-1,.5-1S57.27,16.83,57.27,17.38Z"/><path class="cls-5" d="M57.27,20.43c0,.55-.23,1-.5,1s-.5-.45-.5-1,.22-1,.5-1S57.27,19.88,57.27,20.43Z"/><path class="cls-5" d="M57.27,23.48c0,.55-.23,1-.5,1s-.5-.45-.5-1,.22-1,.5-1S57.27,22.93,57.27,23.48Z"/><path class="cls-5" d="M43.48,11.06c0,.56-.22,1-.5,1s-.5-.45-.5-1,.22-1,.5-1S43.48,10.51,43.48,11.06Z"/><path class="cls-5" d="M43.5,14.29c0,.55-.22,1-.5,1s-.5-.45-.5-1,.23-1,.5-1S43.5,13.73,43.5,14.29Z"/><path class="cls-5" d="M43.5,17.43c0,.55-.22,1-.5,1s-.5-.44-.5-1,.23-1,.5-1S43.5,16.87,43.5,17.43Z"/><path class="cls-5" d="M43.5,20.47c0,.56-.22,1-.5,1s-.5-.44-.5-1,.23-1,.5-1S43.5,19.92,43.5,20.47Z"/><path class="cls-5" d="M43.5,23.52c0,.55-.22,1-.5,1s-.5-.45-.5-1,.23-1,.5-1S43.5,23,43.5,23.52Z"/><path class="cls-5" d="M58.05,9.54c0,.55-.13,1-.3,1s-.3-.45-.3-1,.14-1,.3-1S58.05,9,58.05,9.54Z"/><path class="cls-5" d="M58.06,12.76c0,.56-.13,1-.3,1s-.29-.44-.29-1,.13-1,.29-1S58.06,12.21,58.06,12.76Z"/><path class="cls-5" d="M58.06,15.9c0,.55-.13,1-.3,1s-.29-.45-.29-1,.13-1,.29-1S58.06,15.35,58.06,15.9Z"/><path class="cls-5" d="M58.06,19c0,.55-.13,1-.3,1s-.29-.45-.29-1,.13-1,.29-1S58.06,18.4,58.06,19Z"/><path class="cls-5" d="M58.06,22c0,.55-.13,1-.3,1s-.29-.45-.29-1,.13-1,.29-1S58.06,21.44,58.06,22Z"/><path class="cls-5" d="M58.06,25.22c0,.55-.13,1-.3,1s-.29-.45-.29-1,.13-1,.29-1S58.06,24.67,58.06,25.22Z"/><path class="cls-5" d="M42,9.36c0,.56-.14,1-.3,1s-.3-.45-.3-1,.13-1,.3-1S42,8.81,42,9.36Z"/><path class="cls-5" d="M42,12.59c0,.55-.13,1-.3,1s-.3-.45-.3-1,.13-1,.3-1S42,12,42,12.59Z"/><path class="cls-5" d="M42,15.73c0,.55-.13,1-.3,1s-.3-.45-.3-1,.13-1,.3-1S42,15.17,42,15.73Z"/><path class="cls-5" d="M42,18.77c0,.56-.13,1-.3,1s-.3-.45-.3-1,.13-1,.3-1S42,18.22,42,18.77Z"/><path class="cls-5" d="M42,21.82c0,.55-.13,1-.3,1s-.3-.45-.3-1,.13-1,.3-1S42,21.27,42,21.82Z"/><path class="cls-5" d="M42,25c0,.56-.13,1-.3,1s-.3-.45-.3-1,.13-1,.3-1S42,24.49,42,25Z"/><path class="cls-1" d="M49,52.46a1.79,1.79,0,0,1-1.78-2.65l1.44-3.5c.59-1.45,1.56-1.45,2.16,0l1.43,3.5a1.78,1.78,0,0,1-1.77,2.65Z"/><path class="cls-1" d="M39.31,44.68a.79.79,0,0,0,0,1.58H60.09a.79.79,0,0,0,0-1.58Z"/><path class="cls-1" d="M59.81,19V29.45a4.52,4.52,0,0,1-3.44,4.73c-.71,0-9.37.07-13.1,0-3.17,0-3.63-4.18-3.65-4.35V20.2H38v9.71c.21,2.05,1.55,5.8,5.21,5.86,3.89.07,13.14,0,13.23,0h.14a6.16,6.16,0,0,0,4.79-6.43V19Z"/><path class="cls-6" d="M61.9,19.23v2.21H59.29V19.23a1.31,1.31,0,0,1,2.61,0Z"/><path class="cls-7" d="M37.5,19.23v2.21h2.61V19.23a1.31,1.31,0,0,0-2.61,0Z"/><path class="cls-1" d="M43.39,40.29c0,3,2.83,5.34,6.31,5.34S56,43.24,56,40.29,53.18,35,49.7,35,43.39,37.34,43.39,40.29Zm1.58,0c0-2.07,2.12-3.76,4.73-3.76s4.73,1.69,4.73,3.76S52.31,44,49.7,44,45,42.36,45,40.29Z"/><path class="cls-1" d="M29,.69A37.79,37.79,0,0,1,6.88.69a.8.8,0,0,0-1,.53.81.81,0,0,0,.53,1,39.43,39.43,0,0,0,23,0A.79.79,0,0,0,29,.69Z"/><path class="cls-1" d="M34.78,6.1a51.42,51.42,0,0,1-33.72,0A.79.79,0,1,0,.53,7.59a53.06,53.06,0,0,0,34.79,0,.79.79,0,1,0-.54-1.49Z"/><path class="cls-1" d="M11.8,10.79a4.32,4.32,0,0,0-1.34,3.15c0,3,3,5.59,6.66,5.6h1.61c3.61,0,6.66-2.57,6.66-5.6h0a4.32,4.32,0,0,0-1.34-3.15,7.39,7.39,0,0,0-5.34-1.85H17.13A7.38,7.38,0,0,0,11.8,10.79ZM12,13.94a2.72,2.72,0,0,1,.88-2,5.8,5.8,0,0,1,4.19-1.4h1.63a5.8,5.8,0,0,1,4.19,1.4,2.75,2.75,0,0,1,.88,2h0c0,2.17-2.33,4-5.09,4H17.13C14.37,18,12,16.11,12,13.94Z"/><path class="cls-1" d="M17.13,19.42V35.3a.8.8,0,0,0,1.59,0V19.42a.8.8,0,0,0-1.59,0Z"/><path class="cls-1" d="M30.91,16.78v4.38c0,2-2.2,3.69-4.9,3.69-5.29.07-10.88.07-16.16,0-2.72,0-4.91-1.6-4.91-3.55V17.05a.8.8,0,0,0-1.59,0V21.3c0,2.82,2.91,5.13,6.49,5.14,5.29.06,10.88.07,16.18,0,3.57,0,6.48-2.38,6.48-5.28V16.78a.79.79,0,0,0-.8-.79A.79.79,0,0,0,30.91,16.78Z"/><path class="cls-1" d="M7.64,43.1a.79.79,0,1,0,.29,1.56,57.36,57.36,0,0,1,20,0,.79.79,0,1,0,.28-1.56A58.68,58.68,0,0,0,7.64,43.1Z"/><path class="cls-1" d="M13.47,35.19c-3.56.12-6.57,3-6.57,6.29V47.4c0,3.39,4.18,4.67,4.36,4.73l.23,0H24.36l.22,0c.18-.06,4.36-1.34,4.36-4.73h0V41.48c0-3.29-3-6.17-6.57-6.29C19.42,35.07,16.42,35.07,13.47,35.19Zm-5,12.21V41.48a5.07,5.07,0,0,1,5-4.7c2.92-.12,5.87-.12,8.78,0a5.06,5.06,0,0,1,5,4.7V47.4c0,2-2.65,3-3.12,3.17H11.62C11.15,50.41,8.49,49.42,8.49,47.4Z"/><path class="cls-1" d="M6.9,34.24v6.93a.79.79,0,0,0,.8.79.79.79,0,0,0,.79-.79V34.24a.79.79,0,0,0-.79-.8A.8.8,0,0,0,6.9,34.24Z"/><path class="cls-1" d="M27.35,34.24v6.93a.79.79,0,0,0,.8.79.79.79,0,0,0,.79-.79V34.24a.79.79,0,0,0-.79-.8A.8.8,0,0,0,27.35,34.24Z"/><path class="cls-1" d="M73.89,36.77c-.42-.7-.86-1.42-1.32-2.15s-.92-1.45-1.41-2.15a2.41,2.41,0,0,1,1.69-.61,8,8,0,0,1,1.81.29,8.67,8.67,0,0,1,2.3,1,16.08,16.08,0,0,1,2.13,1.47,7.39,7.39,0,0,0,1.29.91,9.86,9.86,0,0,0,1.07.29l.81.09a3.66,3.66,0,0,0,3.25-1.4,4.46,4.46,0,0,0,1-2.38A3.07,3.07,0,0,0,85,29.67a16.11,16.11,0,0,0-4.76-2.11l-3.37-1c-.31-.12-.61-.24-.9-.38a7.5,7.5,0,0,1-1.11-.66,5.86,5.86,0,0,1-2.15-2.21,6.64,6.64,0,0,1-.64-3,4.07,4.07,0,0,1,.46-1.95,5.48,5.48,0,0,1,1.28-1.61,5.79,5.79,0,0,1,1.92-1.14,11.07,11.07,0,0,1,2.79-.53H79.6a14.41,14.41,0,0,1,1.82.22l1.58.26.67.09c.12,0,.38,0,.77.06l.69,0a4.69,4.69,0,0,0,1.34-.24l2.59,4.07a3.24,3.24,0,0,1-1.63.44,5.21,5.21,0,0,1-1.63-.34l-.58-.27h-.09l-2.46-1.72a5.79,5.79,0,0,0-3.14-1.16,2.72,2.72,0,0,0-.8.12,5,5,0,0,0-1.16.59,2,2,0,0,0-.77,1.82,2.08,2.08,0,0,0,.72,1.75,5.94,5.94,0,0,0,1.59.89c.57.21,1.15.41,1.75.58l2.53.76a18.93,18.93,0,0,1,4.5,1.83,5.51,5.51,0,0,1,2,2.23,8.21,8.21,0,0,1,.81,2.5,10.62,10.62,0,0,1-.29,2.75,5.65,5.65,0,0,1-1.09,2.1A6.18,6.18,0,0,1,87.68,36a8.16,8.16,0,0,1-2,.86,8.26,8.26,0,0,1-2.25.36l-1.92,0a7.64,7.64,0,0,1-1.26-.1c-.42-.07-1.09-.22-2-.45l-.73-.14a8.44,8.44,0,0,0-1.74-.21A4.43,4.43,0,0,0,73.89,36.77Z"/><path class="cls-1" d="M92.19,23.35a4.78,4.78,0,0,0-.64-1,10,10,0,0,0,2.87-.48c1-.32,2-.65,3-1v1.92a4.93,4.93,0,0,1,2.35-1.6,7.38,7.38,0,0,1,1.89-.32,3.87,3.87,0,0,1,2.76,1.38l.4.46.73-.67a5.54,5.54,0,0,1,3.25-1.17,9.63,9.63,0,0,1,1.19.12,3.12,3.12,0,0,1,1.68.86,2.25,2.25,0,0,1,.82,1.73V34.23a2.82,2.82,0,0,0,.15.85,3.78,3.78,0,0,0,.49,1l.41.52h-6.57a3.92,3.92,0,0,0,.7-2.31V25.41a1.8,1.8,0,0,0-.44-1.13l-.31-.28a1.24,1.24,0,0,0-.64-.19,1,1,0,0,0-1,.47A3.17,3.17,0,0,0,105,25a3.81,3.81,0,0,0-.06.79v8.55a3.45,3.45,0,0,0,.7,2.24H99.37a3.32,3.32,0,0,0,.54-1,3.48,3.48,0,0,0,.19-1V25.12a1.22,1.22,0,0,0-.41-.93,1.41,1.41,0,0,0-1-.38,1.2,1.2,0,0,0-.94.45,1.69,1.69,0,0,0-.39,1.15v9.24a3.31,3.31,0,0,0,.34,1.48l.3.46h-6.4a3.64,3.64,0,0,0,.67-1.07,3.17,3.17,0,0,0,.29-1.22v-10a1,1,0,0,0,0-.25A4.2,4.2,0,0,0,92.19,23.35Z"/><path class="cls-1" d="M121.39,26l.64-.17-.12-.76c-.17-.95-.85-1.42-2-1.42a5.5,5.5,0,0,0-1.7.3,10.05,10.05,0,0,0-2.05,1l-.52.32a3.91,3.91,0,0,1,.61-1.68,4.48,4.48,0,0,1,1.25-1.28,6.75,6.75,0,0,1,1.28-.74,9.46,9.46,0,0,1,1.48-.44,9,9,0,0,1,1.92-.22,4.41,4.41,0,0,1,3.31,1.23,6,6,0,0,1,1.48,3.57l1,9a2.45,2.45,0,0,0,.36,1,3,3,0,0,0,.8.9h-5.78l-.12-.84-.51.32a8.6,8.6,0,0,1-1.22.55,6.39,6.39,0,0,1-2.39.41,4.44,4.44,0,0,1-2.84-.92,3.79,3.79,0,0,1-1.46-2,7.45,7.45,0,0,1-.3-1.75,4.18,4.18,0,0,1,.51-2.09,6.67,6.67,0,0,1,1.18-1.55,8.85,8.85,0,0,1,1.51-1.18,10.77,10.77,0,0,1,1.61-.83A21.41,21.41,0,0,1,121.39,26Zm.78.87a4.87,4.87,0,0,0-1.25,1.05,6.57,6.57,0,0,0-.91,1.57,4.62,4.62,0,0,0-.42,1.8V32a3.84,3.84,0,0,0,.6,2.23,1.82,1.82,0,0,0,1.58.87,1.54,1.54,0,0,0,1.33-.69Z"/><path class="cls-1" d="M129.7,23.32l-.55-.58,1.42-.43,1.45-.46,1.49-.46L135,20.9v2.74l.43-.61a6.66,6.66,0,0,1,1.44-1.47,2.71,2.71,0,0,1,1.07-.46,5.53,5.53,0,0,1,.78-.08,2.49,2.49,0,0,1,1.9.77,2.94,2.94,0,0,1,.71,2.05,2.48,2.48,0,0,1-.58,1.76,2,2,0,0,1-1.54.62,3.67,3.67,0,0,1-1.42-.32,3.59,3.59,0,0,1-1.25-.87,1.1,1.1,0,0,0-.79.21,4.69,4.69,0,0,0-.75.58v9a1.64,1.64,0,0,0,.43,1.22,3.46,3.46,0,0,0,.7.58h-7l.4-.43a2.69,2.69,0,0,0,.61-1.55V24.72A2.33,2.33,0,0,0,129.7,23.32Z"/><path class="cls-1" d="M142.36,23.64H140.8a47.79,47.79,0,0,0,4.76-4.05l1.6-1.6v3.76h2.53v1.89h-2.53v9.9c0,.82.47,1.22,1.42,1.22a3.14,3.14,0,0,0,.67-.08l.76-.26.37-.21a3.58,3.58,0,0,1-.75,1.51,3.94,3.94,0,0,1-1.3,1,7.61,7.61,0,0,1-1,.43,2,2,0,0,1-.55.07H146a3.23,3.23,0,0,1-3.59-2.9V23.64Z"/><path class="cls-1" d="M161.65,36.59H149.57a13.42,13.42,0,0,0,1.61-1.78,25,25,0,0,0,1.67-2.63l8.6-14.93-.43,0a5,5,0,0,0-1.89.34,34.27,34.27,0,0,0-3.32,1.79l-1.36.84a2.67,2.67,0,0,1-.55.25,5.76,5.76,0,0,1-.82.21,6.42,6.42,0,0,1-1,.12l-.86,0,.3-.67c.52-1.3.89-2.25,1.1-2.85s.37-1.08.46-1.45l.06-.2.06-.38.41.14a5,5,0,0,0,1.65.24h13.16L157.3,34.94h.9a7.88,7.88,0,0,0,1.41-.12,8.32,8.32,0,0,0,1.41-.38l.52-.23h.09l2.17-1.29a13.3,13.3,0,0,1,2.31-1.12,6,6,0,0,1,1.88-.35h.45a2.75,2.75,0,0,1,.62.12c-.42.68-.9,1.53-1.42,2.55s-1,2-1.45,2.87a7.27,7.27,0,0,0-1.47-.32,19.68,19.68,0,0,0-2.05-.08Z"/><path class="cls-1" d="M176.36,36.59h-6.89l.38-.43a3.47,3.47,0,0,0,.46-.9,2.54,2.54,0,0,0,.18-.84V17.74a1.8,1.8,0,0,0-.27-.92,2.22,2.22,0,0,0-.69-.74,10.22,10.22,0,0,0,2.8-.38,21.48,21.48,0,0,0,3-1.08v8.09a4.27,4.27,0,0,1,1-.82,5.42,5.42,0,0,1,1.38-.46,6.73,6.73,0,0,1,1.37-.17,3.91,3.91,0,0,1,2.71.91,2.91,2.91,0,0,1,1,2.28V34a3.29,3.29,0,0,0,1,2.55h-6.59a3.21,3.21,0,0,0,.72-2.22V25a1,1,0,0,0-.39-.8,1.47,1.47,0,0,0-1-.33,3.65,3.65,0,0,0-.76.15c-.38.09-.57.42-.57,1v9.12A3.19,3.19,0,0,0,176.36,36.59Z"/><path class="cls-1" d="M185.08,22.65l-.39-.29a9.49,9.49,0,0,0,1.47-.12c.51-.07,1-.17,1.54-.29a11.52,11.52,0,0,0,1.48-.43c.47-.18.95-.38,1.41-.61v12.2A1.15,1.15,0,0,0,191,34a1.49,1.49,0,0,0,1,.38,1.19,1.19,0,0,0,.9-.41,1.26,1.26,0,0,0,.38-.9V24a.74.74,0,0,0-.06-.27c0-.09-.13-.28-.29-.56a2.54,2.54,0,0,0-.75-.8,10.29,10.29,0,0,0,2.89-.48c1.07-.32,2.07-.64,3-1V34.42a3.07,3.07,0,0,0,.64,1.74l.41.43h-5.84V35.46c-.13.12-.26.22-.36.32a9.19,9.19,0,0,1-.77.55,4.86,4.86,0,0,1-1.54.63,7.49,7.49,0,0,1-1.6.22q-3.26,0-3.25-4.07V23.93a1.32,1.32,0,0,0-.17-.63A2.53,2.53,0,0,0,185.08,22.65Z"/><path class="cls-1" d="M199.51,22.79l-.35-.31,1.37-.38,4-1.25c.1.41.16.67.19.8a4.92,4.92,0,0,0,.22.62l.78,1.66,2.88,6.62L210,26.23a6.09,6.09,0,0,0,.19-1.46,3.49,3.49,0,0,0,0-.52c0-.19-.08-.51-.17-1a3.55,3.55,0,0,0-.91-1.54h5.49L214,22.94c-.77,1.63-1.24,2.62-1.4,3s-.47,1-.89,2l-4,10.19a7.13,7.13,0,0,1-1.7,2.46,4,4,0,0,1-2.86,1.15,4.19,4.19,0,0,1-1.25-.21,3.53,3.53,0,0,1-1.19-.61A2.23,2.23,0,0,1,200,40a2.86,2.86,0,0,1-.2-1,2.07,2.07,0,0,1,.59-1.51,2.11,2.11,0,0,1,1.56-.6,3.5,3.5,0,0,1,1.74.5l.26.17.5.35.08.09a.62.62,0,0,0,.32.09,1,1,0,0,0,.41-.12,1,1,0,0,0,.44-.44,3,3,0,0,0,.24-.58.72.72,0,0,0,0-.43l-5.49-12.44A5,5,0,0,0,199.51,22.79Z"/><path class="cls-1" d="M221.47,36.59h-6.89l.47-.49a3,3,0,0,0,.58-1.71V24.19a2,2,0,0,0-1-1.83,10,10,0,0,0,2.85-.48c1.07-.32,2-.64,3-1V34.42a2.57,2.57,0,0,0,.37,1.16c.24.44.38.7.43.77A1.16,1.16,0,0,0,221.47,36.59Zm-3.54-16.87a3.08,3.08,0,0,1-2.05-.69,2.15,2.15,0,0,1-.83-1.73,2.62,2.62,0,0,1,.73-1.91,2.65,2.65,0,0,1,2-.76,2.93,2.93,0,0,1,2.08.68,2.58,2.58,0,0,1,.71,1.94,2.34,2.34,0,0,1-.74,1.75A2.67,2.67,0,0,1,217.93,19.72Z"/><path class="cls-1" d="M228.76,36.59h-6.48l.5-.4a2.12,2.12,0,0,0,.55-1.43V24a1.54,1.54,0,0,0-.16-.64,2.88,2.88,0,0,0-.48-.69l-.35-.32a9.87,9.87,0,0,0,2.85-.48c1-.32,2-.66,2.93-1v1.58l.53-.35A5.49,5.49,0,0,1,231.58,21a4.6,4.6,0,0,1,2.95.8,3.56,3.56,0,0,1,1.12,2.57v8.92a4.87,4.87,0,0,0,.17,1.24,11.69,11.69,0,0,0,.64,1.61l.23.46h-6.48l.33-.58a2.65,2.65,0,0,0,.31-1.07V24.6c0-.64-.4-1-1.22-1a3.51,3.51,0,0,0-.71.08.92.92,0,0,0-.58.54,3.6,3.6,0,0,0-.22,1.44V35.81C228.12,36.12,228.34,36.38,228.76,36.59Z"/></g></g></svg>