<svg xmlns="http://www.w3.org/2000/svg" xmlns:xlink="http://www.w3.org/1999/xlink" viewBox="0 0 165.53 86.59"><defs><style>.cls-1{fill:#007686;}.cls-2{fill:#b5b5b6;opacity:0.75;}.cls-3{fill:#dcdddd;}.cls-4{fill:#898989;}.cls-5{fill:#fff;}.cls-6{fill:url(#linear-gradient);}.cls-7{fill:url(#linear-gradient-2);}</style><linearGradient id="linear-gradient" x1="-920.66" y1="-16156.99" x2="-920.66" y2="-16151.64" gradientTransform="matrix(0, 1, 1, 0, 16265.17, 940.35)" gradientUnits="userSpaceOnUse"><stop offset="0" stop-color="#007686"/><stop offset="0.04" stop-color="#077a88"/><stop offset="0.1" stop-color="#19848e"/><stop offset="0.17" stop-color="#379499"/><stop offset="0.24" stop-color="#61aba7"/><stop offset="0.32" stop-color="#97c8b9"/><stop offset="0.4" stop-color="#d6eace"/><stop offset="0.47" stop-color="#bddcc6"/><stop offset="0.73" stop-color="#58a6a4"/><stop offset="0.91" stop-color="#19838e"/><stop offset="1" stop-color="#007686"/></linearGradient><linearGradient id="linear-gradient-2" x1="-920.66" y1="-16945.64" x2="-920.66" y2="-16940.28" gradientTransform="translate(-16853.89 940.35) rotate(90)" xlink:href="#linear-gradient"/></defs><g id="圖層_2" data-name="圖層 2"><g id="圖層_1-2" data-name="圖層 1"><path class="cls-1" d="M108.29,7c-.35-3.94-3.94-7-8.32-7s-8,3.09-8.33,7h0V25.58h0a8.35,8.35,0,0,0,16.65,0h0Z"/><path class="cls-2" d="M106.4,5.81a6.52,6.52,0,0,0-13,0h-.06V26.59a6.54,6.54,0,1,0,13.07,0V5.81Z"/><path class="cls-3" d="M99.4.26a4.33,4.33,0,0,0-4.31,4.36v24a4.31,4.31,0,1,0,8.62,0v-24A4.33,4.33,0,0,0,99.4.26Z"/><path class="cls-4" d="M101,9.61a1,1,0,1,1-1-1A1,1,0,0,1,101,9.61Z"/><path class="cls-4" d="M101,12.83a1,1,0,1,1-1-1A1,1,0,0,1,101,12.83Z"/><path class="cls-4" d="M101,16a1,1,0,1,1-1-1A1,1,0,0,1,101,16Z"/><path class="cls-4" d="M101,19a1,1,0,0,1-2,0,1,1,0,1,1,2,0Z"/><path class="cls-4" d="M101,22.06a1,1,0,1,1-1-1A1,1,0,0,1,101,22.06Z"/><path class="cls-4" d="M101,25.29a1,1,0,1,1-1-1A1,1,0,0,1,101,25.29Z"/><path class="cls-4" d="M98.4,11.22a1,1,0,1,1-1-1A1,1,0,0,1,98.4,11.22Z"/><path class="cls-4" d="M98.44,14.44a1,1,0,1,1-1-1A1,1,0,0,1,98.44,14.44Z"/><path class="cls-4" d="M98.44,17.58a1,1,0,1,1-1-1A1,1,0,0,1,98.44,17.58Z"/><path class="cls-4" d="M98.44,20.62a1,1,0,1,1-1-1A1,1,0,0,1,98.44,20.62Z"/><path class="cls-4" d="M98.44,23.67a1,1,0,1,1-1-1A1,1,0,0,1,98.44,23.67Z"/><path class="cls-4" d="M103.54,11.22a1,1,0,0,1-2,0,1,1,0,1,1,2,0Z"/><path class="cls-4" d="M103.58,14.44a1,1,0,1,1-1-1A1,1,0,0,1,103.58,14.44Z"/><path class="cls-4" d="M103.58,17.58a1,1,0,1,1-1-1A1,1,0,0,1,103.58,17.58Z"/><path class="cls-4" d="M103.58,20.62a1,1,0,1,1-1-1A1,1,0,0,1,103.58,20.62Z"/><path class="cls-4" d="M103.58,23.67a1,1,0,1,1-1-1A1,1,0,0,1,103.58,23.67Z"/><path class="cls-4" d="M105.73,9.61c0,.55-.34,1-.75,1s-.74-.45-.74-1,.33-1,.74-1S105.73,9.05,105.73,9.61Z"/><path class="cls-4" d="M105.76,12.83c0,.55-.33,1-.75,1s-.74-.45-.74-1,.33-1,.74-1S105.76,12.28,105.76,12.83Z"/><path class="cls-4" d="M105.76,16c0,.56-.33,1-.75,1s-.74-.45-.74-1,.33-1,.74-1S105.76,15.41,105.76,16Z"/><path class="cls-4" d="M105.76,19c0,.55-.33,1-.75,1s-.74-.44-.74-1,.33-1,.74-1S105.76,18.46,105.76,19Z"/><path class="cls-4" d="M105.76,22.06c0,.56-.33,1-.75,1s-.74-.44-.74-1,.33-1,.74-1S105.76,21.51,105.76,22.06Z"/><path class="cls-4" d="M105.76,25.29c0,.55-.33,1-.75,1s-.74-.45-.74-1,.33-1,.74-1S105.76,24.73,105.76,25.29Z"/><path class="cls-4" d="M95.88,9.61c0,.55-.33,1-.74,1s-.75-.45-.75-1,.34-1,.75-1S95.88,9.05,95.88,9.61Z"/><path class="cls-4" d="M95.92,12.83c0,.55-.34,1-.75,1s-.75-.45-.75-1,.34-1,.75-1S95.92,12.28,95.92,12.83Z"/><path class="cls-4" d="M95.92,16c0,.56-.34,1-.75,1s-.75-.45-.75-1,.34-1,.75-1S95.92,15.41,95.92,16Z"/><path class="cls-4" d="M95.92,19a.78.78,0,1,1-1.5,0c0-.56.34-1,.75-1S95.92,18.46,95.92,19Z"/><path class="cls-4" d="M95.92,22.06c0,.56-.34,1-.75,1s-.75-.44-.75-1,.34-1,.75-1S95.92,21.51,95.92,22.06Z"/><path class="cls-4" d="M95.92,25.29c0,.55-.34,1-.75,1s-.75-.45-.75-1,.34-1,.75-1S95.92,24.73,95.92,25.29Z"/><path class="cls-4" d="M107.49,11.35c0,.55-.22,1-.5,1s-.5-.45-.5-1,.22-1,.5-1S107.49,10.79,107.49,11.35Z"/><path class="cls-4" d="M107.51,14.57c0,.55-.22,1-.5,1s-.5-.45-.5-1,.23-1,.5-1S107.51,14,107.51,14.57Z"/><path class="cls-4" d="M107.51,17.71c0,.55-.22,1-.5,1s-.5-.45-.5-1,.23-1,.5-1S107.51,17.15,107.51,17.71Z"/><path class="cls-4" d="M107.51,20.76c0,.55-.22,1-.5,1s-.5-.45-.5-1,.23-1,.5-1S107.51,20.2,107.51,20.76Z"/><path class="cls-4" d="M107.51,23.8c0,.56-.22,1-.5,1s-.5-.45-.5-1,.23-1,.5-1S107.51,23.25,107.51,23.8Z"/><path class="cls-4" d="M93.73,11.39c0,.55-.23,1-.5,1s-.5-.45-.5-1,.22-1,.5-1S93.73,10.84,93.73,11.39Z"/><path class="cls-4" d="M93.75,14.62c0,.55-.23,1-.5,1s-.5-.45-.5-1,.22-1,.5-1S93.75,14.06,93.75,14.62Z"/><path class="cls-4" d="M93.75,17.75c0,.55-.23,1-.5,1s-.5-.45-.5-1,.22-1,.5-1S93.75,17.2,93.75,17.75Z"/><path class="cls-4" d="M93.75,20.8c0,.55-.23,1-.5,1s-.5-.45-.5-1,.22-1,.5-1S93.75,20.25,93.75,20.8Z"/><path class="cls-4" d="M93.75,23.85c0,.55-.23,1-.5,1s-.5-.45-.5-1,.22-1,.5-1S93.75,23.29,93.75,23.85Z"/><path class="cls-4" d="M108.29,9.87c0,.55-.13,1-.29,1s-.3-.45-.3-1,.13-1,.3-1S108.29,9.31,108.29,9.87Z"/><path class="cls-4" d="M108.31,13.09c0,.55-.14,1-.3,1s-.3-.45-.3-1,.13-1,.3-1S108.31,12.54,108.31,13.09Z"/><path class="cls-4" d="M108.31,16.23c0,.55-.14,1-.3,1s-.3-.45-.3-1,.13-1,.3-1S108.31,15.67,108.31,16.23Z"/><path class="cls-4" d="M108.31,19.28c0,.55-.14,1-.3,1s-.3-.45-.3-1,.13-1,.3-1S108.31,18.72,108.31,19.28Z"/><path class="cls-4" d="M108.31,22.33c0,.55-.14,1-.3,1s-.3-.45-.3-1,.13-1,.3-1S108.31,21.77,108.31,22.33Z"/><path class="cls-4" d="M108.31,25.55c0,.55-.14,1-.3,1s-.3-.45-.3-1,.13-1,.3-1S108.31,25,108.31,25.55Z"/><path class="cls-4" d="M92.22,9.7c0,.55-.13,1-.3,1s-.3-.44-.3-1,.14-1,.3-1S92.22,9.14,92.22,9.7Z"/><path class="cls-4" d="M92.24,12.92c0,.55-.14,1-.3,1s-.3-.45-.3-1,.13-1,.3-1S92.24,12.36,92.24,12.92Z"/><path class="cls-4" d="M92.24,16.05c0,.55-.14,1-.3,1s-.3-.45-.3-1,.13-1,.3-1S92.24,15.5,92.24,16.05Z"/><path class="cls-4" d="M92.24,19.1c0,.56-.14,1-.3,1s-.3-.44-.3-1,.13-1,.3-1S92.24,18.55,92.24,19.1Z"/><path class="cls-4" d="M92.24,22.15c0,.55-.14,1-.3,1s-.3-.45-.3-1,.13-1,.3-1S92.24,21.6,92.24,22.15Z"/><path class="cls-4" d="M92.24,25.37c0,.56-.14,1-.3,1s-.3-.44-.3-1,.13-1,.3-1S92.24,24.82,92.24,25.37Z"/><path class="cls-5" d="M100.08,1.46a2.13,2.13,0,0,1-1.26,2.69,2.15,2.15,0,0,1-2.93-.53A2.15,2.15,0,0,1,97.16.92,2.14,2.14,0,0,1,100.08,1.46Z"/><path class="cls-5" d="M101,9.28a1,1,0,1,1-1-1A1,1,0,0,1,101,9.28Z"/><path class="cls-5" d="M101.06,12.5a1,1,0,1,1-1-1A1,1,0,0,1,101.06,12.5Z"/><path class="cls-5" d="M101.06,15.64a1,1,0,1,1-1-1A1,1,0,0,1,101.06,15.64Z"/><path class="cls-5" d="M101.06,18.68a1,1,0,1,1-2,0,1,1,0,0,1,2,0Z"/><path class="cls-5" d="M101.06,21.73a1,1,0,1,1-1-1A1,1,0,0,1,101.06,21.73Z"/><path class="cls-5" d="M101.06,25a1,1,0,1,1-1-1A1,1,0,0,1,101.06,25Z"/><path class="cls-5" d="M98.42,10.89a1,1,0,1,1-1-1A1,1,0,0,1,98.42,10.89Z"/><path class="cls-5" d="M98.47,14.11a1,1,0,1,1-1-1A1,1,0,0,1,98.47,14.11Z"/><path class="cls-5" d="M98.47,17.25a1,1,0,1,1-1-1A1,1,0,0,1,98.47,17.25Z"/><path class="cls-5" d="M98.47,20.3a1,1,0,0,1-2,0,1,1,0,0,1,2,0Z"/><path class="cls-5" d="M98.47,23.35a1,1,0,1,1-1-1A1,1,0,0,1,98.47,23.35Z"/><path class="cls-5" d="M103.56,10.89a1,1,0,1,1-1-1A1,1,0,0,1,103.56,10.89Z"/><path class="cls-5" d="M103.6,14.11a1,1,0,0,1-2,0,1,1,0,0,1,2,0Z"/><path class="cls-5" d="M103.6,17.25a1,1,0,1,1-1-1A1,1,0,0,1,103.6,17.25Z"/><path class="cls-5" d="M103.6,20.3a1,1,0,1,1-1-1A1,1,0,0,1,103.6,20.3Z"/><path class="cls-5" d="M103.6,23.35a1,1,0,1,1-1-1A1,1,0,0,1,103.6,23.35Z"/><path class="cls-5" d="M105.75,9.28c0,.55-.33,1-.75,1s-.74-.45-.74-1,.33-1,.74-1S105.75,8.73,105.75,9.28Z"/><path class="cls-5" d="M105.78,12.5c0,.56-.33,1-.74,1s-.75-.44-.75-1,.33-1,.75-1S105.78,12,105.78,12.5Z"/><path class="cls-5" d="M105.78,15.64c0,.55-.33,1-.74,1s-.75-.45-.75-1,.33-1,.75-1S105.78,15.09,105.78,15.64Z"/><path class="cls-5" d="M105.78,18.68c0,.56-.33,1-.75,1s-.74-.45-.74-1,.33-1,.74-1S105.78,18.13,105.78,18.68Z"/><path class="cls-5" d="M105.78,21.73c0,.56-.33,1-.75,1s-.74-.45-.74-1,.33-1,.74-1S105.78,21.18,105.78,21.73Z"/><path class="cls-5" d="M105.78,25c0,.55-.33,1-.74,1s-.75-.45-.75-1,.33-1,.75-1S105.78,24.41,105.78,25Z"/><path class="cls-5" d="M95.91,9.28c0,.55-.34,1-.75,1s-.75-.45-.75-1,.34-1,.75-1S95.91,8.73,95.91,9.28Z"/><path class="cls-5" d="M95.94,12.5c0,.56-.34,1-.75,1s-.74-.44-.74-1,.33-1,.74-1S95.94,12,95.94,12.5Z"/><path class="cls-5" d="M95.94,15.64c0,.55-.34,1-.75,1s-.74-.45-.74-1,.33-1,.74-1S95.94,15.09,95.94,15.64Z"/><path class="cls-5" d="M95.94,18.68c0,.56-.34,1-.75,1s-.74-.45-.74-1,.33-1,.74-1A.9.9,0,0,1,95.94,18.68Z"/><path class="cls-5" d="M95.94,21.73c0,.56-.34,1-.75,1s-.74-.45-.74-1,.33-1,.74-1S95.94,21.18,95.94,21.73Z"/><path class="cls-5" d="M95.94,25c0,.55-.34,1-.75,1s-.74-.45-.74-1,.33-1,.74-1S95.94,24.41,95.94,25Z"/><path class="cls-5" d="M107.51,11c0,.55-.22,1-.5,1s-.5-.45-.5-1,.23-1,.5-1S107.51,10.47,107.51,11Z"/><path class="cls-5" d="M107.53,14.25c0,.55-.22,1-.49,1s-.51-.45-.51-1,.23-1,.51-1S107.53,13.69,107.53,14.25Z"/><path class="cls-5" d="M107.53,17.38c0,.55-.22,1-.49,1s-.51-.45-.51-1,.23-1,.51-1S107.53,16.83,107.53,17.38Z"/><path class="cls-5" d="M107.53,20.43c0,.55-.22,1-.49,1s-.51-.45-.51-1,.23-1,.51-1S107.53,19.88,107.53,20.43Z"/><path class="cls-5" d="M107.53,23.48c0,.55-.22,1-.49,1s-.51-.45-.51-1,.23-1,.51-1S107.53,22.93,107.53,23.48Z"/><path class="cls-5" d="M93.75,11.06c0,.56-.23,1-.5,1s-.5-.45-.5-1,.22-1,.5-1S93.75,10.51,93.75,11.06Z"/><path class="cls-5" d="M93.77,14.29c0,.55-.22,1-.5,1s-.5-.45-.5-1,.22-1,.5-1S93.77,13.73,93.77,14.29Z"/><path class="cls-5" d="M93.77,17.43c0,.55-.22,1-.5,1s-.5-.44-.5-1,.22-1,.5-1S93.77,16.87,93.77,17.43Z"/><path class="cls-5" d="M93.77,20.47c0,.56-.22,1-.5,1s-.5-.44-.5-1,.22-1,.5-1S93.77,19.92,93.77,20.47Z"/><path class="cls-5" d="M93.77,23.52c0,.55-.22,1-.5,1s-.5-.45-.5-1,.22-1,.5-1S93.77,23,93.77,23.52Z"/><path class="cls-5" d="M108.32,9.54c0,.55-.14,1-.3,1s-.3-.45-.3-1,.13-1,.3-1S108.32,9,108.32,9.54Z"/><path class="cls-5" d="M108.33,12.76c0,.56-.13,1-.3,1s-.3-.44-.3-1,.14-1,.3-1S108.33,12.21,108.33,12.76Z"/><path class="cls-5" d="M108.33,15.9c0,.55-.13,1-.3,1s-.3-.45-.3-1,.14-1,.3-1S108.33,15.35,108.33,15.9Z"/><path class="cls-5" d="M108.33,19c0,.55-.13,1-.3,1s-.3-.45-.3-1,.14-1,.3-1S108.33,18.4,108.33,19Z"/><path class="cls-5" d="M108.33,22c0,.55-.13,1-.3,1s-.3-.45-.3-1,.14-1,.3-1S108.33,21.44,108.33,22Z"/><path class="cls-5" d="M108.33,25.22c0,.55-.13,1-.3,1s-.3-.45-.3-1,.14-1,.3-1S108.33,24.67,108.33,25.22Z"/><path class="cls-5" d="M92.25,9.36c0,.56-.14,1-.3,1s-.3-.45-.3-1,.13-1,.3-1S92.25,8.81,92.25,9.36Z"/><path class="cls-5" d="M92.26,12.59c0,.55-.14,1-.3,1s-.3-.45-.3-1,.13-1,.3-1S92.26,12,92.26,12.59Z"/><path class="cls-5" d="M92.26,15.73c0,.55-.14,1-.3,1s-.3-.45-.3-1,.13-1,.3-1S92.26,15.17,92.26,15.73Z"/><path class="cls-5" d="M92.26,18.77c0,.56-.14,1-.3,1s-.3-.45-.3-1,.13-1,.3-1S92.26,18.22,92.26,18.77Z"/><path class="cls-5" d="M92.26,21.82c0,.56-.14,1-.3,1s-.3-.44-.3-1,.13-1,.3-1S92.26,21.27,92.26,21.82Z"/><path class="cls-5" d="M92.26,25c0,.56-.14,1-.3,1s-.3-.45-.3-1,.13-1,.3-1S92.26,24.49,92.26,25Z"/><path class="cls-1" d="M99.23,52.46a1.79,1.79,0,0,1-1.78-2.65l1.44-3.5c.59-1.45,1.56-1.45,2.16,0l1.43,3.5a1.78,1.78,0,0,1-1.77,2.65Z"/><path class="cls-1" d="M89.58,44.68a.79.79,0,1,0,0,1.58h20.77a.79.79,0,1,0,0-1.58Z"/><path class="cls-1" d="M110.08,19V29.45a4.52,4.52,0,0,1-3.44,4.73c-.71,0-9.37.07-13.1,0-3.17,0-3.64-4.18-3.65-4.35V20.2H88.3v9.71c.2,2.05,1.55,5.8,5.21,5.86,3.89.07,13.13,0,13.23,0h.14a6.14,6.14,0,0,0,4.78-6.43V19Z"/><path class="cls-6" d="M112.16,19.23v2.21h-2.6V19.23a1.3,1.3,0,1,1,2.6,0Z"/><path class="cls-7" d="M87.77,19.23v2.21h2.61V19.23a1.31,1.31,0,0,0-2.61,0Z"/><path class="cls-1" d="M93.65,40.29c0,3,2.84,5.34,6.32,5.34s6.31-2.39,6.31-5.34S103.45,35,100,35,93.65,37.34,93.65,40.29Zm1.59,0c0-2.07,2.12-3.76,4.73-3.76s4.73,1.69,4.73,3.76S102.58,44,100,44,95.24,42.36,95.24,40.29Z"/><path class="cls-1" d="M79.24.69a37.83,37.83,0,0,1-22.1,0,.79.79,0,0,0-1,.53.8.8,0,0,0,.53,1,39.43,39.43,0,0,0,23,0,.8.8,0,0,0,.53-1A.79.79,0,0,0,79.24.69Z"/><path class="cls-1" d="M85.05,6.1a51.42,51.42,0,0,1-33.72,0,.8.8,0,0,0-1,.47.81.81,0,0,0,.48,1,53.09,53.09,0,0,0,34.8,0,.81.81,0,0,0,.48-1A.8.8,0,0,0,85.05,6.1Z"/><path class="cls-1" d="M62.07,10.79a4.33,4.33,0,0,0-1.35,3.15c0,3,3.05,5.59,6.66,5.6H69c3.61,0,6.66-2.57,6.66-5.6h0a4.29,4.29,0,0,0-1.35-3.15A7.35,7.35,0,0,0,69,8.94H67.4A7.35,7.35,0,0,0,62.07,10.79Zm.24,3.15a2.75,2.75,0,0,1,.87-2,5.82,5.82,0,0,1,4.19-1.4H69a5.82,5.82,0,0,1,4.19,1.4,2.74,2.74,0,0,1,.87,2h0c0,2.17-2.32,4-5.08,4h-1.6C64.63,18,62.31,16.11,62.31,13.94Z"/><path class="cls-1" d="M67.4,19.42V35.3a.79.79,0,0,0,1.58,0V19.42a.79.79,0,0,0-1.58,0Z"/><path class="cls-1" d="M81.18,16.78v4.38c0,2-2.2,3.69-4.9,3.69-5.3.07-10.88.07-16.16,0-2.72,0-4.92-1.6-4.91-3.55V17.05a.79.79,0,0,0-.8-.79.79.79,0,0,0-.79.79V21.3c0,2.82,2.9,5.13,6.48,5.14,5.29.06,10.89.07,16.19,0,3.57,0,6.48-2.38,6.47-5.28V16.78a.79.79,0,0,0-1.58,0Z"/><path class="cls-1" d="M57.91,43.1a.79.79,0,0,0,.28,1.56,57.42,57.42,0,0,1,20,0,.79.79,0,0,0,.28-1.56A58.68,58.68,0,0,0,57.91,43.1Z"/><path class="cls-1" d="M63.74,35.19c-3.56.12-6.57,3-6.57,6.29V47.4c0,3.39,4.18,4.67,4.36,4.73l.23,0H74.62l.23,0c.18-.06,4.36-1.34,4.36-4.73h0V41.48c0-3.29-3-6.17-6.57-6.29C69.69,35.07,66.69,35.07,63.74,35.19Zm-5,12.21V41.48a5.07,5.07,0,0,1,5-4.7c2.91-.12,5.87-.12,8.78,0a5.07,5.07,0,0,1,5,4.7V47.4c0,2-2.65,3-3.13,3.17H61.88C61.41,50.41,58.76,49.42,58.76,47.4Z"/><path class="cls-1" d="M57.17,34.24v6.93a.8.8,0,0,0,1.59,0V34.24a.8.8,0,1,0-1.59,0Z"/><path class="cls-1" d="M77.62,34.24v6.93a.8.8,0,0,0,1.59,0V34.24a.8.8,0,1,0-1.59,0Z"/><path class="cls-1" d="M2.73,81.63,1.41,79.48C1,78.74.48,78,0,77.33a2.41,2.41,0,0,1,1.69-.61A7.5,7.5,0,0,1,3.5,77,9,9,0,0,1,5.8,78a18.23,18.23,0,0,1,2.13,1.47,7.69,7.69,0,0,0,1.29.92c.21.07.56.17,1.06.29l.82.09a3.66,3.66,0,0,0,3.25-1.4,4.46,4.46,0,0,0,1-2.38,3.1,3.1,0,0,0-1.51-2.43A16.53,16.53,0,0,0,9,72.42l-3.37-1c-.31-.12-.61-.24-.91-.38a7.72,7.72,0,0,1-1.1-.67,5.79,5.79,0,0,1-2.15-2.21,6.48,6.48,0,0,1-.64-3,4.17,4.17,0,0,1,.45-1.94,5.69,5.69,0,0,1,1.29-1.62,5.77,5.77,0,0,1,1.92-1.13,11.49,11.49,0,0,1,2.79-.54l1.12,0a14.41,14.41,0,0,1,1.82.22l1.58.26.67.08c.12,0,.37,0,.77.06l.69,0a5,5,0,0,0,1.34-.23l2.59,4.07a3.23,3.23,0,0,1-1.63.43,5.16,5.16,0,0,1-1.63-.33l-.58-.28H14L11.5,62.54a5.65,5.65,0,0,0-3.13-1.16,3.09,3.09,0,0,0-.8.11,5.59,5.59,0,0,0-1.16.6,2,2,0,0,0-.77,1.81,2.1,2.1,0,0,0,.72,1.76A5.79,5.79,0,0,0,8,66.55c.57.21,1.15.4,1.75.58l2.53.75a18.93,18.93,0,0,1,4.5,1.83,5.68,5.68,0,0,1,2,2.24,8,8,0,0,1,.81,2.5,10.67,10.67,0,0,1-.29,2.75,5.88,5.88,0,0,1-1.09,2.1,6.35,6.35,0,0,1-1.65,1.54,8.33,8.33,0,0,1-2,.86,8.8,8.8,0,0,1-2.25.36l-1.92,0A7.56,7.56,0,0,1,9.11,82c-.42-.07-1.09-.22-2-.45l-.73-.15a9.19,9.19,0,0,0-1.74-.2A4.43,4.43,0,0,0,2.73,81.63Z"/><path class="cls-1" d="M21,68.2a4.71,4.71,0,0,0-.64-1,9.7,9.7,0,0,0,2.87-.49c1-.32,2-.64,2.94-1v1.92a5,5,0,0,1,2.36-1.61,7.75,7.75,0,0,1,1.89-.31,3.9,3.9,0,0,1,2.76,1.38l.4.45.73-.66a5.54,5.54,0,0,1,3.25-1.17,11.34,11.34,0,0,1,1.19.11,3.24,3.24,0,0,1,1.67.86,2.26,2.26,0,0,1,.83,1.74V79.09a2.77,2.77,0,0,0,.15.84,3.68,3.68,0,0,0,.49,1l.41.52H35.76a3.92,3.92,0,0,0,.7-2.31V70.27A1.84,1.84,0,0,0,36,69.14l-.32-.28a1.18,1.18,0,0,0-.63-.19c-.51,0-.84.15-1,.47a3.17,3.17,0,0,0-.29.73,3.7,3.7,0,0,0-.06.78V79.2a3.46,3.46,0,0,0,.7,2.25H28.21a3.32,3.32,0,0,0,.54-1,3.48,3.48,0,0,0,.19-1V70a1.22,1.22,0,0,0-.41-.93,1.37,1.37,0,0,0-1-.38,1.2,1.2,0,0,0-.94.45,1.65,1.65,0,0,0-.4,1.15V79.5A3.33,3.33,0,0,0,26.55,81l.29.46H20.45a3.78,3.78,0,0,0,.67-1.07,3.21,3.21,0,0,0,.29-1.22v-10a.85.85,0,0,0,0-.24A4.54,4.54,0,0,0,21,68.2Z"/><path class="cls-1" d="M50.23,70.88l.64-.18L50.75,70c-.17-1-.85-1.43-2-1.43a5.25,5.25,0,0,0-1.7.31,9.56,9.56,0,0,0-2.05,1l-.52.32a4,4,0,0,1,.61-1.69,4.45,4.45,0,0,1,1.25-1.27,6.75,6.75,0,0,1,1.28-.74A8.22,8.22,0,0,1,49.07,66,8.38,8.38,0,0,1,51,65.82,4.44,4.44,0,0,1,54.3,67a6.09,6.09,0,0,1,1.48,3.58l1,8.94a2.58,2.58,0,0,0,.37,1,3,3,0,0,0,.8.9H52.21l-.12-.84-.51.32a8.6,8.6,0,0,1-1.22.55,6.41,6.41,0,0,1-2.4.41A4.49,4.49,0,0,1,45.13,81a3.89,3.89,0,0,1-1.47-2,7.72,7.72,0,0,1-.29-1.74,4.18,4.18,0,0,1,.51-2.09,7,7,0,0,1,1.18-1.56,8.92,8.92,0,0,1,1.51-1.17,9.9,9.9,0,0,1,1.61-.83A20.52,20.52,0,0,1,50.23,70.88Zm.78.87a5,5,0,0,0-1.25,1,6.78,6.78,0,0,0-.91,1.57,4.66,4.66,0,0,0-.42,1.8v.67A4,4,0,0,0,49,79.07a1.85,1.85,0,0,0,1.59.87,1.54,1.54,0,0,0,1.33-.7Z"/><path class="cls-1" d="M58.54,68.18,58,67.59l1.42-.43,1.45-.46,1.48-.46,1.49-.48v2.73l.43-.61a6.8,6.8,0,0,1,1.44-1.46A2.85,2.85,0,0,1,66.77,66a5.16,5.16,0,0,1,.77-.07,2.49,2.49,0,0,1,1.91.77,2.92,2.92,0,0,1,.71,2,2.54,2.54,0,0,1-.58,1.76,2,2,0,0,1-1.54.62,3.6,3.6,0,0,1-1.43-.33,3.4,3.4,0,0,1-1.24-.86,1.14,1.14,0,0,0-.79.2,6.22,6.22,0,0,0-.75.58v9a1.65,1.65,0,0,0,.43,1.22,3.53,3.53,0,0,0,.7.58H58l.4-.44A2.66,2.66,0,0,0,59,79.47v-9.9A2.3,2.3,0,0,0,58.54,68.18Z"/><path class="cls-1" d="M71.2,68.49H69.63a45.55,45.55,0,0,0,4.77-4l1.6-1.6v3.76h2.52v1.88H76V78.4c0,.81.47,1.22,1.42,1.22a2.69,2.69,0,0,0,.67-.09l.75-.26.38-.2a3.49,3.49,0,0,1-.76,1.51,4,4,0,0,1-1.29,1,10.34,10.34,0,0,1-1,.43,2,2,0,0,1-.55.07h-.82a3.23,3.23,0,0,1-3.59-2.91V68.49Z"/><path class="cls-1" d="M90.49,81.45H78.41A14.07,14.07,0,0,0,80,79.67,25,25,0,0,0,81.69,77l8.6-14.94-.44,0a4.78,4.78,0,0,0-1.88.34,33.36,33.36,0,0,0-3.32,1.78l-1.36.84a2.67,2.67,0,0,1-.55.25,6.11,6.11,0,0,1-.82.22,6.59,6.59,0,0,1-1,.12l-.86,0,.29-.67c.53-1.3.89-2.25,1.11-2.85s.36-1.08.46-1.45l.06-.21.06-.37.41.14a5.06,5.06,0,0,0,1.65.23H97.29L86.14,79.8H87a7.88,7.88,0,0,0,1.41-.12,9,9,0,0,0,1.4-.38l.53-.23h.08l2.18-1.29A13,13,0,0,1,95,76.66a6,6,0,0,1,1.88-.35h.45a3.22,3.22,0,0,1,.62.11C97.48,77.1,97,78,96.48,79s-1,2-1.45,2.87a8.12,8.12,0,0,0-1.47-.33,20.37,20.37,0,0,0-2-.07Z"/><path class="cls-1" d="M105.19,81.45H98.31l.38-.43a3.89,3.89,0,0,0,.46-.91,2.49,2.49,0,0,0,.18-.84V62.6a1.78,1.78,0,0,0-.27-.92,2.13,2.13,0,0,0-.69-.74,10.62,10.62,0,0,0,2.8-.38,21.48,21.48,0,0,0,3-1.08v8.08a4.21,4.21,0,0,1,1-.81,5.06,5.06,0,0,1,1.38-.46,6.87,6.87,0,0,1,1.36-.18,4,4,0,0,1,2.72.92,2.91,2.91,0,0,1,1,2.28v9.58a3.3,3.3,0,0,0,1,2.56h-6.6a3.18,3.18,0,0,0,.73-2.22V69.86a1,1,0,0,0-.39-.8,1.47,1.47,0,0,0-1-.33,4.37,4.37,0,0,0-.77.14c-.37.1-.56.43-.56,1V79A3.22,3.22,0,0,0,105.19,81.45Z"/><path class="cls-1" d="M113.92,67.51l-.39-.29A9.49,9.49,0,0,0,115,67.1c.51-.08,1-.18,1.54-.29a12,12,0,0,0,1.48-.44,12.26,12.26,0,0,0,1.41-.61V78a1.17,1.17,0,0,0,.43.93,1.49,1.49,0,0,0,1,.38,1.18,1.18,0,0,0,.9-.4,1.34,1.34,0,0,0,.38-.91V68.84a.73.73,0,0,0-.06-.26c0-.09-.13-.28-.29-.57a2.51,2.51,0,0,0-.75-.79,10.29,10.29,0,0,0,2.89-.48c1.07-.32,2.07-.65,3-1V79.27a3.07,3.07,0,0,0,.64,1.75l.41.43h-5.84V80.32a4,4,0,0,0-.36.32,9.19,9.19,0,0,1-.77.55,4.63,4.63,0,0,1-1.54.62,7,7,0,0,1-1.6.22c-2.17,0-3.25-1.35-3.25-4.07V68.78a1.29,1.29,0,0,0-.17-.62A2.53,2.53,0,0,0,113.92,67.51Z"/><path class="cls-1" d="M128.35,67.65l-.35-.32,1.36-.38,4-1.24c.1.4.16.67.19.79a4.42,4.42,0,0,0,.22.63l.78,1.65,2.88,6.63,1.44-4.32a6.09,6.09,0,0,0,.19-1.46,3.49,3.49,0,0,0,0-.52c0-.2-.08-.52-.17-1a3.44,3.44,0,0,0-.92-1.54h5.49l-.58,1.19c-.77,1.62-1.24,2.62-1.41,3l-.88,2-4,10.2a7.13,7.13,0,0,1-1.7,2.46A4,4,0,0,1,132,86.59a4.45,4.45,0,0,1-1.25-.2,3.72,3.72,0,0,1-1.19-.61,2.3,2.3,0,0,1-.73-.94,2.65,2.65,0,0,1-.2-1,2,2,0,0,1,.59-1.51,2.11,2.11,0,0,1,1.56-.6,3.5,3.5,0,0,1,1.74.5l.26.17.5.35.08.09a.72.72,0,0,0,.32.08,1.25,1.25,0,0,0,.41-.11,1,1,0,0,0,.43-.44,2.74,2.74,0,0,0,.25-.58.84.84,0,0,0,0-.44l-5.49-12.43A4.82,4.82,0,0,0,128.35,67.65Z"/><path class="cls-1" d="M150.31,81.45h-6.89l.47-.49a3,3,0,0,0,.58-1.72V69.05a2,2,0,0,0-1-1.83,10,10,0,0,0,2.85-.48c1.06-.32,2-.65,3-1V79.27a2.42,2.42,0,0,0,.37,1.16c.24.45.38.71.43.77A1.45,1.45,0,0,0,150.31,81.45Zm-3.55-16.88a3.12,3.12,0,0,1-2-.68,2.16,2.16,0,0,1-.83-1.73,2.69,2.69,0,0,1,.72-1.92,2.73,2.73,0,0,1,2-.75,2.93,2.93,0,0,1,2.08.68,2.57,2.57,0,0,1,.71,1.93,2.35,2.35,0,0,1-.74,1.76A2.67,2.67,0,0,1,146.76,64.57Z"/><path class="cls-1" d="M157.6,81.45h-6.48l.5-.41a2.1,2.1,0,0,0,.55-1.42V68.9a1.51,1.51,0,0,0-.16-.64,3.13,3.13,0,0,0-.48-.7l-.35-.31a9.58,9.58,0,0,0,2.85-.49c1-.32,2-.65,2.93-1v1.57l.53-.35a5.54,5.54,0,0,1,2.93-1.13,4.6,4.6,0,0,1,3,.8,3.54,3.54,0,0,1,1.12,2.57v8.92a4.35,4.35,0,0,0,.17,1.23A11.26,11.26,0,0,0,165.3,81l.23.46h-6.48l.32-.58a2.58,2.58,0,0,0,.32-1.07V69.45c0-.64-.4-1-1.22-1a2.94,2.94,0,0,0-.71.09.92.92,0,0,0-.58.54,3.43,3.43,0,0,0-.22,1.44V80.67C157,81,157.17,81.24,157.6,81.45Z"/></g></g></svg>