<svg xmlns="http://www.w3.org/2000/svg" viewBox="0 0 165.53 27.11"><defs><style>.cls-1{fill:#007686;}</style></defs><g id="圖層_2" data-name="圖層 2"><g id="圖層_1-2" data-name="圖層 1"><path class="cls-1" d="M2.73,22.14c-.43-.69-.87-1.41-1.32-2.15S.48,18.54,0,17.84a2.45,2.45,0,0,1,1.69-.61,7.61,7.61,0,0,1,1.81.3,9,9,0,0,1,2.3.95A18.23,18.23,0,0,1,7.93,20a7.69,7.69,0,0,0,1.29.92c.21.07.56.17,1.06.29l.82.08a3.65,3.65,0,0,0,3.25-1.39,4.49,4.49,0,0,0,1-2.38A3.1,3.1,0,0,0,13.8,15,16.24,16.24,0,0,0,9,12.93L5.67,12c-.31-.12-.61-.24-.91-.38a8.78,8.78,0,0,1-1.1-.67A5.79,5.79,0,0,1,1.51,8.69a6.51,6.51,0,0,1-.64-3,4.17,4.17,0,0,1,.45-1.94A5.55,5.55,0,0,1,2.61,2.11,5.77,5.77,0,0,1,4.53,1,11.49,11.49,0,0,1,7.32.44l1.12,0a14.41,14.41,0,0,1,1.82.22l1.58.26.67.08c.12,0,.37,0,.77.06l.69,0A5,5,0,0,0,15.31.88L17.9,5a3.23,3.23,0,0,1-1.63.43,5.16,5.16,0,0,1-1.63-.33l-.58-.28H14L11.5,3.06A5.67,5.67,0,0,0,8.37,1.89a2.72,2.72,0,0,0-.8.12,5.59,5.59,0,0,0-1.16.6,2,2,0,0,0-.77,1.81,2.1,2.1,0,0,0,.72,1.76A6.06,6.06,0,0,0,8,7.07c.57.21,1.15.4,1.75.58l2.53.75a18.93,18.93,0,0,1,4.5,1.83,5.61,5.61,0,0,1,2,2.24,8,8,0,0,1,.81,2.5,10.54,10.54,0,0,1-.29,2.74,5.84,5.84,0,0,1-1.09,2.11,6.35,6.35,0,0,1-1.65,1.54,8.86,8.86,0,0,1-4.23,1.22l-1.92,0a8.8,8.8,0,0,1-1.26-.1c-.42-.07-1.09-.22-2-.45l-.73-.15a9.19,9.19,0,0,0-1.74-.2A4.41,4.41,0,0,0,2.73,22.14Z"/><path class="cls-1" d="M21,8.72a4.78,4.78,0,0,0-.64-1,10,10,0,0,0,2.87-.48c1-.32,2-.64,2.94-1V8.2a5,5,0,0,1,2.36-1.61,7.75,7.75,0,0,1,1.89-.31,3.9,3.9,0,0,1,2.76,1.38l.4.45.73-.66a5.54,5.54,0,0,1,3.25-1.17,9.1,9.1,0,0,1,1.19.11,3.24,3.24,0,0,1,1.67.86A2.26,2.26,0,0,1,41.28,9V19.61a2.77,2.77,0,0,0,.15.84,3.78,3.78,0,0,0,.49,1l.41.53H35.76a3.94,3.94,0,0,0,.7-2.31V10.79A1.84,1.84,0,0,0,36,9.66l-.32-.28a1.18,1.18,0,0,0-.63-.19c-.51,0-.84.15-1,.46a3.56,3.56,0,0,0-.29.73,3.88,3.88,0,0,0-.06.79v8.55a3.46,3.46,0,0,0,.7,2.25H28.21a3.32,3.32,0,0,0,.54-1,3.48,3.48,0,0,0,.19-1V10.49a1.25,1.25,0,0,0-.41-.93,1.4,1.4,0,0,0-1-.37,1.2,1.2,0,0,0-.94.45,1.65,1.65,0,0,0-.4,1.15V20a3.26,3.26,0,0,0,.35,1.48l.29.47H20.45a3.7,3.7,0,0,0,.67-1.08,3.13,3.13,0,0,0,.29-1.22v-10a1,1,0,0,0,0-.25A5.12,5.12,0,0,0,21,8.72Z"/><path class="cls-1" d="M50.23,11.39l.64-.17-.12-.76c-.17-.94-.85-1.42-2-1.42a5.25,5.25,0,0,0-1.7.31,9.12,9.12,0,0,0-2.05,1l-.52.32A4,4,0,0,1,45.06,9a4.61,4.61,0,0,1,1.25-1.28A8.06,8.06,0,0,1,47.59,7a9.29,9.29,0,0,1,1.48-.43A8.38,8.38,0,0,1,51,6.34,4.44,4.44,0,0,1,54.3,7.56a6.06,6.06,0,0,1,1.48,3.57l1,8.95a2.58,2.58,0,0,0,.37,1,3,3,0,0,0,.8.9H52.21l-.12-.84-.51.32a10,10,0,0,1-1.22.55,6.41,6.41,0,0,1-2.4.41,4.49,4.49,0,0,1-2.83-.92,3.89,3.89,0,0,1-1.47-2,7.72,7.72,0,0,1-.29-1.74,4.18,4.18,0,0,1,.51-2.09,7,7,0,0,1,1.18-1.56,8.43,8.43,0,0,1,1.51-1.17,9.9,9.9,0,0,1,1.61-.83C48.69,11.85,49.38,11.63,50.23,11.39Zm.78.88a5,5,0,0,0-1.25,1,6.78,6.78,0,0,0-.91,1.57,4.66,4.66,0,0,0-.42,1.8v.67A4,4,0,0,0,49,19.59a1.85,1.85,0,0,0,1.59.87,1.54,1.54,0,0,0,1.33-.7Z"/><path class="cls-1" d="M58.54,8.7,58,8.11l1.42-.43,1.45-.46,1.48-.46,1.49-.48V9l.43-.61A6.8,6.8,0,0,1,65.7,6.94a2.69,2.69,0,0,1,1.07-.47,5.16,5.16,0,0,1,.77-.07,2.49,2.49,0,0,1,1.91.77,2.9,2.9,0,0,1,.71,2.05A2.49,2.49,0,0,1,69.58,11,2,2,0,0,1,68,11.6a3.6,3.6,0,0,1-1.43-.33,3.52,3.52,0,0,1-1.24-.86,1.14,1.14,0,0,0-.79.2,6.22,6.22,0,0,0-.75.58v9a1.65,1.65,0,0,0,.43,1.22A3.53,3.53,0,0,0,65,22H58l.4-.44A2.66,2.66,0,0,0,59,20v-9.9A2.3,2.3,0,0,0,58.54,8.7Z"/><path class="cls-1" d="M71.2,9H69.63A46.79,46.79,0,0,0,74.4,5L76,3.37V7.12h2.52V9H76v9.91c0,.81.47,1.22,1.42,1.22a2.69,2.69,0,0,0,.67-.09l.75-.26.38-.2a3.54,3.54,0,0,1-.76,1.51,4,4,0,0,1-1.29,1,10.34,10.34,0,0,1-1,.43,2.51,2.51,0,0,1-.55.07h-.82A3.23,3.23,0,0,1,71.2,19.7V9Z"/><path class="cls-1" d="M90.49,22H78.41A13.49,13.49,0,0,0,80,20.18a24,24,0,0,0,1.67-2.63l8.6-14.93-.44,0A5,5,0,0,0,88,3a36.8,36.8,0,0,0-3.32,1.79l-1.36.84a2.67,2.67,0,0,1-.55.25,6.11,6.11,0,0,1-.82.22,6.59,6.59,0,0,1-1,.12l-.86,0,.29-.66c.53-1.3.89-2.25,1.11-2.85s.36-1.09.46-1.45L82,1.05l.06-.37.41.14a5.06,5.06,0,0,0,1.65.23H97.29L86.14,20.31H87a7.91,7.91,0,0,0,1.41-.11,10.23,10.23,0,0,0,1.4-.38l.53-.23h.08l2.18-1.3A12.85,12.85,0,0,1,95,17.18a6,6,0,0,1,1.88-.35h.45a3.22,3.22,0,0,1,.62.11c-.42.68-.9,1.53-1.42,2.56s-1,2-1.45,2.87A8.12,8.12,0,0,0,93.56,22a20.37,20.37,0,0,0-2-.07Z"/><path class="cls-1" d="M105.19,22H98.31l.38-.44a3.81,3.81,0,0,0,.46-.9,2.54,2.54,0,0,0,.18-.84V3.12a1.78,1.78,0,0,0-.27-.92,2.13,2.13,0,0,0-.69-.74,10.62,10.62,0,0,0,2.8-.38,21.48,21.48,0,0,0,3-1.08V8.08a4,4,0,0,1,1-.81,5.4,5.4,0,0,1,1.38-.47,7.54,7.54,0,0,1,1.36-.17,4,4,0,0,1,2.72.92,2.91,2.91,0,0,1,1,2.28v9.58a3.3,3.3,0,0,0,1,2.56h-6.6a3.19,3.19,0,0,0,.73-2.23V10.38a1,1,0,0,0-.39-.8,1.47,1.47,0,0,0-1-.33,3.57,3.57,0,0,0-.77.14c-.37.1-.56.43-.56,1V19.5A3.22,3.22,0,0,0,105.19,22Z"/><path class="cls-1" d="M113.92,8l-.39-.3A9.44,9.44,0,0,0,115,7.62c.51-.08,1-.18,1.54-.29A12,12,0,0,0,118,6.89a14.3,14.3,0,0,0,1.41-.61v12.2a1.17,1.17,0,0,0,.43.93,1.54,1.54,0,0,0,1,.38,1.16,1.16,0,0,0,.9-.41,1.3,1.3,0,0,0,.38-.9V9.36a.69.69,0,0,0-.06-.26,5,5,0,0,0-.29-.57,2.64,2.64,0,0,0-.75-.8A10.62,10.62,0,0,0,124,7.26c1.07-.32,2.07-.65,3-1V19.79a3.07,3.07,0,0,0,.64,1.74L128,22h-5.84V20.84a4,4,0,0,0-.36.32c-.11.09-.37.28-.77.55a4.63,4.63,0,0,1-1.54.62,7,7,0,0,1-1.6.22c-2.17,0-3.25-1.35-3.25-4.07V9.3a1.29,1.29,0,0,0-.17-.62A2.53,2.53,0,0,0,113.92,8Z"/><path class="cls-1" d="M128.35,8.17,128,7.85l1.36-.38,4-1.25c.1.41.16.68.19.8a4.42,4.42,0,0,0,.22.63l.78,1.65,2.88,6.63,1.44-4.33a6,6,0,0,0,.19-1.45,3.61,3.61,0,0,0,0-.53c0-.19-.08-.51-.17-.95a3.52,3.52,0,0,0-.92-1.55h5.49l-.58,1.2c-.77,1.62-1.24,2.62-1.41,3s-.46,1-.88,2l-4,10.2a7.13,7.13,0,0,1-1.7,2.46A4,4,0,0,1,132,27.11a4.45,4.45,0,0,1-1.25-.2,3.55,3.55,0,0,1-1.19-.62,2.21,2.21,0,0,1-.73-.93,2.65,2.65,0,0,1-.2-1,2,2,0,0,1,.59-1.51,2.11,2.11,0,0,1,1.56-.6,3.48,3.48,0,0,1,1.74.49l.26.18.5.35.08.08a.62.62,0,0,0,.32.09,1.1,1.1,0,0,0,.41-.12.89.89,0,0,0,.43-.43,2.74,2.74,0,0,0,.25-.58.84.84,0,0,0,0-.44L129.31,9.45A4.67,4.67,0,0,0,128.35,8.17Z"/><path class="cls-1" d="M150.31,22h-6.89l.47-.49a3,3,0,0,0,.58-1.72V9.56a2,2,0,0,0-1-1.83,10.3,10.3,0,0,0,2.85-.47c1.06-.32,2-.65,3-1V19.79a2.42,2.42,0,0,0,.37,1.16c.24.45.38.71.43.77A1.45,1.45,0,0,0,150.31,22ZM146.76,5.09a3.12,3.12,0,0,1-2-.68,2.16,2.16,0,0,1-.83-1.73,2.69,2.69,0,0,1,.72-1.92,2.73,2.73,0,0,1,2-.75,2.88,2.88,0,0,1,2.08.68,2.56,2.56,0,0,1,.71,1.93,2.36,2.36,0,0,1-.74,1.76A2.71,2.71,0,0,1,146.76,5.09Z"/><path class="cls-1" d="M157.6,22h-6.48l.5-.41a2.1,2.1,0,0,0,.55-1.42V9.42a1.51,1.51,0,0,0-.16-.64,3.13,3.13,0,0,0-.48-.7l-.35-.32A9.87,9.87,0,0,0,154,7.28c1-.32,2-.66,2.93-1V7.85l.53-.35a5.54,5.54,0,0,1,2.93-1.13,4.6,4.6,0,0,1,3,.8,3.54,3.54,0,0,1,1.12,2.57v8.92a4.39,4.39,0,0,0,.17,1.23,10.78,10.78,0,0,0,.64,1.61l.23.47h-6.48l.32-.58a2.57,2.57,0,0,0,.32-1.08V10c0-.64-.4-1-1.22-1a2.94,2.94,0,0,0-.71.09.92.92,0,0,0-.58.54,3.43,3.43,0,0,0-.22,1.44V21.19C157,21.5,157.17,21.76,157.6,22Z"/></g></g></svg>