<?xml version="1.0" encoding="utf-8"?>
<!-- Generator: Adobe Illustrator 25.4.6, SVG Export Plug-In . SVG Version: 6.00 Build 0)  -->
<svg version="1.1" id="圖層_1" xmlns="http://www.w3.org/2000/svg" xmlns:xlink="http://www.w3.org/1999/xlink" x="0px" y="0px"
	 viewBox="0 0 50 40" style="enable-background:new 0 0 50 40;" xml:space="preserve">
<style type="text/css">
	.st0{fill:#004896;}
	.st1{fill:#00924A;}
</style>
<path class="st0" d="M5.8,6.4h8.4v2.1c0,0.3,0.2,0.5,0.5,0.5h2.8c0.3,0,0.6-0.2,0.6-0.5V6.4h12.7v2.1C30.8,8.8,31,9,31.3,9l0,0h2.9
	c0.3,0,0.5-0.2,0.5-0.5l0,0V6.4h7.5c0.3,0,0.5-0.2,0.5-0.5V3.8c0-0.2-0.2-0.4-0.5-0.4h-7.5V1.2c0-0.3-0.2-0.5-0.5-0.5l0,0h-2.9
	c-0.3,0-0.5,0.2-0.5,0.5c0,0,0,0,0,0v2.1H18.1V1.2c0-0.2-0.2-0.4-0.4-0.5h-3c-0.3,0-0.5,0.2-0.5,0.5v2.1H5.8c-0.3,0-0.5,0.2-0.5,0.5
	v2.1C5.3,6.2,5.5,6.4,5.8,6.4L5.8,6.4z M42.9,25.3l-17.1,0V13.3l16.3,0c0.3,0,0.5-0.2,0.5-0.5V10c0-0.3-0.2-0.5-0.5-0.5H5.9
	c-0.3,0-0.5,0.2-0.5,0.5c0,0,0,0,0,0v2.9c0,0.3,0.2,0.5,0.5,0.5h17v11.9H5.6c-0.3,0-0.5,0.2-0.5,0.5l0,0v2.8c0,0.3,0.2,0.5,0.5,0.5
	h17.2v3.3l-15.2,0c-0.3,0-0.5,0.2-0.5,0.5l0,0v1.8c0,0.3,0.2,0.5,0.5,0.5h0h15.2v3.3c0,0.3,0.2,0.5,0.5,0.5h2.1
	c0.3,0,0.5-0.2,0.5-0.5c0,0,0,0,0,0V35h15.3c0.3,0,0.5-0.2,0.5-0.5c0,0,0,0,0,0v-1.8c0-0.3-0.2-0.5-0.5-0.5c0,0,0,0,0,0l-15.3,0V29
	L42.9,29c0.3,0,0.5-0.2,0.5-0.5v-2.8C43.4,25.5,43.2,25.3,42.9,25.3z"/>
<path class="st1" d="M10.6,22.8c0-0.1-0.1-0.2-0.2-0.2c0,0,0,0,0,0h-7c-0.1,0-0.2-0.1-0.2-0.2c0,0,0,0,0,0v-6c0-0.1,0.1-0.2,0.2-0.2
	c0,0,0,0,0,0h7c0.1,0,0.2-0.1,0.2-0.2c0,0,0,0,0,0v-1.4c0-0.1-0.1-0.2-0.2-0.2l0,0H1.1c-0.1,0-0.2,0.1-0.2,0.2v9.6
	c0,0.1,0.1,0.2,0.2,0.2h9.3c0.1,0,0.2-0.1,0.2-0.2c0,0,0,0,0,0V22.8z M32.9,24.4c0.1,0,0.2-0.1,0.2-0.2v-7.8c0-0.1,0.1-0.2,0.2-0.2
	H37c0.1,0,0.2-0.1,0.2-0.2c0,0,0,0,0,0v-1.5c0-0.1-0.1-0.2-0.2-0.2l0,0H26.9c-0.1,0-0.2,0.1-0.2,0.2c0,0,0,0,0,0V16
	c0,0.1,0.1,0.2,0.2,0.2h3.7c0.1,0,0.2,0.1,0.2,0.2v7.8c0,0.1,0.1,0.2,0.2,0.2l0,0H32.9z M48,16.2c0.1,0,0.2-0.1,0.2-0.2v-1.5
	c0-0.1-0.1-0.2-0.2-0.2h-9.5c-0.1,0-0.2,0.1-0.2,0.2l0.1,9.7c0,0.1,0.1,0.2,0.2,0.2H48c0.1,0,0.2-0.1,0.2-0.2v-1.4
	c0-0.1-0.1-0.2-0.2-0.2h-7.3c-0.1,0-0.2-0.1-0.2-0.2v-6c0-0.1,0.1-0.2,0.2-0.2H48z M12.3,14.3c-0.1,0-0.2,0.1-0.2,0.2c0,0,0,0,0,0
	v9.6c0,0.1,0.1,0.2,0.2,0.2c0,0,0,0,0,0h9.2c0.1,0,0.2-0.1,0.2-0.2c0,0,0,0,0,0v-1.4c0-0.1-0.1-0.2-0.2-0.2c0,0,0,0,0,0h-7
	c-0.1,0-0.2-0.1-0.2-0.2v0v-7.8c0-0.1-0.1-0.2-0.2-0.2c0,0,0,0,0,0L12.3,14.3z"/>
</svg>
