<?xml version="1.0" encoding="utf-8"?>
<!-- Generator: Adobe Illustrator 26.3.1, SVG Export Plug-In . SVG Version: 6.00 Build 0)  -->
<svg version="1.1" id="圖層_1" xmlns="http://www.w3.org/2000/svg" xmlns:xlink="http://www.w3.org/1999/xlink" x="0px" y="0px"
	 viewBox="0 0 418 76.2" style="enable-background:new 0 0 418 76.2;" xml:space="preserve">
<style type="text/css">
	.st0{fill:#7D171F;}
	.st1{fill:#FFFFFF;}
	.st2{fill:none;}
	.st3{fill-rule:evenodd;clip-rule:evenodd;fill:#FFFFFF;}
</style>
<g id="Group_956" transform="translate(-376 -2205)">
	<g id="Group_944" transform="translate(376 2207)">
		<path id="Path_6317" class="st0" d="M72.1,37.9c0.1,19.9-16,36.1-35.9,36.2C16.3,74.2,0.1,58.1,0,38.2C-0.1,18.3,16,2.1,35.9,2
			C55.9,1.9,72.1,18,72.1,37.9C72.1,37.9,72.1,37.9,72.1,37.9z"/>
		<g id="Group_943" transform="translate(2.316 1.409)">
			<g id="Group_942">
				<path id="Path_6318" class="st1" d="M21.9,10.2l0.3,0.2c2.1,1.4,3.4,3.6,3.9,6.1l1.7,5.2c0,0.1,0,0.1,0.1,0.2c0,0,0,0,0,0
					c0.3,0.7,0.9,1.1,1.6,1.2c0,0,0,0,0.1,0H38c0,0,0,0,0.1,0c0.7,0,1.3-0.5,1.6-1.1c0,0,0,0,0,0c0-0.1,0-0.1,0.1-0.2l1.7-5.2
					c0.4-2.5,1.8-4.7,3.9-6.1l0.3-0.2c0.8-0.6,1-1.7,0.5-2.5c-0.1-0.2-0.3-0.4-0.5-0.5c-0.1,0-0.1-0.1-0.2-0.1l0,0l0,0
					C45.2,7,45.2,7,45.1,7c-2.8-1.1-5.7-1.7-8.6-2c-0.9-1.5-2.9-2-4.4-1.1c-0.5,0.3-0.9,0.7-1.1,1.1c-2.9,0.3-5.8,0.9-8.6,2
					c-0.1,0-0.1,0-0.2,0.1h0l0,0c-0.1,0-0.1,0.1-0.2,0.1c-0.8,0.5-1.1,1.6-0.6,2.5C21.5,9.9,21.6,10.1,21.9,10.2L21.9,10.2z
					 M23.8,8.7C26.9,7.6,30.2,7,33.5,7H34c3.3,0,6.6,0.6,9.7,1.7c0.1,0,0.2,0.1,0.2,0.2c0,0.1,0,0.2-0.1,0.2l0,0
					c-2.2,1.7-3.7,4.2-4.3,6.9l-1.5,4.7v0c-0.1,0.3-0.4,0.5-0.7,0.5h-7.2c-0.3,0-0.6-0.2-0.7-0.5v0L28,16c-0.6-2.7-2.1-5.2-4.3-6.9
					l0,0c-0.1,0-0.1-0.1-0.1-0.2C23.6,8.8,23.7,8.7,23.8,8.7L23.8,8.7z"/>
				<path id="Path_6319" class="st1" d="M2.3,32.2c0,1,0.9,1.8,1.9,1.7c0.3,0,0.5-0.1,0.7-0.2l0.3-0.1c2.3-1.1,4.9-1.2,7.2-0.3
					l5.4,1.1c0.1,0,0.1,0,0.2,0.1h0c0.7,0.1,1.4-0.2,1.8-0.8c0,0,0,0,0,0l2.1-3.7l2.1-3.7c0,0,0,0,0-0.1c0.3-0.6,0.3-1.4-0.2-2l0,0
					c0-0.1-0.1-0.1-0.2-0.2l-3.7-4.1c-1.9-1.6-3.1-3.9-3.3-6.4l-0.1-0.3c-0.1-1-0.9-1.7-1.9-1.7c-0.3,0-0.5,0.1-0.7,0.2
					c-0.1,0-0.1,0.1-0.2,0.1l0,0l0,0c-0.1,0-0.1,0.1-0.2,0.1c-2.3,1.9-4.3,4-6,6.5c-1.8,0-3.2,1.5-3.2,3.2c0,0.5,0.1,1.1,0.4,1.6
					c-1.2,2.7-2.1,5.5-2.6,8.4c0,0.1,0,0.1,0,0.2v0l0,0C2.3,32,2.3,32.1,2.3,32.2z M4.5,31.3c0.6-3.3,1.7-6.4,3.4-9.3L8,21.8l0,0
					l0.1-0.2c1.7-2.9,3.8-5.4,6.4-7.6c0.1-0.1,0.2-0.1,0.3,0c0.1,0,0.1,0.1,0.1,0.2l0,0c0.4,2.7,1.8,5.3,3.8,7.1l3.4,3.6l0,0
					c0.2,0.2,0.2,0.6,0.1,0.8l0,0l-1.8,3.1l0,0l-1.8,3.1l0,0c-0.2,0.3-0.5,0.4-0.8,0.3h0L13,31.3c-2.6-0.8-5.5-0.8-8.1,0.2l0,0
					c-0.1,0.1-0.2,0.1-0.2,0C4.5,31.5,4.5,31.4,4.5,31.3L4.5,31.3z"/>
				<path id="Path_6320" class="st1" d="M24,49.2C24,49.2,24,49.2,24,49.2c0.5-0.6,0.6-1.4,0.2-2c0,0,0,0,0-0.1l-2.1-3.7l-2.1-3.7
					c0,0,0,0,0,0c-0.4-0.6-1.1-0.9-1.8-0.8h0c-0.1,0-0.1,0-0.2,0.1L12.4,40c-2.3,0.9-4.9,0.8-7.2-0.3l-0.3-0.1
					c-0.9-0.4-2-0.1-2.4,0.8c-0.1,0.2-0.2,0.5-0.2,0.7c0,0.1,0,0.2,0,0.2l0,0v0c0,0.1,0,0.1,0,0.2c0.5,2.9,1.3,5.8,2.6,8.5
					c-0.9,1.5-0.3,3.5,1.2,4.4c0.5,0.3,1,0.4,1.6,0.4c1.7,2.4,3.7,4.6,6,6.5c0,0,0.1,0.1,0.2,0.1l0,0l0,0c0.1,0,0.1,0.1,0.2,0.1
					c0.9,0.5,2,0.1,2.4-0.7c0.1-0.2,0.2-0.5,0.2-0.7l0.1-0.3c0.2-2.5,1.4-4.8,3.3-6.4l3.7-4.1C23.9,49.3,23.9,49.2,24,49.2z
					 M22.1,48.3L22.1,48.3L18.7,52c-2.1,1.9-3.4,4.4-3.8,7.1l0,0c0,0.1,0,0.2-0.1,0.2c-0.1,0-0.2,0-0.3,0c-2.5-2.2-4.7-4.7-6.4-7.6
					L8,51.5l0,0l0,0l0,0l-0.1-0.2c-1.6-2.9-2.8-6-3.4-9.3c0-0.1,0-0.2,0.1-0.2c0.1,0,0.2,0,0.2,0l0,0c2.6,1,5.5,1.1,8.1,0.2l4.8-1.1
					h0c0.3-0.1,0.6,0.1,0.8,0.3l0,0l1.8,3.1l0,0l0,0l1.8,3.1l0,0C22.4,47.8,22.3,48.1,22.1,48.3z"/>
				<path id="Path_6321" class="st1" d="M45.6,63.1l-0.3-0.2c-2.1-1.4-3.4-3.6-3.8-6.1l-1.7-5.2c0-0.1,0-0.1-0.1-0.2l0,0
					c-0.3-0.7-0.9-1.1-1.6-1.1c0,0,0,0-0.1,0h-8.6c0,0,0,0-0.1,0c-0.7,0-1.3,0.5-1.6,1.1c0,0,0,0,0,0c0,0.1,0,0.1-0.1,0.2L26,56.8
					c-0.4,2.5-1.8,4.7-3.9,6.1l-0.3,0.2c-0.8,0.6-1.1,1.7-0.5,2.5c0.1,0.2,0.3,0.4,0.5,0.5c0.1,0,0.1,0.1,0.2,0.1l0,0h0
					c0.1,0,0.1,0.1,0.2,0.1c2.8,1.1,5.7,1.7,8.6,2c0.9,1.5,2.9,2,4.4,1.1c0.5-0.3,0.9-0.7,1.1-1.1c2.9-0.3,5.8-0.9,8.6-2
					c0.1,0,0.1,0,0.2-0.1h0l0,0c0.1,0,0.1-0.1,0.2-0.1c0.8-0.5,1.1-1.6,0.6-2.5C46,63.4,45.9,63.3,45.6,63.1L45.6,63.1z M43.7,64.6
					c-3.1,1.1-6.4,1.7-9.7,1.7h-0.5c-3.3,0-6.6-0.6-9.7-1.7c-0.1,0-0.2-0.1-0.2-0.2c0-0.1,0-0.2,0.1-0.2l0,0
					c2.2-1.7,3.7-4.2,4.3-6.9l1.5-4.7v0c0.1-0.3,0.4-0.5,0.7-0.5l0,0h7.3l0,0c0.3,0,0.6,0.2,0.7,0.5v0l1.5,4.7
					c0.6,2.7,2.1,5.1,4.3,6.9l0,0c0.1,0,0.1,0.1,0.1,0.2C43.9,64.5,43.8,64.6,43.7,64.6L43.7,64.6z"/>
				<path id="Path_6322" class="st1" d="M65.2,41.2c0-1-0.9-1.8-1.9-1.7c-0.3,0-0.5,0.1-0.7,0.2l-0.3,0.1c-2.3,1.1-4.9,1.2-7.2,0.3
					l-5.4-1.1c-0.1,0-0.1,0-0.2-0.1h0c-0.7-0.1-1.4,0.2-1.8,0.8c0,0,0,0,0,0l-2.1,3.7l-2.1,3.7c0,0,0,0,0,0.1
					c-0.3,0.6-0.3,1.4,0.2,2c0,0,0,0,0,0c0,0.1,0.1,0.1,0.2,0.2l3.7,4.1c1.9,1.6,3.1,3.9,3.3,6.4l0.1,0.3c0.1,1,0.9,1.7,1.9,1.7
					c0.3,0,0.5-0.1,0.7-0.2c0.1,0,0.1-0.1,0.2-0.1l0,0l0,0c0.1,0,0.1-0.1,0.2-0.1c2.3-1.9,4.3-4,6-6.5c1.8,0,3.2-1.5,3.2-3.2
					c0-0.5-0.1-1.1-0.4-1.6c1.2-2.7,2.1-5.5,2.6-8.4c0-0.1,0-0.1,0-0.2v0l0,0C65.2,41.3,65.2,41.3,65.2,41.2z M63,42
					c-0.6,3.3-1.7,6.4-3.4,9.3l-0.1,0.2l0,0l-0.1,0.2c-1.7,2.9-3.8,5.4-6.4,7.6c-0.1,0.1-0.2,0.1-0.3,0c-0.1,0-0.1-0.1-0.1-0.2l0,0
					c-0.4-2.8-1.8-5.3-3.8-7.1l-3.4-3.6l0,0c-0.2-0.2-0.2-0.6-0.1-0.8l0,0l1.8-3.1l0,0l1.8-3.1l0,0c0.2-0.3,0.5-0.4,0.8-0.3h0
					l4.8,1.1c2.6,0.8,5.5,0.8,8.1-0.2l0,0c0.1,0,0.2-0.1,0.2,0C63,41.8,63,41.9,63,42L63,42z"/>
				<path id="Path_6323" class="st1" d="M43.5,24.1C43.5,24.1,43.5,24.2,43.5,24.1c-0.5,0.6-0.6,1.4-0.2,2c0,0,0,0,0,0.1l2.1,3.7
					l2.1,3.7c0,0,0,0,0,0c0.4,0.6,1.1,0.9,1.8,0.8l0,0c0.1,0,0.1,0,0.2-0.1l5.4-1.1c2.3-0.9,4.9-0.8,7.2,0.3l0.3,0.1
					c0.9,0.4,2,0.1,2.4-0.8c0.1-0.2,0.2-0.5,0.2-0.7c0-0.1,0-0.2,0-0.2l0,0v0c0-0.1,0-0.1,0-0.2c-0.5-2.9-1.3-5.8-2.6-8.5
					c0.9-1.5,0.3-3.5-1.2-4.4c-0.5-0.3-1-0.4-1.6-0.4c-1.7-2.4-3.7-4.6-6-6.5c-0.1,0-0.1-0.1-0.2-0.1l0,0l0,0
					c-0.1-0.1-0.1-0.1-0.2-0.1c-0.9-0.5-2-0.1-2.4,0.7c-0.1,0.2-0.2,0.5-0.2,0.7l-0.1,0.3c-0.2,2.5-1.4,4.8-3.3,6.4L43.7,24
					C43.6,24,43.6,24.1,43.5,24.1z M45.4,25L45.4,25l3.4-3.6c2.1-1.9,3.4-4.4,3.8-7.1l0,0c0-0.1,0-0.2,0.1-0.2c0.1,0,0.2,0,0.3,0
					c2.5,2.2,4.7,4.7,6.4,7.6l0.1,0.2l0,0l0.1,0.2c1.6,2.9,2.8,6,3.4,9.3c0,0.1,0,0.2-0.1,0.2c-0.1,0-0.2,0-0.2,0l0,0
					c-2.6-1-5.5-1.1-8.1-0.2l-4.8,1.1h0c-0.3,0.1-0.6-0.1-0.8-0.3l0,0L47.1,29l0,0l-1.8-3.1l0,0C45.2,25.6,45.2,25.2,45.4,25
					L45.4,25z"/>
			</g>
			<rect id="Rectangle_130" x="30.6" y="34.1" class="st2" width="1.1" height="1.2"/>
			<rect id="Rectangle_131" x="30.6" y="30.8" class="st2" width="1.1" height="0.9"/>
			<path id="Path_6324" class="st1" d="M44.3,37.6h-4.4v1.5h3l-0.1,0.3c-1.6,5-6.9,7.8-11.9,6.2c-2.9-0.9-5.2-3.2-6.2-6.2l-0.1-0.3
				h3v-1.5h-4.4c-0.3,0-0.5,0.2-0.5,0.5v0c0.9,6.1,6.6,10.4,12.8,9.5c4.9-0.7,8.7-4.6,9.5-9.4c0,0,0,0,0,0
				C44.9,37.9,44.6,37.6,44.3,37.6z"/>
			<path id="Path_6325" class="st1" d="M44.9,34.9C44.9,34.9,44.9,34.9,44.9,34.9c-0.8-5-4.7-8.9-9.7-9.5v1.8c3.6,0.5,6.6,3,7.7,6.5
				l0.1,0.3h-3v1.5h4.4C44.6,35.5,44.9,35.2,44.9,34.9z"/>
			<path id="Path_6326" class="st1" d="M23.2,35.5h4.4V34h-3l0.1-0.3c1.1-3.5,4.1-6,7.7-6.5v-1.8c-5,0.6-9,4.5-9.7,9.5v0
				C22.6,35.2,22.9,35.5,23.2,35.5z"/>
			<path id="Path_6327" class="st1" d="M29.8,42.8v1.1c1.7-0.3,3.2-1.4,4-3c0.8,1.5,2.3,2.6,4,3v-1.1c-1.7-0.4-3.1-1.7-3.4-3.5h3.2
				v-1h-3.3v-1.4h-1v1.4h-3.4v1h3.4C32.9,41,31.6,42.4,29.8,42.8z"/>
			<path id="Path_6328" class="st1" d="M35,30.4h-1.5c-0.1,0-0.2,0.1-0.2,0.2l0,0v4.5h0.9v-4.1H35v5H36v-5h0.9v4.1h0.8v-4.5
				c0-0.1-0.1-0.2-0.2-0.2h0H36v-0.7h1.9V29H33v0.7h2L35,30.4z"/>
			<path id="Path_6329" class="st1" d="M31,30.1c0.3-0.3,0.4-0.7,0.5-1h-0.9c0,0.4-0.2,0.7-0.4,1.1H30c-0.1,0-0.2,0.1-0.2,0.2l0,0
				v5.5c0,0.1,0.1,0.2,0.2,0.2h0h2.4c0.1,0,0.2-0.1,0.2-0.2l0,0v-2.3c0-0.1-0.1-0.2-0.2-0.2h0h-1.7v-0.7h1.7c0.1,0,0.2-0.1,0.2-0.2
				l0,0v-2.1c0-0.1-0.1-0.2-0.2-0.2h0L31,30.1z M31.7,34.1v1.2h-1.1v-1.2H31.7z M31.7,31.7h-1.1v-0.9h1.1L31.7,31.7z"/>
		</g>
	</g>
	<g id="Group_955" transform="translate(0 1.5)">
		<g id="Group_941" transform="translate(418.363 2203.5)">
			<g id="Group_940">
				<path id="Path_6301" class="st3" d="M77.2,45.5c-0.1-1.6-0.3-3.2-0.6-4.7c-0.3-1.4-0.4-2.9-0.3-4.3c0-0.4,0.1-1-0.2-1.3
					c-0.2-0.2-0.3-0.1-0.3-0.3c-1-2.9,0.6-5.2,0.8-8.1c-0.1-1.6-0.2-3.3-0.5-4.9c-0.1-1.4,0.4-2.8,0.4-4.3c0-1.2-0.6-2.3-0.5-3.5
					c0-0.2,0-0.4,0-0.7c-0.2-1-2.6-1.7-3.4-1.9L72,11.4c-0.2-0.1-0.4-0.1-0.6-0.2c-0.1,0-0.3,0-0.4,0c-0.4-0.1-0.7-0.2-1-0.3
					c-0.8-0.1-1.6-0.1-2.4,0.1c-0.7,0.1-1.4-0.1-1.8-0.6c-0.6-0.4-1.5-0.2-2.1-0.2c-0.4-0.1-0.8-0.1-1.1,0c-0.3,0.1-0.6,0.2-0.9,0.4
					c-0.3,0.1-0.6-0.1-0.9-0.1c-0.9,0-1.7-0.4-2.6-0.4L52.7,10c-0.4,0-0.9,0-1,0.4c-0.1,0.3,0.2,0.7,0.4,0.9c1.3,1.2,2.9,2,4.6,2.4
					c1,0.3,2.1,0.3,3.1,0.1c1-0.4,2.1-0.7,3.3-0.7c0.4,0.1,0.8,0.2,1.2,0.1c0.2-0.1,0.4-0.2,0.6-0.4c1.9-0.8,4.2-0.1,5.3,1.7
					c0.1,0.3,0.3,0.7,0.4,1c0.2,0.7,0.4,1.3,0.7,1.9l0.1,0.4c0,0.1,0.1,0.3,0.2,0.4c0.1,0.2,0.3,0.3,0.4,0.4
					c0.2,0.4,0.3,0.8,0.3,1.3c0,3-0.2,5.9-0.2,8.9c0,1.2,0,2.3,0,3.5c0,2.3,0,4.7-0.1,7c0,1-0.1,2.1-0.2,3.1c0,0.6-0.2,1.3-1,1.1
					c-0.4-0.2-0.7-0.4-1-0.7c-0.2-0.1-0.3-0.3-0.5-0.4C69,42.2,69,41.9,69,41.6c0.1-0.3,0.1-0.6,0.1-0.9c0-0.3-0.3-0.6-0.6-0.6
					c0.1-1-1.1-1.8-1.5-2.6c-0.2-0.6-0.3-1.3-0.2-2c0-0.5-0.1-1.6,0.3-1.9c0.2-0.1,0.4-0.1,0.5-0.2c0.1-0.2,0.2-0.4,0.2-0.6
					c0-0.2,0-0.5,0.1-0.7c0.1-0.3,0.3-0.4,0.5-0.6c0.5-0.5,0.3-1.3,0.3-1.9c-0.1-1.4-0.1-2.8,0-4.2c0.1-0.6,0-1-0.6-1.3
					c-0.6-0.3-1.1-0.7-1.5-1.3c-0.3-0.5-0.6-1-0.9-1.6c-0.2-0.4-0.5-1.1-0.2-1.5c0.2-0.2,0.4-0.3,0.5-0.6c0-0.3,0-0.7,0-1
					c-0.1-0.7-0.2-1.3-0.3-1.9c-0.1-0.5-0.3-1.1-0.8-1.3c-0.9-0.2-1.8-0.1-2.7,0.2c-0.3,0.1-0.5,0.4-0.5,0.7c0,0.3,0.2,0.7,0,1
					c-0.1,0.1-0.2,0.2-0.4,0.2c-0.9,0.3-1.8,0.5-2.7,0.5c-0.6-0.1-1.3,0-1.9,0.3c-0.5,0.4-1,0.8-1.5,1.2c-0.5,0.4-1.1,0.6-1.7,0.8
					c-0.3,0.1-0.7,0.2-0.9,0c-0.1-0.1-0.2-0.2-0.4-0.3c-0.1,0-0.3,0-0.4,0c-0.2-0.1-0.3-0.2-0.4-0.4c-0.8-1.2-3.3-1.5-3.6,0.3
					c0,0.2,0.1,0.5,0,0.7c-0.2,0.5-0.5,0.5-0.3,1.1c0.1,0.5,0.4,0.9,0.7,1.2c0.5,0.5,1,0.8,1.5,1.3c0.5,0.4,1.1,0.8,1.1,1.5
					c-0.1,0.8-0.4,1.5-0.8,2.1c-0.2,0.5-0.2,1.2-0.7,1.6c-0.1,0.1-0.2,0.1-0.3,0.2c-0.1,0.1-0.1,0.3-0.1,0.4c0,0.5,0,1-0.1,1.5
					c-0.1,0.3-0.3,0.6-0.4,0.9c-0.2,0.6-0.1,1.3,0.2,1.8c0.3,0.4,0.9,0.1,1.2,0c1-0.4,2-1.6,3-1.4c0.1,0.8-0.1,1.5-0.6,2.1
					c-0.5,0.5-0.9,1.1-1.3,1.7c-0.2,0.3-0.3,0.7-0.5,1c-0.1,0.4-0.1,0.8-0.1,1.2c-0.1,0.3-0.2,0.6-0.4,0.9c-0.2,0.3-0.1,0.8,0,1.1
					c0.3,0.6,0.7,1,0.8,1.6c1.1,0.2,2.7-1.7,3.5-2.3c1.1-1.1,2.5-1.9,3.9-2.6c1-0.4,2.1-0.7,3.1-0.9c0,1.3-0.5,2.5-1.3,3.6
					c-0.6,1.1-1.4,2-2.3,2.9c-0.5,0.5-1,0.9-1.5,1.3c-0.2,0.2-0.5,0.2-0.8,0.2c-0.2,0-0.4,0-0.6,0.2c-0.3,0.4-0.3,0.8-0.7,1
					c-1,0.5-2.2,0.1-3.2,0.8c-0.4-0.3-0.9-0.5-1.3-0.4c-0.9,0-1.7-0.6-2.1-1.4c-0.1-0.6-0.2-1.3-0.1-1.9c0-1.6,0-3.1,0.1-4.7
					c0-1.1,0.1-2.2,0.1-3.2c0-0.6,0.2-2.1-0.3-2.6c-0.1,0-0.1-0.1-0.2-0.2c-0.1-0.1-0.1-0.2-0.1-0.3c-0.1-2.7,0.6-5.7-0.7-8.2
					c-0.2-0.6-0.6-1-1.2-1.4c-0.3-0.2-1-0.3-1.1,0.2c-0.2,1.1-0.1,2.3,0.2,3.4c0.1,0.5,0.7,1.3,0.6,1.9c0,0.2-0.1,0.3-0.2,0.5
					c-0.4,0.8-0.1,1.7,0,2.6c0,0.6,0,1.2-0.2,1.8c-0.3,1.9-0.7,3.8-1.3,5.6c-0.6,1.6-0.8,3.3-0.5,4.9c0.2,1.4,0.5,2.9,1,4.2
					c0.3,1,1.3,1.7,2.3,1.8c1.5,0,3-0.2,4.5-0.5c1.5-0.1,2.9-0.4,4.3-0.9c0.7-0.3,1.4-0.5,2.2-0.5c1.1,0,2.2-0.2,3.3-0.6
					c0.8-0.2,1.6-0.3,2.4-0.2c0.5,0.1,1,0.2,1.4,0c0.1-0.1,0.3-0.1,0.4-0.2c0.5-0.1,0.9-0.1,1.4,0c1,0.1,1.9,0.4,2.7,1
					c0.6,0.8,1,1.6,1.4,2.4l0.3,0.5c0.4,0.7,0.8,1.3,1.2,2c0.2,0.4,0.4,0.8,0.7,1.1c0.3,0.3,0.7,0.5,1.2,0.4
					c0.3-0.1,0.6-0.3,0.9-0.5c0.2-0.1,0.5-0.2,0.7-0.3c0.2-0.1,0.3-0.3,0.4-0.5c0.2-0.3,0.4-0.5,0.5-0.8c0.3-0.4,0.5-0.9,0.5-1.4
					c0.1-0.7,0.4-1.4,0.6-2.1C77.2,47,77.3,46.3,77.2,45.5z M60.1,32c-0.3,0.4-0.1,0.4-0.5,0.6c-0.4,0.2-0.8,0.5-1.2,0.8
					c-0.1,0.1,0,0.2-0.1,0.3s-0.3,0-0.4,0c-0.1,0.1-0.2,0.2-0.3,0.3c-0.5,0.2-1.1,0.3-1.6,0.1c0.2-0.7,0.6-1.2,1.1-1.7
					c0.5-0.5,1.2-0.6,1.6-1.1c0.3-0.4,0.1-0.7,0.1-1.1c0-0.7,0.2-1.1-0.6-1.2c-0.2,0-0.5-0.1-0.7-0.2c-0.4-0.1-0.9-0.2-1.4-0.3
					c-1.1-0.2-2.2-0.3-3.3-0.3c0.2-0.7,0.5-1.4,0.8-2.1c0.4-0.7,1-1.3,1.6-1.8c0.4-0.3,1.1-1.1,1.7-1c0.1,0,0.3,0.1,0.4,0.2
					c1.3,0.8,1.8,2.6,2.4,4S61,30.7,60.1,32L60.1,32z M65,40.5c0.1,0.6-0.1,1.2-0.4,1.7c-0.2,0.3-0.6,0.2-0.9,0.3s-1.3,0.2-1.5-0.2
					c0,0,0-0.1,0-0.1c-0.1-0.5,0.4-1.2,0.7-1.6c0.3-0.4,0.6-0.8,1-1.2h0.8C65.1,39.3,65,40.2,65,40.5L65,40.5z M65.5,27.3
					c-0.1,0.3-0.4,0.4-0.6,0.7c-0.5,0.5-1.3,0.5-1.8,0c-0.1-0.1-0.1-0.2-0.2-0.3c-0.4-0.6-0.8-1.3-1.1-2c-0.4-0.7-0.8-1.4-1.1-2.2
					c-0.1-0.3-0.2-0.6-0.3-0.9c-0.1-0.4,0.9-0.9,1.2-1.1c0.3-0.1,0.6-0.1,0.9-0.1c0.5,0,1,0,1.5,0c0.3,0,0.5,0,0.7,0.3
					c0.1,0.1,0.2,0.2,0.2,0.3c0.2,0.2,0.3,0.2,0.4,0.4c0.1,0.5,0.1,1,0,1.5c0,0.6,0,1.1,0.1,1.7C65.6,26.3,65.6,26.8,65.5,27.3
					L65.5,27.3z"/>
				<g id="Group_936" transform="translate(23.498 6.573)">
					<path id="Path_6302" class="st3" d="M73.5,9.8c0.4,0.4,0.7,0.9,1,1.3c0.5,0.9,0.2,1.6,1.2,1.9c0.3,0.1,0.6,0.2,0.9,0.4
						c1.3,0.4,2.7,0.3,4,0c0.1,0,0.1,0,0.2-0.1l0,0c0.7-0.6-0.7-2.8-1.2-3.2c-0.5-0.3-1-0.6-1.4-0.9c-0.5-0.5-0.8-1-1.6-1.2
						c-1.5-0.2-2.7-1.1-4.2-1.4c-0.1,0.2-0.4,0.5-0.4,0.8c0,0.3,0.1,0.6,0.3,0.8C72.7,8.8,73.1,9.3,73.5,9.8z"/>
					<path id="Path_6303" class="st3" d="M93.6,38.6c-0.4-0.4-0.8-0.7-1.3-0.9c-2.6-1.3-5.5-1.8-8.4-1.5c-0.6,0.1-1.5,0-1.6-0.6
						c-0.1-0.4,0.3-0.7,0.6-1c2.2-2,3.6-4.6,4.2-7.5c0.3-1,0.1-2.1-0.4-3c-0.6-0.7-1.4-1.1-2.3-1.1c-0.9,0-1.7,0.2-2.5,0.5
						c-0.4,0.1-0.8,0.3-1.2,0.6c-0.4,0.4-0.8,0.9-1.1,1.4c-1.2,1.6-2.7,2.9-4.3,3.9c-0.5,0.4-1,0.7-1.6,0.8
						c-0.6,0.1-1.2-0.2-1.5-0.8c-0.1-0.5,0.1-1,0.4-1.4l1.6-2.6c0.8-1.7,2-3.1,3.5-4.3c1.2-0.7,2.6-1.3,3.9-1.7
						c1.1-0.4,2.2-1,3.2-1.7c0.3-0.2,0.6-0.4,0.7-0.8c0.1-0.3,0-0.5-0.2-0.7c-0.2-0.2-0.4-0.4-0.7-0.6c-1.8-0.4-3.7-0.1-5.2,0.9
						c-3,1.2-6.1,2-9.2,2.4c-0.7,0.1-5,0.5-4.1,2c0.2,0.2,0.4,0.4,0.7,0.5c1.4,0.7,3,1,4.6,0.8c0.6-0.1,1.5-0.1,1.7,0.5
						c0.1,0.4,0,0.9-0.3,1.2c-0.7,1.1-1.5,2.2-2.4,3.2c-0.4,0.5-0.9,1-1.4,1.5c-0.3,0.3-0.7,0.7-1,1c0,0-0.1,0.1-0.1,0.1
						c0,0.1,0,0.1,0.1,0.2c0.7,0.9,1.2,1.8,1.5,2.9c0.3,0.9,1,1.7,1.9,2.1c0.7,0.1,1.5,0,2.1-0.3c1.5-0.6,2.9-1.4,4.1-2.5
						c0.7-0.5,1.2-1.2,1.5-2c0.2-0.7,0-1.3,0.1-2c0.2-1,0.9-1.7,1.9-2c0.2-0.1,0.4,0,0.5,0.1c0.1,0.2,0.2,0.4,0.1,0.6
						c-0.7,3-2.3,5.7-4.7,7.6c-2,2.4-4.7,4.2-7.7,5.1c-0.5,0.1-1.1,0.2-1.6,0.4c-0.5,0.3-0.8,0.8-0.6,1.4c0.1,0.3,0.4,0.5,0.7,0.7
						c0.9,0.7,2.1,1.1,3.3,1.1c0.5-0.1,1-0.3,1.5-0.5c1.2-0.3,2.3-0.5,3.5-0.7c3.1-0.5,6.2-1.9,9.3-1.7c2.4,0.2,4.8,1.2,7.1,0.6
						c0.5-0.1,1-0.4,1.3-0.9C94,39.5,93.9,38.9,93.6,38.6z"/>
				</g>
				<path id="Path_6304" class="st3" d="M162.7,35.5c-0.1,0-0.1,0.6-0.8,0.4c-1.3-0.5-2.6-1.1-3.8-1.8c-0.7-0.4-1.4-0.6-2.1-0.8
					c-0.6,0-1.1,0.4-1.3,0.4c-0.8,0.4-1.6,1-2.1,1.7c-0.1,1-0.2,2,0,3.1c0,1.8-0.2,3.6-0.8,5.4c-0.5,0.9-0.9,1.9-1.3,3
					c-2.3,0.7-4.5,1.4-6.8,2.1h-0.4v-1.3l1.3-0.4c0-0.1,0.6-0.4,0.8-0.4c0-0.1,0.8-0.4,1.3-0.4c1.7-0.6,3-2,3.4-3.8
					c0.6-0.7,0.8-1.7,0.6-2.6c-0.1-0.6-0.3-1.1-0.6-1.6c0.2-1.5-2-2-2.6-2.9l-0.4-0.4c0.6-0.6,2.9-2,2.1-3.8
					c-0.3-0.3-0.6-0.5-0.9-0.8c1.3-1.1,2.5-2.3,3.8-3.4c0.8-1.1,1-2.2,2.1-3v-1.3c-1-0.3-2-0.7-2.9-1c-0.8-0.2-1.6-0.1-2.3-0.3
					c-1.7-1.1-3.8-1.4-5.7-0.8c1.3-1.9,3-3.5,5.1-4.6c-0.1-1.9-0.5-2.3-1.7-3V9.7c1.1-0.6,2.3-1.1,3.4-1.7V7.2
					c0.5-0.5,0.2,0,0.4-0.8c-1-0.6-2.2-1-3.4-1.3c-0.2-0.5-0.5-1-0.8-1.5c-0.7-1.1-1.3-0.9-2.2-0.3c-0.3,0.2-1.8,0.9-0.7,1.3
					c1,0.3,0.2,2.9-0.3,3.5c-0.3,0.4-3.5,1.7-3.5,1.2v1.3c1.3,0.1,2.5,0.3,3.8,0.4v3.4c-1.2-0.1-2.4,0.2-3.4,0.8
					c-0.1,0.6-0.1,1.2,0.1,1.8c0.4,0.3,1,0.4,1.5,0.3c0,0.1,0.2,0.9,0.1,0.9c-0.9,0.3-1.8,0.7-2.5,1.3c-0.1,3.9,1.3,4,4.2,3.8
					c0.7,0-1.4,1.5-1.2,1.3c-0.4,0.3-5.3,3.4-6,3.9c-0.4,0.2-1.1,0.5-1.4,0.7c-0.3,0.2-1.2,0.5-1.6,0.8c-1,0.7-2.3,1.4-3.2,2.1
					c-0.4,0.3-0.6,0.8-1,1.1c-0.8,0.6-1.8,1-2.8,1.1c0.1-1.1-0.7-1.3-0.1-2.6c0.5-1,1.2-1.9,2.2-2.4v-0.4c-2,0.6-3.9,1.6-5.5,3
					c-0.5,0.7,0,1-0.8,1.7c-0.1,1.9,0.4,3.8,1.3,5.5c0.8,0.3,1.6,0.6,2.5,0.8c0.3-0.5,1.2-0.6,1.7-1c1.6-1.2,2.8-2.8,4.3-4
					c0.5-0.4,0.9-0.3,1.4-0.7c0.8-0.7,1.3-1.5,2.2-2c0.8-0.4,1.6-0.9,2.3-1.5c0.5-0.5,1.8-1,2.2-1.7c0.5-0.9,4.5-2.6,5.2-3
					c1.1-0.7,2.3-1.1,3.6-1.2c0.1,1.1-1.1,1.6-1.5,2.5c-1.1,2.4-4.4,3.1-5.6,3.3c-0.1,0.1-1.5,1-0.8,3.8c0.8-0.1,1.7-0.3,2.5-0.4
					c0.1-0.3,0.3-0.6,0.4-0.8c0.4,0,1.3-0.3,1.3-0.4h0.4c-0.4,1.6-1.6,2-3,2.5v2.1c0.2,0.1,0.4,0.2,0.4,0.4c0.7-0.1,1.4-0.3,2.1-0.4
					c1.9-0.4,3.2,3,3.3,3c0,1.1-0.5,2.1-1.2,2.9c-0.5,0.4-0.1-0.1-0.4,0.4h-0.4v-1.3c0.6-1.2,0.3-2.6-0.8-3.4c-0.6,0-1.2,0-1.9-0.1
					c-0.6,0-1.3,0-1.9,0.1c-1,0.8-2,1.7-3,2.5c-0.5,0.7,0,1-0.8,1.7c0,2.5,0.5,3.4,2.1,4.2c-0.6,2.2-1,0.9-2.5,1.7
					c-0.1,0.1-0.4,0.6-0.8,0.8c0.2,1.2,0.4,2.3,0.8,3.4c1.9,0,3.7-0.2,5.6-0.7c1.5-0.4,3.1-0.8,4.5-1.4c0.6-1.7,9.1-0.8,8.9-2.1
					c-0.4-3.9-0.8-7.9-1.3-11.8c2.8,0.2,3.5,1.5,5.5,2.1l3-0.4c0.4-1,0.8-2,1.3-3C163.8,35.7,163.7,35.3,162.7,35.5z M142.3,44
					c-0.3,0.6-0.8,1.5-1.6,1.2c-0.9-0.4-0.3-2.1,0-2.8c0.2-0.4,0.5-0.9,0.8-1.3c0.1-0.1,0.3-0.5,0.5-0.6c0.3-0.1,0.9,0.4,1.2,0.4
					C143,42,142.7,43,142.3,44L142.3,44z"/>
				<g id="Group_937" transform="translate(63.242 4.641)">
					<path id="Path_6305" class="st3" d="M122.3,22.8c0.2,0.4,0.3,0.8,0.4,1.3c0.1,0.2,1.5-0.2,1.7-0.3c0.6-0.3,0.7-0.7,0.7-1.3
						c0-0.3,0-0.6,0-0.9c0.1-0.4,0.3-0.8,0.5-1.2c0.1-0.1,0-0.4,0.1-0.5c0.1-0.1,0.5,0,0.6,0.1c0.4,0.2,0.8,0.4,1.1,0.6
						c0.2,0.1,1.1,1,1.3,1c0.5,0,1,0.1,1.6,0c0.4-1,0.5-2,0.2-3.1c-0.1-0.4-0.7-2.3-1-2.5c-0.8-0.3-1.7-0.6-2.5-0.8
						c-0.5,0-0.9-0.1-1.3-0.4c0.9-0.5,1.9-0.8,3-0.8c0.1-0.4,0-3.8,0-3.8c0.4-0.3,0.6-0.8,0.4-1.3c-0.3-0.1-0.6-0.3-0.8-0.4V7.6h1.3
						V6.3c-1.3-0.5-2.7-0.6-3.4-1.7c-2.8-0.1-3,0.2-3.4,2.5c-2.2,0.5-4.5,0.8-6.8,0.8c-0.5,1.1-0.6,2.2-0.4,3.4h0.4
						c0.3,2.4-0.7,4.8-2.5,6.3c0,1.2-0.2,2.8,0.4,3.4c0.5,0.5,0.5-0.3,1.3,0.8c3.1-0.2,2.8-2.9,2.8-5.2c0-0.8,0.4-6.9-0.7-7
						c1.4,0.1,2.8,0.3,4.2,0.4c0.1,0.7,0.9,1.9,0.4,3c-0.4,0.3-0.8,0.6-1.3,0.8c-0.4,0.4-0.4,0.9-0.8,1.3v0.4h1.7
						C121.3,18.3,120.4,21.2,122.3,22.8z"/>
					<path id="Path_6306" class="st3" d="M136.6,12.2c-0.5-0.8-0.8-1.7-0.9-2.6c0-0.6,0.1-1.3,0.1-1.9c-0.3-0.2-0.6-0.5-0.8-0.8
						h-1.7c-0.6,2.9-1,5.9-1.3,8.9c1.2,0.2,2.4-0.1,3.4-0.8c1-0.3,0.9-0.4,1.7-0.8C137.6,13.7,136.8,12.5,136.6,12.2z"/>
					<path id="Path_6307" class="st3" d="M107.1,17c0.2,0.7,0.2,1.5,0.1,2.2c0,0.4-0.1,0.7,0,1.1c0,0.2,0.3,0.7,0.3,0.8
						c0,0.2,0,0.5,0.1,0.7c0.9-0.3,1.8-0.9,2.4-1.7c0.3-0.4,0.5-0.9,0.7-1.3c0.2-0.7,0-0.6-0.1-1.2c-0.2-0.6,0-0.8-0.4-1.2
						c-0.3-0.3-0.6-0.6-0.9-1c-0.2-0.2-1-1.5-1.3-1.5h-1.3c-0.5,0.5,0,0.2-0.9,0.4c0.2,0.6,0.4,1.3,0.6,1.9
						C106.6,16.6,106.9,16.7,107.1,17z"/>
					<path id="Path_6308" class="st3" d="M115.7,24.3c-0.2,0.2-0.4,0.4-0.4,0.7c-0.3,1-0.8,1.9-1.5,2.7c-0.4,0.5-0.9,0.9-1.4,1.2
						c-0.4,0.3-0.7,0.7-1.1,1c-1.2-0.1-2.4-2.4-2.9-3.4c-0.3-0.6-0.4-1.8-0.8-2.1h-0.8c0.2,1.3,0.2,2.6,0.4,3.8c0,0.9,0,1.8-0.2,2.7
						c0.2,0.9,0.1,1.9-0.2,2.7c-0.5,0.7-0.9,1.5-1.1,2.4c0,0.6,0,1.3,0.1,1.9c0.2,1,0.6,4.1,2.2,3.6c1.4-0.4,0.8-1.5,1.1-2.5
						c0.1-0.4,0.5-0.7,0.6-1.2c0.1-0.5,0.2-1,0.5-1.4c0.6-0.9,1-1.8,1.5-2.7c0.2-0.4,0.3-0.9,0.4-1.3c0.2-0.4,0.5-0.8,0.9-1
						c0.7-0.7,1.3-1.4,1.8-2.2c0.2-0.4,0.4-0.7,0.7-1.1c0.3-0.3,0.7-0.4,0.9-0.7c0.2-0.3,0.3-0.6,0.4-1c0.3-0.8,0.4-1.6,0.5-2.4
						C116.5,24,116.1,24,115.7,24.3z"/>
					<path id="Path_6309" class="st3" d="M122.8,29.6c1.3,0.1,1.9,1.6,3.3,1.3c0.6-0.2,1.2-0.5,1.8-0.9c1-0.8,2.1-1.5,3.3-2.1
						c0.3-0.8-0.1-0.4,0.4-0.8c0-0.9-0.1-1.7-0.4-2.5c-4.2,0.1-6.8,2.3-9.7,3.8C121.9,28.7,122.3,29.1,122.8,29.6z"/>
					<path id="Path_6310" class="st3" d="M133.7,32.5c-2.5,0-5.6,0.1-6.8,1.3c-1.1,0-2.1-0.6-2.5-1.7l-2.1,0.4
						c0.2,1.1,0.3,2.3,0.4,3.4c0.5,0.4,0.1-0.1,0.4,0.4c0.3,0.4,2.5-1,2.8-1.2c0.6-0.5,1.4-0.7,2.2-0.5c0-0.8,3-0.2,3,0
						c-0.1,1.1-0.2,2.1-0.2,3.2c0,0.5,0,1.1,0,1.6c-0.2,0.6-1.2,2.7-1.9,2.9c-1.3,0.3-2.7,0.4-4.1,0.3c0.2,2.1,1.1,3,1.3,5.1
						c0.3,0,0.8,0.3,0.8,0.4c1-0.3,2-0.7,3-1.3c0.6-0.1,1.1-0.4,1.4-0.8c0.5-0.5,0.8-1.1,1.1-1.7c0.6-1,1.1-2.1,1.5-3.2
						c0.3-0.9,0.4-1.8,0.6-2.7c0.1-1.6,0.8-3.4,0-4.2C134.3,33.2,134.1,33.3,133.7,32.5z"/>
				</g>
				<path id="Path_6311" class="st3" d="M243,26.2c-0.5-0.4-0.9-0.8-1.3-1.3c0,0-3.3-0.4-3.6-0.4c-1.2,0.1-3.4,1.1-4.3-0.2
					c-0.4-0.6-0.1-1.4-0.6-2c-0.4-0.5-1.2-0.6-1.5-1.2c-0.1-0.2-0.3-1.7-0.2-1.7c2.2-0.4,6.1-1.4,7.2-3c0.2-0.1,0.4-0.2,0.4-0.4
					c-0.7-0.4-1.3-1-1.7-1.7c-4.9,0.2-7.3,2.6-12.3,2.5v1.3l2.1,0.4c1.3,2.1,2.5,4.2,3.8,6.3c-0.3,1-0.3,1.4-1.2,1.8
					c-0.7,0.2-1.3,0.4-1.9,0.7c-0.3-0.4-0.2-0.8-0.3-1.3c-0.1-0.5-0.2-1.1-0.5-1.5c-0.1-0.1-0.2-0.1-0.2,0c-0.2,0.6-0.8,0.9-1,1.6
					c-0.2,0.7-0.5,1.4-0.8,2c-0.2,0.5-0.3,1-0.5,1.5l-3,2.5c-0.4,0.3-1.6,0.1-1.7-0.4c-1.2,0.1,0.7-2.2,0.9-2.5
					c0.8-0.9,1.1-2.1,0.8-3.2c-0.1-0.5-0.6-2.3-1.3-2.3h-1.3c-0.6-1.8,0.6-1.7,1.2-3.1c0.1-0.2,0.3-3.2,0.4-3.2
					c0.8,0.1,0.8-2,0.9-2.6c-1.6-0.1-3.1-0.4-4.7-0.8c-1.8,0.1-1.4,0.3-2.5,0.8c0.7,1.2,1.7,1.4,3.4,1.7c0,2-0.6,3.9-1.7,5.5h-1.3
					c-0.8,0-1.2-2.3-1.6-2.8c-0.6-0.7-1.2-1.3-1.9-1.8c-0.8,0-1.6,0.1-2.4,0.4c0.1,1.1,0.5,2.1,1.3,3c0.3,0.1,0.6,0.3,0.9,0.4
					c0.2,1.3,0.3,2.5,0.2,3.8c0,0.7-0.2,2.8,0.6,3c0.8,0.2-0.2,5.8-0.4,5.8c-0.9,0-0.6,2.4-0.8,3c-0.4,0.6-0.7,1.2-0.9,1.9
					c-0.2,1.2,1.4,3.8,2.1,4.7c0.3,0.5,0.5,1.5,1.3,1.4c1.6-0.1,2.4-2.6,3.5-3.4c0.5-0.3,1.2-0.2,1.7-0.5c0.6-0.4,2.3-2.3,2.2-2.9
					c1.6-0.1,0.9-3.6,2.7-2.6c0.6,0.9,1.1,1.9,1.5,3c1.9-0.1,1.8-0.6,3-1.3c0.3-0.2-0.2-4.7-0.8-4.7c-0.1-0.9,0.2-1.9,0.8-2.7
					c0.5-0.5,1.6-0.3,1.8-1.1c0.6,0.1,1.4,0.2,1.7,0.6c0.6,0.8,0.1,1.8,0,2.3c0,2,0.2,4.1,0.5,6.1c0,1.6-0.1,3.2-0.1,4.8
					c0.1,1.8-0.1,3.7-0.5,5.5c-0.3,1.9-0.2,3.8,0.5,5.5c0.3,0.8,1.9-0.5,2.1-0.8c0.3-0.7,0.5-1.4,0.6-2.2c0-1.2,0-2.5-0.2-3.7
					c-0.2-1.2-0.2-2.4-0.1-3.7c0.1-0.9,0.6-1.8,0.7-2.7c0.1-1.6-0.4-4.1,0.4-5.1v-0.4c1,0.5,1.8,1.2,2.5,2.1
					c1.3,0.1,2.6-0.2,3.8-0.8C242.1,34.4,244.3,28.7,243,26.2z M214.7,27.5c0.2-0.5,2-1.5,2.5-1.2c0.1,0,0.1,0.1,0.2,0.1
					c0.2,0.4,0.4,0.8,0.5,1.2c0.4,1.5-1.4,3.5-2.7,4.1C214.3,30.4,214.2,28.9,214.7,27.5z M217.1,37.9c-0.7,0.5-1.6,0.6-2.4,0.2
					c-0.2-1.1,0.1-2.1,0.8-3c0.9,0,1.7,0.1,2.5,0.4C218,36.4,217.7,37.2,217.1,37.9z M237.5,33.4c-0.2,0.3-2-0.2-2.3-0.4
					c-1-0.7-0.7-1.8-0.6-2.9c0.6-0.2,0.5-3.5,1.2-3.4c1.5,0.2,3.7,0.9,3.8,2.7C239.7,30.8,238.2,32.2,237.5,33.4z"/>
				<g id="Group_938" transform="translate(105.931 3.162)">
					<path id="Path_6312" class="st3" d="M155.5,15.3c0.1,0,0.3,0,0.4,0.1c0.3,0.2,0.6,0.3,0.9,0.4c0,0.2,0.1,0.5,0.4,0.5
						c0.9,0.2,1.8,0.2,2.7,0c0.4-0.1,0.9-0.2,1.3-0.4c0.5-0.2,1-0.3,1.5-0.4c0.2-0.1,0.5-0.2,0.6-0.3c0.2-0.2,1.7-0.6,2.1-0.8
						c0.3-0.2,0.6-1.1,0.8-1.1c1.2-0.2,2.5-0.3,3.8-0.4c0.2,1,5.4,0.3,6.4,0c0-0.6-0.2-1.2-0.4-1.7h-4.2c0.1,0,0.4-1.8,0.4-2.1v0
						c0.1-0.1,1,0.1,1.2,0.1c0.5-0.1,0.7-0.4,1.1-0.5c0.8-0.2,1.4,0.5,2.2,0.3c0.2,0,1.8-0.8,1.8-0.8c0-0.2-0.2-1.1-0.4-1.2
						c-1.4-0.4-2.8-0.5-4.2-0.4c-0.1,0-0.7-1.8-0.8-2.1c-0.2-0.3-0.4-0.5-0.6-0.7c-0.3-0.2-0.8-0.3-1-0.6c-0.5-0.1-0.9-0.1-1.4-0.1
						c-1.8,0.1-1.4,0.3-2.5,0.8c-0.1,0.8-0.1,1.6,0,2.5c0,0.6,0.2,1.6-0.1,2.1c-0.2,0.3-0.6,0.4-0.7,0.8c-0.3,0.8-1,1.4-1.3,2.1
						c-0.2,0.4-0.2,1.3-0.8,1.4l-8,0.8c0.2-1.4,0.4-1.2,0.8-2.1c0.1-0.2,0.7-0.3,0.9-0.3c0.3-0.1,0.7-0.2,1-0.3
						c0.7-0.2,1.5-0.4,2.2-0.5s1.5-0.3,2.3-0.4c0.4-0.1,0.6,0,0.7-0.4c0.1-0.3,0.1-0.6-0.1-0.9c-0.2-0.3-0.5-0.2-0.8-0.4
						c-0.2-0.1-0.3-0.4-0.4-0.5c-0.4-0.2-1.1,0-1.6,0c-0.5,0-1.1,0-1.6,0c-0.6,0-0.4-0.1-0.7-0.6c-0.3-0.5-1.1-0.7-1.5-1.1
						c-0.6-0.5-1.5-0.5-2,0.1c0,0,0,0-0.1,0.1c-0.5,0.6-0.1,1.3-0.2,2c-0.2,0.8-0.6,1.7-1,2.4c-0.2,0.6-0.4,1.2-0.8,1.7
						c-0.4,0.6-1.1,0.8-1.5,1.5c-0.1,0.2-0.9,2.3-0.8,2.3c1-0.2,1.9-0.5,2.9-0.8C154.7,15.3,155.1,15.3,155.5,15.3z"/>
					<path id="Path_6313" class="st3" d="M180.6,35.3c0-1.4,0-1.5-0.8-2.1c-0.1-0.2-0.2-0.4-0.4-0.4c-1.3,1.9-2.1,4.1-2.5,6.3
						c-1,0.3-2.1,0.4-3.2,0.5c-1.2,0-2.5-0.4-3.6-0.9c-0.5-0.2-0.2-2.5-0.3-3c-0.4-1.1-0.3-2.3,0.1-3.4c0.1-0.3,0.4-0.5,0.6-0.7
						c1.2-0.6,2.2-1.3,3.2-2.1c0.5-0.5,1-1.1,1.4-1.7c0.4-0.6,0.5-1.3,1-2c0.6-0.8,1.4-1.5,1.3-2.5c-0.1-0.5-0.2-1-0.4-1.5
						c-0.3-0.6-0.6-1.2-1-1.7c-0.7,0-1.3,0-2,0.1c-0.2,0-0.5,0.1-0.7,0.2c0,0-0.4,0.6-0.3,0.6c-0.8,0.1-1.6,0.4-2.4,0.7
						c-0.4,0.2-0.9,0.3-1.3,0.5c-0.6,0.4-0.5,0.5-1.3,0.4c-0.3-0.1-1.4-0.4-1.4-0.8v-0.4c-1.1-0.4-2.2-0.5-3.4-0.4
						c0.4-1.5,0.8-0.9,0.8-3c-1.1,0.1-2.3,0.3-3.4,0.4v0.4c-0.6,0.2-1.2,0.1-1.8-0.1c0,0-1.1-0.7-0.8-0.7c-1.1,0-2.2,0.2-3.3,0.4
						c-0.4,1.3-1,2.6-1.8,3.7c-0.4,0.5-0.8,1-1.1,1.5c-0.2,0.2-0.4,0.5-0.5,0.8c-0.1,0.3,0,0.6-0.3,0.9c-0.2,0.2-0.5,0.3-0.6,0.6
						c-0.1,0.3-0.1,0.6-0.3,0.8c-0.3,0.2-0.4,0.2-0.6,0.4c-0.1,0.2-0.2,0.3-0.3,0.5c-0.2,0.4-0.4,0.9-0.6,1.4
						c-0.2,0.6-0.3,1.2-0.4,1.8c0,0.3-0.2,0.6,0,0.9c0.1,0.2,0.4,0.4,0.6,0.6c0.3,0.4,0.2,0.9,0.5,1.3c0.3,0.4,0.6,0.6,1.1,0.8
						c0.4,0.1,0.8,0.2,1.2,0.3c1,0.2,2.1,0.3,3.1,0.3c0,0.7-0.2,1.5-0.7,2.1c-1,1.3-2.9,1.7-4.3,2.5c-0.5,0.3-1.4,0.7-1.4,1.3
						c0,0.3,2.5-0.2,2.6-0.2c0.8-0.3,2.5-0.7,3.1,0.4c0.4,0.7-0.1,1.5,0.1,2.2c0.3,1.1,1.3,3.2,2.8,2.5c1.5-0.7,1-3,1.2-4.3
						c0.2-1.9,0.8-3.7,1.8-5.3c0.9-1.2,6.7-3.5,5.2-5.7c-0.5-0.7-1.7-0.2-2.3-0.8c-0.7-0.7-0.4-1.6,0.2-2.3c0.6-0.6,1.3-1,2.1-1.1
						c0.4-0.2,1.4-1,1.7-1c1.4-0.1,2.9,0.1,4.2,0.4c0.1,0.6,0.1,1.3,0,1.9c-0.3,0.5-0.6,0.9-1,1.3c-0.5,0.4-1.4,0.2-2,0.5
						c-0.1,0.1-0.4,0.6-0.8,0.8c-0.4,0.9-0.7,1.9-0.9,2.8c0,0.8,0.1,1.7,0.3,2.5c-0.1,0.9-0.1,1.8,0.1,2.6c0.5,3,3.1,5.2,6.2,5.2
						c1.7-0.1,3.3-0.4,4.9-0.9c1.1-0.4,2.1-1,3-1.7C181.3,39.1,181.8,36.5,180.6,35.3z M152.7,25.1h0.4c0.4,0.2-0.8,0.8-0.8,0.8
						L152.7,25.1z M155.6,31.4c-0.1,0.2-0.3,0.3-0.6,0.4c-0.5,0.1-1.1,0-1.6-0.2c-0.5-0.3-0.6-0.8-0.7-1.4c0.2,0,0.5-0.1,0.5-0.4
						c0,0,0,0,0,0c0.8,0.1,1.6,0.2,2.4,0.4C155.7,30.6,155.7,31,155.6,31.4L155.6,31.4z M158.2,34.4h-1.3c0.3-1.2,0.1-1,1.3-1.3
						V34.4z"/>
				</g>
				<path id="Path_6314" class="st3" d="M322.8,41.5c-0.1-0.6-1-3.3-1.7-3.4c-1-0.4-2-0.8-3-1.3c-1.6-0.3-3.3-0.5-4.9-0.5
					c-1.5,0.1-3-0.2-4.3-0.8c0.7-1,0.5-2.6,1.1-3.7c0.3-0.7,0.3-0.4,0.9-0.6c0.4-0.1,0.8-0.3,1-0.7c0.7,0.1,1.1-0.7,1.7-1
					c0.7-0.5,1.5-0.8,2.3-1c0.7-0.1,1.3-0.3,1.8-0.7c0.4-0.4,0.9-0.7,1.4-0.9c0.3-0.1,0.6-0.3,0.8-0.5c0.8-0.4,1.5-1.1,1.7-1.9
					c0.2-0.7,0.3-1.3,0.4-2c-0.5,0-7.2,0.2-7.2,0c-0.7-0.1-1.4-0.1-2.1,0c0,0,0-0.3-0.8-0.4c-0.7-0.1-0.2-3.5-0.2-3.9
					c0-1,0.1-1.9,0.1-2.9c0-0.7-0.2-1.5-0.6-2.1c-0.1-0.2,0-0.4-0.1-0.6c-0.3-0.5-0.6-0.9-0.9-1.4c0,0-0.1-0.1-0.1-0.1
					c-0.5-0.3-1.1-0.5-1.8-0.6c-1.3-0.6-2.9-0.4-4,0.6c-0.7,0.9-0.9,2.1-0.6,3.1c0.2,0.6,0.4,1.3,0.6,2s0.7,1.1,0.9,1.7
					c0.1,0.5,0.2,1,0.2,1.6c0.1,0.8-0.1,2.4,0.5,3c0,3.8-0.6,2.1-3,3c-0.9,0.2-1.8,0.5-2.6,0.9c-0.3,0.3-0.4,2.1-0.4,2.1
					c0.3,0,1.1,0.8,1.3,0.8c0.5,0.5,1.1,0.6,1.6,1.1c0,0,0.9,1.4,0.9,1.1c-0.1,0.9-0.3,1.7-0.7,2.4c-0.3,0.5-0.6,0.5-1,0.9
					c-0.2,0.2,0,0.6-0.1,0.9c-0.2,0.3-0.6,0.3-0.8,0.7c-0.5,0.8-0.2,1.1-0.9,1.7c-0.8,0.6-1.6,1.2-2.4,1.7v2.1
					c1.2-0.2,2.3-0.5,3.4-1.1c1-0.4,2.2-0.3,3-1.1c0.4-0.5,1-1,1.6-1.2c0.6-0.1,1.2-0.1,1.7,0c0.7,0.1,0.9,0.6,1.5,0.8
					c0.6,0.3,1.4,0.1,2,0.4c0.6,0.3,1.1,0.7,1.6,1.2c0.3,0.2,0.6,0.1,0.9,0.5c0.3,0.3,0.4,0.8,0.7,1c0.3,0.3,0.8,0.3,1.2,0.5
					c0.5,0.3,0.9,0.6,1.2,1c1.4,0.3,2.8,0.4,4.1,0.4c0.1-0.7,1-0.7,1.4-1.1C322.8,42.7,323,42.1,322.8,41.5z"/>
				<g id="Group_939" transform="translate(145.514)">
					<path id="Path_6315" class="st3" d="M229.3,17.3h-2.5v0.4h-3c0-0.1-0.8,0-0.8,0l-1.7-0.4c-0.2-0.1,0.5-1.7,0.8-1.7
						c0.1-1.4,0.3-2.9,0.7-4.3c0.1-0.3,0.6-2.9,1-2.9c0.2-0.6,0.4-1.2,0.8-1.7c0.6-1.5-0.2-2.3,0.8-3.4c0-0.6-0.2-1.2-0.4-1.7
						c-1.9-0.6-3.9-0.7-5.9-0.4v0.4l-5.9,1.7c-0.3-1-0.4-2-0.4-3c-0.2-0.1-0.4-0.2-0.4-0.4c-1.4-0.1-2.8,0.1-4.2,0.4
						c0.3,1.7,0.6,3.4,0.8,5.1c-0.2,0-2.1,0.3-2.1,0.4c0.1-0.6-0.6-0.4-0.9-0.6c-0.2-0.3-0.3-0.7-0.4-1c-1.4-0.3-2.8-0.3-4.2,0
						c0,1.4,0.1,1.9,0.8,2.5c0,1.3,0.2,3.1-0.4,3.8c-0.8,0.9-0.9-1.4-1.5-1.8c-0.3-0.2-0.6-0.5-0.8-0.9c-0.1-0.2-0.1-0.4-0.3-0.6
						s-0.5-0.2-0.7-0.4c-0.2-0.3-0.4-0.6-0.6-0.9c-0.1,0-0.8-0.3-0.8-0.4c-1.5-0.1-3,0.3-4.2,1.3c-0.1,0-0.7,1.3-0.9,1.3
						c1.1,1.1,1.9,2.4,2.5,3.8c0.1,0.4,0.2,0.7,0.3,1c0.2,0.3,0.6,0.4,0.8,0.8c0.1,0.5,0.1,1,0.1,1.4c0,0.5,0,0.9,0,1.4
						c0,0.5,0.5,1.3,0.6,1.7c-0.2,1.1,0.2,2.1,0.8,3h3c0.1-0.2,0.2-0.4,0.4-0.4c0.9-1.5-0.9-3.4,0.8-5.1c0.4-0.5-0.1-0.1,0.4-0.4
						c0.8,2.2,0.5,4.1,2.1,5.5c-0.1,0.4-0.3,0.8-0.4,1.3c-1.7,0.3-3.4,0.8-5.1,1.3h-2.5c-0.5,0.1-1.2,0.8-2.1,0.4
						c-0.3-0.4-0.6-0.8-0.8-1.3c-0.3,0-0.9-0.3-0.9-0.4c-1.4,0.1-2.8,0.3-4.2,0.4c-0.1,1,0.1,2,0.4,3c0.1,0.1,0.1,0.3,0.1,0.4
						c0.1,0.7,0.2,1.4,0.2,2.1c0,0.4,0.1,0.8,0.1,1.2c0,0.4,0.1,0.8,0.3,1.1c0.1,0.3,0,0.6,0.1,0.9s0.3,0.5,0.4,0.7
						c0.1,0.3,0.3,0.6,0.6,0.8c0.5,0.5,1.2,0.4,1.9,0.4c0.2,0,0.4,0,0.5-0.1s0.1-0.4,0.1-0.5c0-0.3,0.1-0.5,0.2-0.7
						c0.2-0.6,0.3-1.2,0.5-1.7l0.5-1.6c0.1-0.5,0.3-1.1,0.5-1.6l18.6-3c0.5-0.4,1.1-0.7,1.7-0.8c0-0.1,2.4-0.4,3.4-1.3
						c0.6,0,1.2,0.1,1.7,0.4c0.1,0,0.4,0.8,0.4,1.3c1.7,0.1,3.5-0.2,5.1-0.8c0.8-0.3,1.7-0.4,2.5-0.4c0-0.1,0.6-0.4,0.8-0.4
						c0.5-0.5,1-1,1.7-1.3v-1.7C229.7,18.2,229.5,17.8,229.3,17.3z M208.6,20.7h-2.1c-0.2-3.7-0.2-7.3,0-11h1.3
						c0.4,0.5,0,0.1,0.4,0.4c-0.1,0.8-0.3,1.7-0.4,2.5h-0.4c-0.7,2.3,0,4.7,1.7,6.3C209,19.6,208.8,20.2,208.6,20.7L208.6,20.7z
						 M212,13.9l-1.3,0.4c0,0-1.2-1.5-0.4-1.7c0.1-0.2,0.7-2.2,0.8-2.1c1.3,0.9,0.2,0.8,0.8,1.7h0.4C212.3,12.8,212.2,13.4,212,13.9
						L212,13.9z M214.1,19.4c0.1-1.1,0.3-2.2,0.4-3.4c0.8-0.3,0.4,0.1,0.8-0.4c0.9,0,1.7,0.1,2.5,0.4
						C217.8,18.6,216.4,19.3,214.1,19.4L214.1,19.4z M219.1,11.8c-0.1,0-0.3,0.1-0.4,0.1c0.1,0.7-2.2,0.8-2.1,0.8
						c-0.1-0.4-0.3-0.8-0.4-1.2c0.3-0.1,0.9-1.3,0.8-1.4c0.7,0.1,1.4,0.3,2.1,0.4C219.2,11,219.2,11.4,219.1,11.8L219.1,11.8z
						 M219.6,6.8c-0.8,0.2-1.7,0.2-2.5,0c-0.2-0.4-0.3-0.8-0.4-1.3c0.3-0.1,0.6-0.3,0.9-0.4c0.2-0.2,0.4-0.4,0.7-0.4
						c0.1,0,1.4,1,1.4,0.8C219.6,5.6,219.6,6.8,219.6,6.8L219.6,6.8z"/>
					<path id="Path_6316" class="st3" d="M221.7,35.1c-0.1-0.3-0.3-0.6-0.4-0.8c-1.5-0.9-3.7,0.7-5.9,0c0-0.1-0.8-0.4-1.3-0.4
						c-0.1-0.2-0.2-0.4-0.4-0.4c0.4-3,3.5-2.4,4.2-5.1c0.7-1.1,1-2.5,0.8-3.8c-2.4,0.1-4.8,0.3-7.2,0.4c-0.3,0.4-0.8,0.7-1.3,0.8
						c0,0.1-0.6,0.4-0.8,0.4c-0.7,0.3-1.4,0.4-2.1,0.4c-0.5,0.4-1.1,0.7-1.7,0.8c-0.9,0.6-1.9,1-3,1.3c-1.1,0.6-2.3,1.1-3.4,1.7
						c0.3,1,0.4,0.9,0.8,1.7h3.4l6.3-3.8c0.7,0.1,1.4,0.3,2.1,0.4V30c-1.5,0.8-3.1,1.7-4.7,2.5c0,1.5-0.1,1.9,0.8,2.5
						c-0.1,0.4-0.3,1.2-0.8,1.3c-0.3,0.1-0.7,0.1-1,0.1c-0.3,0.1-0.6,0.1-0.9,0.2c-0.4,0.1-0.7,0.3-1,0.4c-0.3,0.1-0.6,0.2-0.8,0.3
						c-0.4,0.2-0.7,0.1-1.1,0.3c-0.4,0.2-0.6,0.5-1.1,0.5c-0.3,0-0.7,0.1-1,0.1l-2.1,0.3l-4.1,0.7c0,0.7,0.1,1.4,0.4,2.1
						c3.1,1.3,11.9,1.5,13.9-0.8c0.9,0,1.7,0.1,2.5,0.4c-0.1,0.8-0.3,1.6-0.5,2.4c-0.1,0.5-0.2,1.1-0.3,1.6c0,0.7,0,1.4-0.1,2.1
						c-0.1,0.4-0.5,0.6-0.5,1c0,0.2,0,0.9-0.3,0.9c-1.9,0.4-3,1.9-5.1,2.1c0-0.1-0.8-0.3-0.8-0.4c-0.7-0.1-1.4-0.3-2.1-0.4
						c0.2,1.8,1,1.8,1.7,3c1.1,0.2,2.2,0.5,3.4,0.7c0.7,0.1,1.3,0.1,2,0.2c0.3,0.1,0.7,0,1-0.1c0.3-0.1,0.4-0.4,0.7-0.5
						c0.2,0,0.5-0.1,0.7-0.2c0.4-0.2,0.6-0.6,1-0.9c0.3-0.3,0.8-0.6,1-1c0.2-0.5,0.3-0.9,0.5-1.4c0.2-0.5,0.5-1,0.7-1.5
						c0.1-0.3,0.1-0.6,0.1-0.9c0-0.2,0-0.4,0.1-0.6c0.1-0.5,0.2-1,0.3-1.5c0-0.3,0-0.5,0.1-0.8c0-0.2,0.2-0.3,0.3-0.5
						c0.2-1.2,0.3-2.5,0.2-3.7c0.2-1,0.4-2,0.8-3c0.8-0.1,1.7-0.3,2.5-0.4c0.7-0.3,1.4-0.4,2.1-0.4c0.1-0.3,0.3-0.6,0.4-0.8
						c0.3,0,0.8-0.3,0.8-0.4C221.8,35.5,221.8,35.1,221.7,35.1z"/>
				</g>
			</g>
		</g>
		<g id="Group_954" transform="translate(285.545 1903.852)">
			<g id="Group_950" transform="translate(132.541 330.682)">
				<g id="Group_949">
					<g id="Group_948">
						<g id="Group_947">
							<g id="Group_946">
								<path id="Path_6330" class="st1" d="M48.6,40.7L48.6,40.7l0-9.4h2.5V45H48l-3.4-9.6h0V45h-2.5V31.3h3.2L48.6,40.7z"/>
								<path id="Path_6331" class="st1" d="M60.1,31.3L63.7,45h-2.9l-0.6-2.9h-3.6L55.9,45h-2.9l3.6-13.7H60.1z M59.7,39.8
									l-1.3-6.1h0L57,39.8H59.7z"/>
								<path id="Path_6332" class="st1" d="M72.6,33.6h-3V45h-2.8V33.6h-3v-2.3h8.7V33.6z"/>
								<path id="Path_6333" class="st1" d="M74.8,31.3h2.8V45h-2.8V31.3z"/>
								<path id="Path_6334" class="st1" d="M80.4,35.3c0.1-0.8,0.3-1.5,0.6-2.2c0.3-0.6,0.8-1.1,1.4-1.5c1.6-0.7,3.4-0.7,4.9,0
									c0.6,0.3,1.1,0.8,1.4,1.5c0.3,0.7,0.6,1.5,0.6,2.2c0.2,1.9,0.2,3.8,0,5.7c-0.1,0.8-0.3,1.5-0.6,2.2
									c-0.3,0.6-0.8,1.1-1.4,1.4c-1.6,0.7-3.4,0.7-4.9,0c-0.6-0.3-1.1-0.8-1.4-1.4c-0.3-0.7-0.6-1.5-0.6-2.2
									C80.3,39.1,80.3,37.2,80.4,35.3z M83.1,40.5c0,0.5,0.1,1.1,0.3,1.6c0.1,0.3,0.3,0.7,0.6,0.9c0.6,0.4,1.4,0.4,2,0
									c0.3-0.2,0.5-0.5,0.6-0.9c0.2-0.5,0.2-1,0.3-1.6c0-0.6,0.1-1.4,0.1-2.3c0-0.9,0-1.7-0.1-2.3c0-0.5-0.1-1.1-0.3-1.6
									c-0.1-0.3-0.3-0.7-0.6-0.9c-0.6-0.4-1.4-0.4-2,0c-0.3,0.2-0.5,0.5-0.6,0.9c-0.2,0.5-0.2,1-0.3,1.6c0,0.6-0.1,1.4-0.1,2.3
									C83.1,39.1,83.1,39.8,83.1,40.5z"/>
								<path id="Path_6335" class="st1" d="M98.7,40.7L98.7,40.7l0-9.4h2.5V45h-3.1l-3.4-9.6h0V45h-2.5V31.3h3.2L98.7,40.7z"/>
								<path id="Path_6336" class="st1" d="M110.2,31.3l3.6,13.7h-2.9l-0.6-2.9h-3.6L106,45h-2.9l3.6-13.7H110.2z M109.8,39.8
									l-1.3-6.1h0l-1.3,6.1H109.8z"/>
								<path id="Path_6337" class="st1" d="M115.7,31.3h2.8v11.4h4.9V45h-7.6V31.3z"/>
								<path id="Path_6338" class="st1" d="M138.4,33.6h-3V45h-2.7V33.6h-3v-2.3h8.7L138.4,33.6z"/>
								<path id="Path_6339" class="st1" d="M145.5,31.3l3.6,13.7h-2.9l-0.6-2.9H142l-0.6,2.9h-2.9l3.6-13.7H145.5z M145.2,39.8
									l-1.3-6.1h0l-1.3,6.1H145.2z"/>
								<path id="Path_6340" class="st1" d="M151.2,31.3h2.8V45h-2.8V31.3z"/>
								<path id="Path_6341" class="st1" d="M158.8,31.3l1.5,10.1h0l1.6-10.1h2.6l1.6,10.1h0l1.5-10.1h2.6L167.9,45h-3.1l-1.5-9.9h0
									l-1.5,9.9h-3.1l-2.5-13.7H158.8z"/>
								<path id="Path_6342" class="st1" d="M178.2,31.3l3.6,13.7h-2.9l-0.6-2.9h-3.6L174,45h-2.9l3.6-13.7H178.2z M177.8,39.8
									l-1.3-6.1h0l-1.3,6.1H177.8z"/>
								<path id="Path_6343" class="st1" d="M190.2,40.7L190.2,40.7l0-9.4h2.5V45h-3.1l-3.4-9.6h0V45h-2.5V31.3h3.2L190.2,40.7z"/>
								<path id="Path_6344" class="st1" d="M207.7,40.7L207.7,40.7l0-9.4h2.5V45h-3.1l-3.4-9.6h0V45h-2.5V31.3h3.2L207.7,40.7z"/>
								<path id="Path_6345" class="st1" d="M213,35.3c0.1-0.8,0.3-1.5,0.6-2.2c0.3-0.6,0.8-1.1,1.4-1.5c1.6-0.7,3.4-0.7,4.9,0
									c0.6,0.3,1.1,0.8,1.4,1.5c0.3,0.7,0.6,1.5,0.6,2.2c0.2,1.9,0.2,3.8,0,5.7c-0.1,0.8-0.3,1.5-0.6,2.2
									c-0.3,0.6-0.8,1.1-1.4,1.4c-1.6,0.7-3.4,0.7-4.9,0c-0.6-0.3-1.1-0.8-1.4-1.4c-0.3-0.7-0.6-1.5-0.6-2.2
									C212.8,39.1,212.8,37.2,213,35.3z M215.6,40.5c0,0.5,0.1,1.1,0.3,1.6c0.1,0.3,0.3,0.7,0.6,0.9c0.6,0.4,1.4,0.4,2,0
									c0.3-0.2,0.5-0.5,0.6-0.9c0.2-0.5,0.2-1,0.3-1.6c0-0.6,0.1-1.4,0.1-2.3s0-1.7-0.1-2.3c0-0.5-0.1-1.1-0.3-1.6
									c-0.1-0.3-0.3-0.7-0.6-0.9c-0.6-0.4-1.4-0.4-2,0c-0.3,0.2-0.5,0.5-0.6,0.9c-0.2,0.5-0.2,1-0.3,1.6c0,0.6-0.1,1.4-0.1,2.3
									S215.6,39.8,215.6,40.5L215.6,40.5z"/>
								<path id="Path_6346" class="st1" d="M229.8,31.3c1-0.1,1.9,0.3,2.7,0.9c0.7,0.7,1,1.7,1,2.7c0,0.8-0.2,1.6-0.6,2.2
									c-0.4,0.6-1,1-1.7,1.1v0c0.6,0,1.1,0.3,1.5,0.7c0.4,0.5,0.6,1.1,0.6,1.7c0,0.3,0,0.5,0.1,0.8c0,0.3,0,0.6,0,1
									c0,0.7,0.1,1.3,0.1,1.7c0,0.3,0.2,0.6,0.5,0.8V45h-3c-0.1-0.2-0.2-0.4-0.3-0.7c0-0.3-0.1-0.5-0.1-0.8l-0.1-2.6
									c0-0.5-0.1-0.9-0.4-1.3c-0.3-0.3-0.8-0.5-1.2-0.5h-1.5V45h-2.8V31.3H229.8z M228.6,37.3c0.6,0,1.1-0.1,1.5-0.5
									c0.4-0.4,0.6-1,0.5-1.6c0.1-0.9-0.5-1.8-1.4-1.9c-0.2,0-0.3,0-0.5,0h-1.3v3.9H228.6z"/>
								<path id="Path_6347" class="st1" d="M240.4,31.3l2,9.6h0l2-9.6h4.1V45h-2.5V34.1h0L243.5,45h-2.1l-2.4-10.9h0V45h-2.5V31.3
									H240.4z"/>
								<path id="Path_6348" class="st1" d="M257.5,31.3l3.6,13.7h-2.9l-0.6-2.9h-3.6l-0.6,2.9h-2.9l3.6-13.7H257.5z M257.1,39.8
									l-1.3-6.1h0l-1.3,6.1H257.1z"/>
								<path id="Path_6349" class="st1" d="M263,31.3h2.8v11.4h4.9V45H263V31.3z"/>
								<path id="Path_6350" class="st1" d="M280.9,40.8c0,0.3,0,0.6,0.1,0.9c0,0.3,0.1,0.5,0.2,0.7c0.1,0.2,0.3,0.4,0.5,0.5
									c0.5,0.2,1.1,0.2,1.6,0c0.2-0.1,0.4-0.3,0.5-0.5c0.1-0.2,0.2-0.5,0.2-0.7c0-0.3,0.1-0.6,0.1-0.9v-9.5h2.8v9.5
									c0,0.7-0.1,1.5-0.4,2.2c-0.2,0.5-0.5,1-1,1.3c-0.4,0.3-0.9,0.6-1.4,0.7c-0.5,0.1-1.1,0.2-1.6,0.2c-0.5,0-1.1,0-1.6-0.2
									c-0.5-0.1-1-0.3-1.4-0.6c-0.4-0.3-0.8-0.8-1-1.3c-0.3-0.7-0.4-1.5-0.4-2.2v-9.5h2.8L280.9,40.8z"/>
								<path id="Path_6351" class="st1" d="M296.1,40.7L296.1,40.7l0-9.4h2.5V45h-3.1l-3.4-9.6h0V45h-2.5V31.3h3.2L296.1,40.7z"/>
								<path id="Path_6352" class="st1" d="M301.7,31.3h2.8V45h-2.8V31.3z"/>
								<path id="Path_6353" class="st1" d="M311.4,41.4L311.4,41.4l2.1-10.1h2.9L313.2,45h-3.5l-3.1-13.7h2.9L311.4,41.4z"/>
								<path id="Path_6354" class="st1" d="M325.9,33.6h-4.9v3.2h4.6V39h-4.6v3.7h5.1V45h-7.8V31.3h7.6L325.9,33.6z"/>
								<path id="Path_6355" class="st1" d="M333.6,31.3c1-0.1,1.9,0.3,2.7,0.9c0.7,0.7,1,1.7,1,2.7c0,0.8-0.2,1.6-0.6,2.2
									c-0.4,0.6-1,1-1.7,1.1v0c0.6,0,1.1,0.3,1.5,0.7c0.4,0.5,0.6,1.1,0.6,1.7c0,0.3,0,0.5,0.1,0.8c0,0.3,0,0.6,0,1
									c0,0.7,0.1,1.3,0.1,1.7c0,0.3,0.2,0.6,0.5,0.8V45h-3c-0.1-0.2-0.2-0.4-0.3-0.7c0-0.3-0.1-0.5-0.1-0.8l-0.1-2.6
									c0-0.5-0.1-0.9-0.4-1.3c-0.3-0.3-0.8-0.5-1.2-0.5h-1.5V45h-2.8V31.3H333.6z M332.4,37.3c0.6,0,1.1-0.1,1.5-0.5
									c0.4-0.4,0.6-1,0.5-1.6c0.1-0.9-0.5-1.8-1.4-1.9c-0.2,0-0.3,0-0.5,0h-1.3v3.9H332.4z"/>
								<path id="Path_6356" class="st1" d="M342.3,41.1c0,0.3,0,0.6,0.1,0.9c0,0.2,0.1,0.5,0.3,0.7c0.1,0.2,0.3,0.3,0.6,0.4
									c0.3,0.1,0.6,0.2,0.9,0.2c0.4,0,0.8-0.1,1.1-0.4c0.4-0.3,0.5-0.8,0.5-1.3c0-0.3,0-0.5-0.1-0.8c-0.1-0.2-0.2-0.4-0.4-0.6
									c-0.2-0.2-0.5-0.4-0.8-0.5c-0.4-0.2-0.8-0.3-1.2-0.4c-0.5-0.2-1.1-0.4-1.6-0.7c-0.4-0.2-0.8-0.5-1.1-0.9
									c-0.3-0.3-0.5-0.7-0.7-1.1c-0.1-0.5-0.2-1-0.2-1.5c-0.1-1.1,0.3-2.2,1.1-3c0.9-0.7,2-1.1,3.1-1c0.6,0,1.1,0.1,1.7,0.2
									c0.5,0.1,0.9,0.3,1.3,0.7c0.4,0.3,0.7,0.7,0.9,1.1c0.2,0.5,0.3,1.1,0.3,1.7v0.4h-2.6c0-0.5-0.1-1-0.3-1.5
									c-0.3-0.4-0.7-0.6-1.1-0.5c-0.3,0-0.5,0-0.8,0.1c-0.2,0.1-0.4,0.2-0.5,0.4c-0.1,0.1-0.2,0.3-0.2,0.5c0,0.2-0.1,0.4-0.1,0.6
									c0,0.4,0.1,0.7,0.3,1.1c0.3,0.4,0.7,0.7,1.1,0.8l2.1,0.9c0.5,0.2,0.9,0.4,1.3,0.7c0.3,0.2,0.6,0.5,0.8,0.8
									c0.2,0.3,0.3,0.6,0.4,0.9c0.1,0.4,0.1,0.8,0.1,1.1c0.1,1.2-0.4,2.4-1.3,3.1c-1,0.7-2.2,1.1-3.5,1c-1.2,0.1-2.4-0.2-3.3-1
									c-0.7-0.8-1.1-1.8-1-2.9v-0.6h2.8L342.3,41.1z"/>
								<path id="Path_6357" class="st1" d="M351.1,31.3h2.7V45h-2.8L351.1,31.3z"/>
								<path id="Path_6358" class="st1" d="M364.8,33.6h-3V45h-2.8V33.6h-3v-2.3h8.7L364.8,33.6z"/>
								<path id="Path_6359" class="st1" d="M371,36.6L371,36.6l1.9-5.3h3l-3.5,8.3V45h-2.8v-5.4l-3.5-8.3h3.1L371,36.6z"/>
							</g>
						</g>
					</g>
				</g>
			</g>
		</g>
	</g>
</g>
</svg>
