<svg id="Group_159" data-name="Group 159" xmlns="http://www.w3.org/2000/svg" width="379.731" height="30.988" viewBox="0 0 379.731 30.988">
  <g id="Group_153" data-name="Group 153">
    <g id="Group_152" data-name="Group 152">
      <g id="Group_151" data-name="Group 151">
        <g id="Group_150" data-name="Group 150">
          <path id="Path_1702" data-name="Path 1702" d="M108.03,555.314H99.553l0,0-.022,0a.2.2,0,0,0-.2.2.162.162,0,0,0,0,.029l0,.024h0a4.5,4.5,0,0,0,8.886,0,.248.248,0,0,0,.008-.054A.2.2,0,0,0,108.03,555.314Zm-4.253,3.132a3.627,3.627,0,0,1-3.354-2.294l-.014-.036h6.736l-.014.036A3.628,3.628,0,0,1,103.777,558.446Z" transform="translate(-89.129 -539.349)" fill="#fff"/>
          <g id="Group_149" data-name="Group 149">
            <path id="Path_1703" data-name="Path 1703" d="M109.069,568.016l-.126-.1a4.3,4.3,0,0,1-1.793-2.831l-.8-2.786a.788.788,0,0,0-.029-.1l-.008-.022a.84.84,0,0,0-.749-.535.2.2,0,0,0-.029,0H101.55a.146.146,0,0,0-.029.005.839.839,0,0,0-.749.534l-.008.022a.668.668,0,0,0-.029.1l-.8,2.786a4.3,4.3,0,0,1-1.793,2.831l-.126.1a.839.839,0,0,0,.022,1.409.461.461,0,0,0,.1.054h0l.012,0c.029.012.059.023.089.033a14.776,14.776,0,0,0,4,.926,1.5,1.5,0,0,0,2.593,0,14.785,14.785,0,0,0,4.009-.927c.03-.01.061-.021.089-.033l.012,0h0a.482.482,0,0,0,.1-.054.839.839,0,0,0,.022-1.409Zm-.873.712h0a14.091,14.091,0,0,1-4.533.8h-.24a14.066,14.066,0,0,1-4.532-.8h0a.109.109,0,0,1-.077-.1.1.1,0,0,1,.06-.091h0a5.651,5.651,0,0,0,1.987-3.21l.676-2.563,0-.01a.336.336,0,0,1,.318-.232v0h3.374v0a.335.335,0,0,1,.317.232l0,.01.676,2.563a5.651,5.651,0,0,0,1.987,3.21h0a.1.1,0,0,1,.06.091A.109.109,0,0,1,108.2,568.728Z" transform="translate(-88.901 -540.204)" fill="#fff"/>
            <path id="Path_1704" data-name="Path 1704" d="M98.018,540.028l.126.105a4.3,4.3,0,0,1,1.793,2.831l.8,2.785a.65.65,0,0,0,.029.1l.008.022a.841.841,0,0,0,.749.534.262.262,0,0,0,.029.005l1.993,0h1.993a.129.129,0,0,0,.029,0,.84.84,0,0,0,.749-.534l.008-.022a.761.761,0,0,0,.029-.1l.8-2.785a4.308,4.308,0,0,1,1.793-2.832l.126-.1a.839.839,0,0,0-.022-1.409.519.519,0,0,0-.1-.054h0l-.012,0c-.029-.012-.059-.023-.089-.033a14.785,14.785,0,0,0-4.009-.927,1.5,1.5,0,0,0-2.593,0,14.812,14.812,0,0,0-4,.927c-.03.01-.061.021-.089.033l-.012,0h0a.494.494,0,0,0-.1.054.839.839,0,0,0-.022,1.409Zm.872-.712h0a14.09,14.09,0,0,1,4.532-.8h.24a14.091,14.091,0,0,1,4.533.8h0a.111.111,0,0,1,.078.1.1.1,0,0,1-.06.091h0a5.653,5.653,0,0,0-1.987,3.21l-.676,2.563,0,.01a.335.335,0,0,1-.317.232v0h-3.374v0a.336.336,0,0,1-.318-.232l0-.01-.676-2.563a5.653,5.653,0,0,0-1.987-3.21h0a.1.1,0,0,1-.06-.091A.11.11,0,0,1,98.889,539.316Z" transform="translate(-88.901 -536.853)" fill="#fff"/>
            <path id="Path_1705" data-name="Path 1705" d="M87.536,550.838a.84.84,0,0,0,1.21.724l.153-.057a4.305,4.305,0,0,1,3.348-.138l2.811.7a.843.843,0,0,0,.1.024l.022,0a.837.837,0,0,0,.837-.381.127.127,0,0,0,.018-.023l1-1.727,1-1.726a.218.218,0,0,0,.01-.027.841.841,0,0,0-.088-.916.155.155,0,0,0-.016-.017.756.756,0,0,0-.073-.077l-2.012-2.083a4.305,4.305,0,0,1-1.556-2.969l-.028-.161a.838.838,0,0,0-1.231-.686.5.5,0,0,0-.1.059h0l-.01.008a.7.7,0,0,0-.074.061,14.77,14.77,0,0,0-2.807,3.009,1.5,1.5,0,0,0-1.3,2.245,14.768,14.768,0,0,0-1.2,3.931.72.72,0,0,0-.016.094l0,.012h0A.554.554,0,0,0,87.536,550.838Zm1.029-.387h0a14.075,14.075,0,0,1,1.572-4.326l.061-.1h0l.059-.1a14.078,14.078,0,0,1,2.96-3.525h0a.111.111,0,0,1,.124-.019.1.1,0,0,1,.048.1h0a5.652,5.652,0,0,0,1.787,3.326l1.882,1.867.008.009a.334.334,0,0,1,.042.391h0l-.843,1.459v0h0l-.842,1.46h0a.334.334,0,0,1-.359.159l-.011,0-2.558-.7a5.65,5.65,0,0,0-3.774.116h0a.1.1,0,0,1-.109.005A.109.109,0,0,1,88.565,550.451Z" transform="translate(-87.534 -537.442)" fill="#fff"/>
            <path id="Path_1706" data-name="Path 1706" d="M97.939,560.554l.016-.017a.841.841,0,0,0,.088-.916c0-.01-.007-.021-.01-.028l-1-1.726-1-1.727a.283.283,0,0,0-.018-.023.839.839,0,0,0-.838-.381l-.022,0a.74.74,0,0,0-.1.025l-2.811.7a4.3,4.3,0,0,1-3.348-.137l-.153-.056a.839.839,0,0,0-1.21.723.5.5,0,0,0,0,.113h0l0,.013a.9.9,0,0,0,.016.094,14.806,14.806,0,0,0,1.2,3.935,1.5,1.5,0,0,0,1.3,2.245,14.783,14.783,0,0,0,2.8,3,.8.8,0,0,0,.074.061l.01.009h0a.469.469,0,0,0,.1.059.838.838,0,0,0,1.231-.686l.028-.161a4.308,4.308,0,0,1,1.556-2.969l2.013-2.083A.739.739,0,0,0,97.939,560.554Zm-.873-.391-.008.009-1.882,1.868a5.645,5.645,0,0,0-1.786,3.326h0a.1.1,0,0,1-.049.1.109.109,0,0,1-.123-.018h0a14.076,14.076,0,0,1-2.959-3.526l-.06-.1h0l-.061-.1a14.1,14.1,0,0,1-1.572-4.326h0a.11.11,0,0,1,.046-.116.1.1,0,0,1,.108.006h0a5.656,5.656,0,0,0,3.775.115l2.558-.7.01,0a.335.335,0,0,1,.36.159h0l.842,1.46h0l.842,1.46h0A.334.334,0,0,1,97.067,560.163Z" transform="translate(-87.534 -539.405)" fill="#fff"/>
            <path id="Path_1707" data-name="Path 1707" d="M119.738,557a.84.84,0,0,0-1.21-.724l-.154.057a4.3,4.3,0,0,1-3.348.137l-2.812-.7a.667.667,0,0,0-.1-.024l-.022,0a.839.839,0,0,0-.837.38.257.257,0,0,0-.018.023l-1,1.727-1,1.726a.214.214,0,0,0-.011.027.841.841,0,0,0,.089.916l.015.017a.754.754,0,0,0,.073.076l2.013,2.084a4.31,4.31,0,0,1,1.556,2.968l.027.162a.839.839,0,0,0,1.231.686.561.561,0,0,0,.1-.059h0l.01-.008a.723.723,0,0,0,.074-.061,14.819,14.819,0,0,0,2.807-3.009,1.5,1.5,0,0,0,1.3-2.245,14.809,14.809,0,0,0,1.2-3.931.852.852,0,0,0,.016-.094l0-.012h0A.554.554,0,0,0,119.738,557Zm-1.029.388a14.1,14.1,0,0,1-1.573,4.326l-.06.1h0l-.06.1a14.078,14.078,0,0,1-2.96,3.525h0a.11.11,0,0,1-.123.019.1.1,0,0,1-.049-.1h0a5.648,5.648,0,0,0-1.787-3.327l-1.882-1.867-.007-.009a.333.333,0,0,1-.042-.391h0l.842-1.459v0h0l.843-1.46h0a.334.334,0,0,1,.36-.159l.01,0,2.559.7a5.65,5.65,0,0,0,3.774-.116h0a.1.1,0,0,1,.108-.005.109.109,0,0,1,.045.115Z" transform="translate(-90.455 -539.405)" fill="#fff"/>
            <path id="Path_1708" data-name="Path 1708" d="M109.334,547.28l-.015.017a.839.839,0,0,0-.089.916l.01.028,1,1.725,1,1.727a.132.132,0,0,0,.018.023.84.84,0,0,0,.837.381l.022,0a.808.808,0,0,0,.1-.025l2.811-.7a4.309,4.309,0,0,1,3.348.137l.154.057a.839.839,0,0,0,1.209-.723.5.5,0,0,0,0-.113h0l0-.013a.89.89,0,0,0-.016-.094,14.821,14.821,0,0,0-1.2-3.936,1.5,1.5,0,0,0-1.3-2.244,14.833,14.833,0,0,0-2.8-3.005c-.024-.022-.048-.042-.074-.061l-.01-.009h0a.469.469,0,0,0-.1-.059.839.839,0,0,0-1.231.686l-.027.161a4.309,4.309,0,0,1-1.556,2.968l-2.014,2.084A.732.732,0,0,0,109.334,547.28Zm.873.391.007-.009,1.882-1.867a5.65,5.65,0,0,0,1.787-3.326h0a.1.1,0,0,1,.049-.1.11.11,0,0,1,.123.018h0a14.1,14.1,0,0,1,2.96,3.526l.059.1h0l.06.1a14.065,14.065,0,0,1,1.572,4.326h0a.11.11,0,0,1-.045.116.1.1,0,0,1-.108-.006h0a5.651,5.651,0,0,0-3.774-.116l-2.558.7-.01,0a.336.336,0,0,1-.36-.16h0l-.843-1.46h0l-.843-1.46h0A.332.332,0,0,1,110.207,547.671Z" transform="translate(-90.455 -537.442)" fill="#fff"/>
          </g>
          <path id="Path_1709" data-name="Path 1709" d="M108.18,553.1a4.531,4.531,0,0,0-3.619-3.458v.827l0,.008v.083a3.631,3.631,0,0,1,2.466,1.954l.016.033h-6.514l.016-.033a3.64,3.64,0,0,1,2.4-1.938v-.921a4.482,4.482,0,0,0-3.546,3.416v0l0,0a.208.208,0,0,0-.013.07.2.2,0,0,0,.2.2h8.4a.2.2,0,0,0,.2-.2A.238.238,0,0,0,108.18,553.1Z" transform="translate(-89.136 -538.582)" fill="#fff"/>
        </g>
      </g>
    </g>
  </g>
  <g id="Group_158" data-name="Group 158" transform="translate(38.921 8.649)">
    <g id="Group_157" data-name="Group 157">
      <g id="Group_156" data-name="Group 156">
        <g id="Group_155" data-name="Group 155">
          <g id="Group_154" data-name="Group 154">
            <path id="Path_1710" data-name="Path 1710" d="M139.181,555.564h.039v-9.551H141.8v13.945h-3.2l-3.438-9.765h-.039v9.765h-2.578V546.013h3.242Z" transform="translate(-132.541 -545.741)" fill="#fff"/>
            <path id="Path_1711" data-name="Path 1711" d="M152.67,546.013l3.691,13.945h-2.929l-.645-2.949h-3.71l-.644,2.949H145.5l3.691-13.945ZM152.3,554.7l-1.347-6.269h-.04l-1.347,6.269Z" transform="translate(-134.294 -545.741)" fill="#fff"/>
            <path id="Path_1712" data-name="Path 1712" d="M167.124,548.318h-3.047v11.64h-2.812v-11.64h-3.047v-2.3h8.906Z" transform="translate(-136.013 -545.741)" fill="#fff"/>
            <path id="Path_1713" data-name="Path 1713" d="M171.2,546.013h2.812v13.945H171.2Z" transform="translate(-137.769 -545.741)" fill="#fff"/>
            <path id="Path_1714" data-name="Path 1714" d="M177.808,550.024a6.47,6.47,0,0,1,.644-2.3,3.609,3.609,0,0,1,1.436-1.494,6.177,6.177,0,0,1,5.038,0,3.609,3.609,0,0,1,1.436,1.494,6.47,6.47,0,0,1,.644,2.3,29.159,29.159,0,0,1,0,5.849,6.448,6.448,0,0,1-.644,2.285,3.422,3.422,0,0,1-1.436,1.465,6.5,6.5,0,0,1-5.038,0,3.422,3.422,0,0,1-1.436-1.465,6.448,6.448,0,0,1-.644-2.285,29.328,29.328,0,0,1,0-5.849Zm2.734,5.311a6.568,6.568,0,0,0,.273,1.6,1.776,1.776,0,0,0,.585.9,1.93,1.93,0,0,0,2.011,0,1.777,1.777,0,0,0,.586-.9,6.654,6.654,0,0,0,.273-1.6q.067-.986.068-2.392t-.068-2.383a6.782,6.782,0,0,0-.273-1.6,1.784,1.784,0,0,0-.586-.909,1.93,1.93,0,0,0-2.011,0,1.783,1.783,0,0,0-.585.909,6.693,6.693,0,0,0-.273,1.6q-.07.977-.068,2.383T180.543,555.335Z" transform="translate(-138.642 -545.698)" fill="#fff"/>
            <path id="Path_1715" data-name="Path 1715" d="M198.326,555.564h.039v-9.551h2.578v13.945h-3.2l-3.438-9.765h-.038v9.765h-2.578V546.013h3.241Z" transform="translate(-140.538 -545.741)" fill="#fff"/>
            <path id="Path_1716" data-name="Path 1716" d="M211.815,546.013l3.691,13.945h-2.929l-.645-2.949h-3.71l-.644,2.949h-2.93l3.691-13.945Zm-.371,8.691-1.347-6.269h-.04L208.71,554.7Z" transform="translate(-142.291 -545.741)" fill="#fff"/>
            <path id="Path_1717" data-name="Path 1717" d="M219.462,546.013h2.812v11.64h4.98v2.3h-7.793Z" transform="translate(-144.294 -545.741)" fill="#fff"/>
            <path id="Path_1718" data-name="Path 1718" d="M244.809,548.318h-3.047v11.64H238.95v-11.64H235.9v-2.3h8.906Z" transform="translate(-146.517 -545.741)" fill="#fff"/>
            <path id="Path_1719" data-name="Path 1719" d="M253.526,546.013l3.692,13.945h-2.93l-.644-2.949h-3.711l-.644,2.949h-2.93l3.691-13.945Zm-.371,8.691-1.347-6.269h-.039l-1.347,6.269Z" transform="translate(-147.931 -545.741)" fill="#fff"/>
            <path id="Path_1720" data-name="Path 1720" d="M261.332,546.013h2.812v13.945h-2.812Z" transform="translate(-149.955 -545.741)" fill="#fff"/>
            <path id="Path_1721" data-name="Path 1721" d="M269.876,546.013l1.543,10.312h.039l1.641-10.312h2.7l1.641,10.312h.039l1.543-10.312h2.695l-2.538,13.945h-3.144l-1.563-10.116h-.039l-1.563,10.116H269.72l-2.539-13.945Z" transform="translate(-150.746 -545.741)" fill="#fff"/>
            <path id="Path_1722" data-name="Path 1722" d="M292.053,546.013l3.69,13.945h-2.928l-.645-2.949h-3.71l-.645,2.949h-2.929l3.691-13.945Zm-.371,8.691-1.347-6.269h-.04l-1.347,6.269Z" transform="translate(-153.14 -545.741)" fill="#fff"/>
            <path id="Path_1723" data-name="Path 1723" d="M306.34,555.564h.039v-9.551h2.578v13.945h-3.2l-3.437-9.765h-.039v9.765H299.7V546.013h3.242Z" transform="translate(-155.143 -545.741)" fill="#fff"/>
            <path id="Path_1724" data-name="Path 1724" d="M326.982,555.564h.038v-9.551H329.6v13.945h-3.2l-3.438-9.765h-.039v9.765h-2.578V546.013h3.242Z" transform="translate(-157.934 -545.741)" fill="#fff"/>
            <path id="Path_1725" data-name="Path 1725" d="M334.241,550.024a6.451,6.451,0,0,1,.644-2.3,3.609,3.609,0,0,1,1.436-1.494,6.177,6.177,0,0,1,5.038,0,3.609,3.609,0,0,1,1.436,1.494,6.47,6.47,0,0,1,.644,2.3,29.322,29.322,0,0,1,0,5.849,6.447,6.447,0,0,1-.644,2.285,3.421,3.421,0,0,1-1.436,1.465,6.5,6.5,0,0,1-5.038,0,3.421,3.421,0,0,1-1.436-1.465,6.429,6.429,0,0,1-.644-2.285,29.153,29.153,0,0,1,0-5.849Zm2.734,5.311a6.654,6.654,0,0,0,.273,1.6,1.777,1.777,0,0,0,.586.9,1.93,1.93,0,0,0,2.011,0,1.776,1.776,0,0,0,.585-.9,6.61,6.61,0,0,0,.273-1.6q.069-.986.068-2.392t-.068-2.383a6.737,6.737,0,0,0-.273-1.6,1.783,1.783,0,0,0-.585-.909,1.93,1.93,0,0,0-2.011,0,1.784,1.784,0,0,0-.586.909,6.782,6.782,0,0,0-.273,1.6q-.069.977-.068,2.383T336.975,555.335Z" transform="translate(-159.794 -545.698)" fill="#fff"/>
            <path id="Path_1726" data-name="Path 1726" d="M353.315,546.013a3.916,3.916,0,0,1,2.734.889,3.479,3.479,0,0,1,.976,2.7,4.216,4.216,0,0,1-.566,2.3,2.627,2.627,0,0,1-1.759,1.142v.04a2.546,2.546,0,0,1,1.544.683,2.9,2.9,0,0,1,.605,1.7c.026.26.046.544.059.849s.026.648.039,1.026q.038,1.113.118,1.7a1.088,1.088,0,0,0,.508.8v.118h-3.047a1.5,1.5,0,0,1-.272-.674,7.4,7.4,0,0,1-.079-.791l-.078-2.676a2.2,2.2,0,0,0-.41-1.289,1.5,1.5,0,0,0-1.25-.469h-1.5v5.9h-2.812V546.013Zm-1.211,6.093a2.3,2.3,0,0,0,1.562-.478,2.05,2.05,0,0,0,.547-1.611,1.717,1.717,0,0,0-1.953-1.933h-1.328v4.022Z" transform="translate(-161.69 -545.741)" fill="#fff"/>
            <path id="Path_1727" data-name="Path 1727" d="M366.052,546.013l1.992,9.843h.039l2.012-9.843h4.16v13.945h-2.578V548.825h-.039l-2.48,11.132H366.97l-2.481-11.132h-.038v11.132h-2.578V546.013Z" transform="translate(-163.55 -545.741)" fill="#fff"/>
            <path id="Path_1728" data-name="Path 1728" d="M385.683,546.013l3.691,13.945h-2.929l-.645-2.949h-3.711l-.644,2.949h-2.929l3.691-13.945Zm-.371,8.691-1.348-6.269h-.039l-1.347,6.269Z" transform="translate(-165.801 -545.741)" fill="#fff"/>
            <path id="Path_1729" data-name="Path 1729" d="M393.33,546.013h2.812v11.64h4.98v2.3H393.33Z" transform="translate(-167.804 -545.741)" fill="#fff"/>
            <path id="Path_1730" data-name="Path 1730" d="M414.074,555.739a6.27,6.27,0,0,0,.068.966,2.175,2.175,0,0,0,.254.762,1.352,1.352,0,0,0,.508.508,1.887,1.887,0,0,0,1.63,0,1.387,1.387,0,0,0,.5-.508,2.21,2.21,0,0,0,.253-.762,6.378,6.378,0,0,0,.068-.966v-9.726h2.812v9.726a5.637,5.637,0,0,1-.371,2.2,3.51,3.51,0,0,1-1,1.378,3.38,3.38,0,0,1-1.426.683,7.693,7.693,0,0,1-1.659.176,8.612,8.612,0,0,1-1.66-.156,3.362,3.362,0,0,1-1.425-.634,3.252,3.252,0,0,1-1-1.358,5.923,5.923,0,0,1-.371-2.285v-9.726h2.812Z" transform="translate(-170.228 -545.741)" fill="#fff"/>
            <path id="Path_1731" data-name="Path 1731" d="M431.384,555.564h.039v-9.551H434v13.945h-3.2l-3.437-9.765h-.039v9.765h-2.579V546.013h3.242Z" transform="translate(-172.051 -545.741)" fill="#fff"/>
            <path id="Path_1732" data-name="Path 1732" d="M438.993,546.013h2.812v13.945h-2.812Z" transform="translate(-173.978 -545.741)" fill="#fff"/>
            <path id="Path_1733" data-name="Path 1733" d="M449.709,556.325h.06l2.069-10.312h2.91l-3.2,13.945h-3.612l-3.2-13.945h3.009Z" transform="translate(-174.754 -545.741)" fill="#fff"/>
            <path id="Path_1734" data-name="Path 1734" d="M466.433,548.318h-4.979V551.6h4.686v2.3h-4.686v3.75h5.175v2.3h-7.987V546.013h7.792Z" transform="translate(-176.635 -545.741)" fill="#fff"/>
            <path id="Path_1735" data-name="Path 1735" d="M475.828,546.013a3.916,3.916,0,0,1,2.734.889,3.478,3.478,0,0,1,.976,2.7,4.209,4.209,0,0,1-.566,2.3,2.623,2.623,0,0,1-1.758,1.142v.04a2.543,2.543,0,0,1,1.543.683,2.9,2.9,0,0,1,.606,1.7c.026.26.045.544.059.849s.025.648.039,1.026q.038,1.113.118,1.7a1.087,1.087,0,0,0,.507.8v.118h-3.047a1.5,1.5,0,0,1-.272-.674,7.167,7.167,0,0,1-.079-.791l-.078-2.676a2.205,2.205,0,0,0-.411-1.289,1.5,1.5,0,0,0-1.25-.469h-1.5v5.9h-2.812V546.013Zm-1.212,6.093a2.3,2.3,0,0,0,1.563-.478,2.05,2.05,0,0,0,.547-1.611,1.717,1.717,0,0,0-1.953-1.933h-1.328v4.022Z" transform="translate(-178.256 -545.741)" fill="#fff"/>
            <path id="Path_1736" data-name="Path 1736" d="M486.5,555.97a4.673,4.673,0,0,0,.078.889,1.553,1.553,0,0,0,.293.673,1.437,1.437,0,0,0,.576.43,2.292,2.292,0,0,0,.909.156,1.8,1.8,0,0,0,1.162-.419,1.577,1.577,0,0,0,.516-1.3,2.321,2.321,0,0,0-.126-.81,1.607,1.607,0,0,0-.419-.616,3,3,0,0,0-.772-.5,10.887,10.887,0,0,0-1.181-.458,10,10,0,0,1-1.621-.683,4.361,4.361,0,0,1-1.143-.869,3.132,3.132,0,0,1-.674-1.153,4.864,4.864,0,0,1-.214-1.513,3.9,3.9,0,0,1,1.152-3.086A4.626,4.626,0,0,1,488.2,545.7a6.869,6.869,0,0,1,1.728.2,3.6,3.6,0,0,1,1.367.664,3.109,3.109,0,0,1,.9,1.171,4.134,4.134,0,0,1,.322,1.71v.39h-2.7a2.8,2.8,0,0,0-.351-1.533,1.3,1.3,0,0,0-1.172-.537,1.963,1.963,0,0,0-.782.137,1.328,1.328,0,0,0-.5.362,1.246,1.246,0,0,0-.254.517,2.651,2.651,0,0,0-.068.605,2.023,2.023,0,0,0,.273,1.084,2.448,2.448,0,0,0,1.172.81l2.168.937a6.648,6.648,0,0,1,1.308.732,3.56,3.56,0,0,1,.81.821,2.7,2.7,0,0,1,.419.967,5.361,5.361,0,0,1,.118,1.171,3.838,3.838,0,0,1-1.279,3.213,5.636,5.636,0,0,1-3.564,1.006,4.666,4.666,0,0,1-3.408-1.035,4.037,4.037,0,0,1-1.025-2.969v-.566H486.5Z" transform="translate(-180.021 -545.698)" fill="#fff"/>
            <path id="Path_1737" data-name="Path 1737" d="M497.326,546.013h2.812v13.945h-2.812Z" transform="translate(-181.865 -545.741)" fill="#fff"/>
            <path id="Path_1738" data-name="Path 1738" d="M512.171,548.318h-3.047v11.64h-2.812v-11.64h-3.046v-2.3h8.9Z" transform="translate(-182.669 -545.741)" fill="#fff"/>
            <path id="Path_1739" data-name="Path 1739" d="M520.03,551.4h.039l1.953-5.39h3.047l-3.613,8.457v5.488h-2.812V554.47l-3.614-8.457h3.164Z" transform="translate(-184.259 -545.741)" fill="#fff"/>
          </g>
        </g>
      </g>
    </g>
  </g>
</svg>
