<?xml version="1.0" encoding="utf-8"?>
<!-- Generator: Adobe Illustrator 26.3.1, SVG Export Plug-In . SVG Version: 6.00 Build 0)  -->
<svg version="1.1" id="圖層_1" xmlns="http://www.w3.org/2000/svg" xmlns:xlink="http://www.w3.org/1999/xlink" x="0px" y="0px"
	 viewBox="0 0 286 70" style="enable-background:new 0 0 286 70;" xml:space="preserve">
<style type="text/css">
	.st0{fill:#002E60;}
	.st1{fill:#004896;}
	.st2{enable-background:new    ;}
	.st3{fill:#FFFFFF;}
</style>
<path id="Path_5533" class="st0" d="M0,39.5l52,31l-23-31H0z"/>
<g>
	<rect id="Rectangle_119" class="st1" width="286" height="40"/>
	<g class="st2">
		<path class="st3" d="M19.3,8.8h4.2v15.4c0,1.5,0.2,2.6,0.7,3.2c0.5,0.6,1.2,0.9,2.2,0.9c1.1,0,1.8-0.3,2.3-0.9
			c0.5-0.6,0.7-1.7,0.7-3.3V8.8h4.2v15.8c0,2.5-0.5,4.3-1.6,5.4c-1,1.2-2.9,1.7-5.5,1.7c-2.6,0-4.5-0.6-5.6-1.7
			c-1.1-1.1-1.6-3-1.6-5.5V8.8z"/>
		<path class="st3" d="M37.6,8.8H46c1.7,0,3.1,0.5,4,1.6c0.9,1.1,1.4,2.7,1.4,4.7c0,4.5-2.2,6.8-6.7,6.8h-2.9v9.4h-4.2V8.8z
			 M41.8,12v6.5h2.1c1,0,1.8-0.2,2.3-0.7c0.5-0.5,0.8-1.4,0.8-2.8c0-1.1-0.2-1.9-0.6-2.3C46,12.3,45.2,12,43.9,12H41.8z"/>
		<path class="st3" d="M63.4,23.3h4.2c0,2.6-0.5,4.7-1.4,6.2s-2.6,2.3-4.9,2.3c-2.8,0-4.7-0.7-5.7-2.1c-1.1-1.4-1.6-3.8-1.6-7.1
			v-4.8c0-3.5,0.6-6,1.7-7.4c1.1-1.4,2.9-2.1,5.3-2.1c2.3,0,3.9,0.6,5,1.8s1.5,3.1,1.5,5.7h-4.1c0-1.4-0.1-2.4-0.4-3.1s-0.8-1-1.6-1
			c-2,0-3,1.6-3,4.7v7.3c0,1.7,0.3,2.9,0.8,3.6c0.5,0.7,1.3,1.1,2.2,1.1c0.7,0,1.3-0.4,1.6-1.1C63.2,26.4,63.4,25.1,63.4,23.3z"/>
		<path class="st3" d="M70.7,22.5V18c0-3.7,0.6-6.2,1.7-7.6s3-2.1,5.6-2.1c2.9,0,4.9,0.8,5.9,2.3c1,1.6,1.5,4,1.5,7.4v4.5
			c0,3.3-0.5,5.7-1.6,7.1c-1.1,1.4-2.9,2.1-5.7,2.1c-2.6,0-4.5-0.7-5.7-2S70.7,25.9,70.7,22.5z M75.1,16.4v7.3c0,3.1,1,4.7,2.9,4.7
			c2,0,3.1-1.5,3.1-4.5v-7.2c0-3.3-1-5-3-5S75.1,13.2,75.1,16.4z"/>
		<path class="st3" d="M89.3,8.8H96L99,22.5l3-13.8h6.7v22.5h-4.2V11.8l-4.2,19.4h-2.6l-4.2-19.4v19.4h-4.2V8.8z"/>
		<path class="st3" d="M112.7,8.8h4.2v22.5h-4.2V8.8z"/>
		<path class="st3" d="M120.9,8.8h4.4L131,23V8.8h4.2v22.5h-4.4l-5.7-13.9v13.9h-4.2V8.8z"/>
		<path class="st3" d="M146.6,22.5v-3.3h6.9v12.1h-3.1v-2.8c-0.4,1.1-1,1.9-1.7,2.5c-0.8,0.5-1.7,0.8-2.8,0.8
			c-2.5,0-4.3-0.7-5.4-2.1c-1.1-1.4-1.6-3.8-1.6-7.2v-4.5c0-3.7,0.6-6.3,1.7-7.6c1.2-1.4,3.1-2,5.7-2c2.6,0,4.5,0.6,5.6,1.8
			s1.7,3.1,1.7,5.7h-4.2c0-1.4-0.2-2.5-0.7-3.1c-0.4-0.7-1.3-1-2.4-1c-1,0-1.8,0.4-2.3,1.2c-0.5,0.8-0.7,2-0.7,3.5v7.3
			c0,3.1,1,4.7,3,4.7c1.2,0,2-0.5,2.5-1.5c0.5-1,0.7-2.4,0.7-4.4H146.6z"/>
		<path class="st3" d="M165,31.2V8.8h11.9V12h-7.7v5.7h7.1v3.3h-7.1V28h7.7v3.3H165z"/>
		<path class="st3" d="M186.6,27.3l3.1-18.5h4.5l-4.9,22.5h-5.6l-4.9-22.5h4.5L186.6,27.3z"/>
		<path class="st3" d="M196.6,31.2V8.8h11.9V12h-7.7v5.7h7.1v3.3h-7.1V28h7.7v3.3H196.6z"/>
		<path class="st3" d="M211.8,8.8h4.4l5.7,14.2V8.8h4.2v22.5h-4.4L216,17.4v13.9h-4.2V8.8z"/>
		<path class="st3" d="M228.5,8.8h14V12h-4.9v19.2h-4.2V12h-4.9V8.8z"/>
		<path class="st3" d="M248.9,23.3v1.3c0,2.5,0.9,3.7,2.7,3.7c1.6,0,2.4-0.9,2.4-2.6c0-0.9-0.3-1.7-0.9-2.3
			c-0.6-0.6-1.7-1.4-3.3-2.4c-1.7-1.1-2.9-2.1-3.8-3.1c-0.9-1-1.3-2.3-1.3-3.7c0-4,2.2-5.9,6.6-5.9c2.4,0,4,0.6,5,1.7
			c1,1.1,1.5,3,1.5,5.5h-4.1v-0.7c0-2.1-0.8-3.1-2.4-3.1c-1.5,0-2.3,0.7-2.3,2.1c0,0.8,0.2,1.4,0.7,1.8c0.5,0.4,1.6,1.2,3.3,2.4
			c1.9,1.2,3.3,2.3,4,3.3c0.8,1,1.2,2.2,1.2,3.8c0,2.1-0.6,3.7-1.7,4.8s-2.8,1.7-5,1.7c-4.6,0-6.9-2.2-6.9-6.7v-1.8H248.9z"/>
		<path class="st3" d="M263.5,25.4c-0.4-4.9-0.7-7.9-0.7-9.1V8.8h4v7.7c0,1.2-0.2,4.2-0.7,9H263.5z M262.8,31.2v-4h4v4H262.8z"/>
	</g>
</g>
</svg>
