<svg xmlns="http://www.w3.org/2000/svg" xmlns:xlink="http://www.w3.org/1999/xlink" width="191" height="215" viewBox="0 0 191 215">
  <defs>
    <clipPath id="clip-path">
      <rect id="Rectangle_8" data-name="Rectangle 8" width="165.597" height="32" fill="none"/>
    </clipPath>
  </defs>
  <g id="Group_85" data-name="Group 85" transform="translate(-443 -223)">
    <g id="logo" transform="translate(442.963 223.009)">
      <g id="圖層_2_00000078746342020506684190000013294611277603331241_" transform="translate(0.037 -0.009)">
        <g id="圖層_1-2">
          <path id="Path_730" data-name="Path 730" d="M69,99.8Z" transform="translate(16.001 23.219)" fill="#91bee6"/>
          <path id="Path_731" data-name="Path 731" d="M69.193,100.263l-.123-.247-.123.247.123-.247h0l-.247.123-.123-.123.247-.123-.123-.37.247-.123.37.123h.123l.247.37Z" transform="translate(15.931 23.126)" fill="#172a88"/>
          <path id="Path_732" data-name="Path 732" d="M70.449,99.8h0c-1.356.863-2.588,1.479-3.821,2.219l-3.328,2.1c9.984,10.6,24.158,21.077,44.988,28.472a79.214,79.214,0,0,0,9.121-.986C94.977,123.342,80.186,111.263,70.449,99.8Z" transform="translate(14.675 23.219)" fill="#fff"/>
          <path id="Path_733" data-name="Path 733" d="M108.428,133.072h0c-18.365-6.533-33.525-16.146-45.358-28.6l-.37-.37.493-.247c1.109-.74,2.219-1.356,3.328-2.1A21.547,21.547,0,0,0,70.1,99.547l.37-.247.247.247c11.832,13.928,27.609,24.651,46.96,31.677l1.6.616-1.726.247a73.723,73.723,0,0,1-9.121.986ZM64.056,104.23c11.586,12.2,26.5,21.57,44.372,27.979q3.7-.185,7.4-.74c-18.612-7.026-33.9-17.5-45.481-31.06-1.109.74-2.342,1.479-3.451,2.1Z" transform="translate(14.536 23.103)" fill="#172a88"/>
          <path id="Path_734" data-name="Path 734" d="M64.579,103.3c-2.465,1.479-4.807,2.958-6.779,4.314,9.367,9,22.186,17.625,39.688,24.035a98.752,98.752,0,0,0,12.079.123C88.737,124.377,74.439,113.777,64.579,103.3Z" transform="translate(13.396 24.033)" fill="#fff"/>
          <path id="Path_735" data-name="Path 735" d="M104.26,132.381h0c-2.219,0-4.437-.123-6.656-.247h-.123A114.8,114.8,0,0,1,57.67,107.977l-.37-.37.493-.246c2.219-1.479,4.56-2.958,6.779-4.314l.247-.246.246.246C76.774,115.5,91.811,124.986,110.053,131.4l2.1.74-2.219.123C107.958,132.381,106.109,132.381,104.26,132.381Zm-6.533-1.109c2.1.123,4.314.246,6.533.246h0a30.038,30.038,0,0,0,3.328-.123c-17.256-6.409-31.677-15.653-42.893-27.609-1.972,1.233-3.944,2.465-5.916,3.821A107.215,107.215,0,0,0,97.728,131.272Z" transform="translate(13.28 23.917)" fill="#172a88"/>
          <path id="Path_736" data-name="Path 736" d="M76.619,96.3c-2.465,1.356-5.053,2.712-7.519,4.191,9.86,11.586,24.528,23.542,47.083,31.8,2.588-.37,5.177-.863,7.888-1.479C100.53,121.691,85.986,108.5,76.619,96.3Z" transform="translate(16.024 22.405)" fill="#fff"/>
          <path id="Path_737" data-name="Path 737" d="M116.323,132.9h0c-19.6-7.149-35.5-17.872-47.453-31.923l-.37-.37.493-.247c2.588-1.6,5.177-3.081,7.519-4.314l.37-.247.247.247c11.586,15.16,27.486,26.746,47.207,34.388l1.356.493-1.356.246a49.159,49.159,0,0,1-8.012,1.726ZM69.856,100.853c11.709,13.681,27.363,24.281,46.467,31.184,2.1-.37,4.191-.74,6.409-1.109-19.228-7.642-34.635-19.1-46.1-33.9C74.54,98.142,72.2,99.374,69.856,100.853Z" transform="translate(15.884 22.289)" fill="#172a88"/>
          <path id="Path_738" data-name="Path 738" d="M122.653,131.656c2.342-.493,4.684-1.109,7.149-1.849-23.665-9.984-37.839-24.158-46.59-36.607-2.588,1.109-5.3,2.465-8.012,3.944C84.567,109.223,99.111,122.411,122.653,131.656Z" transform="translate(17.443 21.684)" fill="#fff"/>
          <path id="Path_739" data-name="Path 739" d="M122.67,132.142h0c-19.967-7.765-35.991-19.474-47.823-34.758l-.247-.37.493-.247c2.835-1.6,5.67-2.835,8.012-3.944l.37-.123.247.247c11.216,15.9,26.746,28.225,46.344,36.484l1.109.493-1.233.37c-2.465.616-4.807,1.233-7.272,1.849ZM75.956,97.26c11.586,14.914,27.363,26.253,46.837,33.9,1.972-.493,3.821-.986,5.793-1.479-19.1-8.258-34.388-20.337-45.358-35.99C81.009,94.8,78.544,95.9,75.956,97.26Z" transform="translate(17.303 21.568)" fill="#172a88"/>
          <path id="Path_740" data-name="Path 740" d="M45.6,105.5s24.281,23.418,54.725,25.637C82.823,124.728,70,115.977,60.637,107.1,56.323,109.814,45.6,105.5,45.6,105.5Z" transform="translate(10.559 24.545)" fill="#fff"/>
          <path id="Path_741" data-name="Path 741" d="M103.779,132.009l-3.081-.247C70.5,129.544,45.972,106.249,45.726,106L44,104.4l2.1.863s6.163,2.465,10.846,2.465a6.973,6.973,0,0,0,3.821-.863l.247-.247.247.247a113.154,113.154,0,0,0,39.565,23.911ZM47.944,106.988c5.793,4.93,25.514,20.707,49.549,23.665a112.418,112.418,0,0,1-36.484-22.8,8.765,8.765,0,0,1-3.944.863A32.31,32.31,0,0,1,47.944,106.988Z" transform="translate(10.187 24.289)" fill="#172a88"/>
          <path id="Path_742" data-name="Path 742" d="M128.29,130.358a47.82,47.82,0,0,0,5.546-1.726c5.3-2.465,3.2-3.081,3.7-3.328L122.99,106.57l-.123-3.451C111.9,99.791,101.914,92.4,95.5,90.547c-2.835-.863-7.888.616-13.8,3.2C90.451,106.323,104.625,120.5,128.29,130.358Z" transform="translate(18.954 21.01)" fill="#172a88"/>
          <path id="Path_743" data-name="Path 743" d="M128.307,130.928h-.123c-19.721-8.381-35.5-20.707-46.714-36.73L81.1,93.7l.493-.247c6.656-2.958,11.463-4.067,14.051-3.2a70.681,70.681,0,0,1,10.23,4.807,93.485,93.485,0,0,0,17.132,7.765l.246.123.123,3.7,14.791,19.1-.247.123c.123.863-.616,1.849-3.944,3.328a26.238,26.238,0,0,1-4.067,1.356l-1.479.37ZM82.456,94.075c11.093,15.653,26.623,27.732,45.974,35.991l1.356-.37a21.273,21.273,0,0,0,3.944-1.356c1.356-.616,3.7-1.849,3.451-2.465v-.37l-14.544-18.612-.123-3.328A104.708,104.708,0,0,1,105.628,95.8a69.228,69.228,0,0,0-10.107-4.807C93.056,90.377,88.619,91.363,82.456,94.075Z" transform="translate(18.815 20.933)" fill="#172a88"/>
          <path id="Path_744" data-name="Path 744" d="M69.7,99.8,66,102.019A29.349,29.349,0,0,0,69.7,99.8Z" transform="translate(15.303 23.219)" fill="#91bee6"/>
          <path id="Path_745" data-name="Path 745" d="M66.27,102.458l-.37-.74L69.6,99.5l.493.74A42.976,42.976,0,0,1,66.27,102.458Z" transform="translate(15.28 23.149)" fill="#172a88"/>
          <path id="Path_746" data-name="Path 746" d="M69.7,99.8,66,102.019A29.349,29.349,0,0,0,69.7,99.8Z" transform="translate(15.303 23.219)" fill="#91bee6"/>
          <path id="Path_747" data-name="Path 747" d="M66.27,102.458l-.37-.74L69.6,99.5l.493.74A42.976,42.976,0,0,1,66.27,102.458Z" transform="translate(15.28 23.149)" fill="#172a88"/>
          <path id="Path_748" data-name="Path 748" d="M183.6,89.894s-.74,4.437-7.765,4.437c-5.546,0-14.174-3.451-14.914,3.821-4.807-6.779-9.367-3.821-14.914-3.821-7.026,0-7.765-4.437-7.765-4.437-2.465,25.144,18,21.939,18,21.939h.986c-.247,3.944-1.726,8.258-6.409,10.353-5.177,2.342-18.242-5.546-33.4-24.528-3.2-4.807-5.546-8.628-6.04-9.491-3.328-4.56,11.832-44.618,14.791-47.823,3.944-4.191,8.751-6.163,9.86-8.628s1.109-8.381.246-12.2-7.149-4.93-10.477-6.286S96.214,19.885,88.2,21.241s-9,4.807-9,4.807c-1.6,8.874,1.972,18.488,4.93,21.323s8.751,2.219,13.681-2.588S97.077,31.1,116.551,27.65c12.326-2.1-1.849,30.691-5.423,42.03s-11.709,10.6-15.9,6.779C84.012,65.982,64.291,60.436,54.554,59.943s-23.172,3.821-23.418,8.135c-2.219,47.576,15.9,58.669,28.6,67.914,9.614,6.9,35.5-21.693,42.523-23.665s13.681,12.572,21.57,22.186c4.684,5.793,18.858,13.312,22.925,11.709,6.533-2.588,10.23-6.286,12.572-10.723,5.546-8.5,7.026-18.858,7.4-23.418C170.537,112.2,185.82,111.833,183.6,89.894Z" transform="translate(7.152 3.051)" fill="#172a88"/>
          <path id="Path_749" data-name="Path 749" d="M13.381,35.992s.493-15.037-2.958-22.186S17.942-3.942,25.707,1.481,30.637,24.037,13.381,35.992Z" transform="translate(2.227 0.009)" fill="#00a0e9"/>
          <path id="Path_750" data-name="Path 750" d="M7.757,47.988S-3.953,91.25,1.471,116.271s13.065,36.607,22.679,34.388,9.984-22.432,12.2-35.621c2.219-13.8.74-20.707-.74-13.188-3.2,15.777-8.5,23.665-13.435,16.27s-5.546-59.779-1.972-66.681C21.438,48.727,13.8,42.811,7.757,47.988Z" transform="translate(-0.037 10.692)" fill="#00a0e9"/>
          <path id="Path_751" data-name="Path 751" d="M58.5,57.5a5.3,5.3,0,1,1-5.3-5.3h0A5.261,5.261,0,0,1,58.5,57.5Z" transform="translate(11.094 12.15)" fill="#f5f5f5"/>
          <path id="Path_752" data-name="Path 752" d="M55.919,56.621a3.76,3.76,0,1,1-3.7-3.821h0A3.9,3.9,0,0,1,55.919,56.621Z" transform="translate(11.21 12.289)" fill="#172a88"/>
          <path id="Path_753" data-name="Path 753" d="M102.568,88.168c-3.328-4.56,11.832-44.618,14.791-47.823,4.067-4.191,8.751-6.163,9.86-8.628s1.109-8.381.247-12.2-7.149-4.93-10.477-6.286-29.7,6.779-37.716,8.135-9,4.807-9,4.807c-1.6,8.874,1.972,18.488,4.93,21.323s8.751,2.219,13.681-2.588-.616-13.8,18.858-17.132c12.326-2.1-1.849,30.691-5.423,42.03-3.328,10.353-10.353,10.6-14.791,7.642,5.67,4.437,11.956,9.491,16.393,13.065A12.9,12.9,0,0,0,102.568,88.168Z" transform="translate(16.205 3.052)" fill="#00a0e9"/>
          <path id="Path_754" data-name="Path 754" d="M69,100.6Z" transform="translate(16.001 23.405)" fill="#91bee6"/>
          <path id="Path_755" data-name="Path 755" d="M69.17,101.186l-.123-.37-.123.247.123-.247h0l-.247.123.247-.123-.247-.493.37-.123.247.123.37.493Z" transform="translate(15.954 23.312)" fill="#172a88"/>
          <path id="Path_756" data-name="Path 756" d="M76.881,101.023a27.006,27.006,0,0,0,5.67-6.163,27.069,27.069,0,0,1-1.726-2.219q-1.664-2.588-2.958-4.807c-1.726-1.109-3.821-2.342-6.04-3.574-1.972-1.109-4.067-2.219-6.163-3.328L63.2,79.7a65.805,65.805,0,0,0,7.149,13.312A68.565,68.565,0,0,0,76.881,101.023Z" transform="translate(14.652 18.545)" fill="#fff"/>
          <path id="Path_757" data-name="Path 757" d="M77.021,101.8l-.247-.247c-2.342-2.588-4.56-5.177-6.656-8.012A63.98,63.98,0,0,1,62.97,80.109L62.6,79l.986.493,2.465,1.233c2.219,1.233,4.314,2.342,6.163,3.328,2.342,1.233,4.314,2.465,6.04,3.574h.123c.986,1.726,2.1,3.328,3.081,4.93a27.07,27.07,0,0,0,1.726,2.219l.247.247-.123.247a27.537,27.537,0,0,1-5.793,6.163ZM64.079,80.726a72.906,72.906,0,0,0,6.656,12.2,94.129,94.129,0,0,0,6.286,7.642,26.182,26.182,0,0,0,5.053-5.423,21.787,21.787,0,0,1-1.479-2.1,49.1,49.1,0,0,1-2.958-4.684c-1.726-.986-3.7-2.219-5.916-3.451-1.849-.986-3.944-2.1-6.163-3.328Z" transform="translate(14.512 18.382)" fill="#172a88"/>
          <path id="Path_758" data-name="Path 758" d="M36.142,75.8a16.565,16.565,0,0,0-.37,8.5,27.475,27.475,0,0,0,1.109,4.807c1.972,7.272,4.93,12.2,8.5,15.407a20.853,20.853,0,0,0,8.874,4.807,34.027,34.027,0,0,0,4.93.74A91.067,91.067,0,0,1,45.017,95.028,58.177,58.177,0,0,1,36.142,75.8Z" transform="translate(8.184 17.638)" fill="#fff"/>
          <path id="Path_759" data-name="Path 759" d="M60.64,110.984l-1.356-.123a35.691,35.691,0,0,1-5.053-.74,21.258,21.258,0,0,1-9.121-4.93c-3.944-3.574-6.779-8.751-8.628-15.653-.37-1.479-.74-3.2-1.109-4.807a17.522,17.522,0,0,1,.37-8.751l.493-1.479.37,1.479a57.246,57.246,0,0,0,9,18.981A85.466,85.466,0,0,0,59.654,110Zm-24.4-33.032a17.238,17.238,0,0,0,.123,6.656,28.832,28.832,0,0,0,1.109,4.684c1.726,6.779,4.56,11.832,8.381,15.16a21.554,21.554,0,0,0,8.751,4.684,33.784,33.784,0,0,0,3.451.616,80.079,80.079,0,0,1-13.065-14.3A55.567,55.567,0,0,1,36.235,77.951Z" transform="translate(8.091 17.336)" fill="#172a88"/>
          <path id="Path_760" data-name="Path 760" d="M67.342,110.488c.863-.246,1.726-.493,2.465-.74l1.356-.493c1.233-.616,2.465-1.109,3.7-1.726h.123A90.562,90.562,0,0,1,64.26,95.451C58.344,86.823,56,79.921,55.139,75.484L51.812,74c-2.465-1.109-4.56-1.972-6.163-2.588-.74-.247-1.356-.493-1.849-.616.247,2.588.74,11.463,9.86,25.021A85.828,85.828,0,0,0,67.342,110.488Z" transform="translate(10.14 16.475)" fill="#fff"/>
          <path id="Path_761" data-name="Path 761" d="M67.288,111.1l-.123-.123A81.92,81.92,0,0,1,53.484,96.184c-8.751-12.819-9.614-21.816-9.86-24.774L43.5,70.3l.616.123a16.2,16.2,0,0,1,1.849.616c1.6.616,3.7,1.479,6.163,2.588q1.479.74,3.328,1.479l.247.123v.247A55.433,55.433,0,0,0,64.823,95.2a81.711,81.711,0,0,0,10.6,11.956l.493.37-.616.37c-1.233.616-2.465,1.109-3.7,1.726a6.007,6.007,0,0,1-1.356.493l-2.588.74ZM44.363,71.533c.247,3.081,1.356,11.709,9.737,24.158a88.339,88.339,0,0,0,13.435,14.544,15.613,15.613,0,0,0,2.219-.74A5.151,5.151,0,0,0,70.986,109l3.2-1.479A83.917,83.917,0,0,1,63.96,95.814,57.006,57.006,0,0,1,54.839,75.97l-3.081-1.356C49.293,73.5,47.2,72.642,45.6,72.026A5.151,5.151,0,0,0,44.363,71.533Z" transform="translate(10.071 16.359)" fill="#172a88"/>
          <path id="Path_762" data-name="Path 762" d="M66.074,111.159l.616-.123a17.451,17.451,0,0,0,2.465-.493A81.195,81.195,0,0,1,55.474,95.875c-9.121-13.435-9.614-22.432-9.86-25.021-.37-.123-.616-.123-.986-.247a7.226,7.226,0,0,0-3.944.616A9.135,9.135,0,0,0,36,77.017a56.085,56.085,0,0,0,9,19.228,81.781,81.781,0,0,0,14.174,15.037h1.479A40.29,40.29,0,0,0,66.074,111.159Z" transform="translate(8.327 16.421)" fill="#fff"/>
          <path id="Path_763" data-name="Path 763" d="M61.337,111.978H60.6a6,6,0,0,1-1.479-.123H59l-.123-.123A86.914,86.914,0,0,1,44.7,96.571a55.619,55.619,0,0,1-9-19.351v-.247a10.048,10.048,0,0,1,4.93-6.039,7.025,7.025,0,0,1,4.191-.616,2.322,2.322,0,0,1,.986.247l.247.123.123.74c.247,2.835,1.109,11.586,9.737,24.281a85.128,85.128,0,0,0,13.558,14.667l.616.493-.863.246a17.45,17.45,0,0,1-2.465.493h-.616C64.665,111.855,62.939,111.855,61.337,111.978Zm-2.1-.986H60.6c1.849,0,3.7-.123,5.546-.247l.616-.123a6.187,6.187,0,0,0,1.479-.246A83.752,83.752,0,0,1,55.174,96.2c-8.751-12.819-9.614-21.816-9.86-24.774V71.3a5.338,5.338,0,0,1-.616-.123A6.388,6.388,0,0,0,41,71.8a8.478,8.478,0,0,0-4.437,5.423,58.855,58.855,0,0,0,8.874,18.858A79.362,79.362,0,0,0,59.242,110.992Z" transform="translate(8.257 16.341)" fill="#172a88"/>
          <path id="Path_764" data-name="Path 764" d="M72.844,106.646l.616-.37a43.207,43.207,0,0,0,4.93-3.328l.986-.74c-2.342-2.588-4.56-5.177-6.656-8.012a63.091,63.091,0,0,1-7.149-13.312l-3.7-1.972c-1.972-.986-4.067-1.972-5.916-2.958L53,74.6c.986,4.437,3.2,11.216,9.121,19.967A90.562,90.562,0,0,0,72.844,106.646Z" transform="translate(12.28 17.359)" fill="#fff"/>
          <path id="Path_765" data-name="Path 765" d="M72.837,107.279l-.247-.247A90.562,90.562,0,0,1,61.867,94.953a59.7,59.7,0,0,1-9.244-20.091L52.5,74l.74.37,2.835,1.356,5.916,2.958,3.7,1.972.123.123V80.9A63.091,63.091,0,0,0,72.96,94.214a67.258,67.258,0,0,0,6.533,7.888l.37.37-.37.247-.986.863a43.206,43.206,0,0,1-4.93,3.328l-.37.247ZM53.733,75.6A58.855,58.855,0,0,0,62.607,94.46,93.671,93.671,0,0,0,72.96,106.293l.37-.247a46.523,46.523,0,0,0,4.807-3.2l.616-.493c-2.219-2.465-4.437-5.053-6.409-7.642A69.266,69.266,0,0,1,65.2,81.4l-3.451-1.972L55.7,76.465Z" transform="translate(12.164 17.219)" fill="#172a88"/>
          <path id="Path_766" data-name="Path 766" d="M79.784,93.349a4.925,4.925,0,0,0,.863-2.219v-.493C80.4,89.9,78.3,88.3,75.1,86.2q1.294,2.219,2.958,4.807C78.674,91.87,79.167,92.609,79.784,93.349Z" transform="translate(17.419 20.056)" fill="#172a88"/>
          <path id="Path_767" data-name="Path 767" d="M69.7,100.6c-1.233.616-2.465,1.109-3.7,1.726A24.879,24.879,0,0,0,69.7,100.6Z" transform="translate(15.303 23.405)" fill="#91bee6"/>
          <path id="Path_768" data-name="Path 768" d="M66.17,102.865l-.37-.74c1.233-.616,2.465-1.109,3.7-1.726l.37.74C68.758,101.756,67.526,102.249,66.17,102.865Z" transform="translate(15.257 23.359)" fill="#172a88"/>
          <path id="Path_769" data-name="Path 769" d="M69.7,100.6c-1.233.616-2.465,1.109-3.7,1.726A24.879,24.879,0,0,0,69.7,100.6Z" transform="translate(15.303 23.405)" fill="#91bee6"/>
          <path id="Path_770" data-name="Path 770" d="M66.17,102.865l-.37-.74c1.233-.616,2.465-1.109,3.7-1.726l.37.74C68.758,101.756,67.526,102.249,66.17,102.865Z" transform="translate(15.257 23.359)" fill="#172a88"/>
          <path id="Path_771" data-name="Path 771" d="M53.4,55.349A1.849,1.849,0,1,1,51.549,53.5h0A1.9,1.9,0,0,1,53.4,55.349Z" transform="translate(11.512 12.452)" fill="#f5f5f5"/>
          <path id="Path_772" data-name="Path 772" d="M123.626,36.174a3.513,3.513,0,1,1-3.574-3.574A3.577,3.577,0,0,1,123.626,36.174Z" transform="translate(27.07 7.592)" fill="#00a0e9"/>
          <path id="Path_773" data-name="Path 773" d="M114.758,42.479A1.479,1.479,0,1,1,113.279,41h.123A1.581,1.581,0,0,1,114.758,42.479Z" transform="translate(25.954 9.545)" fill="#00a0e9"/>
          <path id="Path_774" data-name="Path 774" d="M126.5,18.1a3.7,3.7,0,1,1-3.7-3.7A3.632,3.632,0,0,1,126.5,18.1Z" transform="translate(27.652 3.359)" fill="#00a0e9"/>
          <path id="Path_775" data-name="Path 775" d="M129.551,23.226a1.726,1.726,0,1,1-1.726-1.726,1.763,1.763,0,0,1,1.726,1.726Z" transform="translate(29.279 5.01)" fill="#00a0e9"/>
          <path id="Path_776" data-name="Path 776" d="M70.251,40.926A1.726,1.726,0,1,1,68.526,39.2a1.685,1.685,0,0,1,1.726,1.726Z" transform="translate(15.489 9.127)" fill="#00a0e9"/>
          <path id="Path_777" data-name="Path 777" d="M68.86,31.807a4.93,4.93,0,1,1-9.86,0,4.932,4.932,0,0,1,9.86,0Z" transform="translate(13.675 6.289)" fill="#00a0e9"/>
        </g>
      </g>
      <g id="Group_71" data-name="Group 71" transform="translate(171.316 152.715)">
        <path id="Path_778" data-name="Path 778" d="M148.86,123.9a9.215,9.215,0,0,1,7.026,2.958,9.929,9.929,0,0,1,1.479,11.956,10.242,10.242,0,0,1-3.7,3.574,9.32,9.32,0,0,1-4.807,1.233,9.215,9.215,0,0,1-7.026-2.958,9.929,9.929,0,0,1-1.479-11.956,10.242,10.242,0,0,1,3.7-3.574A11.584,11.584,0,0,1,148.86,123.9Zm0,1.726a7.756,7.756,0,0,0-5.916,2.588,8.013,8.013,0,0,0-2.219,5.67,7.756,7.756,0,0,0,2.588,5.916,8.013,8.013,0,0,0,5.67,2.219,7.756,7.756,0,0,0,5.916-2.588,8.013,8.013,0,0,0,2.219-5.67,7.756,7.756,0,0,0-2.588-5.916A8.014,8.014,0,0,0,148.86,125.626Zm-4.314,13.681v-10.6h3.7a13.494,13.494,0,0,1,2.712.247,3.5,3.5,0,0,1,1.356.986,2.477,2.477,0,0,1,.493,1.6,2.7,2.7,0,0,1-.863,2.1,4.1,4.1,0,0,1-2.219.986,2.684,2.684,0,0,1,.986.616,7.66,7.66,0,0,1,1.479,2.1l1.233,2.1h-2.1l-.986-1.726a14.948,14.948,0,0,0-1.726-2.465,2.214,2.214,0,0,0-1.356-.37h-.986v4.56h-1.726Zm1.726-6.039h2.1a3.678,3.678,0,0,0,1.972-.37,1.36,1.36,0,0,0,.616-1.233,1.782,1.782,0,0,0-.247-.863,2.578,2.578,0,0,0-.74-.493,5.119,5.119,0,0,0-1.6-.123H146.4v3.081Z" transform="translate(-139 -123.9)" fill="#172a88"/>
      </g>
    </g>
    <g id="Group_73" data-name="Group 73" transform="translate(453 406)">
      <g id="Group_72" data-name="Group 72" transform="translate(0 0)" clip-path="url(#clip-path)">
        <path id="Path_779" data-name="Path 779" d="M31.325,25.842V22.875H21.647a9.875,9.875,0,0,0,.271-1.45h8.025V18.458H22.019V17.143h7.654V10.3H22.019V9.219H26.2V5.24h5.024V2.171H26.2V.216H22.457V2.171H17.635V.216H14.094V2.171H9.711V3.52A25.587,25.587,0,0,0,3.978.351L1.72,3.385a23.41,23.41,0,0,1,5.766,3.54L9.711,3.756V5.24h4.384V9.219h4.08V10.3H10.891v6.844h7.283v1.315H10.689v2.967H18.04a10.063,10.063,0,0,1-.337,1.45H9.441v2.967h6.272C14.3,27.09,12.071,28.1,8.666,28.776a13.778,13.778,0,0,1,2.326,3.035c4.856-1.214,7.688-3.169,9.24-5.564,1.989,2.9,4.99,4.721,9.407,5.564a11.913,11.913,0,0,1,2.292-3.271,15.168,15.168,0,0,1-7.62-2.7ZM17.635,5.24h4.822V6.69H17.635Zm8.227,9.341H22.018v-1.72h3.844ZM14.5,12.86h3.675v1.72H14.5ZM7.991,12.49A22.076,22.076,0,0,0,2.158,9.421L0,12.422a23.581,23.581,0,0,1,5.665,3.405Zm-1.753,5.7A99.481,99.481,0,0,1,.809,28.978l3.608,2.361c1.72-3.271,3.506-7.149,4.99-10.756Z" transform="translate(0 -0.014)" fill="#00a0e9"/>
        <path id="Path_780" data-name="Path 780" d="M66.617,18.242H54.041v-.573a33.834,33.834,0,0,0,7.452-5.833l-2.664-2.09-.911.2h-14.9V13.69H53.871a23.059,23.059,0,0,1-4.114,2.765v1.787H37.248v3.811H49.757v4.991c0,.472-.2.607-.877.607s-3.2,0-5.292-.067a14.538,14.538,0,0,1,1.753,4.08c2.764,0,4.923-.034,6.541-.675,1.651-.607,2.159-1.686,2.159-3.843V22.053H66.617ZM41.362,7.216H62.234v3.945h4.147V3.439h-11.6A15.246,15.246,0,0,0,52.726,0L48.712,1.214a17.494,17.494,0,0,1,1.316,2.225H37.416v7.722h3.945Z" transform="translate(-2.382 0)" fill="#00a0e9"/>
        <path id="Path_781" data-name="Path 781" d="M102.46,1.726H84.993V5.4H98.818V27.05c0,.573-.2.775-.775.775-.607,0-2.529.034-4.282-.067a14.267,14.267,0,0,1,1.213,3.979c2.765,0,4.62-.1,5.867-.742,1.248-.674,1.619-1.753,1.619-3.877ZM97.334,7.391h-11.7l.034,3.339H97.334ZM96.356,23.88V12.787H86.477V25.87h3.338V23.88ZM92.95,20.508H89.815v-4.35H92.95ZM81.216,4.593A35.41,35.41,0,0,0,78.924.108L75.99,1.558a34.688,34.688,0,0,1,2.023,4.249H72.55V8.976H84.959l-.034-3.169h-5.8Zm-7.283,8.936h9.914V10.494H73.933Zm0,4.518h9.981V15.012H73.933Zm10.049,1.619H73.933V31.3h3.474V29.883h6.575Zm-3.439,6.979H77.406V22.868h3.136Z" transform="translate(-4.639 -0.007)" fill="#00a0e9"/>
        <path id="Path_782" data-name="Path 782" d="M127.884,23.444a49.119,49.119,0,0,1,7.385,6.508l3.54-2.361a52.289,52.289,0,0,0-7.654-6.305Zm5.159-4.518a29.629,29.629,0,0,1,2.091,3l3.136-1.888a40.82,40.82,0,0,0-6.609-7.654l-3.035,1.585c.641.607,1.281,1.281,1.922,1.989l-10.15.709A74.506,74.506,0,0,0,133.11,8.642l-2.9-2.6a57.307,57.307,0,0,1-4.754,3.641l-6.744.337a47.471,47.471,0,0,0,5.665-4.687,91.186,91.186,0,0,0,11.97-1.888l-2.833-3.3c-5.7,1.348-15.072,2.225-23.3,2.528a13.839,13.839,0,0,1,.944,3.507c2.5-.067,5.058-.2,7.654-.372A33.44,33.44,0,0,1,114.6,9.148a6.072,6.072,0,0,1-2.563,1.281,29.056,29.056,0,0,1,1.147,3.405c.741-.27,1.854-.473,7.148-.81-2.225,1.315-4.046,2.26-5.058,2.731a15.111,15.111,0,0,1-4.754,1.821,32.758,32.758,0,0,1,1.147,3.541c1.112-.438,2.6-.641,10.352-1.281v7.385c0,.4-.169.505-.742.539-.573,0-2.63,0-4.35-.1a15.423,15.423,0,0,1,1.45,3.945c2.5,0,4.384-.034,5.833-.64,1.484-.641,1.888-1.653,1.888-3.608V19.5Zm-17.77,2.529a22.778,22.778,0,0,1-6.879,5.833,28.106,28.106,0,0,1,3.507,2.664,37.212,37.212,0,0,0,7.418-7.014Z" transform="translate(-6.931 -0.009)" fill="#00a0e9"/>
        <path id="Path_783" data-name="Path 783" d="M170.766.613V27.049c0,.573-.2.741-.776.741-.539.034-2.36.034-4.08-.034a15.585,15.585,0,0,1,1.281,3.844c2.731.034,4.619-.1,5.9-.709,1.281-.64,1.72-1.652,1.72-3.843V.613ZM167.8,3.884h-3.945V23.171H167.8ZM144.768,5.637h4.485c-.978,4.552-2.7,8.8-5.125,11.5a18.4,18.4,0,0,1,3.035,2.765,26.3,26.3,0,0,0,3.911-6.946h6.239a30.429,30.429,0,0,1-2.192,6.339c-1.147-.977-2.731-2.191-3.844-3.068l-2.36,3.068a45.086,45.086,0,0,1,3.979,3.541,17.483,17.483,0,0,1-7.722,5.8,17.148,17.148,0,0,1,2.394,3.405c7.721-3.574,12.543-10.386,14.163-22.154L159.2,9.143l-.675.136h-6.2c.371-1.18.675-2.394.978-3.642h9V1.792H144.768Z" transform="translate(-9.216 -0.039)" fill="#00a0e9"/>
      </g>
    </g>
  </g>
</svg>
