<?xml version="1.0" encoding="utf-8"?>
<!-- Generator: Adobe Illustrator 25.4.1, SVG Export Plug-In . SVG Version: 6.00 Build 0)  -->
<svg version="1.1" id="圖層_1" xmlns="http://www.w3.org/2000/svg" xmlns:xlink="http://www.w3.org/1999/xlink" x="0px" y="0px"
	 viewBox="0 0 84.3 24.9" style="enable-background:new 0 0 84.3 24.9;" xml:space="preserve">
<style type="text/css">
	.st0{fill-rule:evenodd;clip-rule:evenodd;}
</style>
<g id="圖層_2_00000158743557727564431430000016419318786267122869_">
	<g id="圖層_1-2">
		<path d="M42,15.6c-0.4-2,2.3-2.1,2.1-4.9c-2.2-0.5-6.8-0.9-7.3,1.4H42c-0.7,1.1-1.5,2-2.1,3.1c0.2,1.5,1.7,1.6,2.1,2.8
			c-2.3,1.4-5.1,2.4-5.9,5.2c3.4,4,9.7-0.5,10.1-4.9c1.5,0,3.1,0.1,3.1-1.4C46,15.8,42.7,18.8,42,15.6z M38.9,23.6
			c0.1-2.6,3.3-3.8,4.9-3.8C44.2,21.7,40.8,24.2,38.9,23.6L38.9,23.6z"/>
		<path d="M47.6,3.1c-4.2-1.1-12,4.8-15,4.9c2.2-3.1,7.5-3,8.7-7c-1.2-0.7-4-0.4-4.9,0.4c-0.1,1.5,1.4,1.4,1.8,2.5
			c-2.9,2-8,3.6-8.4,7c4.7-2.9,11.3-3.8,17.1-5.6c0.3,0.5,1,0.7,1,1.4C48.1,8,47.2,8.4,46.5,9C51.9,10.9,50.5,3.9,47.6,3.1z"/>
		<path d="M71.2,13.6C72.7,10,73.4,4.5,70.5,2c-3.6,0.4-4.5,3.5-7.3,4.7c-1.1-0.3-0.7-2.2-2.5-1.8c-1.5,0.2-1.9,1.5-1.8,3.3
			C60,8,61.7,6,62.5,7.8c-0.9,2.5-6,7.4-1.8,9.4c2.8-0.9,2.4-4.8,2.5-8.3c2.2-1.9,3.2-5,6.9-5.4c2,1.2,1.3,7.3-0.4,8.4
			c-0.1-0.9-0.2-1.7-1.4-1.5c-2.2,0.4-1.5,2.1-1.4,4.4c-1.4,2.5-3.6,4.2-3.3,8.4c2.3-0.7,2.7-4.9,5.5-4c0.6,3.5-3,2.9-3.3,5.5
			c1.1-0.3,1.3,0.4,2.2,0.4c2.2-0.9,3.4-5.2,1.8-7.6c-1.1-0.5-2,1.1-2.5,0C67.5,15,69.8,14.7,71.2,13.6z M60.7,15.8
			c-1-0.8,0.1-2.5,0.4-3.3C62.1,13.3,60.9,15,60.7,15.8z"/>
		<path d="M78.9,4.5c-2.9-1.5-5,0.7-5.5,2.9C75,5.9,79.5,8.7,78.9,4.5z"/>
		<path d="M80,9.6c-4.5-0.2-7.6,2.8-8.4,5.1c1.8,1,3.6-2.5,5.4-1.4c-1.4,2.2-3.5,3.8-4.4,6.5C75,16.6,81.6,14.4,80,9.6z"/>
		<path d="M82.1,18.3c-0.2,1.4,0.6,1.8,0.4,3.3c-1.9,1.3-4.5,0.9-5.8-1c-0.3-0.5-0.6-1-0.7-1.5c-2.7,5.5,6.1,7.7,8.4,4
			C83.7,21.3,83.5,19.3,82.1,18.3z"/>
		<path class="st0" d="M15.6,20.2c2.8,0.5,6.2,2,5.1,4.7C20.2,25,16.1,22.3,15.6,20.2z"/>
		<path class="st0" d="M7.9,8.7C7.6,9.2,8.4,9.7,8.8,9.6c0.2,0,0.1-0.9,0.4-1.1c1.9-1.2,3.9-2.3,5.9-3.2c1.2-0.5,2.4-1.1,3.5-1.8
			C20.7,2.2,18.8,0.3,17,0c-2.8-0.4-4.9,3-6.9,3.7C9.4,3.1,9,2.2,7.9,2c0,2.1,1,4,2.8,5C9.4,7.8,8.3,8.2,7.9,8.7z M11.9,6.1
			c-0.8-2.4,3.1-7,4.9-3.8C15.8,4.1,13.8,5,11.9,6.1L11.9,6.1z"/>
		<path class="st0" d="M4.2,4.4c0.5-2-1-3.4-2.9-3.9C0.5,1.7,2,2.8,1.9,4.2C1.9,4.5,3.8,5.7,4.2,4.4z"/>
		<path class="st0" d="M2.5,20.1c1.8-1,2-2.4,3.8-3.4c-2.4,2.3-1.6,5.5-4,7.4c-2.7-2.3-2.8-8.4-1.3-12.9C1.5,9.8,3,11,3,11
			C2.4,14,1.3,16.9,2.5,20.1z"/>
		<path class="st0" d="M19.7,8.4c-2.5-0.1-9.5,2-9.5,2c-0.9,0.4-1.5,2.1-1.7,3.2s0.5,1.2,1.1,1.3s8.6-1.6,10.3-2
			c0.9-0.6,1.6-1.6,1.8-2.7C21.7,9.5,20.1,8.4,19.7,8.4z M17.6,11.3c-0.8,0.4-6.6,1.9-6.6,1.4s0.4-1.5,0.7-1.7c0,0,3.6-0.8,4.5-1
			C17.5,9.7,18.4,10.9,17.6,11.3z"/>
		<path class="st0" d="M7.9,16.4c0,0,13.6-3.9,12.7,0.1c0,0.1-1.2-0.3-2.2-0.3s-9.8,1.7-10,1.7C7.6,17.6,7.2,16.4,7.9,16.4z"/>
		<path class="st0" d="M7.3,19.4c0,0,14-3.8,13.8-0.3c0,0.6-2-0.6-3.8-0.3s-6.9,2.1-8,2S6.7,20.1,7.3,19.4z"/>
		<path class="st0" d="M13.3,7.8c0.3,2.7,0.3,5.5,0,8.2c-0.7,3.5-5.1,8.2-6.1,8.6s2.1,0,4.1-1.3c4.4-2.9,4.7-11.5,4.5-16.1
			C15.7,6.4,13.1,7.7,13.3,7.8z"/>
		<path class="st0" d="M9.1,8.8c0,0,3.6-1.6,4.5-1.8s4.8-1.7,6.4-1.3C21,6,22.3,7,22.1,7.4s-0.6,0-2,0C16,7.3,9,10,8.7,9.6
			C7.9,8.4,8.4,9.3,9.1,8.8z"/>
	</g>
</g>
</svg>
