<svg xmlns="http://www.w3.org/2000/svg" viewBox="0 0 77.72 24.87"><defs><style>.cls-1,.cls-2{fill-rule:evenodd;}.cls-2{fill:#fff;}</style></defs><g id="圖層_2" data-name="圖層 2"><g id="圖層_1-2" data-name="圖層 1"><path class="cls-1" d="M33,6.85a8.65,8.65,0,0,0-2-1.39c2.8-1.29,9.27-1.92,6.65,3.35C34.83,9.66,33,6.85,33,6.85Z"/><path class="cls-1" d="M29.72,12.65h0c-1.71.43-3.09,1.17-5.07,1.37.33,2.91,5.58-.31,6.39-.7a20.32,20.32,0,0,1,4.45-1.61c1.06-.19,1,.33,1,.33a12.07,12.07,0,0,0,3-1.85C38.32,8.94,36.79,10.77,29.72,12.65Z"/><path class="cls-1" d="M41.23,7.54C43.3,6.05,48.48,2.1,51.71,4c.16,5.36-1,11.93-.4,19.18-.2.76-.34.76-1.34,1-3.43.38-3.65-2.58-4.82-4.55l-.24-.43.58.08c1.2.32,1.69,1.76,3.06,1.43,0-3.59.57-10.62-.15-15-2.3,0-4.73,2.63-6.86,2.76L40,8.26Z"/><path class="cls-1" d="M47.2,11.16c-.47-2.73-4.36-.49-6.48-.49C41.37,14.25,44.92,12.41,47.2,11.16Z"/><path class="cls-1" d="M47.53,13.92c-2.35-1.77-5.58.59-8,.95,0,1.76.39,3.26,1.44,4.11C45.1,19.05,47.24,17.31,47.53,13.92Zm-5.42,3.29c.06-.63-.45-.72-.35-1.38,1.35-.09,1.73-1,3.08-1.14C44.26,15.83,43.68,17,42.11,17.21Z"/><path class="cls-1" d="M36,23a6.85,6.85,0,0,0,2.33-4.25c-3-1.14-6.67,2-6.67,2s-.16.07-.08.49,1.71,2.13,2.57,1.91C34.48,23.06,35.86,23.09,36,23Z"/><path class="cls-1" d="M37.51,15.75c-.06,1.87-2.71,1.63-3.95,2.44-.48-.16-1.33-1.56-.62-1.76C32.94,16.43,36.44,15,37.51,15.75Z"/><path class="cls-1" d="M35.88,12.74s.26,0,.92.84c-.34,1-3.11,1.17-3.75,1C33.05,14.59,32.19,13,35.88,12.74Z"/><path class="cls-2" d="M36.45,19.63C36.38,19.89,35.37,22,35,22c-1.66.22-1.66-.48-1.75-1S36.52,19.36,36.45,19.63Z"/><path class="cls-1" d="M15.6,20.19c2.83.53,6.19,2,5.11,4.67C20.19,25,16.12,22.35,15.6,20.19Z"/><path class="cls-1" d="M7.92,8.71c-.35.52.52.95.9.93.16,0,.1-.93.35-1.11a50.35,50.35,0,0,1,5.89-3.18,22,22,0,0,0,3.48-1.79C20.7,2.2,18.76.3,17,0c-2.81-.42-4.85,2.9-6.9,3.67C9.36,3.1,9,2.2,7.88,2a5.6,5.6,0,0,0,2.82,5C9.42,7.84,8.28,8.18,7.92,8.71Zm4-2.65c-.83-2.4,3.11-7,4.86-3.82C15.84,4.12,13.78,5,12,6.06Z"/><path class="cls-1" d="M4.15,4.37c.48-2-1-3.37-2.92-3.88-.69,1.24.76,2.31.7,3.7C1.92,4.46,3.84,5.66,4.15,4.37Z"/><path class="cls-1" d="M2.52,20.11c1.8-1,2-2.36,3.75-3.39-2.37,2.3-1.61,5.5-4,7.41C-.41,21.79-.54,15.78,1,11.23c.46-1.39,2-.24,2-.24C2.39,14,1.32,16.86,2.52,20.11Z"/><path class="cls-1" d="M19.73,8.37c-2.51-.06-9.48,2-9.48,2-.9.38-1.48,2.14-1.7,3.17S9,14.79,9.67,14.81s8.58-1.65,10.28-2a4.21,4.21,0,0,0,1.78-2.69C21.67,9.47,20.09,8.38,19.73,8.37Zm-2.11,2.92c-.78.35-6.61,1.86-6.59,1.39s.41-1.54.71-1.66c0,0,3.63-.76,4.52-1C17.54,9.74,18.41,10.93,17.62,11.29Z"/><path class="cls-1" d="M7.86,16.39s13.58-3.86,12.74.15c0,.14-1.17-.31-2.25-.33s-9.79,1.72-10,1.66C7.59,17.64,7.16,16.4,7.86,16.39Z"/><path class="cls-1" d="M7.26,19.42s14-3.81,13.75-.28c0,.64-2.05-.59-3.8-.29s-6.87,2.07-8,2S6.69,20.09,7.26,19.42Z"/><path class="cls-1" d="M13.34,7.8a44.27,44.27,0,0,1,0,8.2c-.66,3.54-5.14,8.2-6.12,8.6s2.09,0,4.08-1.29c4.4-2.88,4.65-11.47,4.5-16.12C15.74,6.45,13.1,7.67,13.34,7.8Z"/><path class="cls-1" d="M9.09,8.81S12.66,7.26,13.61,7,18.4,5.27,20,5.7C21,6,22.28,7,22.14,7.36s-.6,0-2,0C16,7.31,9,10.05,8.68,9.59,7.88,8.42,8.42,9.27,9.09,8.81Z"/><path class="cls-1" d="M65.78,9.91c-.37,1.1-2.22.72-3.32,1.1-.08-.65.37-1.84-.73-1.47C62.67,8.62,65.11,9.32,65.78,9.91Z"/><path class="cls-1" d="M63.58,18.15l.19-.56s1.17-4,1.17-4.08c0-.48-.62-.52-1.21-.39s-1.43-.12-1.23.07c.21,2.66-.91,4.58-1.37,6.57.23.51,1.21,1,1.47.74,1.65-.45,2.25-1.93,2.95-3.32Z"/><path class="cls-1" d="M72.58,20.36c2.34,0,5,.1,5.11-1,.47-.92-4-.42-4.42-.73-.39-1.81.23-1.44,2.39-1.87.69-.13.58-.64.37-.85s-.46-.65-1-.46a3.5,3.5,0,0,1-1.6.18c-.19-.06-.1-.54-.14-.69-.23-.83,2.57-.52,2.62-.71s0-1.15-.72-1.27H75.1c-2.36.36-2,.29-2.2-.95.92-.93,3.23-.46,3.32-2.21,0-.76-3.06.15-4.12.7a2.25,2.25,0,0,0-.42.24c-.34.2-.66.41-1,.63a7.57,7.57,0,0,1-1.47.55C69.49,8.36,74.5,8,74,5c-1.88-.63-3.41,1-4.06.37.15-.53.45-.62,0-1.11,1.5-.71,4.43,0,4.43-2.21-3.11-2.83-7.53.53-11,1-.07,0-1.2,0-1.85-.08s-.57.8-.23,1a5.55,5.55,0,0,0,2.29.45,3.52,3.52,0,0,0,.93,0A8.3,8.3,0,0,1,67.75,5c-1.29,1.56-2.17,5.15.36,4.79a49.47,49.47,0,0,1-1.7,5.2,5.14,5.14,0,0,1-1.12,1.61c-.49.27.59.37,1.72-.18.26,2.25-.36,3.62-.37,5.61-2.72.28-5.18.56-5.42.57-.51,0-.79-1.11-.79-1.11v0c.71-4,.41-9.07.7-13.52-.59-.43-2-1.93-2.95-.74,2,4.22-1.16,10.68-.37,16.57a.81.81,0,0,0,.46.51h0l.15,0h0c4.59,1.2,13.61-1,19.25-.92.21-3.33-4.45-2.11-7-1.78l-.72.06c-.58,0-1-.06-1-.37,0-.11-.07-.63-.1-.79C69.36,20.55,70.87,20.35,72.58,20.36Zm-3.46-7.21s0-.07.1-.08v0l.52-.15,1.33-.48c.16.07.14.8.11,1.23a9.79,9.79,0,0,1-2.25.46A1.41,1.41,0,0,1,69.12,13.15Zm-.27,3.36c0-.37,0-.71,0-1,.69,0,2.31-.16,2.54-.18a1.61,1.61,0,0,1,.07.4c0,.06,0,.31,0,.37-.06.7-2.32.94-2.67.91Zm-.06,3.15c0-.29.1-1.3.08-1.6.53-.07,1.22-.12,1.91-.14a1.21,1.21,0,0,1,.42,1.6A20.78,20.78,0,0,1,68.79,19.66Z"/></g></g></svg>