<?xml version="1.0" encoding="utf-8"?>
<!-- Generator: Adobe Illustrator 26.3.1, SVG Export Plug-In . SVG Version: 6.00 Build 0)  -->
<svg version="1.1" id="圖層_1" xmlns="http://www.w3.org/2000/svg" xmlns:xlink="http://www.w3.org/1999/xlink" x="0px" y="0px"
	 viewBox="0 0 656.8 89.6" style="enable-background:new 0 0 656.8 89.6;" xml:space="preserve">
<style type="text/css">
	.st0{fill:#004896;}
	.st1{enable-background:new    ;}
	.st2{fill:#FFFFFF;}
	.st3{fill:#FFFFFF;stroke:#FFFFFF;stroke-width:5;stroke-linejoin:round;}
	.st4{fill:#00AFEC;}
	.st5{fill:#00A73C;}
	.st6{fill:#F8BC00;}
	.st7{fill:#AB66A7;}
	.st8{fill:#DB610D;}
	.st9{fill:#F29A76;}
	.st10{fill:#E6E6E6;}
	.st11{fill:#CCCCCC;}
	.st12{fill:#515958;}
	.st13{fill:#0068B7;}
</style>
<g id="Group_1072" transform="translate(-506.178 -400)">
	<path class="st0" d="M1125,400H638c-16.7,0-30.9,10.8-36,25.8l-83.7,63.8l83.5-40.1C606.7,464.9,621,476,638,476h487
		c21,0,38-17,38-38S1146,400,1125,400z"/>
	<g id="Group_1055" transform="translate(-3)">
		<g class="st1">
			<path class="st2" d="M644.1,449l-5.7-21.5h2.9l3.3,14.1c0.4,1.5,0.7,2.9,0.9,4.4c0.5-2.3,0.9-3.6,1-4l4.1-14.5h3.4l3.1,10.9
				c0.8,2.7,1.3,5.2,1.7,7.6c0.3-1.4,0.6-2.9,1.1-4.7l3.4-13.8h2.9l-5.9,21.5h-2.7l-4.5-16.4c-0.4-1.4-0.6-2.2-0.7-2.5
				c-0.2,1-0.4,1.8-0.6,2.5L647,449H644.1z"/>
			<path class="st2" d="M668.7,449v-21.5h2.8v8.8h11.2v-8.8h2.8V449h-2.8v-10.1h-11.2V449H668.7z"/>
			<path class="st2" d="M696.3,449v-9.1l-8.3-12.4h3.5l4.2,6.5c0.8,1.2,1.5,2.4,2.2,3.6c0.6-1.1,1.4-2.4,2.3-3.8l4.2-6.3h3.3
				l-8.6,12.4v9.1H696.3z"/>
			<path class="st2" d="M723.6,449v-9.1l-8.3-12.4h3.5l4.2,6.5c0.8,1.2,1.5,2.4,2.2,3.6c0.6-1.1,1.4-2.4,2.3-3.8l4.2-6.3h3.3
				l-8.6,12.4v9.1H723.6z"/>
			<path class="st2" d="M733.5,441.2c0-2.9,0.8-5,2.4-6.4c1.3-1.2,3-1.7,4.9-1.7c2.1,0,3.9,0.7,5.2,2.1c1.4,1.4,2,3.3,2,5.8
				c0,2-0.3,3.6-0.9,4.7s-1.5,2-2.6,2.7s-2.4,1-3.8,1c-2.2,0-3.9-0.7-5.3-2.1S733.5,443.8,733.5,441.2z M736.2,441.2
				c0,2,0.4,3.5,1.3,4.5s2,1.5,3.3,1.5c1.3,0,2.4-0.5,3.3-1.5s1.3-2.5,1.3-4.6c0-1.9-0.4-3.4-1.3-4.4s-2-1.5-3.3-1.5
				c-1.3,0-2.4,0.5-3.3,1.5S736.2,439.2,736.2,441.2z"/>
			<path class="st2" d="M761.4,449v-2.3c-1.2,1.8-2.9,2.6-4.9,2.6c-0.9,0-1.8-0.2-2.6-0.5s-1.4-0.8-1.8-1.3c-0.4-0.5-0.7-1.2-0.8-2
				c-0.1-0.5-0.2-1.3-0.2-2.5v-9.6h2.6v8.6c0,1.4,0.1,2.3,0.2,2.8c0.2,0.7,0.5,1.2,1.1,1.6c0.5,0.4,1.2,0.6,2,0.6s1.5-0.2,2.2-0.6
				c0.7-0.4,1.2-1,1.5-1.7s0.4-1.7,0.4-3v-8.3h2.6V449H761.4z"/>
			<path class="st2" d="M775.5,442.1l2.7-0.2c0.1,1.1,0.4,2,0.9,2.6c0.5,0.7,1.2,1.2,2.2,1.7c1,0.4,2.1,0.6,3.3,0.6
				c1.1,0,2-0.2,2.9-0.5s1.4-0.8,1.9-1.3c0.4-0.6,0.6-1.2,0.6-1.8c0-0.7-0.2-1.3-0.6-1.8c-0.4-0.5-1-0.9-1.9-1.3
				c-0.6-0.2-1.9-0.6-3.8-1c-2-0.5-3.4-0.9-4.1-1.3c-1-0.5-1.8-1.2-2.3-2c-0.5-0.8-0.8-1.7-0.8-2.7c0-1.1,0.3-2.1,0.9-3
				c0.6-0.9,1.5-1.7,2.7-2.1s2.5-0.7,3.9-0.7c1.6,0,3,0.3,4.2,0.8c1.2,0.5,2.2,1.3,2.8,2.3s1,2.1,1.1,3.4l-2.7,0.2
				c-0.1-1.4-0.6-2.4-1.5-3.1s-2.1-1-3.7-1c-1.7,0-3,0.3-3.8,0.9c-0.8,0.6-1.2,1.4-1.2,2.3c0,0.8,0.3,1.4,0.8,1.9
				c0.5,0.5,2,1,4.3,1.5s3.9,1,4.8,1.4c1.2,0.6,2.2,1.3,2.8,2.2c0.6,0.9,0.9,1.9,0.9,3.1c0,1.1-0.3,2.2-1,3.2
				c-0.7,1-1.6,1.8-2.8,2.4c-1.2,0.6-2.6,0.8-4.1,0.8c-1.9,0-3.6-0.3-4.9-0.8s-2.3-1.4-3.1-2.6S775.6,443.5,775.5,442.1z"/>
			<path class="st2" d="M796.2,449v-21.5h2.6v7.7c1.2-1.4,2.8-2.1,4.7-2.1c1.2,0,2.2,0.2,3,0.7c0.8,0.5,1.5,1.1,1.8,1.9
				s0.5,2,0.5,3.5v9.9h-2.6v-9.9c0-1.3-0.3-2.3-0.9-2.9c-0.6-0.6-1.4-0.9-2.4-0.9c-0.8,0-1.5,0.2-2.2,0.6s-1.2,1-1.5,1.6
				s-0.4,1.7-0.4,2.9v8.5H796.2z"/>
			<path class="st2" d="M811.9,441.2c0-2.9,0.8-5,2.4-6.4c1.3-1.2,3-1.7,4.9-1.7c2.1,0,3.9,0.7,5.2,2.1c1.4,1.4,2,3.3,2,5.8
				c0,2-0.3,3.6-0.9,4.7s-1.5,2-2.6,2.7s-2.4,1-3.8,1c-2.2,0-3.9-0.7-5.3-2.1S811.9,443.8,811.9,441.2z M814.6,441.2
				c0,2,0.4,3.5,1.3,4.5s2,1.5,3.3,1.5c1.3,0,2.4-0.5,3.3-1.5s1.3-2.5,1.3-4.6c0-1.9-0.4-3.4-1.3-4.4s-2-1.5-3.3-1.5
				c-1.3,0-2.4,0.5-3.3,1.5S814.6,439.2,814.6,441.2z"/>
			<path class="st2" d="M839.8,449v-2.3c-1.2,1.8-2.9,2.6-4.9,2.6c-0.9,0-1.8-0.2-2.6-0.5s-1.4-0.8-1.8-1.3c-0.4-0.5-0.7-1.2-0.8-2
				c-0.1-0.5-0.2-1.3-0.2-2.5v-9.6h2.6v8.6c0,1.4,0.1,2.3,0.2,2.8c0.2,0.7,0.5,1.2,1.1,1.6c0.5,0.4,1.2,0.6,2,0.6s1.5-0.2,2.2-0.6
				c0.7-0.4,1.2-1,1.5-1.7s0.4-1.7,0.4-3v-8.3h2.6V449H839.8z"/>
			<path class="st2" d="M846.2,449v-21.5h2.6V449H846.2z"/>
			<path class="st2" d="M863,449v-2c-1,1.5-2.4,2.3-4.4,2.3c-1.2,0-2.4-0.3-3.4-1s-1.8-1.6-2.4-2.9s-0.9-2.6-0.9-4.2
				c0-1.6,0.3-3,0.8-4.2c0.5-1.3,1.3-2.2,2.3-2.9s2.2-1,3.5-1c0.9,0,1.8,0.2,2.5,0.6c0.7,0.4,1.3,0.9,1.8,1.5v-7.7h2.6V449H863z
				 M854.7,441.2c0,2,0.4,3.5,1.3,4.5s1.8,1.5,3,1.5c1.2,0,2.1-0.5,2.9-1.4c0.8-0.9,1.2-2.4,1.2-4.3c0-2.1-0.4-3.7-1.2-4.7
				s-1.8-1.5-3-1.5c-1.2,0-2.2,0.5-2.9,1.4S854.7,439.2,854.7,441.2z"/>
			<path class="st2" d="M892.4,427.5h2.8v12.4c0,2.2-0.2,3.9-0.7,5.1s-1.4,2.3-2.6,3.1c-1.3,0.8-2.9,1.2-5,1.2c-2,0-3.7-0.3-4.9-1
				s-2.2-1.7-2.7-3s-0.8-3.1-0.8-5.4v-12.4h2.8v12.4c0,1.9,0.2,3.2,0.5,4.1c0.3,0.9,0.9,1.6,1.8,2s1.9,0.7,3.1,0.7
				c2.1,0,3.6-0.5,4.5-1.4s1.3-2.8,1.3-5.5V427.5z"/>
			<path class="st2" d="M898.5,444.4l2.6-0.4c0.1,1,0.6,1.8,1.2,2.4s1.6,0.8,2.8,0.8c1.2,0,2.1-0.2,2.7-0.7c0.6-0.5,0.9-1.1,0.9-1.7
				c0-0.6-0.3-1.1-0.8-1.4c-0.4-0.2-1.3-0.5-2.7-0.9c-1.9-0.5-3.3-0.9-4-1.3c-0.7-0.4-1.3-0.8-1.7-1.5c-0.4-0.6-0.6-1.3-0.6-2.1
				c0-0.7,0.2-1.3,0.5-1.9s0.8-1.1,1.3-1.5c0.4-0.3,1-0.6,1.7-0.8c0.7-0.2,1.5-0.3,2.3-0.3c1.2,0,2.3,0.2,3.2,0.5s1.6,0.8,2,1.4
				c0.4,0.6,0.7,1.4,0.9,2.4l-2.6,0.4c-0.1-0.8-0.5-1.4-1-1.9s-1.4-0.7-2.4-0.7c-1.2,0-2.1,0.2-2.6,0.6s-0.8,0.9-0.8,1.4
				c0,0.3,0.1,0.6,0.3,0.9c0.2,0.3,0.6,0.5,1,0.7c0.3,0.1,1,0.3,2.3,0.7c1.9,0.5,3.2,0.9,3.9,1.2c0.7,0.3,1.3,0.8,1.7,1.4
				s0.6,1.4,0.6,2.3c0,0.9-0.3,1.7-0.8,2.5c-0.5,0.8-1.3,1.4-2.2,1.8c-1,0.4-2.1,0.6-3.3,0.6c-2,0-3.6-0.4-4.6-1.3
				S898.8,446,898.5,444.4z"/>
			<path class="st2" d="M925.2,444l2.7,0.3c-0.4,1.6-1.2,2.8-2.4,3.7s-2.6,1.3-4.5,1.3c-2.3,0-4.1-0.7-5.4-2.1s-2-3.4-2-5.9
				c0-2.6,0.7-4.6,2-6.1s3.1-2.2,5.2-2.2c2.1,0,3.8,0.7,5.1,2.1s2,3.4,2,6c0,0.2,0,0.4,0,0.7h-11.6c0.1,1.7,0.6,3,1.5,3.9
				s2,1.4,3.3,1.4c1,0,1.8-0.3,2.5-0.8S924.8,445.1,925.2,444z M916.6,439.7h8.7c-0.1-1.3-0.4-2.3-1-2.9c-0.8-1-1.9-1.5-3.3-1.5
				c-1.2,0-2.2,0.4-3.1,1.2S916.7,438.4,916.6,439.7z"/>
		</g>
		<g id="Group_1054" transform="translate(-9.269 -4)">
			<g id="Group_1053" transform="translate(954 424.001)">
				<path id="Union_24" class="st3" d="M12.2,36.6C4.1,36.6,0,33.2,0,26.5v-0.2c0,0,0,0,0-0.1c0,0,0-0.1,0-0.1V26c0,0,0-0.1,0-0.1
					c0,0,0,0,0-0.1c0,0,0-0.1,0-0.1c0,0,0,0,0-0.1c0-0.1,0-0.1,0-0.2c0,0,0,0,0,0c0-0.1,0-0.1,0-0.2c0,0,0,0,0-0.1c0,0,0-0.1,0-0.1
					c0,0,0,0,0-0.1c0,0,0-0.1,0-0.1c0,0,0-0.1,0-0.1l0-0.1c0,0,0-0.1,0-0.1c0,0,0-0.1,0-0.1c0,0,0,0,0-0.1l0-0.2l0,0
					c0,0,0-0.1,0-0.1c0,0,0,0,0-0.1l0-0.1l0-0.1c0,0,0-0.1,0-0.1l0-0.1c0,0,0-0.1,0-0.1c0,0,0,0,0-0.1l0-0.1l0-0.1l0-0.1
					c0,0,0,0,0-0.1l0-0.1l0-0.1l0-0.1l0-0.1l0-0.1c0,0,0,0,0-0.1c0,0,0-0.1,0-0.1s0,0,0-0.1c0,0,0-0.1,0-0.1l0-0.1l0-0.1
					c0,0,0,0,0-0.1s0-0.1,0-0.1s0,0,0-0.1l0-0.1c0,0,0,0,0-0.1l0-0.1c0,0,0,0,0-0.1s0-0.1,0-0.1s0-0.1,0-0.1s0,0,0-0.1l0-0.1
					c0,0,0,0,0-0.1l0-0.1c0,0,0,0,0-0.1s0,0,0-0.1s0,0,0-0.1s0,0,0-0.1c0,0,0,0,0,0c0-0.1,0.1-0.2,0.1-0.3c0,0,0,0,0,0l0-0.1l0,0
					c0,0,0,0,0-0.1l0,0c0,0,0-0.1,0-0.1c0,0,0,0,0,0c0.1-0.1,0.1-0.2,0.2-0.3c0,0,0,0,0,0l0.1-0.1l0,0c0,0,0-0.1,0.1-0.1
					c0,0,0,0,0,0c0,0,0-0.1,0.1-0.1l0,0c0.3-0.4,0.7-0.8,1.1-1.2c-1.9-1.7-3-4.2-3-6.8v0c0,0,0-0.1,0-0.1v0c0,0,0-0.1,0-0.1v0
					c0,0,0-0.1,0-0.1v0C0,11.1,0,11,0,11c0-0.2,0-0.3,0-0.4c0-0.1,0-0.2,0-0.2c0.3-9.1,6.8-9.4,9.6-9.4h1.5v0h27.3v4.5h-1.8
					c-0.1,0.2-0.3,0.4-0.4,0.6c0,0,0,0,0,0c0,0,0,0,0,0c-0.2,0.3-0.4,0.7-0.6,1c-0.2,0.4-0.3,0.8-0.5,1.3h0.1
					c-0.2,0.7-0.3,1.4-0.3,2H9.7v0h25.2v1.3c0.1,0.6,0.2,1.2,0.4,1.8h-0.1c0.1,0.4,0.3,0.8,0.5,1.2l0,0c0.3,0.5,0.6,1.1,1,1.6H37
					v0.2h1.4V21h-1.7c-0.2,0.2-0.3,0.4-0.4,0.6c0,0,0,0,0,0c0,0,0,0,0,0c-0.1,0.2-0.3,0.5-0.4,0.7h0.1c-0.2,0.4-0.4,0.8-0.5,1.3
					c-0.2,0.7-0.4,1.4-0.4,2V27h-0.1c0,0.6,0.1,1.3,0.3,1.9c0.1,0.3,0.2,0.5,0.2,0.8c0,0,0,0,0,0c0.1,0.2,0.1,0.3,0.2,0.5l0,0
					c0.3,0.7,0.7,1.4,1.2,2h1.7v4.5H12.2z M36.9,16.5l-0.1-0.2L36.9,16.5L36.9,16.5z M99.6,34.7c-1.2-0.7-2.2-1.7-2.9-2.8
					c-1.2-2.2-1.9-4.6-1.9-7.1c0-0.2,0-0.4,0-0.6c0-2,0.2-3.9,0.7-5.8c0.5-2.1,1.1-4.1,1.9-6c0.8-1.9,1.7-3.7,2.8-5.5
					c0.9-1.4,2-2.7,3.2-3.8c1-0.8,2.1-1.5,3.2-2c1-0.5,2-0.7,3-0.8c1.2,0,1.9,0.3,1.9,0.9l0,0l0,0c0,0.4-0.2,0.8-0.4,1.2
					c-0.3,0.6-0.8,1.1-1.2,1.5c-0.5,0.4-1.1,0.7-1.7,1c-0.7,0.3-1.3,0.7-1.9,1.2c-0.6,0.5-1.1,1.1-1.5,1.7c-0.6,0.9-1.2,1.9-1.6,2.9
					c-0.4,1.1-0.8,2.1-1.1,3.2c-0.3,1.1-0.5,2.1-0.6,3.2c-0.1,1.1-0.2,2.3-0.2,3.4c0,0.2,0,0.3,0,0.5c0,0.1,0,0.2,0,0.3
					c0,1.7,0.1,3.5,0.4,5.2c0.2,1.2,0.5,2.3,1.2,3.4c0,0,0,0,0,0.1c0.4,0.7,1.1,1.1,1.9,1.1c0.7-0.1,1.4-0.5,1.9-1.1
					c0.7-0.8,1.3-1.7,1.7-2.7c0.5-1.2,1-2.5,1.2-3.8c0.3-1.3,0.5-2.7,0.5-4c0-2.5-0.5-5-1.5-7.3c-0.1-0.3-0.2-0.6-0.3-0.9
					c-0.1-0.4-0.2-0.8-0.2-1.2c0-0.7,0.2-1.3,0.6-1.9c0-0.1,0.1-0.1,0.1-0.2c0.5-0.8,1.1-1.6,1.9-2.3c0.4-0.5,1-0.8,1.7-1
					c0.3,0,0.5,0.1,0.8,0.3c0.2,0.2,0.5,0.4,0.6,0.7c0,0,0,0.1,0,0.1c0.4,1,0.7,2,0.8,3c0.2,1.6,0.3,3.2,0.3,4.8c0,0.1,0,0.2,0,0.4
					c0,3.7-0.5,7.3-1.6,10.8c-0.8,3-2.3,5.8-4.2,8.1c-1.4,1.8-3.5,2.9-5.8,3C101.9,35.7,100.6,35.4,99.6,34.7L99.6,34.7z
					 M179.2,35.6c-0.6-0.1-1.2-0.4-1.6-0.9c-0.6-0.5-1.2-1.1-1.7-1.8c-0.1-0.1-0.1-0.2-0.2-0.3s-0.1-0.2-0.1-0.3c0,0,0,0,0,0
					c0-0.1-0.1-0.2-0.1-0.3c0,0,0,0,0,0c0-0.1-0.1-0.1-0.1-0.2c0,0,0-0.1-0.1-0.1l-0.1-0.1c-0.2-0.4-0.4-0.8-0.5-1.2
					c-0.3-0.8-0.6-1.7-1-2.7s-0.6-2-0.8-2.9s-0.4-1.8-0.5-2.5c0-0.1,0-0.2,0-0.3s0-0.2,0-0.3c0-0.3,0-0.6,0.2-0.8
					c0.2-0.3,0.4-0.5,0.7-0.6c0.4-0.2,0.8-0.5,1.2-0.9c0.4-0.5,0.8-1,1.2-1.5c0.6-1,1-2.1,1.3-3.3c0.3-1.2,0.5-2.5,0.5-3.8
					c0-0.1,0-0.2,0-0.3c0-1.1-0.2-2.2-0.7-3.2c-0.5-0.8-1.2-1.5-2.1-1.8c-0.9,5.4-1.9,10.4-2.8,15.1l-0.3,2
					c-0.6,3.1-1.1,5.4-1.4,6.9c-0.2,1.1-0.6,2.2-1.2,3.2c-0.5,0.7-1.1,1.3-1.8,1.8c-0.5,0.5-1.2,0.8-1.9,0.9c-0.9,0-1.3-0.8-1.3-2.4
					c0-1.1,0.2-2.3,0.4-3.4c0.2-1.6,0.6-3.6,1.2-6.2c0.5-2.5,1-5,1.6-7.5s1.2-5.1,1.9-7.6l0.4-1.7c-0.3,0.1-0.7,0.1-1,0.2
					c-0.3,0.1-0.6,0.1-0.9,0.1c-0.5,0-0.8-0.4-0.8-1.2c0-0.4,0.1-0.9,0.2-1.3c0.1-0.4,0.3-0.8,0.5-1.2c0.6-0.7,1.4-1.2,2.3-1.4
					c1.4-0.4,2.8-0.5,4.3-0.4c1.2,0,2.4,0.3,3.5,0.8c1.1,0.5,2.1,1.2,2.9,2.2c0.8,0.9,1.5,2,1.9,3.2c0.4,1.2,0.7,2.5,0.7,3.8
					c0,0,0,0.1,0,0.1s0,0.1,0,0.1c0,1.4-0.2,2.8-0.6,4.1c-0.4,1.2-0.9,2.4-1.7,3.4c-0.4,0.5-0.8,1-1.4,1.5c-0.6,0.4-1.2,0.8-1.8,1.1
					c0.1,0.5,0.3,0.9,0.5,1.4c0.2,0.3,0.4,0.8,0.8,1.4c1.1,1.5,2.5,2.8,4.2,3.8c0.1,0.1,0.2,0.2,0.3,0.2c-0.1,1.1-0.3,2.1-0.5,3.2
					c-0.2,0.7-0.5,1.5-0.8,2.2c-0.7,1.4-1.5,2.1-2.4,2.1C179.4,35.6,179.3,35.6,179.2,35.6L179.2,35.6z M151.7,35.5L151.7,35.5
					c-1.5,0-2.9-0.5-4.1-1.4c-1.3-1-2.2-2.3-2.8-3.9c-0.7-1.7-1-3.5-1-5.4c0-0.1,0-0.1,0-0.2c0-1.9,0.2-3.7,0.7-5.5
					c0.5-2.1,1.1-4.1,1.9-6c0.1-0.2,0.2-0.5,0.3-0.7c0.7-1.6,1.5-3.2,2.4-4.8c0.7-1.2,1.6-2.4,2.5-3.5c0.1-0.2,0.3-0.3,0.4-0.5
					c0.9-1.1,2-2,3.2-2.7c0.8-0.6,1.8-0.9,2.8-1c1.4,0,2.7,0.7,3.5,1.8c1,1.2,1.5,2.8,1.4,4.4c0,0.8-0.1,1.6-0.3,2.5
					c-0.1,0.8-0.4,1.6-0.7,2.3c-0.3,0.8-0.8,1.5-1.4,2.1c-0.6,0.7-1.3,1.3-2,1.8c-0.7,0.5-1.5,0.8-2.3,0.8c-0.6,0-1-0.2-1-0.7
					c0.1-0.5,0.3-1,0.5-1.4c0.5-0.7,0.9-1.5,1.2-2.2c0.4-1.2,0.7-2.3,0.9-3.5c0.2-1.1,0.3-2.1,0.3-3.2c0-0.6-0.1-0.9-0.4-0.9
					s-1.1,0.7-2,2c-0.9,1.2-1.7,2.5-2.3,3.9c-0.5,1.2-1,2.4-1.3,3.7c-0.3,1.2-0.6,2.4-0.7,3.7h8.6c1,0,1.4,0.4,1.4,1.2
					c-0.2,1.3-0.8,2.5-1.6,3.5c-1,1.6-2,2.3-2.9,2.3h-5.9v0.6c0,0,0,0.1,0,0.1c0,0.1,0,0.2,0,0.3c0,1,0.3,2,0.7,2.9
					c0.4,0.9,0.8,1.3,1.2,1.5c0.1,0,0.2,0,0.3,0c0.9-0.1,1.7-0.5,2.4-1c1.3-0.8,2.5-1.8,3.6-2.8l0.6-0.5c0.3-0.2,0.5-0.5,0.8-0.8
					c0.6-0.6,1-1,1.2-1s0.3,0.3,0.3,0.9c0,0.7-0.1,1.4-0.2,2.1c0,0.2-0.1,0.4-0.1,0.6c0,0,0,0,0,0c0,0.1,0,0.1,0,0.2
					c0,0,0,0.1,0,0.1c0,0,0,0.1,0,0.1c-0.1,0.4-0.2,0.8-0.3,1.2c-0.1,0.5-0.3,0.9-0.5,1.4c0,0.1-0.1,0.1-0.1,0.2
					c-0.9,1.1-1.9,2.1-3.1,2.8c-1.4,1-2.9,1.8-4.5,2.4C152.6,35.4,152.2,35.5,151.7,35.5L151.7,35.5z M56.2,35.4L56.2,35.4
					c-0.4,0-1-0.5-1.5-1.4c-0.6-1.1-1.1-2.3-1.4-3.5c-0.4-1.5-0.8-3-1-4.6c-0.3-1.5-0.5-3.4-0.7-5.5s-0.4-4.7-0.5-7.8l-0.8,2.5
					l-0.7,2.6c-0.3,1.2-0.5,1.9-0.6,2c-0.4,1.6-0.9,3.1-1.4,4.6C47,26,46.6,27.2,46.3,28s-0.6,1.7-1,2.5c-0.3,0.6-0.5,1.1-0.9,1.7
					c-0.6,0.9-1.3,1.6-2.1,2.2l-0.1,0c-0.6,0.5-1.3,0.7-2.1,0.8c-0.3,0-0.5-0.1-0.7-0.3c-0.2-0.2-0.3-0.5-0.3-0.7c0,0,0,0,0-0.1
					s0-0.1,0-0.1c0-0.4,0.2-0.8,0.4-1.1c0.1-0.3,0.4-0.9,0.9-1.9c0.1-0.1,0.1-0.3,0.2-0.4l0.9-2.3c0.6-1.4,1.5-3.8,2.6-7.4l0.8-2.3
					c1.8-5.5,3-9.2,3.7-11.2c0.4-1.1,0.7-2.3,0.9-3.5c0-0.4-0.2-0.8-0.5-1.2c-0.2-0.3-0.3-0.6-0.3-0.9v0c0-0.4,0.3-0.7,0.9-1
					c0.5-0.3,1.1-0.5,1.8-0.5c0.1,0,0.2,0,0.3,0c1.3-0.1,2.5,0.5,3.2,1.6c0.6,1.2,0.9,2.5,1.1,3.8c0.3,1.9,0.7,4.7,1,8.3v0.8
					c0,0.1,0,0.2,0,0.3c0,0.3,0,0.6,0.1,1c0.2,2.2,0.4,3.6,0.5,4.3c0.1,0.6,0.3,1.2,0.6,1.7l0.3-1.2c2.6-9.1,4.5-15.1,5.6-17.8
					c0.1-0.3,0.3-0.6,0.5-0.9C64.8,2,65,1.9,65.2,1.7c0.2-0.2,0.4-0.4,0.7-0.5c0.9-0.6,2-0.8,3-0.8c0.7,0,1.1,0.1,1.2,0.3
					c0.2,0.3,0.3,0.6,0.3,0.9c0,0.1,0,0.2,0,0.2v1.5c-0.1,3.1-0.1,5.3-0.1,6.6c0,3.3,0.1,6.4,0.4,9.3c0.2,1.7,0.4,3.3,0.8,5
					c0.3,1.2,0.6,2.4,1,3.5c0.3,0.7,0.6,1.3,1,2c0.3,0.4,0.4,0.8,0.5,1.3c-0.1,0.8-0.4,1.5-0.8,2.1c0,0,0,0,0,0.1
					c-1,1.5-1.9,2.2-2.9,2.2c-1.3,0-2.6-0.9-3.7-2.8c-0.6-0.9-1-1.9-1.3-3c0-0.1-0.1-0.2-0.1-0.3c-0.3-1.2-0.5-2.5-0.6-3.7
					c-0.2-1.6-0.3-3.6-0.3-6.1c0-0.6,0-1.2-0.1-1.7c0-1.5-0.1-2.4-0.1-2.7c-0.6,2-1.2,3.6-1.6,5c0,0.1,0,0.1-0.1,0.2
					c-0.5,1.4-0.8,2.5-1.1,3.5c-0.2,0.6-0.4,1.2-0.6,2c-0.1,0.4-0.3,0.8-0.4,1.3c-1.2,4-2,6.5-2.4,7.3l-0.1,0.2l-0.2,0.3
					c-0.2,0.2-0.4,0.5-0.6,0.6C56.6,35.3,56.4,35.4,56.2,35.4L56.2,35.4z M75.6,34.8c-0.2-0.4-0.3-0.8-0.3-1.3c0-0.1,0-0.1,0-0.2
					c0.1-1,0.2-2.1,0.4-3.1c0.2-1.4,0.7-3.8,1.4-7.3l0.3-1.4l0.3-1.6L80.5,6l0.2-0.9c-0.3,0-0.6,0-0.9,0.2c-0.3,0.1-0.6,0.3-0.9,0.4
					c-0.3,0.2-0.5,0.3-0.8,0.4c-0.2,0-0.4-0.1-0.4-0.3c-0.1-0.3-0.2-0.5-0.2-0.8c0-0.7,0.2-1.4,0.5-2c0.3-0.6,0.7-1.1,1.3-1.5
					c0.8-0.5,1.6-0.8,2.5-1C82.6,0.2,83.5,0,84.4,0c0.1,0,0.3,0,0.4,0c1,0,2.1,0.1,3,0.4c0.9,0.2,1.7,0.7,2.4,1.2
					c0.7,0.6,1.4,1.3,1.9,2.1c0.5,0.9,0.9,1.9,1.2,2.9c0.3,1.2,0.4,2.4,0.4,3.5c0,1.3-0.1,2.5-0.4,3.8c-0.3,1.4-0.7,2.8-1.2,4.1
					c-0.4,1.2-1,2.3-1.7,3.4c-0.7,1-1.6,2-2.6,2.7c0,0-0.1,0-0.1,0.1l-0.1,0.1c-0.8,0.6-1.8,1-2.9,1.1c-0.4,0-0.7-0.1-1-0.3
					c-0.3-0.2-0.4-0.5-0.4-0.8c0-0.5,0.1-0.9,0.3-1.4c0.3-0.6,0.8-1.1,1.3-1.5c0.6-0.5,1-1.1,1.5-1.7c0.5-0.9,0.9-2,1.2-3
					c0.3-1.2,0.4-2.5,0.5-3.8c0-0.1,0-0.2,0-0.2c0-1.1-0.1-2.3-0.4-3.4c-0.3-0.9-0.7-1.7-1.3-2.5c0,0-0.1-0.1-0.1-0.1L83.9,18
					l-0.4,2c-0.2,0.8-0.4,2.1-0.7,4.1c-0.3,2.3-0.8,4.6-1.5,6.9c-0.2,0.6-0.5,1.1-0.8,1.7c-0.5,0.7-1.2,1.4-2,1.9
					c-0.6,0.5-1.3,0.7-2,0.8C76.1,35.4,75.7,35.2,75.6,34.8L75.6,34.8z M129.1,32c-0.9-2.2-1.3-5.6-1.3-10.1l-0.1-1.7h-0.1
					c-0.8,2.6-1.7,4.9-2.6,7.1c-0.8,1.9-1.7,3.8-2.7,5.6c-0.4,0.6-0.9,1.1-1.5,1.6c-0.4,0.4-1,0.6-1.5,0.7c-0.2,0-0.3-0.1-0.4-0.2
					c0,0,0,0-0.1,0s0,0-0.1,0l0,0c0,0,0,0-0.1,0l0,0c0,0,0,0,0,0c0,0,0,0,0,0l0,0c-0.1-0.1-0.1-0.1-0.2-0.2c-0.5-0.9-1-3.4-1.3-7.3
					s-0.5-8.6-0.5-14.2c0-0.6,0-1.1,0-1.7c0-2.5,0.2-4.9,0.7-7.3c0.1-0.6,0.4-1.1,0.7-1.6c0.4-0.5,0.9-0.9,1.5-1.2
					c0.6-0.4,1.1-0.7,1.8-0.9c0.4-0.2,0.9-0.4,1.4-0.4c0.3,0,0.6,0.1,0.7,0.4c0.2,0.3,0.3,0.6,0.3,1c0,0.2,0,0.5-0.1,0.7
					c-0.2,1.6-0.5,3.8-0.7,6.7c-0.2,1.9-0.3,3.5-0.3,4.7c0,0.1,0,0.2,0,0.3c0,1.1-0.1,2.7-0.2,4.6c0,2.1-0.1,4.1-0.1,6.2l0.1,0.1
					c0.2-0.4,0.4-0.8,0.6-1.2c0.3-0.7,0.7-1.5,1-2.4c0.2-0.5,0.4-1,0.6-1.4c0.2-0.4,0.3-0.8,0.5-1.3c0-0.1,0.1-0.1,0.1-0.2
					c0.5-1.4,0.9-2.8,1.3-4.1c0.2-0.6,0.4-1.2,0.5-1.9c1.6-5.7,2.8-9,3.5-9.9c0.5-0.5,1-0.9,1.7-1.2c0.7-0.4,1.4-0.6,2.1-0.6
					c0.4,0,0.8,0.2,1,0.5c0.3,0.3,0.4,0.7,0.4,1.1V2c-0.1,0.9-0.2,1.8-0.4,2.7c-0.6,2.6-1,5.4-1.4,8.5c-0.3,2.7-0.5,5.5-0.5,8.2
					c0,4.9,0.6,7.3,1.8,7.3c0.4,0,0.7-0.4,1-1.2c0.4-1,0.7-2.1,0.9-3.1c0.3-1.5,0.5-3,0.6-4.4c0.2-1.7,0.3-3.5,0.3-5.2
					c0-1,0-2.2-0.1-3.5l0-0.3V9.7c0.1-2.1,0.7-4,2-5.7c0.6-1,1.2-1.5,1.4-1.5c0.8,0,1.2,2.2,1.2,6.7v0.3c0,2.9-0.2,5.9-0.6,8.8
					c-0.4,3-1.2,6-2.2,8.9c-0.5,1.3-1.1,2.6-1.8,3.8c-0.6,1-1.2,2-2,2.9c-0.7,0.8-1.6,1.4-2.7,1.4C131.3,35.3,130,34.2,129.1,32
					L129.1,32z"/>
			</g>
			<g id="圖層_2_00000162352413305151751120000004904331365023036034_" transform="translate(954 424)">
				<g id="圖層_1_00000070094146081541259220000016711102308365532044_" transform="translate(0 0)">
					<path id="Path_7160" class="st4" d="M58.3,22.1l0.3-1.2c2.6-9.1,4.5-15.1,5.6-17.8c0.1-0.3,0.3-0.6,0.5-0.9
						C64.8,2,65,1.9,65.2,1.7c0.2-0.2,0.4-0.4,0.7-0.5c0.9-0.6,2-0.9,3-0.8c0.7,0,1.1,0.1,1.2,0.3c0.2,0.3,0.3,0.8,0.3,1.2
						c0,0.5,0,1,0,1.5c-0.1,3.1-0.1,5.3-0.1,6.6c0,3.3,0.1,6.4,0.4,9.3c0.2,1.7,0.4,3.3,0.8,5c0.3,1.2,0.6,2.4,1,3.5
						c0.3,0.7,0.6,1.3,1,2c0.3,0.4,0.4,0.8,0.5,1.3c-0.1,0.8-0.4,1.5-0.9,2.2c-1,1.5-1.9,2.2-2.9,2.2c-1.3,0-2.6-0.9-3.7-2.8
						c-0.6-0.9-1-1.9-1.3-3c-0.4-1.3-0.6-2.7-0.7-4c-0.2-1.6-0.3-3.6-0.3-6.1C64,16.6,64,15.1,64,14.8h0c-0.7,2.1-1.2,3.8-1.7,5.2
						s-0.8,2.5-1.1,3.5s-0.6,2-1,3.3c-1.2,4-2,6.5-2.4,7.3l-0.1,0.2l-0.2,0.3c-0.2,0.2-0.4,0.5-0.6,0.6c-0.2,0.1-0.4,0.2-0.6,0.2
						c-0.5,0-1-0.5-1.5-1.3c-0.6-1.1-1.1-2.3-1.4-3.5c-0.4-1.5-0.8-3-1-4.6c-0.3-1.5-0.5-3.4-0.7-5.5s-0.4-4.7-0.5-7.8l0,0l-0.8,2.5
						l-0.7,2.6c-0.3,1.2-0.5,1.9-0.6,2c-0.4,1.6-0.9,3.1-1.4,4.7C47,26,46.6,27.2,46.3,28s-0.6,1.7-1,2.5c-0.3,0.6-0.5,1.1-0.8,1.7
						c-0.6,0.9-1.3,1.6-2.1,2.2c-0.6,0.5-1.4,0.8-2.2,0.8c-0.3,0-0.5-0.1-0.7-0.3c-0.2-0.2-0.3-0.5-0.3-0.8c0-0.4,0.2-0.8,0.4-1.2
						c0.2-0.3,0.5-1.1,1-2.3l0.9-2.3c0.6-1.4,1.5-3.8,2.6-7.4l0.8-2.3c1.8-5.5,3-9.2,3.7-11.2c0.4-1.1,0.7-2.3,1-3.5
						c0-0.4-0.2-0.8-0.5-1.2c-0.2-0.3-0.3-0.6-0.3-0.9c0-0.4,0.3-0.7,0.9-1.1c0.6-0.3,1.3-0.5,2-0.5c1.3-0.1,2.5,0.5,3.2,1.6
						c0.6,1.2,0.9,2.5,1.1,3.8c0.3,1.9,0.7,4.7,1,8.3v0.8c0,0.1,0,0.2,0,0.3c0,0.3,0,0.6,0.1,1c0.2,2.2,0.4,3.6,0.5,4.3
						C57.8,21,58,21.6,58.3,22.1L58.3,22.1z"/>
					<path id="Path_7161" class="st5" d="M80.5,6l0.2-0.9c-0.3,0-0.6,0-0.9,0.2c-0.3,0.1-0.6,0.3-0.9,0.4C78.7,5.9,78.4,6,78.1,6
						c-0.2,0-0.4-0.1-0.4-0.3c-0.1-0.3-0.2-0.5-0.2-0.8c0-0.7,0.2-1.4,0.5-2c0.3-0.6,0.7-1.1,1.3-1.5c0.8-0.5,1.6-0.8,2.5-1
						c1-0.2,2-0.4,3-0.4c1,0,2.1,0.1,3,0.4c0.9,0.2,1.7,0.7,2.4,1.2c0.7,0.6,1.4,1.3,1.8,2.1c0.5,0.9,0.9,1.9,1.2,2.9
						c0.3,1.2,0.4,2.4,0.4,3.5c0,1.3-0.1,2.5-0.4,3.8c-0.3,1.4-0.7,2.8-1.2,4.1c-0.4,1.2-1,2.3-1.7,3.4c-0.7,1.1-1.6,2-2.7,2.7
						c-0.8,0.7-1.9,1.1-3,1.2c-0.4,0-0.7-0.1-1-0.4c-0.3-0.2-0.4-0.5-0.4-0.8c0-0.5,0.1-0.9,0.3-1.3c0.3-0.6,0.8-1.1,1.3-1.5
						c0.6-0.5,1-1.1,1.5-1.7c0.5-0.9,0.9-2,1.2-3c0.3-1.2,0.4-2.5,0.5-3.8c0-1.2-0.1-2.4-0.4-3.6c-0.3-1-0.8-1.9-1.4-2.6L83.9,18
						l-0.4,2c-0.2,0.8-0.4,2.1-0.7,4.1c-0.3,2.3-0.8,4.6-1.5,6.9c-0.2,0.6-0.5,1.1-0.8,1.7c-0.5,0.7-1.2,1.4-2,1.9
						c-0.6,0.5-1.3,0.7-2,0.8c-0.4,0-0.7-0.2-0.9-0.5c-0.2-0.5-0.4-1-0.3-1.5c0.1-1,0.2-2.1,0.4-3.1c0.2-1.4,0.7-3.8,1.4-7.3
						l0.3-1.4l0.3-1.6L80.5,6z"/>
					<path id="Path_7162" class="st6" d="M104.8,7.6c-0.6,0.9-1.2,1.9-1.6,2.9c-0.4,1.1-0.8,2.1-1.1,3.2c-0.3,1.1-0.5,2.1-0.6,3.2
						c-0.2,1.3-0.2,2.6-0.2,3.9c0,1.9,0.1,3.7,0.4,5.6c0.2,1.2,0.5,2.3,1.2,3.4c0.4,0.7,1.1,1.1,1.9,1.2c0.7-0.1,1.4-0.5,1.9-1.1
						c0.7-0.8,1.3-1.7,1.7-2.7c0.5-1.2,1-2.5,1.2-3.8c0.3-1.3,0.5-2.7,0.5-4c0-2.5-0.5-5-1.5-7.3c-0.3-0.7-0.5-1.4-0.6-2.1
						c0-0.8,0.3-1.5,0.7-2.1c0.5-0.9,1.1-1.6,1.9-2.3c0.4-0.5,1-0.8,1.7-1c0.3,0,0.5,0.1,0.8,0.3c0.2,0.2,0.5,0.4,0.6,0.7
						c0.5,1,0.8,2,0.9,3.1c0.2,1.6,0.3,3.2,0.3,4.8c0,3.8-0.5,7.5-1.6,11.2c-0.8,3-2.3,5.8-4.2,8.1c-1.4,1.8-3.5,2.9-5.8,3
						c-1.3,0-2.5-0.4-3.6-1c-1.2-0.7-2.2-1.7-2.9-2.8c-1.3-2.3-2-5-1.8-7.7c0-2,0.2-3.9,0.7-5.8c0.5-2.1,1.1-4.1,1.9-6
						c0.8-1.9,1.7-3.7,2.8-5.5c0.9-1.4,2-2.7,3.2-3.8c1-0.8,2.1-1.5,3.2-2c1-0.5,2-0.7,3-0.8c1.2,0,1.8,0.3,1.8,0.9
						c0,0.4-0.2,0.8-0.4,1.2c-0.3,0.6-0.8,1.1-1.2,1.5c-0.5,0.4-1.1,0.7-1.7,1c-0.7,0.3-1.3,0.7-1.9,1.2
						C105.7,6.4,105.2,7,104.8,7.6L104.8,7.6z"/>
					<path id="Path_7163" class="st7" d="M127.8,20.2L127.8,20.2c-0.9,2.6-1.8,4.9-2.7,7.1c-0.8,1.9-1.7,3.8-2.7,5.6
						c-0.4,0.6-0.9,1.1-1.5,1.6c-0.4,0.4-1,0.6-1.5,0.7c-0.2,0-0.3-0.1-0.4-0.2c-0.2-0.1-0.3-0.3-0.4-0.5c-0.5-0.9-1-3.4-1.3-7.3
						s-0.5-8.6-0.5-14.2c-0.1-3,0.1-6.1,0.6-9c0.1-0.6,0.4-1.1,0.7-1.6c0.4-0.5,0.9-0.9,1.4-1.2c0.6-0.4,1.1-0.7,1.8-0.9
						c0.4-0.2,0.9-0.4,1.4-0.4c0.3,0,0.6,0.1,0.7,0.4c0.2,0.3,0.3,0.6,0.3,1c0,0.2,0,0.5-0.1,0.7c-0.2,1.6-0.5,3.8-0.7,6.7
						c-0.1,1.9-0.3,3.5-0.3,4.7c0,1.2-0.1,2.8-0.2,4.9s-0.1,4.1-0.1,6.2l0.1,0.1c0.5-1,1-2.2,1.6-3.6c0.2-0.5,0.4-1,0.6-1.4
						s0.4-1,0.6-1.6c0.5-1.4,1-2.8,1.3-4.1c0.2-0.6,0.4-1.2,0.5-1.9c1.6-5.7,2.8-9,3.5-9.9c0.5-0.5,1-0.9,1.7-1.2
						c0.7-0.4,1.4-0.6,2.1-0.6c0.4,0,0.8,0.2,1,0.4c0.3,0.3,0.4,0.7,0.4,1.2c-0.1,0.9-0.2,1.8-0.4,2.7c-0.6,2.6-1,5.4-1.4,8.5
						c-0.3,2.7-0.5,5.5-0.5,8.2c0,4.9,0.6,7.3,1.8,7.3c0.3,0,0.7-0.4,1-1.2c0.4-1,0.7-2.1,0.9-3.1c0.3-1.5,0.5-3,0.6-4.4
						c0.2-1.7,0.3-3.5,0.3-5.2c0-1.1,0-2.3-0.1-3.8V9.7c0.1-2.1,0.7-4.1,2-5.7c0.6-1,1.2-1.5,1.4-1.5c0.8,0,1.2,2.2,1.2,6.7
						c0,3-0.2,6.1-0.6,9.1c-0.4,3-1.2,6-2.2,8.9c-0.5,1.3-1.1,2.6-1.8,3.8c-0.6,1-1.3,2-2,2.9c-0.7,0.8-1.6,1.4-2.7,1.4
						c-1.8,0-3.1-1.1-4-3.3s-1.3-5.6-1.3-10.1L127.8,20.2z"/>
					<path id="Path_7164" class="st8" d="M157,23.8h-5.9v0.6c0,1.2,0.2,2.3,0.7,3.4c0.4,1,1,1.5,1.5,1.5c0.9-0.1,1.7-0.5,2.4-1
						c1.3-0.8,2.5-1.8,3.6-2.8l0.6-0.5c0.3-0.2,0.5-0.5,0.8-0.8c0.6-0.6,1-1,1.2-1s0.3,0.3,0.3,0.8c0,0.7-0.1,1.4-0.2,2.1
						c-0.1,0.8-0.3,1.5-0.5,2.3c-0.1,0.5-0.4,1.1-0.7,1.5c-0.9,1.1-1.9,2.1-3.2,2.8c-1.4,1-2.9,1.8-4.5,2.4
						c-0.5,0.2-0.9,0.2-1.4,0.3c-1.5,0-2.9-0.5-4-1.4c-1.3-1-2.3-2.3-2.8-3.9c-0.7-1.8-1-3.6-1-5.5c0-1.9,0.2-3.7,0.7-5.5
						c0.5-2.1,1.1-4.1,1.9-6c0.7-1.9,1.7-3.7,2.7-5.5c0.8-1.4,1.8-2.7,2.9-3.9c0.9-1.1,2-2,3.2-2.7c0.8-0.6,1.8-0.9,2.8-1
						c1.4,0,2.7,0.7,3.5,1.8c1,1.2,1.5,2.8,1.4,4.4c0,0.8-0.1,1.6-0.3,2.5c-0.1,0.8-0.4,1.6-0.7,2.3c-0.3,0.8-0.8,1.5-1.3,2.1
						c-0.6,0.7-1.3,1.3-2,1.8c-0.7,0.5-1.5,0.8-2.3,0.8c-0.6,0-1-0.2-1-0.7c0.1-0.5,0.3-1,0.5-1.4c0.5-0.7,0.9-1.5,1.2-2.2
						c0.4-1.2,0.7-2.3,0.9-3.5c0.2-1.1,0.3-2.1,0.3-3.2c0-0.6-0.1-0.9-0.4-0.9s-1.1,0.7-2,2c-0.9,1.2-1.7,2.5-2.3,3.9
						c-0.5,1.2-1,2.4-1.3,3.7c-0.3,1.2-0.6,2.4-0.7,3.7h8.6c1,0,1.4,0.4,1.4,1.2c-0.2,1.3-0.8,2.5-1.6,3.5
						C158.9,23.1,157.9,23.8,157,23.8z"/>
					<path id="Path_7165" class="st9" d="M168.9,8.1l0.4-1.7c-0.3,0.1-0.7,0.1-1,0.2c-0.3,0.1-0.6,0.1-0.9,0.1
						c-0.5,0-0.8-0.4-0.8-1.2c0-0.4,0.1-0.9,0.2-1.3c0.1-0.4,0.3-0.8,0.5-1.2c0.6-0.7,1.4-1.2,2.3-1.4c1.4-0.4,2.8-0.5,4.3-0.4
						c1.2,0,2.4,0.3,3.5,0.8c1.1,0.5,2.1,1.2,2.9,2.2c0.8,0.9,1.5,2,1.9,3.2c0.5,1.3,0.7,2.6,0.7,3.9c0,1.4-0.2,2.9-0.6,4.2
						c-0.4,1.2-0.9,2.4-1.7,3.4c-0.4,0.5-0.8,1-1.4,1.5c-0.6,0.4-1.2,0.8-1.8,1.1c0.2,0.5,0.3,0.9,0.5,1.4c0.2,0.3,0.4,0.8,0.8,1.3
						c1.1,1.5,2.5,2.8,4.2,3.8c0.1,0.1,0.2,0.1,0.3,0.2c-0.1,1.1-0.3,2.1-0.5,3.2c-0.2,0.7-0.5,1.5-0.8,2.2
						c-0.7,1.4-1.5,2.1-2.4,2.1c-0.7-0.1-1.4-0.4-1.9-0.9c-0.7-0.6-1.4-1.3-1.9-2.1c-0.4-0.7-0.7-1.5-1-2.2c-0.3-0.8-0.6-1.7-1-2.7
						s-0.6-2-0.8-2.9s-0.4-1.8-0.5-2.5c0-0.2,0-0.4,0-0.6c0-0.3,0-0.6,0.2-0.8c0.2-0.3,0.4-0.5,0.7-0.6c0.4-0.2,0.8-0.5,1.2-0.9
						c0.4-0.5,0.8-1,1.2-1.5c0.6-1,1-2.1,1.3-3.3c0.3-1.2,0.5-2.5,0.5-3.8c0.1-1.2-0.2-2.4-0.7-3.5c-0.5-0.8-1.2-1.5-2.1-1.8
						c-0.9,5.4-1.9,10.4-2.8,15.1l-0.3,2c-0.6,3.1-1.1,5.4-1.4,6.9c-0.2,1.1-0.6,2.2-1.2,3.2c-0.5,0.7-1.1,1.3-1.8,1.8
						c-0.5,0.5-1.2,0.8-1.9,0.9c-0.9,0-1.3-0.8-1.3-2.4c0-1.1,0.2-2.3,0.4-3.4c0.2-1.6,0.6-3.6,1.2-6.2c0.5-2.5,1-5,1.6-7.5
						S168.2,10.6,168.9,8.1z"/>
					<path id="Path_7166" class="st10" d="M10.8,5.2H9.7c-3.4,0-5.5,0.4-5.5,5.6c0,4,2.1,5.5,7.7,5.5h24.8c-0.4-0.5-0.7-1-1-1.6h-26
						v-1.2h25.6c-0.2-0.6-0.3-1.2-0.4-1.9H9.7v-1.3h25.2c0-0.7,0.1-1.4,0.3-2H9.7V7h25.9c0.3-0.7,0.7-1.3,1.2-1.9L10.8,5.2L10.8,5.2
						z"/>
					<path id="Path_7167" class="st11" d="M36.7,16.3H12c-5.6,0-7.7-1.5-7.7-5.5c0-5.2,2.1-5.6,5.5-5.6h27L37,4.8V3.9H3.3V18H37
						v-1.4L36.7,16.3z"/>
					<path id="Path_7168" class="st11" d="M37,16.3h-0.3l0.3,0.3V16.3z"/>
					<path id="Path_7169" class="st11" d="M37,5.2V4.8l-0.3,0.3H37z"/>
					<path id="Path_7170" class="st10" d="M10.8,20.9H9.7c-3.4,0-5.5,0.4-5.5,5.6c0,4.1,2.1,5.6,7.7,5.6h24.8
						c-0.5-0.6-0.9-1.3-1.2-2H9.7v-1.2h25.4c-0.2-0.6-0.3-1.2-0.3-1.9H9.7v-1.3h25.2c0.1-0.7,0.2-1.4,0.4-2H9.7v-1.3h26.1
						c0.3-0.5,0.6-1,0.9-1.5H10.8z"/>
					<path id="Path_7171" class="st11" d="M37,32.4l-0.3-0.3H12c-5.6,0-7.7-1.5-7.7-5.6c0-5.2,2.1-5.6,5.5-5.6h27l0.3-0.3v-0.9H3.3
						v14.2H37V32.4z"/>
					<path id="Path_7172" class="st11" d="M37,32.1h-0.3l0.3,0.3V32.1z"/>
					<path id="Path_7173" class="st11" d="M37,20.9v-0.3l-0.3,0.3L37,20.9z"/>
					<path id="Path_7174" class="st12" d="M9.7,14.7h26c-0.2-0.4-0.4-0.8-0.5-1.3H9.7V14.7z"/>
					<path id="Path_7175" class="st12" d="M9.7,11.6h25.2v-1.3H9.7V11.6z"/>
					<path id="Path_7176" class="st12" d="M9.7,8.3h25.4c0.1-0.4,0.3-0.9,0.5-1.3H9.7V8.3z"/>
					<path id="Path_7177" class="st12" d="M9.7,30.1h25.8c-0.2-0.4-0.3-0.8-0.4-1.3H9.7V30.1z"/>
					<path id="Path_7178" class="st12" d="M9.7,27h25.2v-1.3H9.7V27z"/>
					<path id="Path_7179" class="st12" d="M9.7,23.7h25.6c0.1-0.4,0.3-0.9,0.5-1.3H9.7V23.7z"/>
					<path id="Path_7180" class="st13" d="M11.1,0.9H10C7.3,0.9,0,0.9,0,11C0,17.6,4.1,21,12.3,21h26.1v-4.5H12.3
						c-5.6,0-7.8-1.5-7.8-5.6c0-5.2,2.1-5.6,5.5-5.6h28.4V0.9L11.1,0.9"/>
					<path id="Path_7181" class="st13" d="M11.1,16.5H10c-2.7,0-10,0-10,10.1c0,6.7,4.1,10,12.2,10h26.1v-4.5H12.3
						c-5.6,0-7.8-1.5-7.8-5.5c0-5.2,2.1-5.6,5.5-5.6h28.4v-4.5L11.1,16.5"/>
				</g>
			</g>
		</g>
	</g>
</g>
</svg>
