<svg xmlns="http://www.w3.org/2000/svg" viewBox="0 0 157.55 31.45"><defs><style>.cls-1{fill:#00afec;}.cls-2{fill:#00a73c;}.cls-3{fill:#f8bc00;}.cls-4{fill:#ab66a7;}.cls-5{fill:#db610d;}.cls-6{fill:#f29a76;}.cls-7{fill:#e6e6e6;}.cls-8{fill:#ccc;}.cls-9{fill:#515958;}.cls-10{fill:#0068b7;}</style></defs><g id="圖層_2" data-name="圖層 2"><g id="圖層_1-2" data-name="圖層 1"><path class="cls-1" d="M50.1,19l.28-1q3.33-11.76,4.83-15.3a7.83,7.83,0,0,1,.41-.76,3.14,3.14,0,0,1,.38-.5A3.79,3.79,0,0,1,56.58,1,4.63,4.63,0,0,1,59.2.3c.56,0,.91.07,1,.22a1.47,1.47,0,0,1,.22,1c0,.4,0,.82,0,1.28-.08,2.65-.12,4.53-.12,5.65,0,2.82.12,5.5.35,8,.15,1.42.37,2.85.67,4.3a20.16,20.16,0,0,0,.9,3,11.46,11.46,0,0,0,.85,1.68,2.34,2.34,0,0,1,.43,1.08,3.91,3.91,0,0,1-.74,1.85c-.82,1.27-1.64,1.9-2.46,1.9q-1.74,0-3.15-2.37A10.36,10.36,0,0,1,56,25.33a19.19,19.19,0,0,1-.63-3.48c-.14-1.37-.23-3.12-.28-5.25-.07-2.3-.1-3.6-.11-3.89H55c-.58,1.78-1.07,3.27-1.47,4.46s-.71,2.18-.95,3-.54,1.71-.88,2.8c-1.06,3.48-1.75,5.57-2.08,6.3l-.11.19-.15.25a2,2,0,0,1-.54.54,1,1,0,0,1-.51.19c-.39,0-.83-.39-1.3-1.16a12.31,12.31,0,0,1-1.23-3,36.88,36.88,0,0,1-.89-3.94c-.22-1.33-.42-2.91-.59-4.74s-.32-4.07-.45-6.71h0L43.12,13l-.64,2.23c-.29,1-.45,1.59-.5,1.75q-.57,2-1.2,4c-.41,1.36-.75,2.4-1,3.13s-.53,1.47-.84,2.18a14,14,0,0,1-.73,1.44,7.27,7.27,0,0,1-1.8,1.92,3.17,3.17,0,0,1-1.85.7.76.76,0,0,1-.58-.27.92.92,0,0,1-.25-.68,2.07,2.07,0,0,1,.37-1c.14-.27.44-.94.9-2l.81-2q.75-1.77,2.26-6.33l.67-2Q41.07,9,41.88,6.43a19,19,0,0,0,.82-3,1.87,1.87,0,0,0-.41-1A1.23,1.23,0,0,1,42,1.64c0-.32.27-.63.8-.91A3.67,3.67,0,0,1,44.53.3a2.93,2.93,0,0,1,2.72,1.34,11.29,11.29,0,0,1,.93,3.3c.29,1.63.57,4,.86,7.14,0,.17,0,.31,0,.41s0,.18,0,.25a2.19,2.19,0,0,1,0,.29c0,.41.08.68.08.82.19,1.9.34,3.12.44,3.68A6,6,0,0,0,50.1,19Z"/><path class="cls-2" d="M69.18,5.16l.19-.78a2.17,2.17,0,0,0-.77.13,5.3,5.3,0,0,0-.75.38,1.81,1.81,0,0,1-.72.31.44.44,0,0,1-.38-.28,1.41,1.41,0,0,1-.16-.71A4.08,4.08,0,0,1,67,2.45a2.83,2.83,0,0,1,1.08-1.29A7.2,7.2,0,0,1,70.26.32,11.22,11.22,0,0,1,72.87,0a9.58,9.58,0,0,1,2.62.33,5.65,5.65,0,0,1,2.07,1.06A7.38,7.38,0,0,1,79.15,3.2a9.07,9.07,0,0,1,1,2.51,12.55,12.55,0,0,1,.37,3.05A16.18,16.18,0,0,1,80.19,12a22.32,22.32,0,0,1-1,3.53,15,15,0,0,1-1.45,2.92,8.43,8.43,0,0,1-2.3,2.35,4.59,4.59,0,0,1-2.54,1A1.43,1.43,0,0,1,72,21.5a.81.81,0,0,1-.37-.68,2.49,2.49,0,0,1,.29-1.16A6.56,6.56,0,0,1,73,18.33a9,9,0,0,0,1.27-1.49,9.94,9.94,0,0,0,1-2.58A14.2,14.2,0,0,0,75.66,11a10.92,10.92,0,0,0-.38-3.08,6,6,0,0,0-1.23-2.25l-1.94,9.82-.35,1.73c-.15.68-.36,1.84-.61,3.49a37.46,37.46,0,0,1-1.29,5.93,9.42,9.42,0,0,1-.68,1.44,6.78,6.78,0,0,1-1.7,1.63,3.35,3.35,0,0,1-1.76.7.87.87,0,0,1-.77-.46,2.36,2.36,0,0,1-.29-1.27A18.05,18.05,0,0,1,65,26q.28-1.75,1.17-6.26l.26-1.24.26-1.35Z"/><path class="cls-3" d="M90.06,6.56a22.7,22.7,0,0,0-1.41,2.49,20.14,20.14,0,0,0-.94,2.79,17.32,17.32,0,0,0-.55,2.78A21.54,21.54,0,0,0,87,18a27.65,27.65,0,0,0,.35,4.79,7.45,7.45,0,0,0,1,2.89,2,2,0,0,0,1.65,1,2.25,2.25,0,0,0,1.6-.91,9.2,9.2,0,0,0,1.48-2.36,17.18,17.18,0,0,0,1.07-3.27,15.83,15.83,0,0,0,.4-3.48,17,17,0,0,0-1.3-6.29,6.56,6.56,0,0,1-.48-1.81,3.18,3.18,0,0,1,.62-1.8A10,10,0,0,1,95,4.77a2.59,2.59,0,0,1,1.44-.83,1.22,1.22,0,0,1,.65.23,1.66,1.66,0,0,1,.51.58,8,8,0,0,1,.74,2.68,28.58,28.58,0,0,1,.29,4.13,32.9,32.9,0,0,1-1.34,9.6,18.4,18.4,0,0,1-3.65,7,6.65,6.65,0,0,1-5,2.56,5.94,5.94,0,0,1-3.06-.9,7.33,7.33,0,0,1-2.47-2.42,12.34,12.34,0,0,1-1.59-6.64,23.5,23.5,0,0,1,.58-5,32.16,32.16,0,0,1,1.61-5.19A27.82,27.82,0,0,1,86.1,5.88a14.63,14.63,0,0,1,2.77-3.31A11.4,11.4,0,0,1,91.66.81,6.62,6.62,0,0,1,94.28.15c1.06,0,1.59.26,1.59.79a2.37,2.37,0,0,1-.34,1,6.34,6.34,0,0,1-1.07,1.32A7.18,7.18,0,0,1,93,4.09a7.57,7.57,0,0,0-1.62,1A8.75,8.75,0,0,0,90.06,6.56Z"/><path class="cls-4" d="M109.82,17.39h-.06q-1.08,3.32-2.23,6.08a39.67,39.67,0,0,1-2.34,4.83,5.5,5.5,0,0,1-1.28,1.36,2.36,2.36,0,0,1-1.33.59.78.78,0,0,1-.37-.15,1.1,1.1,0,0,1-.37-.4c-.47-.81-.85-2.9-1.14-6.25s-.43-7.43-.43-12.22a35.14,35.14,0,0,1,.54-7.76,3.85,3.85,0,0,1,.64-1.35,4.88,4.88,0,0,1,1.25-1,9.34,9.34,0,0,1,1.51-.77A3.43,3.43,0,0,1,105.43,0a.72.72,0,0,1,.62.31,1.37,1.37,0,0,1,.24.86,6,6,0,0,1-.06.6q-.32,2.06-.57,5.8-.19,2.48-.27,4c0,1-.1,2.44-.14,4.23s-.07,3.55-.08,5.29l.06.09c.42-.86.87-1.88,1.34-3.08.17-.44.34-.85.49-1.23s.34-.83.52-1.35c.43-1.21.82-2.39,1.15-3.54.17-.52.32-1.06.45-1.61,1.41-4.92,2.39-7.77,3-8.55a3.82,3.82,0,0,1,1.44-1A4.45,4.45,0,0,1,115.46.3a1.15,1.15,0,0,1,.88.39,1.47,1.47,0,0,1,.35,1,13.83,13.83,0,0,1-.38,2.3q-.72,3.35-1.17,7.3a61.23,61.23,0,0,0-.46,7.06c0,4.2.52,6.3,1.54,6.3.3,0,.6-.35.9-1.06a13.64,13.64,0,0,0,.78-2.7,37.72,37.72,0,0,0,.54-3.82,43.5,43.5,0,0,0,.22-4.48c0-.91,0-2-.08-3.25q0-.51,0-1a8.72,8.72,0,0,1,1.68-4.91c.55-.84,1-1.26,1.22-1.26q1,0,1,5.74a53,53,0,0,1-.55,7.81,36.66,36.66,0,0,1-1.93,7.62,23.11,23.11,0,0,1-1.52,3.27,13.74,13.74,0,0,1-1.75,2.51,3.16,3.16,0,0,1-2.33,1.22q-2.3,0-3.4-2.81t-1.11-8.7Z"/><path class="cls-5" d="M135,20.48l-5.07,0V21a7,7,0,0,0,.58,2.9c.38.87.82,1.3,1.29,1.3a4.56,4.56,0,0,0,2.08-.84A22.47,22.47,0,0,0,137,21.94l.48-.46a7.2,7.2,0,0,0,.68-.67c.55-.54.89-.82,1-.82s.25.24.25.73a10.52,10.52,0,0,1-.18,1.81,19.81,19.81,0,0,1-.46,1.95,5,5,0,0,1-.56,1.33,10.83,10.83,0,0,1-2.71,2.44,18,18,0,0,1-3.9,2.08,4.1,4.1,0,0,1-1.22.22,5.52,5.52,0,0,1-3.48-1.23A7.9,7.9,0,0,1,124.46,26a12.58,12.58,0,0,1-.87-4.77,22.51,22.51,0,0,1,.57-4.77,33.35,33.35,0,0,1,1.6-5.2,31.31,31.31,0,0,1,2.33-4.71,21.44,21.44,0,0,1,2.52-3.37A13.65,13.65,0,0,1,133.32.82,4.65,4.65,0,0,1,135.74,0a3.69,3.69,0,0,1,3,1.55,5.78,5.78,0,0,1,1.24,3.75,11,11,0,0,1-.23,2.11,9.66,9.66,0,0,1-.6,2,7,7,0,0,1-1.16,1.8,8.41,8.41,0,0,1-1.74,1.52,3.94,3.94,0,0,1-2,.72c-.55,0-.82-.21-.82-.63a2.65,2.65,0,0,1,.47-1.17,8.55,8.55,0,0,0,1-1.93,22.18,22.18,0,0,0,.8-3.05A15.91,15.91,0,0,0,136,3.93c0-.54-.1-.81-.31-.81s-.91.57-1.75,1.71a17.57,17.57,0,0,0-2,3.36,22.83,22.83,0,0,0-1.14,3.15,18.17,18.17,0,0,0-.6,3.15h7.4c.82,0,1.22.34,1.22,1a6.94,6.94,0,0,1-1.36,3C136.56,19.83,135.73,20.48,135,20.48Z"/><path class="cls-6" d="M145.17,6.92l.38-1.5a8,8,0,0,0-.88.21,2.61,2.61,0,0,1-.77.09c-.46,0-.69-.36-.69-1.07a4,4,0,0,1,.17-1.09,3.46,3.46,0,0,1,.4-1,3.59,3.59,0,0,1,2-1.18A12.78,12.78,0,0,1,149.45,1a7,7,0,0,1,3.05.68A7.5,7.5,0,0,1,155,3.53a8.74,8.74,0,0,1,1.65,2.76,9.49,9.49,0,0,1,.59,3.38,12.51,12.51,0,0,1-.51,3.64,9.39,9.39,0,0,1-1.45,2.94,7.22,7.22,0,0,1-1.17,1.28,8.06,8.06,0,0,1-1.55.93,11.69,11.69,0,0,0,.46,1.19c.14.28.36.66.67,1.16a12.06,12.06,0,0,0,3.57,3.24,2.27,2.27,0,0,0,.28.18,26.06,26.06,0,0,1-.47,2.72,11.45,11.45,0,0,1-.69,1.87q-.87,1.8-2.07,1.8a2.89,2.89,0,0,1-1.64-.78,6.85,6.85,0,0,1-1.6-1.84,18.9,18.9,0,0,1-.89-1.92c-.28-.67-.55-1.44-.83-2.3s-.51-1.7-.71-2.51-.35-1.53-.44-2.15a3.56,3.56,0,0,1,0-.51,1.24,1.24,0,0,1,.17-.72,1.42,1.42,0,0,1,.62-.49,4.1,4.1,0,0,0,1-.78,11.54,11.54,0,0,0,1-1.33,10.85,10.85,0,0,0,1.11-2.83,13.45,13.45,0,0,0,.4-3.28,6.71,6.71,0,0,0-.57-3,3.2,3.2,0,0,0-1.82-1.53q-1.22,6.9-2.41,13l-.3,1.68q-.74,4-1.23,5.91a10.29,10.29,0,0,1-1,2.72,5.88,5.88,0,0,1-1.51,1.54,3.18,3.18,0,0,1-1.62.75c-.76,0-1.14-.69-1.14-2.08a21.6,21.6,0,0,1,.31-2.9q.32-2,1-5.34c.44-2.19.89-4.34,1.37-6.44S144.62,9.14,145.17,6.92Z"/><path class="cls-7" d="M9.28,4.44H8.34c-2.92,0-4.7.32-4.7,4.81C3.64,12.72,5.45,14,10.3,14H31.58a8.39,8.39,0,0,1-.84-1.34H8.36V11.59h22A7.72,7.72,0,0,1,30,10H8.36V8.9H30a7.42,7.42,0,0,1,.27-1.76H8.36V6.06H30.61a7.45,7.45,0,0,1,1-1.61H9.28Z"/><path class="cls-8" d="M31.58,14H10.3c-4.85,0-6.66-1.29-6.66-4.77,0-4.49,1.78-4.81,4.7-4.81H31.57l.24-.3V3.32h-29V15.51h29V14.3Z"/><path class="cls-8" d="M31.81,14h-.23l.23.29Z"/><path class="cls-8" d="M31.81,4.45v-.3l-.24.3Z"/><path class="cls-7" d="M9.28,18H8.34c-2.92,0-4.7.32-4.7,4.8,0,3.49,1.81,4.78,6.66,4.78H31.58a8,8,0,0,1-1-1.69H8.36V24.82H30.2a7.63,7.63,0,0,1-.25-1.6H8.36V22.13H30a7.86,7.86,0,0,1,.36-1.76h-22V19.29H30.78A7.42,7.42,0,0,1,31.57,18H9.28Z"/><path class="cls-8" d="M31.81,27.87l-.23-.28H10.3c-4.85,0-6.66-1.29-6.66-4.78,0-4.48,1.78-4.8,4.7-4.8H31.57l.24-.3V16.9h-29V29.09h29Z"/><path class="cls-8" d="M31.81,27.59h-.23l.23.28Z"/><path class="cls-8" d="M31.81,18v-.3l-.24.3Z"/><path class="cls-9" d="M8.36,12.67H30.74a7.15,7.15,0,0,1-.43-1.08H8.36Z"/><path class="cls-9" d="M8.36,10H30c0-.25,0-.51,0-.77,0-.1,0-.21,0-.32H8.36Z"/><path class="cls-9" d="M8.36,7.14H30.22a7,7,0,0,1,.39-1.08H8.36Z"/><path class="cls-9" d="M8.36,25.9H30.58a8.13,8.13,0,0,1-.38-1.08H8.36Z"/><path class="cls-9" d="M8.36,23.22H30c0-.14,0-.28,0-.42s0-.45,0-.67H8.36Z"/><path class="cls-9" d="M8.36,20.37h22a8.54,8.54,0,0,1,.46-1.08H8.36Z"/><path class="cls-10" d="M9.56.77h-1C6.23.76,0,.76,0,9.43c0,5.74,3.54,8.65,10.53,8.65H33V14.21H10.53c-4.85,0-6.67-1.3-6.67-4.78,0-4.48,1.78-4.8,4.71-4.8H33V.79H10.42l-.86,0"/><path class="cls-10" d="M9.56,14.15h-1c-2.34,0-8.57,0-8.57,8.67,0,5.73,3.54,8.64,10.53,8.64H33V27.58H10.53c-4.85,0-6.67-1.29-6.67-4.77C3.86,18.33,5.64,18,8.57,18l.93,0H33V14.16H9.56"/></g></g></svg>