<?xml version="1.0" encoding="UTF-8"?>
<svg xmlns="http://www.w3.org/2000/svg" version="1.1" viewBox="0 0 28 28">
  <defs>
    <style>
      .cls-1 {
        fill: #66f;
      }
    </style>
  </defs>
  <!-- Generator: Adobe Illustrator 28.7.8, SVG Export Plug-In . SVG Version: 1.2.0 Build 200)  -->
  <g>
    <g id="_圖層_1" data-name="圖層_1">
      <g>
        <path class="cls-1" d="M25,9.2h-3c-.1-2.8-1.9-7.6-8-7.8-2.4,0-4.3.7-5.7,2-2,2-2.4,5-2.5,5.8h-3.2c-1.1.1-1.9,1-2,2.2v13c0,1.2,1,2.2,2.2,2.2h22c1.2,0,2.2-1,2.2-2.2v-13c0-1.2-1-2.2-2.2-2.2ZM8.5,9.2c0-.7.3-2.8,1.7-4.1,1-.9,2.3-1.3,3.8-1.2,4.9.2,5.5,4.2,5.6,5.3h-11.1ZM24.8,11.7v12.5H3.2v-12.5h21.5Z"/>
        <path class="cls-1" d="M14,20.6c1,0,1.8-1.2,1.8-2.8s-.8-2.8-1.8-2.8-1.8,1.2-1.8,2.8.8,2.8,1.8,2.8Z"/>
      </g>
    </g>
  </g>
</svg>