<?xml version="1.0" encoding="UTF-8"?>
<svg xmlns="http://www.w3.org/2000/svg" version="1.1" viewBox="0 0 28 28">
  <defs>
    <style>
      .cls-1 {
        fill: #66f;
      }
    </style>
  </defs>
  <!-- Generator: Adobe Illustrator 28.7.8, SVG Export Plug-In . SVG Version: 1.2.0 Build 200)  -->
  <g>
    <g id="_圖層_1" data-name="圖層_1">
      <path class="cls-1" d="M23,18.9c-1.2-1.4-2.8-2.4-4.8-2.9,2.5-1.4,4.1-3.2,4.1-7.1S18.5.7,14,.7,5.8,4.4,5.8,8.9s1.5,5.8,4,7.1c-2,.6-3.6,1.5-4.8,2.9-2.5,2.9-2.6,6.6-2.5,8.1v.3s2.5-.3,2.5-.3v-.2s-.4-3.7,1.8-6.2c1.6-1.7,4-2.5,7.1-2.5s5.5.8,7.1,2.5c2.2,2.5,1.8,6.2,1.8,6.2v.2s2.2.2,2.2.2h.3s0-.3,0-.3c0-1.5,0-5.2-2.5-8.1ZM14,3.2c3.2,0,5.8,2.6,5.8,5.8s-2.6,5.7-5.8,5.7-5.8-2.6-5.8-5.7,2.6-5.8,5.8-5.8Z"/>
    </g>
  </g>
</svg>