<svg xmlns="http://www.w3.org/2000/svg" viewBox="0 0 17.44 17.3"><defs><style>.cls-1{fill:#fff;}</style></defs><g id="圖層_2" data-name="圖層 2"><g id="圖層_1-2" data-name="圖層 1"><path class="cls-1" d="M16.91,12.24a1.13,1.13,0,0,0-.22-1.07A34.61,34.61,0,0,0,14,8.53a2,2,0,0,0,1.12-.65l.05,0A1.91,1.91,0,0,0,15,5.12L10.7,1.5A1.93,1.93,0,0,0,8,1.73l0,.05A1.87,1.87,0,0,0,7.5,3.19v0L7,2.81C6.37,2.39,5.8,2,5.22,1.6L3.16,4.17l.18.17.91.72H2.45A1.86,1.86,0,0,0,.65,6.93a1.63,1.63,0,0,0,.1.59A1.31,1.31,0,0,0,1,7.94L1,8a.06.06,0,0,1,0,0,.16.16,0,0,1,0,.08.44.44,0,0,1-.13.09A1.7,1.7,0,0,0,0,9.8a1.73,1.73,0,0,0,.46,1.28,1.56,1.56,0,0,0,.37.29l.16.09.13.06L1,11.63l-.12.13a1.74,1.74,0,0,0-.26.93A1.77,1.77,0,0,0,1.18,14a1.78,1.78,0,0,0,1.21.53,1.77,1.77,0,0,1-.12.29,1.79,1.79,0,0,0-.18.79,1.77,1.77,0,0,0,.53,1.27,1.69,1.69,0,0,0,1.27.46H10.3a2,2,0,0,0,1.41-.59,1.61,1.61,0,0,0,.46-1.24,1.8,1.8,0,0,0-.52-1.18l-.22-.19a1.71,1.71,0,0,0,.75-1.41,1.79,1.79,0,0,0-.53-1.27l-.22-.19a1.38,1.38,0,0,0,.41-.39,34.07,34.07,0,0,0,3.49,2.09,1.11,1.11,0,0,0,.5.12,1.14,1.14,0,0,0,.66-.22l.51.39.44-.57ZM12.07,7.39l0,0L12,7.54a.36.36,0,0,1-.07.1h0l-.11.11-.11.08h0A1.12,1.12,0,0,1,11.1,8H5.69v.72H8.84q1.21.9,2.4,1.71a1.07,1.07,0,0,1-.87.38H5.69v.72h4.68a1.16,1.16,0,0,1,.77.39,1.07,1.07,0,0,1,.31.76,1,1,0,0,1-1.07,1H5.69v.72h4.69a1.2,1.2,0,0,1,.76.38,1.05,1.05,0,0,1,.31.71.91.91,0,0,1-.26.7,1.21,1.21,0,0,1-.89.37H3.89a1,1,0,0,1-.76-.25,1,1,0,0,1-.32-.76,1.16,1.16,0,0,1,.11-.48,1.11,1.11,0,0,0,.14-.93.76.76,0,0,0-.48-.38H2.45a1.05,1.05,0,0,1-.76-.32,1,1,0,0,1-.32-.76,1,1,0,0,1,.14-.53l.05-.05c.15-.17.52-.57.25-.94a1.27,1.27,0,0,0-.49-.36l-.13-.07A.69.69,0,0,1,1,10.57,1,1,0,0,1,.72,9.8a1,1,0,0,1,.52-1,1,1,0,0,0,.36-.31.89.89,0,0,0,.14-.47.71.71,0,0,0-.06-.31.84.84,0,0,0-.12-.23,1,1,0,0,1-.13-.24,1,1,0,0,1-.06-.36A1.15,1.15,0,0,1,2.45,5.78H11.1a1.23,1.23,0,0,1,.76.39,1.08,1.08,0,0,1,.31.76A1,1,0,0,1,12.07,7.39Zm1,.27-.24-.2,0,0,0,0a1.7,1.7,0,0,0,.07-.46,1.79,1.79,0,0,0-.53-1.27,1.87,1.87,0,0,0-1.27-.6H9.94L8.64,3.94a1.17,1.17,0,0,1-.43-.81,1.26,1.26,0,0,1,.29-.89l0-.05a1.21,1.21,0,0,1,1.7-.14l4.28,3.62a1.24,1.24,0,0,1,.42.82,1.19,1.19,0,0,1-.28.87l-.05.06A1.2,1.2,0,0,1,13.07,7.66Z"/><path class="cls-1" d="M4.62,1.2C4.08.83,3.54.49,3,.17A1.5,1.5,0,0,0,1.31.4a1.38,1.38,0,0,0-.44,1A1.51,1.51,0,0,0,1.3,2.45L2.62,3.69Z"/></g></g></svg>