<?xml version="1.0" encoding="UTF-8"?><svg id="_圖層_2" xmlns="http://www.w3.org/2000/svg" viewBox="0 0 22.42 20.18"><defs><style>.cls-1{fill:#fff;}</style></defs><g id="_圖層_1-2"><path class="cls-1" d="m10.48,13.45c0,.33,0,.65-.02.98,0,.2.03.37.23.47.09.04.16.08.15.2-.03.19.1.46-.07.56-.17.1-.39-.06-.55-.17-.3-.21-.52-.49-.48-.85.04-.44-.16-.45-.5-.45-2.29.01-4.58,0-6.86,0q-.86,0-.86-.89c0-.54,0-1.09-.01-1.63,0-.1,0-.19,0-.28v-1.59c0-.19,0-.37,0-.56,0-.12,0-.25,0-.38,0-2.72,0-5.44.01-8.16C1.5.04,1.53,0,2.21,0,4.76,0,7.31,0,9.86,0c.39,0,.65.09.6.54-.03.31.21.31.35.29.14-.01.42.06.4-.29C11.18.1,11.42,0,11.81,0c2.58,0,5.16,0,7.74,0,.55,0,.62.07.62.62,0,2.75,0,5.5.01,8.25v1.4c0,.45-.04.9,0,1.35.02.33-.14.33-.38.34-.25,0-.39,0-.38-.34.02-.79,0-1.59,0-2.38v-.38c0-2.61,0-5.23.02-7.84,0-.22-.06-.29-.29-.29-2.3,0-4.61,0-6.91,0-.23,0-.29.06-.28.29.01,2.64.01,5.29.02,7.93,0,.09,0,.19,0,.28,0,.92,0,1.85-.01,2.77,0,.14.01.31-.26.31-.25,0-.49.08-.5-.27v-.84c0-.31,0-.62,0-.94,0-.09,0-.18,0-.28v-.28c0-.15,0-.31,0-.46v-.38c0-2.37,0-4.73.02-7.09,0-.34-.19-.28-.38-.28s-.38-.06-.38.28c.02,2.36.02,4.73.02,7.09v1.4c0,.34,0,.69,0,1.03,0,.16,0,.31,0,.46v.94c0,.16,0,.31,0,.46,0,.09,0,.19,0,.28Zm-8.23-.98q0,1.02,1.02.96c.69,0,5.9,0,6.23.02.24.01.24-.12.2-.29,0-.26,0-4.17,0-4.29,0-2.61,0-5.23.02-7.84,0-.22-.06-.29-.28-.29-2.3,0-4.61,0-6.91,0-.22,0-.29.06-.29.29.01,2.92,0,11.17,0,11.44Z"/><path class="cls-1" d="m21.11,13.04c.93.6,1.34,1.45,1.31,2.56-.03.88,0,1.77,0,2.66,0,.69-.32,1.1-.86,1.6-.2.18-.38.32-.77.31-1.66,0-3.51,0-5.17,0-.69,0-2.43-2.59-3.17-3.52-.28-.35-.58-.69-.87-1.04-.61-.74-.65-1.25-.18-2.08.13-.12.27-.24.4-.36.3-.11.59-.22.91-.21.19.06.38.12.56.17.37.19.57.57.93.91,0-1.48,0-2.87,0-4.26,0-.9.63-1.56,1.48-1.57.85,0,1.5.66,1.5,1.55,0,.84.03,1.68,0,2.51-.02.41.13.48.48.4h.38c.12,0,.25,0,.37,0,.16,0,.31,0,.47,0,.46,0,.92.02,1.38.02.29.11.58.22.86.33Zm-4.69.41c0-1.24,0-2.48.01-3.72,0-.11,0-.22-.09-.3-.14-.39-.45-.51-.81-.44-.4.08-.59.37-.59.78,0,2.83,0,5.66,0,8.49,0,.68.47,1.15,1.14,1.16,1.48.01,2.96.01,4.43,0,.65,0,1.13-.46,1.14-1.11.02-1.03.02-2.05,0-3.08-.01-.53-.24-.99-.74-1.38,0,.33-.02.58,0,.82.04.32-.17.28-.35.26-.17-.01-.43.12-.41-.25.02-.31,0-.62,0-.93,0-.11.05-.28-.14-.29-.31-.02-.64-.07-.92.03-.16.06-.04.4-.06.61,0,.01,0,.03,0,.05.04.28,0,.44-.37.44-.36,0-.39-.14-.38-.43.02-.71,0-.69-.69-.71-.35-.01-.49.08-.43.43.02.12-.01.25,0,.37.04.26-.07.32-.33.34-.35.02-.47-.08-.43-.43.03-.23,0-.47,0-.7Zm-2.23,4.12c0-.42-.04-.73,0-1.03.16-.96-.21-1.7-.89-2.34-.42-.4-.84-.51-1.18-.22-.36.31-.35.71.04,1.18.64.78,1.3,1.54,2.02,2.41Z"/><path class="cls-1" d="m.77,11.68c0,.85,0,1.71-.02,2.56-.01.33.13.33.38.33,2.47,0,4.94,0,7.42,0,.27,0,.45-.01.45.37,0,.35-.13.39-.43.39-2.64-.01-5.29,0-7.93,0C.07,15.32,0,15.25,0,14.71c0-4.38,0-8.77,0-13.15,0-.28,0-.44.38-.44s.38.15.38.44c0,2.47,0,4.94,0,7.42v1.96c0,.15,0,.31,0,.46v.28Z"/><path class="cls-1" d="m20.91,8.88c0-2.44.01-4.88,0-7.33,0-.29.01-.44.38-.44.37,0,.38.16.38.44,0,3.36,0,6.72,0,10.08q0,.68-.65.71c-.16-.09-.09-.24-.09-.37-.01-.47-.01-.95-.02-1.42v-1.68Z"/><path class="cls-1" d="m3.27,2.24h.34c.15,0,.28.13.28.28v.34c0,.15-.13.28-.28.28h-.34c-.16,0-.28-.13-.28-.28v-.34c0-.15.13-.28.28-.28Z"/><rect class="cls-1" x="4.52" y="2.24" width="4.46" height=".9" rx=".28" ry=".28"/><path class="cls-1" d="m3.27,6.69h5.44c.15,0,.28.13.28.28v.34c0,.16-.13.28-.28.28H3.27c-.15,0-.28-.13-.28-.28v-.34c0-.15.13-.28.28-.28Z"/><path class="cls-1" d="m3.27,4.46h5.44c.15,0,.28.13.28.28v.34c0,.16-.13.28-.28.28H3.27c-.15,0-.28-.13-.28-.28v-.34c0-.15.13-.28.28-.28Z"/><path class="cls-1" d="m17.3,2.24h1.36c.1,0,.17.08.17.17v.56c0,.1-.08.17-.17.17h-1.36c-.1,0-.17-.08-.17-.17v-.56c0-.1.08-.17.17-.17Z"/><path class="cls-1" d="m13.09,2.24h3.15c.14,0,.25.11.25.25v.4c0,.14-.11.25-.25.25h-3.15c-.14,0-.25-.11-.25-.25v-.39c0-.14.11-.25.25-.25Z"/><path class="cls-1" d="m13.12,6.69h5.44c.15,0,.28.13.28.28v.34c0,.16-.13.28-.28.28h-5.44c-.15,0-.28-.13-.28-.28v-.34c0-.15.13-.28.28-.28Z"/><path class="cls-1" d="m13.12,4.46h5.44c.15,0,.28.13.28.28v.34c0,.16-.13.28-.28.28h-5.44c-.15,0-.28-.13-.28-.28v-.34c0-.15.13-.28.28-.28Z"/><path class="cls-1" d="m3.27,8.91h5.44c.15,0,.28.13.28.28v.34c0,.16-.13.28-.28.28H3.27c-.15,0-.28-.13-.28-.28v-.34c0-.15.13-.28.28-.28Z"/><rect class="cls-1" x="2.99" y="11.13" width="6" height=".9" rx=".28" ry=".28"/></g></svg>