<svg xmlns="http://www.w3.org/2000/svg" viewBox="0 0 20.27 15.1"><defs><style>.cls-1{fill:#fff;}</style></defs><g id="圖層_2" data-name="圖層 2"><g id="圖層_1-2" data-name="圖層 1"><path class="cls-1" d="M20.23,3.78A.49.49,0,0,0,20,3.54L20,3.46C19.34,2.66,17.48.2,14.78,0a6.29,6.29,0,0,0-4.67,2A5.89,5.89,0,0,0,5.67,0C3.77.1,1.87,1.33.18,3.55a.9.9,0,0,0,0,1.08L.41,5a9.83,9.83,0,0,0,5,4V11c0,2.26,2.12,4.09,4.73,4.09s4.74-1.83,4.74-4.09V9a8.27,8.27,0,0,0,4.91-3.88c.1-.18.2-.33.27-.44a.8.8,0,0,0,.17-.4A.48.48,0,0,0,20.23,3.78ZM5.72,1a5.27,5.27,0,0,1,4,2l.33.36L10.43,3a5.66,5.66,0,0,1,4.29-2c2,.14,3.53,1.86,4.25,2.79a31.76,31.76,0,0,1-8.88,1.06A31.71,31.71,0,0,1,1.23,3.75C2.66,2,4.21,1,5.72,1ZM1.46,4.81a25,25,0,0,0,3.9.7V7.92A8.65,8.65,0,0,1,1.46,4.81Zm8.63,9.35C8,14.16,6.31,12.74,6.31,11V5.6c1.05.09,2.16.14,3.31.15V8.58a.48.48,0,0,0,1,0V5.75c1.15,0,2.26-.06,3.31-.15V11C13.88,12.74,12.18,14.16,10.09,14.16ZM14.83,8V5.51a24.5,24.5,0,0,0,4-.72A7.2,7.2,0,0,1,14.83,8Z"/></g></g></svg>