<svg xmlns="http://www.w3.org/2000/svg" viewBox="0 0 11.37 17.14"><defs><style>.cls-1{fill:#fff;}</style></defs><g id="圖層_2" data-name="圖層 2"><g id="圖層_1-2" data-name="圖層 1"><path class="cls-1" d="M11.17,4a5.85,5.85,0,0,0-5-3.88C2.23-.4.82,1.71.33,3A6.26,6.26,0,0,0,.14,6.34a.48.48,0,0,0,.57.36.47.47,0,0,0,.35-.57,5.59,5.59,0,0,1,.16-2.79C1.7,2.07,2.92.63,6,1a4.92,4.92,0,0,1,4.25,3.21c.5,1.68-.17,3.51-1.84,5A7.39,7.39,0,0,0,6,13.5l-.06.21c-.37,1.45-.75,2.48-2.24,2.48A2.18,2.18,0,0,1,1.6,14.36.49.49,0,0,0,1.05,14a.48.48,0,0,0-.39.55,3.1,3.1,0,0,0,3,2.61C6,17.14,6.51,15.22,6.84,14l0-.21A6.52,6.52,0,0,1,9.06,9.92C11,8.2,11.77,6,11.17,4Z"/><path class="cls-1" d="M7,7.63l-.2.18a5.89,5.89,0,0,0-2.21,3.35.47.47,0,0,0,.37.56.48.48,0,0,0,.56-.38,5,5,0,0,1,1.9-2.82l.21-.18c1.72-1.54,1.62-3,1.41-3.69A4.14,4.14,0,0,0,5.78,2a3.4,3.4,0,0,0-2.87.75A3.45,3.45,0,0,0,2,5.31a2.68,2.68,0,0,0,.77,1.88c.7.72.89,1.26.56,1.6a3.28,3.28,0,0,0-.43,3.28.47.47,0,0,0,.42.24.46.46,0,0,0,.23-.06.48.48,0,0,0,.18-.65,2.39,2.39,0,0,1,.29-2.15C4.47,9,5,8.05,3.49,6.53A1.62,1.62,0,0,1,3,5.34H3a1.66,1.66,0,0,1,1.2-.25,1.13,1.13,0,0,1,.7.73.48.48,0,0,0,.44.29.49.49,0,0,0,.19,0,.46.46,0,0,0,.24-.62,2.07,2.07,0,0,0-1.3-1.26,2.24,2.24,0,0,0-1.37.07,1.88,1.88,0,0,1,.47-.8A2.47,2.47,0,0,1,5.66,3a3.19,3.19,0,0,1,2.5,2A2.67,2.67,0,0,1,7,7.63Z"/></g></g></svg>