<svg xmlns="http://www.w3.org/2000/svg" viewBox="0 0 20.78 12.08"><defs><style>.cls-1{fill:#fff;}</style></defs><g id="圖層_2" data-name="圖層 2"><g id="圖層_1-2" data-name="圖層 1"><path class="cls-1" d="M20.6,5.49C19.62,4.2,16,0,10.39,0S1.16,4.2.18,5.49a.93.93,0,0,0,0,1.1c1,1.29,4.61,5.49,10.21,5.49s9.23-4.2,10.21-5.49A.93.93,0,0,0,20.6,5.49ZM14,4.54A3.6,3.6,0,1,1,10.39,1,3.6,3.6,0,0,1,14,4.54Zm5.65,1.75c-1.16,1.43-4.42,4.85-9.24,4.85S2.3,7.72,1.15,6.29a.42.42,0,0,1,0-.5A13.7,13.7,0,0,1,7,1.53a4.5,4.5,0,0,0-1.16,3,4.55,4.55,0,1,0,7.94-3,13.76,13.76,0,0,1,5.85,4.26A.42.42,0,0,1,19.63,6.29Z"/><path class="cls-1" d="M10.39,6.18A1.64,1.64,0,1,0,8.75,4.54,1.64,1.64,0,0,0,10.39,6.18ZM9.83,3.51c.37,0,.67.46.67,1s-.3,1-.67,1-.67-.46-.67-1S9.46,3.51,9.83,3.51Z"/></g></g></svg>