<?xml version="1.0" encoding="utf-8"?>
<!-- Generator: Adobe Illustrator 25.4.1, SVG Export Plug-In . SVG Version: 6.00 Build 0)  -->
<svg version="1.1" id="圖層_1" xmlns="http://www.w3.org/2000/svg" xmlns:xlink="http://www.w3.org/1999/xlink" x="0px" y="0px"
	 viewBox="0 0 572 181.6" style="enable-background:new 0 0 572 181.6;" xml:space="preserve" preserveAspectRatio="none">
<style type="text/css">
	.st0{fill:#5B5B5D;}
	.st1{fill:#EAEAEA;stroke:#5B5B5D;stroke-width:0.88;stroke-miterlimit:10;}
</style>
<g id="圖層_2_00000087387914656784665420000002316768259243044534_">
	<g id="圖層_1-2">
		<path class="st0" d="M194.6,46c0,9.5-2.8,18.7-8.1,26.6c-4.2,6.2-9.9,11.2-16.6,14.6h0.1v0.9c6.9-3.4,12.9-8.6,17.2-15
			c5.4-8,8.2-17.5,8.2-27.1c0-25.4-20.6-46-46-46H43.6C27.9,0,13.2,8,4.8,21.3l0.8,0.5c8.3-13,22.6-20.9,38-20.9h105.9
			C174.4,0.9,194.6,21.1,194.6,46z"/>
		<path class="st0" d="M321,135.6c0,24.9-20.2,45.1-45.1,45.1h-106c-24.9,0-45.1-20.3-45.1-45.2c0-15.9,8.4-30.6,22.1-38.7
			c3.6-2,7.3-3.6,11.3-4.7v-0.9c-4.1,1.1-8.1,2.7-11.8,4.9c-21.8,13-29,41.2-16.1,63c8.3,14,23.3,22.5,39.5,22.5h105.9
			c25.4,0.2,46.1-20.3,46.3-45.7c0.1-22.3-15.7-41.5-37.7-45.5v0.9C305.7,95.4,321,114,321,135.6z"/>
		<path class="st1" d="M167,91.3c0,1.5-1.2,2.8-2.7,2.8c-1.5,0-2.8-1.2-2.8-2.7s1.2-2.8,2.7-2.8c0,0,0,0,0,0
			C165.8,88.6,167,89.8,167,91.3z"/>
		<path class="st1" d="M280.6,91.3c0,1.5-1.2,2.8-2.7,2.8c-1.5,0-2.8-1.2-2.8-2.7s1.2-2.8,2.7-2.8c0,0,0,0,0,0
			C279.4,88.6,280.6,89.8,280.6,91.3z"/>
		<path class="st0" d="M291.7,0.9h105.9c24.9,0,45.1,20.2,45.1,45.1c0,3.3-0.3,6.5-0.9,9.7c-1,5.1-2.8,10-5.5,14.6
			c-2.5,4.4-5.8,8.3-9.7,11.5c-2.6,2.1-5.4,3.9-8.4,5.4h0.1v0.9c3.2-1.5,6.1-3.4,8.8-5.6c4-3.3,7.3-7.3,9.9-11.7
			c2.7-4.6,4.5-9.6,5.5-14.8c0.7-3.3,1-6.6,1-9.9c0-25.4-20.6-46-46-46h-106c-25.4,0-46,20.6-46,46c0,19.7,10.5,35.7,26.9,42.3v-1
			c-15.9-6.5-26-22.1-26-41.3C246.6,21.1,266.8,0.9,291.7,0.9z"/>
		<path class="st0" d="M565.7,152.7c-6.9,17-23.4,28-41.8,28H418c-24.9,0-45.1-20.2-45.1-45.1c0-16.1,8.5-30.9,22.4-39
			c2.9-1.7,6-3,9.3-4c0.6-0.2,1.2-0.4,1.9-0.6v-0.9c-0.7,0.2-1.4,0.4-2.1,0.6c-3.3,1-6.4,2.4-9.4,4.1c-22,12.7-29.5,40.9-16.7,62.9
			c8.2,14.2,23.4,22.9,39.8,22.9h105.9c18.7,0,35.5-11.3,42.6-28.6L565.7,152.7z"/>
		<path class="st1" d="M414.5,91.3c0,1.5-1.2,2.8-2.7,2.8c-1.5,0-2.8-1.2-2.8-2.7c0-1.5,1.2-2.8,2.7-2.8c0,0,0,0,0,0
			C413.3,88.6,414.5,89.8,414.5,91.3z"/>
		<path class="st1" d="M571.5,147.6c0,1.5-1.2,2.8-2.7,2.8s-2.8-1.2-2.8-2.7c0-1.5,1.2-2.8,2.7-2.8c0,0,0,0,0,0
			C570.3,144.8,571.5,146,571.5,147.6z"/>
		<path class="st0" d="M6.2,27.4c0,1.7-1.4,3.1-3.1,3.1S0,29.1,0,27.4s1.4-3.1,3.1-3.1S6.2,25.6,6.2,27.4L6.2,27.4z"/>
	</g>
</g>
</svg>
