<?xml version="1.0" encoding="UTF-8"?>
<svg xmlns="http://www.w3.org/2000/svg" version="1.1" xmlns:xlink="http://www.w3.org/1999/xlink" viewBox="0 0 62.3 140.8">
  <defs>
    <style>
      .cls-1 {
        fill: #fff;
      }

      .cls-2 {
        fill: url(#_未命名漸層);
        mix-blend-mode: multiply;
      }

      .cls-2, .cls-3 {
        isolation: isolate;
      }

      .cls-4 {
        fill: #4dbdbd;
      }
    </style>
    <radialGradient id="_未命名漸層" data-name="未命名漸層" cx="25.6" cy="2012" fx="25.6" fy="2012" r="34.5" gradientTransform="translate(-1868.4 7280.6) rotate(14.3) scale(1.2 -3.7)" gradientUnits="userSpaceOnUse">
      <stop offset=".4" stop-color="#aabfd0"/>
      <stop offset=".5" stop-color="#bacbd9"/>
      <stop offset=".7" stop-color="#dfe7ed"/>
      <stop offset=".9" stop-color="#f6f8fa"/>
      <stop offset="1" stop-color="#fff"/>
    </radialGradient>
  </defs>
  <!-- Generator: Adobe Illustrator 28.7.7, SVG Export Plug-In . SVG Version: 1.2.0 Build 194)  -->
  <g class="cls-3">
    <g id="_圖層_1" data-name="圖層_1">
      <path class="cls-2" d="M35.8,0L0,140.8c14.3-12.5,27.8-36.6,35.2-66S42.4,17.8,35.8,0Z"/>
      <polygon class="cls-4" points="62.3 19.4 56.1 45.1 24.3 45.1 30.9 19.4 62.3 19.4"/>
      <path class="cls-1" d="M53.5,28.8c0-.1,0-.2-.2-.2h0c-.6-.9-2.5-3.3-5.2-3.5-1.8,0-3.5.7-4.7,2-1.1-1.3-2.7-2-4.4-2s-3.8,1.3-5.5,3.5c-.2.3-.2.8,0,1.1,0,0,0,.2.2.3,1.2,1.8,2.9,3.2,5,4v2c0,2.3,2.1,4.1,4.7,4.1s4.7-1.8,4.7-4.1v-2.1c2.1-.6,3.8-2,4.9-3.9,0-.1.2-.3.3-.4,0-.1,0-.3.2-.4v-.5h0ZM39,25.9c1.6,0,3,.8,4,2l.3.4.3-.3c1.1-1.3,2.6-2,4.3-2,2,.1,3.5,1.9,4.2,2.8-2.9.8-5.9,1.1-8.9,1.1s-6-.3-8.9-1c1.4-1.8,3-2.8,4.5-2.8,0,0,.2-.2.2-.2ZM34.7,29.8c1.3.3,2.6.6,3.9.7v2.4c-1.6-.6-2.9-1.7-3.9-3.1h0ZM43.4,39.1c-2.1,0-3.8-1.4-3.8-3.2v-5.4c1,0,2.2.1,3.3.2v2.8c0,.3.3.4.5.4s.4-.2.4-.4v-2.8c1.2,0,2.3,0,3.3-.2v5.4c0,1.7-1.7,3.1-3.8,3.1h0ZM48.1,32.9v-2.4c1.4-.1,2.7-.4,4-.7-.9,1.5-2.3,2.6-4,3.1h0Z"/>
    </g>
  </g>
</svg>