<?xml version="1.0" encoding="utf-8"?>
<!-- Generator: Adobe Illustrator 27.4.0, SVG Export Plug-In . SVG Version: 6.00 Build 0)  -->
<svg version="1.1" id="圖層_1" xmlns="http://www.w3.org/2000/svg" xmlns:xlink="http://www.w3.org/1999/xlink" x="0px" y="0px"
	 viewBox="0 0 62.3 140.8" style="enable-background:new 0 0 62.3 140.8;" xml:space="preserve">
<style type="text/css">
	.st0{fill:url(#SVGID_1_);}
	.st1{fill:#2EA7E0;}
	.st2{fill:#FFFFFF;}
</style>
<g>
	<g id="圖層_2_00000064345690561249586340000007731878155381787014_">
		<g id="圖層_1-2">
			
				<radialGradient id="SVGID_1_" cx="-65.2213" cy="1369.8246" r="34.46" gradientTransform="matrix(1.12 0.29 0.62 -2.45 -783.12 3440.29)" gradientUnits="userSpaceOnUse">
				<stop  offset="0.36" style="stop-color:#AABFD0"/>
				<stop  offset="0.45" style="stop-color:#BBCBD9"/>
				<stop  offset="0.69" style="stop-color:#E0E7EE"/>
				<stop  offset="0.88" style="stop-color:#F7F9FA"/>
				<stop  offset="1" style="stop-color:#FFFFFF"/>
			</radialGradient>
			<path class="st0" d="M35.8,0L0,140.8c14.3-12.5,27.8-36.6,35.2-66S42.4,17.8,35.8,0z"/>
			<polygon class="st1" points="62.3,19.4 56.1,45.1 24.3,45.1 30.9,19.4 			"/>
			<path class="st2" d="M54.3,31.7c-1-1.3-4.6-5.5-10.2-5.5s-9.2,4.2-10.2,5.5c-0.2,0.3-0.2,0.8,0,1.1c1,1.3,4.6,5.5,10.2,5.5
				s9.2-4.2,10.2-5.5C54.5,32.5,54.5,32,54.3,31.7z M47.6,30.8c0,2-1.6,3.6-3.6,3.6c-2,0-3.6-1.6-3.6-3.6c0-2,1.6-3.6,3.6-3.6
				c0,0,0,0,0,0C46,27.2,47.6,28.8,47.6,30.8z M53.3,32.5c-1.2,1.4-4.4,4.8-9.2,4.8s-8.1-3.4-9.2-4.8c-0.1-0.1-0.1-0.4,0-0.5
				c1.5-1.9,3.6-3.4,5.8-4.3c-1.7,1.9-1.5,4.8,0.4,6.4s4.8,1.5,6.4-0.4c1.5-1.7,1.5-4.3,0-6.1c2.3,0.9,4.3,2.3,5.8,4.3
				C53.4,32.2,53.4,32.4,53.3,32.5z"/>
			<path class="st2" d="M44.1,32.4c0.9,0,1.6-0.7,1.6-1.6s-0.7-1.6-1.6-1.6c-0.9,0-1.6,0.7-1.6,1.6c0,0,0,0,0,0
				C42.4,31.7,43.1,32.4,44.1,32.4C44,32.4,44.1,32.4,44.1,32.4z M43.5,29.7c0.4,0,0.7,0.5,0.7,1s-0.3,1-0.7,1s-0.7-0.5-0.7-1
				S43.1,29.7,43.5,29.7z"/>
		</g>
	</g>
</g>
</svg>
