<svg xmlns="http://www.w3.org/2000/svg" xmlns:xlink="http://www.w3.org/1999/xlink" viewBox="0 0 62.3 140.76"><defs><style>.cls-1{isolation:isolate;}.cls-2{mix-blend-mode:multiply;fill:url(#radial-gradient);}.cls-3{fill:#f8bc00;}.cls-4{fill:#fff;}</style><radialGradient id="radial-gradient" cx="47.86" cy="-1121.61" r="34.46" gradientTransform="matrix(1.12, 0.29, -0.62, 2.45, -755.84, 2799.24)" gradientUnits="userSpaceOnUse"><stop offset="0.36" stop-color="#aabfd0"/><stop offset="0.45" stop-color="#bbcbd9"/><stop offset="0.69" stop-color="#e0e7ee"/><stop offset="0.88" stop-color="#f7f9fa"/><stop offset="1" stop-color="#fff"/></radialGradient></defs><g class="cls-1"><g id="圖層_2" data-name="圖層 2"><g id="圖層_1-2" data-name="圖層 1"><path class="cls-2" d="M35.79,0,0,140.76c14.28-12.46,27.75-36.58,35.22-66S42.38,17.77,35.79,0Z"/><polygon class="cls-3" points="62.3 19.44 56.12 45.12 24.31 45.12 30.85 19.44 62.3 19.44"/><path class="cls-4" d="M53.26,36.85A1.16,1.16,0,0,0,53,35.78a36.4,36.4,0,0,0-2.65-2.65,1.89,1.89,0,0,0,1.12-.64l.05-.05a1.94,1.94,0,0,0-.23-2.71l-4.28-3.62a1.92,1.92,0,0,0-2.71.23l-.05.05a1.94,1.94,0,0,0-.45,1.4,0,0,0,0,1,0,0l-.55-.4c-.58-.42-1.15-.82-1.73-1.21l-2.06,2.57.18.17.91.72H38.8A1.86,1.86,0,0,0,37,31.54a1.63,1.63,0,0,0,.1.59,1.64,1.64,0,0,0,.21.42.41.41,0,0,1,0,.09,0,0,0,0,1,0,0,.16.16,0,0,1,0,.09s-.06,0-.13.08a1.73,1.73,0,0,0-.86,1.57,1.7,1.7,0,0,0,.46,1.28,1.87,1.87,0,0,0,.37.29l.16.08.13.07a.93.93,0,0,1-.1.1l-.11.14a1.74,1.74,0,0,0-.26.93,1.81,1.81,0,0,0,1.74,1.8s-.05.13-.12.28a1.87,1.87,0,0,0-.18.8,1.69,1.69,0,0,0,1.8,1.73h6.41a2,2,0,0,0,1.41-.59,1.65,1.65,0,0,0,.46-1.24A1.78,1.78,0,0,0,48,38.9l-.22-.19a1.7,1.7,0,0,0,.74-1.41A1.78,1.78,0,0,0,48,36a1.86,1.86,0,0,0-.22-.19,1.69,1.69,0,0,0,.41-.39,34.09,34.09,0,0,0,3.48,2.09,1.11,1.11,0,0,0,.5.12,1.14,1.14,0,0,0,.67-.22l.51.39.44-.57ZM48.42,32l0,0-.07.11a.25.25,0,0,1-.08.1h0l-.11.11-.12.08h0a1.06,1.06,0,0,1-.57.17H42v.72h3.15q1.22.9,2.4,1.71a1.08,1.08,0,0,1-.87.38H42v.72h4.68a1.19,1.19,0,0,1,.77.39,1.07,1.07,0,0,1,.31.76,1,1,0,0,1-1.07,1H42V39h4.69a1.2,1.2,0,0,1,.76.38,1.1,1.1,0,0,1,.31.71.91.91,0,0,1-.26.7,1.25,1.25,0,0,1-.89.37H40.24a1,1,0,0,1-.77-.25,1.07,1.07,0,0,1-.31-.76,1,1,0,0,1,.11-.48,1.11,1.11,0,0,0,.14-.93.7.7,0,0,0-.49-.38H38.8a1.09,1.09,0,0,1-.76-.32,1,1,0,0,1-.32-.76,1,1,0,0,1,.14-.53l0-.05c.15-.17.52-.57.24-.94a1.17,1.17,0,0,0-.48-.36l-.13-.07a.87.87,0,0,1-.22-.17,1.2,1.2,0,0,1,.27-1.72.89.89,0,0,0,.35-.31.83.83,0,0,0,.15-.48.7.7,0,0,0-.06-.3.86.86,0,0,0-.13-.23.81.81,0,0,1-.12-.25,1,1,0,0,1-.06-.35,1.15,1.15,0,0,1,1.08-1.15h8.65a1.19,1.19,0,0,1,.76.39,1.07,1.07,0,0,1,.31.76A1,1,0,0,1,48.42,32Zm1,.27-.24-.2,0-.06h0a1.81,1.81,0,0,0-.46-1.73,1.89,1.89,0,0,0-1.27-.6H46.28L45,28.55a1.21,1.21,0,0,1-.43-.82,1.24,1.24,0,0,1,.29-.88l0-.05a1.2,1.2,0,0,1,1.7-.14l4.27,3.62a1.17,1.17,0,0,1,.43.81A1.26,1.26,0,0,1,51,32L51,32A1.19,1.19,0,0,1,49.42,32.27Z"/><path class="cls-4" d="M41,25.81c-.54-.37-1.08-.72-1.6-1a1.5,1.5,0,0,0-1.71.23,1.36,1.36,0,0,0-.44,1,1.48,1.48,0,0,0,.43,1.06L39,28.3Z"/></g></g></g></svg>