<svg xmlns="http://www.w3.org/2000/svg" xmlns:xlink="http://www.w3.org/1999/xlink" viewBox="0 0 62.3 140.76"><defs><style>.cls-1{isolation:isolate;}.cls-2{mix-blend-mode:multiply;fill:url(#radial-gradient);}.cls-3{fill:#552b8c;}.cls-4{fill:#fff;}</style><radialGradient id="radial-gradient" cx="101.68" cy="-1089.5" r="34.46" gradientTransform="matrix(1.12, 0.29, -0.62, 2.45, -796.27, 2705.2)" gradientUnits="userSpaceOnUse"><stop offset="0.36" stop-color="#aabfd0"/><stop offset="0.45" stop-color="#bbcbd9"/><stop offset="0.69" stop-color="#e0e7ee"/><stop offset="0.88" stop-color="#f7f9fa"/><stop offset="1" stop-color="#fff"/></radialGradient></defs><g class="cls-1"><g id="圖層_2" data-name="圖層 2"><g id="圖層_1-2" data-name="圖層 1"><path class="cls-2" d="M35.79,0,0,140.76c14.28-12.46,27.75-36.58,35.22-66S42.38,17.77,35.79,0Z"/><polygon class="cls-3" points="62.3 19.44 56.12 45.12 24.31 45.12 30.85 19.44 62.3 19.44"/><path class="cls-4" d="M53.49,30.76a.45.45,0,0,0-.23-.24l0-.07c-.61-.81-2.46-3.26-5.16-3.45a6.22,6.22,0,0,0-4.68,2,5.87,5.87,0,0,0-4.44-2c-1.9.09-3.8,1.32-5.49,3.55a.9.9,0,0,0,0,1.08c.07.09.14.2.23.33a9.94,9.94,0,0,0,4.95,4V38c0,2.26,2.13,4.1,4.74,4.1s4.73-1.84,4.73-4.1V35.94A8.28,8.28,0,0,0,53,32.05a4.67,4.67,0,0,1,.28-.43,1,1,0,0,0,.16-.4A.47.47,0,0,0,53.49,30.76ZM39,27.94a5.21,5.21,0,0,1,4,2l.33.35.35-.34a5.66,5.66,0,0,1,4.29-2c2,.14,3.53,1.87,4.25,2.79a31.68,31.68,0,0,1-8.87,1.06,32.17,32.17,0,0,1-8.87-1.05C35.92,29,37.47,28,39,27.94Zm-4.26,3.85a25.24,25.24,0,0,0,3.9.7V34.9A8.7,8.7,0,0,1,34.72,31.79Zm8.64,9.35c-2.09,0-3.79-1.41-3.79-3.15V32.58c1,.09,2.17.14,3.31.15v2.83a.48.48,0,0,0,.95,0V32.73c1.15,0,2.26-.06,3.31-.15V38C47.14,39.73,45.44,41.14,43.36,41.14Zm4.73-6.21V32.49a25.51,25.51,0,0,0,4-.71A7.16,7.16,0,0,1,48.09,34.93Z"/></g></g></g></svg>