<svg xmlns="http://www.w3.org/2000/svg" xmlns:xlink="http://www.w3.org/1999/xlink" viewBox="0 0 62.3 140.76"><defs><style>.cls-1{isolation:isolate;}.cls-2{mix-blend-mode:multiply;fill:url(#radial-gradient);}.cls-3{fill:#92c41d;}.cls-4{fill:#fff;}</style><radialGradient id="radial-gradient" cx="128.59" cy="-1073.44" r="34.46" gradientTransform="matrix(1.12, 0.29, -0.62, 2.45, -816.48, 2658.18)" gradientUnits="userSpaceOnUse"><stop offset="0.36" stop-color="#aabfd0"/><stop offset="0.45" stop-color="#bbcbd9"/><stop offset="0.69" stop-color="#e0e7ee"/><stop offset="0.88" stop-color="#f7f9fa"/><stop offset="1" stop-color="#fff"/></radialGradient></defs><g class="cls-1"><g id="圖層_2" data-name="圖層 2"><g id="圖層_1-2" data-name="圖層 1"><path class="cls-2" d="M35.79,0,0,140.76c14.28-12.46,27.75-36.58,35.22-66S42.38,17.77,35.79,0Z"/><polygon class="cls-3" points="62.3 19.44 56.12 45.12 24.31 45.12 30.85 19.44 62.3 19.44"/><path class="cls-4" d="M48,27.64a5.84,5.84,0,0,0-5-3.88c-3.91-.47-5.32,1.64-5.81,2.94A6.41,6.41,0,0,0,37,30a.48.48,0,0,0,.57.35.47.47,0,0,0,.35-.57A5.55,5.55,0,0,1,38.05,27c.48-1.27,1.7-2.71,4.79-2.34a4.92,4.92,0,0,1,4.25,3.21c.5,1.69-.17,3.51-1.84,5a7.39,7.39,0,0,0-2.44,4.28l-.06.22c-.37,1.45-.75,2.47-2.24,2.47a2.19,2.19,0,0,1-2.08-1.82.48.48,0,0,0-.94.16,3.1,3.1,0,0,0,3,2.61c2.33,0,2.83-1.92,3.16-3.19l0-.21a6.53,6.53,0,0,1,2.17-3.81A5.86,5.86,0,0,0,48,27.64Z"/><path class="cls-4" d="M43.86,31.32l-.2.18a5.89,5.89,0,0,0-2.21,3.35.47.47,0,0,0,.37.56.48.48,0,0,0,.56-.37,5,5,0,0,1,1.9-2.83l.21-.18c1.72-1.54,1.62-3,1.41-3.69a4.12,4.12,0,0,0-3.28-2.63,3.36,3.36,0,0,0-2.88.75A3.44,3.44,0,0,0,38.87,29a2.66,2.66,0,0,0,.77,1.88c.7.72.89,1.26.56,1.61a3.27,3.27,0,0,0-.43,3.28.49.49,0,0,0,.42.24.39.39,0,0,0,.23-.07.47.47,0,0,0,.18-.64,2.44,2.44,0,0,1,.29-2.16c.41-.44.89-1.4-.57-2.92a1.66,1.66,0,0,1-.5-1.18h0a1.66,1.66,0,0,1,1.2-.25,1.15,1.15,0,0,1,.7.73.49.49,0,0,0,.44.29.47.47,0,0,0,.43-.66,2.06,2.06,0,0,0-1.3-1.27,2.24,2.24,0,0,0-1.37.07,1.85,1.85,0,0,1,.47-.79,2.47,2.47,0,0,1,2.08-.5,3.19,3.19,0,0,1,2.5,2A2.66,2.66,0,0,1,43.86,31.32Z"/></g></g></g></svg>