<?xml version="1.0" encoding="utf-8"?>
<!-- Generator: Adobe Illustrator 27.4.0, SVG Export Plug-In . SVG Version: 6.00 Build 0)  -->
<svg version="1.1" id="圖層_1" xmlns="http://www.w3.org/2000/svg" xmlns:xlink="http://www.w3.org/1999/xlink" x="0px" y="0px"
	 viewBox="0 0 28.7 28.7" style="enable-background:new 0 0 28.7 28.7;" xml:space="preserve">
<style type="text/css">
	.st0{fill:#1D9BD3;}
	.st1{fill:#FFFFFF;}
</style>
<g id="圖層_2_00000173879481768018636890000017094414304487451799_">
	<g id="圖層_1-2">
		<path class="st0" d="M28.7,14.3c0,7.9-6.4,14.3-14.3,14.3S0,22.3,0,14.3S6.4,0,14.3,0c0,0,0,0,0,0C22.3,0,28.7,6.4,28.7,14.3z"/>
		<path class="st1" d="M24.9,14.3c0,5.8-4.8,10.6-10.6,10.6c-5.8,0-10.6-4.8-10.6-10.6c0-5.8,4.7-10.6,10.6-10.6
			C20.2,3.7,24.9,8.5,24.9,14.3C24.9,14.3,24.9,14.3,24.9,14.3z"/>
		<path class="st0" d="M19.3,14.3c0,2.7-2.2,4.9-4.9,4.9s-4.9-2.2-4.9-4.9s2.2-4.9,4.9-4.9c0,0,0,0,0,0
			C17.1,9.4,19.3,11.6,19.3,14.3C19.3,14.3,19.3,14.3,19.3,14.3z"/>
	</g>
</g>
</svg>
