<?xml version="1.0" encoding="UTF-8"?>
<svg id="_圖層_1" xmlns="http://www.w3.org/2000/svg" version="1.1" viewBox="0 0 28.7 28.7">
  <!-- Generator: Adobe Illustrator 29.5.1, SVG Export Plug-In . SVG Version: 2.1.0 Build 141)  -->
  <defs>
    <style>
      .st0 {
        fill: #fff;
      }

      .st1 {
        fill: #4dbdbd;
      }
    </style>
  </defs>
  <g id="_圖層_2">
    <g id="_圖層_1-2">
      <path class="st1" d="M28.7,14.3c0,7.9-6.4,14.3-14.3,14.3S0,22.3,0,14.3,6.4,0,14.3,0s0,0,0,0c7.9,0,14.3,6.4,14.3,14.3h.1Z"/>
      <path class="st0" d="M24.9,14.3c0,5.8-4.7,10.6-10.6,10.6S3.8,20.2,3.8,14.3,8.5,3.8,14.3,3.8s10.6,4.7,10.6,10.6h0Z"/>
      <path class="st1" d="M19.3,14.3c0,2.7-2.2,4.9-4.9,4.9s-4.9-2.2-4.9-4.9,2.2-4.9,4.9-4.9h0c2.7,0,4.9,2.2,4.9,4.9h0Z"/>
    </g>
  </g>
</svg>