<svg xmlns="http://www.w3.org/2000/svg" xmlns:xlink="http://www.w3.org/1999/xlink" viewBox="0 0 47.1 47.1"><defs><style>.cls-1{fill:url(#linear-gradient);}.cls-2{fill:none;stroke:#fff;stroke-width:3px;}.cls-3{fill:#fff;}</style><linearGradient id="linear-gradient" x1="1.5" y1="23.55" x2="45.6" y2="23.55" gradientUnits="userSpaceOnUse"><stop offset="0" stop-color="#ec9b35"/><stop offset="1" stop-color="#eadc2b"/></linearGradient></defs><g id="圖層_2" data-name="圖層 2"><g id="圖層_1-2" data-name="圖層 1"><circle class="cls-1" cx="23.55" cy="23.55" r="22.05"/><circle class="cls-2" cx="23.55" cy="23.55" r="22.05"/><path class="cls-3" d="M38.6,29.46a1.86,1.86,0,0,0-.37-1.76,53.75,53.75,0,0,0-4.36-4.36,3.15,3.15,0,0,0,1.84-1.06l.08-.09a3.17,3.17,0,0,0-.37-4.47l-7-6a3.18,3.18,0,0,0-4.48.38l-.07.09a3.13,3.13,0,0,0-.74,2.31s0,0,0,0l-.91-.66c-1-.69-1.9-1.35-2.84-2L16,16.17l.29.26,1.5,1.2h-3a3.07,3.07,0,0,0-3,3.08,2.92,2.92,0,0,0,.16,1,3.55,3.55,0,0,0,.36.69.64.64,0,0,1,.08.14.13.13,0,0,1,0,.06.3.3,0,0,1-.05.14.87.87,0,0,1-.21.14,2.83,2.83,0,0,0-1.42,2.57,2.86,2.86,0,0,0,.76,2.12,2.92,2.92,0,0,0,.61.48l.27.13.2.11-.15.17-.19.23a2.84,2.84,0,0,0-.43,1.53,3,3,0,0,0,.87,2.1,3,3,0,0,0,2,.86,2.43,2.43,0,0,1-.19.47,3,3,0,0,0-.3,1.31,2.94,2.94,0,0,0,.87,2.1,2.85,2.85,0,0,0,2.1.75H27.71a3.22,3.22,0,0,0,2.33-1,2.73,2.73,0,0,0,.76-2,3,3,0,0,0-.87-1.94,2.83,2.83,0,0,0-.36-.32A2.79,2.79,0,0,0,30.8,30.2a2.94,2.94,0,0,0-.87-2.1,3.47,3.47,0,0,0-.36-.31,2.76,2.76,0,0,0,.68-.64A55,55,0,0,0,36,30.59a1.87,1.87,0,0,0,.82.2,1.82,1.82,0,0,0,1.1-.37l.84.65.73-.93Zm-8-8,0,.07c0,.06-.07.13-.11.18a1.53,1.53,0,0,1-.13.16v0l-.17.17-.19.14h0a1.82,1.82,0,0,1-1,.28h-8.9v1.19H25.3q2,1.47,4,2.81a1.78,1.78,0,0,1-1.44.63H20.12V28.3h7.71a1.91,1.91,0,0,1,1.26.64,1.75,1.75,0,0,1,.52,1.26,1.68,1.68,0,0,1-1.77,1.66H20.12v1.19h7.72a2,2,0,0,1,1.26.63,1.79,1.79,0,0,1,.51,1.16A1.54,1.54,0,0,1,29.18,36a2,2,0,0,1-1.47.6H17.15a1.72,1.72,0,0,1-1.26-.4,1.78,1.78,0,0,1-.34-2,1.84,1.84,0,0,0,.23-1.54A1.13,1.13,0,0,0,15,32l-.2,0a1.8,1.8,0,0,1-1.26-.52A1.77,1.77,0,0,1,13,30.2a1.61,1.61,0,0,1,.23-.87l.08-.09c.25-.28.86-.94.4-1.55a2,2,0,0,0-.8-.59L12.7,27a1.8,1.8,0,0,1-.37-.28,1.74,1.74,0,0,1-.4-1.28,1.67,1.67,0,0,1,.85-1.56,1.54,1.54,0,0,0,.59-.5,1.43,1.43,0,0,0,.24-.79,1.32,1.32,0,0,0-.1-.51,2,2,0,0,0-.21-.38,1.55,1.55,0,0,1-.21-.4,1.76,1.76,0,0,1-.09-.58,1.88,1.88,0,0,1,1.78-1.89H29a2,2,0,0,1,1.26.63,1.81,1.81,0,0,1,.52,1.26A1.64,1.64,0,0,1,30.62,21.47Zm1.65.44-.39-.33.05-.09-.05,0a2.74,2.74,0,0,0,.11-.76,3,3,0,0,0-.87-2.1,3.09,3.09,0,0,0-2.1-1H27.11L25,15.79a2,2,0,0,1-.23-2.8l.07-.09a2,2,0,0,1,2.8-.23l7,6a2,2,0,0,1,.23,2.78l-.08.1A2,2,0,0,1,32.27,21.91Z"/><path class="cls-3" d="M18.36,11.26c-.9-.59-1.79-1.17-2.65-1.7a2.5,2.5,0,0,0-2.82.38,2.25,2.25,0,0,0-.71,1.64,2.38,2.38,0,0,0,.71,1.74c.69.67,1.43,1.36,2.17,2Z"/></g></g></svg>