<?xml version="1.0" encoding="utf-8"?>
<!-- Generator: Adobe Illustrator 27.4.0, SVG Export Plug-In . SVG Version: 6.00 Build 0)  -->
<svg version="1.1" id="圖層_1" xmlns="http://www.w3.org/2000/svg" xmlns:xlink="http://www.w3.org/1999/xlink" x="0px" y="0px"
	 viewBox="0 0 47.1 47.1" style="enable-background:new 0 0 47.1 47.1;" xml:space="preserve">
<style type="text/css">
	.st0{fill:url(#SVGID_1_);}
	.st1{fill:none;stroke:#FFFFFF;stroke-width:3;}
	.st2{fill:#FFFFFF;}
</style>
<g>
	<g>
		<linearGradient id="SVGID_1_" gradientUnits="userSpaceOnUse" x1="7.9587" y1="39.1408" x2="39.1413" y2="7.9582">
			<stop  offset="0" style="stop-color:#B2DFF5"/>
			<stop  offset="0.9947" style="stop-color:#009FE8"/>
		</linearGradient>
		<path class="st0" d="M45.6,23.5c0,12.2-9.9,22.1-22,22.1c-12.2,0-22-9.9-22-22.1c0-12.2,9.9-22,22-22
			C35.7,1.5,45.6,11.4,45.6,23.5z"/>
		<path class="st1" d="M45.6,23.5c0,12.2-9.9,22.1-22,22.1c-12.2,0-22-9.9-22-22.1c0-12.2,9.9-22,22-22
			C35.7,1.5,45.6,11.4,45.6,23.5z"/>
	</g>
	<g>
		<path class="st2" d="M40.4,22.6c-1.6-2.1-7.6-9.1-16.8-9.1c-9.2,0-15.2,6.9-16.8,9.1c-0.4,0.5-0.4,1.3,0,1.8
			c1.6,2.1,7.6,9.1,16.8,9.1c9.2,0,15.2-6.9,16.8-9.1C40.8,23.9,40.8,23.2,40.4,22.6z M29.5,21.1c0,3.3-2.7,5.9-5.9,5.9
			c-3.3,0-5.9-2.7-5.9-5.9c0-3.3,2.7-5.9,5.9-5.9C26.8,15.2,29.5,17.8,29.5,21.1z M38.8,24c-1.9,2.4-7.3,8-15.2,8s-13.3-5.6-15.2-8
			c-0.2-0.2-0.2-0.6,0-0.8c1.4-1.8,4.8-5.3,9.6-7c-1.2,1.3-1.9,3.1-1.9,5c0,4.1,3.4,7.5,7.5,7.5c4.1,0,7.5-3.4,7.5-7.5
			c0-1.9-0.7-3.6-1.9-5c4.9,1.7,8.2,5.3,9.6,7C39,23.4,39,23.7,38.8,24z"/>
		<path class="st2" d="M23.5,23.8c1.5,0,2.7-1.2,2.7-2.7c0-1.5-1.2-2.7-2.7-2.7s-2.7,1.2-2.7,2.7C20.8,22.6,22.1,23.8,23.5,23.8z
			 M22.6,19.4c0.6,0,1.1,0.8,1.1,1.7c0,0.9-0.5,1.7-1.1,1.7c-0.6,0-1.1-0.8-1.1-1.7C21.5,20.1,22,19.4,22.6,19.4z"/>
	</g>
</g>
</svg>
