<svg xmlns="http://www.w3.org/2000/svg" xmlns:xlink="http://www.w3.org/1999/xlink" viewBox="0 0 47.1 47.1"><defs><style>.cls-1{fill:url(#linear-gradient);}.cls-2{fill:none;stroke:#fff;stroke-width:3px;}.cls-3{fill:#fff;}</style><linearGradient id="linear-gradient" x1="7.96" y1="39.14" x2="39.14" y2="7.96" gradientUnits="userSpaceOnUse"><stop offset="0" stop-color="#7562a9"/><stop offset="1" stop-color="#bb6faa"/></linearGradient></defs><g id="圖層_2" data-name="圖層 2"><g id="圖層_1-2" data-name="圖層 1"><path class="cls-1" d="M45.6,23.55a22.05,22.05,0,1,1-22-22A22,22,0,0,1,45.6,23.55Z"/><path class="cls-2" d="M45.6,23.55a22.05,22.05,0,1,1-22-22A22,22,0,0,1,45.6,23.55Z"/><path class="cls-3" d="M40.38,19.2a.71.71,0,0,0-.38-.4l-.09-.12c-1-1.33-4.06-5.38-8.5-5.69-2.58-.18-5.17.9-7.71,3.23-2.32-2.28-4.78-3.37-7.31-3.24-3.13.16-6.26,2.18-9,5.84a1.5,1.5,0,0,0,0,1.78c.11.15.24.33.38.55a16.45,16.45,0,0,0,8.16,6.54V31.1c0,3.73,3.5,6.75,7.8,6.75s7.8-3,7.8-6.75V27.72c5.39-1.89,7.14-4.82,8.09-6.4.18-.3.33-.55.45-.72a1.44,1.44,0,0,0,.28-.66A.77.77,0,0,0,40.38,19.2ZM16.47,14.54c2.26-.11,4.49,1,6.64,3.31l.55.59.57-.57c2.39-2.37,4.77-3.49,7.07-3.32,3.35.23,5.82,3.07,7,4.6-3.37,1.08-8.81,1.74-14.63,1.74s-11.24-.66-14.61-1.74C11.44,16.25,14,14.66,16.47,14.54Zm-7,6.35a41.51,41.51,0,0,0,6.43,1.16v4A14.36,14.36,0,0,1,9.45,20.89Zm14.23,15.4c-3.44,0-6.24-2.33-6.24-5.19V22.2c1.74.14,3.57.22,5.46.24V27.1a.78.78,0,0,0,1.56,0V22.44c1.9,0,3.73-.1,5.46-.24v8.9C29.92,34,27.12,36.29,23.68,36.29Zm7.8-10.23v-4A39.73,39.73,0,0,0,38,20.86,11.75,11.75,0,0,1,31.48,26.06Z"/></g></g></svg>