<?xml version="1.0" encoding="utf-8"?>
<!-- Generator: Adobe Illustrator 27.4.0, SVG Export Plug-In . SVG Version: 6.00 Build 0)  -->
<svg version="1.1" id="圖層_1" xmlns="http://www.w3.org/2000/svg" xmlns:xlink="http://www.w3.org/1999/xlink" x="0px" y="0px"
	 viewBox="0 0 47.1 47.1" style="enable-background:new 0 0 47.1 47.1;" xml:space="preserve">
<style type="text/css">
	.st0{fill:url(#SVGID_1_);}
	.st1{fill:none;stroke:#FFFFFF;stroke-width:3;}
	.st2{fill:#FFFFFF;}
</style>
<g>
	<g>
		<linearGradient id="SVGID_1_" gradientUnits="userSpaceOnUse" x1="1.5002" y1="23.55" x2="45.5998" y2="23.55">
			<stop  offset="0" style="stop-color:#007DC7"/>
			<stop  offset="1" style="stop-color:#003993"/>
		</linearGradient>
		<circle class="st0" cx="23.5" cy="23.5" r="22"/>
		
			<ellipse transform="matrix(0.9999 -1.351010e-02 1.351010e-02 0.9999 -0.316 0.3203)" class="st1" cx="23.5" cy="23.5" rx="22" ry="22"/>
	</g>
	<g>
		<g>
			<path class="st2" d="M22.3,28.8c0,0.4,0,0.9,0,1.3c0,0.3,0,0.5,0.3,0.6c0.1,0.1,0.2,0.1,0.2,0.3c0,0.3,0.1,0.6-0.1,0.7
				c-0.2,0.1-0.5-0.1-0.7-0.2c-0.4-0.3-0.7-0.7-0.6-1.1c0.1-0.6-0.2-0.6-0.7-0.6c-3.1,0-6.1,0-9.2,0c-1.2,0-1.2,0-1.2-1.2
				c0-0.7,0-1.5,0-2.2c0-0.1,0-0.3,0-0.4c0-0.2,0-0.4,0-0.6c0-0.1,0-0.3,0-0.4c0-0.2,0-0.5,0-0.7c0-0.1,0-0.3,0-0.4
				c0-0.2,0-0.5,0-0.7c0-0.2,0-0.3,0-0.5c0-3.6,0-7.3,0-10.9c0-0.9,0-0.9,1-1c3.4,0,6.8,0,10.2,0c0.5,0,0.9,0.1,0.8,0.7
				c0,0.4,0.3,0.4,0.5,0.4c0.2,0,0.6,0.1,0.5-0.4c0-0.6,0.3-0.7,0.8-0.7c3.5,0,6.9,0,10.4,0c0.7,0,0.8,0.1,0.8,0.8
				c0,3.7,0,7.4,0,11.1c0,0.2,0,0.3,0,0.5c0,0.3,0,0.6,0,0.9c0,0.2,0,0.3,0,0.5c0,0.6,0,1.2,0,1.8c0,0.4-0.2,0.4-0.5,0.4
				c-0.3,0-0.5,0-0.5-0.4c0-1.1,0-2.1,0-3.2c0-0.2,0-0.3,0-0.5c0-3.5,0-7,0-10.5c0-0.3-0.1-0.4-0.4-0.4c-3.1,0-6.2,0-9.3,0
				c-0.3,0-0.4,0.1-0.4,0.4c0,3.5,0,7.1,0,10.6c0,0.1,0,0.3,0,0.4c0,1.2,0,2.5,0,3.7c0,0.2,0,0.4-0.3,0.4c-0.3,0-0.7,0.1-0.7-0.4
				c0-0.1,0-0.3,0-0.4c0-0.2,0-0.5,0-0.7c0-0.4,0-0.8,0-1.3c0-0.1,0-0.2,0-0.4c0-0.1,0-0.3,0-0.4c0-0.2,0-0.4,0-0.6
				c0-0.2,0-0.3,0-0.5c0-3.2,0-6.3,0-9.5c0-0.5-0.3-0.4-0.5-0.4c-0.3,0-0.5-0.1-0.5,0.4c0,3.2,0,6.3,0,9.5c0,0.2,0,0.3,0,0.5
				c0,0.2,0,0.4,0,0.6c0,0.1,0,0.3,0,0.4c0,0.1,0,0.2,0,0.4c0,0.5,0,0.9,0,1.4c0,0.2,0,0.4,0,0.6c0,0.1,0,0.3,0,0.4
				c0,0.2,0,0.3,0,0.5c0,0.1,0,0.3,0,0.4c0,0.2,0,0.4,0,0.6C22.3,28.5,22.3,28.6,22.3,28.8z M11.3,27.4c0,1.4,0,1.4,1.4,1.3
				c0.9,0,7.9,0,8.3,0c0.3,0,0.3-0.2,0.3-0.4c0-0.4,0-5.6,0-5.8c0-3.5,0-7,0-10.5c0-0.3-0.1-0.4-0.4-0.4c-3.1,0-6.2,0-9.3,0
				c-0.3,0-0.4,0.1-0.4,0.4C11.3,16,11.3,27.1,11.3,27.4z"/>
			<path class="st2" d="M36.6,28.2c1.2,0.8,1.8,1.9,1.8,3.4c0,1.2,0,2.4,0,3.6c0,0.9-0.4,1.5-1.2,2.2c-0.3,0.2-0.5,0.4-1,0.4
				c-2.2,0-4.7,0-6.9,0c-0.9,0-3.3-3.5-4.2-4.7c-0.4-0.5-0.8-0.9-1.2-1.4c-0.8-1-0.9-1.7-0.2-2.8c0.2-0.2,0.4-0.3,0.5-0.5
				c0.4-0.1,0.8-0.3,1.2-0.3c0.3,0.1,0.5,0.2,0.8,0.2c0.5,0.3,0.8,0.8,1.2,1.2c0-2,0-3.8,0-5.7c0-1.2,0.8-2.1,2-2.1
				c1.1,0,2,0.9,2,2.1c0,1.1,0,2.2,0,3.4c0,0.5,0.2,0.6,0.6,0.5c0.2,0,0.3,0,0.5,0c0.2,0,0.3,0,0.5,0c0.2,0,0.4,0,0.6,0
				c0.6,0,1.2,0,1.8,0C35.8,27.9,36.2,28.1,36.6,28.2z M30.3,28.8c0-1.7,0-3.3,0-5c0-0.1,0-0.3-0.1-0.4c-0.2-0.5-0.6-0.7-1.1-0.6
				c-0.5,0.1-0.8,0.5-0.8,1c0,3.8,0,7.6,0,11.4c0,0.9,0.6,1.5,1.5,1.5c2,0,4,0,5.9,0c0.9,0,1.5-0.6,1.5-1.5c0-1.4,0-2.8,0-4.1
				c0-0.7-0.3-1.3-1-1.8c0,0.4,0,0.8,0,1.1c0.1,0.4-0.2,0.4-0.5,0.3c-0.2,0-0.6,0.2-0.5-0.3c0-0.4,0-0.8,0-1.2
				c0-0.2,0.1-0.4-0.2-0.4c-0.4,0-0.9-0.1-1.2,0c-0.2,0.1-0.1,0.5-0.1,0.8c0,0,0,0,0,0.1c0,0.4,0,0.6-0.5,0.6
				c-0.5,0-0.5-0.2-0.5-0.6c0-0.9,0-0.9-0.9-1c-0.5,0-0.7,0.1-0.6,0.6c0,0.2,0,0.3,0,0.5c0,0.4-0.1,0.4-0.4,0.5
				c-0.5,0-0.6-0.1-0.6-0.6C30.3,29.4,30.3,29.1,30.3,28.8z M27.3,34.3c0-0.6-0.1-1,0-1.4c0.2-1.3-0.3-2.3-1.2-3.1
				c-0.6-0.5-1.1-0.7-1.6-0.3c-0.5,0.4-0.5,1,0.1,1.6C25.5,32.1,26.3,33.1,27.3,34.3z"/>
			<path class="st2" d="M9.3,26.4c0,1.1,0,2.3,0,3.4c0,0.4,0.2,0.4,0.5,0.4c3.3,0,6.6,0,9.9,0c0.4,0,0.6,0,0.6,0.5
				c0,0.5-0.2,0.5-0.6,0.5c-3.5,0-7.1,0-10.6,0c-0.7,0-0.8-0.1-0.8-0.8c0-5.9,0-11.7,0-17.6c0-0.4,0-0.6,0.5-0.6s0.5,0.2,0.5,0.6
				c0,3.3,0,6.6,0,9.9c0,0.1,0,0.2,0,0.3c0,0.3,0,0.6,0,0.9c0,0.1,0,0.3,0,0.4c0,0.2,0,0.5,0,0.7c0,0.1,0,0.3,0,0.4
				c0,0.2,0,0.4,0,0.6C9.3,26.1,9.3,26.3,9.3,26.4z"/>
			<path class="st2" d="M36.3,22.6c0-3.3,0-6.5,0-9.8c0-0.4,0-0.6,0.5-0.6c0.5,0,0.5,0.2,0.5,0.6c0,4.5,0,9,0,13.5
				c0,0.9,0,0.9-0.9,1c-0.2-0.1-0.1-0.3-0.1-0.5c0-0.6,0-1.3,0-1.9c0-0.1,0-0.2,0-0.4c0-0.2,0-0.3,0-0.5c0-0.3,0-0.6,0-0.9
				C36.3,23,36.3,22.8,36.3,22.6z"/>
		</g>
		<path class="st2" d="M13.5,14.6c0,0.2-0.2,0.4-0.4,0.4h-0.5c-0.2,0-0.4-0.2-0.4-0.4v-0.5c0-0.2,0.2-0.4,0.4-0.4h0.5
			c0.2,0,0.4,0.2,0.4,0.4V14.6z"/>
		<path class="st2" d="M20.3,14.6c0,0.2-0.2,0.4-0.4,0.4h-5.2c-0.2,0-0.4-0.2-0.4-0.4v-0.5c0-0.2,0.2-0.4,0.4-0.4H20
			c0.2,0,0.4,0.2,0.4,0.4V14.6z"/>
		<path class="st2" d="M20.3,20.5c0,0.2-0.2,0.4-0.4,0.4h-7.3c-0.2,0-0.4-0.2-0.4-0.4v-0.5c0-0.2,0.2-0.4,0.4-0.4H20
			c0.2,0,0.4,0.2,0.4,0.4V20.5z"/>
		<path class="st2" d="M20.3,17.5c0,0.2-0.2,0.4-0.4,0.4h-7.3c-0.2,0-0.4-0.2-0.4-0.4v-0.5c0-0.2,0.2-0.4,0.4-0.4H20
			c0.2,0,0.4,0.2,0.4,0.4V17.5z"/>
		<path class="st2" d="M33.5,14.7c0,0.1-0.1,0.2-0.2,0.2h-1.8c-0.1,0-0.2-0.1-0.2-0.2V14c0-0.1,0.1-0.2,0.2-0.2h1.8
			c0.1,0,0.2,0.1,0.2,0.2V14.7z"/>
		<path class="st2" d="M30.4,14.6c0,0.2-0.2,0.3-0.3,0.3h-4.2c-0.2,0-0.3-0.2-0.3-0.3v-0.5c0-0.2,0.2-0.3,0.3-0.3H30
			c0.2,0,0.3,0.2,0.3,0.3V14.6z"/>
		<path class="st2" d="M33.5,20.5c0,0.2-0.2,0.4-0.4,0.4h-7.3c-0.2,0-0.4-0.2-0.4-0.4v-0.5c0-0.2,0.2-0.4,0.4-0.4h7.3
			c0.2,0,0.4,0.2,0.4,0.4V20.5z"/>
		<path class="st2" d="M33.5,17.5c0,0.2-0.2,0.4-0.4,0.4h-7.3c-0.2,0-0.4-0.2-0.4-0.4v-0.5c0-0.2,0.2-0.4,0.4-0.4h7.3
			c0.2,0,0.4,0.2,0.4,0.4V17.5z"/>
		<path class="st2" d="M20.3,23.5c0,0.2-0.2,0.4-0.4,0.4h-7.3c-0.2,0-0.4-0.2-0.4-0.4V23c0-0.2,0.2-0.4,0.4-0.4H20
			c0.2,0,0.4,0.2,0.4,0.4V23.5z"/>
		<path class="st2" d="M20.3,26.5c0,0.2-0.2,0.4-0.4,0.4h-7.3c-0.2,0-0.4-0.2-0.4-0.4V26c0-0.2,0.2-0.4,0.4-0.4H20
			c0.2,0,0.4,0.2,0.4,0.4V26.5z"/>
	</g>
</g>
</svg>
