<svg xmlns="http://www.w3.org/2000/svg" xmlns:xlink="http://www.w3.org/1999/xlink" viewBox="0 0 47.1 47.1"><defs><style>.cls-1{fill:url(#linear-gradient);}.cls-2{fill:none;stroke:#fff;stroke-width:3px;}.cls-3{fill:#fff;}</style><linearGradient id="linear-gradient" x1="7.96" y1="39.14" x2="39.14" y2="7.96" gradientUnits="userSpaceOnUse"><stop offset="0" stop-color="#b8d338"/><stop offset="1" stop-color="#5ab759"/></linearGradient></defs><g id="圖層_2" data-name="圖層 2"><g id="圖層_1-2" data-name="圖層 1"><path class="cls-1" d="M45.6,23.55a22.05,22.05,0,1,1-22-22A22,22,0,0,1,45.6,23.55Z"/><path class="cls-2" d="M45.6,23.55a22.05,22.05,0,1,1-22-22A22,22,0,0,1,45.6,23.55Z"/><path class="cls-3" d="M32.59,15.94c-1-3.36-4.09-5.75-8.29-6.4-6.44-.78-8.76,2.71-9.57,4.85a10.43,10.43,0,0,0-.31,5.49.77.77,0,0,0,.93.58.78.78,0,0,0,.59-.93,9,9,0,0,1,.25-4.59c.79-2.09,2.81-4.46,7.9-3.85,3.56.55,6.18,2.53,7,5.29s-.28,5.78-3,8.24a12.16,12.16,0,0,0-4,7.06l-.09.35c-.62,2.38-1.24,4.08-3.7,4.08-2.83,0-3.4-2.89-3.43-3a.78.78,0,1,0-1.53.27,5.09,5.09,0,0,0,5,4.3c3.85,0,4.67-3.16,5.21-5.25l.09-.36a10.77,10.77,0,0,1,3.56-6.28C32.27,23,33.58,19.26,32.59,15.94Z"/><path class="cls-3" d="M25.77,22l-.33.29a9.76,9.76,0,0,0-3.65,5.53.79.79,0,0,0,.62.92.77.77,0,0,0,.91-.62,8.2,8.2,0,0,1,3.14-4.65l.35-.3c2.83-2.54,2.67-4.9,2.32-6.08a6.82,6.82,0,0,0-5.42-4.34A5.5,5.5,0,0,0,19,14a5.69,5.69,0,0,0-1.44,4.19,4.45,4.45,0,0,0,1.27,3.09c1.15,1.19,1.46,2.08.93,2.65a5.39,5.39,0,0,0-.71,5.4.78.78,0,0,0,.68.4.79.79,0,0,0,.39-.11.78.78,0,0,0,.29-1.06A4.05,4.05,0,0,1,20.87,25c.68-.72,1.48-2.3-.93-4.8a2.8,2.8,0,0,1-.84-2h0a2.81,2.81,0,0,1,2-.42A1.93,1.93,0,0,1,22.28,19a.77.77,0,0,0,.71.47.91.91,0,0,0,.32-.06.79.79,0,0,0,.4-1,3.43,3.43,0,0,0-2.14-2.08,3.63,3.63,0,0,0-2.26.12,3.08,3.08,0,0,1,.77-1.32,4,4,0,0,1,3.42-.81,5.28,5.28,0,0,1,4.13,3.24C28.06,19,27.42,20.53,25.77,22Z"/></g></g></svg>