<?xml version="1.0" encoding="UTF-8"?>
<svg id="_圖層_1" xmlns="http://www.w3.org/2000/svg" version="1.1" xmlns:xlink="http://www.w3.org/1999/xlink" viewBox="0 0 47.1 47.1">
  <!-- Generator: Adobe Illustrator 29.5.1, SVG Export Plug-In . SVG Version: 2.1.0 Build 141)  -->
  <defs>
    <style>
      .st0 {
        fill: none;
        stroke: #fff;
        stroke-width: 3px;
      }

      .st1 {
        fill: #fff;
      }

      .st2 {
        fill: url(#_未命名漸層_26);
      }
    </style>
    <linearGradient id="_未命名漸層_26" data-name="未命名漸層 26" x1="8" y1="1069.2" x2="39.1" y2="1038" gradientTransform="translate(0 -1030)" gradientUnits="userSpaceOnUse">
      <stop offset="0" stop-color="#006b88"/>
      <stop offset="1" stop-color="#4dbdbd"/>
    </linearGradient>
  </defs>
  <g id="_圖層_2">
    <g id="_圖層_1-2">
      <path class="st2" d="M45.6,23.5c0,12.2-9.8,22.1-22,22.1S1.5,35.8,1.5,23.6c0-12.1,9.8-22,22-22.1h0c12.2,0,22,9.8,22,22h0Z"/>
      <path class="st0" d="M45.6,23.5c0,12.2-9.8,22.1-22,22.1S1.5,35.8,1.5,23.6c0-12.1,9.8-22,22-22.1h0c12.2,0,22,9.8,22,22h0Z"/>
      <path class="st1" d="M40.4,19.2c0-.2-.2-.3-.4-.4h0c-1-1.5-4.1-5.5-8.5-5.8-2.6-.2-5.2.9-7.7,3.2-2.3-2.3-4.8-3.4-7.3-3.2-3.1.2-6.3,2.2-9,5.8-.4.5-.4,1.3,0,1.8,0,.1.2.3.4.5,1.9,3,4.8,5.3,8.2,6.5v3.4c0,3.7,3.5,6.7,7.8,6.7s7.8-3,7.8-6.8v-3.4c5.4-1.9,7.1-4.8,8.1-6.4.2-.3.3-.5.5-.7,0-.2.2-.4.3-.7,0-.2,0-.5,0-.7l-.2.2ZM16.5,14.5c2.3-.1,4.5,1,6.6,3.3l.5.6.6-.6c2.4-2.4,4.8-3.5,7.1-3.3,3.4.2,5.8,3.1,7,4.6-3.4,1.1-8.8,1.7-14.6,1.7s-11.2-.7-14.6-1.7c2.4-2.9,4.9-4.5,7.4-4.6ZM9.5,20.9c2.1.6,4.3.9,6.4,1.2v4c-2.6-1.1-4.9-2.8-6.4-5.2h0ZM23.7,36.3c-3.4,0-6.2-2.3-6.2-5.2v-8.9c1.7.1,3.6.2,5.5.2v4.7c0,.4.3.8.8.8s.8-.3.8-.8v-4.7c1.9,0,3.7-.1,5.5-.2v8.9c0,2.9-2.8,5.2-6.3,5.2h0ZM31.5,26.1v-4c2.2-.2,4.4-.6,6.5-1.2-1.5,2.5-3.8,4.3-6.5,5.2h0Z"/>
    </g>
  </g>
</svg>