<?xml version="1.0" encoding="UTF-8"?>
<svg xmlns="http://www.w3.org/2000/svg" version="1.1" viewBox="0 0 1757.5 963.8">
  <defs>
    <style>
      .cls-1 {
        fill: #c1c2c2;
      }
    </style>
  </defs>
  <!-- Generator: Adobe Illustrator 28.7.7, SVG Export Plug-In . SVG Version: 1.2.0 Build 194)  -->
  <g>
    <g id="circleLine">
      <g>
        <path class="cls-1" d="M926,12.6c-2.6,0-5.1-2-5.7-4.5v-1.4c-.6-3.1,1.4-6,4.5-6.5,3.1-.6,6,1.4,6.5,4.5v1.4c.6,3.1-1.4,6-4.5,6.5h-1.1.3Z"/>
        <path class="cls-1" d="M36.6,963.8c-3.1,0-5.7-2.6-5.7-5.7s2.6-5.7,5.7-5.7h2.8c3.1,0,5.7,2.6,5.7,5.7s-2.6,5.7-5.7,5.7h-2.8ZM68.1,963.2c-3.1,0-5.7-2.3-5.7-5.4s2.3-5.7,5.4-6h2.8c3.1,0,5.7,2.3,6,5.4,0,3.1-2.3,5.7-5.4,6h-3.1ZM99.6,961.5c-2.8,0-5.4-2.3-5.7-5.4,0-3.1,2.3-6,5.4-6h2.8c3.1-.3,6,2,6,5.1s-2.3,6-5.4,6h-3.1v.3ZM131.1,959c-2.8,0-5.4-2.3-5.7-5.1-.3-3.1,2-6,5.1-6.2h2.8c3.1-.6,6,1.7,6.2,4.8.3,3.1-2,6-5.1,6.2h-2.8c0,.3-.3.3-.6.3h0ZM162.3,955.3c-2.8,0-5.1-2-5.7-4.8-.3-3.1,1.7-6,4.8-6.2h2.8c3.1-.9,6,1.4,6.2,4.5.3,3.1-1.7,6-4.8,6.2h-2.8c0,.3-.6.6-.9.6l.3-.3ZM193.5,950.7c-2.8,0-5.1-2-5.7-4.8-.6-3.1,1.7-6,4.5-6.5l2.8-.6c3.1-.6,6,1.7,6.5,4.5.6,3.1-1.7,6-4.5,6.5l-2.8.6h-.9v.3ZM224.4,945.1c-2.6,0-5.1-2-5.7-4.5-.6-3.1,1.4-6,4.5-6.8l2.8-.6c3.1-.6,6,1.4,6.8,4.5.6,3.1-1.4,6-4.5,6.8l-2.8.6h-1.1ZM255.3,938.2c-2.6,0-4.8-1.7-5.4-4.3-.6-3.1,1.1-6.2,4.3-6.8l2.8-.6c3.1-.9,6.2,1.1,6.8,4.3.9,3.1-1.1,6.2-4.3,6.8l-2.8.6h-1.4ZM286,930.6c-2.6,0-4.8-1.7-5.4-4.3-.9-3.1.9-6.2,4-6.8l2.8-.9c3.1-.9,6.2.9,7.1,4s-.9,6.2-4,7.1l-2.8.9h-1.7ZM316.3,922.1c-2.6,0-4.5-1.7-5.4-4-.9-3.1.9-6.2,3.7-7.1l2.8-.9c3.1-.9,6.2.9,7.1,3.7.9,3.1-.9,6.2-3.7,7.1l-2.8.9h-1.7v.3ZM346.1,912.4c-2.3,0-4.5-1.4-5.4-4-1.1-2.8.6-6.2,3.4-7.1l2.8-.9c2.8-1.1,6.2.6,7.1,3.4,1.1,2.8-.6,6.2-3.4,7.1l-2.8.9c-.6,0-1.1.3-1.7.3v.3ZM375.9,901.9c-2.3,0-4.5-1.4-5.4-3.7-1.1-2.8.3-6.2,3.4-7.4l2.6-1.1c2.8-1.1,6.2.3,7.4,3.4,1.1,2.8-.3,6.2-3.4,7.4l-2.6,1.1c-.6,0-1.4.3-2,.3h0ZM405.1,890.3c-2.3,0-4.3-1.4-5.1-3.4-1.1-2.8,0-6.2,3.1-7.4l2.6-1.1c2.8-1.1,6.2,0,7.4,3.1,1.1,2.8,0,6.2-3.1,7.4l-2.6,1.1c-.6.3-1.4.6-2.3.6v-.3ZM434,877.8c-2.3,0-4.3-1.1-5.1-3.4-1.4-2.8,0-6.2,2.8-7.4l2.6-1.1c2.8-1.4,6.2,0,7.7,2.8s0,6.2-2.8,7.7l-2.6,1.1c-.9.3-1.7.6-2.3.6l-.3-.3ZM462.4,864.2c-2,0-4-1.1-5.1-3.1-1.4-2.8,0-6.2,2.6-7.7l2.6-1.1c2.8-1.4,6.2,0,7.7,2.6,1.4,2.8,0,6.2-2.6,7.7l-2.6,1.4c-.9.3-1.7.6-2.6.6v-.3ZM490.5,849.7c-2,0-4-1.1-5.1-3.1-1.4-2.8-.6-6.2,2.3-7.7l2.6-1.4c2.8-1.4,6.2-.6,7.7,2.3s.6,6.2-2.3,7.7l-2.6,1.4c-.9.6-1.7.6-2.6.6v.3ZM518,834.1c-2,0-4-1.1-4.8-2.8-1.7-2.8-.6-6.2,2-7.7l2.6-1.4c2.8-1.7,6.2-.6,7.7,2,1.7,2.8.6,6.2-2,7.7l-2.6,1.4c-.9.6-2,.9-2.8.9ZM545,818c-2,0-3.7-.9-4.8-2.6-1.7-2.6-.9-6.2,1.7-7.9l2.6-1.4c2.6-1.7,6.2-.9,7.9,1.7s.9,6.2-1.7,7.9l-2.6,1.4c-.9.6-2,.9-3.1.9ZM571.3,800.7c-1.7,0-3.7-.9-4.8-2.6-1.7-2.6-1.1-6.2,1.4-7.9l2.3-1.7c2.6-1.7,6.2-1.1,7.9,1.4s1.1,6.2-1.4,7.9l-2.3,1.7c-.9.6-2,.9-3.1.9v.3ZM596.9,782.5c-1.7,0-3.4-.9-4.5-2.3-2-2.6-1.4-6,1.1-7.9l2.3-1.7c2.6-2,6-1.4,7.9,1.1s1.4,6-1.1,7.9l-2.3,1.7c-1.1.9-2.3,1.1-3.4,1.1ZM622.1,763.2c-1.7,0-3.4-.9-4.5-2.3-2-2.6-1.4-6,.9-7.9l2.3-1.7c2.6-2,6-1.4,7.9.9,2,2.6,1.4,6-.9,7.9l-2.3,1.7c-1.1.9-2.3,1.1-3.4,1.1v.3ZM646.5,743.4c-1.7,0-3.1-.6-4.3-2-2-2.3-1.7-6,.6-7.9l2.3-1.7c2.3-2,6-1.7,7.9.6,2,2.3,1.7,6-.6,7.9l-2.3,2c-1.1.9-2.3,1.4-3.7,1.4v-.3ZM670.1,722.6c-1.4,0-3.1-.6-4.3-2-2-2.3-2-6,.3-7.9l2-2c2.3-2,6-2,7.9.3s2,6-.3,7.9l-2,2c-1.1.9-2.6,1.4-3.7,1.4v.3ZM692.8,701.1c-1.4,0-2.8-.6-4-1.7-2.3-2.3-2.3-6,0-7.9l2-2c2.3-2.3,6-2.3,7.9,0,2.3,2.3,2.3,6,0,7.9l-2,2c-1.1,1.1-2.6,1.7-4,1.7h0ZM714.9,678.7c-1.4,0-2.8-.6-4-1.4-2.3-2.3-2.3-5.7,0-7.9l2-2c2.3-2.3,5.7-2.3,7.9,0s2.3,5.7,0,7.9l-2,2c-1.1,1.1-2.6,1.7-4.3,1.7l.3-.3ZM736.2,655.7c-1.4,0-2.6-.6-3.7-1.4-2.3-2-2.6-5.7-.6-7.9l2-2.3c2-2.3,5.7-2.6,7.9-.6s2.6,5.7.6,7.9l-2,2.3c-1.1,1.1-2.6,2-4.3,2ZM756.6,631.6c-1.1,0-2.6-.3-3.7-1.4-2.6-2-2.8-5.7-.9-7.9l1.7-2.3c2-2.6,5.7-2.8,7.9-.9s2.8,5.7.9,7.9l-1.7,2.3c-1.1,1.4-2.8,2-4.5,2l.3.3ZM775.9,606.9c-1.1,0-2.3-.3-3.4-1.1-2.6-2-3.1-5.4-1.1-7.9l1.7-2.3c2-2.6,5.4-3.1,7.9-1.1,2.6,2,3.1,5.4,1.1,7.9l-1.7,2.3c-1.1,1.4-2.8,2.3-4.5,2.3h0ZM794.3,581.4c-1.1,0-2.3-.3-3.1-1.1-2.6-1.7-3.1-5.4-1.4-7.9l1.7-2.3c1.7-2.6,5.4-3.1,7.9-1.4s3.1,5.4,1.4,7.9l-1.7,2.3c-1.1,1.7-2.8,2.6-4.5,2.6h-.3ZM811.9,555.3c-1.1,0-2-.3-3.1-.9-2.6-1.7-3.4-5.1-1.7-7.9l1.4-2.3c1.7-2.6,5.1-3.4,7.9-1.7,2.6,1.7,3.4,5.1,1.7,7.9l-1.4,2.6c-1.1,1.7-2.8,2.6-4.8,2.6v-.3ZM828.4,528.6c-.9,0-2,0-2.8-.9-2.8-1.7-3.7-5.1-2-7.7l1.4-2.6c1.7-2.8,5.1-3.7,7.7-2,2.8,1.7,3.7,5.1,2,7.7l-1.4,2.6c-1.1,1.7-2.8,2.8-4.8,2.8ZM844,501.1c-.9,0-1.7,0-2.8-.6-2.8-1.4-3.7-4.8-2.3-7.7l1.4-2.6c1.4-2.8,4.8-3.7,7.7-2.3s3.7,4.8,2.3,7.7l-1.4,2.6c-1.1,2-2.8,2.8-5.1,2.8h.3ZM858.2,473c-.9,0-1.7,0-2.6-.6-2.8-1.4-4-4.8-2.6-7.7l1.1-2.6c1.4-2.8,4.8-4,7.7-2.6s4,4.8,2.6,7.7l-1.1,2.6c-.9,2-3.1,3.1-5.1,3.1h0ZM871.5,444.3c-.9,0-1.4,0-2.3-.6-2.8-1.1-4.3-4.5-2.8-7.4l1.1-2.6c1.1-2.8,4.5-4.3,7.4-2.8,2.8,1.1,4.3,4.5,2.8,7.4l-1.1,2.6c-.9,2-3.1,3.4-5.1,3.4h0ZM883.7,415.4c-.6,0-1.4,0-2-.3-2.8-1.1-4.3-4.5-3.1-7.4l1.1-2.6c1.1-2.8,4.5-4.3,7.4-3.1s4.3,4.5,3.1,7.4l-1.1,2.8c-.9,2.3-3.1,3.7-5.4,3.7v-.6ZM894.5,385.6c-.6,0-1.1,0-2-.3-2.8-1.1-4.5-4.3-3.4-7.1l.9-2.6c1.1-2.8,4.3-4.5,7.1-3.7,2.8,1.1,4.5,4.3,3.7,7.1l-.9,2.8c-.9,2.3-3.1,3.7-5.4,3.7h0ZM904.1,355.6h-1.7c-3.1-.9-4.8-4-3.7-7.1l.9-2.8c.9-3.1,4-4.8,7.1-4,3.1.9,4.8,4,4,7.1l-.9,2.8c-.9,2.6-3.1,4-5.4,4h-.3ZM912.6,325.2h-1.4c-3.1-.9-4.8-4-4-6.8l.6-2.8c.9-3.1,4-4.8,6.8-4.3,3.1.9,4.8,4,4.3,6.8l-.6,2.8c-.6,2.6-2.8,4.3-5.4,4.3h-.3ZM919.7,294.6h-1.1c-3.1-.6-5.1-3.7-4.3-6.8l.6-2.8c.6-3.1,3.7-5.1,6.8-4.5,3.1.6,5.1,3.7,4.5,6.8l-.6,2.8c-.6,2.6-2.8,4.5-5.7,4.5h-.3ZM925.7,263.6h-.9c-3.1-.6-5.1-3.4-4.5-6.5l.6-2.8c.6-3.1,3.4-5.1,6.5-4.5,3.1.6,5.1,3.4,4.5,6.5l-.6,2.8c-.6,2.8-2.8,4.8-5.7,4.8v-.3ZM930.2,232.4h-.9c-3.1-.3-5.4-3.1-4.8-6.2v-2.8c.9-3.1,3.7-5.4,6.8-4.8,3.1.3,5.4,3.1,4.8,6.2v2.8c-.9,2.8-3.1,5.1-6,5.1v-.3ZM933.3,200.9h-.6c-3.1,0-5.4-3.1-5.1-6.2v-2.8c.6-3.1,3.1-5.4,6.2-5.1,3.1,0,5.4,2.8,5.1,6.2v2.8c-.6,2.8-2.8,5.1-6,5.1h.3ZM935.3,169.5h0c-3.1,0-5.7-2.8-5.4-6v-2.8c0-3.1,2.8-5.7,6-5.4,3.1,0,5.7,2.8,5.4,6v2.8c0,3.1-2.8,5.4-5.7,5.4h-.3ZM936.2,138c-3.1,0-5.7-2.6-5.7-5.7v-2.8c0-3.1,2.6-5.7,5.7-5.7h0c3.1,0,5.7,2.6,5.7,5.7v2.8c0,3.1-2.6,5.7-5.7,5.7ZM935.3,106.5c-3.1,0-5.7-2.3-5.7-5.4v-2.8c0-3.1,2.3-5.7,5.4-6,3.1,0,5.7,2.3,6,5.4v2.8c0,3.1-2.3,5.7-5.4,6h-.3ZM933.6,75c-2.8,0-5.4-2.3-5.7-5.1v-2.8c-.6-3.1,1.7-6,4.8-6.2,3.1,0,6,2,6.2,5.1v2.8c.6,3.1-1.7,6-4.8,6.2h-.6ZM930.5,43.8c-2.8,0-5.4-2-5.7-5.1v-2.8c-.9-3.1,1.4-6,4.5-6.2s6,1.7,6.2,4.8v2.8c.9,3.1-1.4,6-4.5,6.2h-.6v.3Z"/>
        <path class="cls-1" d="M7.1,963.5h-1.7c-3.1,0-5.4-2.8-5.4-6s2.8-5.4,6-5.4h1.1c3.1,0,5.7,2.6,5.7,5.7s-2.6,5.7-5.7,5.7Z"/>
      </g>
    </g>
  </g>
</svg>