<?xml version="1.0" encoding="UTF-8"?>
<svg id="_圖層_2" data-name="圖層 2" xmlns="http://www.w3.org/2000/svg" xmlns:xlink="http://www.w3.org/1999/xlink" viewBox="0 0 320.19 179.8">
  <defs>
    <style>
      .cls-1 {
        fill: url(#_未命名漸層_703-3);
      }

      .cls-2 {
        fill: #fff;
      }

      .cls-3 {
        fill: url(#_未命名漸層_703-2);
      }

      .cls-4 {
        fill: url(#_未命名漸層_703);
      }
    </style>
    <linearGradient id="_未命名漸層_703" data-name="未命名漸層 703" x1="115.26" y1="179.8" x2="115.26" y2="0" gradientUnits="userSpaceOnUse">
      <stop offset="0" stop-color="#9b38fe"/>
      <stop offset=".1" stop-color="#943bff"/>
      <stop offset=".8" stop-color="#2781ff"/>
      <stop offset="1" stop-color="#2781ff"/>
    </linearGradient>
    <linearGradient id="_未命名漸層_703-2" data-name="未命名漸層 703" x1="281.59" y1="177.6" x2="281.59" y2="1.99" xlink:href="#_未命名漸層_703"/>
    <linearGradient id="_未命名漸層_703-3" data-name="未命名漸層 703" x1="121.36" y1="126.52" x2="121.36" y2="53.29" xlink:href="#_未命名漸層_703"/>
  </defs>
  <g id="_圖層_1-2" data-name="圖層 1">
    <g>
      <path class="cls-4" d="M186.91,1.89c-9.4-2.12-19.12-1.57-28.65-1.65C114.98-.14,71.69.03,28.41.09c-4.3,0-8.67.26-12.89,1.04-4.93.92-8.99,3.13-11.82,7.96C-.6,16.39.14,24.18.11,31.93c-.13,27.96-.09,55.93-.11,83.9,1.01,6.51-.2,13.1,1.24,19.69,2.71,12.46,8.61,22.79,18.19,31.15,9.72,8.49,21.41,11.56,33.84,12.11,39.74,1.78,79.51.4,119.26.85,11.62.13,23.24.06,34.85.17,7.04.07,14.11-2.15,18.67-8.66,3.18-4.55,4.2-9.63,4.22-15.07.06-19.46.17-38.92.26-58.38-.2-13.81-.32-27.62-.62-41.43-.58-27.5-15.14-48.08-43-54.37Z"/>
      <path class="cls-3" d="M319.97,115.85c0-31.43.01-62.87,0-94.3,0-3.32.15-6.65-.69-9.93-2.09-8.16-12.38-12.38-19.27-7.65-7.29,5.02-13.78,11.06-20.46,16.85-9.98,8.65-20.64,16.56-29.75,26.14-4.05,4.26-6.33,9.81-6.38,15.98-.13,16.29-.28,32.58-.43,48.87.4,9.29,2.97,17.95,10.01,24.23,14.17,12.64,28.66,24.93,43.27,37.06,2.31,1.92,4.67,4.47,8.37,4.5,9.57.07,15.07-4.83,15.25-14.43.25-13.78.21-27.57.29-41.36-.08-1.99-.23-3.98-.23-5.97Z"/>
    </g>
    <path class="cls-2" d="M174.33,17.35c-7.75-1.75-15.76-1.29-23.61-1.36-35.68-.31-71.37-.17-107.05-.13-3.55,0-7.15.21-10.63.86-4.07.76-7.41,2.58-9.75,6.56-3.54,6.02-2.93,12.44-2.96,18.83-.11,23.05-.07,46.11-.09,69.16.83,5.37-.16,10.8,1.02,16.23,2.24,10.27,7.09,18.78,14.99,25.68,8.01,7,17.65,9.53,27.89,9.99,32.76,1.47,65.54.33,98.31.7,9.58.11,19.16.05,28.73.14,5.8.05,11.64-1.77,15.39-7.14,2.62-3.75,3.47-7.94,3.48-12.42.05-16.04.14-32.08.21-48.12-.16-11.39-.27-22.77-.51-34.15-.48-22.67-12.48-39.64-35.45-44.82Z"/>
    <path class="cls-1" d="M96.59,58.06c0-4.81,3.02-6.22,6.71-3.14l40.07,29.15c3.69,3.09,3.69,8.14,0,11.22l-40.07,29.58c-3.69,3.09-6.71,1.68-6.71-3.14v-63.68Z"/>
  </g>
</svg>