<?xml version="1.0" encoding="UTF-8"?>
<svg id="_圖層_2" data-name="圖層 2" xmlns="http://www.w3.org/2000/svg" xmlns:xlink="http://www.w3.org/1999/xlink" viewBox="0 0 323.76 280.46">
  <defs>
    <style>
      .cls-1 {
        fill: url(#_未命名漸層_703-3);
      }

      .cls-2 {
        fill: url(#_未命名漸層_703-6);
      }

      .cls-3 {
        fill: url(#_未命名漸層_703-7);
      }

      .cls-4 {
        fill: #fff;
      }

      .cls-5 {
        fill: url(#_未命名漸層_703-5);
      }

      .cls-6 {
        fill: url(#_未命名漸層_703-4);
      }

      .cls-7 {
        fill: url(#_未命名漸層_703-2);
      }

      .cls-8 {
        fill: url(#_未命名漸層_703);
      }
    </style>
    <linearGradient id="_未命名漸層_703" data-name="未命名漸層 703" x1="44.39" y1="280.46" x2="44.39" y2="201.14" gradientUnits="userSpaceOnUse">
      <stop offset="0" stop-color="#9b38fe"/>
      <stop offset=".1" stop-color="#943bff"/>
      <stop offset=".8" stop-color="#2781ff"/>
      <stop offset="1" stop-color="#2781ff"/>
    </linearGradient>
    <linearGradient id="_未命名漸層_703-2" data-name="未命名漸層 703" x1="99.26" y1="279.94" x2="99.26" y2="201.19" xlink:href="#_未命名漸層_703"/>
    <linearGradient id="_未命名漸層_703-3" data-name="未命名漸層 703" x1="155.46" y1="279.95" x2="155.46" y2="201.17" xlink:href="#_未命名漸層_703"/>
    <linearGradient id="_未命名漸層_703-4" data-name="未命名漸層 703" x1="262.71" y1="280.43" x2="262.71" y2="201.13" xlink:href="#_未命名漸層_703"/>
    <linearGradient id="_未命名漸層_703-5" data-name="未命名漸層 703" x1="117.94" y1="179.8" x2="117.94" y2="0" xlink:href="#_未命名漸層_703"/>
    <linearGradient id="_未命名漸層_703-6" data-name="未命名漸層 703" x1="284.26" y1="177.6" x2="284.26" y2="1.99" xlink:href="#_未命名漸層_703"/>
    <linearGradient id="_未命名漸層_703-7" data-name="未命名漸層 703" x1="124.04" y1="126.52" x2="124.04" y2="53.29" xlink:href="#_未命名漸層_703"/>
  </defs>
  <g id="_圖層_1-2" data-name="圖層 1">
    <g>
      <path class="cls-8" d="M88.78,201.22c-4.44,0-8.45.19-12.45-.04-6.22-.36-10.22,2.6-12.88,7.9h0s0,0,0,0c-1.63,2.74-3.27,5.47-4.88,8.23-4.01,6.9-8.16,13.71-11.88,20.77-3.53,6.05-7.08,12.09-10.57,18.16-.64,1.11-1.6,2.08-1.72,3.45,0,0,0,0,0,0-.23.13-.47.27-.7.4-.87-4.16-1.5-8.37-2.72-12.45,0,0,0,0,0,0-.11-.72-.18-1.44-.32-2.15-1.09-5.42-2.18-10.84-3.31-16.25-1.42-6.76-2.88-13.5-4.32-20.26-.52-5.61-2.19-7.63-6.69-7.73-4.98-.11-9.97,0-14.95-.09-1.5-.03-1.54.63-1.27,1.73.47,1.91.93,3.83,1.4,5.74,0,0,0,0,0,0h0c.4,1.7.8,3.4,1.2,5.11,3.11,13.41,6.22,26.83,9.33,40.24.87,3.96,1.68,7.93,2.63,11.87.78,3.22,1.32,6.56,3.58,9.22h0c1.44,2.26,3.54,3.63,6.05,4.42,7.69,2.43,15.44.21,20.74-6.16,3.93-4.73,6.9-10.12,10.02-15.39,0,0,0,0,0,0,.38-.6.79-1.18,1.15-1.79,3.73-6.3,7.44-12.6,11.16-18.9h0c5.36-8.52,10.43-17.21,15.34-25.99,1.97-3.26,3.94-6.53,6.06-10.04Z"/>
      <path class="cls-7" d="M115.34,201.19c-5.57.04-11.14.02-16.7,0-1.06,0-1.58.43-1.77,1.5-.72,4.01-1.74,7.96-2.18,12.02-.12.26-.31.51-.36.78-2.19,11.08-4.41,22.16-6.54,33.25-1.09,5.67-2.53,11.27-3.24,17.01-1.13,4.14-1.82,8.38-2.65,12.59-.29,1.45.29,1.59,1.46,1.59,5.49-.03,10.98-.03,16.47,0,1.22,0,1.82-.33,2.04-1.66.73-4.31,1.61-8.59,2.43-12.89.75-3.95,1.5-7.91,2.25-11.86.59-3,1.17-6.01,1.76-9.01,1.31-6.68,2.63-13.36,3.94-20.05,1.44-7.16,2.88-14.31,4.35-21.46.23-1.13.2-1.82-1.26-1.81Z"/>
      <path class="cls-1" d="M189.53,201.24c-13.99.2-28-.52-41.98.43,0,0,0,0,0,0,0,0,0,0,0,0-10.82.73-20.46,9.14-22.86,20.19-2.29,10.55-4.43,21.13-6.56,31.71-.96,4.79-1.63,9.62-.41,14.48,1.08,4.96,4.04,8.34,8.72,10.19,3.09,1.22,6.32,1.71,9.65,1.71,13.27-.03,26.53-.02,39.8-.03q4.78,0,5.52-4.82c.02-.14-.02-.29-.03-.44.62-3.37,1.13-6.77,1.89-10.11.4-1.76-.26-1.9-1.73-1.89-12.75.08-25.49.09-38.24.14-1.25,0-2.47-.13-3.67-.5,0,0,0,0,0,0,0,0,0,0,0,0-.58-.45-1.16-.9-1.73-1.36-1.07-1.47-1.03-3.14-.79-4.81.25-1.73.7-3.43.91-5.17.21-1.74.87-2.36,2.78-2.34,11.48.09,22.96,0,34.43-.02,1.39.04,2.78.04,4.17.12,1.16.06,1.61-.17,1.79-1.75.47-4.04,1.23-8.03,2.28-11.96.59-2.21.3-3.1-1.92-3.08-12.17.1-24.35.07-36.52.07-2.86,0-2.87,0-2.33-2.69.26-1.29.53-2.58.86-3.85,1.37-5.3,3.7-7.12,9.2-7.13,12.1-.02,24.2-.02,36.3.01,1.2,0,2.09-.04,2.32-1.57.54-3.61,1.23-7.19,1.85-10.79,1.12-4.74,1.12-4.81-3.73-4.75Z"/>
      <path class="cls-6" d="M322.24,201.16c-4.29.08-8.59.02-12.89.02-1.43,0-2.72.42-3.79,1.4h0s0,0,0,0c-1.61.97-2.25,2.65-2.99,4.22-2.23,4.75-4.4,9.54-6.57,14.32-5.49,12.09-10.98,24.19-16.47,36.28h0,0c-.48.19-.38,1.19-1.22.88-.04-.73-.05-1.47-.12-2.2-.85-9.48-1.7-18.96-2.57-28.44-.58-6.27-1.11-12.55-1.81-18.8-.36-3.22-1.68-6.17-5.15-6.93-8.55-1.86-15.01-.25-18.65,7.62-2.91,6.29-6.03,12.49-9.04,18.74-2.56,5.32-5.11,10.65-7.66,15.98-2.39,4.46-4.87,8.88-6.57,13.67h0s0,0,0,0l-.82.81c-.07-.89,0-1.81-.45-2.64,0,0,0,0,0,0,.17-1.18-.38-2.3-.4-3.42-.09-6.45-1.04-12.83-1.34-19.26-.16-3.46-.56-6.92-.81-10.38-.45-6.06-.78-12.13-1.36-18.17-.26-2.71-1.59-3.67-4.28-3.69-4.62-.03-9.24.04-13.86-.06-1.49-.03-1.91.4-1.72,1.86.47,3.63.86,7.27,1.2,10.91,1.4,14.82,2.76,29.64,4.14,44.46h0c.13,1.73.14,3.48.42,5.18.48,2.97.15,6.05,1.33,8.91h0c.45,2.34,1.72,4.14,3.69,5.43,6.84,4.49,17.7,2.83,22.9-3.45,2.87-3.47,4.5-7.61,6.3-11.66,0,0,0,0,0,0t0,0c2.34-4.99,4.69-9.98,7.03-14.97h0c3.13-6.75,6.26-13.49,9.54-20.57.41,5,.75,9.57,1.16,14.14.41,4.64.89,9.27,1.34,13.91.31,3.92.51,7.86.97,11.76.3,2.57.26,5.26,1.65,7.61h0c1.25,3.1,3.86,4.5,6.87,5.17,8.66,1.93,15.62-.9,20.71-8.26,3.39-5.27,5.61-11.12,8.35-16.72,7.26-14.86,14.23-29.86,21.14-44.89,1.03-2.31,2.11-4.59,3.08-6.93.47-1.13.33-1.9-1.28-1.87Z"/>
    </g>
    <g>
      <path class="cls-5" d="M189.59,1.89c-9.4-2.12-19.12-1.57-28.65-1.65C117.66-.14,74.37.03,31.08.09c-4.3,0-8.67.26-12.89,1.04-4.93.92-8.99,3.13-11.82,7.96-4.3,7.3-3.55,15.1-3.59,22.84-.13,27.96-.09,55.93-.11,83.9,1.01,6.51-.2,13.1,1.24,19.69,2.71,12.46,8.61,22.79,18.19,31.15,9.72,8.49,21.41,11.56,33.84,12.11,39.74,1.78,79.51.4,119.26.85,11.62.13,23.24.06,34.85.17,7.04.07,14.11-2.15,18.67-8.66,3.18-4.55,4.2-9.63,4.22-15.07.06-19.46.17-38.92.26-58.38-.2-13.81-.32-27.62-.62-41.43-.58-27.5-15.14-48.08-43-54.37Z"/>
      <path class="cls-2" d="M322.64,115.85c0-31.43.01-62.87,0-94.3,0-3.32.15-6.65-.69-9.93-2.09-8.16-12.38-12.38-19.27-7.65-7.29,5.02-13.78,11.06-20.46,16.85-9.98,8.65-20.64,16.56-29.75,26.14-4.05,4.26-6.33,9.81-6.38,15.98-.13,16.29-.28,32.58-.43,48.87.4,9.29,2.97,17.95,10.01,24.23,14.17,12.64,28.66,24.93,43.27,37.06,2.31,1.92,4.67,4.47,8.37,4.5,9.57.07,15.07-4.83,15.25-14.43.25-13.78.21-27.57.29-41.36-.08-1.99-.23-3.98-.23-5.97Z"/>
    </g>
    <path class="cls-4" d="M177,17.35c-7.75-1.75-15.76-1.29-23.61-1.36-35.68-.31-71.37-.17-107.05-.13-3.55,0-7.15.21-10.63.86-4.07.76-7.41,2.58-9.75,6.56-3.54,6.02-2.93,12.44-2.96,18.83-.11,23.05-.07,46.11-.09,69.16.83,5.37-.16,10.8,1.02,16.23,2.24,10.27,7.09,18.78,14.99,25.68,8.01,7,17.65,9.53,27.89,9.99,32.76,1.47,65.54.33,98.31.7,9.58.11,19.16.05,28.73.14,5.8.05,11.64-1.77,15.39-7.14,2.62-3.75,3.47-7.94,3.48-12.42.05-16.04.14-32.08.21-48.12-.16-11.39-.27-22.77-.51-34.15-.48-22.67-12.48-39.64-35.45-44.82Z"/>
    <path class="cls-3" d="M99.26,58.06c0-4.81,3.02-6.22,6.71-3.14l40.07,29.15c3.69,3.09,3.69,8.14,0,11.22l-40.07,29.58c-3.69,3.09-6.71,1.68-6.71-3.14v-63.68Z"/>
  </g>
</svg>