<?xml version="1.0" encoding="UTF-8"?>
<svg id="_圖層_2" data-name="圖層 2" xmlns="http://www.w3.org/2000/svg" xmlns:xlink="http://www.w3.org/1999/xlink" viewBox="0 0 611.99 185.51">
  <defs>
    <style>
      .cls-1 {
        fill: #2781ff;
      }

      .cls-2 {
        fill: url(#_未命名漸層_703-3);
      }

      .cls-3 {
        fill: #36d3ff;
      }

      .cls-4 {
        fill: #fff;
      }

      .cls-5 {
        fill: #2facec;
      }

      .cls-6 {
        fill: #518cca;
      }

      .cls-7 {
        fill: url(#_未命名漸層_703-4);
      }

      .cls-8 {
        fill: url(#_未命名漸層_703-2);
      }

      .cls-9 {
        fill: url(#_未命名漸層_703);
      }
    </style>
    <linearGradient id="_未命名漸層_703" data-name="未命名漸層 703" x1="83.91" y1="185.51" x2="83.91" y2="35.59" gradientUnits="userSpaceOnUse">
      <stop offset="0" stop-color="#9b38fe"/>
      <stop offset=".1" stop-color="#943bff"/>
      <stop offset=".8" stop-color="#2781ff"/>
      <stop offset="1" stop-color="#2781ff"/>
    </linearGradient>
    <linearGradient id="_未命名漸層_703-2" data-name="未命名漸層 703" x1="187.63" y1="184.54" x2="187.63" y2="35.69" xlink:href="#_未命名漸層_703"/>
    <linearGradient id="_未命名漸層_703-3" data-name="未命名漸層 703" x1="293.86" y1="184.56" x2="293.86" y2="34.02" xlink:href="#_未命名漸層_703"/>
    <linearGradient id="_未命名漸層_703-4" data-name="未命名漸層 703" x1="496.6" y1="185.47" x2="496.6" y2="35.56" xlink:href="#_未命名漸層_703"/>
  </defs>
  <g id="_圖層_1-2" data-name="圖層 1">
    <g>
      <path class="cls-9" d="M167.82,35.73c-8.39,0-15.98.35-23.53-.08-11.75-.67-19.32,4.92-24.34,14.94h0s0,0,0,0c-3.08,5.18-6.19,10.34-9.22,15.55-7.58,13.03-15.43,25.92-22.45,39.27-6.67,11.43-13.38,22.85-19.98,34.32-1.21,2.1-3.03,3.93-3.26,6.53,0,0,0,0,0,0-.44.25-.88.51-1.32.76-1.65-7.86-2.84-15.82-5.15-23.53,0,0,0,0,0,0-.2-1.36-.34-2.72-.61-4.07-2.07-10.24-4.11-20.49-6.25-30.71-2.68-12.77-5.44-25.53-8.16-38.29-.98-10.61-4.14-14.43-12.64-14.62-9.42-.2-18.84,0-28.26-.17-2.83-.06-2.91,1.19-2.4,3.27.9,3.61,1.76,7.24,2.64,10.85,0,0,0,0,0,0h0c.76,3.22,1.52,6.44,2.26,9.65,5.88,25.36,11.76,50.71,17.64,76.07,1.65,7.48,3.18,15,4.98,22.45,1.47,6.09,2.5,12.4,6.76,17.43h0c2.72,4.28,6.69,6.86,11.43,8.35,14.54,4.59,29.19.39,39.2-11.63,7.43-8.94,13.04-19.13,18.95-29.1,0,0,0,0,0,0,.73-1.13,1.49-2.24,2.17-3.39,7.04-11.9,14.07-23.82,21.1-35.73h0c10.12-16.11,19.71-32.53,29-49.14,3.72-6.17,7.44-12.34,11.45-18.98Z"/>
      <path class="cls-8" d="M218.02,35.69c-10.52.08-21.05.05-31.58,0-2.01,0-2.99.82-3.35,2.83-1.35,7.58-3.29,15.05-4.12,22.72-.23.49-.58.96-.68,1.47-4.14,20.95-8.34,41.88-12.36,62.85-2.05,10.72-4.78,21.31-6.12,32.16-2.14,7.83-3.44,15.85-5.01,23.8-.54,2.73.55,3.01,2.75,3,10.38-.06,20.75-.07,31.13.01,2.31.02,3.43-.62,3.86-3.13,1.38-8.15,3.04-16.25,4.6-24.36,1.42-7.48,2.84-14.95,4.26-22.43,1.11-5.68,2.21-11.36,3.32-17.04,2.48-12.63,4.97-25.26,7.46-37.9,2.73-13.53,5.44-27.06,8.22-40.57.44-2.14.37-3.44-2.38-3.42Z"/>
      <path class="cls-2" d="M358.26,35.77c-26.45.37-52.92-.97-79.36.81,0,0,0,0,0,0,0,0-20.37,1.05-20.37,1.05l-14.91-3.62c-2.38,11.37-5.59,29.88-7.94,40.73-4.33,19.94-8.38,39.93-12.4,59.93-1.82,9.05-3.09,18.18-.78,27.38,2.05,9.37,7.64,15.77,16.49,19.27,5.84,2.31,11.95,3.24,18.25,3.23,25.08-.06,50.15-.04,75.23-.06q9.04,0,10.44-9.1c.04-.27-.03-.55-.05-.83,1.17-6.38,2.14-12.79,3.58-19.11.76-3.33-.49-3.6-3.27-3.58-24.09.15-48.19.17-72.28.26-2.37,0-4.67-.25-6.93-.95,0,0,0,0,0,0,0,0,0,0,0,0-1.09-.85-2.18-1.71-3.28-2.56-2.02-2.78-1.95-5.94-1.49-9.09.48-3.27,1.32-6.49,1.72-9.77.39-3.29,1.65-4.46,5.26-4.43,21.69.17,43.39.01,65.09-.04,2.63.07,5.26.08,7.89.22,2.2.12,3.04-.32,3.39-3.3.9-7.63,2.33-15.18,4.3-22.61,1.11-4.18.57-5.86-3.63-5.83-23.01.19-46.03.12-69.04.14-5.4,0-5.42,0-4.4-5.09.49-2.44,1.01-4.87,1.63-7.27,2.6-10.03,6.99-13.46,17.39-13.48,22.87-.03,45.75-.03,68.62.02,2.28,0,3.96-.08,4.39-2.96,1.03-6.82,2.32-13.6,3.5-20.4,2.13-8.96,2.12-9.1-7.04-8.97Z"/>
      <path class="cls-7" d="M609.13,35.63c-8.12.15-16.24.04-24.36.05-2.7,0-5.14.79-7.16,2.64h0s0,0,0,0c-3.04,1.84-4.26,5.02-5.65,7.98-4.22,8.99-8.32,18.03-12.42,27.07-10.39,22.86-20.75,45.72-31.13,68.58h0s0,0,0,0c-.91.35-.72,2.24-2.3,1.66-.07-1.38-.1-2.77-.23-4.15-1.61-17.92-3.22-35.84-4.86-53.75-1.09-11.85-2.1-23.72-3.42-35.54-.68-6.1-3.17-11.67-9.74-13.1-16.16-3.52-28.36-.48-35.25,14.4-5.51,11.9-11.39,23.62-17.08,35.43-4.85,10.06-9.65,20.14-14.47,30.21-4.51,8.44-9.21,16.78-12.42,25.85h0s0,0,0,0c-.52.51-1.03,1.01-1.55,1.52-.13-1.69-.02-3.42-.86-4.99,0,0,0,0,0,0,.32-2.23-.73-4.34-.75-6.46-.17-12.19-1.97-24.25-2.53-36.4-.3-6.55-1.05-13.07-1.54-19.61-.85-11.45-1.47-22.92-2.57-34.35-.49-5.13-3.01-6.94-8.09-6.98-8.74-.06-17.47.07-26.21-.12-2.81-.06-3.6.75-3.25,3.52.88,6.86,1.62,13.74,2.27,20.63,2.64,28.01,5.22,56.03,7.82,84.05,0,0,0,0,0,0,.25,3.27.26,6.57.79,9.79.92,5.6.28,11.44,2.52,16.84h0s0,0,0,0c.86,4.42,3.24,7.82,6.97,10.27,12.92,8.48,33.46,5.36,43.28-6.52,5.43-6.57,8.51-14.39,11.9-22.05,0,0,0,0,0,0t0,0c4.43-9.43,8.86-18.87,13.29-28.3h0c5.92-12.75,11.83-25.5,18.04-38.88.77,9.44,1.42,18.09,2.19,26.73.78,8.77,1.68,17.52,2.53,26.29.59,7.41.96,14.85,1.83,22.23.57,4.86.49,9.94,3.12,14.39h0c2.37,5.86,7.3,8.52,12.99,9.78,16.37,3.64,29.52-1.7,39.15-15.62,6.4-9.96,10.6-21.03,15.78-31.61,13.71-28.1,26.9-56.45,39.97-84.85,1.95-4.36,3.99-8.68,5.82-13.09.89-2.13.62-3.6-2.42-3.54Z"/>
      <g>
        <polygon class="cls-4" points="243.63 34.02 257.34 31.89 327.89 9.53 342.55 10.29 341.43 17.91 355.39 20.59 354.5 26.69 368.37 30.99 253.62 50.92 243.63 34.02"/>
        <path class="cls-1" d="M243.63,34.02l7.91,9.96s56.96-12.58,116.83-12.99h0l-5.61,28.79-123.93-.9,4.79-24.87Z"/>
        <path class="cls-6" d="M257.34,31.89l70.55-22.36,1.4-9.53s-45.03,21.69-71.95,31.89Z"/>
        <path class="cls-5" d="M264.83,33.97s70.78-15.53,76.6-16.06l1.12-7.63s-65.27,19.94-77.72,23.68Z"/>
        <path class="cls-3" d="M269.68,37.26s73.46-11.42,84.82-10.58l.9-6.1s-77.5,13.8-85.72,16.68Z"/>
      </g>
    </g>
  </g>
</svg>