<?xml version="1.0" encoding="UTF-8"?>
<svg id="_圖層_2" data-name="圖層 2" xmlns="http://www.w3.org/2000/svg" xmlns:xlink="http://www.w3.org/1999/xlink" viewBox="0 0 543.21 133.1">
  <defs>
    <style>
      .cls-1 {
        fill: url(#_未命名漸層_703-3);
      }

      .cls-2 {
        fill: url(#_未命名漸層_703-4);
      }

      .cls-3 {
        fill: url(#_未命名漸層_703-2);
      }

      .cls-4 {
        fill: url(#_未命名漸層_703);
      }
    </style>
    <linearGradient id="_未命名漸層_703" data-name="未命名漸層 703" x1="74.48" y1="133.1" x2="74.48" y2=".03" gradientUnits="userSpaceOnUse">
      <stop offset="0" stop-color="#9b38fe"/>
      <stop offset=".1" stop-color="#943bff"/>
      <stop offset=".8" stop-color="#2781ff"/>
      <stop offset="1" stop-color="#2781ff"/>
    </linearGradient>
    <linearGradient id="_未命名漸層_703-2" data-name="未命名漸層 703" x1="166.54" y1="132.23" x2="166.54" y2=".11" xlink:href="#_未命名漸層_703"/>
    <linearGradient id="_未命名漸層_703-3" data-name="未命名漸層 703" x1="260.83" y1="132.25" x2="260.83" y2=".06" xlink:href="#_未命名漸層_703"/>
    <linearGradient id="_未命名漸層_703-4" data-name="未命名漸層 703" x1="440.78" y1="133.06" x2="440.78" y2="0" xlink:href="#_未命名漸層_703"/>
  </defs>
  <g id="_圖層_1-2" data-name="圖層 1">
    <g>
      <path class="cls-4" d="M148.96.15c-7.44,0-14.18.31-20.89-.07-10.43-.6-17.15,4.36-21.61,13.26h0s0,0,0,0c-2.73,4.6-5.49,9.18-8.18,13.81-6.73,11.57-13.7,23-19.93,34.86-5.92,10.15-11.87,20.28-17.74,30.46-1.07,1.86-2.69,3.49-2.89,5.8,0,0,0,0,0,0-.39.22-.78.45-1.17.67-1.47-6.98-2.52-14.04-4.57-20.89,0,0,0,0,0,0-.18-1.2-.3-2.42-.54-3.61-1.83-9.09-3.65-18.18-5.55-27.26-2.37-11.34-4.83-22.66-7.24-33.98C37.78,3.77,34.97.37,27.43.21,19.07.03,10.7.22,2.34.05-.17,0-.24,1.11.22,2.95c.8,3.21,1.57,6.42,2.35,9.63h0c.67,2.86,1.35,5.71,2.01,8.57,5.22,22.51,10.44,45.01,15.65,67.52,1.46,6.64,2.83,13.31,4.42,19.92,1.3,5.41,2.22,11.01,6,15.47h0c2.41,3.8,5.94,6.09,10.14,7.41,12.9,4.07,25.91.35,34.79-10.33,6.6-7.93,11.57-16.98,16.82-25.83,0,0,0,0,0,0,.64-1,1.32-1.99,1.93-3.01,6.25-10.57,12.49-21.14,18.73-31.71h0c8.99-14.3,17.5-28.88,25.74-43.61,3.3-5.48,6.61-10.95,10.16-16.85Z"/>
      <path class="cls-3" d="M193.52.11c-9.34.07-18.68.04-28.03,0-1.78,0-2.65.72-2.97,2.51-1.2,6.73-2.92,13.36-3.66,20.17-.21.43-.51.85-.6,1.3-3.68,18.59-7.4,37.18-10.97,55.79-1.82,9.51-4.25,18.91-5.43,28.55-1.9,6.95-3.05,14.06-4.45,21.13-.48,2.42.49,2.67,2.44,2.66,9.21-.05,18.42-.06,27.63.01,2.05.02,3.05-.55,3.42-2.78,1.22-7.23,2.7-14.42,4.08-21.62,1.26-6.64,2.52-13.27,3.78-19.91.98-5.04,1.96-10.08,2.95-15.12,2.2-11.21,4.41-22.42,6.62-33.64,2.42-12.01,4.83-24.02,7.29-36.01.39-1.9.33-3.06-2.11-3.04Z"/>
      <path class="cls-1" d="M318,.19c-23.48.33-46.98-.87-70.44.72,0,0,0,0,0,0,0,0,0,0,0,0-18.16,1.22-34.33,15.34-38.36,33.88-3.84,17.7-7.44,35.45-11.01,53.2-1.62,8.03-2.74,16.14-.69,24.3,1.82,8.32,6.78,13.99,14.63,17.1,5.18,2.05,10.61,2.88,16.2,2.86,22.26-.05,44.51-.04,66.77-.05q8.03,0,9.27-8.08c.04-.24-.03-.49-.05-.73,1.04-5.66,1.9-11.36,3.18-16.96.67-2.96-.43-3.19-2.9-3.18-21.38.13-42.77.15-64.16.23-2.1,0-4.15-.22-6.15-.84,0,0,0,0,0,0,0,0,0,0,0,0-.97-.76-1.94-1.52-2.91-2.28-1.8-2.47-1.73-5.27-1.32-8.07.42-2.9,1.18-5.76,1.52-8.67.35-2.92,1.46-3.96,4.67-3.93,19.26.15,38.51.01,57.77-.03,2.33.06,4.67.07,7,.2,1.95.11,2.7-.28,3.01-2.93.8-6.77,2.06-13.48,3.82-20.07.99-3.71.5-5.2-3.23-5.17-20.43.17-40.85.11-61.28.13-4.79,0-4.81,0-3.9-4.52.43-2.16.89-4.32,1.45-6.46,2.3-8.9,6.21-11.95,15.43-11.96,20.3-.03,40.61-.03,60.91.02,2.02,0,3.51-.07,3.9-2.63.91-6.05,2.06-12.07,3.11-18.1,1.89-7.95,1.89-8.08-6.25-7.96Z"/>
      <path class="cls-2" d="M540.67.06c-7.2.13-14.41.03-21.62.04-2.4,0-4.56.7-6.36,2.35h0s0,0,0,0c-2.7,1.63-3.78,4.45-5.02,7.09-3.75,7.98-7.38,16.01-11.03,24.03-9.22,20.29-18.42,40.58-27.63,60.87h0s0,0,0,0c-.81.31-.63,1.99-2.04,1.47-.06-1.23-.09-2.46-.2-3.68-1.43-15.9-2.86-31.81-4.32-47.71-.97-10.52-1.86-21.05-3.04-31.55-.61-5.41-2.81-10.36-8.64-11.63-14.34-3.12-25.18-.42-31.29,12.78-4.89,10.56-10.11,20.96-15.16,31.45-4.3,8.93-8.57,17.87-12.85,26.81-4,7.49-8.18,14.9-11.03,22.94h0,0c-.46.45-.91.9-1.37,1.35-.12-1.5-.01-3.04-.76-4.43,0,0,0,0,0,0,.29-1.98-.64-3.85-.67-5.73-.15-10.82-1.75-21.52-2.25-32.31-.27-5.81-.93-11.6-1.37-17.41-.76-10.16-1.3-20.35-2.28-30.49-.44-4.55-2.68-6.16-7.18-6.19-7.75-.06-15.51.06-23.26-.1-2.5-.05-3.2.67-2.88,3.12.79,6.09,1.44,12.2,2.01,18.31,2.34,24.87,4.63,49.74,6.94,74.6,0,0,0,0,0,0,.22,2.9.23,5.83.7,8.69.81,4.97.25,10.16,2.23,14.95h0c.76,3.92,2.88,6.94,6.19,9.12,11.47,7.53,29.7,4.76,38.42-5.79,4.82-5.83,7.56-12.77,10.57-19.57,0,0,0,0,0,0t0,0c3.93-8.37,7.87-16.75,11.8-25.12h0c5.25-11.32,10.5-22.64,16.01-34.51.68,8.38,1.26,16.06,1.94,23.73.69,7.78,1.49,15.56,2.24,23.33.52,6.58.85,13.18,1.63,19.74.51,4.31.43,8.82,2.77,12.77h0c2.1,5.21,6.48,7.56,11.53,8.68,14.53,3.23,26.2-1.51,34.75-13.86,5.68-8.84,9.41-18.67,14.01-28.05,12.17-24.94,23.88-50.1,35.48-75.31,1.73-3.87,3.54-7.71,5.17-11.62.79-1.89.55-3.2-2.15-3.15Z"/>
    </g>
  </g>
</svg>