<?xml version="1.0" encoding="UTF-8"?>
<svg xmlns="http://www.w3.org/2000/svg" version="1.1" viewBox="0 0 300 300">
  <defs>
    <style>
      .cls-1 {
        fill: #03b8df;
      }

      .cls-2 {
        fill: #fff;
      }

      .cls-3 {
        fill: #00a2c7;
      }

      .cls-4 {
        fill: #aacf52;
      }
    </style>
  </defs>
  <!-- Generator: Adobe Illustrator 28.7.5, SVG Export Plug-In . SVG Version: 1.2.0 Build 176)  -->
  <g>
    <g id="_圖層_2" data-name="圖層_2">
      <g>
        <path class="cls-3" d="M244.3,150c0,52-42.2,94.3-94.3,94.3s-94.3-42.2-94.3-94.3,42.2-94.3,94.3-94.3c52.1,0,94.3,42.3,94.3,94.3Z"/>
        <path class="cls-1" d="M126.2,58.1l-16.2,52.6h-19.2l-24.9,83.3s35.4,51.7,82.3,51.7,77.5-41.2,83.2-52.6l-26.8-82.3h-22l-13.4-54.5c0-.2-26.8-3-43,1.8Z"/>
        <path class="cls-2" d="M137.6,57.1l-12.4,54.6h-14.4l-29.6,102.3s31.6,31.6,66,31.6,63.2-20.1,69.9-31.6l-31.6-99.5h-14.4l-13.4-56.4-20.1-1Z"/>
        <g>
          <path class="cls-4" d="M85.7,217.1c17,16.8,40.4,27.2,66.3,27.2s46.3-9.2,63-24.2c-16.9-12.8-40.5-20.9-66.7-20.9-24.2,0-46.1,6.8-62.6,17.9Z"/>
          <g>
            <path class="cls-4" d="M148.7,162c-5.2-8-16.5-20.7-36.5-20.7,0,0,8,35.9,34.9,39.8,0,0,.7-.4,1.6-1.2.9.8,1.6,1.2,1.6,1.2,26.9-4,34.9-39.8,34.9-39.8-20,0-31.4,12.8-36.5,20.7Z"/>
            <rect class="cls-4" x="144.4" y="172.9" width="8.6" height="31.6"/>
          </g>
        </g>
        <path class="cls-2" d="M150,246.9c-53.4,0-96.8-43.4-96.8-96.8s43.4-96.8,96.8-96.8,96.8,43.4,96.8,96.8-43.4,96.8-96.8,96.8ZM150,58.3c-50.6,0-91.7,41.1-91.7,91.7s41.1,91.7,91.7,91.7,91.7-41.1,91.7-91.7-41.1-91.7-91.7-91.7Z"/>
        <g>
          <path class="cls-2" d="M47.1,187.2l5.9,10.7-1.2.7c-.2-.4-.5-.9-.9-1.4-.4-.6-.7-.9-1-1.1-.4-.2-.8-.3-1.2-.4-.4,0-.8.1-1.2.3l-17.5,9.7v.2c.1,0,25.1-3.1,25.1-3.1l.5.9-16.5,19.3v.2c0,0,14.5-7.9,14.5-7.9,1.4-.8,2.4-1.4,3-2s1-1.1,1.1-1.7c0-.4,0-1-.2-1.9s-.4-1.5-.5-1.7l1.2-.7,5.4,9.7-1.2.7c-.3-.5-.7-1-1.2-1.5-.4-.5-.9-.8-1.3-1-.5-.2-1.2-.2-1.9,0s-1.9.8-3.4,1.6l-12.3,6.8c-.7.4-1.2.8-1.6,1.2-.4.4-.6.9-.7,1.3,0,.5,0,1.1,0,1.7,0,.6.3,1.1.6,1.7l-1.2.7-4.5-8.2,14.2-16.8-18.3,2.4c-.7.1-1.4.2-2,.4-.7.2-1.1.3-1.4.4l-4.3-7.8,1.2-.7c.2.3.5.7.8,1.1.4.4.6.7.8.9.3.3.7.4,1.1.4s.8-.2,1.1-.4l17.3-9.6c.4-.2.7-.5.9-.8s.3-.7.3-1.2,0-.7-.3-1.3-.4-1-.5-1.3l1.3-.5Z"/>
          <path class="cls-2" d="M44.2,173.1l3.4,11.9-1.3.4c0-.3-.3-.8-.5-1.4-.2-.6-.4-1-.6-1.3-.3-.4-.6-.6-.9-.7-.3-.1-.7-.1-1.2,0l-19.2,5.4c-.4.1-.8.3-1,.5-.3.2-.4.6-.5,1.2v1.5c0,.6.1,1.1.2,1.4l-1.3.4-3.4-11.9,1.3-.4c.1.4.3.8.5,1.3s.5.9.7,1.3c.3.4.6.7,1,.7.4.1.8,0,1.2-.1l19.2-5.4c.4-.1.8-.3,1-.6.3-.3.4-.6.5-1.1v-1.4c0-.6,0-1.1-.2-1.6h1.1Z"/>
          <path class="cls-2" d="M15,144.4c0,.4.2.9.4,1.6.2.7.5,1.3.7,1.6.4.4,1,.7,1.9.8s2.1.1,3.5,0l20.1-1.4v1.7c0,0-21.2,18.2-21.2,18.2l14.1-1c1.6-.1,2.8-.3,3.6-.6s1.4-.6,1.7-1c.3-.3.5-.9.7-1.9s.3-1.6.3-1.9h1.4c0-.1.8,11.2.8,11.2h-1.4c0-.2-.2-.8-.5-1.6s-.5-1.3-.7-1.5c-.4-.4-1-.7-1.7-.8s-2-.1-3.8,0l-13.5.9c-.6,0-1.2.2-1.8.4-.6.2-1,.6-1.3.9-.4.5-.7,1.1-1,2-.2.8-.4,1.5-.4,2h-1.4c0,.1-.5-7.7-.5-7.7l20-16.9-13,.9c-1.6.1-2.8.3-3.7.6-.8.3-1.4.6-1.6,1s-.4,1-.6,1.8c-.2.8-.3,1.5-.3,1.9h-1.4c0,.1-.8-11-.8-11l1.4-.2Z"/>
          <path class="cls-2" d="M43.6,129.6l-1.6,12.3-1.4-.2c0-.4,0-.9,0-1.5v-1.4c0-.4-.3-.8-.6-1s-.6-.4-1.2-.4l-19.7-2.6c-.4-.1-.8,0-1.2.1-.3.1-.6.4-.9.9-.2.4-.4.8-.6,1.4-.2.6-.4,1-.4,1.4l-1.4-.2,1.6-12.2,1.4.2v1.4c0,.6.1,1.1.1,1.5.1.5.3.9.6,1.1.3.2.7.3,1.1.4l19.7,2.6c.4.1.8,0,1.2-.1.3-.1.7-.4.9-.8,0-.3.3-.7.5-1.3s.3-1.1.4-1.5h1.4Z"/>
          <path class="cls-2" d="M37,106.9c.8-.4,1.6-.6,2.4-.6s1.7,0,2.7.4c2.3.7,4,2.2,4.9,4.4,1,2.2,1.1,4.5.3,7.1-.4,1.2-.9,2.3-1.7,3.3-.7,1.1-1.5,1.9-2.3,2.6l1.1,1.2-.5,1.5-9.1-2.5.5-1.5c1.2,0,2.3,0,3.3-.2,1,0,2-.4,3-.9.9-.4,1.7-1,2.4-1.7s1.2-1.7,1.6-2.8c.3-.9.4-1.6.4-2.3s-.2-1.3-.5-1.8-.7-1-1.2-1.3c-.5-.4-1.1-.7-1.8-.9-1-.3-2.1-.3-3.2,0-1.1.3-2.1,1-2.9,2-.6.7-1.2,1.5-1.9,2.4s-1.4,1.7-1.9,2.3c-1.1,1.3-2.4,2.2-3.7,2.6-1.3.5-2.9.5-4.6,0-1-.3-1.9-.8-2.6-1.5s-1.3-1.5-1.8-2.5c-.4-.9-.7-1.9-.7-3-.1-1.1.1-2.2.4-3.2.4-1.2.9-2.2,1.6-3.1.7-.8,1.4-1.6,2.1-2.2l-1-1.2.5-1.5,8.7,2.6-.5,1.5h-3.1c-1,0-2,.2-2.9.6-.9.3-1.7.8-2.3,1.4-.7.6-1.2,1.5-1.5,2.6-.4,1.2-.3,2.3.2,3.3.5,1.1,1.3,1.8,2.4,2.1,1.1.4,2.1.4,3.1,0,.9-.3,1.8-.9,2.6-1.7.7-.8,1.4-1.5,1.9-2.3.6-.8,1.2-1.5,1.8-2.2.6-.6,1.1-1.2,1.8-1.8.6-.5,1.3-.9,2-1.2Z"/>
          <path class="cls-2" d="M43.8,77.5l-.6,1.2c-.5,0-1.1-.2-1.8-.3h-2.1c-.7,0-1.4.2-2,.3-.6.2-1,.4-1.3.8-.2.3-.5.7-.8,1.3-.3.5-.6,1-.9,1.5l-.6,1,19.3,10.7c.4.2.8.3,1.2.3s.8,0,1.2-.4c.2-.2.5-.5,1-1.1s.9-1,1.1-1.4l1.2.7-6.3,11.3-1.2-.7c.2-.3.4-.8.7-1.5s.5-1.2.5-1.5c0-.4,0-.8-.2-1.2-.2-.3-.5-.6-1-.9l-19.4-10.8-.6,1c-.2.4-.4.8-.7,1.3-.3.5-.5,1-.7,1.5-.2.4-.2.9,0,1.5s.4,1.2.7,1.9c.3.6.7,1.2,1.1,1.8.4.6.8,1,1.1,1.3l-.7,1.2-6.5-3.6,11.7-20.9,6.6,3.7Z"/>
          <path class="cls-2" d="M80,66.8l-5,5.5c-3-.5-5.6-.9-7.9-1.2-2.3-.3-4.7-.5-7.2-.7l-1.9,1.9,6.4,5.9c.3.3.7.5,1,.6.4,0,.7,0,1.2,0,.2,0,.6-.3,1-.7.5-.4.8-.7,1.1-1l1,.9-7.8,8.5-1-.9c.2-.2.5-.6.8-1.1s.6-.8.6-1.1c0-.4,0-.8,0-1.1,0-.3-.4-.7-.7-1l-14.6-13.4c-.3-.3-.7-.5-1-.7-.3,0-.7,0-1.2,0-.3.2-.7.4-1.1.7-.4.3-.8.6-1,.8l-1-.9,8.6-9.3c.8-.9,1.6-1.6,2.5-2.2.9-.6,1.8-1,2.7-1.3.9-.2,1.9-.3,2.8,0,.9.2,1.8.7,2.7,1.5.8.7,1.4,1.5,1.7,2.3.4.8.6,1.6.6,2.5s0,1.6-.3,2.5c-.3.9-.6,1.8-1.1,2.7,2.2.2,4.1.4,5.6.6s3.4.4,5.5.6c1,0,1.7,0,2.3,0,.6,0,1.1-.2,1.6-.4.4,0,.7-.3,1.1-.7.4-.3.7-.6,1-.8l1,1ZM58,60.4c-1.2-1.1-2.5-1.7-3.9-1.6-1.4,0-2.6.7-3.8,2l-2.2,2.4,8.7,8,1.7-1.9c1.2-1.3,1.8-2.8,1.8-4.4,0-1.7-.8-3.2-2.3-4.5Z"/>
          <path class="cls-2" d="M84.9,32.5c-.2,0-.4.4-.7.8-.3.4-.5.7-.6,1-.2.5-.4.9-.4,1.2,0,.2,0,.8,0,1.7,0,1.7,0,3.5,0,5.1,0,1.7.3,3.8.5,6.4,0,1,.2,1.7.3,2.2.2.5.5,1.1,1,1.9l3,4.3c.3.4.6.7.9.8.3.2.8.2,1.3,0,.3,0,.8-.2,1.4-.5.7-.3,1.2-.5,1.5-.7l.8,1.1-10.6,7.2-.8-1.1c.3-.2.7-.6,1.3-1,.6-.5.9-.8,1.1-1.1.3-.4.4-.8.3-1.2,0-.4-.2-.8-.5-1.2l-3.8-5.5c0-.2-.4-.4-1-.7-.5-.3-1.1-.6-1.8-1-1.5-.8-3.1-1.7-4.9-2.6-1.8-.9-3.3-1.7-4.5-2.3s-1.4-.6-1.9-.7c-.5,0-1-.2-1.5-.2s-.8,0-1.2.3c-.4.2-.8.3-1.1.5l-.8-1.1,9.7-6.6.8,1.1c-1.1.8-1.8,1.4-2.1,1.8-.4.4-.5.8-.3,1,0,0,0,.2.3.3.2,0,.4.3.7.4.3.2.7.4,1.1.6.4.2.9.4,1.2.7,1.1.6,2.3,1.2,3.5,1.8s2.7,1.4,4.6,2.3c-.2-3.8-.3-6.8-.5-8.9,0-2.1-.3-3.3-.5-3.6-.2-.2-.4-.4-.7-.4s-.6,0-1,0-.7.3-1.1.5-.7.4-1.1.6l-.8-1.1,7.9-5.4,1,1.1Z"/>
          <path class="cls-2" d="M122.8,21c1.5.9,2.8,2.1,4,3.7,1.1,1.5,2,3.4,2.6,5.5.6,2.1.8,4.1.6,6s-.7,3.6-1.6,5.2c-.8,1.5-1.9,2.8-3.3,3.9-1.4,1.1-2.9,1.8-4.6,2.3-1.8.5-3.6.6-5.4.4-1.8-.3-3.4-.9-4.8-1.8-1.5-.9-2.7-2.1-3.9-3.7-1.1-1.5-2-3.3-2.5-5.3-.6-2.2-.8-4.2-.6-6,.2-1.9.7-3.6,1.6-5.2.8-1.5,1.9-2.9,3.3-3.9,1.4-1.1,2.9-1.8,4.6-2.3,1.8-.5,3.5-.6,5.2-.4,1.7.2,3.3.7,4.8,1.6ZM125.2,40.6c.4-1.3.5-2.7.5-4.3,0-1.5-.4-3.2-.9-4.9-.5-1.8-1.1-3.4-1.9-4.9-.8-1.4-1.7-2.6-2.6-3.5-1-.9-2.1-1.5-3.3-1.8-1.2-.3-2.5-.3-3.8.1-1.5.4-2.7,1.1-3.5,2.1-.9,1-1.5,2.1-1.8,3.5-.3,1.3-.4,2.7-.3,4.2,0,1.6.4,3.1.8,4.8.5,1.8,1.1,3.4,1.8,4.7.7,1.3,1.6,2.5,2.6,3.4s2.1,1.5,3.2,1.9c1.2.3,2.5.3,3.9,0,1.3-.4,2.4-1,3.3-1.9,1-.9,1.6-2,2-3.3Z"/>
          <path class="cls-2" d="M155.7,22.1h-1.5c-.3-1-.9-2.1-1.8-3.2-.9-1.1-1.7-1.7-2.5-1.8-.4,0-.9-.1-1.4-.1h-1.9l-4.6.2.4,11h3.2c1-.1,1.7-.3,2.2-.5.5-.2,1-.5,1.3-1,.2-.3.5-.7.7-1.3.2-.6.3-1.3.4-1.9h1.5l.4,10.8h-1.5c-.1-.5-.2-1.1-.5-1.8s-.5-1.2-.8-1.5c-.4-.5-.9-.8-1.5-.9s-1.3-.2-2.1-.2h-3.2c0,.1.3,9.5.3,9.5,0,.4.1.8.3,1.1s.5.6.9.8c.2,0,.6.2,1.3.3s1.2.2,1.5.2v1.4l-11.9.4v-1.4c.3,0,.8,0,1.4-.2.6,0,1.1-.2,1.2-.3.4-.2.7-.4.8-.8.2-.3.2-.7.2-1.2l-.7-19.8c0-.4-.1-.8-.3-1.1-.2-.3-.5-.6-.9-.8-.3-.2-.8-.3-1.4-.4-.6-.1-1.1-.2-1.4-.2v-1.4l21.5-.7.4,6.8Z"/>
          <path class="cls-2" d="M191.9,42.6l-2.7,7.6-21.9-6.2.4-1.3c.4,0,.9.2,1.5.3s1.1,0,1.3,0c.4,0,.8-.2,1-.5s.4-.6.6-1.1l5.4-19c.1-.4.2-.8.1-1.1,0-.4-.3-.7-.6-1s-.7-.5-1.2-.8-.9-.5-1.3-.6l.4-1.3,20.4,5.8-1.8,6.4-1.4-.4c0-1-.2-2.2-.7-3.5s-1.1-2.1-1.9-2.4c-.4-.2-.8-.3-1.3-.5s-1.1-.4-1.8-.6l-4.1-1.2-3,10.5,3,.8c.9.3,1.7.4,2.2.3.5,0,1-.3,1.4-.6s.7-.7,1.1-1.3c.4-.6.7-1.1.9-1.6l1.4.4-3,10.4-1.4-.4c.1-.6.2-1.3.1-2,0-.7-.1-1.3-.3-1.6-.2-.6-.6-1-1-1.3s-1.1-.5-1.9-.8l-3-.8-2.3,7.9c-.2.8-.3,1.4-.4,1.9,0,.5.1.9.4,1.2.3.3.6.6,1.2.8.5.2,1.3.5,2.4.8.4,0,.9.3,1.6.5.7.2,1.2.3,1.7.4.5,0,1,0,1.5,0s.9,0,1.2-.2c.7-.4,1.6-1.2,2.6-2.2s1.6-1.8,2-2.3l1.2.4Z"/>
          <path class="cls-2" d="M220.7,52.3c-1.2,2-2.6,3.6-4.2,4.6-1.6,1-3.3,1.7-5.1,1.9s-3.6.2-5.4-.3c-1.8-.4-3.5-1.1-5.1-2l-9.9-5.7.7-1.2c.3.2.8.4,1.3.6.6.2.9.4,1.2.4.4,0,.8,0,1.1-.2s.6-.5.8-.9l9.9-17.2c.2-.4.4-.8.4-1.1s-.1-.8-.4-1.2c-.2-.4-.6-.7-.9-1-.4-.3-.7-.6-1-.8l.7-1.2,10.4,6c1.4.8,2.7,1.9,3.8,3.1,1.1,1.2,2,2.5,2.6,3.9.8,1.8,1.2,3.7,1,5.8,0,2.2-.6,4.3-1.9,6.5ZM216.6,49.9c.9-1.6,1.5-3.2,1.9-4.7.3-1.5.4-3,.1-4.5-.2-1.4-.8-2.6-1.6-3.8s-1.9-2.2-3.3-3c-.5-.3-1-.6-1.6-.9-.6-.3-1-.5-1.3-.7l-10.6,18.3c-.6,1-.7,1.9-.3,2.6.4.7,1.2,1.5,2.4,2.2,1.4.8,2.8,1.3,4.2,1.4,1.3,0,2.6,0,3.8-.6s2.4-1.3,3.4-2.4c1-.9,2-2.3,2.9-3.9Z"/>
          <path class="cls-2" d="M253.5,66.5c-.3-.2-.7-.6-1.3-1s-1.2-.7-1.7-.8c-.5,0-1.2,0-2,.6s-1.6,1.3-2.6,2.2l-8.5,8.4c-1.1,1.1-2.2,1.8-3.5,2.1-1.2.3-2.5.4-3.7.2-1.2-.2-2.3-.6-3.3-1.2s-1.9-1.2-2.6-2c-1.2-1.2-2-2.4-2.7-3.6-.6-1.2-1-2.4-1-3.5-.1-1.1.1-2.2.4-3.2.4-1,.9-1.8,1.6-2.6l11.5-11.5c.3-.3.5-.6.6-1,.1-.3.1-.7,0-1.2-.1-.4-.3-.8-.6-1.2s-.5-.8-.7-1l1-1,8,8.1-1,1c-.3-.2-.6-.5-1.1-.8s-.8-.5-1-.6c-.4-.2-.8-.2-1.2,0-.4.2-.7.4-1,.7l-10.8,10.7c-.5.5-1,1.1-1.5,1.8-.5.7-.8,1.4-.9,2.3-.1.9-.1,1.8.2,2.7.3.9,1,1.9,2,3,1,1,2,1.7,3,2.1s2,.5,2.9.4,1.7-.4,2.3-.7c.7-.4,1.3-.8,1.9-1.4l8-8c1-1,1.8-1.9,2.3-2.7s.7-1.4.6-1.9c-.1-.5-.3-1.2-.8-1.8-.4-.7-.8-1.2-1-1.5l1-1,7.9,7.9-.7,1.1Z"/>
          <path class="cls-2" d="M240.8,96.6c-.8-1.4-1.4-2.9-1.6-4.5-.2-1.6-.1-3.2.3-4.9.5-1.6,1.3-3.1,2.4-4.6,1.2-1.5,2.7-2.8,4.6-3.9,1.9-1.1,3.8-1.9,5.6-2.2,1.9-.3,3.7-.3,5.4,0,1.7.3,3.3,1,4.7,2,1.4,1,2.6,2.3,3.5,3.9.7,1.2,1.2,2.3,1.5,3.4s.4,2.2.4,3.4h1.5l.8,1.3-8.3,5.2-.8-1.4c.7-.7,1.4-1.5,2.2-2.4.7-.9,1.3-1.8,1.7-2.7.4-1,.7-2,.6-2.9,0-1-.3-1.9-.9-2.9-.6-1.1-1.5-1.9-2.5-2.6-1-.6-2.2-1-3.5-1.1s-2.7,0-4.3.5c-1.6.5-3.3,1.2-5,2.2-1.5.9-2.8,1.9-3.8,3.1-1,1.1-1.8,2.3-2.3,3.6-.5,1.3-.8,2.5-.7,3.8,0,1.3.4,2.5,1.1,3.7.5.9,1.2,1.6,1.9,2.2s1.5,1,2.3,1.3,1.7.4,2.5.5c.9,0,1.8,0,2.6-.2l.2,1.6c-2.9.4-5.3.2-7.3-.8-1.9-.9-3.5-2.4-4.8-4.6Z"/>
          <path class="cls-2" d="M255.1,131.2l-3.5-10.9,1.3-.4c.4.9.7,1.7,1.1,2.3.4.6.7.8,1,.7.1,0,.2,0,.4-.2.1,0,.3-.2.4-.3l5.2-4-2.9-9.2c-1,0-1.8,0-2.5,0h-2c-.6,0-1,0-1.4,0-.4,0-.6,0-.8.2-.5.2-.7.7-.8,1.5,0,.9.1,1.8.4,2.8l-1.3.4-3.1-9.8,1.3-.4c.1.3.3.7.6,1.1s.6.8.8,1c.5.4,1,.7,1.4.8.4.2,1,.3,1.8.3,3.7.3,7.9.6,12.5.8,4.6.3,8.7.5,12.3.8l.5,1.5-19.9,15.8c-.4.3-.7.7-1,1-.2.3-.4.7-.6,1.3s-.1.8-.1,1.2.1.9.2,1.2l-1.3.5ZM262.5,117.2l9-7.2-11.5-.7,2.5,7.9Z"/>
          <path class="cls-2" d="M276.4,151.6v-1.3c.3-.2.9-.4,1.5-.8.6-.4,1.2-.7,1.7-1.2.6-.4,1-.9,1.5-1.4.4-.5.6-1,.7-1.4v-1.5c0-.6-.1-1.2-.1-1.7v-1.1c-.1,0-22,1.8-22,1.8-.4,0-.8.2-1.1.4-.3.2-.6.6-.7,1-.1.2-.2.7-.3,1.5-.1.8-.1,1.3-.1,1.8h-1.4c0,.1-1-12.8-1-12.8h1.4c.1.3.2.8.3,1.5.1.7.3,1.2.4,1.5.2.4.5.7.8.9s.8.2,1.3.2l22.1-1.8v-1.1c-.1-.4-.2-.9-.2-1.5-.1-.6-.2-1.2-.3-1.7-.1-.4-.4-.8-.9-1.3-.5-.4-1-.8-1.6-1.1s-1.2-.6-1.9-.9c-.7-.2-1.2-.4-1.7-.5v-1.4c-.1,0,7.3-.6,7.3-.6l1.9,23.9-7.6.6Z"/>
          <path class="cls-2" d="M254.6,166.9l1.2-12.3h1.4v1.6c0,.7,0,1.1.1,1.4.1.4.3.8.6,1,.3.2.7.4,1.2.4l19.8,2c.4,0,.8,0,1.1-.1.3-.1.6-.4.9-.9.2-.4.4-.8.6-1.4.2-.6.3-1,.4-1.4h1.4c0,.1-1.2,12.4-1.2,12.4h-1.4v-1.5c0-.6-.1-1.1-.2-1.5-.1-.5-.3-.9-.7-1.1-.3-.2-.7-.3-1.1-.4l-19.8-2c-.4,0-.8,0-1.2.2-.3.2-.6.4-.9.9-.1.3-.3.7-.5,1.3s-.3,1.1-.4,1.5h-1.3Z"/>
          <path class="cls-2" d="M271.4,197.9c-1.6.8-3.3,1.2-5.2,1.4-1.9.1-3.9-.1-6-.8-2.1-.6-3.9-1.6-5.4-2.8s-2.7-2.6-3.5-4.1-1.3-3.1-1.5-4.9c-.2-1.7,0-3.4.5-5.1.6-1.8,1.4-3.4,2.6-4.7,1.2-1.3,2.5-2.4,4.1-3.1,1.5-.7,3.3-1.2,5.2-1.3,1.9-.1,3.8.1,5.8.8,2.1.7,3.9,1.6,5.4,2.8s2.6,2.6,3.5,4.1c.8,1.5,1.4,3.2,1.5,4.9.2,1.7,0,3.4-.5,5.1-.5,1.7-1.4,3.3-2.5,4.6-1.2,1.3-2.5,2.3-4,3.1ZM253.6,189.3c.9,1,2,1.9,3.3,2.7s2.9,1.4,4.6,1.9c1.8.6,3.5.9,5.1,1s3.1,0,4.3-.3c1.3-.4,2.3-.9,3.3-1.8.9-.8,1.6-1.9,2-3.2.5-1.5.5-2.8.1-4.1-.4-1.2-1-2.4-1.9-3.4-.9-.9-2-1.8-3.4-2.6s-2.8-1.4-4.4-1.9c-1.8-.6-3.4-.9-5-1-1.5-.1-3,0-4.3.3s-2.4.9-3.3,1.7c-.9.8-1.6,1.9-2,3.3-.4,1.3-.5,2.6-.2,3.9.3,1.4.9,2.5,1.8,3.5Z"/>
          <path class="cls-2" d="M253.1,234c.2-.3.4-.8.6-1.6.2-.7.4-1.3.4-1.7,0-.6-.4-1.2-1.1-1.8-.7-.6-1.6-1.3-2.8-2.1l-17-10.8.9-1.4,27.9-2-12-7.6c-1.3-.8-2.4-1.4-3.3-1.7-.8-.3-1.5-.4-2-.2-.4.1-.9.5-1.7,1.1-.7.7-1.1,1.1-1.3,1.4l-1.2-.7,6.1-9.5,1.2.7c-.2.3-.4.9-.6,1.7-.3.8-.4,1.4-.3,1.6.1.6.4,1.1.9,1.7.5.5,1.6,1.3,3.1,2.3l11.4,7.3c.5.3,1.1.6,1.7.7.6.1,1.2.2,1.6,0,.6-.2,1.3-.5,1.9-1,.7-.5,1.2-1,1.5-1.4l1.2.7-4.2,6.6-26,1.8,11,7c1.3.9,2.4,1.4,3.3,1.7.8.3,1.5.3,1.9.2.4-.2.9-.5,1.6-1.1.6-.6,1.1-1,1.3-1.4l1.2.7-6,9.4-1.2-.6Z"/>
        </g>
        <path class="cls-2" d="M150,300C67.3,300,0,232.7,0,150S67.3,0,150,0s150,67.3,150,150-67.3,150-150,150ZM150,2.3C68.6,2.3,2.3,68.6,2.3,150s66.3,147.7,147.7,147.7,147.7-66.3,147.7-147.7S231.4,2.3,150,2.3Z"/>
        <g>
          <path class="cls-2" d="M86.6,231.9l1.3.8c1,1,.8,2.2-.4,3.6l4.4,3c.5.3.6.8.3,1.7l3.2-1.5.8.5c.4,1.8-2.1,3.6-7.8,5.4l2.6,1.6c-.9,2.2-2.4,2.5-4.6.8l-2.1-1.3-4.6.6,8,4.8c1,1.3,0,1.9-3.1,1.8l-5.9.9.4,3.3,4.6,2c.4,2-1.3,2.2-5.1.6l-.2.4c-.5,2-1.9,4.4-4.2,7.1-3.6,2-7.4,1-11.3-2.9l.5-4.4h.4l3.5,2.9c2.9,1.5,5,1.3,6.4-.7l1.8-3c-1.6-.7-6.1-1.7-13.4-3-.8-.4-1.1-.8-1-1.4l.7-1.4c0-1.4,2.9-1.1,8.5,1l6.1,1.9c.4-.2,0-2.1-1.4-5.5l.4-.7h.5c.6,0,1.3.6,2.1,1.9l3.9-.9v-.2c-3-2.9-7.3-4.5-12.7-4.9l-1.9-.6c-1.4-1.1-2-2.6-1.9-4.7l.5-.9c.2-.2,1.2.3,2.9,1.7,2.7,1.9,6.5,2.7,11.4,2.3l.4-.2-7.4-4.2-3.4-1.4-.6-1.1.6-1.1c.7-.6,1.4-.8,2.1-.7.6.7,3.6,2.5,9,5.3l2-4.1-6.5-2.9-.3-1.1.6-1.1,1.8-.6,5.7,3.2,1.6-2.3.8-.3ZM86.1,238.7l-2.6,3.9,1.5.9c1.8-.3,3.7-1,5.7-1.9v-.2l-4.6-2.7ZM102,257.3l1.2.7c1.1.5,0,2.5-3.1,5.8-1.1,1.5-3.1,3.5-6.1,6,1.2,4,3.2,7.5,6.2,10.4l1.7,1.8c-.8,2.2-3.4,2.2-8,.1-1-.4-2.2-3.8-3.5-10.4h0c-1.4.5-3.6,1.1-6.6,1.4-1,0-2-.2-3-.6-1.7-1.2-2.4-3.2-2.2-6l.7-1.2h.3c3.1,2.6,6.5,3.3,10.3,2.2l-.9-9.7.4-.8c.5-.4.9-.5,1.3-.3l1,.6c.3,0,.6,1.4.8,4.2l.8,4.7c2.2-.9,5-3.8,8.3-8.6l.5-.3ZM103.2,243.7l1.1.6c.8,1-.6,2.7-4.2,4.9l2.6,1.8,9.5,5.3c-.4,2.3-1.7,2.9-4,1.6,0-.3-2.7-2-8.3-5l-3.3-1.3-2.8,1.4c-1.8-.5-2.7-1.9-2.7-4.2l.5-.9c3.3.7,7.1-.7,11.6-4.2Z"/>
          <path class="cls-2" d="M151.7,250.9h1.6c1.5-.1,1.7,1.8.7,5.6h18.7c0-.1,5.1-.4,5.1-.4,1.2,1.7-.3,3.3-4.3,4.9l-12.3-1.2,4.2,6.2c.1,1.5-.5,2.1-2,2h-14.8c0-.2-2.2-.2-6.5.1-1.5.3-2.6.1-3.2-.8v-1.2c-.3-.4,1.3-1.7,4.8-3.7l2.9-3c-2.4-.2-7.8.3-16.2,1.3-1.1.5-2.3.4-3.5-.4l-.2-1.5,1.8-1.8c.1.2,3.9.1,11.5-.3l11-.2-.8-3.8v-.4c.3-.8.8-1.3,1.5-1.4ZM164.3,270.6h1.3c1.4-.1,1.4,2.1,0,6.4v8.5c.4,1.2.4,3.2-.1,5.9-2.9,1.4-4-.5-3.3-5.9-5.7-.3-12.3,0-19.8.8-2.4,3.6-5.9,5.5-10.5,5.7-2.1-.7-3.7-2-5-3.9v-1.1c0-.4.6-.5,1.8-.4,2.5.2,5.5-.3,9-1.4,3.6-1.2,4.7-5.7,3.2-13.5l.9-.9c.1.3,2.7.3,7.9,0h13.6c0,.1,1-.2,1-.2ZM162.4,279.4l-18.4.8-.4,2.6h18.6c0,.1.2-3.4.2-3.4ZM150.5,273.5l-6.2.7v2.5c-.1,0,18.3.1,18.3.1v-2.8l-.6-.5h-11.5ZM151.8,259.5c-1.3,1.4-3.6,3.2-6.7,5.2h0c2,1.1,7.1,1.1,15.3.1v-.6c.1,0-3.3-4.6-3.3-4.6h-5.3Z"/>
          <path class="cls-2" d="M206.1,251.3l1-.8c1.1-.8,2.2.7,3.1,4.4l.3.3,3.8-3.3c1.6.3,2,1.3,1,3l-7.3,5.7c-1.6,1-5,3.9-10,8.9-.5.3-1,.3-1.3,0l-.7-.8c-.3-.9-.2-1.6.4-2.2.6-.3,2.2-1.6,4.7-3.8.1-.3-.8-.8-2.8-1.5l-1.6-1c-.1-.6,0-1.1.3-1.4l1.2-.9c.6-1,2.1.1,4.6,3.1l.2.4,5.9-4.7-2.8-4.5v-.9ZM196.1,248.3l1.1-.9c1-.9,2.3.2,3.8,3.2l6.4-5.3c1.7,1.4,1.4,2.8-.7,4.1l-10.9,8.7-2.4,2.4h-1.1c0,.1-.7-.7-.7-.7-.2-.8-.2-1.5.2-2,1-.4,3.2-2.2,6.8-5.4l-2.8-2.2c-.3-.8-.2-1.5.3-1.9ZM202.9,267.7c.3-.4,1.3-1,3.1-1.7l7.8-6.1c.1-.5.5-1,1.3-1.4.9-.7,2.6,1,5.1,5.1l2.7,3.1c.7.7.7,1.5-.1,2.4-.3-.3-3.5,2.2-9.7,7.5l-1.8,1.5-.9-.2c.2-.2-1.4-2.2-4.8-5.9l-2.9-3.2.2-1.1ZM207.1,267.9c-.9.4-.5,1.4,1.2,3.2l2.7,3.2h1c0-.1,6.2-5.3,6.2-5.3l1.4-1c.6-.4-.4-2-2.9-4.7l-1.2-1.5c-.4-.5-2.6,1-6.5,4.4l-1.9,1.7ZM210,240.9l11.9-9.6c2.3-.7,2.8,1.5,1.7,6.5v3c0,.3.8.3,2.5,0,3.8-.1,6.3,1.3,7.5,4,1.2,3.9-.8,7.8-6,11.6l5.1,5.6c.5.8.7,1.6.6,2.5-.8,1.2-1.8,1.2-3,.2-1-1.4-6.1-7.5-15.5-18.4l-2.9-3.1c-.2.6-.8,1-1.8,1l-1-1c-.2-.6,0-1.3.9-2.3ZM214.1,241l11.6,13.1c2.3-1.6,3.9-3.6,4.7-6.1v-1.9c.1,0-.9-1.5-.9-1.5-1-1-2.8-1.2-5.4-.6-.4-.2-1.1.8-2.1,3.1-.5.5-.9.6-1.4.3l-.7-.8.4-10.4h-.3l-5.9,4.8Z"/>
        </g>
      </g>
    </g>
  </g>
</svg>