<?xml version="1.0" encoding="utf-8"?>
<!-- Generator: Adobe Illustrator 26.5.3, SVG Export Plug-In . SVG Version: 6.00 Build 0)  -->
<svg version="1.1" id="圖層_2_00000006702165232980332840000000588207270589225641_"
	 xmlns="http://www.w3.org/2000/svg" xmlns:xlink="http://www.w3.org/1999/xlink" x="0px" y="0px" viewBox="0 0 300 300"
	 style="enable-background:new 0 0 300 300;" xml:space="preserve">
<style type="text/css">
	.st0{fill:#00A2C7;}
	.st1{fill:#03B8DF;}
	.st2{fill:#FFFFFF;}
	.st3{fill:#AACF52;}
	.st4{fill:#91252A;}
	.st5{fill:none;}
</style>
<g>
	<g>
		<path class="st0" d="M244.3,150c0,52-42.2,94.3-94.3,94.3S55.7,202.1,55.7,150S97.9,55.7,150,55.7C202.1,55.7,244.3,98,244.3,150z
			"/>
	</g>
	<g>
		<path class="st1" d="M126.2,58.1L110,110.7H90.8L65.9,194c0,0,35.4,51.7,82.3,51.7s77.5-41.2,83.2-52.6l-26.8-82.3h-22l-13.4-54.5
			C169.2,56.1,142.4,53.3,126.2,58.1z"/>
	</g>
	<g>
		<path class="st2" d="M137.6,57.1l-12.4,54.6h-14.4L81.2,214c0,0,31.6,31.6,66,31.6c34.5,0,63.2-20.1,69.9-31.6l-31.6-99.5h-14.4
			l-13.4-56.4L137.6,57.1z"/>
	</g>
	<g>
		<g>
			<path class="st3" d="M85.7,217.1c17,16.8,40.4,27.2,66.3,27.2c24.2,0,46.3-9.2,63-24.2c-16.9-12.8-40.5-20.9-66.7-20.9
				C124.1,199.2,102.2,206,85.7,217.1z"/>
		</g>
		<g>
			<g>
				<path class="st3" d="M148.7,162c-5.2-8-16.5-20.7-36.5-20.7c0,0,8,35.9,34.9,39.8c0,0,0.7-0.4,1.6-1.2c0.9,0.8,1.6,1.2,1.6,1.2
					c26.9-4,34.9-39.8,34.9-39.8C165.2,141.3,153.8,154.1,148.7,162z"/>
			</g>
			<g>
				<rect x="144.4" y="172.9" class="st3" width="8.6" height="31.6"/>
			</g>
		</g>
	</g>
	<g>
		<path class="st2" d="M150,246.9c-53.4,0-96.8-43.4-96.8-96.8S96.6,53.3,150,53.3s96.8,43.4,96.8,96.8
			C246.8,203.4,203.4,246.9,150,246.9z M150,58.3c-50.6,0-91.7,41.1-91.7,91.7s41.1,91.7,91.7,91.7s91.7-41.1,91.7-91.7
			C241.7,99.5,200.6,58.3,150,58.3z"/>
	</g>
	<g>
		<g>
			<path d="M47.1,187.2l5.9,10.7l-1.2,0.7c-0.2-0.4-0.5-0.9-0.9-1.4c-0.4-0.6-0.7-0.9-1-1.1c-0.4-0.2-0.8-0.3-1.2-0.4
				c-0.4,0-0.8,0.1-1.2,0.3L30,205.7l0.1,0.2l25-3.1l0.5,0.9L39.1,223l0.1,0.2l14.4-7.9c1.4-0.8,2.4-1.4,3-2c0.6-0.6,1-1.1,1.1-1.7
				c0.1-0.4,0-1-0.2-1.9c-0.2-0.9-0.4-1.5-0.5-1.7l1.2-0.7l5.4,9.7l-1.2,0.7c-0.3-0.5-0.7-1-1.2-1.5c-0.4-0.5-0.9-0.8-1.3-1
				c-0.5-0.2-1.2-0.2-1.9,0s-1.9,0.8-3.4,1.6l-12.3,6.8c-0.7,0.4-1.2,0.8-1.6,1.2s-0.6,0.9-0.7,1.3c-0.1,0.5-0.1,1.1,0,1.7
				c0.1,0.6,0.3,1.1,0.6,1.7l-1.2,0.7l-4.5-8.2l14.2-16.8l-18.3,2.4c-0.7,0.1-1.4,0.2-2,0.4c-0.7,0.2-1.1,0.3-1.4,0.4l-4.3-7.8
				l1.2-0.7c0.2,0.3,0.5,0.7,0.8,1.1c0.4,0.4,0.6,0.7,0.8,0.9c0.3,0.3,0.7,0.4,1.1,0.4s0.8-0.2,1.1-0.4l17.3-9.6
				c0.4-0.2,0.7-0.5,0.9-0.8c0.2-0.3,0.3-0.7,0.3-1.2c0-0.3-0.1-0.7-0.3-1.3c-0.2-0.6-0.4-1-0.5-1.3L47.1,187.2z"/>
		</g>
		<g>
			<path d="M44.2,173.1l3.4,11.9l-1.3,0.4c-0.1-0.3-0.3-0.8-0.5-1.4c-0.2-0.6-0.4-1-0.6-1.3c-0.3-0.4-0.6-0.6-0.9-0.7
				c-0.3-0.1-0.7-0.1-1.2,0l-19.2,5.4c-0.4,0.1-0.8,0.3-1,0.5c-0.3,0.2-0.4,0.6-0.5,1.2c0,0.4,0,0.9,0,1.5s0.1,1.1,0.2,1.4l-1.3,0.4
				l-3.4-11.9l1.3-0.4c0.1,0.4,0.3,0.8,0.5,1.3c0.2,0.5,0.5,0.9,0.7,1.3c0.3,0.4,0.6,0.7,1,0.7c0.4,0.1,0.8,0,1.2-0.1l19.2-5.4
				c0.4-0.1,0.8-0.3,1-0.6c0.3-0.3,0.4-0.6,0.5-1.1c0-0.3,0-0.7,0-1.4c0-0.6-0.1-1.1-0.2-1.6L44.2,173.1z"/>
		</g>
		<g>
			<path d="M15,144.4c0,0.4,0.2,0.9,0.4,1.6c0.2,0.7,0.5,1.3,0.7,1.6c0.4,0.4,1,0.7,1.9,0.8c0.9,0.1,2.1,0.1,3.5,0l20.1-1.4l0.1,1.7
				l-21.3,18.2l14.1-1c1.6-0.1,2.8-0.3,3.6-0.6c0.8-0.3,1.4-0.6,1.7-1c0.3-0.3,0.5-0.9,0.7-1.9c0.2-1,0.3-1.6,0.3-1.9l1.4-0.1
				l0.8,11.3l-1.4,0.1c0-0.3-0.2-0.9-0.5-1.7s-0.5-1.3-0.7-1.5c-0.4-0.4-1-0.7-1.7-0.8c-0.7-0.1-2-0.1-3.8,0l-13.5,0.9
				c-0.6,0-1.2,0.2-1.8,0.4c-0.6,0.2-1,0.6-1.3,0.9c-0.4,0.5-0.7,1.1-1,2c-0.2,0.8-0.4,1.5-0.4,2l-1.4,0.1l-0.5-7.8l20-16.9l-13,0.9
				c-1.6,0.1-2.8,0.3-3.7,0.6c-0.8,0.3-1.4,0.6-1.6,1s-0.4,1-0.6,1.8c-0.2,0.8-0.3,1.5-0.3,1.9l-1.4,0.1l-0.8-11.1L15,144.4z"/>
		</g>
		<g>
			<path d="M43.6,129.6L42,141.9l-1.4-0.2c0-0.4,0-0.9,0.1-1.5c0-0.7,0-1.1,0-1.4c-0.1-0.4-0.3-0.8-0.6-1c-0.3-0.2-0.6-0.4-1.2-0.4
				l-19.7-2.6c-0.4-0.1-0.8,0-1.2,0.1c-0.3,0.1-0.6,0.4-0.9,0.9c-0.2,0.4-0.4,0.8-0.6,1.4c-0.2,0.6-0.4,1-0.4,1.4l-1.4-0.2l1.6-12.2
				l1.4,0.2c0,0.4,0,0.9,0,1.4c0,0.6,0.1,1.1,0.1,1.5c0.1,0.5,0.3,0.9,0.6,1.1c0.3,0.2,0.7,0.3,1.1,0.4l19.7,2.6
				c0.4,0.1,0.8,0,1.2-0.1c0.3-0.1,0.7-0.4,0.9-0.8c0.1-0.3,0.3-0.7,0.5-1.3c0.2-0.6,0.3-1.1,0.4-1.5L43.6,129.6z"/>
		</g>
		<g>
			<path d="M37,106.9c0.8-0.4,1.6-0.6,2.4-0.6s1.7,0.1,2.7,0.4c2.3,0.7,4,2.2,4.9,4.4c1,2.2,1.1,4.5,0.3,7.1
				c-0.4,1.2-0.9,2.3-1.7,3.3c-0.7,1.1-1.5,1.9-2.3,2.6l1.1,1.2l-0.5,1.5l-9.1-2.5l0.5-1.5c1.2,0,2.3,0,3.3-0.2c1-0.1,2-0.4,3-0.9
				c0.9-0.4,1.7-1,2.4-1.7c0.7-0.7,1.2-1.7,1.6-2.8c0.3-0.9,0.4-1.6,0.4-2.3s-0.2-1.3-0.5-1.8c-0.3-0.5-0.7-1-1.2-1.3
				c-0.5-0.4-1.1-0.7-1.8-0.9c-1-0.3-2.1-0.3-3.2,0c-1.1,0.3-2.1,1-2.9,2c-0.6,0.7-1.2,1.5-1.9,2.4c-0.7,0.9-1.4,1.7-1.9,2.3
				c-1.1,1.3-2.4,2.2-3.7,2.6c-1.3,0.5-2.9,0.5-4.6-0.1c-1-0.3-1.9-0.8-2.6-1.5s-1.3-1.5-1.8-2.5c-0.4-0.9-0.7-1.9-0.7-3
				c-0.1-1.1,0.1-2.2,0.4-3.2c0.4-1.2,0.9-2.2,1.6-3.1c0.7-0.8,1.4-1.6,2.1-2.2l-1-1.2l0.5-1.5l8.7,2.6L31,106c-1.1,0-2.1,0-3.1,0
				c-1,0.1-2,0.2-2.9,0.6c-0.9,0.3-1.7,0.8-2.3,1.4c-0.7,0.6-1.2,1.5-1.5,2.6c-0.4,1.2-0.3,2.3,0.2,3.3c0.5,1.1,1.3,1.8,2.4,2.1
				c1.1,0.4,2.1,0.4,3.1,0.1c0.9-0.3,1.8-0.9,2.6-1.7c0.7-0.8,1.4-1.5,1.9-2.3c0.6-0.8,1.2-1.5,1.8-2.2c0.6-0.6,1.1-1.2,1.8-1.8
				C35.6,107.6,36.3,107.2,37,106.9z"/>
		</g>
		<g>
			<path d="M43.8,77.5l-0.6,1.2c-0.5-0.1-1.1-0.2-1.8-0.3c-0.7,0-1.4,0-2.1,0s-1.4,0.2-2,0.3c-0.6,0.2-1,0.4-1.3,0.8
				c-0.2,0.3-0.5,0.7-0.8,1.3c-0.3,0.5-0.6,1-0.9,1.5l-0.6,1L53,94c0.4,0.2,0.8,0.3,1.2,0.3s0.8-0.1,1.2-0.4c0.2-0.2,0.5-0.5,1-1.1
				c0.5-0.6,0.9-1,1.1-1.4l1.2,0.7l-6.3,11.3l-1.2-0.7c0.2-0.3,0.4-0.8,0.7-1.5c0.3-0.7,0.5-1.2,0.5-1.5c0.1-0.4,0-0.8-0.2-1.2
				c-0.2-0.3-0.5-0.6-1-0.9L31.8,86.8l-0.6,1c-0.2,0.4-0.4,0.8-0.7,1.3c-0.3,0.5-0.5,1-0.7,1.5c-0.2,0.4-0.2,0.9,0,1.5
				c0.2,0.6,0.4,1.2,0.7,1.9c0.3,0.6,0.7,1.2,1.1,1.8c0.4,0.6,0.8,1,1.1,1.3L32,98.3l-6.5-3.6l11.7-20.9L43.8,77.5z"/>
		</g>
		<g>
			<path d="M80,66.8l-5,5.5c-3-0.5-5.6-0.9-7.9-1.2c-2.3-0.3-4.7-0.5-7.2-0.7L58,72.3l6.4,5.9c0.3,0.3,0.7,0.5,1,0.6
				c0.4,0.1,0.7,0.1,1.2-0.1c0.2-0.1,0.6-0.3,1-0.7c0.5-0.4,0.8-0.7,1.1-1l1,0.9l-7.8,8.5l-1-0.9c0.2-0.2,0.5-0.6,0.8-1.1
				s0.6-0.8,0.6-1.1c0.1-0.4,0.1-0.8,0-1.1c-0.1-0.3-0.4-0.7-0.7-1L47,67.8c-0.3-0.3-0.7-0.5-1-0.7c-0.3-0.1-0.7-0.1-1.2,0.1
				c-0.3,0.2-0.7,0.4-1.1,0.7c-0.4,0.3-0.8,0.6-1,0.8l-1-0.9l8.6-9.3c0.8-0.9,1.6-1.6,2.5-2.2c0.9-0.6,1.8-1,2.7-1.3
				c0.9-0.2,1.9-0.3,2.8,0c0.9,0.2,1.8,0.7,2.7,1.5c0.8,0.7,1.4,1.5,1.7,2.3c0.4,0.8,0.6,1.6,0.6,2.5c0,0.8-0.1,1.6-0.3,2.5
				c-0.3,0.9-0.6,1.8-1.1,2.7c2.2,0.2,4.1,0.4,5.6,0.6s3.4,0.4,5.5,0.6c1,0.1,1.7,0.1,2.3,0c0.6-0.1,1.1-0.2,1.6-0.4
				c0.4-0.1,0.7-0.3,1.1-0.7c0.4-0.3,0.7-0.6,1-0.8L80,66.8z M58,60.4c-1.2-1.1-2.5-1.7-3.9-1.6s-2.6,0.7-3.8,2l-2.2,2.4l8.7,8
				l1.7-1.9c1.2-1.3,1.8-2.8,1.8-4.4C60.2,63.2,59.5,61.7,58,60.4z"/>
		</g>
		<g>
			<path d="M84.9,32.5c-0.2,0.1-0.4,0.4-0.7,0.8c-0.3,0.4-0.5,0.7-0.6,1c-0.2,0.5-0.4,0.9-0.4,1.2c-0.1,0.2-0.1,0.8-0.1,1.7
				c0,1.7,0,3.5,0.1,5.1c0.1,1.7,0.3,3.8,0.5,6.4c0.1,1,0.2,1.7,0.3,2.2c0.2,0.5,0.5,1.1,1,1.9l3,4.3c0.3,0.4,0.6,0.7,0.9,0.8
				c0.3,0.2,0.8,0.2,1.3,0.1c0.3-0.1,0.8-0.2,1.4-0.5c0.7-0.3,1.2-0.5,1.5-0.7l0.8,1.1l-10.6,7.2L82.5,64c0.3-0.2,0.7-0.6,1.3-1
				c0.6-0.5,0.9-0.8,1.1-1.1c0.3-0.4,0.4-0.8,0.3-1.2c0-0.4-0.2-0.8-0.5-1.2L80.9,54c-0.1-0.2-0.4-0.4-1-0.7c-0.5-0.3-1.1-0.6-1.8-1
				c-1.5-0.8-3.1-1.7-4.9-2.6c-1.8-0.9-3.3-1.7-4.5-2.3c-0.8-0.4-1.4-0.6-1.9-0.7c-0.5-0.1-1-0.2-1.5-0.2c-0.4,0-0.8,0.1-1.2,0.3
				c-0.4,0.2-0.8,0.3-1.1,0.5l-0.8-1.1l9.7-6.6l0.8,1.1c-1.1,0.8-1.8,1.4-2.1,1.8c-0.4,0.4-0.5,0.8-0.3,1c0,0.1,0.1,0.2,0.3,0.3
				c0.2,0.1,0.4,0.3,0.7,0.4c0.3,0.2,0.7,0.4,1.1,0.6c0.4,0.2,0.9,0.4,1.2,0.7c1.1,0.6,2.3,1.2,3.5,1.8c1.2,0.6,2.7,1.4,4.6,2.3
				c-0.2-3.8-0.3-6.8-0.5-8.9c-0.1-2.1-0.3-3.3-0.5-3.6c-0.2-0.2-0.4-0.4-0.7-0.4c-0.3,0-0.6,0-1,0.1s-0.7,0.3-1.1,0.5
				s-0.7,0.4-1.1,0.6L76,36.8l7.9-5.4L84.9,32.5z"/>
		</g>
		<g>
			<path d="M122.8,21c1.5,0.9,2.8,2.1,4,3.7c1.1,1.5,2,3.4,2.6,5.5s0.8,4.1,0.6,6c-0.2,1.9-0.7,3.6-1.6,5.2
				c-0.8,1.5-1.9,2.8-3.3,3.9c-1.4,1.1-2.9,1.8-4.6,2.3c-1.8,0.5-3.6,0.6-5.4,0.4c-1.8-0.3-3.4-0.9-4.8-1.8
				c-1.5-0.9-2.7-2.1-3.9-3.7c-1.1-1.5-2-3.3-2.5-5.3c-0.6-2.2-0.8-4.2-0.6-6c0.2-1.9,0.7-3.6,1.6-5.2c0.8-1.5,1.9-2.9,3.3-3.9
				c1.4-1.1,2.9-1.8,4.6-2.3c1.8-0.5,3.5-0.6,5.2-0.4C119.7,19.6,121.3,20.1,122.8,21z M125.2,40.6c0.4-1.3,0.5-2.7,0.5-4.3
				c-0.1-1.5-0.4-3.2-0.9-4.9c-0.5-1.8-1.1-3.4-1.9-4.9c-0.8-1.4-1.7-2.6-2.6-3.5c-1-0.9-2.1-1.5-3.3-1.8c-1.2-0.3-2.5-0.3-3.8,0.1
				c-1.5,0.4-2.7,1.1-3.5,2.1c-0.9,1-1.5,2.1-1.8,3.5c-0.3,1.3-0.4,2.7-0.3,4.2c0.1,1.6,0.4,3.1,0.8,4.8c0.5,1.8,1.1,3.4,1.8,4.7
				c0.7,1.3,1.6,2.5,2.6,3.4c1,0.9,2.1,1.5,3.2,1.9c1.2,0.3,2.5,0.3,3.9-0.1c1.3-0.4,2.4-1,3.3-1.9C124.2,43,124.8,41.9,125.2,40.6z
				"/>
		</g>
		<g>
			<path d="M155.7,22.1h-1.5c-0.3-1-0.9-2.1-1.8-3.2s-1.7-1.7-2.5-1.8c-0.4,0-0.9-0.1-1.4-0.1c-0.6,0-1.2,0-1.9,0l-4.6,0.2l0.4,11
				l3.2-0.1c1,0,1.7-0.2,2.2-0.4c0.5-0.2,1-0.5,1.3-1c0.2-0.3,0.5-0.7,0.7-1.3c0.2-0.6,0.3-1.3,0.4-1.9h1.5l0.4,10.8l-1.5,0.1
				c-0.1-0.6-0.2-1.2-0.5-1.9c-0.3-0.7-0.5-1.2-0.8-1.5c-0.4-0.5-0.9-0.8-1.5-0.9c-0.6-0.1-1.3-0.2-2.1-0.2l-3.2,0.1l0.3,9.4
				c0,0.4,0.1,0.8,0.3,1.1c0.2,0.3,0.5,0.6,0.9,0.8c0.2,0.1,0.6,0.2,1.3,0.3s1.2,0.2,1.5,0.2v1.4l-11.9,0.4l-0.1-1.4
				c0.4,0,0.9-0.1,1.5-0.2c0.6-0.1,1.1-0.2,1.2-0.3c0.4-0.2,0.7-0.4,0.8-0.8c0.2-0.3,0.2-0.7,0.2-1.2l-0.7-19.8
				c0-0.4-0.1-0.8-0.3-1.1s-0.5-0.6-0.9-0.8c-0.3-0.2-0.8-0.3-1.4-0.4c-0.6-0.1-1.1-0.2-1.4-0.2V16l21.5-0.7L155.7,22.1z"/>
		</g>
		<g>
			<path d="M191.9,42.6l-2.7,7.6L167.3,44l0.4-1.3c0.4,0.1,0.9,0.2,1.5,0.3c0.6,0.1,1.1,0.1,1.3,0.1c0.4-0.1,0.8-0.2,1-0.5
				s0.4-0.6,0.6-1.1l5.4-19c0.1-0.4,0.2-0.8,0.1-1.1c0-0.4-0.3-0.7-0.6-1c-0.3-0.3-0.7-0.5-1.2-0.8c-0.5-0.3-0.9-0.5-1.3-0.6
				l0.4-1.3l20.4,5.8l-1.8,6.4l-1.4-0.4c0-1-0.2-2.2-0.7-3.5c-0.5-1.3-1.1-2.1-1.9-2.4c-0.4-0.2-0.8-0.3-1.3-0.5s-1.1-0.4-1.8-0.6
				l-4.1-1.2l-3,10.5l3,0.8c0.9,0.3,1.7,0.4,2.2,0.3c0.5-0.1,1-0.3,1.4-0.6c0.4-0.3,0.7-0.7,1.1-1.3c0.4-0.6,0.7-1.1,0.9-1.6
				l1.4,0.4l-3,10.4l-1.4-0.4c0.1-0.6,0.2-1.3,0.1-2c0-0.7-0.1-1.3-0.3-1.6c-0.2-0.6-0.6-1-1-1.3s-1.1-0.5-1.9-0.8l-3-0.8l-2.3,7.9
				c-0.2,0.8-0.3,1.4-0.4,1.9c0,0.5,0.1,0.9,0.4,1.2c0.3,0.3,0.6,0.6,1.2,0.8c0.5,0.2,1.3,0.5,2.4,0.8c0.4,0.1,0.9,0.3,1.6,0.5
				s1.2,0.3,1.7,0.4c0.5,0.1,1,0.1,1.5,0.1s0.9-0.1,1.2-0.2c0.7-0.4,1.6-1.2,2.6-2.2s1.6-1.8,2-2.3L191.9,42.6z"/>
		</g>
		<g>
			<path d="M220.7,52.3c-1.2,2-2.6,3.6-4.2,4.6s-3.3,1.7-5.1,1.9c-1.8,0.2-3.6,0.2-5.4-0.3c-1.8-0.4-3.5-1.1-5.1-2l-9.9-5.7l0.7-1.2
				c0.3,0.2,0.8,0.4,1.3,0.6c0.6,0.2,0.9,0.4,1.2,0.4c0.4,0.1,0.8,0,1.1-0.2c0.3-0.2,0.6-0.5,0.8-0.9l9.9-17.2
				c0.2-0.4,0.4-0.8,0.4-1.1c0-0.4-0.1-0.8-0.4-1.2c-0.2-0.4-0.6-0.7-0.9-1c-0.4-0.3-0.7-0.6-1-0.8l0.7-1.2l10.4,6
				c1.4,0.8,2.7,1.9,3.8,3.1c1.1,1.2,2,2.5,2.6,3.9c0.8,1.8,1.2,3.7,1,5.8C222.7,48,222,50.1,220.7,52.3z M216.6,49.9
				c0.9-1.6,1.5-3.2,1.9-4.7c0.3-1.5,0.4-3,0.1-4.5c-0.2-1.4-0.8-2.6-1.6-3.8s-1.9-2.2-3.3-3c-0.5-0.3-1-0.6-1.6-0.9
				c-0.6-0.3-1-0.5-1.3-0.7l-10.6,18.3c-0.6,1-0.7,1.9-0.3,2.6c0.4,0.7,1.2,1.5,2.4,2.2c1.4,0.8,2.8,1.3,4.2,1.4
				c1.3,0.1,2.6-0.1,3.8-0.6c1.2-0.5,2.4-1.3,3.4-2.4C214.7,52.9,215.7,51.5,216.6,49.9z"/>
		</g>
		<g>
			<path d="M253.5,66.5c-0.3-0.2-0.7-0.6-1.3-1s-1.2-0.7-1.7-0.8c-0.5-0.1-1.2,0.1-2,0.6s-1.6,1.3-2.6,2.2l-8.5,8.4
				c-1.1,1.1-2.2,1.8-3.5,2.1c-1.2,0.3-2.5,0.4-3.7,0.2c-1.2-0.2-2.3-0.6-3.3-1.2s-1.9-1.2-2.6-2c-1.2-1.2-2-2.4-2.7-3.6
				c-0.6-1.2-1-2.4-1-3.5c-0.1-1.1,0.1-2.2,0.4-3.2c0.4-1,0.9-1.8,1.6-2.6l11.5-11.5c0.3-0.3,0.5-0.6,0.6-1c0.1-0.3,0.1-0.7,0-1.2
				c-0.1-0.4-0.3-0.8-0.6-1.2s-0.5-0.8-0.7-1l1-1l8,8.1l-1,1c-0.3-0.2-0.6-0.5-1.1-0.8s-0.8-0.5-1-0.6c-0.4-0.2-0.8-0.2-1.2-0.1
				c-0.4,0.2-0.7,0.4-1,0.7l-10.8,10.7c-0.5,0.5-1,1.1-1.5,1.8c-0.5,0.7-0.8,1.4-0.9,2.3c-0.1,0.9-0.1,1.8,0.2,2.7s1,1.9,2,3
				c1,1,2,1.7,3,2.1c1,0.4,2,0.5,2.9,0.4s1.7-0.4,2.3-0.7c0.7-0.4,1.3-0.8,1.9-1.4l8-8c1-1,1.8-1.9,2.3-2.7s0.7-1.4,0.6-1.9
				c-0.1-0.5-0.3-1.2-0.8-1.8c-0.4-0.7-0.8-1.2-1-1.5l1-1l7.9,7.9L253.5,66.5z"/>
		</g>
		<g>
			<path d="M240.8,96.6c-0.8-1.4-1.4-2.9-1.6-4.5c-0.2-1.6-0.1-3.2,0.3-4.9c0.5-1.6,1.3-3.1,2.4-4.6c1.2-1.5,2.7-2.8,4.6-3.9
				c1.9-1.1,3.8-1.9,5.6-2.2c1.9-0.3,3.7-0.3,5.4,0c1.7,0.3,3.3,1,4.7,2c1.4,1,2.6,2.3,3.5,3.9c0.7,1.2,1.2,2.3,1.5,3.4
				c0.3,1.1,0.4,2.2,0.4,3.4h1.5l0.8,1.3l-8.3,5.2l-0.8-1.4c0.7-0.7,1.4-1.5,2.2-2.4c0.7-0.9,1.3-1.8,1.7-2.7c0.4-1,0.7-2,0.6-2.9
				c0-1-0.3-1.9-0.9-2.9c-0.6-1.1-1.5-1.9-2.5-2.6c-1-0.6-2.2-1-3.5-1.1s-2.7,0.1-4.3,0.5c-1.6,0.5-3.3,1.2-5,2.2
				c-1.5,0.9-2.8,1.9-3.8,3.1c-1,1.1-1.8,2.3-2.3,3.6c-0.5,1.3-0.8,2.5-0.7,3.8c0,1.3,0.4,2.5,1.1,3.7c0.5,0.9,1.2,1.6,1.9,2.2
				s1.5,1,2.3,1.3s1.7,0.4,2.5,0.5c0.9,0,1.8,0,2.6-0.2l0.2,1.6c-2.9,0.4-5.3,0.2-7.3-0.8C243.7,100.3,242.1,98.8,240.8,96.6z"/>
		</g>
		<g>
			<path d="M255.1,131.2l-3.5-10.9l1.3-0.4c0.4,0.9,0.7,1.7,1.1,2.3c0.4,0.6,0.7,0.8,1,0.7c0.1,0,0.2-0.1,0.4-0.2
				c0.1-0.1,0.3-0.2,0.4-0.3l5.2-4l-2.9-9.2c-1-0.1-1.8-0.1-2.5-0.1c-0.7,0-1.4,0-2,0c-0.6,0-1,0-1.4,0.1c-0.4,0-0.6,0.1-0.8,0.2
				c-0.5,0.2-0.7,0.7-0.8,1.5c0,0.9,0.1,1.8,0.4,2.8l-1.3,0.4l-3.1-9.8l1.3-0.4c0.1,0.3,0.3,0.7,0.6,1.1c0.3,0.4,0.6,0.8,0.8,1
				c0.5,0.4,1,0.7,1.4,0.8c0.4,0.2,1,0.3,1.8,0.3c3.7,0.3,7.9,0.6,12.5,0.8c4.6,0.3,8.7,0.5,12.3,0.8l0.5,1.5L257.9,126
				c-0.4,0.3-0.7,0.7-1,1c-0.2,0.3-0.4,0.7-0.6,1.3c-0.1,0.3-0.1,0.8-0.1,1.2c0,0.5,0.1,0.9,0.2,1.2L255.1,131.2z M262.5,117.2
				l9-7.2l-11.5-0.7L262.5,117.2z"/>
		</g>
		<g>
			<path d="M276.4,151.6l-0.1-1.3c0.4-0.2,1-0.4,1.6-0.8c0.6-0.4,1.2-0.7,1.7-1.2c0.6-0.4,1-0.9,1.5-1.4c0.4-0.5,0.6-1,0.7-1.4
				c0-0.4,0-0.9,0-1.5s-0.1-1.2-0.1-1.7l-0.1-1.1l-21.9,1.8c-0.4,0-0.8,0.2-1.1,0.4c-0.3,0.2-0.6,0.6-0.7,1
				c-0.1,0.2-0.2,0.7-0.3,1.5c-0.1,0.8-0.1,1.3-0.1,1.8l-1.4,0.1l-1-12.9l1.4-0.1c0.1,0.4,0.2,0.9,0.3,1.6c0.1,0.7,0.3,1.2,0.4,1.5
				c0.2,0.4,0.5,0.7,0.8,0.9s0.8,0.2,1.3,0.2l22.1-1.8l-0.1-1.1c0-0.4-0.1-0.9-0.1-1.5c-0.1-0.6-0.2-1.2-0.3-1.7
				c-0.1-0.4-0.4-0.8-0.9-1.3c-0.5-0.4-1-0.8-1.6-1.1s-1.2-0.6-1.9-0.9c-0.7-0.2-1.2-0.4-1.7-0.5l-0.1-1.4l7.4-0.6L284,151
				L276.4,151.6z"/>
		</g>
		<g>
			<path d="M254.6,166.9l1.2-12.3l1.4,0.1c0,0.4,0,0.9,0,1.5c0,0.7,0,1.1,0.1,1.4c0.1,0.4,0.3,0.8,0.6,1c0.3,0.2,0.7,0.4,1.2,0.4
				l19.8,2c0.4,0,0.8,0,1.1-0.1c0.3-0.1,0.6-0.4,0.9-0.9c0.2-0.4,0.4-0.8,0.6-1.4c0.2-0.6,0.3-1,0.4-1.4l1.4,0.1l-1.2,12.3l-1.4-0.1
				c0-0.4,0-0.9,0-1.4c0-0.6-0.1-1.1-0.2-1.5c-0.1-0.5-0.3-0.9-0.7-1.1c-0.3-0.2-0.7-0.3-1.1-0.4l-19.8-2c-0.4,0-0.8,0-1.2,0.2
				c-0.3,0.2-0.6,0.4-0.9,0.9c-0.1,0.3-0.3,0.7-0.5,1.3s-0.3,1.1-0.4,1.5L254.6,166.9z"/>
		</g>
		<g>
			<path d="M271.4,197.9c-1.6,0.8-3.3,1.2-5.2,1.4c-1.9,0.1-3.9-0.1-6-0.8c-2.1-0.6-3.9-1.6-5.4-2.8c-1.5-1.2-2.7-2.6-3.5-4.1
				c-0.8-1.5-1.3-3.1-1.5-4.9c-0.2-1.7,0-3.4,0.5-5.1c0.6-1.8,1.4-3.4,2.6-4.7c1.2-1.3,2.5-2.4,4.1-3.1c1.5-0.7,3.3-1.2,5.2-1.3
				s3.8,0.1,5.8,0.8c2.1,0.7,3.9,1.6,5.4,2.8c1.5,1.2,2.6,2.6,3.5,4.1c0.8,1.5,1.4,3.2,1.5,4.9c0.2,1.7,0,3.4-0.5,5.1
				c-0.5,1.7-1.4,3.3-2.5,4.6C274.2,196.1,272.9,197.1,271.4,197.9z M253.6,189.3c0.9,1,2,1.9,3.3,2.7c1.3,0.8,2.9,1.4,4.6,1.9
				c1.8,0.6,3.5,0.9,5.1,1s3.1,0,4.3-0.3c1.3-0.4,2.3-0.9,3.3-1.8c0.9-0.8,1.6-1.9,2-3.2c0.5-1.5,0.5-2.8,0.1-4.1
				c-0.4-1.2-1-2.4-1.9-3.4c-0.9-0.9-2-1.8-3.4-2.6c-1.4-0.8-2.8-1.4-4.4-1.9c-1.8-0.6-3.4-0.9-5-1c-1.5-0.1-3,0-4.3,0.3
				c-1.3,0.3-2.4,0.9-3.3,1.7s-1.6,1.9-2,3.3c-0.4,1.3-0.5,2.6-0.2,3.9C252.1,187.2,252.7,188.3,253.6,189.3z"/>
		</g>
		<g>
			<path d="M253.1,234c0.2-0.3,0.4-0.8,0.6-1.6c0.2-0.7,0.4-1.3,0.4-1.7c0-0.6-0.4-1.2-1.1-1.8c-0.7-0.6-1.6-1.3-2.8-2.1l-17-10.8
				l0.9-1.4l27.9-2l-12-7.6c-1.3-0.8-2.4-1.4-3.3-1.7c-0.8-0.3-1.5-0.4-2-0.2c-0.4,0.1-0.9,0.5-1.7,1.1c-0.7,0.7-1.1,1.1-1.3,1.4
				l-1.2-0.7l6.1-9.5l1.2,0.7c-0.2,0.3-0.4,0.9-0.6,1.7c-0.3,0.8-0.4,1.4-0.3,1.6c0.1,0.6,0.4,1.1,0.9,1.7c0.5,0.5,1.6,1.3,3.1,2.3
				l11.4,7.3c0.5,0.3,1.1,0.6,1.7,0.7c0.6,0.1,1.2,0.2,1.6,0c0.6-0.2,1.3-0.5,1.9-1c0.7-0.5,1.2-1,1.5-1.4l1.2,0.7l-4.2,6.6l-26,1.8
				l11,7c1.3,0.9,2.4,1.4,3.3,1.7c0.8,0.3,1.5,0.3,1.9,0.2c0.4-0.2,0.9-0.5,1.6-1.1c0.6-0.6,1.1-1,1.3-1.4l1.2,0.7l-6,9.4L253.1,234
				z"/>
		</g>
	</g>
	<g>
		<path d="M150,300C67.3,300,0,232.7,0,150S67.3,0,150,0s150,67.3,150,150S232.7,300,150,300z M150,2.3C68.6,2.3,2.3,68.6,2.3,150
			S68.6,297.7,150,297.7S297.7,231.4,297.7,150S231.4,2.3,150,2.3z"/>
	</g>
	<g>
		<g>
			<path d="M86.6,231.9l1.3,0.8c1,1,0.8,2.2-0.4,3.6l4.4,3c0.5,0.3,0.6,0.8,0.3,1.7l3.2-1.5l0.8,0.5c0.4,1.8-2.1,3.6-7.8,5.4L91,247
				c-0.9,2.2-2.4,2.5-4.6,0.8l-2.1-1.3l-4.6,0.6l8,4.8c1,1.3,0,1.9-3.1,1.8l-5.9,0.9l0.4,3.3l4.6,2c0.4,2-1.3,2.2-5.1,0.6l-0.2,0.4
				c-0.5,2-1.9,4.4-4.2,7.1c-3.6,2-7.4,1-11.3-2.9l0.5-4.4h0.4l3.5,2.9c2.9,1.5,5,1.3,6.4-0.7l1.8-3c-1.6-0.7-6.1-1.7-13.4-3
				c-0.8-0.4-1.1-0.8-1-1.4l0.7-1.4c0.1-1.4,2.9-1.1,8.5,1l6.1,1.9c0.4-0.2,0-2.1-1.4-5.5l0.4-0.7l0.5-0.1c0.6,0.1,1.3,0.7,2.1,2
				l3.9-0.9l0.1-0.2c-3.1-2.9-7.4-4.5-12.8-4.9l-1.9-0.6c-1.4-1.1-2-2.6-1.9-4.7l0.5-0.9c0.2-0.2,1.2,0.3,2.9,1.7
				c2.7,1.9,6.5,2.7,11.4,2.3l0.4-0.2l-7.4-4.2l-3.4-1.4l-0.6-1.1l0.6-1.1c0.7-0.6,1.4-0.8,2.1-0.7c0.6,0.7,3.6,2.5,9,5.3l2-4.1
				l-6.5-2.9l-0.3-1.1l0.6-1.1l1.8-0.6l5.7,3.2l1.6-2.3L86.6,231.9z M86.1,238.7l-2.6,3.9l1.5,0.9c1.8-0.3,3.7-1,5.7-1.9v-0.2
				L86.1,238.7z M102,257.3l1.2,0.7c1.1,0.5,0,2.5-3.1,5.8c-1.1,1.5-3.1,3.5-6.1,6c1.2,4,3.2,7.5,6.2,10.4l1.7,1.8
				c-0.8,2.2-3.4,2.2-8,0.1c-1-0.4-2.2-3.8-3.5-10.4l-0.1-0.1c-1.4,0.6-3.6,1.2-6.6,1.5c-1,0-2-0.2-3-0.6c-1.7-1.2-2.4-3.2-2.2-6
				l0.7-1.2h0.3c3.1,2.6,6.5,3.3,10.3,2.2l-0.9-9.7l0.4-0.8c0.5-0.4,0.9-0.5,1.3-0.3l1,0.6c0.3,0,0.6,1.4,0.8,4.2l0.8,4.7
				c2.2-0.9,5-3.8,8.3-8.6L102,257.3z M103.2,243.7l1.1,0.6c0.8,1-0.6,2.7-4.2,4.9l2.6,1.8l9.5,5.3c-0.4,2.3-1.7,2.9-4,1.6
				c0.1-0.3-2.7-2-8.3-5l-3.3-1.3l-2.8,1.4c-1.8-0.5-2.7-1.9-2.7-4.2l0.5-0.9C94.9,248.6,98.7,247.2,103.2,243.7z"/>
		</g>
		<g>
			<path d="M151.7,250.9h1.6c1.5-0.1,1.7,1.8,0.7,5.6l18.7-0.1l5.1-0.3c1.2,1.7-0.3,3.3-4.3,4.9l-12.3-1.2l4.2,6.2
				c0.1,1.5-0.5,2.1-2,2l-14.8,0.1c0-0.3-2.2-0.3-6.5,0c-1.5,0.3-2.6,0.1-3.2-0.8v-1.2c-0.3-0.4,1.3-1.7,4.8-3.7l2.9-3
				c-2.4-0.2-7.8,0.3-16.2,1.3c-1.1,0.5-2.3,0.4-3.5-0.4l-0.2-1.5l1.8-1.8c0.1,0.2,3.9,0.1,11.5-0.3l11-0.2l-0.8-3.8v-0.4
				C150.5,251.5,151,251,151.7,250.9z M164.3,270.6h1.3c1.4-0.1,1.4,2.1,0,6.4l-0.1,8.5c0.5,1.2,0.5,3.2,0,5.9
				c-2.9,1.4-4-0.5-3.3-5.9c-5.7-0.3-12.3,0-19.8,0.8c-2.4,3.6-5.9,5.5-10.5,5.7c-2.1-0.7-3.7-2-5-3.9V287c0-0.4,0.6-0.5,1.8-0.4
				c2.5,0.2,5.5-0.3,9-1.4c3.6-1.2,4.7-5.7,3.2-13.5l0.9-0.9c0.1,0.3,2.7,0.3,7.9,0l13.6,0.1L164.3,270.6z M162.4,279.4l-18.4,0.8
				l-0.4,2.6l18.6,0.1L162.4,279.4z M150.5,273.5l-6.2,0.7l-0.1,2.5l18.4,0.1V274l-0.6-0.5H150.5z M151.8,259.5
				c-1.3,1.4-3.6,3.2-6.7,5.2v0.1c2,1,7.1,1,15.3,0l0.1-0.6l-3.4-4.6L151.8,259.5z"/>
		</g>
		<g>
			<path d="M206.1,251.3l1-0.8c1.1-0.8,2.2,0.7,3.1,4.4l0.3,0.3l3.8-3.3c1.6,0.3,2,1.3,1,3l-7.3,5.7c-1.6,1-5,3.9-10,8.9
				c-0.5,0.3-1,0.3-1.3,0l-0.7-0.8c-0.3-0.9-0.2-1.6,0.4-2.2c0.6-0.3,2.2-1.6,4.7-3.8c0.1-0.3-0.8-0.8-2.8-1.5l-1.6-1
				c-0.1-0.6,0-1.1,0.3-1.4l1.2-0.9c0.6-1,2.1,0.1,4.6,3.1l0.2,0.4l5.9-4.7l-2.8-4.5L206.1,251.3z M196.1,248.3l1.1-0.9
				c1-0.9,2.3,0.2,3.8,3.2l6.4-5.3c1.7,1.4,1.4,2.8-0.7,4.1l-10.9,8.7l-2.4,2.4l-1.1,0.1l-0.7-0.8c-0.2-0.8-0.2-1.5,0.2-2
				c1-0.4,3.2-2.2,6.8-5.4l-2.8-2.2C195.5,249.4,195.6,248.7,196.1,248.3z M202.9,267.7c0.3-0.4,1.3-1,3.1-1.7l7.8-6.1
				c0.1-0.5,0.5-1,1.3-1.4c0.9-0.7,2.6,1,5.1,5.1l2.7,3.1c0.7,0.7,0.7,1.5-0.1,2.4c-0.3-0.3-3.5,2.2-9.7,7.5l-1.8,1.5l-0.9-0.2
				c0.2-0.2-1.4-2.2-4.8-5.9l-2.9-3.2L202.9,267.7z M207.1,267.9c-0.9,0.4-0.5,1.4,1.2,3.2l2.7,3.2l1-0.1l6.2-5.2l1.4-1
				c0.6-0.4-0.4-2-2.9-4.7l-1.2-1.5c-0.4-0.5-2.6,1-6.5,4.4L207.1,267.9z M210,240.9l11.9-9.6c2.3-0.7,2.8,1.5,1.7,6.5l-0.1,3
				c0.1,0.3,0.9,0.3,2.6,0c3.8-0.1,6.3,1.3,7.5,4c1.2,3.9-0.8,7.8-6,11.6l5.1,5.6c0.5,0.8,0.7,1.6,0.6,2.5c-0.8,1.2-1.8,1.2-3,0.2
				c-1-1.4-6.1-7.5-15.5-18.4l-2.9-3.1c-0.2,0.6-0.8,1-1.8,1l-1-1C208.9,242.6,209.2,241.9,210,240.9z M214.1,241l11.6,13.1
				c2.3-1.6,3.9-3.6,4.7-6.1l0.1-1.9l-1-1.5c-1-1-2.8-1.2-5.4-0.6c-0.4-0.2-1.1,0.8-2.1,3.1c-0.5,0.5-0.9,0.6-1.4,0.3l-0.7-0.8
				l0.4-10.4H220L214.1,241z"/>
		</g>
	</g>
</g>
<g>
	<g id="XMLID_143_">
		<path class="st4" d="M300,149.5c0.3,82.8-66.6,150.2-149.5,150.5C67.7,300.3,0.3,233.4,0,150.5C-0.3,67.7,66.6,0.3,149.5,0
			C232.3-0.3,299.7,66.6,300,149.5z"/>
	</g>
	<g>
		<g id="XMLID_113_">
			<path id="XMLID_134_" class="st2" d="M100.7,40l1.1,0.9c9,7.3,12.1,10.9,16,25.3l7.1,21.7c0.1,0.3,0.2,0.6,0.3,0.9
				c0,0.1,0,0.1,0.1,0.2c1.1,2.7,3.6,4.7,6.7,4.8c0.1,0,0.2,0,0.3,0h17.8h17.8c0.1,0,0.2,0,0.3,0c3.1-0.1,5.6-2.1,6.7-4.8
				c0-0.1,0-0.1,0.1-0.2c0.1-0.3,0.2-0.6,0.3-0.9l7.1-21.7c4-14.3,7-18,16-25.3l1.1-0.9c2-1.3,3.3-3.6,3.3-6.2c0-2.7-1.4-5-3.5-6.3
				c-0.3-0.2-0.6-0.4-0.9-0.5l0,0h-0.1c-0.3-0.1-0.5-0.2-0.8-0.3c-11.9-4.5-23.9-7.2-35.8-8.3c-1.8-3.9-6.3-6.6-11.5-6.6
				c-5.3,0-9.8,2.8-11.5,6.6c-11.9,1-23.9,3.7-35.8,8.3c-0.3,0.1-0.5,0.2-0.8,0.3H102l0,0c-0.3,0.1-0.6,0.3-0.9,0.5
				c-2.1,1.3-3.5,3.7-3.5,6.3C97.3,36.4,98.6,38.7,100.7,40z M108.4,33.7c13.1-4.6,26.5-7,40.5-7.2h1.1l0,0l0,0l0,0l0,0l0,0l0,0h1.1
				c14,0.2,27.3,2.6,40.5,7.2c0,0,0.7,0.2,0.7,0.9c0,0.4-0.2,0.7-0.5,0.8l0,0C178.3,43.7,174,64,174,64l-6,19.7v0.1
				c-0.4,1.2-1.5,2.1-2.8,2.1l0,0h-15l0,0l0,0h-15l0,0c-1.3,0-2.4-0.9-2.8-2.1v-0.1L126,64c0,0-4.3-20.3-17.7-28.7l0,0
				c-0.3-0.1-0.5-0.4-0.5-0.8C107.8,33.9,108.4,33.7,108.4,33.7z"/>
			<path id="XMLID_131_" class="st2" d="M19.3,131.3c0.1,2.5,1.4,4.9,3.7,6.2s4.9,1.3,7.1,0.2l1.4-0.5c10.8-4.1,15.5-5,29.9-1.2
				l22.3,4.7c0.3,0.1,0.6,0.2,0.9,0.2c0.1,0,0.1,0,0.2,0c2.9,0.4,5.8-0.8,7.5-3.4c0.1-0.1,0.1-0.1,0.2-0.2l8.9-15.4l8.9-15.4
				c0-0.1,0.1-0.2,0.1-0.2c1.4-2.7,1-5.9-0.8-8.2c0-0.1-0.1-0.1-0.1-0.2c-0.2-0.2-0.4-0.5-0.6-0.7l-15.2-17
				c-10.6-10.6-12.2-15-14-26.5l-0.2-1.4c-0.2-2.4-1.5-4.7-3.7-6c-2.3-1.3-5.1-1.3-7.3-0.1c-0.3,0.1-0.6,0.3-0.9,0.5l0,0l-0.1,0.1
				c-0.2,0.2-0.4,0.4-0.7,0.5c-9.8,8-18.2,17.1-25.1,26.9c-4.2-0.4-8.9,2.1-11.5,6.7s-2.5,9.9,0,13.3c-5.1,10.8-8.7,22.6-10.7,35.1
				c-0.1,0.3-0.1,0.6-0.1,0.8v0.1l0,0C19.3,130.6,19.3,130.9,19.3,131.3z M28.5,127.8c2.6-13.7,7.2-26.4,14-38.6l0.5-0.9l0,0l0,0
				l0,0l0,0l0,0l0,0l0.5-0.9c7.1-12,15.9-22.4,26.4-31.5c0,0,0.5-0.5,1.1-0.2c0.3,0.2,0.5,0.5,0.4,0.9l0,0c0.6,15.8,16,29.7,16,29.7
				l14,15.1l0.1,0.1c0.8,0.9,1,2.3,0.4,3.5l0,0l-7.5,13l0,0l0,0l-7.5,13l0,0c-0.7,1.2-2,1.7-3.2,1.4h-0.1l-20.1-4.6
				c0,0-19.7-6.4-33.7,1l0,0c-0.3,0.2-0.7,0.2-1,0.1C28.3,128.5,28.5,127.8,28.5,127.8z"/>
			<path id="XMLID_7_" class="st2" d="M109.4,202.1c0,0,0.1-0.1,0.1-0.2c1.8-2.3,2.2-5.5,0.8-8.2c0-0.1-0.1-0.2-0.1-0.2l-8.9-15.4
				l-8.9-15.4c0-0.1-0.1-0.1-0.2-0.2c-1.6-2.6-4.6-3.8-7.5-3.4c-0.1,0-0.1,0-0.2,0c-0.3,0.1-0.6,0.1-0.9,0.2L61.4,164
				c-14.4,3.7-19.1,2.9-29.9-1.2l-1.4-0.5c-2.2-1.1-4.8-1.1-7.1,0.2s-3.6,3.7-3.7,6.2c0,0.3,0,0.7,0,1l0,0v0.1
				c0,0.3,0.1,0.6,0.1,0.8c2,12.5,5.7,24.3,10.7,35.2c-2.5,3.4-2.6,8.7,0,13.3s7.3,7.1,11.5,6.7c6.9,9.8,15.2,18.9,25.1,26.8
				c0.2,0.2,0.4,0.4,0.7,0.5c0,0,0.1,0,0.1,0.1l0,0c0.3,0.2,0.6,0.4,0.9,0.5c2.2,1.2,4.9,1.2,7.3-0.1c2.2-1.3,3.6-3.6,3.7-6l0.2-1.4
				c1.8-11.5,3.4-15.9,13.9-26.5l15.2-17C109,202.5,109.2,202.3,109.4,202.1z M101.6,198.6L101.6,198.6l-14.1,15.2
				c0,0-15.4,13.9-16,29.7l0,0c0,0.3-0.1,0.7-0.4,0.9c-0.6,0.3-1.1-0.2-1.1-0.2c-10.5-9.1-19.3-19.4-26.4-31.5l-0.5-0.9l0,0l0,0l0,0
				l0,0l0,0l0,0l-0.5-0.9c-6.9-12.2-11.4-25-14-38.6c0,0-0.2-0.7,0.4-1c0.3-0.2,0.7-0.2,1,0l0,0c14,7.4,33.7,1,33.7,1l20.1-4.6h0.1
				c1.2-0.3,2.5,0.3,3.2,1.4l0,0l7.5,13l0,0l0,0l7.5,13l0,0C102.7,196.3,102.5,197.7,101.6,198.6z"/>
			<path id="XMLID_125_" class="st2" d="M199.4,260l-1.1-0.9c-9-7.3-12.1-10.9-16-25.3l-7.1-21.7c-0.1-0.3-0.2-0.6-0.3-0.9
				c0-0.1,0-0.1-0.1-0.2c-1.1-2.7-3.6-4.6-6.7-4.8c-0.1,0-0.2,0-0.3,0H150h-17.8c-0.1,0-0.2,0-0.3,0c-3,0.1-5.6,2.1-6.7,4.8
				c0,0.1,0,0.1-0.1,0.2c-0.1,0.3-0.2,0.6-0.3,0.9l-7.1,21.7c-4,14.3-7,18-16,25.3l-1.1,0.9c-2,1.3-3.3,3.6-3.3,6.2
				c0,2.7,1.4,5,3.5,6.4c0.3,0.2,0.6,0.4,0.9,0.5l0,0h0.1c0.3,0.1,0.5,0.2,0.8,0.3c11.9,4.5,23.9,7.2,35.8,8.3
				c1.8,3.9,6.3,6.6,11.5,6.6c5.3,0,9.8-2.8,11.5-6.6c11.9-1,23.9-3.7,35.8-8.3c0.3-0.1,0.5-0.2,0.8-0.3h0.1l0,0
				c0.3-0.1,0.6-0.3,0.9-0.5c2.1-1.3,3.5-3.7,3.5-6.4C202.7,263.6,201.4,261.3,199.4,260z M191.6,266.3c-13.1,4.6-26.5,7-40.5,7.2
				H150l0,0l0,0l0,0l0,0l0,0l0,0h-1.1c-14-0.2-27.3-2.6-40.5-7.1c0,0-0.7-0.2-0.7-0.9c0-0.4,0.2-0.7,0.5-0.8l0,0
				C121.7,256.3,126,236,126,236l6-19.7v-0.1c0.4-1.2,1.5-2.1,2.8-2.1l0,0h15.1l0,0l0,0h15l0,0c1.3,0,2.4,0.9,2.8,2.1v0.1l6,19.7
				c0,0,4.3,20.3,17.7,28.7l0,0c0.3,0.1,0.5,0.4,0.5,0.8C192.2,266.1,191.6,266.3,191.6,266.3z"/>
			<path id="XMLID_118_" class="st2" d="M280.7,168.7c-0.1-2.5-1.4-4.9-3.7-6.2c-2.2-1.3-4.9-1.3-7.1-0.2l-1.4,0.5
				c-10.8,4.1-15.5,5-29.9,1.2l-22.3-4.7c-0.3-0.1-0.6-0.2-0.9-0.2c-0.1,0-0.1,0-0.2,0c-2.9-0.4-5.8,0.8-7.5,3.4
				c-0.1,0.1-0.1,0.1-0.2,0.2l-8.9,15.4l-8.9,15.4c0,0.1-0.1,0.2-0.1,0.2c-1.4,2.7-1,5.9,0.8,8.2c0,0.1,0.1,0.1,0.1,0.2
				c0.2,0.2,0.4,0.5,0.6,0.7l15.2,17c10.4,10.6,12.1,15.1,13.9,26.5l0.2,1.4c0.2,2.4,1.5,4.7,3.7,6c2.3,1.3,5.1,1.3,7.3,0.1
				c0.3-0.1,0.6-0.3,0.9-0.5l0,0l0.1-0.1c0.2-0.2,0.4-0.3,0.7-0.5c9.9-8,18.2-17.1,25.1-26.9c4.2,0.4,8.9-2.1,11.5-6.7
				c2.6-4.6,2.5-9.9,0-13.3c5.1-10.8,8.7-22.6,10.7-35.1c0.1-0.3,0.1-0.6,0.1-0.8v-0.1l0,0C280.8,169.4,280.8,169.1,280.7,168.7z
				 M271.5,172.2c-2.6,13.7-7.2,26.4-14,38.6l-0.5,0.9l0,0l0,0l0,0l0,0l0,0l0,0l-0.5,0.9c-7.1,12-15.9,22.4-26.4,31.5
				c0,0-0.5,0.5-1.1,0.2c-0.3-0.2-0.5-0.5-0.4-0.9l0,0c-0.6-15.8-15.9-29.7-15.9-29.7l-14-15.1l-0.1-0.1c-0.8-0.9-1-2.3-0.4-3.5l0,0
				l7.5-13l0,0l0,0l7.5-13l0,0c0.7-1.2,2-1.7,3.2-1.4h0.1l20.1,4.6c0,0,19.7,6.4,33.7-1l0,0c0.3-0.2,0.6-0.2,1-0.1
				C271.7,171.5,271.5,172.2,271.5,172.2z"/>
			<path id="XMLID_115_" class="st2" d="M190.6,97.9c0,0-0.1,0.1-0.1,0.2c-1.8,2.3-2.2,5.5-0.8,8.2c0,0.1,0.1,0.2,0.1,0.2l8.9,15.4
				l8.9,15.4c0,0.1,0.1,0.1,0.2,0.2c1.6,2.6,4.6,3.8,7.5,3.4c0.1,0,0.1,0,0.2,0c0.3-0.1,0.6-0.1,0.9-0.2l22.4-4.7
				c14.4-3.7,19.1-2.9,29.9,1.2l1.4,0.5c2.2,1.1,4.8,1.1,7.1-0.2c2.3-1.3,3.6-3.7,3.7-6.2c0-0.3,0-0.7,0-1l0,0v-0.1
				c0-0.3-0.1-0.6-0.1-0.8c-2-12.5-5.7-24.3-10.7-35.2c2.5-3.4,2.6-8.7,0-13.3c-2.6-4.6-7.3-7.1-11.5-6.7
				c-6.9-9.8-15.2-18.9-25.1-26.9c-0.2-0.2-0.4-0.4-0.7-0.5l-0.1-0.1l0,0c-0.3-0.2-0.6-0.4-0.9-0.5c-2.2-1.2-4.9-1.2-7.3,0.1
				c-2.3,1.3-3.6,3.6-3.7,6l-0.2,1.4c-1.8,11.5-3.4,15.9-13.9,26.5l-15.2,17C191,97.4,190.8,97.7,190.6,97.9z M198.4,101.4
				L198.4,101.4l14.1-15.2c0,0,15.4-13.9,16-29.7l0,0c0-0.3,0.1-0.7,0.4-0.9c0.6-0.3,1.1,0.2,1.1,0.2c10.5,9.1,19.3,19.4,26.4,31.5
				l0.5,0.9l0,0l0,0l0,0l0,0l0,0l0,0l0.5,0.9c6.9,12.2,11.4,25,14,38.6c0,0,0.2,0.7-0.4,1c-0.3,0.2-0.7,0.1-1-0.1l0,0
				c-14-7.4-33.7-1-33.7-1l-20.1,4.6h-0.1c-1.2,0.3-2.5-0.3-3.2-1.4l0,0l-7.5-13l0,0l0,0l-7.5-13l0,0
				C197.3,103.7,197.5,102.3,198.4,101.4z"/>
		</g>
		<rect id="XMLID_98_" x="137" y="139.3" class="st5" width="4.6" height="4.8"/>
		<rect id="XMLID_97_" x="137" y="125.6" class="st5" width="4.6" height="3.9"/>
		<path id="XMLID_96_" class="st2" d="M194,154.1h-1.6h-4h-12.8v6.3h11.1h1.2l-0.4,1.2c-5.3,16.4-20.4,27.5-37.6,27.5
			s-32.4-11-37.6-27.5l-0.4-1.2h1.2h11.1v-6.3h-12.8h-3.9H106c-1.2,0-2.2,1-2.2,2.2v0.1c1.5,10.4,6.6,20,14.4,27.3
			c8.7,8.1,20,12.5,31.9,12.5s23.2-4.5,31.9-12.5c7.8-7.3,12.8-16.8,14.4-27.3c0-0.1,0-0.1,0-0.2C196.2,155.1,195.3,154.1,194,154.1
			z"/>
		<path id="XMLID_95_" class="st2" d="M196.2,142.8c0-0.1,0-0.1,0-0.2c-1.6-10.4-6.6-20-14.4-27.3c-7.3-6.8-16.4-11-26.2-12.2v7.3
			c14.8,2.1,27.2,12.5,31.9,27.1l0.4,1.2h-1.2h-11.1v6.3h12.8h4h1.6C195.3,145.1,196.2,144.1,196.2,142.8z"/>
		<path id="XMLID_93_" class="st2" d="M106,145.1h1.7h3.9h12.8v-6.3h-11.1H112l0.4-1.2c4.7-14.6,17.1-24.9,31.8-27.1v-7.3
			c-9.7,1.2-18.8,5.4-26.1,12.2c-7.8,7.3-12.8,16.9-14.4,27.3c0,0.1,0,0.1,0,0.2C103.7,144.1,104.7,145.1,106,145.1z"/>
		<path id="XMLID_92_" class="st2" d="M133.7,175.3v4.4c9.8-2.5,14.5-7.9,16.7-12.5c2.3,4.6,6.9,9.9,16.5,12.4v-4.4
			c-11.2-3.4-13.7-11-14.3-14.4h0.3c1.5,0,13.2,0,13.2,0v-4.3c0,0-12.4,0-13.6,0v-0.2v-5.8h-4.2v1.9v3.9v0.2c-1.1,0-14.3,0-14.3,0
			v4.3c0,0,12.5,0,13.8,0h0.3C147.6,164.3,145,172,133.7,175.3z"/>
		<path id="XMLID_91_" class="st2" d="M155.3,124H149c-0.5,0-0.8,0.4-0.8,0.8v18.9h3.6v-16.9h3.5v20.7h3.9v-20.7h3.7v16.9h3.5v-18.9
			c0-0.5-0.4-0.8-0.8-0.8h-6.3v-2.9h7.8v-2.9H147v2.9h8.2v2.9H155.3z"/>
		<path class="st2" d="M138.7,122.5c1.7-1.6,2.2-4.3,2.2-4.3h-3.8c0,0-0.3,2.8-1.5,4.4h-1.2c-0.5,0-0.8,0.4-0.8,0.8v22.8
			c0,0.5,0.4,0.8,0.8,0.8h9.8c0.5,0,0.8-0.4,0.8-0.8v-9.4c0-0.5-0.4-0.8-0.8-0.8h-7.1v-3h7.1c0.5,0,0.8-0.4,0.8-0.8v-8.7
			c0-0.5-0.4-0.8-0.8-0.8L138.7,122.5z M141.6,139.3v4.8H137v-4.8H141.6z M141.6,129.5H137v-3.9h4.6V129.5z"/>
	</g>
</g>
</svg>
