<?xml version="1.0" encoding="UTF-8"?>
<svg xmlns="http://www.w3.org/2000/svg" viewBox="0 0 159.53 68.74">
  <defs>
    <style>
      .cls-1 {
        fill: #dfc44a;
      }

      .cls-2 {
        fill: #129b3b;
      }

      .cls-3 {
        fill: #fff;
      }

      .cls-4 {
        fill: #b2cf58;
      }

      .cls-5 {
        fill: #595757;
      }

      .cls-6 {
        fill: #008360;
      }

      .cls-7 {
        mix-blend-mode: screen;
        opacity: .25;
      }

      .cls-8 {
        isolation: isolate;
      }
    </style>
  </defs>
  <g class="cls-8">
    <g id="_圖層_2" data-name="圖層_2">
      <g id="_圖層_4" data-name="圖層_4">
        <g>
          <g>
            <path class="cls-3" d="M72.44,47.92h-2.66v-2.61h2.11c.08,0,.13-.06.13-.18v-.33c0-.12-.04-.18-.13-.18h-2.11v-2.48h2.36c.08,0,.13-.06.13-.18v-.34c0-.11-.04-.17-.13-.17h-2.36v-1.86c0-.13.04-.21.11-.22.07,0,.11-.06.11-.16,0-.08-.27-.13-.8-.13-.11,0-.17.04-.17.13v2.24h-1.39c.06-.25.13-.54.19-.88.01-.09.05-.14.11-.14.06-.02.08-.06.08-.12,0-.05-.04-.1-.12-.16l-.73-.26s-.04.03-.05.08c-.07.54-.15.99-.23,1.33-.08.33-.16.64-.26.93-.16.51-.35.93-.56,1.28-.02.02-.03.05-.03.08,0,.02.03.04.08.06.13.05.27.1.41.16.06.02.14.03.23.03.14-.22.27-.48.39-.77.12-.3.23-.62.33-.95h1.56v2.48h-2.07c-.08,0-.13.06-.13.18v.33c0,.12.04.18.13.18h2.07v2.61h-2.79c-.09,0-.13.06-.13.17v.35c0,.11.04.16.13.16h6.2c.08,0,.13-.05.13-.16v-.35c0-.11-.04-.17-.13-.17ZM62.96,41.27c-.06.82-.15,1.44-.26,1.87-.11.44-.23.83-.38,1.19,0,.06.03.09.09.11.18.03.38.08.62.15.02,0,.05-.03.07-.09.1-.28.18-.56.24-.82.11-.5.19-1.12.26-1.88,0-.09.05-.17.14-.24.08-.04.13-.09.13-.17,0-.06-.27-.14-.8-.25-.08,0-.12.05-.12.15ZM66.24,42.65c-.16-.55-.34-1.08-.55-1.57-.02-.03-.06-.04-.13-.04-.31.16-.46.27-.46.34.15.45.3,1.02.46,1.7.15,0,.35-.09.6-.26.05,0,.07-.06.07-.16ZM64.17,39.05c-.11,0-.17.04-.17.13v9.68c0,.08.06.12.17.12h.42c.11,0,.17-.04.17-.12v-9.3c0-.14.04-.21.11-.22.07,0,.11-.06.11-.16,0-.08-.27-.13-.8-.13ZM91.76,26.49l-.72,3.32c-.2.92-.29,1.51-.29,1.77,0,.54.18.97.54,1.27.36.3.93.46,1.73.46.41,0,.8-.04,1.19-.12l.34-1.66c-.39.04-.63.05-.72.05-.28,0-.47-.05-.58-.14-.11-.1-.16-.23-.16-.4,0-.09.06-.45.19-1.08l.74-3.46h1.32l.34-1.7h-1.31l.59-2.88-2.58,1.56-.27,1.33h-1.12l-.34,1.7h1.13ZM57.66,39.6c0-.13.04-.21.11-.22.08,0,.12-.06.12-.16,0-.08-.27-.13-.81-.13-.11,0-.17.04-.17.13v.89h-2.83c-.06,0-.08.04-.08.13v.34c0,.08.03.13.08.13h4.37v.02c-.06.24-.15.48-.29.72-.07.15-.18.33-.32.53h-1.18c-.06-.16-.14-.32-.22-.48-.11-.24-.27-.5-.46-.78-.37.18-.55.3-.55.34.2.26.35.52.46.78.02.05.04.1.06.15h-1.54c-.11,0-.17.05-.17.14v5.35c0,.09.06.14.17.14h.42c.11,0,.17-.05.17-.14v-4.89h1.77v.79h-1.31c-.06,0-.08.05-.08.14v.33c0,.09.03.14.08.14h1.31v.79h-.97c-.08,0-.13.05-.13.14v2.27c0,.08.04.12.13.12h.42c.11,0,.17-.04.17-.12v-.3h2.11c.11,0,.17-.04.17-.13v-1.85c0-.09-.06-.14-.17-.14h-.97v-.79h1.52c.06,0,.08-.05.08-.14v-.33c0-.09-.03-.14-.08-.14h-1.52v-.79h1.94v4.06c0,.1-.03.17-.1.21-.05.05-.23.07-.55.07-.04,0-.06.01-.06.03.15.3.24.53.24.69.02.08.06.12.14.12.32-.03.58-.08.78-.17.21-.13.32-.29.32-.48v-4.99c0-.09-.07-.14-.21-.14h-1.34c.11-.21.22-.47.34-.78.01-.06.05-.09.12-.09.06-.02.09-.05.09-.09,0-.05-.05-.09-.16-.14l-.37-.16h1.83c.06,0,.08-.04.08-.13v-.34c0-.08-.03-.13-.08-.13h-2.87v-.51ZM57.96,45.35v.92h-1.56v-.92h1.56ZM40.8,8.87l-5.26-.96-.13-2.98-5.38-.21-.17-3.72S15.02,9.72,5.96,13.85l-4.83.91-.08,5.77c-.03.16-.05.33-.05.55v42.06c0,2.54,2.04,4.6,4.56,4.6h36.13c2.52,0,4.56-2.06,4.56-4.6V12.85l-5.35-1.6-.11-2.38ZM77.38,33.31c.43,0,.86-.1,1.28-.29.43-.2.8-.48,1.13-.84.02.32.09.64.2.94h2.13c-.12-.43-.18-.83-.18-1.18,0-.4.11-1.09.32-2.08.26-1.2.41-1.94.46-2.22.04-.28.07-.55.07-.8,0-.62-.25-1.15-.76-1.58-.51-.43-1.29-.65-2.34-.65s-1.83.21-2.45.62c-.62.42-1.05,1-1.29,1.74l2.18.18c.08-.3.24-.53.46-.69.23-.16.54-.24.93-.24.37,0,.65.08.84.24.19.16.28.36.28.6,0,.19-.05.44-.14.75-.36.13-1.07.23-2.13.32-1.26.1-2.14.39-2.62.86-.49.48-.73,1.11-.73,1.91,0,.71.22,1.29.67,1.75.45.45,1.01.68,1.7.68ZM77.5,29.91c.34-.26,1.07-.46,2.18-.6.22-.03.4-.07.53-.1l-.06.3c-.11.55-.24.96-.39,1.22-.15.26-.37.47-.66.64-.3.17-.61.25-.95.25-.3,0-.55-.09-.73-.27-.19-.18-.28-.4-.28-.67,0-.32.12-.58.36-.77ZM52.32,32.81c.72.33,1.58.5,2.57.5,1.43,0,2.55-.36,3.35-1.08.8-.72,1.2-1.58,1.2-2.59,0-.82-.27-1.49-.81-2.01-.36-.35-1.21-.82-2.53-1.38-.88-.38-1.45-.68-1.7-.9-.26-.21-.39-.48-.39-.81,0-.35.14-.64.42-.87.28-.23.75-.34,1.4-.34s1.17.15,1.51.44c.34.29.54.71.6,1.26l2.26-.1c-.07-1.05-.48-1.89-1.22-2.52-.74-.63-1.79-.95-3.14-.95s-2.35.32-3.05.95c-.7.64-1.05,1.43-1.05,2.4,0,.55.12,1.03.35,1.44.24.41.56.75.98,1,.41.26,1.07.58,1.97.96.9.39,1.45.66,1.65.84.29.23.43.52.43.86,0,.39-.17.72-.52,1-.35.28-.91.41-1.7.41-.94,0-1.59-.2-1.93-.61-.22-.25-.34-.74-.37-1.45l-2.23.12c-.02.77.12,1.45.42,2.04.3.59.81,1.05,1.53,1.39ZM95.29,41.8h-5.44c-.11,0-.17.04-.17.13v1.99c0,.08.06.12.17.12h5.44c.11,0,.17-.04.17-.12v-1.99c0-.09-.06-.13-.17-.13ZM91.28,43.57h-.93v-1.31h.93v1.31ZM93.01,43.57h-1.01v-1.31h1.01v1.31ZM94.79,43.57h-1.05v-1.31h1.05v1.31ZM95.46,39.91c0-.09-.03-.14-.08-.14h-2.45v-.17c0-.12.03-.18.08-.19.05,0,.08-.06.08-.15,0-.08-.25-.12-.76-.12-.08,0-.13.03-.13.08v.55h-2.45c-.06,0-.08.05-.08.14v.24c0,.12.03.18.08.18h2.45v.47h-2.03c-.06,0-.08.04-.08.12v.25c0,.11.03.17.08.17h4.73c.06,0,.08-.06.08-.17v-.25c0-.08-.03-.12-.08-.12h-1.98v-.47h2.45c.06,0,.08-.06.08-.18v-.24ZM53.48,40.45c-.2-.16-.43-.34-.71-.53-.23-.16-.53-.33-.9-.52-.03,0-.05.02-.08.07-.23.27-.34.43-.34.47.18.06.41.18.69.36.34.2.66.43.96.69.01,0,.12-.15.33-.46.04-.05.05-.08.05-.09ZM51.67,41.55s-.05.02-.08.07c-.23.27-.34.44-.34.49.18.08.42.21.7.41.36.24.69.51.99.8.01,0,.12-.15.33-.45.03-.05.05-.08.05-.1-.2-.19-.44-.39-.72-.61-.24-.19-.55-.39-.93-.61ZM60.63,47.92c-1.21.2-2.26.29-3.16.29h-2.29c-.36,0-.68-.02-.96-.06-.22-.04-.41-.11-.57-.21-.11-.06-.2-.16-.25-.29-.08-.13-.12-.33-.13-.57v-2.8c0-.08-.06-.13-.17-.13h-1.94c-.08,0-.13.06-.13.17v.34c0,.12.04.18.13.18h1.35v2.24c0,.11-.02.17-.05.2-.62.45-1.14.76-1.55.93,0,.08.02.16.05.22.23.36.36.54.41.54.04,0,.08-.02.1-.05.06-.18.45-.54,1.17-1.06,0-.01.04-.02.08-.02l.03.04c.15.27.28.46.39.57.18.13.37.23.57.31.23.08.47.13.71.17.25.04.5.05.76.05h5.31c.11,0,.17-.06.18-.18.05-.3.12-.59.2-.87,0-.03-.03-.04-.08-.04-.05,0-.1.01-.16.04ZM156.75,41.07c-.05-.04-.13-.09-.22-.14.27-.04.47-.12.6-.26.13-.14.19-.3.19-.5,0-.15-.04-.3-.12-.42-.08-.13-.18-.22-.31-.27-.13-.05-.32-.08-.57-.08h-1.24v2.8h.37v-1.24h.43c.1,0,.17,0,.21.01.06.01.11.04.17.08.05.04.12.1.19.19.07.09.16.22.27.39l.37.58h.46l-.48-.76c-.1-.15-.2-.27-.31-.37ZM156.24,40.64h-.8v-.93h.89c.21,0,.36.04.46.13.1.09.15.2.15.33,0,.09-.02.17-.08.25-.05.08-.12.13-.22.17-.1.04-.23.05-.4.05ZM120.65,24.6c-1.02,0-1.83.21-2.45.62-.62.42-1.05,1-1.3,1.74l2.18.18c.08-.3.24-.53.46-.69.23-.16.54-.24.93-.24.37,0,.65.08.84.24.19.16.28.36.28.6,0,.19-.05.44-.14.75-.36.13-1.07.23-2.13.32-1.26.1-2.13.39-2.62.86-.49.48-.73,1.11-.73,1.91,0,.71.22,1.29.67,1.75.45.45,1.01.68,1.7.68.43,0,.86-.1,1.28-.29.43-.2.8-.48,1.13-.84.02.32.09.64.2.94h2.13c-.12-.43-.18-.83-.18-1.18,0-.4.11-1.09.32-2.08.26-1.2.41-1.94.46-2.22.04-.28.07-.55.07-.8,0-.62-.25-1.15-.76-1.58-.51-.43-1.29-.65-2.34-.65ZM121.11,29.51c-.11.55-.24.96-.39,1.22-.15.26-.37.47-.67.64-.3.17-.61.25-.95.25-.3,0-.55-.09-.73-.27-.19-.18-.28-.4-.28-.67,0-.32.12-.58.36-.77.34-.26,1.07-.46,2.18-.6.22-.03.4-.07.53-.1l-.06.3ZM132.78,21.66l-.93,4.31c-.57-.91-1.42-1.36-2.55-1.36-1.26,0-2.27.54-3.03,1.61-.76,1.08-1.15,2.28-1.15,3.61,0,1.15.27,2.02.81,2.61.54.59,1.24.88,2.1.88.5,0,.94-.09,1.34-.26s.8-.46,1.21-.85l-.19.91h2.11l2.52-11.46h-2.22ZM130.89,29.93c-.21.57-.5.99-.86,1.27-.36.28-.74.41-1.16.41-.45,0-.82-.17-1.13-.5-.31-.33-.46-.79-.46-1.38,0-.84.21-1.63.64-2.35.43-.72.98-1.09,1.65-1.09.43,0,.81.18,1.14.55.33.37.49.85.49,1.44,0,.52-.11,1.07-.32,1.64ZM111.9,24.6c-1.59,0-2.81.6-3.67,1.8-.63.89-.94,1.9-.94,3.04s.35,2.1,1.05,2.81c.7.71,1.6,1.06,2.72,1.06.81,0,1.54-.2,2.2-.61.65-.41,1.17-1.01,1.56-1.82l-2.01-.34c-.41.77-.99,1.16-1.73,1.16-.45,0-.83-.17-1.14-.5-.31-.34-.47-.78-.47-1.33,0-.05,0-.11,0-.2h5.59c.1-.43.16-.92.16-1.47,0-1.14-.3-2.02-.9-2.65-.6-.63-1.4-.95-2.41-.95ZM113.17,28.3h-3.48c.13-.69.38-1.21.74-1.56.36-.35.78-.53,1.24-.53s.83.16,1.1.47c.27.31.41.78.41,1.4,0,.05,0,.13,0,.23ZM105.03,21.93c-.49-.18-1.17-.27-2.05-.27h-5.11l-2.4,11.46h2.37l1-4.75h.97c.56,0,.95.08,1.18.23.37.26.71.75,1.04,1.5.6,1.37,1,2.38,1.2,3.03h2.55c-.65-1.64-1.23-2.9-1.76-3.8-.27-.44-.55-.8-.85-1.07,1.18-.15,2.06-.54,2.65-1.18.58-.63.87-1.44.87-2.41,0-.68-.15-1.26-.45-1.74-.3-.48-.7-.81-1.19-.99ZM103.96,25.7c-.24.32-.56.56-.98.7-.42.15-1.26.23-2.53.23h-1.26l.64-3.05h2.61c.7,0,1.15.06,1.36.19.34.21.51.52.51.93,0,.35-.12.69-.35,1.01ZM134.62,33.11h2.22l1.75-8.32h-2.22l-1.75,8.32ZM156.14,38.4c-1.32,0-2.4,1.08-2.4,2.4s1.07,2.4,2.4,2.4,2.4-1.08,2.4-2.4-1.07-2.4-2.4-2.4ZM156.14,42.85c-1.13,0-2.05-.92-2.05-2.05s.92-2.05,2.05-2.05,2.05.92,2.05,2.05-.92,2.05-2.05,2.05ZM155.65,35.23c.21-.28.4-.66.57-1.14.17-.48.37-1.28.61-2.4l1.33-6.89h-2.11l-.31,1.46c-.25-.52-.61-.93-1.07-1.22-.46-.29-.96-.44-1.51-.44-.66,0-1.31.21-1.94.62-.63.42-1.13,1.03-1.48,1.84-.35.81-.53,1.7-.53,2.68,0,1.1.26,1.94.77,2.51.51.57,1.17.86,1.98.86.88,0,1.73-.33,2.55-.98l-.08.39c-.14.69-.25,1.14-.34,1.34-.14.33-.33.57-.56.71-.31.19-.71.29-1.22.29-.29,0-.52-.04-.69-.13s-.29-.19-.36-.31c-.08-.12-.11-.3-.11-.54l-2.37-.34c-.02.12-.02.23-.02.33,0,.94.3,1.61.89,2.01.59.4,1.47.6,2.62.6.52,0,1-.04,1.44-.13.44-.08.83-.22,1.15-.41.33-.19.59-.43.81-.71ZM154.03,30.97c-.38.29-.77.44-1.17.44-.42,0-.77-.16-1.05-.49-.28-.33-.42-.8-.42-1.43,0-.4.08-.86.25-1.36.22-.66.49-1.14.82-1.45.33-.31.7-.47,1.09-.47.44,0,.82.18,1.15.53.33.36.5.83.5,1.41,0,.51-.1,1.03-.3,1.57-.2.54-.49.96-.87,1.25ZM94.49,48.19c-.18-.08-.36-.19-.57-.32h.99c.11,0,.17-.04.17-.13v-3.17c0-.08-.06-.13-.17-.13h-4.69c-.11,0-.17.04-.17.13v3.17c0,.08.06.13.17.13h1.06c-.24.18-.49.33-.74.44-.25.13-.53.24-.87.34-.06.01-.08.04-.08.06,0,.04.02.07.07.12.11.09.18.18.22.26.04.06.09.08.17.08.62-.21,1.21-.47,1.77-.8.01-.03.09-.05.22-.05.08,0,.12-.02.12-.07,0-.04-.13-.16-.39-.38h1.58c-.15.13-.22.22-.22.25,0,.01.02.03.06.06.39.28,1,.58,1.82.9.05,0,.08.01.11.01.28-.28.42-.45.42-.51,0-.02-.03-.04-.08-.07-.43-.12-.75-.23-.97-.33ZM90.78,44.96h3.59v.51h-3.59v-.51ZM90.78,45.93h3.59v.51h-3.59v-.51ZM90.78,47.37v-.46h3.59v.46h-3.59ZM71.92,24.6c-.58,0-1.14.14-1.68.42-.54.28-.95.63-1.24,1.05-.09-.46-.31-.82-.65-1.09-.34-.26-.83-.39-1.45-.39-.91,0-1.78.4-2.61,1.2l.2-1h-2.11l-1.74,8.32h2.22l.8-3.82c.15-.66.25-1.09.31-1.28.14-.4.31-.73.51-.99.2-.26.43-.46.69-.6.26-.15.52-.22.77-.22.26,0,.47.07.62.21.15.14.22.32.22.54,0,.17-.06.55-.18,1.13l-1.05,5.02h2.22l.79-3.77c.23-1.08.5-1.82.83-2.25.45-.59.95-.88,1.52-.88.28,0,.49.07.63.2.14.13.21.32.21.55-.02.08-.09.45-.23,1.08l-1.06,5.07h2.22l1.1-5.06c.16-.7.25-1.19.25-1.48,0-.59-.19-1.07-.56-1.43-.37-.36-.89-.54-1.56-.54ZM145.74,24.6c-.52,0-1.01.1-1.47.3-.47.2-.97.53-1.51,1l.22-1.1h-2.14l-1.74,8.32h2.22l.71-3.41c.22-1,.42-1.66.6-1.98.23-.45.56-.82.97-1.1.41-.28.78-.42,1.12-.42.31,0,.55.08.72.25.17.17.26.4.26.69-.01.14-.09.56-.24,1.26l-1.02,4.7h2.22l1.02-4.69c.19-.81.28-1.36.28-1.65,0-.66-.2-1.18-.6-1.58-.4-.4-.94-.6-1.63-.6ZM137.02,21.66l-.42,2.01h2.22l.42-2.01h-2.22ZM86.49,30.5c.22-1.06.44-1.83.67-2.32.23-.49.54-.88.94-1.17.4-.29.8-.44,1.19-.44.23,0,.45.04.66.11l.85-1.85c-.37-.16-.71-.24-1.04-.24-.91,0-1.75.61-2.53,1.82l.35-1.62h-2.11l-1.74,8.32h2.22l.54-2.61ZM83.38,39.27h-3.59c-.11,0-.17.05-.17.14v3.03c0,.09.06.14.17.14h3.04v5.03c0,.19-.05.33-.14.42-.08.08-.33.13-.76.13-.05,0-.07.02-.07.06.16.3.24.53.25.69,0,.08.05.12.13.12.39-.05.71-.15.96-.3.26-.2.39-.47.39-.83v-8.48c0-.09-.07-.14-.21-.14ZM82.83,41.97h-2.45v-.75h2.45v.75ZM82.83,40.62h-2.45v-.75h2.45v.75ZM81.78,47.3c-.21,0-.41-.06-.59-.17,0,0-.01.02-.02.06,0,.28-.02.45-.05.51-.04.06-.08.09-.14.09h-.42c-.34,0-.51-.14-.51-.42v-.84h.93c.11,0,.17-.04.17-.13v-1.95c.05.03.11.06.18.09.19.09.35.15.5.18.08,0,.15-.02.2-.06.11-.13.23-.25.35-.37.06-.03.09-.05.09-.07,0-.01-.03-.02-.07-.03-.19-.04-.37-.08-.53-.13-.22-.07-.4-.15-.53-.24-.13-.09-.24-.2-.32-.33-.08-.13-.13-.27-.13-.44,0-.09-.06-.14-.17-.14h-1.94c-.08,0-.13.05-.13.14v.33c0,.12.04.18.13.18h1.53s.02.04.03.06c.08.2.21.38.39.54.05.05.11.1.18.15h-3.75c.19-.15.39-.32.59-.53.03-.05.11-.07.24-.07.1-.01.15-.04.15-.07,0-.06-.05-.11-.16-.15l-.64-.27s-.09.03-.13.08c-.13.19-.31.37-.56.55-.18.15-.43.31-.77.5-.04.03-.06.05-.06.06,0,0,.03.02.08.04.13.06.26.12.41.18.07.04.13.06.18.06.04,0,.11-.02.2-.06.08-.05.17-.11.26-.17v1.96c0,.08.06.13.17.13h.79c0,.18-.01.32-.03.42-.04.16-.09.29-.16.4-.06.1-.14.19-.24.26-.1.09-.23.16-.4.22-.21.06-.49.12-.84.18,0,.04.01.07.03.11.08.15.18.28.28.41.01.07.05.11.12.11.27-.06.5-.12.71-.19.25-.11.47-.23.64-.37.17-.15.29-.3.37-.47.09-.18.15-.36.19-.56.02-.15.03-.33.03-.53h.76v1.27c0,.43.28.64.84.64h1.14c.16,0,.26-.06.32-.17.1-.14.18-.43.23-.85,0-.07-.04-.11-.12-.12ZM77.73,45.89v-.97h2.66v.97h-2.66ZM78.49,42.43v-3.03c0-.09-.06-.14-.17-.14h-3.54c-.11,0-.17.05-.17.14v9.4c0,.09.06.14.17.14h.42c.11,0,.17-.05.17-.14v-6.24h2.95c.11,0,.17-.04.17-.14ZM77.81,41.97h-2.45v-.75h2.45v.75ZM77.81,40.62h-2.45v-.75h2.45v.75ZM86.3,44.42c0,.11.04.16.13.16h2.36c.08,0,.13-.05.13-.16v-.35c0-.11-.04-.16-.13-.16h-2.36c-.08,0-.13.05-.13.16v.35ZM89.17,40.87h-3.25c-.09,0-.13.06-.13.17v.34c0,.11.04.17.13.17h3.25c.08,0,.13-.06.13-.17v-.34c0-.11-.04-.17-.13-.17ZM86.43,43.08h2.36c.08,0,.13-.06.13-.18v-.33c0-.12-.04-.18-.13-.18h-2.36c-.08,0-.13.06-.13.18v.33c0,.12.04.18.13.18ZM86.43,39.31c-.08,0-.13.06-.13.18v.33c0,.11.04.17.13.17h2.36c.08,0,.13-.06.13-.17v-.33c0-.12-.04-.18-.13-.18h-2.36ZM88.88,45.55h-2.66c-.08,0-.13.04-.13.13v3.08c0,.09.04.14.13.14h.42c.11,0,.17-.05.17-.14v-.51h1.52v.34c0,.08.04.13.13.13h.42c.11,0,.17-.04.17-.13v-2.91c0-.08-.06-.13-.17-.13ZM88.33,47.59h-1.52v-1.39h1.52v1.39Z"/>
            <path class="cls-3" d="M41.69,68.74H5.56c-3.07,0-5.56-2.51-5.56-5.6V21.08c0-.23.02-.43.05-.64l.08-5.69c0-.48.35-.88.81-.97l4.71-.89C14.58,8.81,29.2.22,29.35.14c.3-.18.68-.18.98-.02.31.17.51.48.52.83l.12,2.8,4.46.17c.52.02.94.43.96.95l.1,2.18,4.48.82c.46.08.8.47.82.94l.07,1.67,4.67,1.39c.42.13.71.52.71.96v50.3c0,3.09-2.5,5.6-5.56,5.6ZM2.12,15.59l-.07,4.95c0,.06,0,.11-.02.17-.02.11-.03.22-.03.37v42.06c0,1.99,1.6,3.6,3.56,3.6h36.13c1.97,0,3.56-1.62,3.56-3.6V13.59l-4.64-1.38c-.41-.12-.69-.49-.71-.91l-.07-1.59-4.48-.82c-.46-.08-.8-.47-.82-.94l-.09-2.06-4.46-.17c-.52-.02-.94-.43-.96-.95l-.09-2.07c-3.95,2.29-15.2,8.71-22.56,12.07-.07.03-.15.06-.23.07l-4.03.76ZM90.06,50.18c-.39,0-.75-.18-.97-.48-.07.01-.14.02-.21.02h-.42c-.33,0-.62-.13-.82-.34-.2.32-.56.52-.99.52h-.42c-.63,0-1.13-.5-1.13-1.14v-3.08c0-.3.11-.58.3-.78-.06-.14-.09-.31-.09-.48v-.35c0-.22.05-.42.14-.59-.09-.17-.14-.38-.14-.6v-.33c0-.07,0-.13.01-.2-.32-.2-.52-.57-.52-1v-.34c0-.43.21-.8.53-1-.01-.07-.02-.15-.02-.22v-.33c0-.67.48-1.18,1.13-1.18h2.36c.38,0,.71.18.91.47.02,0,.04,0,.06,0h1.54c.17-.38.56-.63,1.03-.63.4,0,1.34,0,1.65.63h1.38c.62,0,1.08.49,1.08,1.14v.24c0,.42-.16.73-.39.92.24.2.39.51.39.85v1.99c0,.34-.14.64-.38.84v2.98c.38.28.46.62.46.86,0,.46-.27.77-.71,1.21-.19.19-.44.29-.71.29-.05,0-.13,0-.24-.02-.08-.01-.15-.03-.22-.06-.82-.32-1.44-.62-1.9-.92-.15.12-.34.2-.55.22-.57.33-1.19.6-1.83.81-.1.03-.21.05-.31.05ZM90,49.6s-.03,0-.04.01c.01,0,.03,0,.04-.01ZM82.24,50.02c-.44,0-.8-.23-.99-.58h-1.03c-.74,0-1.23-.27-1.51-.63,0,0-.01.01-.02.02-.29.23-.58.4-.92.54-.3.1-.57.18-.88.25-.26.06-.53,0-.75-.11-.21.27-.55.44-.94.44h-.42c-.67,0-1.17-.49-1.17-1.14v-9.4c0-.65.5-1.14,1.17-1.14h3.54c.29,0,.54.09.74.24.2-.15.45-.24.74-.24h3.59c.79,0,1.21.59,1.21,1.14v8.48c0,.67-.28,1.25-.79,1.63-.03.02-.06.04-.09.06-.37.22-.81.36-1.35.43-.04,0-.08,0-.12,0ZM64.59,49.97h-.42c-.67,0-1.17-.48-1.17-1.12v-3.27c-.08,0-.17-.02-.25-.04-.19-.06-.36-.1-.5-.12-.59-.13-.94-.57-.94-1.1,0-.13.03-.26.08-.38.13-.31.24-.66.33-1.05.1-.38.18-.94.24-1.68.02-.6.46-1.06,1.04-1.09v-.94c0-.64.5-1.13,1.17-1.13.49,0,1.8,0,1.8,1.13,0,.26-.08.5-.21.69v.18c.11.02.22.05.32.1.01-.09.03-.19.04-.28,0-.04.01-.08.02-.12.14-.55.82-.97,1.36-.77l.52.19c.03-.61.52-1.06,1.17-1.06.49,0,1.8,0,1.8,1.13,0,.26-.08.5-.21.69v.54h1.36c.64,0,1.13.5,1.13,1.17v.34c0,.67-.48,1.18-1.13,1.18h-1.36v.48h1.11c.64,0,1.13.51,1.13,1.18v.33c0,.67-.48,1.18-1.13,1.18h-1.11v.61h1.66c.64,0,1.13.5,1.13,1.17v.35c0,.66-.48,1.16-1.13,1.16h-6.2c-.23,0-.45-.07-.62-.18-.2.34-.57.56-1.02.56ZM72.44,48.92h0,0ZM65.76,44.62v2.4c.14-.07.31-.1.48-.1h1.79v-.61h-1.07c-.64,0-1.13-.51-1.13-1.18v-.33c0-.05,0-.11,0-.16-.03,0-.05-.02-.08-.03,0,0,0,0,0,0ZM68,43.63h.03v-.06s-.02.04-.03.06ZM62.96,41.27h0,0ZM69.81,38.38h0,0ZM69.82,38.38s0,0,0,0c0,0,0,0,0,0ZM64.75,38.35c-.05,0-.1.01-.15.03.05-.01.1-.02.15-.03ZM60.49,49.97h-5.31c-.31,0-.61-.02-.9-.06-.29-.04-.59-.11-.88-.21-.31-.12-.58-.26-.82-.43-.02-.01-.04-.03-.06-.04-.09.08-.13.13-.16.15,0,0-.01.02-.02.03-.19.35-.57.57-.97.57-.63,0-.93-.49-1.26-1.01-.15-.26-.21-.5-.21-.75,0-.41.25-.77.63-.93.26-.1.59-.29.98-.56v-.88h-.35c-.64,0-1.13-.51-1.13-1.18v-.34c0-.65.46-1.14,1.07-1.17-.13-.08-.21-.12-.25-.14-.37-.16-.61-.52-.61-.92s.22-.7.57-1.12c.04-.06.09-.12.14-.16-.31-.18-.5-.5-.5-.87,0-.39.19-.65.53-1.06.3-.44.72-.48.89-.48.15,0,.31.04.45.1.41.2.75.4,1.02.59.07.05.14.09.2.14.15-.08.33-.13.52-.13h1.83c.06-.58.54-1.01,1.16-1.01.52,0,1.73,0,1.81,1.01h1.65c.62,0,1.08.48,1.08,1.13v.34c0,.43-.21.78-.53.98.1.17.15.37.15.55v4.88c.36.17.63.54.63.94,0,.1-.01.19-.04.28-.07.24-.13.48-.17.73-.07.61-.55,1.05-1.17,1.05ZM61.09,48.81s0,0,0,0c0,0,0,0,0,0ZM57.7,38.38h0,0ZM156.14,44.2c-1.87,0-3.4-1.52-3.4-3.4s1.52-3.4,3.4-3.4,3.4,1.52,3.4,3.4-1.52,3.4-3.4,3.4ZM152.25,37.48c-1.37,0-2.42-.25-3.19-.78-.61-.41-1.33-1.24-1.33-2.84,0-.14,0-.29.03-.46.04-.26.18-.5.39-.67.21-.16.48-.23.75-.19h.05c-.38-.55-.61-1.23-.7-2.04l-.61,2.81c-.1.46-.51.79-.98.79h-2.22c-.3,0-.59-.14-.78-.37-.19-.24-.26-.54-.2-.84l1.02-4.7c.1-.47.17-.81.2-1-.1.03-.26.08-.53.26-.27.18-.48.42-.64.72-.06.11-.23.48-.51,1.74l-.71,3.4c-.1.46-.5.8-.98.8h-2.22c-.3,0-.59-.14-.78-.37s-.26-.54-.2-.84l1.74-8.32c.1-.46.51-.79.98-.79h2.14c.26,0,.5.1.69.27.07-.03.14-.06.21-.09.59-.25,1.22-.38,1.87-.38.96,0,1.75.3,2.34.89.51.51.8,1.15.87,1.91.42-.86,1-1.53,1.72-2.01,1.48-.97,3.2-1.04,4.54-.2,0,0,.02.01.03.02.18-.25.48-.41.81-.41h2.11c.3,0,.58.13.77.36.19.23.27.53.21.83l-1.33,6.89c-.26,1.19-.47,2.01-.65,2.53-.2.58-.43,1.04-.71,1.42,0,0,0,0,0,0-.29.39-.66.71-1.1.97-.42.25-.92.43-1.47.53-.51.1-1.05.14-1.63.14ZM149.9,34.71c.09.17.2.27.29.34.11.07.26.15.46.22-.1-.1-.18-.2-.26-.32-.03-.06-.07-.12-.09-.18l-.41-.06ZM155.65,35.23h0,0ZM155.1,31.33c.31.23.46.62.38,1.01l-.08.39c-.2,1.01-.32,1.35-.4,1.54-.08.19-.18.36-.29.52.05-.05.1-.1.14-.16.15-.2.29-.49.42-.87.15-.44.35-1.2.58-2.28l1.1-5.68h-.08l-.14.67c-.07.35-.32.62-.65.74.08.29.13.61.13.95,0,.62-.12,1.27-.36,1.92-.18.49-.43.91-.73,1.26ZM145.68,32.11h.18l.85-3.9c.24-1.04.26-1.37.26-1.45,0-.5-.17-.73-.3-.86-.06-.07-.24-.24-.69-.29.06.04.11.09.15.13.26.25.57.7.57,1.41-.01.22-.05.49-.26,1.47l-.75,3.49ZM140.33,32.11h.18l.54-2.61c.33-1.48.55-2,.7-2.26.11-.21.23-.4.37-.58-.25-.21-.39-.53-.35-.86h-.11l-1.32,6.32ZM151.47,26.28c-.33.29-.6.68-.81,1.18-.3.68-.44,1.45-.44,2.28s.17,1.46.52,1.84c.26.29.56.45.93.51-.22-.13-.43-.31-.61-.52-.44-.51-.66-1.21-.66-2.08,0-.51.1-1.07.3-1.67.21-.64.47-1.14.79-1.54ZM154.03,30.97h0,0ZM153.55,27.21c-.09,0-.22.02-.4.2-.14.14-.36.43-.56,1.04-.13.4-.2.75-.2,1.05,0,.37.06.64.18.77.26.3.52.17.85-.09h0c.23-.18.41-.45.54-.81.16-.43.24-.84.24-1.22,0-.43-.13-.62-.23-.73-.18-.19-.31-.22-.42-.22ZM128.02,34.31c-1.15,0-2.11-.41-2.84-1.21-.61-.66-.96-1.57-1.04-2.7-.2.95-.23,1.36-.23,1.53,0,.26.05.57.14.91.08.3.02.62-.17.87s-.48.39-.8.39h-2.13c-.27,0-.52-.11-.7-.29-.07.04-.14.07-.2.1-.56.26-1.13.39-1.7.39-.96,0-1.77-.33-2.41-.98-.33-.33-.57-.72-.73-1.14-.4.56-.87,1.02-1.42,1.36-.81.5-1.73.76-2.72.76-1.39,0-2.54-.46-3.43-1.36-.88-.9-1.33-2.08-1.33-3.51,0-.58.07-1.13.21-1.66-.43.45-.97.81-1.62,1.06.55.94,1.16,2.25,1.81,3.9.12.31.08.66-.1.93-.19.27-.5.44-.83.44h-2.55c-.44,0-.82-.28-.95-.7-.19-.61-.59-1.6-1.17-2.93-.33-.76-.59-1-.69-1.07.02.01-.13-.05-.61-.05h-.15l-.83,3.96c-.1.46-.51.79-.98.79h-2.37c-.21,0-.41-.07-.58-.19-.13.12-.3.21-.48.25-.45.09-.92.14-1.38.14-1.05,0-1.82-.23-2.37-.7-.58-.49-.89-1.2-.89-2.03,0-.23.04-.66.32-1.98l.45-2.1c-.26.18-.6.24-.91.12-.24-.09-.54-.08-.92.2-.26.19-.47.45-.62.78-.13.29-.34.88-.6,2.1l-.54,2.61c-.1.46-.51.8-.98.8h-2.22c-.3,0-.59-.14-.78-.37,0-.01-.02-.02-.02-.03,0,0,0,0,0,0-.19.25-.48.4-.8.4h-2.13c-.27,0-.52-.11-.7-.29-.07.04-.14.07-.21.1-1.47.68-3.1.44-4.11-.59-.49-.5-.8-1.11-.91-1.82l-.39,1.8c-.1.46-.51.79-.98.79h-2.22c-.3,0-.59-.14-.78-.37-.19-.23-.26-.54-.2-.84l1.18-5.64c-.13.06-.3.18-.49.43-.13.17-.39.64-.65,1.85l-.79,3.77c-.1.46-.51.79-.98.79h-2.22c-.3,0-.59-.14-.78-.37-.19-.23-.26-.54-.2-.84l1.05-5.02c.06-.28.09-.48.12-.62-.03.01-.06.03-.09.04-.14.08-.27.19-.38.34-.13.17-.25.41-.36.71-.02.06-.09.31-.28,1.16l-.8,3.81c-.1.46-.51.79-.98.79h-2.22c-.3,0-.59-.14-.78-.37-.19-.23-.26-.54-.2-.84l.23-1.1c-.25.42-.57.81-.97,1.17-.99.88-2.34,1.33-4.02,1.33-1.13,0-2.13-.2-2.99-.59,0,0,0,0,0,0-.93-.43-1.61-1.05-2.01-1.85-.37-.74-.55-1.58-.52-2.52.01-.52.43-.94.95-.97l2.23-.12c.12,0,.25,0,.36.05-.13-.07-.25-.14-.36-.21-.56-.35-1-.8-1.32-1.35-.32-.56-.49-1.22-.49-1.94,0-1.25.46-2.31,1.38-3.14.89-.8,2.14-1.21,3.72-1.21s2.86.4,3.78,1.18c.95.81,1.48,1.89,1.57,3.21.02.27-.07.53-.25.74-.18.2-.43.32-.7.33l-2.26.1s0,0-.01,0c.81.42,1.16.7,1.36.9.63.61,1,1.38,1.09,2.28l.97-4.61c.1-.46.51-.79.98-.79h2.11c.23,0,.44.08.62.21.58-.27,1.18-.41,1.8-.41.85,0,1.54.2,2.06.6.1.08.2.17.29.26.17-.11.34-.22.53-.32.68-.36,1.4-.54,2.15-.54.93,0,1.69.28,2.25.82.56.54.85,1.27.86,2.11.32-.9.88-1.62,1.64-2.14.78-.53,1.8-.8,3.01-.8,1.31,0,2.29.29,2.99.88.73.62,1.11,1.43,1.11,2.34,0,.3-.03.62-.08.95-.05.31-.21,1.08-.47,2.28-.26,1.2-.3,1.69-.3,1.87,0,.01,0,.03,0,.04l1.55-7.38c.1-.46.51-.79.98-.79h2.11c.23,0,.45.08.63.22.82-.47,1.71-.55,2.67-.22.03,0,.06,0,.1,0h.31l.11-.53c.06-.27.22-.51.46-.65l2.58-1.56c.34-.2.77-.19,1.09.04.32.23.48.63.4,1.02l-.35,1.68h.09c.25,0,.49.09.67.26l.55-2.6c.1-.46.51-.79.98-.79h5.11c1,0,1.79.11,2.4.33.7.26,1.27.73,1.69,1.39.4.64.6,1.41.6,2.28,0,.33-.03.64-.08.94,1.04-1.33,2.49-2,4.32-2,1.29,0,2.35.42,3.14,1.26.44.47.76,1.03.95,1.69.32-.9.88-1.63,1.65-2.15.78-.53,1.79-.8,3.01-.8,1.31,0,2.29.29,2.99.88.73.62,1.11,1.43,1.11,2.34.19-.41.42-.81.69-1.19.95-1.33,2.28-2.03,3.85-2.03.73,0,1.38.15,1.95.45l.57-2.61c.1-.46.51-.79.98-.79h2.22c.3,0,.59.14.78.37.14.18.22.39.22.61l.04-.19c.1-.46.51-.79.98-.79h2.22c.3,0,.59.14.78.37.19.23.26.54.2.84l-.42,2.01c-.04.21-.15.39-.3.53.08.19.1.4.06.6l-1.75,8.32c-.1.46-.51.79-.98.79h-2.22c-.3,0-.59-.14-.78-.37s-.26-.54-.2-.84l1.75-8.32c.04-.21.15-.39.3-.53-.07-.15-.09-.32-.08-.48l-2.14,9.75c-.1.46-.51.79-.98.79h-2.11c-.2,0-.39-.06-.56-.17-.02,0-.04.02-.06.03-.52.22-1.1.34-1.74.34ZM92.42,25.74s.08.08.12.12c.19.24.26.54.2.84l-.72,3.32c-.26,1.21-.27,1.51-.27,1.56,0,.31.09.43.19.51.05.04.25.18.79.21-.06-.04-.11-.08-.16-.12-.31-.29-.49-.69-.49-1.14,0-.14.02-.31.21-1.28l.74-3.47c.08-.35.33-.63.66-.74-.04-.04-.08-.07-.11-.12-.19-.23-.27-.54-.2-.83l.13-.65-.25.15-.19.9c-.07.35-.33.63-.66.74ZM127.43,26.36c-.13.13-.25.27-.36.43-.65.91-.96,1.9-.96,3.03,0,.89.18,1.54.54,1.93.26.28.57.45.95.52-.22-.13-.41-.29-.59-.48-.48-.52-.72-1.21-.72-2.06,0-1.02.26-1.99.79-2.86.11-.19.23-.36.36-.51ZM76.31,29.85c-.15.2-.29.51-.29,1.03,0,.45.12.78.38,1.05.16.16.35.27.57.33-.09-.06-.17-.13-.25-.2-.38-.37-.58-.85-.58-1.38,0-.29.06-.57.17-.82ZM117.27,29.85c-.15.2-.29.51-.29,1.03,0,.45.12.78.38,1.05.16.16.35.27.56.33-.09-.06-.17-.13-.25-.2-.38-.37-.58-.85-.58-1.38,0-.29.06-.57.17-.82ZM52.73,31.9c.26.12.54.21.85.28-.58-.15-1.04-.42-1.37-.81-.23-.26-.39-.6-.49-1.05h-.28c.05.25.13.46.23.66.19.39.54.69,1.06.93h0ZM135.85,32.11h.18l1.33-6.32h-.18l-1.33,6.32ZM131.56,32.11h.12l2.08-9.46h-.17l-.76,3.52c-.09.4-.4.7-.81.77-.02,0-.04,0-.06,0,.17.4.25.84.25,1.33,0,.64-.13,1.31-.39,1.99-.17.44-.38.83-.63,1.15.21.17.33.42.36.68ZM121.75,32.11h.16c0-.06,0-.12,0-.18,0-.48.11-1.23.35-2.3.32-1.47.42-1.99.45-2.16.04-.23.05-.44.05-.65,0-.33-.12-.57-.41-.82-.05-.05-.11-.09-.18-.12.29.32.44.73.44,1.17,0,.28-.06.62-.18,1.03-.07.24-.22.44-.43.56.15.22.21.5.16.77l-.06.3c-.14.66-.3,1.15-.5,1.51-.04.08-.09.16-.15.23.18.17.29.4.31.65,0,0,0,0,0,.01ZM103.93,32.11h.34c-.41-.94-.78-1.71-1.13-2.29-.14-.23-.28-.43-.43-.6.07.14.15.3.22.46.43,1,.76,1.8,1,2.43ZM96.7,32.11h.32l.83-3.96c.08-.37.35-.65.7-.75-.05-.04-.09-.09-.13-.14-.19-.23-.26-.54-.2-.84l.64-3.05c.07-.33.3-.59.6-.72h-.77l-1.98,9.46ZM84.96,32.11h.18l.37-1.81s0,0,0,0c.24-1.14.48-1.97.74-2.54.1-.21.21-.4.33-.59-.27-.23-.41-.6-.33-.97l.09-.41h-.06l-1.32,6.32ZM80.79,32.11h.16c0-.06,0-.12,0-.18,0-.48.11-1.23.35-2.3.33-1.53.42-2.01.45-2.16.04-.23.05-.44.05-.64,0-.33-.12-.57-.41-.82-.05-.05-.11-.09-.18-.12.29.32.44.73.44,1.17,0,.29-.06.62-.18,1.03-.07.23-.22.43-.43.56.15.22.21.5.16.77l-.06.3c-.14.66-.3,1.15-.5,1.51-.04.08-.09.16-.15.23.18.17.29.4.31.65,0,0,0,0,0,.01ZM71.7,32.11h.19l.93-4.28c.2-.86.22-1.18.22-1.27,0-.41-.14-.59-.25-.71-.06-.06-.21-.21-.64-.25.03.03.06.05.09.08.24.23.52.63.52,1.27,0,.07,0,.14-.02.21l-1.04,4.93ZM66.78,32.11h.18l.62-2.97c.21-.99.47-1.75.78-2.29-.17-.14-.3-.34-.34-.57-.06-.29-.18-.42-.28-.49-.12-.09-.32-.15-.59-.17.04.03.07.06.1.08.35.33.54.77.54,1.27,0,.18-.02.47-.2,1.33l-.8,3.82ZM61.86,32.11h.18l.64-3.02c.21-.94.29-1.24.35-1.4.16-.45.35-.84.58-1.16-.21-.19-.32-.46-.32-.74h-.1l-1.32,6.32ZM53.73,22.96c-.09.06-.18.12-.25.19-.49.45-.72.97-.72,1.66,0,.38.07.69.22.95.15.27.36.48.64.65.37.23.99.53,1.83.89,1.31.56,1.7.82,1.91,1,.5.41.78.98.78,1.62,0,.7-.31,1.32-.9,1.79-.15.12-.32.22-.52.31.34-.13.62-.31.87-.52.59-.53.87-1.12.87-1.85,0-.55-.16-.96-.5-1.29-.13-.13-.59-.48-2.23-1.18-1.3-.56-1.73-.86-1.96-1.06-.48-.4-.74-.95-.74-1.57s.25-1.16.71-1.58ZM109.1,26.91s-.04.05-.06.08c-.51.72-.76,1.52-.76,2.46,0,.66.13,1.2.4,1.64-.15-.36-.23-.77-.23-1.22,0-.06,0-.15,0-.26.02-.3.17-.57.39-.74-.15-.22-.2-.48-.15-.74.08-.46.22-.86.39-1.22ZM119.45,30.55c-.29.08-.37.15-.38.15.15-.07.27-.1.38-.15ZM78.11,30.7h0c.15-.06.27-.1.38-.15-.26.08-.36.14-.38.15ZM110.87,30.66c.13.05.3.06.47,0h-.47ZM94.54,30.53c.15,0,.29.03.42.09l.67-3.17c-.09.03-.19.05-.3.05h-.51l-.57,2.67c-.03.15-.06.28-.08.39.08,0,.17-.02.28-.03.03,0,.06,0,.09,0ZM129.58,27.3c-.13,0-.43,0-.79.6-.34.57-.5,1.18-.5,1.84,0,.33.07.56.19.7.25.27.6.23.94-.03.21-.16.39-.44.53-.83.17-.45.26-.89.26-1.29,0-.34-.08-.6-.24-.78-.2-.22-.33-.22-.39-.22ZM53.21,28.47s.04.03.06.05c.2.18.32.43.33.7.03.67.14.85.14.86.03.03.26.25,1.16.25.78,0,1.03-.17,1.08-.2.14-.11.14-.17.14-.22,0,0-.07-.1-.08-.1-.02-.01-.26-.19-1.39-.68-.58-.25-1.06-.47-1.45-.67ZM74.98,27.21c-.04.29-.12.64-.21,1.07l-.09.42c.11-.15.24-.3.38-.43.15-.14.31-.27.5-.39-.17-.08-.33-.2-.43-.37-.06-.09-.11-.2-.13-.3ZM114.11,28.66h.09c.01-.15.02-.31.02-.47,0-.42-.05-.79-.14-1.11.08.3.12.63.12.99,0,.07,0,.16,0,.28,0,.11-.03.21-.06.3ZM101.3,27.62c.08.04.16.08.24.13.22.15.43.35.62.59-.01-.13,0-.27.04-.4.05-.16.13-.29.24-.41-.32.04-.7.07-1.14.08ZM116.19,27.66c.01.14.02.29.02.43.09-.08.19-.15.3-.21-.12-.05-.23-.13-.32-.22ZM111.33,27.3h.66c-.08-.07-.25-.24-.66,0ZM104.77,26.3h0c-.22.3-.5.56-.82.76.48-.15.85-.38,1.11-.66.41-.45.61-1.01.61-1.73,0-.5-.1-.89-.3-1.21-.18-.29-.4-.48-.68-.58-.18-.07-.48-.14-.97-.18.24.05.43.12.6.22.65.39,1,1.03,1,1.79,0,.57-.18,1.11-.55,1.6ZM100.43,25.64h.03c1.61,0,2.09-.13,2.19-.17.23-.08.4-.2.51-.36,0,0,0,0,0,0,.14-.19.16-.33.16-.41.02-.05-.18-.12-.87-.12h-1.8l-.22,1.05ZM55.84,24.33c-.6,0-.77.12-.77.12-.05.04-.05.05-.05.09.1.11.39.32,1.49.79.23.1.44.19.64.28-.1-.14-.17-.3-.19-.49-.04-.43-.2-.56-.25-.61-.15-.13-.45-.2-.86-.2ZM57.66,22.76c.12.07.23.15.34.24.31.27.55.6.71.98h.25c-.14-.32-.35-.59-.62-.82-.19-.16-.42-.3-.68-.41ZM137.83,22.67h.18s-.18,0-.18,0Z"/>
          </g>
          <g>
            <path class="cls-6" d="M5.96,13.85L30.02,4.72l-.17-3.72S15.02,9.72,5.96,13.85Z"/>
            <g>
              <polygon class="cls-3" points="1.13 14.76 5.96 13.85 30.02 4.72 35.4 4.93 35.53 7.91 40.8 8.87 40.9 11.25 46.25 12.85 5.96 21.29 1.13 14.76"/>
              <path class="cls-2" d="M46.25,63.14c0,2.54-2.04,4.6-4.56,4.6H5.56c-2.52,0-4.56-2.06-4.56-4.6V21.08c0-2.54,2.04-.77,4.56-.77h36.13c2.52,0,4.56-1.78,4.56.77v42.06Z"/>
              <g>
                <path class="cls-3" d="M9.36,64.29l.43-.04c.02.17.07.31.14.42.07.11.19.2.34.27.16.07.33.1.52.1.17,0,.32-.03.46-.08.13-.05.23-.12.29-.21.06-.09.1-.19.1-.29s-.03-.2-.09-.28c-.06-.08-.16-.15-.31-.2-.09-.04-.29-.09-.61-.17-.31-.08-.53-.15-.66-.21-.16-.08-.29-.19-.37-.32-.08-.13-.12-.27-.12-.43,0-.17.05-.34.15-.49.1-.15.24-.26.43-.34.19-.08.4-.12.63-.12.25,0,.48.04.67.12.19.08.34.2.45.36.1.16.16.34.17.54l-.44.03c-.02-.21-.1-.37-.24-.48-.13-.11-.33-.16-.59-.16s-.47.05-.6.15c-.13.1-.19.22-.19.36,0,.12.04.22.13.3.09.08.31.16.68.24.37.08.62.16.75.22.2.09.35.21.44.35.1.14.14.3.14.49s-.05.35-.16.51c-.1.16-.25.29-.45.38-.2.09-.42.13-.66.13-.31,0-.57-.04-.78-.14-.21-.09-.37-.23-.49-.41-.12-.18-.18-.39-.19-.62Z"/>
                <path class="cls-3" d="M12.65,65.4v-2.49h.38v.35c.08-.12.18-.22.31-.29.13-.07.28-.11.44-.11.18,0,.33.04.45.12.12.08.2.18.25.32.2-.29.45-.44.77-.44.25,0,.44.07.57.21.13.13.2.34.2.63v1.71h-.42v-1.56c0-.17-.01-.29-.04-.36-.03-.08-.08-.13-.15-.18-.07-.05-.16-.07-.25-.07-.18,0-.32.06-.44.17-.12.11-.17.3-.17.56v1.44h-.42v-1.61c0-.19-.03-.33-.1-.42-.07-.09-.18-.14-.34-.14-.12,0-.23.03-.33.09-.1.06-.17.15-.22.27-.04.12-.07.29-.07.52v1.29h-.42Z"/>
                <path class="cls-3" d="M18.26,65.09c-.15.13-.3.23-.45.28-.15.06-.3.08-.47.08-.27,0-.49-.07-.63-.2-.15-.13-.22-.3-.22-.51,0-.12.03-.23.08-.33.06-.1.13-.18.22-.24.09-.06.19-.11.3-.14.08-.02.21-.04.38-.06.34-.04.59-.09.76-.15,0-.06,0-.09,0-.11,0-.17-.04-.29-.12-.36-.11-.09-.27-.14-.49-.14-.2,0-.35.04-.44.1-.1.07-.16.19-.21.37l-.41-.05c.04-.18.1-.32.19-.43.09-.11.21-.19.37-.25.16-.06.35-.09.57-.09s.39.03.52.08c.13.05.23.11.29.19.06.08.11.17.13.29.01.07.02.2.02.39v.56c0,.39,0,.64.02.74.02.1.05.2.1.3h-.43c-.04-.09-.07-.19-.08-.31ZM18.22,64.15c-.15.06-.38.12-.69.16-.17.02-.3.05-.37.08-.07.03-.13.08-.17.14-.04.06-.06.13-.06.2,0,.11.04.2.13.28.09.07.21.11.38.11s.31-.04.44-.11.22-.17.28-.29c.05-.1.07-.23.07-.42v-.15Z"/>
                <path class="cls-3" d="M19.3,65.4v-2.49h.38v.38c.1-.18.19-.29.27-.35.08-.06.17-.08.27-.08.14,0,.29.05.43.14l-.15.39c-.1-.06-.2-.09-.31-.09-.09,0-.17.03-.25.08-.07.06-.12.13-.16.23-.05.15-.07.31-.07.49v1.3h-.42Z"/>
                <path class="cls-3" d="M21.82,65.02l.05.37c-.12.02-.22.04-.32.04-.15,0-.27-.02-.36-.07-.08-.05-.14-.11-.18-.19-.03-.08-.05-.24-.05-.5v-1.43h-.31v-.33h.31v-.61l.42-.25v.87h.43v.33h-.43v1.45c0,.12,0,.2.02.23.02.03.04.06.07.08.03.02.08.03.15.03.05,0,.11,0,.19-.01Z"/>
                <path class="cls-3" d="M23.62,65.4v-3.43h1.52c.31,0,.54.03.7.09.16.06.28.17.38.33.1.16.14.33.14.52,0,.24-.08.45-.24.62-.16.17-.4.27-.73.32.12.06.21.11.27.17.13.12.26.27.38.46l.59.93h-.57l-.45-.71c-.13-.21-.24-.36-.33-.47-.09-.11-.16-.19-.23-.23-.07-.04-.14-.08-.21-.09-.05-.01-.14-.02-.25-.02h-.53v1.52h-.45ZM24.07,63.48h.97c.21,0,.37-.02.49-.06.12-.04.21-.11.27-.21.06-.09.09-.2.09-.31,0-.16-.06-.29-.18-.4-.12-.1-.3-.16-.56-.16h-1.08v1.13Z"/>
                <path class="cls-3" d="M28.71,64.59l.43.05c-.07.25-.2.45-.38.59-.19.14-.42.21-.71.21-.36,0-.65-.11-.86-.34-.21-.22-.32-.54-.32-.94s.11-.74.32-.97c.21-.23.49-.35.84-.35s.6.11.81.34c.21.23.31.54.31.95,0,.03,0,.06,0,.11h-1.86c.02.27.09.48.23.63.14.15.31.22.52.22.15,0,.29-.04.4-.12.11-.08.2-.21.26-.39ZM27.33,63.91h1.39c-.02-.21-.07-.36-.16-.47-.13-.16-.31-.24-.52-.24-.19,0-.36.07-.49.19-.13.13-.21.3-.22.51Z"/>
                <path class="cls-3" d="M31.31,65.09c-.15.13-.3.23-.45.28-.14.06-.3.08-.47.08-.28,0-.49-.07-.63-.2-.15-.13-.22-.3-.22-.51,0-.12.03-.23.08-.33.06-.1.13-.18.22-.24.09-.06.19-.11.31-.14.08-.02.21-.04.38-.06.34-.04.59-.09.76-.15,0-.06,0-.09,0-.11,0-.17-.04-.29-.12-.36-.11-.09-.27-.14-.48-.14-.2,0-.35.04-.44.1-.09.07-.16.19-.21.37l-.41-.05c.04-.18.1-.32.19-.43.09-.11.21-.19.37-.25.16-.06.35-.09.56-.09s.39.03.52.08c.13.05.23.11.29.19.06.08.11.17.13.29.01.07.02.2.02.39v.56c0,.39,0,.64.03.74.02.1.05.2.1.3h-.43c-.04-.09-.07-.19-.08-.31ZM31.27,64.15c-.15.06-.38.12-.69.16-.17.02-.3.05-.37.08-.07.03-.13.08-.17.14-.04.06-.06.13-.06.2,0,.11.04.2.13.28.09.07.21.11.38.11s.31-.04.44-.11c.13-.07.22-.17.28-.29.05-.1.07-.23.07-.42v-.15Z"/>
                <path class="cls-3" d="M33.95,65.4v-.32c-.16.25-.39.37-.69.37-.2,0-.38-.05-.55-.16-.17-.11-.29-.26-.38-.46-.09-.2-.14-.42-.14-.67s.04-.47.12-.67c.08-.2.21-.36.37-.46.17-.11.35-.16.55-.16.15,0,.28.03.4.1s.21.15.28.25v-1.23h.42v3.43h-.39ZM32.62,64.16c0,.32.07.56.2.71.13.16.29.24.48.24s.34-.07.47-.22c.13-.15.19-.38.19-.69,0-.34-.06-.59-.2-.75-.13-.16-.29-.24-.48-.24s-.34.08-.47.23c-.13.15-.19.39-.19.72Z"/>
                <path class="cls-3" d="M35.01,62.45v-.48h.42v.48h-.42ZM35.01,65.4v-2.49h.42v2.49h-.42Z"/>
                <path class="cls-3" d="M36.07,65.4v-2.49h.38v.35c.18-.27.44-.41.79-.41.15,0,.29.03.41.08s.22.12.28.21c.06.09.1.19.13.31.02.08.02.21.02.41v1.53h-.42v-1.51c0-.17-.02-.3-.05-.38-.03-.08-.09-.15-.17-.2-.08-.05-.18-.08-.29-.08-.18,0-.33.06-.46.17-.13.11-.2.33-.2.65v1.36h-.42Z"/>
                <path class="cls-3" d="M38.66,65.6l.41.05c.02.13.07.22.14.28.1.08.25.12.43.12.2,0,.35-.04.45-.12.11-.08.18-.19.22-.33.02-.09.03-.27.03-.54-.18.22-.42.32-.69.32-.34,0-.61-.12-.8-.37-.19-.25-.28-.54-.28-.89,0-.24.04-.46.13-.66.09-.2.21-.35.37-.46.16-.11.36-.16.58-.16.3,0,.54.12.73.36v-.31h.38v2.15c0,.39-.04.66-.12.82-.08.16-.2.29-.37.38-.17.09-.38.14-.63.14-.3,0-.53-.07-.72-.2-.18-.13-.27-.33-.26-.6ZM39.01,64.11c0,.33.07.56.2.71.13.15.29.22.49.22s.36-.07.49-.22c.13-.15.2-.38.2-.7s-.07-.53-.2-.69c-.13-.15-.3-.23-.49-.23s-.35.08-.48.23c-.13.15-.2.38-.2.68Z"/>
              </g>
              <path class="cls-2" d="M1.13,14.76l3.58,3.83s19.81-5.24,41.55-5.75h0v11.25H1l.13-9.33Z"/>
              <path class="cls-2" d="M8.83,14.62s24.63-6.47,26.71-6.71l-.13-2.98S13.09,13.09,8.83,14.62Z"/>
              <path class="cls-4" d="M10.82,15.87s25.89-4.89,30.08-4.62l-.11-2.38s-27.19,5.84-29.98,7.01Z"/>
              <g>
                <g>
                  <path class="cls-1" d="M5.93,28.91c-.18-.8.51-1.51.53-1.72.07-.69.58-1.28,1.15-1.72,1.02-.79,2.02-1.62,3-2.44.67-.56,1.3-1.39,2.13-1.5.19-.03.46-.01.63-.08.34-.14.61-.58.9-.8.39-.29.65-.32,1.1-.4.76-.15,1.6-.36,2.33-.62.8-.28,1.57-.51,2.41-.71.89-.21,1.8-.15,2.7-.17,1.2-.02,2.38-.17,3.57-.16.57,0,1.14.03,1.7.14.97.19,1.8.82,2.81,1.01.56.11,1.13.19,1.7.31.33.07.69.08.99.27.36.24.69.51,1.05.76.9.61,1.55,1.53,2.4,2.23.55.45,1.31.74,1.82,1.16.35.28.63.58,1.05.8.43.22,1.01.31,1.37.67.35.35.6.92.87,1.33.2.29.4.54.56.83.16.3.24.6.38.9.24.53.45.74.16,1.15-.26.36-.11.38.2.88.22.35.2.64.32,1.03.2.58.6,1.12.78,1.68.18.56.2,1.23.3,1.81.16.92.5,1.88.53,2.78,0,.2.06.53,0,.7-.1.26-.4.4-.52.66-.24.51-.48,1.3-.94,1.66-.25.2-.34.03-.73.02-.33,0-.52.12-.59.45-.13.55.04,1.25,0,1.83-.06.77-.53,1.53-1.11,1.95-.3.22-.7.23-.98.48-.33.3-.54.71-.93.94-.47.29-1.02.51-1.56.73-.36.14-.72.37-1.14.4-.32.02-.65-.08-.97-.07-.96.03-1.67.44-2.7.2-.31-.07-.69-.25-.94-.45-.55-.45-.39-.85-.52-1.42-.17-.75-.63-1.64-1.07-2.24-.73-1.01.17-1.87.24-2.85.08-1.16-.99-1.79-1.57-2.69-.21-.32-.49-.89-.49-1.28,0-.33.34-.45.31-.77-.05-.71-1.07-.47-1.49-.66-.24-.11-.4-.5-.57-.71-.25-.29-.56-.58-.87-.81-.36-.27-.77-.4-1.19-.59-.26-.12-.52-.23-.83-.16-.42.1-.91.63-1.27.89-.47.33-.93.69-1.38,1.06-.3.24-.59.55-.78.88-.16.28-.21.69-.48.9-.88.69-.53-.68-.66-1.04-.11-.29-.39-.14-.65-.37-.26-.23-.29-.72-.53-.93-.03-.05-.06-.1-.09-.15-.36.07-.63.77-.83,1.07-.19.29-.44.63-.72.84-.27.2-.57.26-.86.44-.34.2-.4.4-.61.74-.35.57-.77.21-1.27.53-.24.16-.27.37-.56.48-.33.12-.67-.07-.97-.15-.62-.16-1.24-.07-1.92.06-.9.18-1.46.19-2.3-.03-.62-.16-1.23-.13-1.9-.18-1.01-.06-1.36-1.12-1.35-2.06,0-.56,0-1.11-.04-1.66-.04-.46-.19-.89-.2-1.35,0,0-.31-.75.73-1.68,1.05-.92.28-.13-.07-.67-.2-.3.61-1.47.41-2.37Z"/>
                  <path class="cls-2" d="M33.86,48.61c-.22,0-.46-.02-.71-.08-.35-.08-.76-.28-1.04-.5-.48-.39-.51-.77-.55-1.15-.01-.13-.02-.26-.06-.41-.18-.78-.66-1.65-1.03-2.15-.56-.77-.29-1.48-.06-2.11.12-.31.23-.61.25-.91.05-.69-.38-1.17-.87-1.72-.23-.25-.46-.52-.66-.81-.19-.3-.53-.93-.53-1.41,0-.25.12-.41.21-.53.08-.11.11-.16.11-.23-.02-.23-.2-.29-.73-.33-.23-.02-.45-.04-.62-.12-.22-.11-.37-.34-.5-.54-.05-.08-.11-.17-.16-.23-.24-.28-.54-.56-.83-.78-.23-.17-.49-.29-.77-.4-.12-.05-.25-.1-.37-.16-.23-.11-.44-.2-.66-.15-.23.05-.54.32-.8.54-.14.12-.27.23-.39.31-.46.32-.91.68-1.37,1.05-.29.23-.55.53-.72.81-.05.09-.09.19-.13.3-.09.23-.18.5-.42.68-.19.15-.47.33-.73.2-.3-.15-.3-.56-.3-.96,0-.14,0-.33-.02-.39-.01-.03-.01-.03-.12-.06-.12-.03-.29-.06-.46-.21-.17-.15-.26-.38-.34-.57-.06-.14-.12-.29-.19-.36,0,0,0,0,0,0-.13.14-.28.41-.37.57-.06.12-.12.22-.17.3-.2.3-.46.67-.78.9-.17.13-.35.21-.53.28-.12.05-.24.1-.35.17-.21.13-.28.24-.41.46-.04.06-.07.13-.12.2-.27.44-.61.47-.88.48-.17.01-.31.02-.47.12-.07.04-.12.1-.17.17-.09.11-.21.25-.44.33-.34.12-.66.01-.91-.08-.07-.02-.14-.05-.2-.06-.54-.14-1.09-.08-1.81.06-.99.2-1.58.19-2.42-.04-.43-.11-.86-.13-1.32-.14-.17,0-.35-.01-.53-.02-1.17-.07-1.59-1.24-1.59-2.31,0-.57,0-1.1-.04-1.64-.02-.2-.06-.39-.09-.57-.05-.24-.1-.49-.11-.75-.06-.21-.21-1,.81-1.91l.13-.11c-.09-.05-.17-.12-.24-.23-.15-.23-.04-.56.12-1,.16-.45.35-1,.26-1.45h0c-.15-.68.21-1.27.42-1.62.04-.07.1-.17.11-.2.06-.65.48-1.29,1.24-1.87,1.01-.79,1.99-1.6,3-2.44.17-.14.33-.29.49-.45.52-.5,1.06-1.01,1.77-1.11.07,0,.15-.02.23-.02.12,0,.27-.02.35-.05.15-.06.31-.24.47-.4.12-.13.24-.26.37-.36.4-.3.69-.35,1.1-.43l.11-.02c.8-.16,1.62-.37,2.29-.61.8-.28,1.58-.51,2.44-.72.72-.17,1.45-.17,2.15-.17.2,0,.4,0,.6,0,.52,0,1.04-.04,1.55-.08.66-.04,1.35-.09,2.03-.08.58,0,1.16.03,1.74.14.51.1.98.31,1.43.51.44.2.9.41,1.38.5.24.05.47.09.71.13.33.06.66.11.99.18.08.02.16.03.23.04.27.04.57.09.84.27.19.13.38.26.56.4.16.12.33.25.5.36.53.37.98.83,1.42,1.28.32.33.64.67,1,.96.26.22.59.4.91.58.32.18.64.36.91.58.1.08.19.16.28.24.23.2.45.39.73.53.14.07.3.13.46.19.33.12.7.25.97.53.26.26.46.61.65.94.09.15.17.29.25.42.06.1.13.19.2.28.13.18.26.36.37.57.1.18.17.37.24.55.05.12.09.24.15.36.04.09.08.17.12.24.19.38.35.7.02,1.16-.08.11-.08.14-.09.15,0,.03.07.12.12.2.05.07.11.16.17.26.16.26.21.5.26.72.02.11.05.23.09.36.09.26.22.52.37.79.15.29.31.59.41.9.12.4.18.83.23,1.25.02.2.05.4.08.59.06.34.14.68.22,1.03.14.59.29,1.2.31,1.79v.15c.03.22.05.46-.02.65-.07.19-.2.32-.32.43-.09.08-.17.16-.21.25-.05.11-.11.24-.16.37-.21.5-.44,1.06-.85,1.37-.25.2-.44.15-.61.12-.08-.02-.17-.04-.29-.04-.23,0-.29.07-.33.26-.07.29-.04.64-.02.99.02.27.04.55.02.81-.06.8-.53,1.64-1.21,2.13-.17.13-.36.19-.53.25-.17.06-.32.11-.43.21-.12.11-.23.24-.33.36-.18.22-.37.44-.64.61-.48.29-1.03.51-1.56.73-.12.05-.21.09-.3.13-.28.13-.59.27-.94.29-.19.01-.38-.01-.56-.03-.14-.02-.28-.04-.43-.03-.34,0-.64.07-.97.13-.34.07-.7.14-1.09.14ZM24.43,33.37c.27,0,.52.1.74.21.12.05.23.1.35.15.29.12.6.25.88.46.32.24.63.54.9.85.07.08.13.18.2.29.09.14.2.31.29.36.09.04.27.06.45.07.45.04,1.13.1,1.18.79.02.26-.11.43-.2.56-.07.1-.11.16-.11.23,0,.3.24.82.45,1.15.17.26.39.51.61.75.52.58,1.06,1.18,1,2.09-.03.37-.16.72-.28,1.05-.23.6-.41,1.08,0,1.64.39.55.92,1.49,1.11,2.33.04.17.05.32.07.47.03.35.05.55.37.81.22.18.55.34.83.4.59.14,1.07.04,1.58-.06.33-.07.67-.13,1.05-.14.16,0,.33.02.5.04.16.02.32.04.46.03.26-.02.5-.13.76-.25.1-.05.2-.09.3-.13.54-.22,1.08-.44,1.52-.71.2-.12.35-.31.52-.5.12-.14.24-.29.38-.41.18-.17.4-.24.6-.31.15-.05.29-.1.4-.18.55-.4.95-1.11,1-1.77.02-.23,0-.47-.02-.74-.03-.38-.05-.77.03-1.13.1-.43.36-.64.84-.65.17,0,.29.03.39.05.12.03.12.03.19-.02.3-.23.51-.73.7-1.17.06-.14.11-.27.17-.39.08-.16.2-.29.31-.39.09-.09.17-.17.2-.25.03-.08.01-.3,0-.43v-.17c-.03-.54-.17-1.13-.31-1.69-.09-.36-.17-.71-.23-1.06-.03-.2-.06-.41-.08-.62-.05-.4-.1-.81-.21-1.16-.08-.27-.22-.53-.37-.81-.15-.28-.3-.56-.4-.87-.05-.15-.08-.29-.11-.42-.04-.21-.08-.37-.19-.56-.06-.1-.11-.18-.16-.24-.21-.31-.32-.51-.03-.92.15-.21.12-.29-.06-.65-.04-.08-.08-.16-.12-.25-.06-.13-.11-.26-.16-.39-.06-.16-.12-.33-.21-.49-.1-.18-.21-.34-.34-.52-.07-.1-.14-.19-.21-.3-.09-.14-.18-.29-.27-.45-.18-.31-.36-.63-.57-.84-.19-.2-.48-.3-.79-.41-.18-.07-.36-.13-.52-.21-.33-.17-.58-.39-.83-.6-.09-.08-.18-.15-.27-.23-.24-.19-.53-.36-.84-.53-.34-.19-.69-.39-.98-.63-.38-.31-.71-.66-1.04-1-.44-.45-.85-.88-1.34-1.22-.18-.12-.35-.25-.52-.38-.18-.13-.35-.26-.53-.38-.18-.11-.4-.15-.64-.19-.09-.01-.17-.03-.26-.04-.32-.07-.65-.12-.97-.18-.24-.04-.48-.08-.72-.13-.54-.1-1.02-.32-1.49-.53-.45-.2-.87-.39-1.32-.48-.55-.11-1.1-.12-1.66-.13-.67-.01-1.34.04-1.99.08-.52.03-1.05.07-1.58.08-.2,0-.41,0-.61,0-.71,0-1.37,0-2.03.16-.84.2-1.6.42-2.39.7-.7.25-1.54.47-2.37.63l-.11.02c-.38.07-.58.11-.89.34-.1.07-.2.18-.31.3-.19.21-.39.43-.65.53-.15.06-.34.07-.5.08-.07,0-.14,0-.19.02-.55.07-1.03.53-1.49.98-.17.16-.34.33-.52.47-1.01.84-1.99,1.66-3.01,2.45-.44.34-.99.89-1.06,1.55-.01.11-.08.22-.17.38-.19.31-.46.77-.36,1.25.13.58-.09,1.21-.27,1.72-.08.21-.18.51-.16.59.05.08.13.09.28.06.11-.02.28.04.33.14.08.18-.02.28-.26.48l-.33.28c-.88.78-.67,1.37-.66,1.4,0,.03.02.06.02.09,0,.23.05.46.1.7.04.21.08.42.1.63.05.56.05,1.13.04,1.68,0,.29.05,1.74,1.12,1.81.18.01.35.02.52.02.49.02.94.03,1.43.16.77.21,1.28.21,2.19.03.64-.13,1.33-.23,2.03-.06.08.02.16.05.24.07.21.07.41.14.58.08.1-.04.15-.09.22-.18.07-.08.15-.18.29-.27.26-.17.5-.18.7-.2.23-.02.35-.03.49-.25.04-.07.08-.13.11-.19.14-.24.26-.45.59-.64.14-.08.27-.14.41-.2.16-.07.3-.13.43-.22.26-.19.49-.51.66-.77.05-.07.09-.16.15-.26.2-.37.45-.83.83-.91.11-.02.21.02.26.11l.07.12c.15.14.22.34.3.52.06.15.12.31.21.38.07.06.14.08.23.1.15.03.38.08.48.37.05.15.05.34.05.57,0,.14,0,.38.03.49.04-.02.1-.05.19-.13.12-.09.19-.27.26-.46.05-.13.1-.26.16-.37.2-.34.49-.68.84-.96.46-.37.92-.73,1.39-1.07.11-.08.23-.18.35-.28.31-.26.66-.56,1.01-.64.09-.02.17-.03.25-.03Z"/>
                </g>
                <g class="cls-7">
                  <path class="cls-1" d="M5.93,28.91c-.18-.8.51-1.51.53-1.72.07-.69.58-1.28,1.15-1.72,1.02-.79,2.02-1.62,3-2.44.67-.56,1.3-1.39,2.13-1.5.19-.03.46-.01.63-.08.34-.14.61-.58.9-.8.39-.29.65-.32,1.1-.4.76-.15,1.6-.36,2.33-.62.8-.28,1.57-.51,2.41-.71.89-.21,1.8-.15,2.7-.17,1.2-.02,2.38-.17,3.57-.16.57,0,1.14.03,1.7.14.97.19,1.8.82,2.81,1.01.56.11,1.13.19,1.7.31.33.07.69.08.99.27.36.24.69.51,1.05.76.9.61,1.55,1.53,2.4,2.23.55.45,1.31.74,1.82,1.16.35.28.63.58,1.05.8.43.22,1.01.31,1.37.67.35.35.6.92.87,1.33.2.29.4.54.56.83.16.3.24.6.38.9.24.53.45.74.16,1.15-.26.36-.11.38.2.88.22.35.2.64.32,1.03.2.58.6,1.12.78,1.68.18.56.2,1.23.3,1.81.16.92.5,1.88.53,2.78,0,.2.06.53,0,.7-.1.26-.4.4-.52.66-.24.51-.48,1.3-.94,1.66-.25.2-.34.03-.73.02-.33,0-.52.12-.59.45-.13.55.04,1.25,0,1.83-.06.77-.53,1.53-1.11,1.95-.3.22-.7.23-.98.48-.33.3-.54.71-.93.94-.47.29-1.02.51-1.56.73-.36.14-.72.37-1.14.4-.32.02-.65-.08-.97-.07-.96.03-1.67.44-2.7.2-.31-.07-.69-.25-.94-.45-.55-.45-.39-.85-.52-1.42-.17-.75-.63-1.64-1.07-2.24-.73-1.01.17-1.87.24-2.85.08-1.16-.99-1.79-1.57-2.69-.21-.32-.49-.89-.49-1.28,0-.33.34-.45.31-.77-.05-.71-1.07-.47-1.49-.66-.24-.11-.4-.5-.57-.71-.25-.29-.56-.58-.87-.81-.36-.27-.77-.4-1.19-.59-.26-.12-.52-.23-.83-.16-.42.1-.91.63-1.27.89-.47.33-.93.69-1.38,1.06-.3.24-.59.55-.78.88-.16.28-.21.69-.48.9-.88.69-.53-.68-.66-1.04-.11-.29-.39-.14-.65-.37-.26-.23-.29-.72-.53-.93-.03-.05-.06-.1-.09-.15-.36.07-.63.77-.83,1.07-.19.29-.44.63-.72.84-.27.2-.57.26-.86.44-.34.2-.4.4-.61.74-.35.57-.77.21-1.27.53-.24.16-.27.37-.56.48-.33.12-.67-.07-.97-.15-.62-.16-1.24-.07-1.92.06-.9.18-1.46.19-2.3-.03-.62-.16-1.23-.13-1.9-.18-1.01-.06-1.36-1.12-1.35-2.06,0-.56,0-1.11-.04-1.66-.04-.46-.19-.89-.2-1.35,0,0-.31-.75.73-1.68,1.05-.92.28-.13-.07-.67-.2-.3.61-1.47.41-2.37Z"/>
                  <path class="cls-2" d="M33.86,48.61c-.22,0-.46-.02-.71-.08-.35-.08-.76-.28-1.04-.5-.48-.39-.51-.77-.55-1.15-.01-.13-.02-.26-.06-.41-.18-.78-.66-1.65-1.03-2.15-.56-.77-.29-1.48-.06-2.11.12-.31.23-.61.25-.91.05-.69-.38-1.17-.87-1.72-.23-.25-.46-.52-.66-.81-.19-.3-.53-.93-.53-1.41,0-.25.12-.41.21-.53.08-.11.11-.16.11-.23-.02-.23-.2-.29-.73-.33-.23-.02-.45-.04-.62-.12-.22-.11-.37-.34-.5-.54-.05-.08-.11-.17-.16-.23-.24-.28-.54-.56-.83-.78-.23-.17-.49-.29-.77-.4-.12-.05-.25-.1-.37-.16-.23-.11-.44-.2-.66-.15-.23.05-.54.32-.8.54-.14.12-.27.23-.39.31-.46.32-.91.68-1.37,1.05-.29.23-.55.53-.72.81-.05.09-.09.19-.13.3-.09.23-.18.5-.42.68-.19.15-.47.33-.73.2-.3-.15-.3-.56-.3-.96,0-.14,0-.33-.02-.39-.01-.03-.01-.03-.12-.06-.12-.03-.29-.06-.46-.21-.17-.15-.26-.38-.34-.57-.06-.14-.12-.29-.19-.36,0,0,0,0,0,0-.13.14-.28.41-.37.57-.06.12-.12.22-.17.3-.2.3-.46.67-.78.9-.17.13-.35.21-.53.28-.12.05-.24.1-.35.17-.21.13-.28.24-.41.46-.04.06-.07.13-.12.2-.27.44-.61.47-.88.48-.17.01-.31.02-.47.12-.07.04-.12.1-.17.17-.09.11-.21.25-.44.33-.34.12-.66.01-.91-.08-.07-.02-.14-.05-.2-.06-.54-.14-1.09-.08-1.81.06-.99.2-1.58.19-2.42-.04-.43-.11-.86-.13-1.32-.14-.17,0-.35-.01-.53-.02-1.17-.07-1.59-1.24-1.59-2.31,0-.57,0-1.1-.04-1.64-.02-.2-.06-.39-.09-.57-.05-.24-.1-.49-.11-.75-.06-.21-.21-1,.81-1.91l.13-.11c-.09-.05-.17-.12-.24-.23-.15-.23-.04-.56.12-1,.16-.45.35-1,.26-1.45h0c-.15-.68.21-1.27.42-1.62.04-.07.1-.17.11-.2.06-.65.48-1.29,1.24-1.87,1.01-.79,1.99-1.6,3-2.44.17-.14.33-.29.49-.45.52-.5,1.06-1.01,1.77-1.11.07,0,.15-.02.23-.02.12,0,.27-.02.35-.05.15-.06.31-.24.47-.4.12-.13.24-.26.37-.36.4-.3.69-.35,1.1-.43l.11-.02c.8-.16,1.62-.37,2.29-.61.8-.28,1.58-.51,2.44-.72.72-.17,1.45-.17,2.15-.17.2,0,.4,0,.6,0,.52,0,1.04-.04,1.55-.08.66-.04,1.35-.09,2.03-.08.58,0,1.16.03,1.74.14.51.1.98.31,1.43.51.44.2.9.41,1.38.5.24.05.47.09.71.13.33.06.66.11.99.18.08.02.16.03.23.04.27.04.57.09.84.27.19.13.38.26.56.4.16.12.33.25.5.36.53.37.98.83,1.42,1.28.32.33.64.67,1,.96.26.22.59.4.91.58.32.18.64.36.91.58.1.08.19.16.28.24.23.2.45.39.73.53.14.07.3.13.46.19.33.12.7.25.97.53.26.26.46.61.65.94.09.15.17.29.25.42.06.1.13.19.2.28.13.18.26.36.37.57.1.18.17.37.24.55.05.12.09.24.15.36.04.09.08.17.12.24.19.38.35.7.02,1.16-.08.11-.08.14-.09.15,0,.03.07.12.12.2.05.07.11.16.17.26.16.26.21.5.26.72.02.11.05.23.09.36.09.26.22.52.37.79.15.29.31.59.41.9.12.4.18.83.23,1.25.02.2.05.4.08.59.06.34.14.68.22,1.03.14.59.29,1.2.31,1.79v.15c.03.22.05.46-.02.65-.07.19-.2.32-.32.43-.09.08-.17.16-.21.25-.05.11-.11.24-.16.37-.21.5-.44,1.06-.85,1.37-.25.2-.44.15-.61.12-.08-.02-.17-.04-.29-.04-.23,0-.29.07-.33.26-.07.29-.04.64-.02.99.02.27.04.55.02.81-.06.8-.53,1.64-1.21,2.13-.17.13-.36.19-.53.25-.17.06-.32.11-.43.21-.12.11-.23.24-.33.36-.18.22-.37.44-.64.61-.48.29-1.03.51-1.56.73-.12.05-.21.09-.3.13-.28.13-.59.27-.94.29-.19.01-.38-.01-.56-.03-.14-.02-.28-.04-.43-.03-.34,0-.64.07-.97.13-.34.07-.7.14-1.09.14ZM24.43,33.37c.27,0,.52.1.74.21.12.05.23.1.35.15.29.12.6.25.88.46.32.24.63.54.9.85.07.08.13.18.2.29.09.14.2.31.29.36.09.04.27.06.45.07.45.04,1.13.1,1.18.79.02.26-.11.43-.2.56-.07.1-.11.16-.11.23,0,.3.24.82.45,1.15.17.26.39.51.61.75.52.58,1.06,1.18,1,2.09-.03.37-.16.72-.28,1.05-.23.6-.41,1.08,0,1.64.39.55.92,1.49,1.11,2.33.04.17.05.32.07.47.03.35.05.55.37.81.22.18.55.34.83.4.59.14,1.07.04,1.58-.06.33-.07.67-.13,1.05-.14.16,0,.33.02.5.04.16.02.32.04.46.03.26-.02.5-.13.76-.25.1-.05.2-.09.3-.13.54-.22,1.08-.44,1.52-.71.2-.12.35-.31.52-.5.12-.14.24-.29.38-.41.18-.17.4-.24.6-.31.15-.05.29-.1.4-.18.55-.4.95-1.11,1-1.77.02-.23,0-.47-.02-.74-.03-.38-.05-.77.03-1.13.1-.43.36-.64.84-.65.17,0,.29.03.39.05.12.03.12.03.19-.02.3-.23.51-.73.7-1.17.06-.14.11-.27.17-.39.08-.16.2-.29.31-.39.09-.09.17-.17.2-.25.03-.08.01-.3,0-.43v-.17c-.03-.54-.17-1.13-.31-1.69-.09-.36-.17-.71-.23-1.06-.03-.2-.06-.41-.08-.62-.05-.4-.1-.81-.21-1.16-.08-.27-.22-.53-.37-.81-.15-.28-.3-.56-.4-.87-.05-.15-.08-.29-.11-.42-.04-.21-.08-.37-.19-.56-.06-.1-.11-.18-.16-.24-.21-.31-.32-.51-.03-.92.15-.21.12-.29-.06-.65-.04-.08-.08-.16-.12-.25-.06-.13-.11-.26-.16-.39-.06-.16-.12-.33-.21-.49-.1-.18-.21-.34-.34-.52-.07-.1-.14-.19-.21-.3-.09-.14-.18-.29-.27-.45-.18-.31-.36-.63-.57-.84-.19-.2-.48-.3-.79-.41-.18-.07-.36-.13-.52-.21-.33-.17-.58-.39-.83-.6-.09-.08-.18-.15-.27-.23-.24-.19-.53-.36-.84-.53-.34-.19-.69-.39-.98-.63-.38-.31-.71-.66-1.04-1-.44-.45-.85-.88-1.34-1.22-.18-.12-.35-.25-.52-.38-.18-.13-.35-.26-.53-.38-.18-.11-.4-.15-.64-.19-.09-.01-.17-.03-.26-.04-.32-.07-.65-.12-.97-.18-.24-.04-.48-.08-.72-.13-.54-.1-1.02-.32-1.49-.53-.45-.2-.87-.39-1.32-.48-.55-.11-1.1-.12-1.66-.13-.67-.01-1.34.04-1.99.08-.52.03-1.05.07-1.58.08-.2,0-.41,0-.61,0-.71,0-1.37,0-2.03.16-.84.2-1.6.42-2.39.7-.7.25-1.54.47-2.37.63l-.11.02c-.38.07-.58.11-.89.34-.1.07-.2.18-.31.3-.19.21-.39.43-.65.53-.15.06-.34.07-.5.08-.07,0-.14,0-.19.02-.55.07-1.03.53-1.49.98-.17.16-.34.33-.52.47-1.01.84-1.99,1.66-3.01,2.45-.44.34-.99.89-1.06,1.55-.01.11-.08.22-.17.38-.19.31-.46.77-.36,1.25.13.58-.09,1.21-.27,1.72-.08.21-.18.51-.16.59.05.08.13.09.28.06.11-.02.28.04.33.14.08.18-.02.28-.26.48l-.33.28c-.88.78-.67,1.37-.66,1.4,0,.03.02.06.02.09,0,.23.05.46.1.7.04.21.08.42.1.63.05.56.05,1.13.04,1.68,0,.29.05,1.74,1.12,1.81.18.01.35.02.52.02.49.02.94.03,1.43.16.77.21,1.28.21,2.19.03.64-.13,1.33-.23,2.03-.06.08.02.16.05.24.07.21.07.41.14.58.08.1-.04.15-.09.22-.18.07-.08.15-.18.29-.27.26-.17.5-.18.7-.2.23-.02.35-.03.49-.25.04-.07.08-.13.11-.19.14-.24.26-.45.59-.64.14-.08.27-.14.41-.2.16-.07.3-.13.43-.22.26-.19.49-.51.66-.77.05-.07.09-.16.15-.26.2-.37.45-.83.83-.91.11-.02.21.02.26.11l.07.12c.15.14.22.34.3.52.06.15.12.31.21.38.07.06.14.08.23.1.15.03.38.08.48.37.05.15.05.34.05.57,0,.14,0,.38.03.49.04-.02.1-.05.19-.13.12-.09.19-.27.26-.46.05-.13.1-.26.16-.37.2-.34.49-.68.84-.96.46-.37.92-.73,1.39-1.07.11-.08.23-.18.35-.28.31-.26.66-.56,1.01-.64.09-.02.17-.03.25-.03Z"/>
                </g>
                <path class="cls-2" d="M8.83,39.2l-.3-.4c.22-.17.43-.32.64-.46,1-.71,1.72-1.23,1.8-2.5.06-.99-.18-1.85-.43-2.77-.16-.58-.33-1.18-.41-1.82-.31-2.38,1.75-4.98,4.33-5.45.1-.02,2.51-.5,3.38.38.19.19.39.53.28,1.08l-.49-.1c.06-.27,0-.47-.15-.63-.51-.51-2.07-.42-2.94-.24-2.34.43-4.21,2.76-3.93,4.9.08.6.24,1.18.4,1.75.26.92.52,1.86.45,2.94-.1,1.51-.98,2.14-2.01,2.87-.2.14-.41.29-.62.45Z"/>
                <path class="cls-2" d="M15.57,25.89c-.16-.52-.08-1.11.23-1.66.41-.71,1.17-1.28,1.94-1.45l.11.49c-.64.15-1.27.62-1.61,1.22-.17.3-.35.76-.19,1.26l-.48.15Z"/>
                <path class="cls-2" d="M16.71,37.09c-1.02,0-1.9-1.56-2.39-2.41l-.1-.17c-.91-1.57-1.08-2.94-1.08-4.91h.5c0,1.93.15,3.18,1.01,4.66l.1.18c.35.61,1.27,2.23,2.01,2.15l.06.5s-.08,0-.12,0Z"/>
                <path class="cls-2" d="M18.59,29.33c-.92,0-1.9-.34-2.7-.77l.24-.44c.4.22,2.47,1.27,3.76.33.71-.51,1.17-1.47,1.14-2.38-.02-.69-.31-1.24-.82-1.56l.27-.42c.65.41,1.02,1.11,1.05,1.97.04,1.09-.49,2.19-1.34,2.81-.46.33-1.02.47-1.6.47Z"/>
                <path class="cls-2" d="M17.7,36.18c-.13-.11-.23-.16-.33-.21-.14-.07-.28-.14-.44-.33-.39-.48-.5-1.19-.34-2.1.19-1.05.93-2.08,1.87-2.63.21-.12.44-.21.67-.29.42-.16.82-.3,1.02-.68.1-.19.14-.56.04-.75-.03-.06-.08-.09-.15-.09l.03-.5c.24.02.44.14.55.35.2.36.14.91-.04,1.23-.29.54-.82.74-1.29.91-.21.08-.42.15-.59.25-.81.47-1.47,1.4-1.63,2.29-.14.77-.06,1.34.23,1.7.09.11.16.14.27.2.11.05.25.12.43.27l-.32.38Z"/>
                <path class="cls-2" d="M9.95,29.55c-.32,0-.6-.07-.86-.2-.85-.46-1.18-1.56-1.47-2.54-.13-.45-.26-.87-.42-1.17l.44-.24c.18.34.32.79.46,1.27.26.88.56,1.88,1.23,2.24.35.19.78.19,1.32.03l.15.48c-.3.09-.58.14-.84.14Z"/>
                <path class="cls-2" d="M5.89,36.1c-.4,0-.75-.05-1.01-.15l.17-.47c.65.24,2.33.11,3.23-.54.39-.28.58-.63.57-1.03l.5-.02c.02.57-.24,1.07-.77,1.45-.69.5-1.79.75-2.68.75Z"/>
                <path class="cls-2" d="M7.38,35.57c-.49-1.58-.26-4.61,1.42-5.95l.31.39c-1.45,1.15-1.7,3.92-1.25,5.41l-.48.15Z"/>
                <path class="cls-2" d="M24.79,33.89l-.03-.5c.79-.05.98-1.63.98-2.46,0-.22,0-.44,0-.66.01-.79.02-1.54-.19-2.29-.23-.84-.69-1.63-1.14-2.4-.26-.45-.61-.84-.99-1.25-.66-.73-1.35-1.47-1.4-2.48-.05-.95.54-2.72,1.29-3.42l.34.37c-.58.54-1.18,2.13-1.13,3.03.04.82.64,1.47,1.27,2.16.37.41.76.83,1.03,1.3.48.83.96,1.65,1.21,2.55.23.82.22,1.64.21,2.43,0,.22,0,.43,0,.65,0,.48-.05,2.87-1.44,2.96Z"/>
                <path class="cls-2" d="M28.5,23.77c-.29,0-.56-.04-.78-.16-.71-.38-.77-.98-.83-1.51-.02-.2-.04-.39-.09-.57-.14-.51-.42-.81-.85-.91-1.07-.25-2.78.76-3.49,1.56l-.37-.33c.79-.89,2.66-2.02,3.97-1.72.43.1.98.4,1.22,1.26.06.22.08.44.11.65.05.5.09.86.57,1.12.26.14.77.13,1.41-.01.97-.22,1.11-.75,1.35-1.71l.25.03.24.06c-.26,1.03-.46,1.81-1.73,2.1-.29.07-.64.13-.98.13Z"/>
                <path class="cls-2" d="M26.76,30.14c-.12,0-.25,0-.38,0-.11,0-.22,0-.33,0v-.5c.12,0,.23,0,.35,0,.47.01.87.03,1.29-.15.84-.35,1.82-1.47,1.82-2.38h.5c0,1.15-1.13,2.42-2.13,2.84-.39.16-.75.19-1.12.19Z"/>
                <path class="cls-2" d="M30.44,27.4c-.19,0-.38-.01-.58-.04-.96-.13-2.29-1.08-2.21-2.27l.5.03c-.06.86,1.03,1.63,1.78,1.74,1.12.15,1.95-.18,2.53-1.01l.41.29c-.59.84-1.4,1.26-2.43,1.26Z"/>
                <path class="cls-2" d="M22.62,34.82c-.72-.03-1.24-1.04-1.42-2.03-.17-.89-.1-1.96.62-2.27l.2.46c-.35.16-.49.86-.33,1.72.17.88.59,1.6.95,1.62l-.02.5Z"/>
                <path class="cls-2" d="M28.46,36.35c-.58-1.32.21-1.96,1.04-2.63.29-.23.59-.48.87-.77.75-.79,1.56-1.08,2.82-.99.22.02.47.05.71.09.63.1,1.29.2,1.73-.05.46-.26.76-.7.88-1.31.26-1.32-.36-3.11-1.12-4.08l-.11-.14c-.72-.92-1.25-1.58-1.3-2.84-.02-.47,0-.93.04-1.38.03-.43.05-.88.04-1.32l.5-.02c.02.46,0,.92-.04,1.37-.03.44-.05.89-.04,1.33.04,1.1.47,1.64,1.19,2.55l.11.14c.81,1.04,1.52,2.96,1.21,4.48-.15.75-.54,1.32-1.13,1.64-.59.33-1.37.22-2.05.11-.23-.04-.46-.07-.67-.09-1.1-.08-1.77.15-2.42.83-.3.31-.63.58-.92.81-.89.72-1.3,1.11-.9,2.04l-.46.2Z"/>
                <path class="cls-2" d="M42.25,36h-.5c.06-2.71-1.94-4.86-4.85-5.24l.07-.5c3.18.42,5.35,2.78,5.29,5.74Z"/>
                <path class="cls-2" d="M45.32,38.68c-.78,0-1.08-.76-1.29-1.33-.06-.14-.11-.28-.17-.4-.33-.65-.49-.76-1.21-.85-.97-.11-1.16.27-1.46.9-.18.36-.38.78-.77,1.13l-.33-.37c.32-.28.49-.63.66-.97.32-.65.65-1.32,1.97-1.18.88.11,1.19.33,1.6,1.12.06.13.12.28.19.44.23.6.41,1.04.86,1l.02.5s-.03,0-.05,0Z"/>
                <path class="cls-2" d="M33.87,48.46c-.4-.01-.74-.2-.97-.55-1.02-1.52-.03-5.83.25-6.59.23-.63.59-.93.96-1.24.15-.12.31-.26.48-.43.61-.61.92-1.37,1.07-2.6.18-1.48.01-2.47-1.39-3.49l-.14-.11c-.52-.39-1.02-.75-1.62-.83l.07-.5c.73.1,1.3.52,1.85.92l.14.1c1.59,1.16,1.79,2.37,1.59,3.96-.12.94-.35,2.02-1.21,2.89-.18.18-.35.32-.51.46-.36.3-.62.52-.81,1.03-.31.84-1.16,4.87-.3,6.14.15.22.33.33.58.33l-.02.5Z"/>
                <path class="cls-2" d="M37.81,47.78c-.7-.74-1.05-2.85-1.12-3.53-.08-.78-.24-2.24.4-2.88.18-.18.51-.32.9-.47.47-.19,1.1-.44,1.19-.74.01-.04.04-.15-.12-.37l.4-.3c.2.28.27.55.2.81-.15.53-.86.82-1.48,1.07-.29.12-.63.25-.73.36-.47.47-.32,1.88-.26,2.48.1.99.48,2.7.99,3.24l-.36.34Z"/>
                <path class="cls-2" d="M41.18,40.38c-.7,0-1.45-.21-2.19-.62-1.04-.58-1.19-1.33-1.34-2.13-.03-.18-.07-.36-.12-.56l.49-.12c.05.2.09.4.12.58.15.77.25,1.32,1.09,1.79,1.14.64,2.31.74,3.13.27l.25.43c-.42.24-.91.36-1.44.36Z"/>
                <path class="cls-2" d="M34.66,39.88c-1.74-.57-2.4-2.82-2.3-4.16l.5.04c-.09,1.23.54,3.19,1.96,3.65l-.16.48Z"/>
                <path class="cls-2" d="M36.58,28.25c-.14,0-.28-.02-.42-.06l.13-.48c.33.09.61.03.84-.16.43-.36.6-1.12.54-1.68l.5-.05c.07.67-.13,1.61-.72,2.11-.25.21-.55.32-.87.32Z"/>
                <path class="cls-2" d="M35.71,32.25c-.77,0-1.64-.8-2.08-1.32-.46-.56-.45-1.11-.43-1.65v-.25s.5,0,.5,0v.26c-.02.51-.02.91.32,1.32.46.56,1.34,1.28,1.84,1.12l.15.48c-.1.03-.2.05-.3.05Z"/>
                <path class="cls-2" d="M37.18,45.48c-1.5-.21-2.49-.44-3.5-1.94l.41-.28c.87,1.28,1.63,1.51,3.16,1.72l-.07.5Z"/>
              </g>
              <g>
                <path class="cls-3" d="M16.26,45.93c0,1.34-.26,2.42-.79,3.23-.53.81-1.31,1.21-2.33,1.21v-1.45c1.03,0,1.54-1,1.54-2.99h-1.54v-3.13h3.13v3.13Z"/>
                <path class="cls-3" d="M27.88,45.93c0,1.34-.27,2.42-.79,3.23-.53.81-1.31,1.21-2.33,1.21v-1.45c1.03,0,1.54-1,1.54-2.99h-1.54v-3.13h3.13v3.13Z"/>
                <path class="cls-3" d="M20.64,59.85c-.17,0-.35-.05-.5-.14l-4.6-2.68,1.01-1.73,4.07,2.37,5.62-3.69,1.1,1.67-6.13,4.03c-.17.11-.36.16-.55.16Z"/>
              </g>
              <g>
                <path class="cls-2" d="M50.39,29.4l2.25-.12c.03.71.15,1.2.37,1.45.34.41.98.61,1.91.61.77,0,1.33-.14,1.67-.41.34-.28.52-.61.52-1,0-.34-.14-.63-.42-.86-.2-.17-.74-.45-1.63-.84-.89-.39-1.54-.71-1.95-.97-.41-.26-.73-.59-.97-1.01-.23-.41-.35-.89-.35-1.45,0-.96.35-1.76,1.05-2.4.7-.64,1.71-.95,3.04-.95s2.39.32,3.13.95c.74.63,1.14,1.47,1.22,2.52l-2.26.1c-.06-.55-.26-.97-.59-1.26-.34-.29-.84-.44-1.5-.44s-1.12.12-1.4.34c-.28.23-.42.52-.42.87,0,.33.13.6.38.81.26.22.82.52,1.7.9,1.32.57,2.16,1.03,2.52,1.38.54.52.81,1.19.81,2.01,0,1.01-.4,1.88-1.2,2.59-.8.72-1.92,1.08-3.34,1.08-.99,0-1.84-.16-2.56-.5-.72-.33-1.23-.79-1.53-1.38-.3-.59-.44-1.27-.41-2.03Z"/>
                <path class="cls-1" d="M62.37,24.8h2.11l-.21,1.01c.82-.8,1.69-1.21,2.6-1.21.63,0,1.11.13,1.45.39.34.26.56.62.65,1.08.29-.42.7-.77,1.24-1.05.54-.28,1.1-.42,1.67-.42.66,0,1.18.18,1.55.53.37.35.56.82.56,1.41,0,.29-.07.78-.22,1.49l-1.06,5.08h-2.25l1.06-5.08c.13-.64.2-1,.2-1.08,0-.23-.07-.41-.21-.54-.14-.13-.35-.2-.62-.2-.56,0-1.06.29-1.49.88-.32.42-.59,1.17-.81,2.25l-.79,3.77h-2.25l1.05-5.02c.12-.58.18-.95.18-1.13,0-.22-.07-.4-.22-.54-.15-.14-.35-.21-.61-.21-.25,0-.5.07-.76.22-.26.15-.49.35-.68.6-.2.26-.36.58-.5.99-.06.19-.16.61-.31,1.28l-.8,3.82h-2.25l1.74-8.31Z"/>
                <path class="cls-1" d="M78.12,27.16l-2.19-.19c.25-.74.69-1.32,1.31-1.74.62-.42,1.45-.63,2.48-.63s1.86.21,2.37.65c.51.43.77.96.77,1.58,0,.25-.02.52-.07.8-.04.28-.2,1.02-.47,2.22-.22.99-.33,1.69-.33,2.08,0,.36.06.75.19,1.18h-2.18c-.09-.3-.14-.62-.16-.94-.33.37-.71.65-1.13.84-.43.2-.86.29-1.29.29-.69,0-1.26-.23-1.71-.68-.45-.45-.67-1.03-.67-1.74,0-.79.25-1.43.74-1.9.49-.47,1.37-.76,2.64-.86,1.07-.09,1.78-.2,2.14-.32.09-.31.14-.56.14-.75,0-.24-.1-.44-.29-.6-.19-.16-.48-.24-.86-.24-.4,0-.72.08-.95.25-.23.16-.39.4-.47.7ZM80.25,29.24c-.14.04-.32.07-.54.1-1.13.14-1.86.33-2.21.59-.25.19-.37.44-.37.76,0,.26.09.48.28.66.19.18.44.27.74.27.34,0,.66-.08.96-.25.3-.17.52-.38.67-.63.15-.26.28-.66.39-1.21l.06-.3Z"/>
                <path class="cls-1" d="M85.47,24.8h2.1l-.34,1.61c.78-1.21,1.63-1.81,2.54-1.81.32,0,.67.08,1.04.24l-.86,1.84c-.2-.07-.42-.11-.65-.11-.39,0-.78.15-1.18.44-.4.29-.71.68-.93,1.17-.22.49-.45,1.26-.67,2.32l-.55,2.61h-2.25l1.74-8.31Z"/>
                <path class="cls-1" d="M90.66,26.47l.34-1.67h1.1l.27-1.33,2.57-1.55-.6,2.88h1.37l-.34,1.67h-1.38l-.73,3.48c-.13.63-.2.99-.2,1.08,0,.17.05.31.16.4.11.1.31.14.59.14.1,0,.35-.02.74-.05l-.35,1.67c-.39.08-.78.12-1.19.12-.79,0-1.37-.15-1.73-.46-.36-.31-.54-.73-.54-1.27,0-.26.1-.84.29-1.77l.7-3.34h-1.09Z"/>
                <path class="cls-2" d="M97.85,33.11h-2.36l2.4-11.47h5.09c.88,0,1.56.09,2.05.27.49.18.88.51,1.18.99.3.48.45,1.06.45,1.74,0,.98-.29,1.78-.88,2.41-.58.63-1.47,1.03-2.65,1.18.3.27.59.63.85,1.07.53.9,1.11,2.16,1.76,3.8h-2.53c-.2-.65-.6-1.66-1.2-3.03-.32-.74-.67-1.24-1.03-1.49-.22-.15-.62-.23-1.17-.23h-.96l-.99,4.75ZM99.21,26.64h1.25c1.27,0,2.11-.08,2.52-.23.41-.15.74-.39.97-.71.23-.32.35-.66.35-1.02,0-.42-.17-.73-.51-.94-.21-.12-.66-.19-1.35-.19h-2.6l-.64,3.08Z"/>
                <path class="cls-1" d="M115.09,29.65h-5.63c0,.09,0,.16,0,.2,0,.55.16,1,.47,1.34.32.34.7.51,1.15.51.75,0,1.33-.39,1.74-1.16l2.01.34c-.39.81-.91,1.41-1.57,1.82-.65.4-1.39.61-2.2.61-1.12,0-2.02-.35-2.72-1.06-.7-.71-1.05-1.64-1.05-2.8s.32-2.15.95-3.04c.86-1.2,2.09-1.8,3.68-1.8,1.02,0,1.83.31,2.43.94.6.63.9,1.51.9,2.64,0,.54-.05,1.03-.16,1.46ZM113.19,28.28c0-.1,0-.17,0-.23,0-.62-.14-1.08-.42-1.38-.28-.31-.65-.46-1.11-.46s-.88.17-1.25.52c-.37.35-.62.87-.75,1.55h3.51Z"/>
                <path class="cls-1" d="M119.08,27.16l-2.19-.19c.25-.74.69-1.32,1.31-1.74.62-.42,1.45-.63,2.48-.63s1.86.21,2.37.65c.51.43.77.96.77,1.58,0,.25-.02.52-.07.8-.04.28-.2,1.02-.47,2.22-.22.99-.33,1.69-.33,2.08,0,.36.06.75.19,1.18h-2.18c-.09-.3-.14-.62-.16-.94-.33.37-.71.65-1.13.84-.43.2-.86.29-1.29.29-.69,0-1.26-.23-1.71-.68-.45-.45-.67-1.03-.67-1.74,0-.79.25-1.43.74-1.9.49-.47,1.37-.76,2.64-.86,1.07-.09,1.78-.2,2.14-.32.09-.31.14-.56.14-.75,0-.24-.1-.44-.29-.6-.19-.16-.48-.24-.86-.24-.4,0-.72.08-.95.25-.23.16-.39.4-.47.7ZM121.21,29.24c-.14.04-.32.07-.54.1-1.13.14-1.86.33-2.21.59-.25.19-.37.44-.37.76,0,.26.09.48.28.66.19.18.44.27.74.27.34,0,.66-.08.96-.25.3-.17.52-.38.67-.63.15-.26.28-.66.39-1.21l.06-.3Z"/>
                <path class="cls-1" d="M132.49,33.11h-2.13l.19-.9c-.41.39-.81.67-1.2.84-.39.17-.84.25-1.33.25-.86,0-1.56-.29-2.09-.88-.53-.59-.8-1.45-.8-2.6,0-1.33.38-2.53,1.13-3.61.75-1.07,1.74-1.61,2.98-1.61,1.12,0,1.95.44,2.51,1.33l.9-4.29h2.25l-2.39,11.47ZM127.31,29.73c0,.59.15,1.06.45,1.39.3.33.67.5,1.11.5.41,0,.79-.14,1.14-.42.35-.28.63-.71.84-1.28.21-.57.32-1.12.32-1.65,0-.6-.16-1.08-.49-1.45-.32-.37-.7-.56-1.12-.56-.66,0-1.2.37-1.62,1.1-.42.73-.63,1.52-.63,2.37Z"/>
                <path class="cls-1" d="M136.34,24.8h2.25l-1.74,8.31h-2.25l1.74-8.31ZM137,21.64h2.25l-.42,2.03h-2.25l.42-2.03Z"/>
                <path class="cls-1" d="M140.83,24.8h2.13l-.22,1.08c.53-.46,1.03-.79,1.49-.98.46-.2.95-.29,1.46-.29.68,0,1.22.2,1.62.59.39.39.59.91.59,1.56,0,.29-.09.84-.26,1.66l-.98,4.7h-2.25l.99-4.72c.15-.7.22-1.12.22-1.26,0-.29-.08-.51-.25-.68-.17-.17-.41-.25-.71-.25-.33,0-.69.14-1.1.41-.4.28-.72.64-.95,1.09-.17.32-.35.98-.56,1.98l-.71,3.41h-2.25l1.74-8.31Z"/>
                <path class="cls-1" d="M148.73,33.55l2.37.34c0,.24.04.42.12.54.08.12.2.23.38.31.17.09.41.13.72.13.47,0,.86-.09,1.14-.28.21-.15.39-.38.52-.7.08-.2.19-.65.32-1.33l.08-.39c-.78.65-1.58.97-2.41.97s-1.48-.29-2-.86c-.52-.57-.78-1.41-.78-2.52,0-.97.18-1.87.53-2.68.35-.81.85-1.43,1.49-1.85s1.3-.63,1.96-.63c.55,0,1.06.15,1.52.44.46.29.82.7,1.07,1.23l.31-1.47h2.1l-1.44,6.92c-.23,1.11-.43,1.9-.59,2.38-.16.47-.35.85-.56,1.13-.21.28-.47.52-.79.71-.32.19-.69.33-1.13.41-.43.08-.9.12-1.41.12-1.17,0-2.06-.2-2.66-.6-.6-.4-.9-1.07-.9-2,0-.1,0-.21.02-.33ZM151.37,29.54c0,.63.14,1.11.43,1.44.28.33.64.5,1.07.5.39,0,.77-.15,1.14-.45.37-.3.65-.72.84-1.27.2-.55.29-1.08.29-1.59,0-.59-.16-1.06-.48-1.42-.32-.36-.69-.54-1.1-.54s-.77.16-1.11.48c-.34.32-.61.81-.83,1.47-.17.51-.25.97-.25,1.38Z"/>
              </g>
              <g>
                <path class="cls-2" d="M51.16,44.16h1.94c.11,0,.17.04.17.13v2.8c0,.25.05.44.13.57.06.13.14.22.25.29.16.1.35.17.57.21.28.04.6.06.96.06h2.29c.89,0,1.95-.1,3.16-.29.06-.03.11-.04.16-.04.06,0,.08.01.08.04-.08.29-.15.58-.2.87,0,.12-.07.18-.18.18h-5.31c-.26,0-.51-.02-.76-.05-.24-.04-.47-.09-.71-.17-.2-.08-.39-.18-.57-.31-.11-.11-.24-.3-.39-.57l-.03-.04s-.08,0-.08.02c-.72.53-1.11.88-1.17,1.06-.02.04-.05.05-.1.05-.05,0-.19-.18-.41-.54-.04-.06-.05-.14-.05-.22.42-.17.93-.48,1.55-.93.04-.03.05-.09.05-.2v-2.24h-1.35c-.08,0-.13-.06-.13-.18v-.34c0-.11.04-.17.13-.17ZM51.67,41.55c.38.22.69.42.93.61.28.22.52.42.72.61,0,.02-.02.05-.05.1-.2.3-.31.45-.33.45-.3-.3-.63-.56-.99-.8-.28-.2-.51-.33-.7-.41,0-.05.11-.21.34-.49.04-.05.06-.07.08-.07ZM51.88,39.4c.37.18.67.36.9.52.27.19.51.37.71.53,0,.02-.02.05-.05.09-.2.3-.31.46-.33.46-.3-.25-.62-.48-.96-.69-.27-.17-.5-.3-.69-.36,0-.04.11-.2.34-.47.03-.05.05-.07.08-.07ZM57.07,39.1c.54,0,.81.04.81.13,0,.1-.04.15-.12.16-.07.01-.11.09-.11.22v.51h2.87c.06,0,.08.04.08.13v.34c0,.08-.03.13-.08.13h-1.83l.37.16c.11.04.16.09.16.14,0,.04-.03.07-.09.09-.06,0-.1.03-.12.09-.11.31-.23.57-.34.78h1.34c.14,0,.21.05.21.14v4.99c0,.2-.1.36-.32.48-.21.08-.46.14-.78.17-.08,0-.12-.04-.14-.12,0-.16-.09-.38-.24-.69,0-.02.02-.03.06-.03.32,0,.5-.02.55-.07.07-.04.1-.11.1-.21v-4.06h-1.94v.79h1.52c.06,0,.08.05.08.14v.33c0,.09-.03.14-.08.14h-1.52v.79h.97c.11,0,.17.05.17.14v1.85c0,.08-.06.13-.17.13h-2.11v.3c0,.08-.06.12-.17.12h-.42c-.08,0-.13-.04-.13-.12v-2.27c0-.09.04-.14.13-.14h.97v-.79h-1.31c-.06,0-.08-.05-.08-.14v-.33c0-.09.03-.14.08-.14h1.31v-.79h-1.77v4.89c0,.09-.05.14-.17.14h-.42c-.11,0-.17-.05-.17-.14v-5.35c0-.09.06-.14.17-.14h1.54s-.04-.1-.06-.15c-.11-.26-.27-.52-.46-.78,0-.04.18-.15.55-.34.2.28.35.54.46.78.08.16.16.32.22.48h1.18c.14-.2.25-.37.32-.53.13-.24.23-.48.29-.72v-.02h-4.37c-.06,0-.08-.04-.08-.13v-.34c0-.08.03-.13.08-.13h2.83v-.89c0-.08.06-.13.17-.13ZM56.39,46.27h1.56v-.92h-1.56v.92Z"/>
                <path class="cls-2" d="M63.07,41.12c.54.11.8.2.8.25,0,.08-.04.13-.13.17-.08.07-.13.15-.14.24-.07.75-.16,1.38-.26,1.88-.06.27-.14.54-.24.82-.03.06-.05.09-.07.09-.24-.07-.45-.12-.62-.15-.06-.01-.09-.05-.09-.11.15-.36.27-.75.38-1.19.11-.43.2-1.05.26-1.87,0-.1.04-.15.12-.15ZM64.17,39.05c.53,0,.8.04.8.13,0,.1-.03.15-.11.16-.07,0-.11.08-.11.22v9.3c0,.08-.06.12-.17.12h-.42c-.11,0-.17-.04-.17-.12v-9.68c0-.08.06-.13.17-.13ZM65.56,41.04c.06,0,.11.01.13.04.2.49.39,1.02.55,1.57,0,.1-.02.15-.07.16-.25.18-.45.26-.6.26-.16-.68-.32-1.25-.46-1.7,0-.07.16-.18.46-.34ZM67.17,39.91l.73.26c.08.06.12.11.12.16,0,.06-.03.1-.08.12-.06,0-.09.05-.11.14-.06.34-.13.63-.19.88h1.39v-2.24c0-.08.06-.13.17-.13.53,0,.8.04.8.13,0,.1-.04.15-.11.16-.07.01-.11.09-.11.22v1.86h2.36c.08,0,.13.06.13.17v.34c0,.12-.04.18-.13.18h-2.36v2.48h2.11c.08,0,.13.06.13.18v.33c0,.12-.04.18-.13.18h-2.11v2.61h2.66c.08,0,.13.06.13.17v.35c0,.11-.04.16-.13.16h-6.2c-.09,0-.13-.05-.13-.16v-.35c0-.11.04-.17.13-.17h2.79v-2.61h-2.07c-.08,0-.13-.06-.13-.18v-.33c0-.12.04-.18.13-.18h2.07v-2.48h-1.56c-.1.33-.21.65-.33.95-.12.29-.25.54-.39.77-.09,0-.17,0-.23-.03-.14-.06-.28-.11-.41-.16-.05-.02-.08-.04-.08-.06,0-.04.01-.06.03-.08.21-.34.4-.77.56-1.28.1-.29.19-.6.26-.93.09-.34.16-.79.23-1.33.01-.06.03-.08.05-.08Z"/>
                <path class="cls-2" d="M74.77,39.27h3.54c.11,0,.17.05.17.14v3.03c0,.09-.06.14-.17.14h-2.95v6.24c0,.09-.06.14-.17.14h-.42c-.11,0-.17-.05-.17-.14v-9.4c0-.09.06-.14.17-.14ZM75.36,40.62h2.45v-.75h-2.45v.75ZM75.36,41.97h2.45v-.75h-2.45v.75ZM77.35,43.19l.64.27c.1.04.16.09.16.15,0,.04-.05.06-.15.07-.13,0-.21.03-.24.07-.2.2-.4.38-.59.53h3.75c-.07-.05-.13-.1-.18-.15-.18-.16-.31-.33-.39-.54-.02-.02-.03-.04-.03-.06h-1.53c-.08,0-.13-.06-.13-.18v-.33c0-.09.04-.14.13-.14h1.94c.11,0,.17.05.17.14,0,.17.04.32.13.44.08.13.18.24.32.33.13.09.3.17.53.24.16.05.34.09.53.13.05,0,.07.02.07.03,0,.02-.03.05-.09.07-.12.12-.23.24-.35.37-.05.04-.12.06-.2.06-.14-.03-.31-.09-.5-.18-.06-.03-.12-.06-.18-.09v1.95c0,.08-.06.13-.17.13h-.93v.84c0,.28.17.42.51.42h.42c.06,0,.1-.03.14-.09.03-.06.04-.23.05-.51,0-.04.01-.06.02-.06.18.1.38.16.59.17.08,0,.12.05.12.12-.05.43-.13.71-.23.85-.06.11-.16.17-.32.17h-1.14c-.56,0-.84-.21-.84-.64v-1.27h-.76c0,.2-.02.37-.03.53-.03.2-.1.38-.19.56-.08.16-.2.32-.37.47-.17.14-.39.26-.64.37-.21.07-.44.13-.71.19-.06,0-.1-.04-.12-.11-.1-.13-.19-.26-.28-.41-.02-.04-.03-.07-.03-.11.35-.06.63-.12.84-.18.17-.06.3-.13.4-.22.1-.07.19-.16.24-.26.07-.11.12-.25.16-.4.02-.1.03-.24.03-.42h-.79c-.11,0-.17-.04-.17-.13v-1.96c-.09.06-.18.12-.26.17-.09.04-.16.06-.2.06-.05,0-.11-.02-.18-.06-.15-.06-.29-.12-.41-.18-.06-.02-.08-.03-.08-.04,0-.02.02-.04.06-.06.34-.18.59-.35.77-.5.25-.18.43-.36.56-.55.04-.05.08-.08.13-.08ZM80.39,45.89v-.97h-2.66v.97h2.66ZM79.79,39.27h3.59c.14,0,.21.05.21.14v8.48c0,.36-.13.64-.39.83-.25.15-.57.25-.96.3-.08,0-.12-.04-.13-.12-.02-.16-.1-.39-.25-.69,0-.04.02-.06.07-.06.43,0,.68-.04.76-.13.09-.09.14-.23.14-.42v-5.03h-3.04c-.11,0-.17-.04-.17-.14v-3.03c0-.09.06-.14.17-.14ZM80.39,40.62h2.45v-.75h-2.45v.75ZM80.39,41.97h2.45v-.75h-2.45v.75Z"/>
                <path class="cls-2" d="M85.92,40.87h3.25c.08,0,.13.06.13.17v.34c0,.11-.04.17-.13.17h-3.25c-.09,0-.13-.06-.13-.17v-.34c0-.11.04-.17.13-.17ZM86.22,45.55h2.66c.11,0,.17.04.17.13v2.91c0,.08-.06.13-.17.13h-.42c-.08,0-.13-.04-.13-.13v-.34h-1.52v.51c0,.09-.06.14-.17.14h-.42c-.08,0-.13-.05-.13-.14v-3.08c0-.08.04-.13.13-.13ZM86.43,39.31h2.36c.08,0,.13.06.13.18v.33c0,.11-.04.17-.13.17h-2.36c-.08,0-.13-.06-.13-.17v-.33c0-.12.04-.18.13-.18ZM86.43,42.39h2.36c.08,0,.13.06.13.18v.33c0,.12-.04.18-.13.18h-2.36c-.08,0-.13-.06-.13-.18v-.33c0-.12.04-.18.13-.18ZM86.43,43.92h2.36c.08,0,.13.05.13.16v.35c0,.11-.04.16-.13.16h-2.36c-.08,0-.13-.05-.13-.16v-.35c0-.11.04-.16.13-.16ZM86.81,47.59h1.52v-1.39h-1.52v1.39ZM90.23,44.46h4.69c.11,0,.17.04.17.13v3.17c0,.08-.06.13-.17.13h-.99c.21.13.39.23.57.32.22.1.54.21.97.33.06.04.08.06.08.07,0,.06-.14.22-.42.51-.02,0-.06,0-.11-.01-.82-.32-1.42-.62-1.82-.9-.04-.03-.06-.05-.06-.06,0-.04.07-.12.22-.25h-1.58c.26.22.39.34.39.38,0,.05-.04.07-.12.07-.13,0-.21.02-.22.05-.56.33-1.15.6-1.77.8-.08,0-.13-.03-.17-.08-.04-.08-.11-.17-.22-.26-.05-.04-.07-.08-.07-.12,0-.03.03-.05.08-.06.33-.1.62-.21.87-.34.25-.11.5-.26.74-.44h-1.06c-.11,0-.17-.04-.17-.13v-3.17c0-.08.06-.13.17-.13ZM89.76,39.77h2.45v-.55c0-.06.04-.08.13-.08.51,0,.76.04.76.12,0,.09-.03.14-.08.15-.06,0-.08.07-.08.19v.17h2.45c.06,0,.08.05.08.14v.24c0,.12-.03.18-.08.18h-2.45v.47h1.98c.06,0,.08.04.08.12v.25c0,.11-.03.17-.08.17h-4.73c-.06,0-.08-.06-.08-.17v-.25c0-.08.03-.12.08-.12h2.03v-.47h-2.45c-.06,0-.08-.06-.08-.18v-.24c0-.09.03-.14.08-.14ZM89.85,41.8h5.44c.11,0,.17.04.17.13v1.99c0,.08-.06.12-.17.12h-5.44c-.11,0-.17-.04-.17-.12v-1.99c0-.09.06-.13.17-.13ZM91.28,43.57v-1.31h-.93v1.31h.93ZM90.78,45.47h3.59v-.51h-3.59v.51ZM90.78,46.44h3.59v-.51h-3.59v.51ZM94.36,47.37v-.46h-3.59v.46h3.59ZM93.01,43.57v-1.31h-1.01v1.31h1.01ZM94.79,43.57v-1.31h-1.05v1.31h1.05Z"/>
              </g>
              <g>
                <path class="cls-5" d="M158.19,40.8c0,1.13-.92,2.05-2.05,2.05s-2.05-.92-2.05-2.05.92-2.05,2.05-2.05,2.05.92,2.05,2.05ZM156.14,38.4c-1.32,0-2.4,1.08-2.4,2.4s1.07,2.4,2.4,2.4,2.4-1.08,2.4-2.4-1.07-2.4-2.4-2.4Z"/>
                <path class="cls-5" d="M155.07,42.2v-2.8h1.24c.25,0,.44.03.57.08.13.05.23.14.31.27.08.13.12.27.12.42,0,.2-.06.37-.19.5-.13.14-.33.22-.6.26.1.05.17.09.22.14.11.1.21.22.31.37l.48.76h-.46l-.37-.58c-.11-.17-.2-.3-.27-.39-.07-.09-.13-.15-.19-.19-.06-.04-.11-.06-.17-.08-.04,0-.11-.01-.21-.01h-.43v1.24h-.37ZM155.44,40.64h.8c.17,0,.3-.02.4-.05.1-.04.17-.09.22-.17.05-.08.08-.16.08-.25,0-.13-.05-.24-.15-.33-.1-.08-.25-.13-.46-.13h-.89v.93Z"/>
              </g>
            </g>
          </g>
        </g>
      </g>
    </g>
  </g>
</svg>